<?xml version="1.0"?>
<svg xmlns="http://www.w3.org/2000/svg" viewBox="0 0 24 24">
    <path d="M 20.455078 7.9882812 C 19.718078 7.9882813 19.072625 8.1609063 18.515625 8.5039062 C 17.959625 8.8459062 17.532422 9.3375156 17.232422 9.9785156 C 16.933422 10.619516 16.783203 11.360172 16.783203 12.201172 L 16.783203 12.736328 C 16.783203 14.054328 17.108812 15.092656 17.757812 15.847656 C 18.406813 16.602656 19.298641 16.980469 20.431641 16.980469 C 21.467641 16.980469 22.302547 16.710922 22.935547 16.169922 C 23.568547 15.628922 23.919281 14.887313 23.988281 13.945312 L 23.988281 13.943359 L 22.169922 13.943359 C 22.128922 14.476359 21.968406 14.869047 21.691406 15.123047 C 21.414406 15.378047 20.994641 15.505859 20.431641 15.505859 C 19.808641 15.505859 19.3515 15.288562 19.0625 14.851562 C 18.7735 14.415562 18.628906 13.723344 18.628906 12.777344 L 18.628906 12.117188 C 18.636906 11.212188 18.79175 10.544281 19.09375 10.113281 C 19.39575 9.6822812 19.848078 9.4667969 20.455078 9.4667969 C 21.014078 9.4667969 21.430125 9.5956094 21.703125 9.8496094 C 21.977125 10.103609 22.136641 10.513125 22.181641 11.078125 L 24.001953 11.078125 C 23.904953 10.100125 23.544875 9.3417813 22.921875 8.8007812 C 22.298875 8.2597813 21.475078 7.9882812 20.455078 7.9882812 z M 3.2910156 8.109375 L 0 16.859375 L 1.9375 16.859375 L 2.5449219 15.056641 L 5.7363281 15.056641 L 6.3515625 16.859375 L 8.2871094 16.859375 L 4.9785156 8.109375 L 3.2910156 8.109375 z M 9.1132812 8.109375 L 9.1132812 16.859375 L 12.550781 16.859375 C 13.554781 16.851375 14.327141 16.630266 14.869141 16.197266 C 15.412141 15.764266 15.683594 15.128109 15.683594 14.287109 C 15.683594 13.794109 15.552016 13.377109 15.291016 13.037109 C 15.030016 12.697109 14.67175 12.469422 14.21875 12.357422 C 14.61575 12.205422 14.925437 11.967625 15.148438 11.640625 C 15.371437 11.313625 15.482422 10.936813 15.482422 10.507812 C 15.482422 9.7228125 15.205391 9.12575 14.650391 8.71875 C 14.095391 8.31175 13.281984 8.109375 12.208984 8.109375 L 9.1132812 8.109375 z M 10.933594 9.5703125 L 12.208984 9.5703125 C 12.710984 9.5703125 13.077547 9.6560781 13.310547 9.8300781 C 13.543547 10.004078 13.660156 10.2905 13.660156 10.6875 C 13.660156 11.3965 13.20025 11.759391 12.28125 11.775391 L 10.933594 11.775391 L 10.933594 9.5703125 z M 4.1347656 10.320312 L 5.2460938 13.595703 L 3.0351562 13.595703 L 4.1347656 10.320312 z M 10.933594 13.050781 L 12.603516 13.050781 C 13.441516 13.062781 13.859375 13.468531 13.859375 14.269531 C 13.859375 14.625531 13.739047 14.905422 13.498047 15.107422 C 13.257047 15.309422 12.923141 15.410156 12.494141 15.410156 L 10.933594 15.410156 L 10.933594 13.050781 z"/>
</svg>
