<?xml version="1.0"?>
<svg xmlns="http://www.w3.org/2000/svg" viewBox="0 0 24 24">
    <path d="M 12 4 C 7.59 4 4 7.59 4 12 C 4 16.41 7.59 20 12 20 C 16.41 20 20 16.41 20 12 C 20 7.59 16.41 4 12 4 z M 2.7441406 4.3613281 C 1.030981 6.4354399 2.9605947e-16 9.1043195 0 12 C 0 14.894519 1.0292634 17.559801 2.7402344 19.632812 L 4.2832031 18.361328 C 2.8561741 16.63234 2 14.421481 2 12 C 2 9.5776805 2.8563159 7.3666069 4.2851562 5.6367188 L 2.7441406 4.3613281 z M 21.259766 4.3671875 L 19.716797 5.6386719 C 21.143826 7.3676599 22 9.5785187 22 12 C 22 14.423409 21.143794 16.63326 19.714844 18.363281 L 21.255859 19.638672 C 22.968909 17.564693 24 14.896591 24 12 C 24 9.1054813 22.970737 6.4401994 21.259766 4.3671875 z M 15.380859 10.259766 C 15.640859 10.259766 15.870312 10.300625 16.070312 10.390625 C 16.270312 10.480625 16.429063 10.609297 16.539062 10.779297 C 16.649062 10.949297 16.710938 11.139375 16.710938 11.359375 L 15.849609 11.359375 C 15.849609 11.209375 15.810703 11.099531 15.720703 11.019531 C 15.630703 10.939531 15.509375 10.900391 15.359375 10.900391 C 15.209375 10.900391 15.09 10.94 15 11 C 14.91 11.07 14.869141 11.159766 14.869141 11.259766 C 14.869141 11.349766 14.909766 11.439766 15.009766 11.509766 C 15.109766 11.579766 15.279297 11.660234 15.529297 11.740234 C 15.769297 11.820234 15.970859 11.900234 16.130859 11.990234 C 16.520859 12.220234 16.710938 12.520156 16.710938 12.910156 C 16.710938 13.220156 16.589375 13.460625 16.359375 13.640625 C 16.119375 13.820625 15.800625 13.910156 15.390625 13.910156 C 15.110625 13.910156 14.839375 13.86 14.609375 13.75 C 14.379375 13.65 14.200078 13.510078 14.080078 13.330078 C 13.960078 13.150078 13.910156 12.940938 13.910156 12.710938 L 14.769531 12.710938 C 14.769531 12.900937 14.810156 13.040859 14.910156 13.130859 C 15.010156 13.220859 15.170625 13.259766 15.390625 13.259766 C 15.540625 13.259766 15.650469 13.229922 15.730469 13.169922 C 15.810469 13.109922 15.849609 13.030156 15.849609 12.910156 C 15.849609 12.790156 15.810703 12.689141 15.720703 12.619141 C 15.630703 12.549141 15.47 12.480391 15.25 12.400391 C 15.03 12.330391 14.850937 12.259453 14.710938 12.189453 C 14.240937 11.959453 14.009766 11.65 14.009766 11.25 C 14.009766 11.06 14.069453 10.880469 14.189453 10.730469 C 14.299453 10.580469 14.459922 10.470859 14.669922 10.380859 C 14.879922 10.300859 15.120859 10.259766 15.380859 10.259766 z M 8.4199219 10.300781 L 9.2207031 10.300781 L 10.539062 13.859375 L 9.609375 13.859375 L 9.4101562 13.199219 L 8.2304688 13.199219 L 8.0292969 13.859375 L 7.109375 13.859375 L 8.4199219 10.300781 z M 10.789062 10.300781 L 12.070312 10.300781 C 12.530313 10.300781 12.879375 10.390547 13.109375 10.560547 C 13.349375 10.720547 13.470703 10.969062 13.470703 11.289062 C 13.470703 11.469062 13.429609 11.629766 13.349609 11.759766 C 13.259609 11.889766 13.140703 11.979062 12.970703 12.039062 C 13.160703 12.089063 13.300391 12.190312 13.400391 12.320312 C 13.500391 12.450313 13.550781 12.620547 13.550781 12.810547 C 13.550781 13.160547 13.440703 13.419844 13.220703 13.589844 C 13.000703 13.769844 12.670234 13.859375 12.240234 13.859375 L 10.789062 13.859375 L 10.789062 10.300781 z M 11.650391 10.960938 L 11.650391 11.789062 L 12.099609 11.789062 C 12.289609 11.789062 12.42 11.749688 12.5 11.679688 C 12.54 11.649687 12.569844 11.609297 12.589844 11.560547 C 12.609844 11.511797 12.619141 11.455625 12.619141 11.390625 C 12.619141 11.315625 12.608437 11.250312 12.585938 11.195312 C 12.563438 11.140313 12.530234 11.095547 12.490234 11.060547 C 12.445234 11.030547 12.388359 11.005781 12.318359 10.988281 C 12.248359 10.970781 12.165312 10.960937 12.070312 10.960938 L 11.650391 10.960938 z M 8.8203125 11.300781 L 8.4394531 12.529297 L 9.1992188 12.529297 L 8.8203125 11.300781 z M 11.650391 12.349609 L 11.650391 13.199219 L 12.210938 13.199219 C 12.290938 13.199219 12.359922 13.193281 12.419922 13.175781 C 12.479922 13.158281 12.530312 13.129844 12.570312 13.089844 C 12.650313 13.019844 12.689453 12.919062 12.689453 12.789062 C 12.689453 12.716563 12.681875 12.654453 12.664062 12.599609 C 12.628438 12.489922 12.555937 12.416094 12.445312 12.378906 C 12.39 12.360312 12.325 12.349609 12.25 12.349609 L 11.650391 12.349609 z"/>
</svg>
