<?xml version="1.0"?>
<svg xmlns="http://www.w3.org/2000/svg" viewBox="0 0 24 24">
    <path d="M 13 2 A 2 2 0 0 0 11 4 A 2 2 0 0 0 13 6 A 2 2 0 0 0 15 4 A 2 2 0 0 0 13 2 z M 10 8 L 10 16 L 12 16 L 15 16 L 16.433594 16 L 19.142578 20.513672 L 20.857422 19.486328 L 17.566406 14 L 15 14 L 15 8 L 10 8 z M 8 10.349609 C 5.673 11.175609 4 13.393 4 16 C 4 19.309 6.691 22 10 22 C 12.607 22 14.824391 20.327 15.650391 18 L 13.443359 18 C 12.749359 19.19 11.474 20 10 20 C 7.794 20 6 18.206 6 16 C 6 14.526 6.81 13.250641 8 12.556641 L 8 10.349609 z"/>
</svg>
