<?xml version="1.0"?>
<svg xmlns="http://www.w3.org/2000/svg" viewBox="0 0 24 24">
    <path d="M 12 1 C 10.696 1 9.5965937 1.837 9.1835938 3 L 3 3 L 3 21 L 12 21 L 12 9 L 21 9 L 21 3 L 14.816406 3 C 14.403406 1.837 13.304 1 12 1 z M 12 3 C 12.552 3 13 3.448 13 4 C 13 4.552 12.552 5 12 5 C 11.448 5 11 4.552 11 4 C 11 3.448 11.448 3 12 3 z M 14 11 L 14 24 L 24 24 L 24 11 L 14 11 z M 16 13 L 22 13 L 22 15 L 16 15 L 16 13 z M 17 17 C 17.552 17 18 17.448 18 18 C 18 18.552 17.552 19 17 19 C 16.448 19 16 18.552 16 18 C 16 17.448 16.448 17 17 17 z M 21 17 C 21.552 17 22 17.448 22 18 C 22 18.552 21.552 19 21 19 C 20.448 19 20 18.552 20 18 C 20 17.448 20.448 17 21 17 z M 17 20 C 17.552 20 18 20.448 18 21 C 18 21.552 17.552 22 17 22 C 16.448 22 16 21.552 16 21 C 16 20.448 16.448 20 17 20 z M 21 20 C 21.552 20 22 20.448 22 21 C 22 21.552 21.552 22 21 22 C 20.448 22 20 21.552 20 21 C 20 20.448 20.448 20 21 20 z"/>
</svg>
