<?xml version="1.0"?>
<svg xmlns="http://www.w3.org/2000/svg" viewBox="0 0 24 24">
    <path style="line-height:normal;text-indent:0;text-align:start;text-decoration-line:none;text-decoration-style:solid;text-decoration-color:#000;text-transform:none;block-progression:tb;isolation:auto;mix-blend-mode:normal" d="M 11 1 L 11 3.0585938 C 6.8386754 3.5222833 3.5222833 6.8386754 3.0585938 11 L 1 11 L 1 13 L 3.0585938 13 C 3.5222833 17.161325 6.8386754 20.477717 11 20.941406 L 11 23 L 13 23 L 13 20.941406 C 17.161325 20.477717 20.477717 17.161325 20.941406 13 L 23 13 L 23 11 L 20.941406 11 C 20.477717 6.8386754 17.161325 3.5222833 13 3.0585938 L 13 1 L 11 1 z M 11 5.078125 L 11 7.1015625 C 9.0489032 7.5020376 7.5020376 9.0489032 7.1015625 11 L 5.078125 11 C 5.5153497 7.9282342 7.9282342 5.5153497 11 5.078125 z M 13 5.078125 C 16.071766 5.5153497 18.48465 7.9282342 18.921875 11 L 16.898438 11 C 16.497962 9.0489032 14.951097 7.5020376 13 7.1015625 L 13 5.078125 z M 12 9 C 13.668699 9 15 10.331301 15 12 C 15 13.668699 13.668699 15 12 15 C 10.331301 15 9 13.668699 9 12 C 9 10.331301 10.331301 9 12 9 z M 12 11 A 1 1 0 0 0 11 12 A 1 1 0 0 0 12 13 A 1 1 0 0 0 13 12 A 1 1 0 0 0 12 11 z M 5.078125 13 L 7.1015625 13 C 7.5020376 14.951097 9.0489032 16.497962 11 16.898438 L 11 18.921875 C 7.9282342 18.48465 5.5153497 16.071766 5.078125 13 z M 16.898438 13 L 18.921875 13 C 18.48465 16.071766 16.071766 18.48465 13 18.921875 L 13 16.898438 C 14.951097 16.497962 16.497962 14.951097 16.898438 13 z"/>
</svg>
