<?xml version="1.0"?>
<svg xmlns="http://www.w3.org/2000/svg" viewBox="0 0 24 24">
    <path style="line-height:normal;text-indent:0;text-align:start;text-decoration-line:none;text-decoration-style:solid;text-decoration-color:#000;text-transform:none;block-progression:tb;isolation:auto;mix-blend-mode:normal" d="M 3 2 L 3 18.5 C 3 20.43 4.346 22 6 22 L 19 22 C 20.654 22 22 20.43 22 18.5 C 22 16.57 20.654 15 19 15 L 19 2 L 16 2 C 16 2.552 15.552 3 15 3 C 14.448 3 14 2.552 14 2 L 12 2 C 12 2.552 11.552 3 11 3 C 10.448 3 10 2.552 10 2 L 8 2 C 8 2.552 7.552 3 7 3 C 6.448 3 6 2.552 6 2 L 3 2 z M 6 6 L 16 6 L 16 8 L 6 8 L 6 6 z M 6 10 L 13 10 L 13 12 L 6 12 L 6 10 z M 6 17 C 6.532 17 7 17.701 7 18.5 C 7 19.299 6.532 20 6 20 C 5.468 20 5 19.299 5 18.5 C 5 17.701 5.468 17 6 17 z M 8.6992188 17 L 19 17 C 19.532 17 20 17.701 20 18.5 C 20 19.299 19.532 20 19 20 L 8.6992188 20 C 8.8864357 19.543644 9 19.038795 9 18.5 C 9 17.961 8.8862187 17.456 8.6992188 17 z" font-weight="400" font-family="sans-serif" white-space="normal" overflow="visible"/>
</svg>
