<?xml version="1.0"?>
<svg xmlns="http://www.w3.org/2000/svg" viewBox="0 0 24 24">
    <path d="M 14.527344 1 L 14.236328 1.265625 C 13.597328 1.851625 11.537609 1.8202344 10.349609 1.6152344 L 10 3.5859375 C 10.555 3.6829375 13.042719 4.0522969 14.761719 3.2792969 C 15.972719 4.4382969 17.887438 4.6994219 19.148438 4.7324219 C 19.097438 6.0074219 19.279391 7.9910781 20.650391 9.3300781 C 19.489391 11.367078 20.282266 13.885859 20.322266 14.005859 L 22.244141 13.394531 C 22.237141 13.372531 21.552562 11.122719 22.726562 9.8867188 L 23 9.5976562 L 23 8.5332031 L 22.509766 8.2421875 C 20.635766 7.1291875 21.257672 3.9303906 21.263672 3.9003906 L 21.535156 2.5742188 L 20.175781 2.7050781 C 19.296781 2.7880781 16.618438 2.7499062 15.898438 1.5039062 L 15.507812 1 L 14.527344 1 z M 5 6 L 5 10 L 14.560547 10 L 13.939453 12.490234 L 13.509766 14.210938 C 12.979766 16.330938 11.15 17.840234 9 17.990234 L 9 19 L 7 19 L 7 16 L 8.6601562 16 C 10.030156 16 11.230313 15.060469 11.570312 13.730469 L 12 12 L 3 12 L 3 19.419922 L 5.5800781 22 L 18 22 L 18 6 L 5 6 z"/>
</svg>
