<?xml version="1.0"?>
<svg xmlns="http://www.w3.org/2000/svg" viewBox="0 0 24 24">
    <path d="M 1 3 L 1 21 L 2 21 L 11 21 L 11 19.384766 C 11 17.496766 12.141266 15.895406 13.947266 14.941406 C 13.355266 14.119406 13 13.112 13 12 C 13 10.37 13.792 8.9354375 15 8.0234375 L 15 3 L 1 3 z M 5 7 L 7 7 L 7 9 L 5 9 L 5 7 z M 9 7 L 11 7 L 11 9 L 9 9 L 9 7 z M 18 9 A 3 3 0 0 0 15 12 A 3 3 0 0 0 18 15 A 3 3 0 0 0 21 12 A 3 3 0 0 0 18 9 z M 5 11 L 7 11 L 7 13 L 5 13 L 5 11 z M 9 11 L 11 11 L 11 13 L 9 13 L 9 11 z M 5 15 L 7 15 L 7 17 L 5 17 L 5 15 z M 9 15 L 11 15 L 11 17 L 9 17 L 9 15 z M 18 16 C 15.149 16 13 17.455766 13 19.384766 L 13 21 L 23 21 L 23 19.384766 C 23 17.455766 20.851 16 18 16 z"/>
</svg>
