<?xml version="1.0"?>
<svg xmlns="http://www.w3.org/2000/svg" viewBox="0 0 24 24">
    <path d="M 5 3 C 3.346 3 2 4.346 2 6 L 2 9 L 5 9 L 5 18 C 5 19.654 6.346 21 8 21 L 10.587891 21 C 10.211891 20.073 10 19.062 10 18 C 10 17.661 10.027359 17.328 10.068359 17 L 8 17 L 8 15 L 10.587891 15 C 10.881891 14.274 11.277766 13.602 11.759766 13 L 8 13 L 8 11 L 13 11 L 14 11 L 14.158203 11 C 15.300203 10.371 16.605 10 18 10 L 18 6 C 18 4.346 16.654 3 15 3 L 5 3 z M 5 5 L 12.171875 5 C 12.061875 5.313 12 5.649 12 6 L 12 7 L 4 7 L 4 6 C 4 5.448 4.449 5 5 5 z M 18 12 C 14.7 12 12 14.7 12 18 C 12 21.3 14.7 24 18 24 C 21.3 24 24 21.3 24 18 C 24 14.7 21.3 12 18 12 z M 17 15 L 19 15 L 19 17 L 21 17 L 21 19 L 19 19 L 19 21 L 17 21 L 17 19 L 15 19 L 15 17 L 17 17 L 17 15 z"/>
</svg>
