<?xml version="1.0"?>
<svg xmlns="http://www.w3.org/2000/svg" viewBox="0 0 24 24">
    <path d="M 3 3 L 3 7 L 1 7 L 1 9 L 3 9 L 4 9 L 4 11 L 3 11 L 1 11 L 1 13 L 3 13 L 4 13 L 4 15 L 3 15 L 1 15 L 1 17 L 3 17 L 3 21 L 21 21 L 21 3 L 3 3 z M 12.099609 6 C 15.399609 6 18.099609 8.7 18.099609 12 L 18.099609 12.800781 L 18 12.800781 C 18 14.000781 16.999219 15.099609 15.699219 15.099609 C 14.999219 15.099609 14.4 14.800781 14 14.300781 C 13.5 14.800781 12.8 15.099609 12 15.099609 C 10.3 15.099609 9 13.799609 9 12.099609 C 9 10.399609 10.3 9.0996094 12 9.0996094 C 13.7 9.0996094 15 10.399609 15 12.099609 L 15 12.900391 C 15 13.300391 15.300781 13.699219 15.800781 13.699219 C 16.300781 13.699219 16.599609 13.400391 16.599609 12.900391 L 16.599609 12 C 16.599609 9.5 14.599609 7.5 12.099609 7.5 C 9.5996094 7.5 7.5996094 9.5 7.5996094 12 C 7.5996094 14.5 9.5996094 16.5 12.099609 16.5 L 15.099609 16.5 L 15.099609 18 L 12.099609 18 C 8.7996094 18 6.0996094 15.3 6.0996094 12 C 6.0996094 8.7 8.7996094 6 12.099609 6 z M 12 10.5 A 1.5 1.5 0 0 0 10.5 12 A 1.5 1.5 0 0 0 12 13.5 A 1.5 1.5 0 0 0 13.5 12 A 1.5 1.5 0 0 0 12 10.5 z"/>
</svg>
