<?xml version="1.0"?>
<svg xmlns="http://www.w3.org/2000/svg" viewBox="0 0 24 24">
    <path d="M 9.6679688 2 L 9.1757812 4.5234375 C 8.3550224 4.8338012 7.5961042 5.2674041 6.9296875 5.8144531 L 4.5058594 4.9785156 L 2.1738281 9.0214844 L 4.1132812 10.707031 C 4.0445153 11.128986 4 11.558619 4 12 C 4 12.441573 4.0402933 12.873401 4.109375 13.294922 L 2.1738281 14.978516 L 4.5058594 19.021484 L 6.9511719 18.177734 C 7.5660953 18.677679 8.2539147 19.091458 9 19.394531 L 9 14.615234 C 8.386 13.912234 8 13.006 8 12 C 8 9.791 9.791 8 12 8 C 14.209 8 16 9.791 16 12 L 20 12 C 20 11.558619 19.955485 11.128986 19.886719 10.707031 L 21.826172 9.0214844 L 19.494141 4.9785156 L 17.070312 5.8144531 C 16.403896 5.2674041 15.644978 4.8338012 14.824219 4.5234375 L 14.332031 2 L 9.6679688 2 z M 11 14 L 11 24 L 24 24 L 24 14 L 11 14 z M 19.585938 16 L 21 17.414062 L 17.414062 21 L 14 21 L 14 19 L 16.585938 19 L 19.585938 16 z"/>
</svg>
