<?xml version="1.0"?>
<svg xmlns="http://www.w3.org/2000/svg" viewBox="0 0 24 24">
    <path d="M 12 1 L 1 12 L 12 23 L 23 12 L 12 1 z M 7.5996094 9.7792969 L 8.4492188 9.7792969 L 10.109375 14.220703 L 9.140625 14.220703 L 8.8300781 13.310547 L 7.2207031 13.310547 L 6.9199219 14.220703 L 5.9492188 14.220703 L 7.5996094 9.7792969 z M 10.529297 9.7792969 L 11.900391 9.7792969 C 12.290391 9.7792969 12.639219 9.8690625 12.949219 10.039062 C 13.249219 10.219062 13.489922 10.469062 13.669922 10.789062 C 13.839922 11.119063 13.929688 11.490391 13.929688 11.900391 L 13.929688 12.099609 C 13.929688 12.519609 13.839922 12.880938 13.669922 13.210938 C 13.499922 13.530938 13.259219 13.779219 12.949219 13.949219 C 12.639219 14.129219 12.290156 14.220703 11.910156 14.220703 L 10.529297 14.220703 L 10.529297 9.7792969 z M 14.589844 9.7792969 L 16.240234 9.7792969 C 16.770234 9.7792969 17.170938 9.8908594 17.460938 10.130859 C 17.740938 10.360859 17.890625 10.689141 17.890625 11.119141 C 17.890625 11.419141 17.819453 11.680859 17.689453 11.880859 C 17.559453 12.080859 17.359844 12.239375 17.089844 12.359375 L 18.050781 14.179688 L 18.050781 14.220703 L 17.070312 14.220703 L 16.240234 12.599609 L 15.509766 12.599609 L 15.509766 14.220703 L 14.589844 14.220703 L 14.589844 9.7792969 z M 11.439453 10.519531 L 11.439453 13.490234 L 11.890625 13.490234 C 12.070625 13.490234 12.227031 13.459141 12.363281 13.400391 C 12.431406 13.371016 12.495078 13.334609 12.552734 13.291016 C 12.610391 13.247422 12.663438 13.198125 12.710938 13.140625 C 12.900937 12.900625 12.99 12.570859 13 12.130859 L 13 11.900391 C 13 11.670391 12.975234 11.470078 12.927734 11.298828 C 12.880234 11.127578 12.810703 10.984141 12.720703 10.869141 C 12.673203 10.811641 12.620156 10.762344 12.5625 10.71875 C 12.504844 10.675156 12.441172 10.63875 12.373047 10.609375 C 12.236797 10.550625 12.080391 10.519531 11.900391 10.519531 L 11.439453 10.519531 z M 15.509766 10.519531 L 15.509766 11.849609 L 16.25 11.849609 C 16.48 11.849609 16.649297 11.789687 16.779297 11.679688 C 16.909297 11.559688 16.970703 11.399453 16.970703 11.189453 C 16.970703 10.979453 16.909062 10.819219 16.789062 10.699219 C 16.729062 10.639219 16.655703 10.594453 16.564453 10.564453 C 16.473203 10.534453 16.365234 10.519531 16.240234 10.519531 L 15.509766 10.519531 z M 8.0195312 10.900391 L 7.4707031 12.560547 L 8.5800781 12.560547 L 8.0195312 10.900391 z"/>
</svg>
