<?xml version="1.0"?>
<svg xmlns="http://www.w3.org/2000/svg" viewBox="0 0 24 24">
    <path d="M 9.6679688 2 L 9.1757812 4.5234375 C 8.3550224 4.8338012 7.5961042 5.2674041 6.9296875 5.8144531 L 4.5058594 4.9785156 L 2.1738281 9.0214844 L 4.1132812 10.707031 C 4.0445153 11.128986 4 11.558619 4 12 C 4 12.441 4.0442813 12.871969 4.1132812 13.292969 L 2.1738281 14.978516 L 4.5058594 19.019531 L 6.9296875 18.185547 C 7.5956875 18.732547 8.3547813 19.166562 9.1757812 19.476562 L 9.6679688 22 L 12.259766 22 C 11.467766 20.866 11 19.488 11 18 C 11 17.28 11.1095 16.585641 11.3125 15.931641 C 9.1585 15.556641 7.5927031 13.469234 8.0957031 11.115234 C 8.4147031 9.6252344 9.6271875 8.4137031 11.117188 8.0957031 C 13.470187 7.5927031 15.556641 9.1585 15.931641 11.3125 C 16.585641 11.1095 17.28 11 18 11 C 18.681 11 19.337938 11.101203 19.960938 11.283203 C 19.941938 11.089203 19.916719 10.897031 19.886719 10.707031 L 21.828125 9.0214844 L 19.494141 4.9804688 L 17.072266 5.8144531 C 16.404442 5.2669534 15.645749 4.8281433 14.824219 4.5175781 L 14.332031 2 L 9.6679688 2 z M 18 13 C 15.2 13 13 15.2 13 18 C 13 20.8 15.2 23 18 23 C 19 23 20.000781 22.699219 20.800781 22.199219 L 22.599609 24 L 24 22.599609 L 22.199219 20.800781 C 22.699219 20.000781 23 19 23 18 C 23 15.2 20.8 13 18 13 z M 18 15 C 19.7 15 21 16.3 21 18 C 21 19.7 19.7 21 18 21 C 16.3 21 15 19.7 15 18 C 15 16.3 16.3 15 18 15 z"/>
</svg>
