<?xml version="1.0"?>
<svg xmlns="http://www.w3.org/2000/svg" viewBox="0 0 24 24">
    <path d="M 4 2 L 4 22 L 20 22 L 20 8 L 14 2 L 4 2 z M 13 3.5 L 18.5 9 L 13 9 L 13 3.5 z M 10.453125 11.011719 C 11.038875 11.011719 11.627078 11.240125 12.080078 11.703125 C 12.732078 12.368125 13.013 13.346531 13 14.019531 C 12.983 14.936531 12.479922 15.955031 11.669922 16.832031 C 11.837922 16.939031 11.994 17 12.125 17 C 12.509 17 12.766656 16.72925 13.222656 16.15625 C 13.633656 15.64125 14.146 15 15 15 C 15.444 15 15.836938 15.293703 15.960938 15.720703 C 16.080937 16.118703 16.511 17 17 17 L 17 19 C 15.927 19 15.149437 18.326219 14.648438 17.574219 C 14.142437 18.197219 13.395 19 12.125 19 C 11.411 19 10.700219 18.655234 10.074219 18.115234 C 9.1572188 18.656234 8.098 19 7 19 L 7 17 C 7.616 17 8.2311094 16.818203 8.7871094 16.533203 C 8.3231094 15.730203 8.0289531 14.840156 8.0019531 14.035156 C 7.9779531 13.351156 8.1876094 12.377406 8.8496094 11.691406 C 9.2856094 11.240406 9.867375 11.011719 10.453125 11.011719 z M 10.457031 13 C 10.409031 13 10.360109 13.006031 10.287109 13.082031 C 10.114109 13.261031 9.9870469 13.647844 9.9980469 13.964844 C 10.014047 14.400844 10.159047 14.859203 10.373047 15.283203 C 10.758047 14.828203 10.993 14.357469 11 13.980469 C 11.004 13.770469 10.882344 13.337516 10.652344 13.103516 C 10.550344 12.999516 10.487031 13 10.457031 13 z"/>
</svg>
