<?xml version="1.0"?>
<svg xmlns="http://www.w3.org/2000/svg" viewBox="0 0 24 24">
    <path d="M9,10c1.236,0,1.913-0.457,3-1c0.92-0.46,2.236-1,3-1s2.08,0.54,3,1c1.087,0.543,1.764,1,3,1V8 c-0.609,0-1.286-0.278-2-0.623V2H5v4.445C4.359,6.189,3.699,6,3,6v2c0.609,0,1.286,0.278,2,0.623v1.822C4.359,10.189,3.699,10,3,10 v2c0.609,0,1.286,0.278,2,0.623v1.822C4.359,14.189,3.699,14,3,14v2c0.609,0,1.286,0.278,2,0.623V22h14v-4.442 C19.641,17.813,20.301,18,21,18v-2c-0.764,0-2.08-0.54-3-1c-1.087-0.543-1.764-1-3-1s-1.913,0.457-3,1c-0.92,0.46-2.236,1-3,1 c-0.609,0-1.286-0.278-2-0.623v-1.819C7.641,13.813,8.301,14,9,14c1.236,0,2.36-0.563,3.447-1.105C13.367,12.435,14.236,12,15,12 s1.633,0.435,2.553,0.895C18.64,13.438,19.764,14,21,14v-2c-0.764,0-2.08-0.54-3-1c-1.087-0.543-1.764-1-3-1s-1.913,0.457-3,1 c-0.92,0.46-2.236,1-3,1c-0.609,0-1.286-0.278-2-0.623V9.558C7.641,9.813,8.301,10,9,10z"/>
</svg>
