<?xml version="1.0"?>
<svg xmlns="http://www.w3.org/2000/svg" viewBox="0 0 24 24">
    <path style="line-height:normal;text-indent:0;text-align:start;text-decoration-line:none;text-decoration-style:solid;text-decoration-color:#000;text-transform:none;block-progression:tb;isolation:auto;mix-blend-mode:normal" d="M 9 2 L 9 4 L 11 4 L 11 5.2460938 L 3.8867188 7.2773438 L 5.1328125 16 L 7.21875 16 L 8.21875 20 L 11 20 L 11 23 L 13 23 L 13 20 L 15.78125 20 L 16.78125 16 L 18.867188 16 L 20.113281 7.2773438 L 13 5.2460938 L 13 4 L 15 4 L 15 2 L 9 2 z M 11 7.3242188 L 11 14 L 6.8671875 14 L 6.1132812 8.7226562 L 11 7.3242188 z M 13 7.3242188 L 17.886719 8.7226562 L 17.132812 14 L 13 14 L 13 7.3242188 z" font-weight="400" font-family="sans-serif" white-space="normal" overflow="visible"/>
</svg>
