<?xml version="1.0"?>
<svg xmlns="http://www.w3.org/2000/svg" viewBox="0 0 24 24">
    <path d="M 2 3 L 2 9.2363281 L 4.3828125 14 L 19.617188 14 L 22 9.2363281 L 22 3 L 2 3 z M 4.6171875 10 L 19.382812 10 L 18.382812 12 L 5.6171875 12 L 4.6171875 10 z M 8 16 A 1 1 0 0 0 7 17 A 1 1 0 0 0 8 18 A 1 1 0 0 0 9 17 A 1 1 0 0 0 8 16 z M 12 16 A 1 1 0 0 0 11 17 A 1 1 0 0 0 12 18 A 1 1 0 0 0 13 17 A 1 1 0 0 0 12 16 z M 16 16 A 1 1 0 0 0 15 17 A 1 1 0 0 0 16 18 A 1 1 0 0 0 17 17 A 1 1 0 0 0 16 16 z M 6 19 A 1 1 0 0 0 5 20 A 1 1 0 0 0 6 21 A 1 1 0 0 0 7 20 A 1 1 0 0 0 6 19 z M 12 19 A 1 1 0 0 0 11 20 A 1 1 0 0 0 12 21 A 1 1 0 0 0 13 20 A 1 1 0 0 0 12 19 z M 18 19 A 1 1 0 0 0 17 20 A 1 1 0 0 0 18 21 A 1 1 0 0 0 19 20 A 1 1 0 0 0 18 19 z"/>
</svg>
