<?xml version="1.0"?>
<svg xmlns="http://www.w3.org/2000/svg" viewBox="0 0 24 24">
    <path style="line-height:normal;text-indent:0;text-align:start;text-decoration-line:none;text-decoration-style:solid;text-decoration-color:#000;text-transform:none;block-progression:tb;isolation:auto;mix-blend-mode:normal" d="M 3 3 L 3 9.5898438 L 2 10.589844 L 2 18 L 4.71875 18 L 3.71875 22 L 12.28125 22 L 11.28125 18 L 14 18 L 14 10.589844 L 13 9.5898438 L 13 3 L 3 3 z M 17 3 L 17 9.5898438 L 16 10.589844 L 16 18 L 18.71875 18 L 17.71875 22 L 22 22 L 22 20 L 20.28125 20 L 20.78125 18 L 22 18 L 22 14 L 19 14 L 19 12 L 22 12 L 22 3 L 17 3 z M 5 12 L 11 12 L 11 14 L 5 14 L 5 12 z M 6.78125 18 L 9.21875 18 L 9.71875 20 L 6.28125 20 L 6.78125 18 z" font-weight="400" font-family="sans-serif" white-space="normal" overflow="visible"/>
</svg>
