<?xml version="1.0"?>
<svg xmlns="http://www.w3.org/2000/svg" viewBox="0 0 24 24">
    <path d="M 12 2 C 8.58 2 5.7303125 4.04 4.5703125 7 L 19.429688 7 C 18.269687 4.04 15.42 2 12 2 z M 4.0605469 9 C 4.0205469 9.33 4 14 4 14 C 4 18.49 7.51 22 12 22 C 14.58 22 16.839297 20.84 18.279297 19 L 13 19 C 11.9 19 11 18.1 11 17 C 11 15.9 11.9 15 13 15 C 13 13.9 13.9 13 15 13 C 15.47 13 15.900234 13.169453 16.240234 13.439453 C 16.640234 12.589453 17.5 12 18.5 12 C 19.06 12 19.59 12.19 20 12.5 C 20 12.5 19.979453 9.33 19.939453 9 L 4.0605469 9 z"/>
</svg>
