<?xml version="1.0"?>
<svg xmlns="http://www.w3.org/2000/svg" viewBox="0 0 24 24">
    <path d="M 8 2 L 9.6992188 7.4609375 L 16.240234 14 L 20 14 C 21.11 14 22 13.1 22 12 C 22 10.9 21.11 10 20 10 L 15 10 L 10 2 L 8 2 z M 3.7070312 4.2929688 L 2.2929688 5.7070312 L 6.5859375 10 L 5 10 L 3.5 8 L 2 8 L 3 12 L 2 16 L 3.5 16 L 5 14 L 10.490234 14 L 8 22 L 10 22 L 13.304688 16.71875 L 18.292969 21.707031 L 19.707031 20.292969 L 13.398438 13.984375 L 9.4296875 10 L 9.4140625 10 L 3.7070312 4.2929688 z"/>
</svg>
