<?xml version="1.0"?>
<svg xmlns="http://www.w3.org/2000/svg" viewBox="0 0 24 24">
    <path d="M 11.25 5 L 10.416016 7 L 5 7 L 5 9 L 9.0097656 9 A 5 5 0 0 0 7 13 A 5 5 0 0 0 12 18 A 5 5 0 0 0 17 13 A 5 5 0 0 0 14.990234 9 L 19 9 L 19 7 L 13.583984 7 L 12.75 5 L 11.25 5 z M 0 12 L 0 14 L 2.5 14 L 5.0800781 14 C 5.0200781 13.68 5 13.34 5 13 C 5 12.66 5.0200781 12.32 5.0800781 12 L 0 12 z M 2.5 14 A 1.5 1.5 0 0 0 1 15.5 A 1.5 1.5 0 0 0 2.5 17 A 1.5 1.5 0 0 0 4 15.5 A 1.5 1.5 0 0 0 2.5 14 z M 18.919922 12 C 18.979922 12.32 19 12.66 19 13 C 19 13.34 18.979922 13.68 18.919922 14 L 21.5 14 L 24 14 L 24 12 L 18.919922 12 z M 21.5 14 A 1.5 1.5 0 0 0 20 15.5 A 1.5 1.5 0 0 0 21.5 17 A 1.5 1.5 0 0 0 23 15.5 A 1.5 1.5 0 0 0 21.5 14 z"/>
</svg>
