<?xml version="1.0"?>
<svg xmlns="http://www.w3.org/2000/svg" viewBox="0 0 24 24">
    <path d="M 10.5 2 L 10.5 4.1953125 C 7.9131836 4.862095 6 7.2048001 6 10 L 6 16 L 4 18 L 4 19 L 20 19 L 20 18 L 18 16 L 18 10 C 18 7.2048001 16.086816 4.862095 13.5 4.1953125 L 13.5 2 L 10.5 2 z M 5.9082031 2.0820312 C 3.5352031 3.9100312 2 6.772 2 10 L 4 10 C 4 7.418 5.2289531 5.1280156 7.1269531 3.6660156 L 5.9082031 2.0820312 z M 18.091797 2.0820312 L 16.873047 3.6660156 C 18.771047 5.1280156 20 7.418 20 10 L 22 10 C 22 6.772 20.464797 3.9100312 18.091797 2.0820312 z M 10 20 C 10 21.1 10.9 22 12 22 C 13.1 22 14 21.1 14 20 L 10 20 z"/>
</svg>
