<?xml version="1.0"?>
<svg xmlns="http://www.w3.org/2000/svg" viewBox="0 0 24 24">
    <path d="M18.388,6.815l1.379-1.838C19.844,4.986,19.92,5,20,5c1.105,0,2-0.895,2-2c0-1.105-0.895-2-2-2s-2,0.895-2,2 c0,0.279,0.058,0.544,0.161,0.786l-1.32,1.76C15.416,4.586,13.771,4,12,4S8.584,4.586,7.159,5.546l-1.32-1.76 C5.942,3.544,6,3.279,6,3c0-1.105-0.895-2-2-2S2,1.895,2,3c0,1.105,0.895,2,2,2c0.08,0,0.156-0.014,0.233-0.023l1.379,1.838 C3.39,9,2,12.13,2,15c0,5.16,5.17,7,10,7s10-1.84,10-7C22,12.13,20.61,9,18.388,6.815z M15,18H9v-2h6V18z M12,14c-1.66,0-3-1.34-3-3 c0-1.66,1.34-3,3-3c0.03,0,0.06,0,0.09,0.01C12.03,8.16,12,8.33,12,8.5c0,0.83,0.67,1.5,1.5,1.5c0.44,0,0.83-0.19,1.1-0.49 C14.85,9.95,15,10.46,15,11C15,12.66,13.66,14,12,14z"/>
</svg>
