<?xml version="1.0"?>
<svg xmlns="http://www.w3.org/2000/svg" viewBox="0 0 24 24">
    <path d="M 3 3 L 3 7.2421875 L 4.4140625 5.828125 L 8.2929688 9.7070312 L 9.7070312 8.2929688 L 5.828125 4.4140625 L 7.2421875 3 L 3 3 z M 16.757812 3 L 18.171875 4.4140625 L 14.292969 8.2929688 L 15.707031 9.7070312 L 19.585938 5.828125 L 21 7.2421875 L 21 3 L 16.757812 3 z M 12 4 C 10.893 4 9.8369531 4.2267656 8.8769531 4.6347656 L 10.451172 6.2109375 C 10.946172 6.0779375 11.464 6 12 6 C 12.536 6 13.053828 6.0779375 13.548828 6.2109375 L 15.123047 4.6347656 C 14.163047 4.2267656 13.107 4 12 4 z M 4.6347656 8.8769531 C 4.2267656 9.8369531 4 10.893 4 12 C 4 13.107 4.2267656 14.163047 4.6347656 15.123047 L 6.2109375 13.548828 C 6.0779375 13.053828 6 12.536 6 12 C 6 11.464 6.0779375 10.946172 6.2109375 10.451172 L 4.6347656 8.8769531 z M 19.365234 8.8769531 L 17.789062 10.451172 C 17.922062 10.946172 18 11.464 18 12 C 18 12.536 17.922063 13.053828 17.789062 13.548828 L 19.365234 15.123047 C 19.773234 14.163047 20 13.107 20 12 C 20 10.893 19.773234 9.8369531 19.365234 8.8769531 z M 8.2929688 14.292969 L 4.4140625 18.171875 L 3 16.757812 L 3 21 L 7.2421875 21 L 5.828125 19.585938 L 9.7070312 15.707031 L 8.2929688 14.292969 z M 15.707031 14.292969 L 14.292969 15.707031 L 18.171875 19.585938 L 16.757812 21 L 21 21 L 21 16.757812 L 19.585938 18.171875 L 15.707031 14.292969 z M 10.451172 17.789062 L 8.8769531 19.365234 C 9.8369531 19.773234 10.893 20 12 20 C 13.107 20 14.163047 19.773234 15.123047 19.365234 L 13.548828 17.789062 C 13.053828 17.922062 12.536 18 12 18 C 11.464 18 10.946172 17.922063 10.451172 17.789062 z"/>
</svg>
