<?xml version="1.0"?>
<svg xmlns="http://www.w3.org/2000/svg" viewBox="0 0 24 24" width="24" height="24">
    <path style="line-height:normal;text-indent:0;text-align:start;text-decoration-line:none;text-decoration-style:solid;text-decoration-color:#000;text-transform:none;block-progression:tb;isolation:auto;mix-blend-mode:normal" d="M 12 2 C 8.741068 2 5.8486894 3.5773875 4.0214844 6 L 4 6 L 4 6.0273438 C 2.7499527 7.6966931 2 9.7603852 2 12 C 2 17.511003 6.4889971 22 12 22 C 17.511003 22 22 17.511003 22 12 C 22 6.4889971 17.511003 2 12 2 z M 15 4.5839844 C 17.935098 5.7673596 20 8.6326468 20 12 C 20 14.033459 19.242218 15.880131 18 17.289062 L 18 16 L 15 16 L 15 12 L 9 12 L 9 10 L 11 10 L 11 7 L 15 7 L 15 4.5839844 z M 4.2070312 10.207031 L 6 12 L 9 15 L 9 18 L 11 18 L 11 19.931641 C 7.0457719 19.441154 4 16.090654 4 12 C 4 11.382188 4.0755245 10.784033 4.2070312 10.207031 z" font-weight="400" font-family="sans-serif" white-space="normal" overflow="visible"/>
</svg>
