<?xml version="1.0"?>
<svg xmlns="http://www.w3.org/2000/svg" viewBox="0 0 24 24">
    <path d="M 13 2 L 13 10 L 10 10 C 10 11.654 11.346 13 13 13 L 19 13 C 20.64497 13 22 11.64497 22 10 L 22 2 L 13 2 z M 11 2.0703125 C 7.344 2.5273125 4.4547344 5.4441875 4.0527344 9.1171875 L 1.5761719 13 L 4 14.021484 L 4 19 L 8 19 L 8 22 L 17 22 L 17 19.240234 C 17 17.061234 17.616062 15.988 18.289062 15 L 13 15 C 10.239 15 8 12.761 8 10 L 8 8 L 11 8 L 11 2.0703125 z M 15 4 L 20 4 L 20 10 C 20 10.56503 19.56503 11 19 11 C 18.449 11 18 10.552 18 10 L 15 10 L 15 4 z"/>
</svg>
