<?xml version="1.0"?>
<svg xmlns="http://www.w3.org/2000/svg" viewBox="0 0 24 24">
    <path style="line-height:normal;text-indent:0;text-align:start;text-decoration-line:none;text-decoration-style:solid;text-decoration-color:#000;text-transform:none;block-progression:tb;isolation:auto;mix-blend-mode:normal" d="M 12 1 C 9.723306 1 7.6653866 1.2242784 6.1015625 1.6152344 C 5.3196505 1.8107124 4.6613404 2.0408521 4.1191406 2.3613281 C 3.5769409 2.6818042 3 3.1834175 3 4 C 3 4.8165825 3.5769409 5.3181958 4.1191406 5.6386719 C 4.6613404 5.9591479 5.3196505 6.1892876 6.1015625 6.3847656 C 7.6653866 6.7757216 9.723306 7 12 7 C 14.276694 7 16.334613 6.7757216 17.898438 6.3847656 C 18.68035 6.1892876 19.33866 5.9591479 19.880859 5.6386719 C 20.423059 5.3181958 21 4.8165825 21 4 C 21 3.1834175 20.423059 2.6818042 19.880859 2.3613281 C 19.33866 2.0408521 18.68035 1.8107124 17.898438 1.6152344 C 16.334613 1.2242784 14.276694 1 12 1 z M 12 3 C 14.141584 3 16.082457 3.223739 17.414062 3.5566406 C 17.975793 3.6970733 18.347796 3.8567031 18.636719 4 C 18.347796 4.1432969 17.975793 4.3029267 17.414062 4.4433594 C 16.082456 4.776261 14.141584 5 12 5 C 9.858416 5 7.9175439 4.776261 6.5859375 4.4433594 C 6.0242066 4.3029267 5.6522041 4.1432969 5.3632812 4 C 5.6522041 3.8567031 6.0242066 3.6970733 6.5859375 3.5566406 C 7.9175439 3.223739 9.858416 3 12 3 z M 3.1347656 7.3828125 C 2.4127656 8.7648125 2 10.333 2 12 C 2 17.523 6.477 22 12 22 C 17.523 22 22 17.523 22 12 C 22 10.333 21.587234 8.7648125 20.865234 7.3828125 C 20.587234 7.5448125 20.284797 7.6893125 19.966797 7.8203125 C 19.956797 7.8243125 19.9465 7.8260781 19.9375 7.8300781 C 19.6505 7.9480781 19.350109 8.0562969 19.037109 8.1542969 C 16.966109 8.8002969 14.378 9 12 9 C 9.622 9 7.0338906 8.8002969 4.9628906 8.1542969 C 4.6498906 8.0572969 4.3495 7.9480781 4.0625 7.8300781 C 4.0525 7.8260781 4.0422031 7.8243125 4.0332031 7.8203125 C 3.7142031 7.6883125 3.4127656 7.5438125 3.1347656 7.3828125 z M 8.5 10 C 9.328 10 10 10.672 10 11.5 C 10 12.328 9.328 13 8.5 13 C 7.672 13 7 12.328 7 11.5 C 7 10.672 7.672 10 8.5 10 z M 15.5 10 C 16.328 10 17 10.672 17 11.5 C 17 12.328 16.328 13 15.5 13 C 14.672 13 14 12.328 14 11.5 C 14 10.672 14.672 10 15.5 10 z M 6.890625 15 L 17.109375 15 C 16.309375 17.04 14.33 18.5 12 18.5 C 9.67 18.5 7.690625 17.04 6.890625 15 z" font-weight="400" font-family="sans-serif" white-space="normal" overflow="visible"/>
</svg>
