<?xml version="1.0"?>
<svg xmlns="http://www.w3.org/2000/svg" viewBox="0 0 24 24">
    <path d="M12,2C6.486,2,2,6.486,2,12s4.486,10,10,10s10-4.486,10-10S17.514,2,12,2z M7,9l4,2c0,0-0.406,1-2,1c-1.105,0-2-0.895-2-2V9 z M14.656,16.907c-1.061,0.234-1.845-0.007-2.724-0.373c-0.895-0.365-1.917-0.768-2.73-0.768S6.922,16.734,7,16 c0.375-1.656,1.888-1.922,2.183-1.975c1.252-0.141,2.412,0.21,3.349,0.568C15.147,15.596,17.234,13.859,17,15 C16.423,15.803,15.715,16.671,14.656,16.907z M17,10c0,1.105-0.895,2-2,2c-1.438,0-2-1-2-1l4-2V10z"/>
</svg>
