<?xml version="1.0"?>
<svg xmlns="http://www.w3.org/2000/svg" viewBox="0 0 24 24">
    <path style="line-height:normal;text-indent:0;text-align:start;text-decoration-line:none;text-decoration-style:solid;text-decoration-color:#000;text-transform:none;block-progression:tb;isolation:auto;mix-blend-mode:normal" d="M 9 2.7460938 L 2 8.03125 L 2 21 L 16 21 L 22 21 L 22 8.03125 L 15.035156 2.7734375 L 11.849609 4.8984375 L 9 2.7460938 z M 14.964844 5.2265625 L 20 9.0273438 L 20 19 L 16 19 L 16 17 L 18 17 L 18 15 L 16 15 L 16 13 L 18 13 L 18 11 L 16 11 L 16 8.03125 L 13.541016 6.1757812 L 14.964844 5.2265625 z M 6 9 L 8 9 L 8 11 L 6 11 L 6 9 z M 10 9 L 12 9 L 12 11 L 10 11 L 10 9 z M 6 13 L 8 13 L 8 15 L 6 15 L 6 13 z M 10 13 L 12 13 L 12 15 L 10 15 L 10 13 z M 6 17 L 8 17 L 8 19 L 6 19 L 6 17 z M 10 17 L 12 17 L 12 19 L 10 19 L 10 17 z" font-weight="400" font-family="sans-serif" white-space="normal" overflow="visible"/>
</svg>
