<?xml version="1.0"?>
<svg xmlns="http://www.w3.org/2000/svg" viewBox="0 0 24 24">
    <path d="M 12 2 C 11.691274 2 11.387533 2.0192372 11.085938 2.046875 C 10.993482 2.0553243 10.902267 2.0671618 10.810547 2.078125 C 10.601492 2.1031828 10.394356 2.1340275 10.189453 2.171875 C 10.086966 2.190751 9.9841924 2.2084795 9.8828125 2.2304688 C 9.6015307 2.2916335 9.3246993 2.3609052 9.0527344 2.4453125 C 9.0064967 2.4596222 8.9619666 2.4772259 8.9160156 2.4921875 C 8.691742 2.5654056 8.4709561 2.6479576 8.2539062 2.7363281 C 8.1439171 2.7810222 8.0357491 2.828492 7.9277344 2.8769531 C 7.7739332 2.9460651 7.6222567 3.0191662 7.4726562 3.0957031 C 7.3608056 3.1528527 7.2480552 3.2083415 7.1386719 3.2695312 C 6.9176053 3.39331 6.7006489 3.5224985 6.4902344 3.6621094 L 6.4921875 3.6640625 C 5.9313791 4.0360096 5.4077479 4.4594396 4.9335938 4.9335938 L 4.9316406 4.9316406 C 4.7189844 5.1442969 4.5190871 5.370569 4.3261719 5.6015625 C 4.2928909 5.6413975 4.2611862 5.6823015 4.2285156 5.7226562 C 4.0677968 5.9212586 3.9149283 6.1252422 3.7695312 6.3359375 C 3.7397207 6.3791013 3.7088341 6.4211948 3.6796875 6.4648438 C 3.3491076 6.9603397 3.0613623 7.4868809 2.8222656 8.0390625 C 2.7915995 8.1097649 2.7653949 8.1823748 2.7363281 8.2539062 C 2.6515294 8.4629787 2.5727137 8.6748527 2.5019531 8.890625 C 2.4769284 8.9667691 2.4509626 9.0422096 2.4277344 9.1191406 C 2.3473087 9.3860556 2.274942 9.6559298 2.2167969 9.9316406 C 2.2120731 9.9539733 2.2057457 9.9756601 2.2011719 9.9980469 C 2.2010448 9.9986707 2.2012988 9.9993761 2.2011719 10 C 2.0691983 10.646585 2 11.315202 2 12 C 2 12.308726 2.0192372 12.612467 2.046875 12.914062 C 2.0553243 13.006518 2.0671618 13.097733 2.078125 13.189453 C 2.1031828 13.398508 2.1340275 13.605644 2.171875 13.810547 C 2.190751 13.913034 2.2084795 14.015808 2.2304688 14.117188 C 2.2916335 14.398469 2.3609052 14.675301 2.4453125 14.947266 C 2.4596222 14.993503 2.4772259 15.038033 2.4921875 15.083984 C 2.5654056 15.308258 2.6479576 15.529044 2.7363281 15.746094 C 2.7810222 15.856083 2.828492 15.964251 2.8769531 16.072266 C 2.9460651 16.226067 3.0191662 16.377743 3.0957031 16.527344 C 3.1528527 16.639194 3.2083415 16.751945 3.2695312 16.861328 C 3.39331 17.082395 3.5224985 17.299351 3.6621094 17.509766 L 3.6640625 17.507812 C 4.0360096 18.068621 4.4594396 18.592252 4.9335938 19.066406 L 4.9316406 19.068359 C 5.1442969 19.281016 5.370569 19.480913 5.6015625 19.673828 C 5.6413975 19.707109 5.6823015 19.738814 5.7226562 19.771484 C 5.9212586 19.932203 6.1252422 20.085072 6.3359375 20.230469 C 6.3791013 20.260279 6.4211948 20.291166 6.4648438 20.320312 C 6.9603397 20.650892 7.4868809 20.938638 8.0390625 21.177734 C 8.1097649 21.208401 8.1823748 21.234605 8.2539062 21.263672 C 8.4629787 21.348471 8.6748527 21.427286 8.890625 21.498047 C 8.9667691 21.523072 9.0422096 21.549037 9.1191406 21.572266 C 9.3860556 21.652691 9.6559298 21.725058 9.9316406 21.783203 C 9.9545976 21.788059 9.9769859 21.794131 10 21.798828 C 10.646585 21.930802 11.315202 22 12 22 C 12.308726 22 12.612467 21.980763 12.914062 21.953125 C 13.006518 21.944676 13.097733 21.932838 13.189453 21.921875 C 13.398508 21.896817 13.605644 21.865973 13.810547 21.828125 C 13.913034 21.809249 14.015808 21.791521 14.117188 21.769531 C 14.398469 21.708367 14.675301 21.639095 14.947266 21.554688 C 14.993503 21.540378 15.038033 21.522774 15.083984 21.507812 C 15.308258 21.434594 15.529044 21.352042 15.746094 21.263672 C 15.856083 21.218978 15.964251 21.171508 16.072266 21.123047 C 16.226067 21.053935 16.377743 20.980834 16.527344 20.904297 C 16.639194 20.847147 16.751945 20.791658 16.861328 20.730469 C 17.082395 20.60669 17.299351 20.477502 17.509766 20.337891 L 17.507812 20.335938 C 18.068621 19.96399 18.592252 19.54056 19.066406 19.066406 L 19.068359 19.068359 C 19.281016 18.855703 19.480909 18.629394 19.673828 18.398438 C 19.707109 18.358602 19.738814 18.317698 19.771484 18.277344 C 19.932208 18.078777 20.085058 17.874714 20.230469 17.664062 C 20.260279 17.620899 20.291166 17.578805 20.320312 17.535156 C 20.652781 17.036988 20.941618 16.50868 21.181641 15.953125 C 21.209702 15.888272 21.233049 15.821409 21.259766 15.755859 C 21.347137 15.541177 21.427422 15.323351 21.5 15.101562 C 21.5233 15.030472 21.548577 14.960448 21.570312 14.888672 C 21.65203 14.618397 21.724293 14.343821 21.783203 14.064453 C 21.786963 14.046624 21.793211 14.029582 21.796875 14.011719 C 21.797665 14.007871 21.798042 14.00385 21.798828 14 C 21.930802 13.353415 22 12.684798 22 12 C 22 11.691274 21.980763 11.387533 21.953125 11.085938 C 21.944676 10.993482 21.932838 10.902267 21.921875 10.810547 C 21.896817 10.601492 21.865973 10.394356 21.828125 10.189453 C 21.809249 10.086966 21.791521 9.9841924 21.769531 9.8828125 C 21.708367 9.6015307 21.639095 9.3246993 21.554688 9.0527344 C 21.540378 9.0064967 21.522774 8.9619666 21.507812 8.9160156 C 21.434594 8.691742 21.352042 8.4709561 21.263672 8.2539062 C 21.218978 8.1439171 21.171508 8.0357491 21.123047 7.9277344 C 21.053935 7.7739332 20.980834 7.6222567 20.904297 7.4726562 C 20.847147 7.3608056 20.791658 7.2480552 20.730469 7.1386719 C 20.60669 6.9176053 20.477502 6.7006489 20.337891 6.4902344 L 20.335938 6.4921875 C 19.96399 5.9313791 19.54056 5.4077479 19.066406 4.9335938 L 19.068359 4.9316406 C 18.855703 4.7189844 18.629431 4.5190871 18.398438 4.3261719 C 18.358602 4.2928909 18.317698 4.2611862 18.277344 4.2285156 C 18.078741 4.0677968 17.874758 3.9149283 17.664062 3.7695312 C 17.620899 3.7397207 17.578805 3.7088341 17.535156 3.6796875 C 17.03966 3.3491076 16.513119 3.0613623 15.960938 2.8222656 C 15.890235 2.7915995 15.817625 2.7653949 15.746094 2.7363281 C 15.537021 2.6515294 15.325147 2.5727137 15.109375 2.5019531 C 15.033231 2.4769284 14.95779 2.4509626 14.880859 2.4277344 C 14.613944 2.3473087 14.34407 2.274942 14.068359 2.2167969 C 14.049252 2.2127672 14.030866 2.207045 14.011719 2.203125 C 14.007871 2.2023348 14.00385 2.2019576 14 2.2011719 C 13.353415 2.0691983 12.684798 2 12 2 z M 12 4 C 12.692622 4 13.359788 4.0975541 14 4.2617188 L 14 10 L 17.662109 6.3378906 C 18.137938 6.8137192 18.544795 7.3557986 18.888672 7.9394531 L 14.828125 12 L 20 12 C 20 12.692622 19.902446 13.359788 19.738281 14 L 14 14 L 17.662109 17.662109 C 17.186281 18.137938 16.644201 18.544795 16.060547 18.888672 L 12 14.828125 L 12 20 C 11.307378 20 10.640212 19.902446 10 19.738281 L 10 14 L 6.3378906 17.662109 C 5.8620621 17.186281 5.4552047 16.644201 5.1113281 16.060547 L 9.171875 12 L 4 12 C 4 11.307378 4.0975541 10.640212 4.2617188 10 L 10 10 L 6.3378906 6.3378906 C 6.8137192 5.8620621 7.3557986 5.4552047 7.9394531 5.1113281 L 12 9.171875 L 12 4 z"/>
</svg>
