<?xml version="1.0"?>
<svg xmlns="http://www.w3.org/2000/svg" viewBox="0 0 24 24">
    <path d="M21,3H3v18h18V3z M11.843,9.449c0.68,0,1.093-0.449,2.072-0.449c0.739,0,1.522,0.388,2.081,1.059 c-1.829,0.968-1.531,3.485,0.317,4.159c-0.255,0.544-0.376,0.786-0.704,1.266c-0.457,0.67-1.101,1.507-1.9,1.513 c-0.71,0.006-0.892-0.446-1.855-0.438c-0.963,0.005-1.165,0.447-1.874,0.44c-0.799-0.007-1.409-0.76-1.867-1.431 C6.836,13.69,6.7,11.49,7.49,10.319c0.56-0.831,1.446-1.318,2.276-1.318C10.611,9.001,11.143,9.449,11.843,9.449z M12.722,6.024 C13.228,5.472,14.094,5.045,14.836,5c0.124,0.757-0.223,1.498-0.674,2.024c-0.484,0.564-1.323,0.999-2.129,0.975 C11.885,7.276,12.264,6.527,12.722,6.024z"/>
</svg>
