<?xml version="1.0"?>
<svg xmlns="http://www.w3.org/2000/svg" viewBox="0 0 24 24">
    <path d="M12,2C6.486,2,2,6.486,2,12s4.486,10,10,10s10-4.486,10-10S17.514,2,12,2z M11.389,5.641L12,6.741l0.611-1.1l1.748,0.971 L13.144,8.8l0,0L12,10.859l0,0L11.366,12H9.079l1.778-3.2L9.641,6.611L11.389,5.641z M9.699,15l-1.311,2.359l-1.748-0.971L7.412,15 H6v-2h0.947c0.005,0.003,0.009,0.005,0.014,0.008C6.975,13.007,6.986,13,7,13h1.523h2.287h0.783h0.452l1.111,2H9.699z M18,15 h-1.412l0.771,1.389l-1.748,0.971L14.301,15h-0.037c0.002-0.003,0.004-0.007,0.006-0.01c0.004-0.005,0.011-0.014,0.015-0.019 l-1.354-2.437l-0.359-0.646l1.144-2.059L15.477,13H18V15z"/>
</svg>
