<?xml version="1.0"?>
<svg xmlns="http://www.w3.org/2000/svg" viewBox="0 0 24 24">
    <path style="line-height:normal;text-indent:0;text-align:start;text-decoration-line:none;text-decoration-style:solid;text-decoration-color:#000;text-transform:none;block-progression:tb;isolation:auto;mix-blend-mode:normal" d="M 3.1171875 0 L 3.1230469 0.01171875 C 3.0890469 -0.07128125 3.0841875 -0.082 3.1171875 0 z M 6 4 L 6 6.7382812 L 8.6796875 13 L 15.318359 13 L 18 6.5996094 L 18 4 L 6 4 z M 2 10 L 2 12.410156 L 3.859375 17.115234 C 4.2333486 18.048528 5.0447325 18.71092 6 18.921875 L 6 21 L 8 21 L 8 19 L 16 19 L 16 21 L 18 21 L 18 18.919922 C 18.952361 18.707004 19.760684 18.044829 20.132812 17.113281 L 22 12.572266 L 22 10 L 18.751953 10 L 16.671875 15 L 7.3222656 15 L 5.3574219 10 L 2 10 z" font-weight="400" font-family="sans-serif" white-space="normal" overflow="visible"/>
</svg>
