<?xml version="1.0"?>
<svg xmlns="http://www.w3.org/2000/svg" viewBox="0 0 24 24">
    <path d="M 12 2 C 9.728 2 7.2637969 2.7417031 4.7167969 5.0957031 C 2.9677969 6.7107031 2 9.0067187 2 11.386719 L 2 15 L 7 15 C 8.105 15 9 15.895 9 17 L 9 22 L 11.693359 22 C 12.272398 22 12.836085 21.930533 13.392578 21.833984 C 14.495164 23.155806 16.153095 24 18 24 C 21.301864 24 24 21.301864 24 18 C 24 16.177833 23.176193 14.541885 21.884766 13.439453 C 21.923996 13.200387 21.959498 12.959475 21.976562 12.712891 C 22.381563 6.8668906 17.759 2 12 2 z M 11.5 5 C 12.329 5 13 5.672 13 6.5 C 13 7.328 12.329 8 11.5 8 C 10.672 8 10 7.328 10 6.5 C 10 5.672 10.672 5 11.5 5 z M 15.5 6 C 16.329 6 17 6.672 17 7.5 C 17 8.328 16.329 9 15.5 9 C 14.672 9 14 8.328 14 7.5 C 14 6.672 14.672 6 15.5 6 z M 7.5 7 C 8.329 7 9 7.672 9 8.5 C 9 9.328 8.329 10 7.5 10 C 6.672 10 6 9.328 6 8.5 C 6 7.672 6.672 7 7.5 7 z M 17.5 10 C 18.328 10 19 10.672 19 11.5 C 19 11.703311 18.960036 11.897358 18.886719 12.074219 C 18.596328 12.030649 18.302103 12 18 12 C 17.3809 12 16.783547 12.095578 16.220703 12.271484 C 16.083747 12.045209 16 11.783621 16 11.5 C 16 10.672 16.672 10 17.5 10 z M 18 14 C 20.220984 14 22 15.779016 22 18 C 22 20.220984 20.220984 22 18 22 C 15.779016 22 14 20.220984 14 18 C 14 15.779016 15.779016 14 18 14 z M 18.490234 15.599609 L 16.210938 16.53125 L 16.210938 17.777344 L 17.164062 17.408203 L 17.164062 20.400391 L 18.796875 20.400391 L 18.796875 15.599609 L 18.490234 15.599609 z"/>
</svg>
