<?xml version="1.0"?>
<svg xmlns="http://www.w3.org/2000/svg" viewBox="0 0 24 24">
    <path style="line-height:normal;text-indent:0;text-align:start;text-decoration-line:none;text-decoration-style:solid;text-decoration-color:#000;text-transform:none;block-progression:tb;isolation:auto;mix-blend-mode:normal" d="M 17 2 A 2 2 0 0 0 15 4 A 2 2 0 0 0 16 5.7285156 L 16 7 L 13 7 L 13 5 L 13.001953 2.9785156 L 12.503906 2.6894531 C 11.787176 2.2732724 10.988534 2.0496274 10.183594 2.0175781 C 9.91528 2.006895 9.6455955 2.0167036 9.3789062 2.0488281 C 8.31215 2.1773261 7.2814338 2.6482536 6.4648438 3.4648438 C 6.1441089 3.7855785 5.8954006 4.1406575 5.6992188 4.515625 L 5.6699219 4.5 C 5.0630052 5.5507072 4.9071497 6.7326156 5.1015625 7.8476562 C 3.2754904 8.8728198 2 10.76268 2 13 C 2 14.819816 2.8864861 16.388036 4.1660156 17.484375 C 4.6408757 20.032141 6.8174874 22 9.5 22 C 10.627523 22 11.683838 21.655029 12.556641 21.070312 L 13 20.773438 L 13 19 L 13 17 L 16 17 L 16 18.269531 A 2 2 0 0 0 15 20 A 2 2 0 0 0 17 22 A 2 2 0 0 0 19 20 A 2 2 0 0 0 18 18.271484 L 18 15 L 13 15 L 13 13 L 19.271484 13 A 2 2 0 0 0 21 14 A 2 2 0 0 0 23 12 A 2 2 0 0 0 21 10 A 2 2 0 0 0 19.269531 11 L 13 11 L 13 9 L 18 9 L 18 5.7304688 A 2 2 0 0 0 19 4 A 2 2 0 0 0 17 2 z M 9.9765625 4.0253906 C 10.323274 4.0594887 10.663125 4.1899373 11 4.3144531 L 11 5 L 11 7.8320312 A 1.0001 1.0001 0 0 0 11 8.1582031 L 11 10.001953 L 10.994141 10.001953 C 10.995487 11.115594 10.11489 11.998654 9.0019531 12 L 9.0039062 14 C 9.7330113 13.999103 10.409972 13.784291 11 13.4375 L 11 15.832031 A 1.0001 1.0001 0 0 0 11 16.158203 L 11 19 L 11 19.544922 C 10.53433 19.775688 10.05763 20 9.5 20 C 7.6963955 20 6.2496408 18.652222 6.0449219 16.904297 L 5.9941406 16.472656 L 5.6445312 16.214844 C 4.6481295 15.482432 4 14.327105 4 13 C 4 11.598815 4.7246346 10.392988 5.8105469 9.6816406 C 6.2276287 10.337914 6.7833892 10.916519 7.5 11.330078 L 8.5 9.5976562 C 7.9587714 9.2853112 7.5502354 8.8358309 7.296875 8.3183594 C 7.296875 8.3183594 7.296875 8.3164062 7.296875 8.3164062 L 7.1855469 8 C 7.0449376 7.6024542 6.9871315 7.1827317 7.015625 6.7695312 C 7.0230903 6.6612728 7.0432757 6.5542362 7.0625 6.4472656 C 7.076659 6.3735269 7.0914327 6.2997442 7.1113281 6.2265625 C 7.1310767 6.1505802 7.1498827 6.0745236 7.1757812 6 C 7.2330841 5.8402322 7.3023195 5.6825058 7.3886719 5.5292969 C 7.5187762 5.2975857 7.6804734 5.0773393 7.8789062 4.8789062 C 8.3733162 4.3844964 8.9892096 4.1023458 9.6269531 4.0273438 C 9.7439583 4.0135832 9.860992 4.0140246 9.9765625 4.0253906 z"/>
</svg>
