<?xml version="1.0"?>
<svg xmlns="http://www.w3.org/2000/svg" viewBox="0 0 24 24">
    <path d="M 14.291016 1.4902344 L 13.302734 2.4785156 L 14.716797 3.8945312 L 15.705078 2.9042969 L 14.291016 1.4902344 z M 19.294922 2.0449219 L 18.294922 3.0449219 L 19.708984 4.4589844 L 20.708984 3.4589844 L 19.294922 2.0449219 z M 12.28125 3.5019531 L 4.8789062 10.904297 C 2.3449063 13.438297 2.3449062 17.561703 4.8789062 20.095703 C 6.1059062 21.324703 7.7395625 22 9.4765625 22 C 11.213563 22 12.844266 21.322703 14.072266 20.095703 L 19.710938 14.458984 L 18.296875 13.044922 L 12.65625 18.681641 C 11.80725 19.531641 10.678562 20 9.4765625 20 C 8.2745625 20 7.1439687 19.531641 6.2929688 18.681641 C 5.4429688 17.831641 4.9765625 16.703 4.9765625 15.5 C 4.9765625 14.297 5.4439687 13.168359 6.2929688 12.318359 L 13.695312 4.9140625 L 12.28125 3.5019531 z M 17.302734 4.0371094 L 12.294922 9.0449219 L 13.708984 10.458984 L 18.716797 5.4511719 L 17.302734 4.0371094 z M 20.294922 6.0449219 L 19.294922 7.0449219 L 20.708984 8.4589844 L 21.708984 7.4589844 L 20.294922 6.0449219 z M 18.294922 8.0449219 L 13.294922 13.044922 L 14.708984 14.458984 L 19.708984 9.4589844 L 18.294922 8.0449219 z M 20.294922 11.044922 L 19.294922 12.044922 L 20.708984 13.458984 L 21.708984 12.458984 L 20.294922 11.044922 z M 9.5 13 A 2.5 2.5 0 0 0 7 15.5 A 2.5 2.5 0 0 0 9.5 18 A 2.5 2.5 0 0 0 12 15.5 A 2.5 2.5 0 0 0 9.5 13 z"/>
</svg>
