<?xml version="1.0"?>
<svg xmlns="http://www.w3.org/2000/svg" viewBox="0 0 24 24">
    <path d="M21,11c0-5.64-3.36-9-9-9s-9,3.36-9,9c-0.6,0-1,0.4-1,1v4c0,0.6,0.4,1,1,1v2.54l0.45,0.29C3.58,19.92,6.76,22,12,22 s8.42-2.08,8.55-2.17L21,19.54V17c0.6,0,1-0.4,1-1v-4C22,11.4,21.6,11,21,11z M8.45,15.8C6.48,15.57,5,13.9,5,11.91 C5,9.75,6.75,8,8.91,8h6.18C17.25,8,19,9.75,19,11.91c0,0.38-0.069,0.741-0.17,1.09H15c-0.2-0.6-0.8-1-1.4-1c-0.8,0-1.5,0.7-1.5,1.5 s0.7,1.5,1.5,1.5h3.899c-0.545,0.428-1.208,0.714-1.939,0.8C13.26,16.07,10.74,16.07,8.45,15.8z"/>
</svg>
