<?xml version="1.0"?>
<svg xmlns="http://www.w3.org/2000/svg" viewBox="0 0 24 24">
    <path d="M 12 1 C 9.2 1 7 2.5992187 7 5.1992188 C 7 6.6332188 7.5556406 7.5260312 8.3066406 8.0820312 C 6.9606406 8.3830312 6 9.541 6 11 L 6 13 L 8 13 L 8 15 L 6 15 L 6 17 L 8 17 L 8 19 L 11 19 L 11 17 L 13 17 L 13 19 L 16 19 L 16 17 L 18 17 L 18 15 L 16 15 L 16 13 L 18 13 L 18 11 C 18 9.541 17.039359 8.3830313 15.693359 8.0820312 C 16.444359 7.5260312 17 6.6332188 17 5.1992188 C 17 2.5992187 14.8 1 12 1 z M 12 3 C 14.2 3 15 4.1992187 15 5.1992188 C 15 6.3992188 14.1 7 12 7 C 9.9 7 9 6.3992187 9 5.1992188 C 9 4.1992188 9.8 3 12 3 z M 10 11 L 14 11 L 14 13 L 10 13 L 10 11 z M 8 21 L 8 23 L 11 23 L 11 21 L 8 21 z M 13 21 L 13 23 L 16 23 L 16 21 L 13 21 z"/>
</svg>
