<?xml version="1.0"?>
<svg xmlns="http://www.w3.org/2000/svg" viewBox="0 0 24 24">
    <path d="M 3 3 L 3 5 L 5 5 L 5 3 L 3 3 z M 7 3 L 7 11 L 17 11 L 17 3 L 7 3 z M 19 3 L 19 5 L 21 5 L 21 3 L 19 3 z M 3 6 L 3 8 L 5 8 L 5 6 L 3 6 z M 19 6 L 19 8 L 21 8 L 21 6 L 19 6 z M 3 9 L 3 11 L 5 11 L 5 9 L 3 9 z M 19 9 L 19 11 L 21 11 L 21 9 L 19 9 z M 3 13 L 3 15 L 6 15 L 6 19.5 L 6 21 L 7.5 21 L 16.5 21 L 18 21 L 18 19.5 L 18 15 L 21 15 L 21 13 L 3 13 z M 8 15 L 9.5097656 15 C 9.5628047 16.110993 10.65287 17 12 17 C 13.34713 17 14.437195 16.110993 14.490234 15 L 16 15 L 16 18.087891 A 1.5 1.5 0 0 0 15.087891 19 L 8.9121094 19 A 1.5 1.5 0 0 0 8 18.087891 L 8 15 z"/>
</svg>
