<?xml version="1.0"?>
<svg xmlns="http://www.w3.org/2000/svg" viewBox="0 0 24 24">
    <path style="line-height:normal;text-indent:0;text-align:start;text-decoration-line:none;text-decoration-style:solid;text-decoration-color:#000;text-transform:none;block-progression:tb;isolation:auto;mix-blend-mode:normal" d="M 14.707031 3.2929688 L 13.292969 4.7070312 L 15.585938 7 L 13.292969 9.2929688 L 14.707031 10.707031 L 17 8.4140625 L 19.292969 10.707031 L 20.707031 9.2929688 L 18.414062 7 L 20.707031 4.7070312 L 19.292969 3.2929688 L 17 5.5859375 L 14.707031 3.2929688 z M 4 6 L 4 8 L 10 8 L 10 6 L 4 6 z M 20.292969 14.292969 L 17 17.585938 L 14.707031 15.292969 L 13.292969 16.707031 L 17 20.414062 L 21.707031 15.707031 L 20.292969 14.292969 z M 4 17 L 4 19 L 10 19 L 10 17 L 4 17 z" font-weight="400" font-family="sans-serif" white-space="normal" overflow="visible"/>
</svg>
