<?xml version="1.0"?>
<svg xmlns="http://www.w3.org/2000/svg" viewBox="0 0 24 24">
    <path style="line-height:normal;text-indent:0;text-align:start;text-decoration-line:none;text-decoration-style:solid;text-decoration-color:#000;text-transform:none;block-progression:tb;isolation:auto;mix-blend-mode:normal" d="M 12 1.5859375 L 11.292969 2.2929688 L 10.751953 2.8339844 L 6.8339844 6.7519531 L 6.2929688 7.2929688 L 5.5859375 8 L 7 9.4140625 L 7.6757812 8.7382812 C 8.3413546 10.119198 9.1668409 11.35419 10.132812 12.453125 L 2.2929688 20.292969 L 1.5859375 21 L 3 22.414062 L 3.7070312 21.707031 L 11.546875 13.867188 C 12.64581 14.833159 13.880802 15.658645 15.261719 16.324219 L 14.585938 17 L 16 18.414062 L 16.707031 17.707031 L 17.248047 17.166016 L 17.707031 16.707031 L 21.166016 13.248047 L 21.707031 12.707031 L 22.414062 12 L 21 10.585938 L 20.324219 11.261719 C 18.689158 7.8693315 16.130669 5.3108417 12.738281 3.6757812 L 13.414062 3 L 12 1.5859375 z M 13.542969 6.4570312 C 15.165471 7.506907 16.493093 8.8345293 17.542969 10.457031 L 14.457031 13.542969 C 12.834529 12.493093 11.506907 11.165471 10.457031 9.5429688 L 13.542969 6.4570312 z" font-weight="400" font-family="sans-serif" white-space="normal" overflow="visible"/>
</svg>
