<?xml version="1.0"?>
<svg xmlns="http://www.w3.org/2000/svg" viewBox="0 0 24 24">
    <path d="M 18 3 L 18 5.0683594 C 17.477 5.1333594 17.004031 5.2639375 16.582031 5.4609375 C 16.151031 5.6629375 15.784516 5.926 15.478516 6.25 C 15.172516 6.576 14.936484 6.9574844 14.771484 7.3964844 C 14.605484 7.8344844 14.523437 8.3176563 14.523438 8.8476562 C 14.523438 9.4346562 14.617688 9.9487188 14.804688 10.386719 C 14.991687 10.825719 15.256609 11.210922 15.599609 11.544922 C 15.942609 11.879922 16.35775 12.172875 16.84375 12.421875 C 17.33075 12.670875 17.873656 12.898469 18.472656 13.105469 C 18.884656 13.251469 19.232531 13.403547 19.519531 13.560547 C 19.806531 13.718547 20.038797 13.889266 20.216797 14.072266 C 20.394797 14.255266 20.524469 14.456734 20.605469 14.677734 C 20.686469 14.898734 20.726562 15.14225 20.726562 15.40625 C 20.726562 15.98125 20.540922 16.440109 20.169922 16.787109 C 19.798922 17.134109 19.257875 17.308594 18.546875 17.308594 C 18.271875 17.308594 17.999516 17.270406 17.728516 17.191406 C 17.456516 17.112406 17.213047 16.979063 16.998047 16.789062 C 16.783047 16.600062 16.594938 16.345437 16.460938 16.023438 C 16.345938 15.747438 16.289438 15.397 16.273438 15 L 14 15 C 14.018 15.652 14.127266 16.229984 14.322266 16.708984 C 14.537266 17.235984 14.824688 17.671625 15.179688 18.015625 C 15.534688 18.358625 15.942297 18.622687 16.404297 18.804688 C 16.865297 18.988688 17.346703 19.107062 17.845703 19.164062 L 18 19.173828 L 18 21 L 19.75 21 L 19.75 19.080078 C 20.14 19.014078 20.51075 18.92325 20.84375 18.78125 C 21.29575 18.58925 21.680047 18.334625 21.998047 18.015625 C 22.316047 17.696625 22.563281 17.317906 22.738281 16.878906 C 22.913281 16.440906 23 15.944672 23 15.388672 C 23 14.801672 22.910516 14.290469 22.728516 13.855469 C 22.547516 13.419469 22.287172 13.036078 21.951172 12.705078 C 21.614172 12.373078 21.206563 12.084938 20.726562 11.835938 C 20.245562 11.586937 19.704609 11.351859 19.099609 11.130859 C 18.662609 10.972859 18.296 10.812344 18 10.652344 C 17.704 10.491344 17.467062 10.320625 17.289062 10.140625 C 17.111062 9.960625 16.985156 9.7628281 16.910156 9.5488281 C 16.835156 9.3348281 16.796875 9.0950781 16.796875 8.8300781 C 16.796875 8.5520781 16.834156 8.2965 16.910156 8.0625 C 16.985156 7.8285 17.102719 7.6289375 17.261719 7.4609375 C 17.420719 7.2949375 17.618469 7.1633594 17.855469 7.0683594 C 18.092469 6.9733594 18.374078 6.9277344 18.705078 6.9277344 C 19.011078 6.9277344 19.286297 6.9874219 19.529297 7.1074219 C 19.772297 7.2274219 19.977484 7.3961875 20.146484 7.6171875 C 20.314484 7.8391875 20.445156 8.1078281 20.535156 8.4238281 C 20.586156 8.6018281 20.618625 8.796 20.640625 9 L 22.902344 9 C 22.871344 8.561 22.814172 8.1444375 22.701172 7.7734375 C 22.545172 7.2654375 22.320344 6.8252187 22.027344 6.4492188 C 21.734344 6.0732187 21.376078 5.7700625 20.955078 5.5390625 C 20.596078 5.3430625 20.189 5.2158125 19.75 5.1328125 L 19.75 3 L 18 3 z M 6.0273438 5 L 1 19 L 3.4042969 19 L 4.3964844 16 L 9.7246094 16 L 10.724609 19 L 13.138672 19 L 8.1015625 5 L 6.0273438 5 z M 7.0605469 7.9707031 L 9.0664062 14 L 5.0527344 14 L 7.0605469 7.9707031 z"/>
</svg>
