<?xml version="1.0"?>
<svg xmlns="http://www.w3.org/2000/svg" viewBox="0 0 24 24">
    <path d="M 3 3 L 3 21 L 21 21 L 21 3 L 3 3 z M 11.064453 7 L 12.935547 7 C 13.064547 7 13.1725 7.0966094 13.1875 7.2246094 L 13.304688 8.2363281 C 13.788687 8.4043281 14.226469 8.6583281 14.605469 8.9863281 L 15.542969 8.5820312 C 15.660969 8.5310312 15.797328 8.5755 15.861328 8.6875 L 16.798828 10.308594 C 16.862828 10.420594 16.833469 10.562672 16.730469 10.638672 L 15.923828 11.238281 C 15.971828 11.485281 16 11.74 16 12 C 16 12.26 15.971828 12.513766 15.923828 12.759766 L 16.730469 13.357422 C 16.833469 13.434422 16.863828 13.5765 16.798828 13.6875 L 15.861328 15.308594 C 15.797328 15.420594 15.660969 15.465063 15.542969 15.414062 L 14.607422 15.011719 C 14.228422 15.340719 13.790641 15.595672 13.306641 15.763672 L 13.189453 16.775391 C 13.173453 16.904391 13.064547 17 12.935547 17 L 11.064453 17 C 10.935453 17 10.8275 16.903391 10.8125 16.775391 L 10.695312 15.763672 C 10.211313 15.595672 9.7735312 15.341672 9.3945312 15.013672 L 8.4570312 15.417969 C 8.3390312 15.468969 8.2026719 15.4245 8.1386719 15.3125 L 7.2011719 13.689453 C 7.1371719 13.577453 7.1665313 13.435375 7.2695312 13.359375 L 8.0761719 12.759766 C 8.0281719 12.513766 8 12.26 8 12 C 8 11.74 8.0281719 11.486234 8.0761719 11.240234 L 7.2695312 10.640625 C 7.1665313 10.563625 7.1361719 10.421547 7.2011719 10.310547 L 8.1386719 8.6894531 C 8.2026719 8.5774531 8.3390312 8.5329844 8.4570312 8.5839844 L 9.3945312 8.9882812 C 9.7735312 8.6602813 10.211313 8.4043281 10.695312 8.2363281 L 10.8125 7.2246094 C 10.8275 7.0966094 10.935453 7 11.064453 7 z M 12 10 A 2 2 0 0 0 10 12 A 2 2 0 0 0 12 14 A 2 2 0 0 0 14 12 A 2 2 0 0 0 12 10 z"/>
</svg>
