<?xml version="1.0"?>
<svg xmlns="http://www.w3.org/2000/svg" viewBox="0 0 24 24">
    <path style="line-height:normal;text-indent:0;text-align:start;text-decoration-line:none;text-decoration-style:solid;text-decoration-color:#000;text-transform:none;block-progression:tb;isolation:auto;mix-blend-mode:normal" d="M 6 2 L 3 8 L 5 8 L 5 12 L 8 6 L 6 6 L 6 2 z M 17 4 A 5 5 0 0 0 15.117188 4.3710938 C 15.115039 4.3719617 15.113476 4.3741289 15.111328 4.375 A 5 5 0 0 0 14.263672 4.8183594 C 14.198025 4.861261 14.134283 4.9087746 14.070312 4.9550781 A 5 5 0 0 0 13.869141 5.1035156 C 13.812085 5.1493738 13.758547 5.2012677 13.703125 5.25 A 5 5 0 0 0 13.486328 5.4453125 C 13.479381 5.452179 13.471759 5.4579281 13.464844 5.4648438 C 13.418394 5.5112938 13.337555 5.6072498 13.285156 5.6621094 A 5 5 0 0 0 13.166016 5.7929688 C 12.164262 6.866456 10.321391 9.1295087 8.5175781 11.373047 C 7.5315802 12.599407 6.5921052 13.781124 5.8925781 14.664062 C 5.5428146 15.105533 5.2538914 15.473819 5.0488281 15.734375 C 4.9462965 15.864653 4.8643683 15.967197 4.8066406 16.041016 C 4.7509216 16.112266 4.7801316 16.064667 4.6875 16.195312 C 4.6875 16.195312 4.6875 16.197266 4.6875 16.197266 C 4.268706 16.779998 4.0522686 17.459873 4.0175781 18.146484 A 3.5 3.5 0 0 0 4.0175781 18.150391 A 3.5 3.5 0 0 0 4 18.5 A 3.5 3.5 0 0 0 7.5 22 A 3.5 3.5 0 0 0 7.828125 21.982422 C 8.5243859 21.952164 9.2140555 21.736074 9.8046875 21.310547 L 9.8066406 21.310547 C 9.9233597 21.226027 9.8854176 21.250997 9.9589844 21.193359 C 10.032551 21.135719 10.137381 21.053734 10.267578 20.951172 C 10.527973 20.746049 10.894548 20.457252 11.335938 20.107422 C 12.218713 19.407762 13.398782 18.466453 14.625 17.480469 C 16.939298 15.619575 19.29201 13.706983 20.316406 12.732422 A 5 5 0 0 0 20.533203 12.535156 C 20.550998 12.517396 20.566515 12.498435 20.583984 12.480469 A 5 5 0 0 0 20.863281 12.169922 C 20.888878 12.138771 20.91082 12.105849 20.935547 12.074219 A 5 5 0 0 0 21.154297 11.777344 C 21.166749 11.758701 21.177278 11.739478 21.189453 11.720703 A 5 5 0 0 0 21.628906 10.884766 C 21.629919 10.882261 21.629851 10.879459 21.630859 10.876953 A 5 5 0 0 0 22 9 A 5 5 0 0 0 21.628906 7.1171875 C 21.62804 7.1150425 21.625869 7.1134721 21.625 7.1113281 A 5 5 0 0 0 21.185547 6.2695312 C 21.132991 6.1888234 21.075275 6.1113567 21.017578 6.0332031 A 5 5 0 0 0 20.896484 5.8710938 C 20.850278 5.8136061 20.79913 5.7589473 20.75 5.703125 A 5 5 0 0 0 20.554688 5.4863281 C 20.547817 5.4793858 20.542076 5.4717548 20.535156 5.4648438 C 20.495286 5.4249735 20.451043 5.3917526 20.410156 5.3535156 A 5 5 0 0 0 20.183594 5.1464844 C 20.126936 5.0996582 20.066041 5.059567 20.007812 5.015625 A 5 5 0 0 0 19.783203 4.8476562 C 19.759768 4.8319639 19.734582 4.8199412 19.710938 4.8046875 A 5 5 0 0 0 17 4 z M 12.130859 10.111328 A 5 5 0 0 0 15.884766 13.869141 C 15.063089 14.544899 14.234778 15.228969 13.373047 15.921875 C 12.466874 16.650516 11.693904 17.263481 10.939453 17.863281 A 3.5 3.5 0 0 0 8.1347656 15.060547 C 8.7340975 14.305974 9.3473295 13.533469 10.076172 12.626953 C 10.769978 11.764014 11.454029 10.934209 12.130859 10.111328 z" font-weight="400" font-family="sans-serif" white-space="normal" overflow="visible"/>
</svg>
