<?xml version="1.0"?>
<svg xmlns="http://www.w3.org/2000/svg" viewBox="0 0 24 24">
    <path d="M 6 3 L 3 13 L 5 13 L 5.5996094 11 L 9.4003906 11 L 10 13 L 12 13 L 9 3 L 6 3 z M 12 3 L 15 13 L 18 13 L 21 3 L 19 3 L 16.5 11.332031 L 14 3 L 12 3 z M 7.5 4.6679688 L 8.8007812 9 L 6.1992188 9 L 7.5 4.6679688 z M 2 15 L 2 21 L 22 21 L 22 15 L 2 15 z M 5 17 C 5.552 17 6 17.448 6 18 C 6 18.552 5.552 19 5 19 C 4.448 19 4 18.552 4 18 C 4 17.448 4.448 17 5 17 z M 8 17 L 16 17 L 16 19 L 8 19 L 8 17 z M 19 17 C 19.552 17 20 17.448 20 18 C 20 18.552 19.552 19 19 19 C 18.448 19 18 18.552 18 18 C 18 17.448 18.448 17 19 17 z"/>
</svg>
