<?xml version="1.0"?>
<svg xmlns="http://www.w3.org/2000/svg" viewBox="0 0 24 24">
    <path d="M 12 3 C 7.037 3 3 7.038 3 12 L 5 12 C 5 8.14 8.141 5 12 5 C 14.185097 5 16.125208 6.0167955 17.408203 7.5917969 L 15 10 L 21 10 L 21 4 L 18.833984 6.1660156 C 17.184843 4.2316704 14.736456 3 12 3 z M 19 12 C 19 15.859 15.859 19 12 19 C 9.8149031 19 7.8747922 17.983204 6.5917969 16.408203 L 9 14 L 3 14 L 3 20 L 5.1660156 17.833984 C 6.8151574 19.76833 9.263544 21 12 21 C 16.963 21 21 16.963 21 12 L 19 12 z"/>
</svg>
