<?xml version="1.0"?>
<svg xmlns="http://www.w3.org/2000/svg" viewBox="0 0 24 24">
    <path d="M 10 4 C 5.582 4 2 7.582 2 12 C 2 16.418 5.582 20 10 20 C 14.418 20 18 16.418 18 12 C 18 7.582 14.418 4 10 4 z M 14 4 C 13.661 4 13.328 4.0273594 13 4.0683594 C 16.945 4.5613594 20 7.921 20 12 C 20 16.079 16.945 19.438641 13 19.931641 C 13.328 19.972641 13.661 20 14 20 C 18.418 20 22 16.418 22 12 C 22 7.582 18.418 4 14 4 z M 9.7128906 5.5996094 L 10.720703 5.5996094 L 10.720703 7.0566406 C 11.041703 7.1176406 12.837891 7.5272969 12.837891 10.154297 L 10.947266 10.154297 C 10.947266 8.7812969 10.364141 8.5644531 10.119141 8.5644531 C 9.9851406 8.5644531 9.3652344 8.5995625 9.3652344 9.7265625 C 9.3662344 11.693563 12.824219 11.080156 12.824219 14.285156 C 12.824219 16.613156 10.912219 16.928703 10.574219 16.970703 L 10.574219 18.300781 L 9.5722656 18.300781 L 9.5722656 16.970703 C 9.2602656 16.927703 7.1621094 16.696688 7.1621094 13.804688 L 9.0527344 13.804688 C 9.0527344 15.512688 9.9324062 15.441406 10.066406 15.441406 C 10.213406 15.441406 10.935547 15.414828 10.935547 14.298828 C 10.935547 12.069828 7.4765625 13.05975 7.4765625 9.71875 C 7.4765625 7.42875 9.3738906 7.0703437 9.7128906 7.0273438 L 9.7128906 5.5996094 z"/>
</svg>
