<?xml version="1.0"?>
<svg xmlns="http://www.w3.org/2000/svg" viewBox="0 0 24 24">
    <path d="M 10 4 C 5.582 4 2 7.582 2 12 C 2 16.418 5.582 20 10 20 C 14.418 20 18 16.418 18 12 C 18 7.582 14.418 4 10 4 z M 14 4 C 13.661 4 13.328 4.0273594 13 4.0683594 C 16.945 4.5613594 20 7.921 20 12 C 20 16.079 16.945 19.438641 13 19.931641 C 13.328 19.972641 13.661 20 14 20 C 18.418 20 22 16.418 22 12 C 22 7.582 18.418 4 14 4 z M 8.0976562 7.6757812 L 12.228516 7.6757812 L 12.228516 9.09375 L 9.4570312 9.09375 L 9.3066406 10.921875 C 9.3536406 10.890875 9.4105625 10.856359 9.4765625 10.818359 C 9.5425625 10.780359 9.6190781 10.745891 9.7050781 10.712891 C 9.7910781 10.679891 9.8834219 10.651859 9.9824219 10.630859 C 10.081422 10.609859 10.187875 10.599609 10.296875 10.599609 C 10.651875 10.599609 10.965281 10.663969 11.238281 10.792969 C 11.511281 10.921969 11.742734 11.109469 11.927734 11.355469 C 12.112734 11.601469 12.253609 11.902813 12.349609 12.257812 C 12.445609 12.612812 12.492187 13.017703 12.492188 13.470703 C 12.492187 13.850703 12.442797 14.210687 12.341797 14.554688 C 12.239797 14.898687 12.085906 15.200891 11.878906 15.462891 C 11.671906 15.724891 11.411609 15.933844 11.099609 16.089844 C 10.787609 16.245844 10.418094 16.324219 9.9960938 16.324219 C 9.6800937 16.324219 9.3731719 16.26725 9.0761719 16.15625 C 8.7791719 16.04525 8.5152031 15.882969 8.2832031 15.667969 C 8.0512031 15.452969 7.8636562 15.190812 7.7226562 14.882812 C 7.5816562 14.574813 7.5098594 14.223125 7.5058594 13.828125 L 9.1464844 13.828125 C 9.1734844 14.183125 9.2611563 14.459297 9.4101562 14.654297 C 9.5591562 14.849297 9.750375 14.947266 9.984375 14.947266 C 10.140375 14.947266 10.273812 14.906219 10.382812 14.824219 C 10.491812 14.742219 10.581391 14.631234 10.650391 14.490234 C 10.719391 14.349234 10.767875 14.183188 10.796875 13.992188 C 10.825875 13.801188 10.839844 13.594094 10.839844 13.371094 C 10.839844 13.148094 10.82025 12.944719 10.78125 12.761719 C 10.74225 12.578719 10.679703 12.421969 10.595703 12.292969 C 10.511703 12.163969 10.406297 12.063234 10.279297 11.990234 C 10.152297 11.917234 10.002172 11.882813 9.8261719 11.882812 C 9.7091719 11.882812 9.6055781 11.896828 9.5175781 11.923828 C 9.4295781 11.950828 9.3540625 11.986297 9.2890625 12.029297 C 9.2240625 12.072297 9.1680938 12.121734 9.1210938 12.177734 C 9.0740937 12.233734 9.0311875 12.292563 8.9921875 12.351562 L 7.6757812 12.011719 L 8.0976562 7.6757812 z"/>
</svg>
