<?xml version="1.0"?>
<svg xmlns="http://www.w3.org/2000/svg" viewBox="0 0 24 24">
    <path d="M 12 2 A 3 3 0 0 0 9 5 A 3 3 0 0 0 12 8 A 3 3 0 0 0 15 5 A 3 3 0 0 0 12 2 z M 12 9 C 6.82 9 4.240625 13.31 4.140625 13.5 L 5.859375 14.509766 C 5.909375 14.419766 6.62 13.249062 8 12.289062 L 8 14.710938 C 7.06 15.260938 6.0302344 16.169297 5.9902344 17.529297 C 5.9302344 19.579297 8.140625 22.330859 8.390625 22.630859 L 9.9394531 21.369141 C 9.1094531 20.359141 7.9602344 18.529844 7.9902344 17.589844 C 8.0002344 17.349844 8.1491406 17.120391 8.3691406 16.900391 C 8.8591406 17.650391 10.02 19 12 19 C 13.98 19 15.140859 17.650391 15.630859 16.900391 C 15.850859 17.110391 16 17.340078 16 17.580078 C 16 18.580078 14.810313 20.389297 14.070312 21.279297 L 15.599609 22.560547 C 15.849609 22.270547 18 19.630078 18 17.580078 C 18 16.180078 16.96 15.260938 16 14.710938 L 16 12.289062 C 17.38 13.249062 18.090625 14.42 18.140625 14.5 L 19.859375 13.5 C 19.759375 13.31 17.18 9 12 9 z"/>
</svg>
