<?xml version="1.0"?>
<svg xmlns="http://www.w3.org/2000/svg" viewBox="0 0 24 24">
    <path d="M 20 2.0097656 C 19.5 2.0097656 18.999609 2.209375 18.599609 2.609375 L 17.900391 3.3105469 C 17.500391 3.7105469 16.9 3.7105469 16.5 3.3105469 C 16.1 2.9105469 15.796875 2.6132812 15.796875 2.6132812 L 14.273438 4.1367188 C 13.892523 4.0325817 13.501925 3.9609375 13.099609 3.9609375 C 11.899609 3.9609375 10.760625 4.4407813 9.890625 5.3007812 L 0.9921875 14.181641 L 9.8085938 22.996094 L 18.710938 14.119141 C 19.570937 13.249141 20.050781 12.110156 20.050781 10.910156 C 20.050781 10.453223 19.959843 10.011925 19.826172 9.5839844 L 21.296875 8.1132812 C 21.296875 8.1132812 20.999609 7.8101562 20.599609 7.4101562 C 20.299609 7.1101563 20.299219 6.509375 20.699219 6.109375 L 21.400391 5.4101562 C 22.200391 4.6101563 22.200391 3.409375 21.400391 2.609375 C 21.000391 2.209375 20.5 2.0097656 20 2.0097656 z M 14.400391 10.789062 L 16.839844 13.150391 L 15.419922 14.570312 L 13 12.230469 L 14.400391 10.789062 z M 12.009766 13.199219 L 14.400391 15.589844 L 12.980469 17.009766 L 10.589844 14.619141 L 12.009766 13.199219 z M 9.609375 15.699219 L 11.949219 18.039062 L 10.529297 19.460938 L 8.1894531 17.119141 L 9.609375 15.699219 z"/>
</svg>
