<?xml version="1.0"?>
<svg xmlns="http://www.w3.org/2000/svg" viewBox="0 0 24 24">
    <path d="M 15 1 C 14.483333 1 13.691615 1.1146791 12.787109 1.6738281 C 12.37575 1.9281233 11.973681 2.3102709 11.652344 2.796875 C 11.451867 2.6452409 11.244303 2.5169059 11.037109 2.4199219 C 10.245131 2.0492087 9.4833333 2 9 2 L 9 4 C 9.2907285 4 9.7219117 4.0553638 10.087891 4.2011719 C 6.6681325 4.9059379 4.0802729 7.464447 3.5800781 10.779297 C 2.6600781 11.159297 2 12.069609 2 13.099609 C 2 14.189609 2.6696094 15.110937 3.5996094 15.460938 C 4.3296094 17.680937 6.76 21 12 21 C 17.24 21 19.670391 17.680937 20.400391 15.460938 C 21.330391 15.110938 22 14.189609 22 13.099609 C 22 12.069609 21.339922 11.159297 20.419922 10.779297 C 19.884678 7.232175 16.959706 4.5490547 13.181641 4.0800781 C 13.333408 3.7540893 13.562721 3.5451048 13.837891 3.375 C 14.308385 3.084149 15.016667 3 15 3 L 15 1 z M 9.5 10 C 10.33 10 11 10.67 11 11.5 C 11 12.33 10.33 13 9.5 13 C 8.67 13 8 12.33 8 11.5 C 8 10.67 8.67 10 9.5 10 z M 14.5 10 C 15.33 10 16 10.67 16 11.5 C 16 12.33 15.33 13 14.5 13 C 13.67 13 13 12.33 13 11.5 C 13 10.67 13.67 10 14.5 10 z M 9.640625 14.230469 C 10.810625 15.210469 13.189375 15.210469 14.359375 14.230469 L 15.640625 15.769531 C 14.700625 16.549531 13.37 17 12 17 C 10.63 17 9.299375 16.549531 8.359375 15.769531 L 9.640625 14.230469 z"/>
</svg>
