<?xml version="1.0"?>
<svg xmlns="http://www.w3.org/2000/svg" viewBox="0 0 24 24">
    <path d="M 15.193359 2 C 14.525859 2.0121484 13.830781 2.3478125 13.425781 2.9609375 C 12.962934 3.661637 12.884783 4.4494728 13.177734 5.0722656 C 12.667859 5.1944722 12.16829 5.4821008 11.679688 5.9707031 C 9.9096875 7.7307031 11.330312 11.419922 9.8203125 12.919922 C 8.0403125 14.679922 6.5396094 13.179609 4.8496094 14.849609 C 4.2296094 15.469609 3.2494531 16.960859 4.9394531 18.630859 C 5.9294531 19.610859 7.1000781 20 8.3300781 20 C 11.750078 20 15.589844 17.040547 17.089844 15.560547 C 17.846711 14.806731 18.370655 13.920878 18.675781 12.996094 C 18.927351 12.97841 19.209341 12.877571 19.447266 12.726562 C 20.035266 12.311562 20.133844 11.584437 19.839844 11.273438 C 19.708522 10.995383 19.356816 10.964517 18.992188 11.058594 C 18.992426 11.021348 18.990669 10.984439 18.990234 10.947266 C 19.168591 10.898391 19.350307 10.812135 19.525391 10.636719 C 19.964391 10.197719 20.139953 9.6714219 19.876953 9.2324219 C 19.648572 9.0040409 19.157576 8.9263556 18.6875 9.1347656 C 18.67076 9.0851243 18.658729 9.0334383 18.640625 8.984375 C 18.917715 9.0020491 19.216183 8.9122072 19.441406 8.6699219 C 19.996406 8.2429219 20.154891 7.55975 19.837891 7.21875 C 19.520891 6.87675 18.966234 6.9617344 18.490234 7.3027344 C 18.320257 7.4860186 18.190123 7.7028364 18.103516 7.921875 C 18.056885 7.850449 18.00529 7.7819334 17.955078 7.7128906 C 18.107083 7.6198811 18.255207 7.5098886 18.390625 7.3730469 C 19.056625 6.6990469 19.199031 5.76325 18.707031 5.28125 C 18.215031 4.79925 17.275375 4.9539531 16.609375 5.6269531 C 16.469668 5.7683387 16.358201 5.9221742 16.265625 6.0800781 C 16.101177 5.9536672 15.938604 5.8398522 15.777344 5.734375 C 16.071772 5.5832881 16.345986 5.3763037 16.574219 5.1015625 C 17.222219 4.1205625 17.130875 2.9599375 16.296875 2.3359375 C 15.984125 2.1015625 15.593859 1.9927109 15.193359 2 z"/>
</svg>
