<?xml version="1.0"?>
<svg xmlns="http://www.w3.org/2000/svg" viewBox="0 0 24 24">
    <path style="line-height:normal;text-indent:0;text-align:start;text-decoration-line:none;text-decoration-style:solid;text-decoration-color:#000;text-transform:none;block-progression:tb;isolation:auto;mix-blend-mode:normal" d="M 7 2 L 7 10 L 11 10 L 11 4 L 13 4 L 13 10 L 17 10 L 17 2 L 7 2 z M 4.0273438 11 A 1 1 0 0 0 3.0273438 12 A 1 1 0 0 0 3.921875 12.994141 C 3.3267679 14.316381 3.0030418 15.657702 3 16.996094 C 2.99662 18.511965 3.3843687 20.010876 4.1191406 21.453125 L 4.3964844 22 L 19.599609 22 L 19.875 21.449219 C 20.611047 19.98256 20.994364 18.488422 21 17.003906 C 21.005013 15.641569 20.675078 14.297988 20.076172 12.998047 A 1 1 0 0 0 21 12 A 1 1 0 0 0 20 11 A 1 1 0 0 0 19 12 L 18.982422 12 L 5.0273438 12 A 1 1 0 0 0 4.0273438 11 z M 5.7636719 14 L 7 14 L 7 20 L 5.7617188 20 C 5.3274793 18.992589 4.997783 17.996659 5 17.001953 C 5.0022127 16.028371 5.3299466 15.023427 5.7636719 14 z M 9 14 L 11 14 L 11 20 L 9 20 L 9 14 z M 13 14 L 15 14 L 15 20 L 13 20 L 13 14 z M 17 14 L 18.232422 14 C 18.671702 15.004915 19.003696 15.998124 19 16.996094 C 18.996312 17.967525 18.665625 18.973641 18.228516 20 L 17 20 L 17 14 z" font-weight="400" font-family="sans-serif" white-space="normal" overflow="visible"/>
</svg>
