<?xml version="1.0"?>
<svg xmlns="http://www.w3.org/2000/svg" viewBox="0 0 24 24">
    <path d="M 7.5 2 C 4.854 2 2 6.9097969 2 14.841797 C 2 18.506797 3.384 21.192 4 22 L 11 22 C 11.617 21.191 13 18.506797 13 14.841797 C 13 6.9097969 10.146 2 7.5 2 z M 16.5 2 C 15.33 2 14.110859 2.9704687 13.130859 4.7304688 C 13.510859 5.5604688 13.839375 6.4802344 14.109375 7.4902344 C 14.949375 5.1202344 16.03 4 16.5 4 C 16.84 4 17.509922 4.6000781 18.169922 5.8300781 L 14.460938 9 C 14.610938 9.74 14.730313 10.520078 14.820312 11.330078 L 18.980469 7.7597656 C 19.350469 8.8497656 19.650313 10.210547 19.820312 11.810547 L 18.980469 12.75 C 18.840469 12.91 18.649219 13 18.449219 13 L 14.949219 13 C 14.979219 13.6 15 14.209844 15 14.839844 C 15 17.929844 14.139844 20.44 13.339844 22 L 20 22 C 20.62 21.19 22 18.509844 22 14.839844 C 22 6.9098438 19.15 2 16.5 2 z M 7.5 4 C 7.84 4 8.5069687 4.5971719 9.1679688 5.8261719 L 4.4628906 9.8574219 C 5.2678906 5.8604219 6.896 4 7.5 4 z M 9.9824219 7.7597656 C 10.347422 8.8527656 10.646266 10.212453 10.822266 11.814453 L 9.984375 12.746094 C 9.836375 12.909094 9.646125 13 9.453125 13 L 5.546875 13 C 5.353875 13 5.163625 12.908141 5.015625 12.744141 L 4.6464844 12.333984 L 9.9824219 7.7597656 z"/>
</svg>
