<?xml version="1.0"?>
<svg xmlns="http://www.w3.org/2000/svg" viewBox="0 0 24 24">
    <path d="M20.991,5.057c0.104-0.251,0.947-0.814,1.563-1.225l-1.109-1.664c-0.983,0.656-1.818,1.212-2.209,1.921 c-0.88,0.174-2.354,0.689-3.563,2.207C14.63,7.604,14.02,8.639,13.48,9.551c-0.731,1.237-1.261,2.132-2.572,3.141 c-1.317,1.015-2.475,1.393-3.594,1.759c-1.06,0.347-2.062,0.674-2.93,1.489c-0.322,0.302-0.907,1.183-1.227,1.682L3,17.869v1.348 l0.338,0.298C3.753,19.883,5.016,21,7.018,21C17.605,21,22,13.835,22,10c0-1.87-0.425-3.11-0.735-4.016 C21.123,5.569,21,5.21,20.991,5.057z"/>
</svg>
