<?xml version="1.0"?>
<svg xmlns="http://www.w3.org/2000/svg" viewBox="0 0 24 24">
    <path d="M 20.195312 1.7792969 L 3.9902344 6 L 11.927734 6 L 17.884766 4.4492188 C 18.137766 4.8212187 18.543188 5.0606094 18.992188 5.0996094 L 19.228516 6 L 21.294922 6 L 20.195312 1.7792969 z M 2 8 L 2 20 L 22 20 L 22 19 L 22 8 L 2 8 z M 4.9121094 10 L 19.087891 10 A 1.5 1.5 0 0 0 20 10.912109 L 20 17.087891 A 1.5 1.5 0 0 0 19.087891 18 L 4.9121094 18 A 1.5 1.5 0 0 0 4 17.087891 L 4 10.912109 A 1.5 1.5 0 0 0 4.9121094 10 z M 12 11 A 3 3 0 0 0 9 14 A 3 3 0 0 0 12 17 A 3 3 0 0 0 15 14 A 3 3 0 0 0 12 11 z M 7 13 C 6.448 13 6 13.447 6 14 C 6 14.553 6.448 15 7 15 C 7.552 15 8 14.553 8 14 C 8 13.447 7.552 13 7 13 z M 17 13 C 16.448 13 16 13.447 16 14 C 16 14.553 16.448 15 17 15 C 17.552 15 18 14.553 18 14 C 18 13.447 17.552 13 17 13 z"/>
</svg>
