<?xml version="1.0"?>
<svg xmlns="http://www.w3.org/2000/svg" viewBox="0 0 24 24">
    <path d="M21,9V6.5l-9-4l-9,4V9h2v10H3v2h18v-2h-2V9H21z M14.825,14.336c0,2.328-1.912,2.642-2.25,2.684v1.33h-1.002v-1.33 c-0.312-0.043-2.411-0.273-2.411-3.165h1.89c0,1.708,0.881,1.637,1.015,1.637c0.147,0,0.868-0.027,0.868-1.143 c0-2.229-3.459-1.24-3.459-4.581c0-2.29,1.898-2.647,2.237-2.69V5.65h1.008v1.456c0.321,0.061,2.117,0.471,2.117,3.098h-1.89 c0-1.373-0.583-1.589-0.828-1.589c-0.134,0-0.755,0.035-0.755,1.162C11.366,11.743,14.825,11.13,14.825,14.336z"/>
</svg>
