<?xml version="1.0"?>
<svg xmlns="http://www.w3.org/2000/svg" viewBox="0 0 24 24">
    <path d="M 2 4 L 2 20 L 12.080078 20 C 12.033078 19.673 12 19.34 12 19 C 12 15.134 15.134 12 19 12 C 20.075 12 21.09 12.250594 22 12.683594 L 22 4 L 2 4 z M 5 7 L 8 7 L 8 10 L 5 10 L 5 7 z M 13 8 L 19 8 L 19 10 L 13 10 L 13 8 z M 19 14 C 16.25 14 14 16.25 14 19 C 14 21.75 16.25 24 19 24 C 21.75 24 24 21.75 24 19 C 24 16.25 21.75 14 19 14 z M 5 15 L 7 15 L 7 17 L 5 17 L 5 15 z M 9 15 L 11 15 L 11 17 L 9 17 L 9 15 z M 19.019531 16 C 19.329531 16 19.606562 16.036375 19.851562 16.109375 C 20.096563 16.181375 20.303656 16.287781 20.472656 16.425781 C 20.640656 16.563781 20.769375 16.734453 20.859375 16.939453 C 20.949375 17.144453 20.992188 17.378625 20.992188 17.640625 C 20.992187 17.824625 20.963297 17.990672 20.904297 18.138672 C 20.844297 18.286672 20.765063 18.427594 20.664062 18.558594 C 20.564062 18.689594 20.449312 18.8155 20.320312 18.9375 C 20.190313 19.0595 20.052203 19.181641 19.908203 19.306641 C 19.827203 19.378641 19.759125 19.451438 19.703125 19.523438 C 19.649125 19.596438 19.604312 19.673906 19.570312 19.753906 C 19.538312 19.825906 19.519859 19.904328 19.505859 19.986328 L 18.363281 19.986328 C 18.368281 19.925328 18.368953 19.853828 18.376953 19.798828 C 18.399953 19.649828 18.435281 19.511719 18.488281 19.386719 C 18.541281 19.261719 18.611266 19.143156 18.697266 19.035156 C 18.783266 18.927156 18.888625 18.819937 19.015625 18.710938 C 19.116625 18.626938 19.210875 18.545797 19.296875 18.466797 C 19.380875 18.386797 19.455578 18.307516 19.517578 18.228516 C 19.579578 18.149516 19.626156 18.063563 19.660156 17.976562 C 19.694156 17.889563 19.710938 17.796312 19.710938 17.695312 C 19.710938 17.458313 19.652156 17.279109 19.535156 17.162109 C 19.417156 17.045109 19.246531 16.988281 19.019531 16.988281 C 18.928531 16.988281 18.839953 17.001344 18.751953 17.027344 C 18.664953 17.054344 18.587531 17.095297 18.519531 17.154297 C 18.451531 17.213297 18.396469 17.287906 18.355469 17.378906 C 18.314469 17.469906 18.291062 17.578125 18.289062 17.703125 L 17.007812 17.703125 C 17.009812 17.410125 17.063922 17.156359 17.169922 16.943359 C 17.276922 16.729359 17.419609 16.554063 17.599609 16.414062 C 17.779609 16.274062 17.990375 16.169562 18.234375 16.101562 C 18.477375 16.033562 18.739531 16 19.019531 16 z M 18.9375 20.732422 C 19.0415 20.732422 19.136703 20.751109 19.220703 20.787109 C 19.305703 20.823109 19.3775 20.871594 19.4375 20.933594 C 19.4965 20.994594 19.542219 21.066391 19.574219 21.150391 C 19.606219 21.233391 19.623047 21.324828 19.623047 21.423828 C 19.623047 21.519828 19.606219 21.607406 19.574219 21.691406 C 19.542219 21.775406 19.4975 21.847203 19.4375 21.908203 C 19.3775 21.969203 19.305703 22.018734 19.220703 22.052734 C 19.136703 22.086734 19.0415 22.103516 18.9375 22.103516 C 18.8325 22.103516 18.739297 22.087734 18.654297 22.052734 C 18.571297 22.019734 18.498453 21.969203 18.439453 21.908203 C 18.380453 21.847203 18.333781 21.775406 18.300781 21.691406 C 18.268781 21.607406 18.253906 21.518828 18.253906 21.423828 C 18.253906 21.324828 18.270734 21.233391 18.302734 21.150391 C 18.334734 21.066391 18.380453 20.994594 18.439453 20.933594 C 18.498453 20.872594 18.571297 20.823109 18.654297 20.787109 C 18.739297 20.751109 18.8325 20.732422 18.9375 20.732422 z"/>
</svg>
