<?xml version="1.0"?>
<svg xmlns="http://www.w3.org/2000/svg" viewBox="0 0 24 24">
    <path d="M21,3H3v18h18V3z M11.691,19v-1.466c-0.344-0.047-2.658-0.301-2.658-3.489h2.083c0,1.883,0.971,1.805,1.119,1.805 c0.162,0,0.957-0.03,0.957-1.26c0-2.457-3.813-1.367-3.813-5.05c0-2.524,2.092-2.918,2.466-2.965V5h1.111v1.605 c0.354,0.067,2.334,0.519,2.334,3.415h-2.083c0-1.514-0.643-1.752-0.913-1.752c-0.148,0-0.832,0.039-0.832,1.281 c0.001,2.168,3.814,1.493,3.814,5.026c0,2.566-2.108,2.912-2.48,2.959V19H11.691z"/>
</svg>
