<?xml version="1.0"?>
<svg xmlns="http://www.w3.org/2000/svg" viewBox="0 0 24 24">
    <path style="line-height:normal;text-indent:0;text-align:start;text-decoration-line:none;text-decoration-style:solid;text-decoration-color:#000;text-transform:none;block-progression:tb;isolation:auto;mix-blend-mode:normal" d="M 6 3 L 6 5.5488281 C 6 7.9602785 6.4819399 10.34621 7.4199219 12.568359 L 7.9140625 13.738281 L 7.0371094 15.816406 C 6.4998271 15.314516 5.7854427 15 5 15 C 3.3549904 15 2 16.35499 2 18 C 2 19.64501 3.3549904 21 5 21 C 6.3154043 21 7.4320268 20.127735 7.8320312 18.939453 L 7.8808594 18.960938 L 9 16.308594 L 10.119141 18.960938 L 10.167969 18.939453 C 10.567973 20.127735 11.684595 21 13 21 C 14.64501 21 16 19.64501 16 18 C 16 16.35499 14.64501 15 13 15 C 12.214557 15 11.500173 15.314516 10.962891 15.816406 L 10.085938 13.736328 L 10.578125 12.568359 C 11.517252 10.346007 12 7.9602785 12 5.5488281 L 12 3 L 10 3 L 10 5.5488281 C 10 7.4357352 9.6484361 9.298743 9 11.066406 C 8.3519874 9.2986421 8 7.4357352 8 5.5488281 L 8 3 L 6 3 z M 16 3 L 16 5 L 20 5 L 20 6 L 16 6 L 16 8 L 20 8 L 20 9 L 16 9 L 16 11 L 20 11 L 20 12 L 16 12 L 16 14 L 20 14 L 20 21 L 22 21 L 22 3 L 16 3 z M 5 17 C 5.5641294 17 6 17.435871 6 18 C 6 18.564129 5.5641294 19 5 19 C 4.4358706 19 4 18.564129 4 18 C 4 17.435871 4.4358706 17 5 17 z M 13 17 C 13.564129 17 14 17.435871 14 18 C 14 18.564129 13.564129 19 13 19 C 12.435871 19 12 18.564129 12 18 C 12 17.435871 12.435871 17 13 17 z"/>
</svg>
