<?xml version="1.0"?>
<svg xmlns="http://www.w3.org/2000/svg" viewBox="0 0 24 24">
    <path style="line-height:normal;text-indent:0;text-align:start;text-decoration-line:none;text-decoration-style:solid;text-decoration-color:#000;text-transform:none;block-progression:tb;isolation:auto;mix-blend-mode:normal" d="M 2 4 L 2 20 L 4 20 L 4 4 L 2 4 z M 5 4 L 5 20 L 9 20 L 9 4 L 5 4 z M 10 4 L 10 20 L 12 20 L 12 4 L 10 4 z M 13 4 L 13 20 L 16 20 L 16 4 L 13 4 z M 17 4 L 17 20 L 19 20 L 19 4 L 17 4 z M 20 4 L 20 20 L 22 20 L 22 4 L 20 4 z" font-weight="400" font-family="sans-serif" white-space="normal" overflow="visible"/>
</svg>
