<?xml version="1.0"?>
<svg xmlns="http://www.w3.org/2000/svg" viewBox="0 0 24 24">
    <path style="line-height:normal;text-indent:0;text-align:start;text-decoration-line:none;text-decoration-style:solid;text-decoration-color:#000;text-transform:none;block-progression:tb;isolation:auto;mix-blend-mode:normal" d="M 2 4 L 2 10 L 4 10 L 4 4 L 2 4 z M 5 4 L 5 10 L 9 10 L 9 4 L 5 4 z M 10 4 L 10 10 L 12 10 L 12 4 L 10 4 z M 13 4 L 13 10 L 16 10 L 16 4 L 13 4 z M 17 4 L 17 10 L 19 10 L 19 4 L 17 4 z M 20 4 L 20 10 L 22 10 L 22 4 L 20 4 z M 2 12 L 2 21 L 22 21 L 22 12 L 2 12 z M 5 14 L 9 14 L 9 19 L 5 19 L 5 14 z M 10 14 L 12 14 L 12 19 L 10 19 L 10 14 z M 13 14 L 16 14 L 16 19 L 13 19 L 13 14 z M 17 14 L 19 14 L 19 19 L 17 19 L 17 14 z" font-weight="400" font-family="sans-serif" white-space="normal" overflow="visible"/>
</svg>
