<?xml version="1.0"?>
<svg xmlns="http://www.w3.org/2000/svg" viewBox="0 0 24 24">
    <path d="M 7 4 A 3 3 0 0 0 4 7 A 3 3 0 0 0 7 10 A 3 3 0 0 0 10 7 A 3 3 0 0 0 7 4 z M 17 4 A 3 3 0 0 0 14 7 A 3 3 0 0 0 17 10 A 3 3 0 0 0 20 7 A 3 3 0 0 0 17 4 z M 7 12 C 3.47 12 1 13.320703 1 15.220703 L 1 18 L 9 18 L 9 15.220703 C 9 14.140703 9.3798438 13.190391 10.089844 12.400391 C 9.2098438 12.140391 8.16 12 7 12 z M 17 12 C 14.81 12 13.03 12.509609 12 13.349609 C 11.36 13.849609 11 14.500703 11 15.220703 L 11 18 L 14.669922 18 L 20.220703 12.449219 C 19.310703 12.159219 18.22 12 17 12 z M 22.255859 16.330078 L 18.460938 20.546875 L 16.707031 18.792969 L 15.292969 20.207031 L 18.539062 23.453125 L 23.744141 17.669922 L 22.255859 16.330078 z"/>
</svg>
