<?xml version="1.0"?>
<svg xmlns="http://www.w3.org/2000/svg" viewBox="0 0 24 24">
    <path style="line-height:normal;text-indent:0;text-align:start;text-decoration-line:none;text-decoration-style:solid;text-decoration-color:#000;text-transform:none;block-progression:tb;isolation:auto;mix-blend-mode:normal" d="M 11 2 L 11 4 L 9 4 L 9 8 L 5 8 L 5 12 L 2 12 C 2 17.5 8.5 21 8.5 21 L 18 21 C 20 15.5 23 12 23 12 L 22 12 L 19 12 L 19 10.78125 L 22.242188 9.9707031 L 21.757812 8.0292969 L 19 8.71875 L 19 8 L 15 8 L 15 4 L 13 4 L 13 2 L 11 2 z M 11 6 L 13 6 L 13 8 L 12 8 L 11 8 L 11 6 z M 7 10 L 12 10 L 17 10 L 17 12 L 7 12 L 7 10 z" font-weight="400" font-family="sans-serif" white-space="normal" overflow="visible"/>
</svg>
