<?xml version="1.0"?>
<svg xmlns="http://www.w3.org/2000/svg" viewBox="0 0 24 24">
    <path style="line-height:normal;text-indent:0;text-align:start;text-decoration-line:none;text-decoration-style:solid;text-decoration-color:#000;text-transform:none;block-progression:tb;isolation:auto;mix-blend-mode:normal" d="M 15.832031 3.0566406 C 14.946882 3.0698281 14.129006 3.2369126 13.423828 3.4785156 C 12.07085 3.9420632 11.078846 4.6525383 10.617188 5.0214844 C 10.01998 5.0669293 8.7821347 5.2293092 7.4550781 5.8417969 C 5.6174828 6.6899178 3.5669905 8.516025 3.0136719 11.835938 L 4.9863281 12.164062 C 5.4330095 9.483975 6.8825172 8.3100822 8.2949219 7.6582031 C 8.351826 7.6319397 8.4025457 7.6218658 8.4589844 7.5976562 C 7.6907134 9.0050136 7 11.071089 7 14 L 9 14 C 9 11.166667 9.698215 9.3623496 10.357422 8.2636719 C 10.553204 7.9373683 10.731043 7.6966983 10.894531 7.4941406 C 11.217302 7.9801892 11.634284 8.701608 12.082031 9.765625 C 13.027436 12.012263 14 15.62097 14 21 L 16 21 C 16 15.37903 14.976423 11.491597 13.923828 8.9902344 C 13.574678 8.1605221 13.229049 7.526464 12.902344 6.9804688 C 13.14032 7.0091319 13.379952 7.0372006 13.650391 7.0996094 C 15.071024 7.4274478 16.783812 8.2490619 18.142578 10.513672 L 19.857422 9.4863281 C 18.323544 6.9298643 16.23002 5.742163 14.46875 5.2519531 C 15.849003 4.8635002 17.517858 4.8547199 19.404297 6.2539062 L 20.595703 4.6464844 C 19.293929 3.6809483 17.970834 3.2287018 16.738281 3.0976562 C 16.430143 3.064895 16.127081 3.0522448 15.832031 3.0566406 z M 3 19 A 1 1 0 0 0 2 20 A 1 1 0 0 0 3 21 A 1 1 0 0 0 4 20 A 1 1 0 0 0 3 19 z M 6 19 A 1 1 0 0 0 5 20 A 1 1 0 0 0 6 21 A 1 1 0 0 0 7 20 A 1 1 0 0 0 6 19 z M 9 19 A 1 1 0 0 0 8 20 A 1 1 0 0 0 9 21 A 1 1 0 0 0 10 20 A 1 1 0 0 0 9 19 z M 12 19 A 1 1 0 0 0 11 20 A 1 1 0 0 0 12 21 A 1 1 0 0 0 13 20 A 1 1 0 0 0 12 19 z M 18 19 A 1 1 0 0 0 17 20 A 1 1 0 0 0 18 21 A 1 1 0 0 0 19 20 A 1 1 0 0 0 18 19 z M 21 19 A 1 1 0 0 0 20 20 A 1 1 0 0 0 21 21 A 1 1 0 0 0 22 20 A 1 1 0 0 0 21 19 z"/>
</svg>
