<?xml version="1.0"?>
<svg xmlns="http://www.w3.org/2000/svg" viewBox="0 0 24 24">
    <path style="line-height:normal;text-indent:0;text-align:start;text-decoration-line:none;text-decoration-style:solid;text-decoration-color:#000;text-transform:none;block-progression:tb;isolation:auto;mix-blend-mode:normal" d="M 4.40625 1.9921875 L 2.9921875 3.40625 L 8.4003906 8.8144531 L 9.9003906 7.3144531 L 13.578125 10.992188 L 15.177734 9.4921875 L 18.275391 12.589844 L 16.699219 14.199219 L 22 14.900391 L 21.199219 9.5996094 L 19.673828 11.160156 L 15.222656 6.7089844 L 13.623047 8.2089844 L 9.9003906 4.4863281 L 8.4003906 5.9863281 L 4.40625 1.9921875 z M 3 8 L 3 21 L 5 21 L 5 8 L 3 8 z M 7 11 L 7 21 L 9 21 L 9 11 L 7 11 z M 11 13 L 11 21 L 13 21 L 13 13 L 11 13 z M 15 16 L 15 21 L 17 21 L 17 16 L 15 16 z M 19 18 L 19 21 L 21 21 L 21 18 L 19 18 z"/>
</svg>
