<?xml version="1.0"?>
<svg xmlns="http://www.w3.org/2000/svg" viewBox="0 0 24 24">
    <path style="line-height:normal;text-indent:0;text-align:start;text-decoration-line:none;text-decoration-style:solid;text-decoration-color:#000;text-transform:none;block-progression:tb;isolation:auto;mix-blend-mode:normal" d="M 11 2 C 9.8579315 2 8.8159541 2.4844946 8.0878906 3.2578125 C 7.8969134 3.4603175 7.680709 3.4926855 7.3886719 3.3398438 A 1.0001 1.0001 0 0 0 7.3867188 3.3378906 C 6.9731514 3.1228938 6.4976727 3 6 3 C 4.3550302 3 3 4.3550302 3 6 C 3 6.8763861 3.3918381 7.6621623 4 8.2128906 L 4 22 L 18 22 L 18 16 A 1.0001 1.0001 0 0 0 18.357422 15.927734 C 20.258813 15.750549 21.735381 14.27895 21.923828 12.380859 A 1.0001 1.0001 0 0 0 22 12 C 22 9.8701416 20.302343 8.1255567 18.197266 8.0195312 C 18.690224 7.4840424 19 6.7774935 19 6 C 19 4.3550302 17.64497 3 16 3 C 15.502327 3 15.026845 3.122897 14.613281 3.3378906 A 1.0001 1.0001 0 0 0 14.613281 3.3398438 C 14.321068 3.4923255 14.103087 3.4603175 13.912109 3.2578125 C 13.184108 2.4858915 12.142069 2 11 2 z M 11 4 C 11.579931 4 12.091033 4.2408272 12.457031 4.6289062 C 13.260054 5.4804012 14.545322 5.6308026 15.537109 5.1132812 C 15.677545 5.0402749 15.829673 5 16 5 C 16.56503 5 17 5.4349698 17 6 C 17 6.5650302 16.56503 7 16 7 L 13 7 L 13 8 C 13 12.129 14.064094 11.886234 13.996094 13.115234 C 13.955094 13.856234 13.509313 14.558937 12.820312 14.835938 C 11.376312 15.416937 10 14.369 10 13 C 10 11.895 11 12 11 8 L 11 7 L 6 7 C 5.4349698 7 5 6.5650302 5 6 C 5 5.4349698 5.4349698 5 6 5 C 6.1694185 5 6.3230798 5.0410122 6.4628906 5.1132812 C 7.4545419 5.6310175 8.7405609 5.4817022 9.5429688 4.6308594 A 1.0001 1.0001 0 0 0 9.5449219 4.6289062 C 9.9108615 4.2402209 10.420069 4 11 4 z M 18 10 C 19.116666 10 20 10.883334 20 12 C 20 13.190196 19.190196 14 18 14 L 18 10 z" font-weight="400" font-family="sans-serif" white-space="normal" overflow="visible"/>
</svg>
