<?xml version="1.0"?>
<svg xmlns="http://www.w3.org/2000/svg" viewBox="0 0 24 24">
    <path d="M 14.521484 3 C 13.803484 3 12.497 4.465 12 5 L 18.5 5 C 18.775 5 19 5.225 19 5.5 C 19 5.775 18.775 6 18.5 6 L 12 6 C 12.497 6.57 13.805484 8 14.521484 8 L 18.646484 8 C 19.946484 8 21 6.881 21 5.5 C 21.001 4.81 20.7375 4.1834219 20.3125 3.7324219 C 19.8865 3.2794219 19.298437 3 18.648438 3 L 14.521484 3 z M 12 6 L 12 5 L 10.5 5 C 10.225 5 10 5.225 10 5.5 C 10 5.775 10.225 6 10.5 6 L 12 6 z M 2 5 L 2 21 L 4 21 L 4 19 L 20 19 L 20 21 L 22 21 L 22 10 L 10 10 L 10 13 L 7 13 L 4 13 L 4 5 L 2 5 z M 7 13 A 2 2 0 0 0 9 11 A 2 2 0 0 0 7 9 A 2 2 0 0 0 5 11 A 2 2 0 0 0 7 13 z"/>
</svg>
