<?xml version="1.0"?>
<svg xmlns="http://www.w3.org/2000/svg" viewBox="0 0 24 24">
    <path style="line-height:normal;text-indent:0;text-align:start;text-decoration-line:none;text-decoration-style:solid;text-decoration-color:#000;text-transform:none;block-progression:tb;isolation:auto;mix-blend-mode:normal" d="M 15 3 A 1.0001 1.0001 0 0 0 14 4 L 14 4.1855469 A 1.0001 1.0001 0 0 0 14.052734 4.5058594 L 14.978516 7.2382812 L 9.9550781 15 L 9.8925781 15 C 9.5602248 13.416061 8.4541484 12.127761 6.9960938 11.492188 L 8.5527344 9 L 11 9 L 11 7 L 5 7 L 5 9 L 6.1972656 9 L 4.9453125 11.001953 C 2.2249624 11.031998 0 13.273011 0 16 C 0 18.745455 2.2545455 21 5 21 C 7.4035927 21 9.4308229 19.272621 9.8984375 17 L 10.5 17 A 1.0001 1.0001 0 0 0 11.339844 16.542969 L 15.796875 9.65625 L 16.505859 11.75 C 15.020584 12.604743 14 14.17097 14 16 C 14 18.745455 16.254545 21 19 21 C 21.745455 21 24 18.745455 24 16 C 24 13.381005 21.929707 11.266824 19.357422 11.072266 A 1.0001 1.0001 0 0 0 19 11 A 1.0001 1.0001 0 0 0 18.900391 11.005859 A 1.0001 1.0001 0 0 0 18.800781 11.023438 A 1.0001 1.0001 0 0 0 18.640625 11.072266 C 18.558913 11.078477 18.482991 11.103241 18.402344 11.113281 L 16.332031 5 L 21 5 L 21 3 L 15 3 z M 5 13 C 6.3020387 13 7.4022636 13.838627 7.8164062 15 L 5 15 L 5 17 L 7.8164062 17 C 7.4022636 18.161373 6.3020387 19 5 19 C 3.3454545 19 2 17.654545 2 16 C 2 14.345455 3.3454545 13 5 13 z M 19.041016 13.003906 C 20.676234 13.026486 22 14.359504 22 16 C 22 17.654545 20.654545 19 19 19 C 17.345455 19 16 17.654545 16 16 C 16 15.046643 16.45524 14.2061 17.150391 13.65625 L 18.052734 16.320312 L 19.947266 15.679688 L 19.041016 13.003906 z" font-weight="400" font-family="sans-serif" white-space="normal" overflow="visible"/>
</svg>
