<?xml version="1.0"?>
<svg xmlns="http://www.w3.org/2000/svg" viewBox="0 0 24 24">
    <path d="M 5 3 C 5 7.07 7.6196875 9.64 10.429688 12 C 10.739688 11.74 11.049375 11.490469 11.359375 11.230469 C 8.2313916 13.810631 5 16.480575 5 21 L 7 21 C 7 17.422 9.7387187 15.163484 12.636719 12.771484 C 15.765719 10.190484 19 7.521 19 3 L 9 3 C 9 3.726 9.1609375 4.3732344 9.4609375 4.9902344 L 16.6875 5 C 16.4595 5.715 16.115594 6.376 15.683594 7 L 10.910156 7 C 11.500156 7.63 12.230078 8.28 13.080078 9 L 13.935547 9 C 13.334025 9.5771869 12.671835 10.136143 11.998047 10.697266 C 11.318829 10.137857 10.669679 9.5793872 10.070312 9 C 9.4003125 8.37 8.8005469 7.71 8.3105469 7 C 7.8805469 6.38 7.5305469 5.72 7.3105469 5 C 7.1105469 4.38 7 3.72 7 3 L 5 3 z M 15.080078 13.330078 C 14.690078 13.670078 14.300156 13.990547 13.910156 14.310547 C 13.780156 14.420547 13.649297 14.519141 13.529297 14.619141 C 13.669297 14.749141 13.799687 14.87 13.929688 15 L 13.080078 15 C 12.230078 15.72 11.500156 16.37 10.910156 17 L 15.689453 17 C 16.119453 17.63 16.469453 18.289766 16.689453 19.009766 L 9.4492188 19 C 9.1592188 19.617 9 20.264234 9 20.990234 L 19 21 C 19 17.67 17.250078 15.350078 15.080078 13.330078 z"/>
</svg>
