<?xml version="1.0"?>
<svg xmlns="http://www.w3.org/2000/svg" viewBox="0 0 24 24">
    <path d="M 6 0 C 6 0 4 2.895 4 4 C 4 5.105 4.895 6 6 6 C 7.105 6 8 5.105 8 4 C 8 2.895 6 0 6 0 z M 12 0 C 12 0 10 2.895 10 4 C 10 5.105 10.895 6 12 6 C 13.105 6 14 5.105 14 4 C 14 2.895 12 0 12 0 z M 18 0 C 18 0 16 2.895 16 4 C 16 5.105 16.895 6 18 6 C 19.105 6 20 5.105 20 4 C 20 2.895 18 0 18 0 z M 5 7 L 5 9.1835938 C 3.8371625 9.5966843 3 10.695375 3 12 L 3 13.751953 L 3.4941406 14.316406 C 4.2541406 15.183406 5.7458594 15.184406 6.5058594 14.316406 L 8.5019531 12.037109 L 10.496094 14.316406 C 11.256094 15.183406 12.747813 15.184406 13.507812 14.316406 L 15.501953 12.037109 L 17.496094 14.316406 C 18.256094 15.183406 19.747813 15.184406 20.507812 14.316406 L 21 13.751953 L 21 12 C 21 10.695375 20.162838 9.5966843 19 9.1835938 L 19 7 L 17 7 L 17 9 L 13 9 L 13 7 L 11 7 L 11 9 L 7 9 L 7 7 L 5 7 z M 8.5 15.074219 L 8.0097656 15.634766 C 7.2497656 16.502766 6.153 17 5 17 C 4.286 17 3.604 16.7895 3 16.4375 L 3 22 L 21 22 L 21 16.4375 C 20.396 16.7885 19.714 17 19 17 C 17.847 17 16.750234 16.502766 15.990234 15.634766 L 15.5 15.074219 L 15.009766 15.634766 C 13.935766 16.861766 12.188547 17.349328 10.560547 16.736328 C 9.9125469 16.492328 9.3544375 16.05225 8.8984375 15.53125 L 8.5 15.074219 z"/>
</svg>
