<?xml version="1.0"?>
<svg xmlns="http://www.w3.org/2000/svg" viewBox="0 0 24 24">
    <path d="M 2 3 L 2 5 L 5 5 L 5 6 L 2 6 L 2 8 L 5 8 L 5 9 L 2 9 L 2 11 L 5 11 L 5 21 L 19 21 L 19 11 L 22 11 L 22 9 L 19 9 L 19 8 L 22 8 L 22 6 L 19 6 L 19 5 L 22 5 L 22 3 L 2 3 z M 7 5 L 17 5 L 17 6 L 7 6 L 7 5 z M 7 8 L 17 8 L 17 9 L 7 9 L 7 8 z M 11.388672 11 L 12.595703 11 C 12.725703 11 12.83375 11.099516 12.84375 11.228516 L 12.921875 12.162109 C 13.320875 12.293109 13.681281 12.500391 13.988281 12.775391 L 14.832031 12.376953 C 14.866031 12.360953 14.9015 12.353516 14.9375 12.353516 C 15.0245 12.353516 15.108297 12.398516 15.154297 12.478516 L 15.757812 13.523438 C 15.822812 13.635438 15.790594 13.779516 15.683594 13.853516 L 14.925781 14.378906 C 14.967781 14.579906 14.992188 14.787 14.992188 15 C 14.992188 15.213 14.967781 15.419094 14.925781 15.621094 L 15.683594 16.148438 C 15.790594 16.222438 15.822812 16.365516 15.757812 16.478516 L 15.154297 17.523438 C 15.108297 17.603437 15.0245 17.648438 14.9375 17.648438 C 14.9025 17.648438 14.866031 17.639047 14.832031 17.623047 L 13.988281 17.226562 C 13.682281 17.500563 13.322828 17.706891 12.923828 17.837891 L 12.845703 18.771484 C 12.834703 18.900484 12.725703 19 12.595703 19 L 11.388672 19 C 11.258672 19 11.149672 18.899531 11.138672 18.769531 L 11.060547 17.837891 C 10.661547 17.706891 10.301094 17.498609 9.9960938 17.224609 L 9.1523438 17.623047 C 9.1183437 17.639047 9.082875 17.646484 9.046875 17.646484 C 8.959875 17.646484 8.874125 17.601484 8.828125 17.521484 L 8.2265625 16.476562 C 8.1615625 16.364563 8.1937813 16.220484 8.3007812 16.146484 L 9.0585938 15.621094 C 9.0165938 15.420094 8.9921875 15.213 8.9921875 15 C 8.9921875 14.787 9.0165937 14.579906 9.0585938 14.378906 L 8.3007812 13.853516 C 8.1937813 13.779516 8.1615625 13.636437 8.2265625 13.523438 L 8.828125 12.476562 C 8.874125 12.396562 8.959875 12.351562 9.046875 12.351562 C 9.082875 12.351562 9.1173437 12.360953 9.1523438 12.376953 L 9.9960938 12.773438 C 10.302094 12.499438 10.6635 12.293109 11.0625 12.162109 L 11.138672 11.228516 C 11.149672 11.099516 11.258672 11 11.388672 11 z M 21 13 A 1 1 0 0 0 20 14 A 1 1 0 0 0 21 15 A 1 1 0 0 0 22 14 A 1 1 0 0 0 21 13 z M 11.992188 13.5 A 1.5 1.5 0 0 0 10.492188 15 A 1.5 1.5 0 0 0 11.992188 16.5 A 1.5 1.5 0 0 0 13.492188 15 A 1.5 1.5 0 0 0 11.992188 13.5 z M 21 16 A 1 1 0 0 0 20 17 A 1 1 0 0 0 21 18 A 1 1 0 0 0 22 17 A 1 1 0 0 0 21 16 z M 21 19 A 1 1 0 0 0 20 20 A 1 1 0 0 0 21 21 A 1 1 0 0 0 22 20 A 1 1 0 0 0 21 19 z"/>
</svg>
