<?xml version="1.0"?>
<svg xmlns="http://www.w3.org/2000/svg" viewBox="0 0 24 24">
    <path d="M 12 3 C 10.343 3 9 4.343 9 6 L 9 12 C 9 13.657 10.343 15 12 15 C 13.657 15 15 13.657 15 12 L 15 6 C 15 4.343 13.657 3 12 3 z M 5 12 C 5 15.525296 7.6093644 18.433226 11 18.919922 L 11 22 L 13 22 L 13 18.919922 C 13.72415 18.813554 14.415026 18.601548 15.050781 18.292969 L 13.501953 16.744141 C 13.024953 16.895141 12.527 17 12 17 C 9.239 17 7 14.761 7 12 L 5 12 z M 17.414062 15 L 16 16.414062 L 18.121094 18.535156 L 16 20.65625 L 17.414062 22.070312 L 19.535156 19.949219 L 21.65625 22.070312 L 23.070312 20.65625 L 20.949219 18.535156 L 23.070312 16.414062 L 21.65625 15 L 19.535156 17.121094 L 17.414062 15 z"/>
</svg>
