<?xml version="1.0"?>
<svg xmlns="http://www.w3.org/2000/svg" viewBox="0 0 24 24">
    <path style="line-height:normal;text-indent:0;text-align:start;text-decoration-line:none;text-decoration-style:solid;text-decoration-color:#000;text-transform:none;block-progression:tb;isolation:auto;mix-blend-mode:normal" d="M 6 3 L 6 9 L 3 9 L 3 11 L 2 11 L 2 13 L 3 13 L 3 21 L 21 21 L 21 13 L 22 13 L 22 11 L 21 11 L 21 9 L 18 9 L 18 3 L 6 3 z M 8 5 L 16 5 L 16 9 L 14 9 L 14 11 L 16 11 L 16 13 L 8 13 L 8 11 L 10 11 L 10 9 L 8 9 L 8 5 z M 5 16 L 7 16 L 7 18 L 5 18 L 5 16 z M 9 16 L 11 16 L 11 18 L 9 18 L 9 16 z M 13 16 L 15 16 L 15 18 L 13 18 L 13 16 z M 17 16 L 19 16 L 19 18 L 17 18 L 17 16 z" font-weight="400" font-family="sans-serif" white-space="normal" overflow="visible"/>
</svg>
