<?xml version="1.0"?>
<svg xmlns="http://www.w3.org/2000/svg" viewBox="0 0 24 24">
    <path d="M 11.421875 3.0117188 C 11.411875 3.0117188 11.337891 3.0207969 11.337891 3.0917969 C 11.337891 3.1507969 11.376016 3.171875 11.416016 3.171875 C 14.418016 3.171875 19.303531 4.5481563 19.144531 7.5351562 C 19.016531 9.9681562 15.204641 12.816406 6.4316406 12.816406 C 6.3796406 12.816406 6.34375 12.857531 6.34375 12.894531 C 6.34375 12.931531 6.3627813 12.967609 6.4257812 12.974609 C 6.4257812 12.974609 21.670094 13.692203 21.996094 7.5332031 C 22.259094 2.5382031 11.431875 3.0117187 11.421875 3.0117188 z M 4.1054688 3.84375 C 4.0924688 3.84375 4.0822188 3.8512813 4.0742188 3.8632812 C 3.1882188 5.3042812 2.6536094 6.2808437 2.0996094 7.4648438 L 2.0449219 7.5957031 L 2.0292969 7.6367188 C 1.9812969 7.7517188 1.9935469 7.879 2.0605469 8 C 2.3885469 8.592 4.2242187 9.2832031 8.3242188 9.2832031 C 11.382219 9.2832031 14.628906 8.71325 14.628906 7.65625 C 14.628906 6.63525 11.421219 6.0253906 8.3242188 6.0253906 C 7.2952188 6.0253906 6.2764219 6.1911406 5.9824219 6.2441406 C 6.2624219 5.7451406 7.4255 3.9350156 7.4375 3.9160156 C 7.4425 3.9080156 7.4472656 3.8986719 7.4472656 3.8886719 C 7.4472656 3.8816719 7.4444063 3.8741875 7.4414062 3.8671875 C 7.4334063 3.8531875 7.42025 3.84375 7.40625 3.84375 L 4.1054688 3.84375 z M 8.3242188 7.1269531 C 10.197219 7.1269531 11.345703 7.43625 11.345703 7.65625 C 11.345703 7.87625 10.196219 8.1835938 8.3242188 8.1835938 C 6.4502188 8.1845938 5.3007813 7.87725 5.3007812 7.65625 C 5.3007812 7.43625 6.4502187 7.1269531 8.3242188 7.1269531 z M 2 15.001953 L 2 21 L 22 21 L 22 15.001953 L 2 15.001953 z M 5 17 C 5.552 17 6 17.448 6 18 C 6 18.552 5.552 19 5 19 C 4.448 19 4 18.552 4 18 C 4 17.448 4.448 17 5 17 z M 10 17 L 20 17 L 20 19.001953 L 10 19.001953 L 10 17 z"/>
</svg>
