<?xml version="1.0"?>
<svg xmlns="http://www.w3.org/2000/svg" viewBox="0 0 24 24">
    <path d="M 12.001953 2 C 9.7389531 2 7.6590781 2.5290937 6.2050781 4.1210938 C 4.7520781 5.7120937 4.0019531 8.226 4.0019531 12 C 4.0019531 15.774 4.7510781 18.287906 6.2050781 19.878906 C 7.6590781 21.469906 9.7389531 22 12.001953 22 C 14.264953 22 16.343875 21.470906 17.796875 19.878906 C 19.249875 18.287906 20.001953 15.773 20.001953 12 C 20.001953 8.226 19.249875 5.7120938 17.796875 4.1210938 C 16.343875 2.5290937 14.264953 2 12.001953 2 z M 11 3.9121094 L 17.353516 8.9960938 L 13.599609 12 L 17.353516 15.003906 L 11 20.087891 L 11 14.080078 L 11 13.925781 L 8.0234375 16.222656 L 6.8007812 14.640625 L 10.230469 11.992188 L 6.7988281 9.3222656 L 8.0273438 7.7441406 L 11 10.058594 L 11 9.9179688 L 11 3.9121094 z M 13 8.0742188 L 13 9.9179688 L 14.150391 8.9960938 L 13 8.0742188 z M 13 14.082031 L 13 15.925781 L 14.150391 15.003906 L 13 14.082031 z"/>
</svg>
