<?xml version="1.0"?>
<svg xmlns="http://www.w3.org/2000/svg" viewBox="0 0 24 24">
    <path style="line-height:normal;text-indent:0;text-align:start;text-decoration-line:none;text-decoration-style:solid;text-decoration-color:#000;text-transform:none;block-progression:tb;isolation:auto;mix-blend-mode:normal" d="M 11 3 L 11 5 L 7 5 L 7 10 L 4 10 L 4 11 C 4 14.577 6.4477344 15.841531 6.5527344 15.894531 L 6.6542969 15.945312 C 6.4194685 16.364985 6.0828241 16.863994 5.6777344 17.451172 C 4.9015888 18.576195 4 20.049418 4 22 L 6 22 C 6 20.656582 6.5984112 19.635165 7.3222656 18.585938 C 7.8736058 17.786769 8.556471 16.995268 8.8515625 16 L 12 16 L 15.148438 16 C 15.443529 16.995268 16.126395 17.786769 16.677734 18.585938 C 17.401589 19.635165 18 20.656582 18 22 L 20 22 C 20 20.049418 19.098411 18.576195 18.322266 17.451172 C 17.917176 16.863994 17.580532 16.364985 17.345703 15.945312 L 17.447266 15.894531 C 17.551266 15.841531 20 14.577 20 11 L 20 10 L 17 10 L 17 5 L 13 5 L 13 3 L 11 3 z M 12 16 L 9 19 L 11 19 L 11 22 L 13 22 L 13 19 L 15 19 L 12 16 z M 9 7 L 15 7 L 15 10 L 9 10 L 9 7 z" font-weight="400" font-family="sans-serif" white-space="normal" overflow="visible"/>
</svg>
