<?xml version="1.0"?>
<svg xmlns="http://www.w3.org/2000/svg" viewBox="0 0 24 24">
    <path style="line-height:normal;text-indent:0;text-align:start;text-decoration-line:none;text-decoration-style:solid;text-decoration-color:#000;text-transform:none;block-progression:tb;isolation:auto;mix-blend-mode:normal" d="M 11 2 L 11 5 L 9 5 L 12 8 L 15 5 L 13 5 L 13 2 L 11 2 z M 12 8 L 8 8 A 1.0001 1.0001 0 0 0 7 9 L 7 12.703125 L 4 13.130859 L 4 15 C 4 16.029899 4.5259439 17.096172 5.3105469 18.029297 C 2.6707524 18.169876 0.59570312 19.085938 0.59570312 19.085938 L 1.4042969 20.914062 C 1.4042969 20.914062 3.5098042 20 5.9628906 20 C 8.9383601 20 11.289062 21.789063 11.289062 21.789062 L 11.560547 22 L 12.439453 22 L 12.710938 21.789062 C 12.710938 21.789062 15.06164 20 18.037109 20 C 20.490196 20 22.595703 20.914062 22.595703 20.914062 L 23.404297 19.085938 C 23.404297 19.085937 21.329248 18.169876 18.689453 18.029297 C 19.474056 17.096172 20 16.029899 20 15 L 20 13.130859 L 17 12.703125 L 17 9 A 1.0001 1.0001 0 0 0 16 8 L 12 8 z M 9 10 L 15 10 L 15 12.417969 L 12 11.990234 L 9 12.417969 L 9 10 z" font-weight="400" font-family="sans-serif" white-space="normal" overflow="visible"/>
</svg>
