<?xml version="1.0"?>
<svg xmlns="http://www.w3.org/2000/svg" viewBox="0 0 24 24">
    <path d="M22,3H2v18h20V3z M4,5h2c0,1.105-0.895,2-2,2V5z M4,19v-2c1.105,0,2,0.895,2,2H4z M8,13H6v-2h2V13z M12.574,16.971V18 h-1.002v-1.029C11.268,16.929,9.266,16.702,9.171,14h1.894c0.07,1.49,0.874,1.443,1.002,1.443c0.147,0,0.868-0.027,0.868-1.143 c0-2.229-3.459-1.24-3.459-4.581c0-2.29,1.898-2.647,2.237-2.69V6h1.008v1.056c0.314,0.06,2.028,0.467,2.103,2.944H12.94 c-0.045-1.225-0.585-1.435-0.819-1.435c-0.134,0-0.755,0.035-0.755,1.162c0,1.967,3.459,1.354,3.459,4.559 C14.825,16.614,12.913,16.928,12.574,16.971z M16,11h2v2h-2V11z M20,19h-2c0-1.105,0.895-2,2-2V19z M20,7c-1.105,0-2-0.895-2-2h2V7z"/>
</svg>
