<?xml version="1.0"?>
<svg xmlns="http://www.w3.org/2000/svg" viewBox="0 0 24 24">
    <path style="line-height:normal;text-indent:0;text-align:start;text-decoration-line:none;text-decoration-style:solid;text-decoration-color:#000;text-transform:none;block-progression:tb;isolation:auto;mix-blend-mode:normal" d="M 4 3 L 4 17 L 2 17 L 2 19 L 4 19 L 4 21 L 6 21 L 6 19 L 9 19 L 14 19 L 18 19 L 18 21 L 20 21 L 20 19 L 22 19 L 22 17 L 20.103516 17 L 17.5625 5.9414062 L 14 6.8085938 L 14 3 L 9 3 L 4 3 z M 9 5 L 12 5 L 12 17 L 9 17 L 9 5 z M 14 10.197266 L 15.591797 17 L 14 17 L 14 10.197266 z" font-weight="400" font-family="sans-serif" white-space="normal" overflow="visible"/>
</svg>
