<?xml version="1.0"?>
<svg xmlns="http://www.w3.org/2000/svg" viewBox="0 0 24 24">
    <path d="M12,2C6.486,2,2,6.486,2,12s4.486,10,10,10s10-4.486,10-10S17.514,2,12,2z M6.105,11.553C7.382,9,9.917,9,11,9v2 c-0.34,0-0.68,0.013-1.011,0.056C9.958,11.58,9.533,12,9,12c-0.235,0-0.443-0.094-0.613-0.23c-0.184,0.182-0.352,0.398-0.492,0.677 L6.105,11.553z M12.005,17.004C10.282,17.005,9,16.541,9,16.541S9.418,14.007,11.992,14s3.015,2.525,3.015,2.525 S13.715,17.003,12.005,17.004z M16.105,12.447c-0.151-0.301-0.29-0.528-0.434-0.716C15.494,11.894,15.261,12,15,12 c-0.547,0-0.988-0.44-0.997-0.984C13.717,11.003,13.395,11,13,11V9c2.021,0,3.618,0,4.895,2.553L16.105,12.447z"/>
</svg>
