<?xml version="1.0"?>
<svg xmlns="http://www.w3.org/2000/svg" viewBox="0 0 24 24">
    <path d="M2,12c0,5.514,4.486,10,10,10s10-4.486,10-10S17.514,2,12,2S2,6.486,2,12z M15.5,12c-0.828,0-1.5-0.672-1.5-1.5 S14.672,9,15.5,9S17,9.672,17,10.5S16.328,12,15.5,12z M8,15c1.6,0.625,2.94-0.088,3.575-0.406c0.625-0.288,1.678-0.71,2.679-0.568 C14.49,14.078,15.7,14.344,16,16c-0.711-0.478-1.331-0.574-1.789-0.39c-0.47,0.135-1.441,0.56-2.157,0.925 c-0.703,0.366-1.33,0.607-2.179,0.373C9.028,16.671,8.462,15.803,8,15z M7,10.5C7,9.672,7.672,9,8.5,9S10,9.672,10,10.5 S9.328,12,8.5,12S7,11.328,7,10.5z"/>
</svg>
