<?xml version="1.0"?>
<svg xmlns="http://www.w3.org/2000/svg" viewBox="0 0 24 24">
    <path d="M16.556,19c-1.71,0-3.331-0.646-4.535-1.769C10.863,18.331,9.183,19,7.444,19C3.891,19,1,16.354,1,13.1 c0-4.465,3.034-7.454,4.176-8.579l0.219-0.218l1.434,1.395L6.58,5.945C5.601,6.909,3,9.472,3,13.1C3,15.25,4.994,17,7.444,17 c1.546,0,3.003-0.721,3.711-1.836l0.795-1.252l0.862,1.207C13.655,16.297,15.055,17,16.556,17C19.006,17,21,15.25,21,13.1 c0-3.676-2.483-6.09-3.543-7.121c-0.114-0.11-0.211-0.204-0.285-0.281l1.434-1.395l0.245,0.241C19.985,5.647,23,8.578,23,13.1 C23,16.354,20.109,19,16.556,19z"/>
</svg>
