<?xml version="1.0"?>
<svg xmlns="http://www.w3.org/2000/svg" viewBox="0 0 24 24">
    <path style="line-height:normal;text-indent:0;text-align:start;text-decoration-line:none;text-decoration-style:solid;text-decoration-color:#000;text-transform:none;block-progression:tb;isolation:auto;mix-blend-mode:normal" d="M 3 3 L 3 21 L 21 21 L 21 3 L 20 3 L 3 3 z M 5 5 L 19 5 L 19 15 L 5 15 L 5 5 z M 6 17 C 6.552 17 7 17.448 7 18 C 7 18.552 6.552 19 6 19 C 5.448 19 5 18.552 5 18 C 5 17.448 5.448 17 6 17 z M 9 17 C 9.552 17 10 17.448 10 18 C 10 18.552 9.552 19 9 19 C 8.448 19 8 18.552 8 18 C 8 17.448 8.448 17 9 17 z M 12 17 L 19 17 L 19 19 L 12 19 L 12 17 z" font-weight="400" font-family="sans-serif" white-space="normal" overflow="visible"/>
</svg>
