<?xml version="1.0"?>
<svg xmlns="http://www.w3.org/2000/svg" viewBox="0 0 24 24">
    <path d="M 6 2.7988281 L 2 5.4648438 L 2 21 L 22 21 L 22 5.4648438 L 18 2.7988281 L 15 4.7988281 L 12 2.7988281 L 9 4.7988281 L 6 2.7988281 z M 16 8 L 17 8 L 17 9.0195312 L 17.134766 9.0214844 C 17.417766 9.0714844 19 9.401625 19 11.515625 L 17.335938 11.515625 C 17.335938 10.410625 16.820469 10.236328 16.605469 10.236328 C 16.487469 10.236328 15.941406 10.264875 15.941406 11.171875 C 15.942406 12.755875 18.988281 12.260844 18.988281 14.839844 C 18.988281 16.712844 17.305813 16.966 17.007812 17 L 17 17 L 17 18 L 16 18 L 16 17 L 16.123047 17 C 15.848047 16.965 14 16.780125 14 14.453125 L 15.664062 14.453125 C 15.664062 15.827125 16.440594 15.769531 16.558594 15.769531 C 16.688594 15.769531 17.324219 15.747609 17.324219 14.849609 C 17.324219 13.055609 14.277344 13.852063 14.277344 11.164062 C 14.277344 9.6190625 15.445 9.172875 16 9.046875 L 16 8 z M 7.5 9 C 8.878 9 10 10.121 10 11.5 L 10 14.5 C 10 15.879 8.878 17 7.5 17 C 6.122 17 5 15.879 5 14.5 L 5 11.5 C 5 10.121 6.122 9 7.5 9 z M 7.5 11 C 7.224 11 7 11.225 7 11.5 L 7 14.5 C 7 14.775 7.224 15 7.5 15 C 7.776 15 8 14.775 8 14.5 L 8 11.5 C 8 11.225 7.776 11 7.5 11 z"/>
</svg>
