<?xml version="1.0"?>
<svg xmlns="http://www.w3.org/2000/svg" viewBox="0 0 24 24">
    <path d="M 13.701172 2.0097656 C 13.464688 2.0249062 13.231 2.0584219 13 2.1074219 L 13 15 C 12.999 16.101 13.892187 16.997047 14.992188 16.998047 L 14.988281 18.998047 C 14.260281 18.997047 13.588 18.786359 13 18.443359 L 13 21.783203 C 13.485 21.920203 13.987 22 14.5 22 C 17.134 22 19.372047 20.1205 19.873047 17.5625 C 21.229047 16.4175 22 14.778 22 13 C 22 11.595 21.490906 10.266797 20.628906 9.2167969 C 20.141906 10.674797 19.191094 11.955031 17.871094 12.832031 L 16.763672 11.167969 C 17.946672 10.381969 18.719594 9.1464844 18.933594 7.7714844 C 19.028594 7.2114844 19.022156 6.6577969 18.910156 6.0917969 C 18.588156 4.4547969 17.429578 3.0464844 15.892578 2.3964844 C 15.143328 2.0792344 14.410625 1.9643437 13.701172 2.0097656 z M 9.7792969 2.0253906 C 8.5596094 2.0714219 7.3700938 2.5595937 6.4648438 3.4648438 C 5.4628438 4.4668437 4.9557656 5.8049219 5.0097656 7.1699219 C 5.0107656 7.1909219 5.0126719 7.2094688 5.0136719 7.2304688 C 5.0236719 7.4134687 5.0403125 7.59825 5.0703125 7.78125 C 5.0703125 7.78125 5.0683594 7.78125 5.0683594 7.78125 C 5.2853594 9.15225 6.0563281 10.383969 7.2363281 11.167969 L 6.1308594 12.832031 C 4.8108594 11.955031 3.8600469 10.674797 3.3730469 9.2167969 C 2.5100469 10.267797 2 11.596 2 13 C 2 14.778 2.7709531 16.4175 4.1269531 17.5625 C 4.6279531 20.1205 6.866 22 9.5 22 C 10.013 22 10.515 21.920203 11 21.783203 L 11 15.441406 C 10.411 15.786406 9.7358594 15.997047 9.0058594 15.998047 L 9.0019531 13.998047 C 10.100953 13.998047 10.998094 13.099 10.996094 12 L 11 12 L 11 2.1269531 C 10.59625 2.0432031 10.185859 2.0100469 9.7792969 2.0253906 z"/>
</svg>
