<?xml version="1.0"?>
<svg xmlns="http://www.w3.org/2000/svg" viewBox="0 0 24 24">
    <path style="line-height:normal;text-indent:0;text-align:start;text-decoration-line:none;text-decoration-style:solid;text-decoration-color:#000;text-transform:none;block-progression:tb;isolation:auto;mix-blend-mode:normal" d="M 17 2 C 14.80388 2 13 3.8028046 13 6 C 13 7.4663468 13.812749 8.743052 15 9.4394531 L 15 13 L 19 13 L 19 9.4394531 C 20.187251 8.743052 21 7.4663468 21 6 C 21 3.8028046 19.19612 2 17 2 z M 10.894531 2.0820312 C 10.058531 2.1980313 9.2691094 2.4545937 8.5371094 2.8085938 C 8.5351094 2.8065938 8.5332031 2.8047344 8.5332031 2.8027344 C 8.5152031 2.8117344 8.5004219 2.8230313 8.4824219 2.8320312 C 8.2324219 2.9550313 7.9918125 3.0902812 7.7578125 3.2382812 C 7.7158125 3.2652813 7.6709063 3.2894062 7.6289062 3.3164062 C 7.3779062 3.4814063 7.1342969 3.6605625 6.9042969 3.8515625 C 6.8852969 3.8675625 6.8647031 3.8804844 6.8457031 3.8964844 C 6.6007031 4.1044844 6.3683906 4.3235938 6.1503906 4.5585938 C 6.0703906 4.6435937 6.0017813 4.739125 5.9257812 4.828125 C 5.8017813 4.974125 5.6745469 5.1184375 5.5605469 5.2734375 C 5.4535469 5.4184375 5.3606719 5.5706562 5.2636719 5.7226562 C 5.2096719 5.8086562 5.1477031 5.8905156 5.0957031 5.9785156 C 5.0977031 5.9795156 5.0995625 5.9814219 5.1015625 5.9824219 C 4.5505625 6.9234219 4.1777344 7.9791875 4.0527344 9.1171875 L 1.5761719 13 L 4 14.021484 L 4 19 L 8 19 L 8 22 L 17 22 L 17 19.240234 C 17 17.066234 17.61125 15.99 18.28125 15 L 13 15 L 13 11 L 12 10 L 11.59375 10.001953 C 10.72175 9.9679531 9.8690625 9.6062812 9.4140625 8.8632812 C 8.8890625 8.0032812 8.9214531 7.2301719 9.1894531 6.5761719 C 9.2744531 6.3701719 9.3797187 6.175 9.5117188 6 C 9.1957188 5.581 9 5.065 9 4.5 C 9 4.378 9.01425 4.2595781 9.03125 4.1425781 C 9.04825 4.0355781 9.0725625 3.931125 9.1015625 3.828125 C 9.3425625 2.971125 10.025531 2.3000312 10.894531 2.0820312 z M 11.5 4 A 0.5 0.5 0 0 0 11 4.5 A 0.5 0.5 0 0 0 11.5 5 A 0.5 0.5 0 0 0 12 4.5 A 0.5 0.5 0 0 0 11.5 4 z M 17 4 C 18.11188 4 19 4.8871954 19 6 C 19 7.1128046 18.11188 8 17 8 C 15.88812 8 15 7.1128046 15 6 C 15 4.8871954 15.88812 4 17 4 z M 22.5 4 A 0.5 0.5 0 0 0 22 4.5 A 0.5 0.5 0 0 0 22.5 5 A 0.5 0.5 0 0 0 23 4.5 A 0.5 0.5 0 0 0 22.5 4 z M 11.5 7 A 0.5 0.5 0 0 0 11 7.5 A 0.5 0.5 0 0 0 11.5 8 A 0.5 0.5 0 0 0 12 7.5 A 0.5 0.5 0 0 0 11.5 7 z M 22.5 7 A 0.5 0.5 0 0 0 22 7.5 A 0.5 0.5 0 0 0 22.5 8 A 0.5 0.5 0 0 0 23 7.5 A 0.5 0.5 0 0 0 22.5 7 z" font-weight="400" font-family="sans-serif" white-space="normal" overflow="visible"/>
</svg>
