<?xml version="1.0"?>
<svg xmlns="http://www.w3.org/2000/svg" viewBox="0 0 24 24">
    <path d="M 5.5 3 A 0.5 0.5 0 0 0 5 3.5 A 0.5 0.5 0 0 0 5.5 4 A 0.5 0.5 0 0 0 6 3.5 A 0.5 0.5 0 0 0 5.5 3 z M 10.5 3 A 0.5 0.5 0 0 0 10 3.5 A 0.5 0.5 0 0 0 10.5 4 A 0.5 0.5 0 0 0 11 3.5 A 0.5 0.5 0 0 0 10.5 3 z M 3.5 4 A 0.5 0.5 0 0 0 3 4.5 A 0.5 0.5 0 0 0 3.5 5 A 0.5 0.5 0 0 0 4 4.5 A 0.5 0.5 0 0 0 3.5 4 z M 12.5 4 A 0.5 0.5 0 0 0 12 4.5 A 0.5 0.5 0 0 0 12.5 5 A 0.5 0.5 0 0 0 13 4.5 A 0.5 0.5 0 0 0 12.5 4 z M 8 5 A 4 4 0 0 0 4 9 A 4 4 0 0 0 7 12.869141 L 7 15 L 9 15 L 9 12.867188 A 4 4 0 0 0 12 9 A 4 4 0 0 0 8 5 z M 15.5 5 A 0.5 0.5 0 0 0 15 5.5 A 0.5 0.5 0 0 0 15.5 6 A 0.5 0.5 0 0 0 16 5.5 A 0.5 0.5 0 0 0 15.5 5 z M 18.5 5 A 0.5 0.5 0 0 0 18 5.5 A 0.5 0.5 0 0 0 18.5 6 A 0.5 0.5 0 0 0 19 5.5 A 0.5 0.5 0 0 0 18.5 5 z M 2.5 6 A 0.5 0.5 0 0 0 2 6.5 A 0.5 0.5 0 0 0 2.5 7 A 0.5 0.5 0 0 0 3 6.5 A 0.5 0.5 0 0 0 2.5 6 z M 13.5 6 A 0.5 0.5 0 0 0 13 6.5 A 0.5 0.5 0 0 0 13.5 7 A 0.5 0.5 0 0 0 14 6.5 A 0.5 0.5 0 0 0 13.5 6 z M 20.5 6 A 0.5 0.5 0 0 0 20 6.5 A 0.5 0.5 0 0 0 20.5 7 A 0.5 0.5 0 0 0 21 6.5 A 0.5 0.5 0 0 0 20.5 6 z M 17 7 A 3 3 0 0 0 14 10 A 3 3 0 0 0 16 12.826172 L 16 15 L 18 15 L 18 12.824219 A 3 3 0 0 0 20 10 A 3 3 0 0 0 17 7 z M 21.5 8 A 0.5 0.5 0 0 0 21 8.5 A 0.5 0.5 0 0 0 21.5 9 A 0.5 0.5 0 0 0 22 8.5 A 0.5 0.5 0 0 0 21.5 8 z M 8 16 C 3.879 16 1 17.550484 1 19.771484 L 1 22 L 15 22 L 15 19.771484 C 15 17.550484 12.121 16 8 16 z M 17 16 C 16.383 16 15.792422 16.046953 15.232422 16.126953 C 16.361422 17.087953 17 18.328484 17 19.771484 L 17 22 L 23 22 L 23 19.216797 C 23 17.322797 20.532 16 17 16 z"/>
</svg>
