<?xml version="1.0"?>
<svg xmlns="http://www.w3.org/2000/svg" viewBox="0 0 24 24">
    <path d="M 12 4 C 7.59 4 4 7.59 4 12 C 4 16.41 7.59 20 12 20 C 16.41 20 20 16.41 20 12 C 20 7.59 16.41 4 12 4 z M 2.7441406 4.3613281 C 1.030981 6.4354399 2.9605947e-16 9.1043195 0 12 C 0 14.894519 1.0292634 17.559801 2.7402344 19.632812 L 4.2832031 18.361328 C 2.8561741 16.63234 2 14.421481 2 12 C 2 9.5776805 2.8563159 7.3666069 4.2851562 5.6367188 L 2.7441406 4.3613281 z M 21.259766 4.3671875 L 19.716797 5.6386719 C 21.143826 7.3676599 22 9.5785187 22 12 C 22 14.423409 21.143794 16.63326 19.714844 18.363281 L 21.255859 19.638672 C 22.968909 17.564693 24 14.896591 24 12 C 24 9.1054813 22.970737 6.4401994 21.259766 4.3671875 z M 11 7 L 13 7 L 13 12 L 11 12 L 11 7 z M 11 14 L 13 14 L 13 16 L 11 16 L 11 14 z"/>
</svg>
