<?xml version="1.0"?>
<svg xmlns="http://www.w3.org/2000/svg" viewBox="0 0 24 24">
    <path style="line-height:normal;text-indent:0;text-align:start;text-decoration-line:none;text-decoration-style:solid;text-decoration-color:#000;text-transform:none;block-progression:tb;isolation:auto;mix-blend-mode:normal" d="M 3 3 L 3 21 L 19 21 L 19 14.722656 C 20.905003 13.482153 22.241268 11.845255 22.863281 9.875 C 23.466297 7.965701 21.971065 6 19.986328 6 L 19 6 L 19 3 L 3 3 z M 14.916016 5 C 15.535766 4.9995 16 5.0683594 16 5.0683594 C 16 5.0683594 15.353516 7.086625 14.103516 7.640625 C 12.853516 8.194625 11 7.9882812 11 7.9882812 C 11 7.9882812 11.646484 5.9016562 12.896484 5.3476562 C 13.521484 5.0706562 14.296266 5.0005 14.916016 5 z M 11 8 C 11.969 8 13 8.797 13 10.375 C 13 11.804 15 12.286688 15 14.429688 C 15 16.401688 13.209 18 11 18 C 8.791 18 7 16.401688 7 14.429688 C 7 12.286688 9 11.804 9 10.375 C 9 8.797 10.031 8 11 8 z M 19 8 L 19.986328 8 C 20.677592 8 21.158063 8.6307365 20.955078 9.2734375 C 20.599185 10.400747 19.962901 11.373658 19 12.226562 L 19 8 z" font-weight="400" font-family="sans-serif" white-space="normal" overflow="visible"/>
</svg>
