<?xml version="1.0"?>
<svg xmlns="http://www.w3.org/2000/svg" viewBox="0 0 24 24">
    <path d="M 21.550781 5.3398438 L 20.048828 6.6601562 C 20.068828 6.6821562 22 8.919 22 12.5 C 22 15.821 19.576 17 17.5 17 C 14.43 17 13 14.395766 13 12.634766 C 13 11.634766 13.22275 10.311125 13.59375 9.828125 L 12.007812 8.609375 C 12.004812 8.613375 12.003 8.6180938 12 8.6210938 C 11.997 8.6180937 11.995188 8.612375 11.992188 8.609375 L 10.40625 9.828125 C 10.77725 10.311125 11 11.634766 11 12.634766 C 11 14.395766 9.57 17 6.5 17 C 4.424 17 2 15.821 2 12.5 C 2 9.037 3.9458437 6.6675312 3.9648438 6.6445312 L 3.1992188 6 L 2.4375 5.3535156 C 2.3375 5.4705156 5.9211895e-16 8.279 0 12.5 C 0 16.966 3.37 19 6.5 19 C 9.008 19 10.919 17.710094 12 15.996094 C 13.081 17.710094 14.992 19 17.5 19 C 20.63 19 24 16.966 24 12.5 C 24 8.173 21.650781 5.4538438 21.550781 5.3398438 z M 6.5 12 A 1.5 1.5 0 0 0 5 13.5 A 1.5 1.5 0 0 0 6.5 15 A 1.5 1.5 0 0 0 8 13.5 A 1.5 1.5 0 0 0 6.5 12 z M 17.5 12 A 1.5 1.5 0 0 0 16 13.5 A 1.5 1.5 0 0 0 17.5 15 A 1.5 1.5 0 0 0 19 13.5 A 1.5 1.5 0 0 0 17.5 12 z"/>
</svg>
