<?xml version="1.0"?>
<svg xmlns="http://www.w3.org/2000/svg" viewBox="0 0 24 24">
    <path d="M21,5.13c0,2.45-2.61,5.24-6.58,9.23c-3.7,3.63-7.01,6.66-9.36,6.66c-0.61,0-1.15-0.21-1.62-0.66 C2.48,19.57,2,18.4,2,16.89c0-1.28,0.33-2.2,0.77-2.85c2.53,0.24,3.97,1.61,4.02,1.67l1.42-1.42c-0.08-0.07-1.53-1.5-4.09-2.06 c0.29-1.72,1.21-3.02,2.56-3.69c2.63,0.29,4.6,2.16,4.62,2.18l1.4-1.44c-0.09-0.09-1.81-1.73-4.37-2.44 c0.5-1.41,1.56-2.33,3.11-2.68c2.43,0.53,3.67,2.31,3.73,2.39l1.66-1.1c-0.06-0.1-1.06-1.56-3.02-2.55C14.54,2.38,15.48,2,16.94,2 C18.89,2,21,3.2,21,5.13z"/>
</svg>
