<?xml version="1.0"?>
<svg xmlns="http://www.w3.org/2000/svg" viewBox="0 0 24 24">
    <path d="M 12 1.9003906 L 2 6.3535156 L 2 17 L 2 17.664062 L 12 22.09375 L 22 17.667969 L 22 16.998047 L 22 6.3496094 L 12 1.9003906 z M 12 4.09375 L 18.537109 7 L 12 9.90625 L 5.4628906 7 L 12 4.09375 z M 4 8.5390625 L 11 11.650391 L 11 19.462891 L 4 16.349609 L 4 8.5390625 z M 6.8984375 11 L 4.8476562 15.572266 L 6.0546875 16.111328 L 6.4335938 15.148438 L 8.4199219 16.033203 L 8.8007812 17.332031 L 10 17.867188 L 7.9472656 11.472656 L 6.8984375 11 z M 7.4238281 12.621094 L 8.1132812 14.982422 L 6.7402344 14.369141 L 7.4238281 12.621094 z"/>
</svg>
