<?xml version="1.0"?>
<svg xmlns="http://www.w3.org/2000/svg" viewBox="0 0 24 24">
    <path d="M 12.330078 2.0058594 C 12.04573 1.9942529 11.758047 1.9987656 11.466797 2.0175781 C 7.2147969 2.2935781 4 6.0124375 4 10.273438 L 4 11 L 4 11.767578 C 3.372 12.328578 3 13.14 3 14 C 3 15.276 3.8212344 16.397406 4.9902344 16.816406 C 5.8942344 18.882406 7.316 20.424531 9 21.269531 L 9 18.910156 C 8.022 18.150156 7.2012031 17.026281 6.6582031 15.613281 L 6.4472656 15.0625 L 5.8613281 14.980469 C 5.3703281 14.913469 5 14.492 5 14 C 5 13.64 5.1870469 13.317672 5.4980469 13.138672 L 6 12.851562 L 6 12 L 6 11 L 6 10 L 18 10 L 18 12 L 18 12.851562 L 18.259766 13 L 20.810547 13 C 20.642547 12.53 20.374 12.101578 20 11.767578 L 20 11 L 20 10 C 20 5.6921875 16.5953 2.1799561 12.330078 2.0058594 z M 11 15 L 11 24 L 24 24 L 24 23 L 24 15 L 11 15 z M 13 17 L 22 17 L 22 22 L 13 22 L 13 17 z M 17.5 18 A 1.5 1.5 0 0 0 16 19.5 A 1.5 1.5 0 0 0 17.5 21 A 1.5 1.5 0 0 0 19 19.5 A 1.5 1.5 0 0 0 17.5 18 z M 14.5 19 C 14.224 19 14 19.223 14 19.5 C 14 19.776 14.224 20 14.5 20 C 14.776 20 15 19.776 15 19.5 C 15 19.223 14.776 19 14.5 19 z M 20.5 19 C 20.224 19 20 19.223 20 19.5 C 20 19.776 20.224 20 20.5 20 C 20.776 20 21 19.776 21 19.5 C 21 19.223 20.776 19 20.5 19 z"/>
</svg>
