<?xml version="1.0"?>
<svg xmlns="http://www.w3.org/2000/svg" viewBox="0 0 24 24">
    <path d="M 8 2 L 8 3 L 4 3 L 4 5 L 5 5 L 5 21 L 19 21 L 19 5 L 20 5 L 20 3 L 16 3 L 16 2 L 8 2 z M 7 5 L 9 5 L 9 7 L 7 7 L 7 5 z M 11 5 L 13 5 L 13 7 L 11 7 L 11 5 z M 15 5 L 17 5 L 17 7 L 15 7 L 15 5 z M 7 9 L 9 9 L 9 11 L 7 11 L 7 9 z M 11 9 L 13 9 L 13 11 L 11 11 L 11 9 z M 15 9 L 17 9 L 17 11 L 15 11 L 15 9 z M 7 13 L 9 13 L 9 15 L 7 15 L 7 13 z M 11 13 L 13 13 L 13 15 L 11 15 L 11 13 z M 15 13 L 17 13 L 17 15 L 15 15 L 15 13 z M 7 17 L 9 17 L 9 19 L 7 19 L 7 17 z M 11 17 L 13 17 L 13 19 L 11 19 L 11 17 z M 15 17 L 17 17 L 17 19 L 15 19 L 15 17 z"/>
</svg>
