<?xml version="1.0"?>
<svg xmlns="http://www.w3.org/2000/svg" viewBox="0 0 24 24">
    <path d="M 3 3 L 3 8 L 1 8 L 1 13.380859 C 0.38496051 14.084418 0 14.99406 0 16 C 0 18.206 1.794 20 4 20 L 12 20 C 13.868423 20 15.427605 18.70687 15.865234 16.972656 C 15.911151 16.979044 15.952553 17 16 17 L 19 17 L 19 20 L 24 20 L 24 18 C 22.34 18 21 17 21 12 L 21 11 L 19 11 L 19 15 L 17 15 L 17 8 L 15 8 L 15 6 L 13 6 L 13 8 L 11 8 L 11 3 L 3 3 z M 5 5 L 9 5 L 9 8 L 5 8 L 5 5 z M 4 14 L 12 14 C 13.103 14 14 14.897 14 16 C 14 17.103 13.103 18 12 18 L 4 18 C 2.897 18 2 17.103 2 16 C 2 14.897 2.897 14 4 14 z M 4 15 A 1 1 0 0 0 3 16 A 1 1 0 0 0 4 17 A 1 1 0 0 0 5 16 A 1 1 0 0 0 4 15 z M 8 15 A 1 1 0 0 0 7 16 A 1 1 0 0 0 8 17 A 1 1 0 0 0 9 16 A 1 1 0 0 0 8 15 z M 12 15 A 1 1 0 0 0 11 16 A 1 1 0 0 0 12 17 A 1 1 0 0 0 13 16 A 1 1 0 0 0 12 15 z"/>
</svg>
