<?xml version="1.0"?>
<svg xmlns="http://www.w3.org/2000/svg" viewBox="0 0 24 24">
    <path d="M 17.152344 3.0058594 C 16.433096 3.0366113 15.7275 3.315 15.140625 3.828125 C 13.964625 3.555125 12.762563 3.9491875 11.976562 4.8671875 C 11.197563 5.7781875 11.000078 7.0144687 11.455078 8.1054688 C 10.853078 9.1024687 10.849172 10.328078 11.451172 11.330078 C 12.076172 12.372078 13.207031 12.965531 14.457031 12.894531 C 15.084031 13.607531 15.976297 14 16.904297 14 C 17.167297 14 17.433266 13.969297 17.697266 13.904297 C 18.885266 13.612297 19.803031 12.698594 20.082031 11.558594 L 20.105469 11.478516 C 21.211469 10.968516 21.931141 9.9169375 21.994141 8.7109375 C 22.057141 7.5189375 21.444844 6.4140937 20.464844 5.8710938 C 20.344844 4.6740937 19.573453 3.6607031 18.439453 3.2207031 C 18.019453 3.0572031 17.583893 2.9874082 17.152344 3.0058594 z M 6.3671875 3.0078125 C 5.9473633 3.0293164 5.5283594 3.1350781 5.1308594 3.3300781 C 4.0208594 3.8700781 3.3305469 4.9499219 3.3105469 6.1699219 C 2.3505469 6.8799219 1.8590625 8.0504688 2.0390625 9.2304688 C 2.2090625 10.410469 3.010625 11.369297 4.140625 11.779297 C 4.500625 12.919297 5.4701563 13.760938 6.6601562 13.960938 C 6.8401563 13.990937 7.0192188 14 7.1992188 14 C 7.6592188 14 8.1095312 13.900703 8.5195312 13.720703 L 9.8183594 17.623047 C 8.5482603 17.010717 7 17 7 17 C 7 17 7 19.5 8.25 20.75 C 9.5 22 12 22 12 22 L 12.029297 22 C 12.459297 21.99 12.850938 21.689531 12.960938 21.269531 L 14.580078 15.449219 C 14.240078 15.289219 13.920859 15.089375 13.630859 14.859375 C 13.320859 14.829375 13.010703 14.759922 12.720703 14.669922 L 11.910156 17.580078 L 10.5 13.339844 C 10.28 13.119844 10.080156 12.879375 9.9101562 12.609375 C 9.8401562 12.529375 9.7902344 12.449375 9.7402344 12.359375 C 9.6402344 12.189375 9.5507031 12.019844 9.4707031 11.839844 C 8.9007031 10.599844 8.8503125 9.1994531 9.3203125 7.9394531 C 9.0003125 6.4094531 9.4092188 4.8000781 10.449219 3.5800781 C 9.7992187 3.3500781 9.069375 3.3498437 8.359375 3.5898438 C 7.765625 3.1710938 7.0668945 2.9719727 6.3671875 3.0078125 z M 16.5 7 C 17.328 7 18 7.672 18 8.5 C 18 9.328 17.328 10 16.5 10 C 15.672 10 15 9.328 15 8.5 C 15 7.672 15.672 7 16.5 7 z"/>
</svg>
