<?xml version="1.0"?>
<svg xmlns="http://www.w3.org/2000/svg" viewBox="0 0 24 24">
    <path style="line-height:normal;text-indent:0;text-align:start;text-decoration-line:none;text-decoration-style:solid;text-decoration-color:#000;text-transform:none;block-progression:tb;isolation:auto;mix-blend-mode:normal" d="M 12 2.0078125 C 11.541801 2.0078125 11.084058 2.1629928 10.714844 2.4726562 L 1.4550781 9.9648438 L 2.3359375 10.748047 C 2.3359375 10.748047 2.9820277 11.415927 4 11.775391 L 4 21 L 20 21 L 20 11.775391 C 21.017972 11.415927 21.664063 10.748047 21.664062 10.748047 L 22.544922 9.9648438 L 13.285156 2.4726562 C 12.915942 2.1629929 12.458199 2.0078125 12 2.0078125 z M 7.4375 11.28125 C 7.48349 11.2524 7.51651 11.2524 7.5625 11.28125 C 8.0763549 11.603154 8.8155599 12 9.75 12 C 10.68444 12 11.423645 11.603154 11.9375 11.28125 C 11.98349 11.2524 12.01651 11.2524 12.0625 11.28125 C 12.319427 11.442202 12.634162 11.622269 13 11.761719 L 13 17 L 18 17 L 18 19 L 6 19 L 6 11.908203 C 6.5850566 11.773575 7.0709032 11.510904 7.4375 11.28125 z M 16.4375 11.28125 C 16.48349 11.2524 16.51651 11.2524 16.5625 11.28125 C 16.929097 11.510904 17.414943 11.773575 18 11.908203 L 18 15 L 15 15 L 15 11.908203 C 15.585057 11.773575 16.070903 11.510904 16.4375 11.28125 z M 8 14 L 8 17 L 11 17 L 11 14 L 8 14 z" font-weight="400" font-family="sans-serif" white-space="normal" overflow="visible"/>
</svg>
