<?xml version="1.0"?>
<svg xmlns="http://www.w3.org/2000/svg" viewBox="0 0 24 24">
    <path d="M 11 2 L 11 4 L 8 4 L 8 7.8398438 L 6.609375 12 L 17.390625 12 L 16 7.8398438 L 16 4 L 13 4 L 13 2 L 11 2 z M 4 14 C 4 15.778393 4.3676685 17.456628 5.0351562 18.828125 C 4.3944758 18.60262 4 18.208733 4 18 L 2 18 C 2 18.07 2.0090625 18.229688 2.0390625 18.429688 C 2.1590625 18.999688 2.5002344 19.519219 2.9902344 19.949219 L 3 19.939453 C 3.18 20.099453 3.389375 20.250859 3.609375 20.380859 C 3.839375 20.500859 4.0800781 20.620938 4.3300781 20.710938 C 4.4600781 20.760938 4.5907031 20.800078 4.7207031 20.830078 C 4.8607031 20.870078 4.9908594 20.899922 5.1308594 20.919922 C 5.2408594 20.939922 5.3392187 20.960938 5.4492188 20.960938 C 5.6292188 20.990937 5.81 21 6 21 C 7.19 21 8.26 20.579453 9 19.939453 C 9.74 20.579453 10.81 21 12 21 C 13.19 21 14.26 20.579453 15 19.939453 C 15.74 20.579453 16.81 21 18 21 C 18.11 21 18.210313 21.000234 18.320312 20.990234 C 18.400313 20.980234 18.470781 20.970938 18.550781 20.960938 L 18.609375 20.960938 C 18.699375 20.950938 18.779141 20.939922 18.869141 20.919922 C 19.009141 20.899922 19.139297 20.870078 19.279297 20.830078 C 19.409297 20.800078 19.539922 20.760938 19.669922 20.710938 C 19.919922 20.620938 20.160625 20.500859 20.390625 20.380859 C 20.610625 20.250859 20.82 20.099453 21 19.939453 L 21.009766 19.949219 C 21.499766 19.519219 21.840937 18.999688 21.960938 18.429688 C 21.990938 18.229688 22 18.07 22 18 L 20 18 C 20 18.194738 19.672987 18.526458 19.142578 18.755859 C 19.746246 17.339149 20 15.56313 20 14 L 4 14 z"/>
</svg>
