<?xml version="1.0"?>
<svg xmlns="http://www.w3.org/2000/svg" viewBox="0 0 24 24">
    <path d="M 11 3 C 7.375 3 3 3.237 3 7 L 3 21 L 4 21 L 4 23 L 7 23 L 7 21 L 17 21 L 17 23 L 20 23 L 20 21 L 21 21 L 21 7 C 21 3.237 16.625 3 13 3 L 11 3 z M 5 7 L 19 7 L 19 13 L 5 13 L 5 7 z M 6.5 16 C 7.328 16 8 16.672 8 17.5 C 8 18.328 7.328 19 6.5 19 C 5.672 19 5 18.328 5 17.5 C 5 16.672 5.672 16 6.5 16 z M 17.5 16 C 18.328 16 19 16.672 19 17.5 C 19 18.328 18.328 19 17.5 19 C 16.672 19 16 18.328 16 17.5 C 16 16.672 16.672 16 17.5 16 z"/>
</svg>
