<?xml version="1.0"?>
<svg xmlns="http://www.w3.org/2000/svg" viewBox="0 0 24 24">
    <path style="line-height:normal;text-indent:0;text-align:start;text-decoration-line:none;text-decoration-style:solid;text-decoration-color:#000;text-transform:none;block-progression:tb;isolation:auto;mix-blend-mode:normal" d="M 4 4 C 2.35 4 1 5.35 1 7 L 1 18 L 3.0507812 18 C 3.2981765 19.685411 4.7500665 21 6.5 21 C 8.2499335 21 9.7018235 19.685411 9.9492188 18 L 13.050781 18 C 13.298177 19.685411 14.750067 21 16.5 21 C 18.249933 21 19.701823 19.685411 19.949219 18 L 22 18 L 22 11 L 22 10.722656 L 18.740234 5.4296875 C 18.190234 4.5296875 17.229688 4 16.179688 4 L 4 4 z M 4 6 L 7 6 L 7 11 L 3 11 L 3 7 C 3 6.45 3.45 6 4 6 z M 9 6 L 13 6 L 13 11 L 9 11 L 9 6 z M 15 6 L 16.179688 6 C 16.529688 6 16.849063 6.1804687 17.039062 6.4804688 L 19.830078 11 L 15 11 L 15 6 z M 6.5 16 C 7.3402718 16 8 16.659728 8 17.5 C 8 18.340272 7.3402718 19 6.5 19 C 5.6597282 19 5 18.340272 5 17.5 C 5 16.659728 5.6597282 16 6.5 16 z M 16.5 16 C 17.340272 16 18 16.659728 18 17.5 C 18 18.340272 17.340272 19 16.5 19 C 15.659728 19 15 18.340272 15 17.5 C 15 16.659728 15.659728 16 16.5 16 z" font-weight="400" font-family="sans-serif" white-space="normal" overflow="visible"/>
</svg>
