<?xml version="1.0"?>
<svg xmlns="http://www.w3.org/2000/svg" viewBox="0 0 24 24">
    <path style="line-height:normal;text-indent:0;text-align:start;text-decoration-line:none;text-decoration-style:solid;text-decoration-color:#000;text-transform:none;block-progression:tb;isolation:auto;mix-blend-mode:normal" d="M 1 4 L 1 20 L 23 20 L 23 19 L 23 4 L 1 4 z M 3 6 L 5 6 L 5 15 L 3 15 L 3 6 z M 11 6 L 13 6 L 13 15 L 11 15 L 11 6 z M 19 6 L 21 6 L 21 15 L 19 15 L 19 6 z M 7 11 L 9 11 L 9 15 L 7 15 L 7 11 z M 15 11 L 17 11 L 17 15 L 15 15 L 15 11 z"/>
</svg>
