<?xml version="1.0"?>
<svg xmlns="http://www.w3.org/2000/svg" viewBox="0 0 24 24">
    <path d="M 12 1.9921875 L 2 7.8261719 L 2 21 L 16 21 L 16 16.992188 C 16 16.992188 16 14.992484 18 13.771484 L 18 11.992188 L 22 11.992188 L 22 7.8261719 L 12 1.9921875 z M 12 4.3085938 L 20 8.9746094 L 20 9.0234375 L 12 14 L 4 9.0214844 L 4 8.9746094 L 12 4.3085938 z M 20 14 L 20 15.052734 C 19.460585 15.167354 18.277344 15.584631 18.277344 17.164062 C 18.277344 19.852063 21.324219 19.055609 21.324219 20.849609 C 21.324219 21.747609 20.687594 21.769531 20.558594 21.769531 C 20.440594 21.769531 19.664062 21.827125 19.664062 20.453125 L 18 20.453125 C 18 22.780125 19.848047 22.965 20.123047 23 L 20 23 L 20 24 L 21 24 L 21 23 L 21.007812 23 C 21.305813 22.966 22.988281 22.712844 22.988281 20.839844 C 22.988281 18.260844 19.942406 18.755875 19.941406 17.171875 C 19.941406 16.264875 20.487469 16.236328 20.605469 16.236328 C 20.820469 16.236328 21.335938 16.410625 21.335938 17.515625 L 23 17.515625 C 23 15.402625 21.418719 15.071484 21.136719 15.021484 L 21 15.017578 L 21 14 L 20 14 z"/>
</svg>
