<?xml version="1.0"?>
<svg xmlns="http://www.w3.org/2000/svg" viewBox="0 0 24 24">
    <path d="M 4 2 L 4 22 L 12.683594 22 C 12.250594 21.09 12 20.075 12 19 C 12 15.134 15.134 12 19 12 C 19.34 12 19.673 12.033078 20 12.080078 L 20 8 L 14 2 L 4 2 z M 13 3.5 L 18.5 9 L 13 9 L 13 3.5 z M 19 14 C 16.250421 14 14 16.250421 14 19 C 14 21.749579 16.250421 24 19 24 C 21.749579 24 24 21.749579 24 19 C 24 16.250421 21.749579 14 19 14 z M 19 16 L 19 19 L 22 19 C 22 20.668699 20.668699 22 19 22 C 17.331301 22 16 20.668699 16 19 C 16 17.331301 17.331301 16 19 16 z"/>
</svg>
