<?xml version="1.0"?>
<svg xmlns="http://www.w3.org/2000/svg" viewBox="0 0 24 24">
    <path d="M 7 2 A 2 2 0 0 0 5 4 A 2 2 0 0 0 7 6 A 2 2 0 0 0 9 4 A 2 2 0 0 0 7 2 z M 12 2 A 2 2 0 0 0 10 4 A 2 2 0 0 0 12 6 A 2 2 0 0 0 14 4 A 2 2 0 0 0 12 2 z M 17 2 A 2 2 0 0 0 15 4 A 2 2 0 0 0 17 6 A 2 2 0 0 0 19 4 A 2 2 0 0 0 17 2 z M 3 7 L 3 16 L 4 16 L 4 22 L 6 22 L 6 14 L 5 14 L 5 9 L 6 9 L 6 7 L 3 7 z M 8 7 L 8 18 L 9 18 L 9 22 L 11 22 L 11 18 L 13 18 L 13 22 L 15 22 L 15 18 L 16 18 L 16 7 L 8 7 z M 18 7 L 18 9 L 19 9 L 19 14 L 18 14 L 18 22 L 20 22 L 20 16 L 21 16 L 21 7 L 18 7 z"/>
</svg>
