<?xml version="1.0"?>
<svg xmlns="http://www.w3.org/2000/svg" viewBox="0 0 24 24">
    <path d="M 4.4160156 1.9960938 L 1.0039062 2.0136719 L 1.0136719 4.0136719 L 3.0839844 4.0039062 L 6.4003906 11.962891 L 3.8828125 17 L 19 17 L 19 15 L 7.1171875 15 L 8.1171875 13 L 17 13 L 21 4 L 13 4 L 13 7 L 16 7 L 12 11 L 8 7 L 11 7 L 11 4 L 5.25 4 L 4.4160156 1.9960938 z M 11 4 L 13 4 L 13 2 L 11 2 L 11 4 z M 7 18 A 2 2 0 0 0 5 20 A 2 2 0 0 0 7 22 A 2 2 0 0 0 9 20 A 2 2 0 0 0 7 18 z M 17 18 A 2 2 0 0 0 15 20 A 2 2 0 0 0 17 22 A 2 2 0 0 0 19 20 A 2 2 0 0 0 17 18 z"/>
</svg>
