<?xml version="1.0"?>
<svg xmlns="http://www.w3.org/2000/svg" viewBox="0 0 24 24">
    <path d="M12,2C6.486,2,2,6.486,2,12s4.486,10,10,10s10-4.486,10-10S17.514,2,12,2z M16.297,6.293c0.379-0.389,1.019-0.389,1.408,0 c0.39,0.389,0.39,1.018,0,1.409c-0.199,0.2-0.449,0.299-0.709,0.299c-0.25,0-0.509-0.1-0.699-0.299v0.01 C15.908,7.311,15.897,6.682,16.297,6.293z M11.08,4.605c0.05-0.121,0.12-0.232,0.21-0.332c0.38-0.372,1.04-0.372,1.42,0 c0.09,0.1,0.16,0.201,0.21,0.332C12.98,4.726,13,4.857,13,4.988c0,0.271-0.1,0.523-0.29,0.714c-0.1,0.09-0.21,0.161-0.33,0.211 c-0.12,0.06-0.25,0.081-0.38,0.081c-0.27,0-0.52-0.101-0.71-0.292c-0.09-0.101-0.16-0.211-0.21-0.332C11.03,5.249,11,5.118,11,4.988 C11,4.857,11.03,4.726,11.08,4.605z M6.295,6.291c0.391-0.389,1.022-0.389,1.413,0c0.39,0.389,0.39,1.018,0.01,1.409v0.01 c-0.2,0.19-0.461,0.29-0.711,0.29c-0.26,0-0.511-0.1-0.711-0.29C5.904,7.309,5.904,6.68,6.295,6.291z M5.38,12.913 c-0.12,0.05-0.25,0.081-0.38,0.081c-0.27,0-0.52-0.101-0.71-0.292C4.1,12.51,4,12.259,4,11.988c0-0.131,0.03-0.261,0.08-0.382 c0.05-0.121,0.12-0.232,0.21-0.332c0.37-0.372,1.05-0.372,1.42,0c0.09,0.1,0.16,0.201,0.21,0.332C5.97,11.726,6,11.857,6,11.988 c0,0.271-0.1,0.523-0.29,0.714C5.61,12.792,5.5,12.863,5.38,12.913z M7.713,17.709c-0.2,0.19-0.461,0.29-0.711,0.29 c-0.26,0-0.51-0.101-0.711-0.29c-0.391-0.391-0.391-1.021,0-1.412c0.391-0.391,1.021-0.401,1.412-0.01l0.01,0.01 C8.094,16.687,8.094,17.318,7.713,17.709z M12.71,19.712c-0.19,0.19-0.44,0.291-0.71,0.291c-0.13,0-0.26-0.03-0.38-0.08 c-0.12-0.05-0.23-0.12-0.33-0.21c-0.09-0.101-0.16-0.21-0.21-0.331C11.03,19.26,11,19.13,11,19s0.03-0.26,0.08-0.381 c0.05-0.13,0.12-0.231,0.21-0.331c0.1-0.09,0.2-0.161,0.33-0.21c0.24-0.101,0.52-0.101,0.76,0c0.13,0.05,0.23,0.12,0.33,0.21 c0.09,0.1,0.16,0.201,0.21,0.331C12.98,18.74,13,18.87,13,19C13,19.27,12.9,19.521,12.71,19.712z M13,16h-2v-4H8l4-4l4,4h-3V16z M17.706,17.709c-0.199,0.189-0.449,0.29-0.709,0.29c-0.25,0-0.509-0.101-0.698-0.29c-0.4-0.39-0.4-1.02-0.01-1.419l0.01,0.01 c0.389-0.4,1.018-0.4,1.407-0.01C18.095,16.68,18.095,17.319,17.706,17.709z M19.38,12.918c-0.12,0.05-0.25,0.08-0.38,0.08 c-0.27,0-0.52-0.101-0.71-0.291C18.1,12.517,18,12.267,18,11.997c0-0.13,0.02-0.26,0.08-0.38c0.05-0.12,0.12-0.231,0.21-0.331 c0.1-0.09,0.21-0.16,0.33-0.21c0.37-0.16,0.81-0.061,1.09,0.21c0.09,0.1,0.16,0.21,0.21,0.331c0.05,0.12,0.08,0.25,0.08,0.38 c0,0.27-0.1,0.52-0.29,0.711C19.61,12.798,19.5,12.868,19.38,12.918z"/>
</svg>
