<?xml version="1.0"?>
<svg xmlns="http://www.w3.org/2000/svg" viewBox="0 0 24 24">
    <path style="line-height:normal;text-indent:0;text-align:start;text-decoration-line:none;text-decoration-style:solid;text-decoration-color:#000;text-transform:none;block-progression:tb;isolation:auto;mix-blend-mode:normal" d="M 4 2 L 4 22 L 20 22 L 20 2 L 4 2 z M 10.5 6 C 11.879 6 13 7.121 13 8.5 L 13 9 L 11 9 L 11 8.5 C 11 8.225 10.775 8 10.5 8 C 10.225 8 10 8.225 10 8.5 L 10 11.5 C 10 11.775 10.225 12 10.5 12 C 10.775 12 11 11.775 11 11.5 L 11 11 L 13 11 L 13 11.5 C 13 12.879 11.879 14 10.5 14 C 9.121 14 8 12.879 8 11.5 L 8 8.5 C 8 7.121 9.121 6 10.5 6 z M 14 7 L 16 7 L 16 9 L 14 9 L 14 7 z M 14 11 L 16 11 L 16 13 L 14 13 L 14 11 z M 6 18 L 8 18 L 8 20 L 6 20 L 6 18 z M 10 18 L 18 18 L 18 20 L 10 20 L 10 18 z" font-weight="400" font-family="sans-serif" white-space="normal" overflow="visible"/>
</svg>
