<?xml version="1.0"?>
<svg xmlns="http://www.w3.org/2000/svg" viewBox="0 0 24 24">
    <path d="M 12.029297 2 C 9.8232969 2 8.0292969 3.794 8.0292969 6 C 8.0292969 7.0450764 8.0591645 8.0244231 8.0898438 9 L 6.0292969 9 L 6.0292969 7.5 C 6.0292969 6.672 5.3572969 6 4.5292969 6 C 3.7012969 6 3.0292969 6.672 3.0292969 7.5 L 3.0292969 10 C 3.0292969 11.105 3.9242969 12 5.0292969 12 L 8.2285156 12 C 8.399955 14.823821 8.6505965 17.39747 8.8945312 19.746094 L 9.1269531 22 L 14.933594 22 L 15.164062 19.746094 C 15.28723 18.557297 15.412394 17.298196 15.53125 16 L 19 16 C 20.105 16 21 15.105 21 14 L 21 11.5 C 21 10.672 20.328 10 19.5 10 C 18.672 10 18 10.672 18 11.5 L 18 13 L 15.773438 13 C 15.922937 10.844727 16.029297 8.5376639 16.029297 6 C 16.029297 3.794 14.235297 2 12.029297 2 z"/>
</svg>
