<?xml version="1.0"?>
<svg xmlns="http://www.w3.org/2000/svg" viewBox="0 0 24 24">
    <path d="M 6 1 L 6 3 L 3 3 L 3 21 L 21 21 L 21 3 L 18 3 L 18 1 L 16 1 L 16 3 L 8 3 L 8 1 L 6 1 z M 5 8 L 19 8 L 19 19 L 5 19 L 5 8 z M 9.75 10 L 6 11.455078 L 6 13.068359 L 8 12.365234 L 8 18 L 10 18 L 10 10 L 9.75 10 z M 12 10 L 12 12 L 13.597656 12 L 13 12.572266 L 13 13.832031 L 13.695312 14.054688 C 13.695312 14.054688 14.042475 14.172154 14.394531 14.439453 C 14.746588 14.706752 15 15.000935 15 15.5 C 15 15.786937 14.786937 16 14.5 16 C 14.213063 16 14 15.786937 14 15.5 L 14 15 L 12 15 L 12 15.5 C 12 16.869063 13.130937 18 14.5 18 C 15.869063 18 17 16.869063 17 15.5 C 17 14.242716 16.25318 13.339779 15.605469 12.847656 L 17 11.511719 L 17 10 L 12 10 z"/>
</svg>
