<?xml version="1.0"?>
<svg xmlns="http://www.w3.org/2000/svg" viewBox="0 0 24 24">
    <path d="M 6 1 L 6 3 L 3 3 L 3 21 L 21 21 L 21 3 L 18 3 L 18 1 L 16 1 L 16 3 L 8 3 L 8 1 L 6 1 z M 5 8 L 19 8 L 19 19 L 5 19 L 5 8 z M 12 10 C 10.631133 10 9.5 11.131133 9.5 12.5 C 9.5 12.958864 9.6349132 13.386029 9.8554688 13.757812 C 9.3665231 14.178326 9 14.790387 9 15.5 C 9 16.274507 9.4290779 16.94339 9.9863281 17.361328 C 10.543578 17.779266 11.24505 18 12 18 C 12.75495 18 13.456422 17.779266 14.013672 17.361328 C 14.570922 16.94339 15 16.274507 15 15.5 C 15 14.790387 14.633477 14.178326 14.144531 13.757812 C 14.365087 13.386029 14.5 12.958864 14.5 12.5 C 14.5 11.131133 13.368867 10 12 10 z M 12 12 C 12.287987 12 12.5 12.212013 12.5 12.5 C 12.5 12.787987 12.287987 13 12 13 C 11.712013 13 11.5 12.787987 11.5 12.5 C 11.5 12.212013 11.712013 12 12 12 z M 12 15 C 12.34962 15 12.647846 15.115279 12.814453 15.240234 C 12.981061 15.36519 13 15.44608 13 15.5 C 13 15.55392 12.98106 15.63481 12.814453 15.759766 C 12.647846 15.884721 12.34962 16 12 16 C 11.65038 16 11.352154 15.884721 11.185547 15.759766 C 11.018939 15.63481 11 15.55392 11 15.5 C 11 15.44608 11.018939 15.36519 11.185547 15.240234 C 11.352154 15.115279 11.65038 15 12 15 z"/>
</svg>
