<?xml version="1.0"?>
<svg xmlns="http://www.w3.org/2000/svg" viewBox="0 0 24 24">
    <path d="M 6 1 L 6 3 L 3 3 L 3 21 L 21 21 L 21 3 L 18 3 L 18 1 L 16 1 L 16 3 L 8 3 L 8 1 L 6 1 z M 5 8 L 19 8 L 19 19 L 5 19 L 5 8 z M 7 10 L 7 12 L 8.5976562 12 L 8 12.572266 L 8 13.832031 L 8.6953125 14.054688 C 8.6953125 14.054688 9.0424748 14.172154 9.3945312 14.439453 C 9.7465879 14.706752 10 15.000935 10 15.5 C 10 15.786937 9.7869372 16 9.5 16 C 9.2130628 16 9 15.786937 9 15.5 L 9 15 L 7 15 L 7 15.5 C 7 16.869063 8.1309372 18 9.5 18 C 10.869063 18 12 16.869063 12 15.5 C 12 14.242716 11.25318 13.339779 10.605469 12.847656 L 12 11.511719 L 12 10 L 7 10 z M 16.75 10 L 13 11.455078 L 13 13.068359 L 15 12.365234 L 15 18 L 17 18 L 17 10 L 16.75 10 z"/>
</svg>
