<?xml version="1.0"?>
<svg xmlns="http://www.w3.org/2000/svg" viewBox="0 0 24 24">
    <path style="line-height:normal;text-indent:0;text-align:start;text-decoration-line:none;text-decoration-style:solid;text-decoration-color:#000;text-transform:none;block-progression:tb;isolation:auto;mix-blend-mode:normal" d="M 6 1 L 6 3 L 3 3 L 3 21 L 21 21 L 21 3 L 18 3 L 18 1 L 16 1 L 16 3 L 8 3 L 8 1 L 6 1 z M 5 8 L 19 8 L 19 19 L 5 19 L 5 8 z M 9.75 10 L 6 11.455078 L 6 13.068359 L 8 12.365234 L 8 18 L 10 18 L 10 10 L 9.75 10 z M 12 10 L 12 16 L 16 16 L 16 18 L 18 18 L 18 10 L 16 10 L 16 14 L 14 14 L 14 10 L 12 10 z" font-weight="400" font-family="sans-serif" white-space="normal" overflow="visible"/>
</svg>
