<?xml version="1.0"?>
<svg xmlns="http://www.w3.org/2000/svg" viewBox="0 0 24 24">
    <path d="M 6 1 L 6 3 L 3 3 L 3 21 L 21 21 L 21 3 L 18 3 L 18 1 L 16 1 L 16 3 L 8 3 L 8 1 L 6 1 z M 5 8 L 19 8 L 19 19 L 5 19 L 5 8 z M 9.5 10 C 8.1309372 10 7 11.130937 7 12.5 L 7 13 L 9 13 L 9 12.5 C 9 12.213063 9.2130628 12 9.5 12 C 9.7869372 12 10 12.213063 10 12.5 C 10 12.757858 9.6525934 13.557212 9.0820312 14.298828 C 8.5114692 15.040445 7.7913724 15.762633 7.3144531 16.210938 L 7 16.507812 L 7 18 L 12 18 L 12 16 L 10.222656 16 C 10.381275 15.814548 10.515452 15.715819 10.667969 15.517578 C 11.347407 14.634445 12 13.683142 12 12.5 C 12 11.130937 10.869063 10 9.5 10 z M 16.75 10 L 13 11.455078 L 13 13.068359 L 15 12.365234 L 15 18 L 17 18 L 17 10 L 16.75 10 z"/>
</svg>
