<?xml version="1.0"?>
<svg xmlns="http://www.w3.org/2000/svg" viewBox="0 0 24 24">
    <path d="M 6 1 L 6 3 L 3 3 L 3 21 L 21 21 L 21 3 L 18 3 L 18 1 L 16 1 L 16 3 L 8 3 L 8 1 L 6 1 z M 5 8 L 19 8 L 19 19 L 5 19 L 5 8 z M 9.75 10 L 6 11.455078 L 6 13.068359 L 8 12.365234 L 8 18 L 10 18 L 10 10 L 9.75 10 z M 14.5 10 C 13.130937 10 12 11.130937 12 12.5 L 12 13 L 14 13 L 14 12.5 C 14 12.213063 14.213063 12 14.5 12 C 14.786937 12 15 12.213063 15 12.5 C 15 12.757858 14.652593 13.557212 14.082031 14.298828 C 13.511469 15.040445 12.791372 15.762633 12.314453 16.210938 L 12 16.507812 L 12 18 L 17 18 L 17 16 L 15.222656 16 C 15.381275 15.814548 15.515452 15.715819 15.667969 15.517578 C 16.347407 14.634445 17 13.683142 17 12.5 C 17 11.130937 15.869063 10 14.5 10 z"/>
</svg>
