<?xml version="1.0"?>
<svg xmlns="http://www.w3.org/2000/svg" viewBox="0 0 24 24">
    <path d="M 6 1 L 6 3 L 3 3 L 3 21 L 21 21 L 21 3 L 18 3 L 18 1 L 16 1 L 16 3 L 8 3 L 8 1 L 6 1 z M 5 8 L 19 8 L 19 19 L 5 19 L 5 8 z M 9.75 10 L 6 11.455078 L 6 13.068359 L 8 12.365234 L 8 18 L 10 18 L 10 10 L 9.75 10 z M 14.5 10 C 13.131133 10 12 11.131133 12 12.5 C 12 13.062659 12.197404 13.579717 12.517578 14 C 12.197404 14.420283 12 14.937341 12 15.5 C 12 16.868867 13.131133 18 14.5 18 C 15.868867 18 17 16.868867 17 15.5 C 17 14.937341 16.802596 14.420283 16.482422 14 C 16.802596 13.579717 17 13.062659 17 12.5 C 17 11.131133 15.868867 10 14.5 10 z M 14.5 12 C 14.787987 12 15 12.212013 15 12.5 C 15 12.787987 14.787987 13 14.5 13 C 14.212013 13 14 12.787987 14 12.5 C 14 12.212013 14.212013 12 14.5 12 z M 14.5 15 C 14.787987 15 15 15.212013 15 15.5 C 15 15.787987 14.787987 16 14.5 16 C 14.212013 16 14 15.787987 14 15.5 C 14 15.212013 14.212013 15 14.5 15 z"/>
</svg>
