<?xml version="1.0"?>
<svg xmlns="http://www.w3.org/2000/svg" viewBox="0 0 24 24">
    <path d="M 6 1 L 6 3 L 3 3 L 3 21 L 21 21 L 21 3 L 18 3 L 18 1 L 16 1 L 16 3 L 8 3 L 8 1 L 6 1 z M 5 8 L 19 8 L 19 19 L 5 19 L 5 8 z M 12 10 C 11.24505 10 10.543578 10.220734 9.9863281 10.638672 C 9.4290779 11.05661 9 11.725493 9 12.5 C 9 13.274507 9.4290779 13.94339 9.9863281 14.361328 C 10.543578 14.779266 11.24505 15 12 15 C 12.348777 15 12.682998 14.947372 13 14.855469 L 13 15 C 13 15.56503 12.56503 16 12 16 L 10 16 L 10 18 L 12 18 C 13.64497 18 15 16.64497 15 15 L 15 12.5 C 15 11.725493 14.570922 11.05661 14.013672 10.638672 C 13.456422 10.220734 12.75495 10 12 10 z M 12 12 C 12.34962 12 12.647846 12.115279 12.814453 12.240234 C 12.981061 12.36519 13 12.44608 13 12.5 C 13 12.55392 12.98106 12.63481 12.814453 12.759766 C 12.647846 12.884721 12.34962 13 12 13 C 11.65038 13 11.352154 12.884721 11.185547 12.759766 C 11.018939 12.63481 11 12.55392 11 12.5 C 11 12.44608 11.018939 12.36519 11.185547 12.240234 C 11.352154 12.115279 11.65038 12 12 12 z"/>
</svg>
