<?xml version="1.0"?>
<svg xmlns="http://www.w3.org/2000/svg" viewBox="0 0 24 24">
    <path d="M 6 1 L 6 3 L 3 3 L 3 21 L 21 21 L 21 3 L 18 3 L 18 1 L 16 1 L 16 3 L 8 3 L 8 1 L 6 1 z M 5 8 L 19 8 L 19 19 L 5 19 L 5 8 z M 8.5 10 C 7.1309372 10 6 11.130937 6 12.5 L 6 13 L 8 13 L 8 12.5 C 8 12.213063 8.2130628 12 8.5 12 C 8.7869372 12 9 12.213063 9 12.5 C 9 12.757858 8.6525934 13.557212 8.0820312 14.298828 C 7.5114693 15.040445 6.7913724 15.762633 6.3144531 16.210938 L 6 16.507812 L 6 18 L 11 18 L 11 16 L 9.2226562 16 C 9.3812754 15.814548 9.5154524 15.715819 9.6679688 15.517578 C 10.347407 14.634445 11 13.683142 11 12.5 C 11 11.130937 9.8690628 10 8.5 10 z M 13 10 L 13 12 L 15.521484 12 L 13 18 L 15.128906 18 L 17.919922 11.478516 L 18 11.205078 L 18 10 L 13 10 z"/>
</svg>
