<?xml version="1.0"?>
<svg xmlns="http://www.w3.org/2000/svg" viewBox="0 0 24 24">
    <path d="M 6 1 L 6 3 L 3 3 L 3 21 L 21 21 L 21 3 L 18 3 L 18 1 L 16 1 L 16 3 L 8 3 L 8 1 L 6 1 z M 5 8 L 19 8 L 19 19 L 5 19 L 5 8 z M 9 10 L 9 14 L 10 14 C 11 14 11.936576 14.03355 12.433594 14.199219 C 12.682103 14.282059 12.79956 14.370083 12.867188 14.457031 C 12.934814 14.543979 13 14.666667 13 15 C 13 15.56503 12.56503 16 12 16 C 11.43497 16 11 15.56503 11 15 L 9 15 C 9 16.64497 10.35503 18 12 18 C 13.64497 18 15 16.64497 15 15 C 15 14.333333 14.815187 13.706021 14.445312 13.230469 C 14.075439 12.754917 13.567897 12.467945 13.066406 12.300781 C 12.390497 12.075478 11.692846 12.111838 11 12.097656 L 11 12 L 15 12 L 15 10 L 9 10 z"/>
</svg>
