<?xml version="1.0"?>
<svg xmlns="http://www.w3.org/2000/svg" viewBox="0 0 24 24">
    <path d="M 6 1 L 6 3 L 3 3 L 3 21 L 21 21 L 21 3 L 18 3 L 18 1 L 16 1 L 16 3 L 8 3 L 8 1 L 6 1 z M 5 8 L 19 8 L 19 19 L 5 19 L 5 8 z M 9.75 10 L 6 11.455078 L 6 13.068359 L 8 12.365234 L 8 18 L 10 18 L 10 10 L 9.75 10 z M 15 10 C 13.35503 10 12 11.35503 12 13 L 12 15 C 12 16.64497 13.35503 18 15 18 C 16.64497 18 18 16.64497 18 15 L 18 13 C 18 11.35503 16.64497 10 15 10 z M 15 12 C 15.56503 12 16 12.43497 16 13 L 16 15 C 16 15.56503 15.56503 16 15 16 C 14.43497 16 14 15.56503 14 15 L 14 13 C 14 12.43497 14.43497 12 15 12 z"/>
</svg>
