<?xml version="1.0"?>
<svg xmlns="http://www.w3.org/2000/svg" viewBox="0 0 24 24">
    <path style="line-height:normal;text-indent:0;text-align:start;text-decoration-line:none;text-decoration-style:solid;text-decoration-color:#000;text-transform:none;block-progression:tb;isolation:auto;mix-blend-mode:normal" d="M 6 1 L 6 3 L 3 3 L 3 21 L 21 21 L 21 3 L 18 3 L 18 1 L 16 1 L 16 3 L 8 3 L 8 1 L 6 1 z M 5 8 L 19 8 L 19 19 L 5 19 L 5 8 z M 6 10 L 6 12 L 7.5976562 12 L 7 12.572266 L 7 13.832031 L 7.6953125 14.054688 C 7.6953125 14.054688 8.0424748 14.172154 8.3945312 14.439453 C 8.7465879 14.706752 9 15.000935 9 15.5 C 9 15.786937 8.7869372 16 8.5 16 C 8.2130628 16 8 15.786937 8 15.5 L 8 15 L 6 15 L 6 15.5 C 6 16.869063 7.1309372 18 8.5 18 C 9.8690628 18 11 16.869063 11 15.5 C 11 14.242716 10.25318 13.339779 9.6054688 12.847656 L 11 11.511719 L 11 10 L 6 10 z M 15 10 C 13.35503 10 12 11.35503 12 13 L 12 15 C 12 16.64497 13.35503 18 15 18 C 16.64497 18 18 16.64497 18 15 L 18 13 C 18 11.35503 16.64497 10 15 10 z M 15 12 C 15.56503 12 16 12.43497 16 13 L 16 15 C 16 15.56503 15.56503 16 15 16 C 14.43497 16 14 15.56503 14 15 L 14 13 C 14 12.43497 14.43497 12 15 12 z" font-weight="400" font-family="sans-serif" white-space="normal" overflow="visible"/>
</svg>
