<?xml version="1.0"?>
<svg xmlns="http://www.w3.org/2000/svg" viewBox="0 0 24 24">
    <path style="line-height:normal;text-indent:0;text-align:start;text-decoration-line:none;text-decoration-style:solid;text-decoration-color:#000;text-transform:none;block-progression:tb;isolation:auto;mix-blend-mode:normal" d="M 3 3 L 3 4 C 3 8.539 4.8407969 12.873203 7.9667969 16.033203 C 11.126797 19.159203 15.461 21 20 21 L 21 21 L 21 15.488281 L 15.75 14.849609 L 13.210938 17.380859 C 11.678937 16.573859 10.451109 15.632891 9.4121094 14.587891 C 8.3671094 13.548891 7.4261406 12.321063 6.6191406 10.789062 L 9.1503906 8.25 L 8.5117188 3 L 3 3 z M 15 3 L 11 7 L 15 11 L 15 8 L 16 8 C 16 8 16.791248 8.013788 17.552734 8.3945312 C 18.31422 8.7752744 19 9.3333333 19 11 L 19 12 L 21 12 L 21 11 C 21 8.6666667 19.68578 7.2247257 18.447266 6.6054688 C 17.208752 5.9862118 16 6 16 6 L 15 6 L 15 3 z" font-weight="400" font-family="sans-serif" white-space="normal" overflow="visible"/>
</svg>
