<?xml version="1.0"?>
<svg xmlns="http://www.w3.org/2000/svg" viewBox="0 0 24 24">
    <path d="M 7.4824219 2 L 6.9257812 2.5566406 C 4.4047813 5.0776406 3.019 8.508 3 12 C 3.019 15.492 4.4057344 18.922359 6.9277344 21.443359 C 7.3007344 21.817359 7.4824219 22 7.4824219 22 L 10.544922 18.9375 L 8.4179688 16 L 5.9179688 16 C 5.4809687 15.208 5.0399687 13.158 5.0429688 12 C 5.0399687 10.842 5.5229688 8.9177188 5.9179688 8.0117188 L 8.4179688 8 L 10.544922 5.0625 L 7.4824219 2 z M 18.482422 2 L 17.925781 2.5566406 C 15.404781 5.0776406 14.019 8.508 14 12 C 14.019 15.492 15.405734 18.922359 17.927734 21.443359 C 18.300734 21.817359 18.482422 22 18.482422 22 L 21.544922 18.9375 L 19.417969 16 L 16.917969 16 C 16.480969 15.208 16.039969 13.158 16.042969 12 C 16.039969 10.842 16.522969 8.9177188 16.917969 8.0117188 L 19.417969 8 L 21.544922 5.0625 L 18.482422 2 z M 10.023438 9.0722656 L 10.023438 11 L 7 11 L 7 13 L 10.023438 13 L 10.023438 15.023438 L 13 12.048828 L 10.023438 9.0722656 z"/>
</svg>
