<?xml version="1.0"?>
<svg xmlns="http://www.w3.org/2000/svg" viewBox="0 0 24 24">
    <path d="M 15.341797 2.9296875 L 13.927734 4.34375 L 16.048828 6.4648438 L 13.927734 8.5859375 L 15.341797 10 L 17.462891 7.8789062 L 19.583984 10 L 20.998047 8.5859375 L 18.876953 6.4648438 L 20.998047 4.34375 L 19.583984 2.9296875 L 17.462891 5.0507812 L 15.341797 2.9296875 z M 3 3 L 3 4 C 3 8.539 4.8407969 12.873203 7.9667969 16.033203 C 11.126797 19.159203 15.461 21 20 21 L 21 21 L 21 15.488281 L 15.75 14.849609 L 13.210938 17.380859 C 11.678937 16.573859 10.451109 15.632891 9.4121094 14.587891 C 8.3671094 13.548891 7.4261406 12.321063 6.6191406 10.789062 L 9.1503906 8.25 L 8.5117188 3 L 3 3 z"/>
</svg>
