<?xml version="1.0"?>
<svg xmlns="http://www.w3.org/2000/svg" viewBox="0 0 24 24">
    <path style="line-height:normal;text-indent:0;text-align:start;text-decoration-line:none;text-decoration-style:solid;text-decoration-color:#000;text-transform:none;block-progression:tb;isolation:auto;mix-blend-mode:normal" d="M 8.0566406 2 C 7.8735352 1.9981934 7.6875 2.0066406 7.5 2.0253906 C 4.9 2.3253906 3 4.6246094 3 7.2246094 L 3 22 L 13 22 L 13 16.025391 L 21 16.025391 L 21 7.0253906 L 13 7.0253906 C 13 4.3066406 10.803223 2.0270996 8.0566406 2 z M 8 4.0253906 C 9.7 4.0253906 11 5.3253906 11 7.0253906 C 11 8.7253906 9.7 10.025391 8 10.025391 C 6.3 10.025391 5 8.7253906 5 7.0253906 C 5 5.3253906 6.3 4.0253906 8 4.0253906 z M 13 9.0253906 L 19 9.0253906 L 19 14.025391 L 13 14.025391 L 13 9.0253906 z M 6 18.025391 C 6.6 18.025391 7 18.425391 7 19.025391 C 7 19.625391 6.6 20.025391 6 20.025391 C 5.4 20.025391 5 19.625391 5 19.025391 C 5 18.425391 5.4 18.025391 6 18.025391 z" font-weight="400" font-family="sans-serif" white-space="normal" overflow="visible"/>
</svg>
