<?xml version="1.0"?>
<svg xmlns="http://www.w3.org/2000/svg" viewBox="0 0 24 24">
    <path d="M 14.998047 3 L 8.9980469 3.0039062 L 7.1640625 5 L 2 5 L 2 21 L 11.683594 21 C 11.250594 20.09 11 19.075 11 18 C 11 17.966 11.005859 17.933391 11.005859 17.900391 C 8.4488594 17.383391 6.5971719 14.916188 7.0761719 12.117188 C 7.4141719 10.145188 8.9706875 8.5183281 10.929688 8.1113281 C 13.475687 7.5823281 15.769812 8.9947187 16.632812 11.136719 C 17.075812 11.048719 17.532 11 18 11 C 19.488 11 20.866 11.467766 22 12.259766 L 22 5 L 16.84375 5 L 14.998047 3 z M 12 10 C 10.343 10 9 11.343 9 13 C 9 14.421 9.9904063 15.604062 11.316406 15.914062 C 11.872406 14.132062 13.121047 12.659687 14.748047 11.804688 C 14.285047 10.743688 13.231 10 12 10 z M 18 13 C 15.2 13 13 15.2 13 18 C 13 20.8 15.2 23 18 23 C 19 23 20.000781 22.699219 20.800781 22.199219 L 22.599609 24 L 24 22.599609 L 22.199219 20.800781 C 22.699219 20.000781 23 19 23 18 C 23 15.2 20.8 13 18 13 z M 18 15 C 19.7 15 21 16.3 21 18 C 21 19.7 19.7 21 18 21 C 16.3 21 15 19.7 15 18 C 15 16.3 16.3 15 18 15 z"/>
</svg>
