<?xml version="1.0"?>
<svg xmlns="http://www.w3.org/2000/svg" viewBox="0 0 24 24">
    <path d="M 11.5 0 C 10.119 0 9 1.119 9 2.5 L 9 4 L 3 4 L 3 21 L 20 21 L 20 15 L 21.5 15 C 22.881 15 24 13.881 24 12.5 C 24 11.119 22.881 10 21.5 10 L 20 10 L 20 4 L 14 4 L 14 2.5 C 14 1.119 12.881 0 11.5 0 z M 7 9 L 9 9 L 9 16 L 7 16 L 7 9 z M 11 9 L 13.5 9 C 14.881 9 16 10.119 16 11.5 L 16 13.5 C 16 14.881 14.881 16 13.5 16 L 11 16 L 11 9 z M 13 11 L 13 14 L 13.5 14 C 13.776 14 14 13.776 14 13.5 L 14 11.5 C 14 11.224 13.776 11 13.5 11 L 13 11 z"/>
</svg>
