<?xml version="1.0"?>
<svg xmlns="http://www.w3.org/2000/svg" viewBox="0 0 24 24">
    <path d="M 2 5 L 2 19 L 18 19 L 18 14.080078 L 23 18.080078 L 23 5.9199219 L 18 9.9199219 L 18 5 L 2 5 z M 9.0644531 7 L 10.935547 7 C 11.064547 7 11.1725 7.0966094 11.1875 7.2246094 L 11.304688 8.2363281 C 11.788687 8.4043281 12.226469 8.6602812 12.605469 8.9882812 L 13.542969 8.5820312 C 13.660969 8.5310312 13.797328 8.5784531 13.861328 8.6894531 L 14.798828 10.310547 C 14.863828 10.421547 14.833469 10.563625 14.730469 10.640625 L 13.923828 11.240234 C 13.971828 11.487234 14 11.74 14 12 C 14 12.26 13.971828 12.512766 13.923828 12.759766 L 14.730469 13.359375 C 14.833469 13.435375 14.862828 13.577453 14.798828 13.689453 L 13.861328 15.310547 C 13.797328 15.421547 13.660969 15.468969 13.542969 15.417969 L 12.605469 15.011719 C 12.226469 15.339719 11.788687 15.595672 11.304688 15.763672 L 11.1875 16.775391 C 11.1725 16.903391 11.064547 17 10.935547 17 L 9.0644531 17 C 8.9354531 17 8.8275 16.903391 8.8125 16.775391 L 8.6953125 15.763672 C 8.2113125 15.595672 7.7735312 15.340719 7.3945312 15.011719 L 6.4570312 15.416016 C 6.3390312 15.467016 6.2026719 15.422547 6.1386719 15.310547 L 5.2011719 13.689453 C 5.1361719 13.578453 5.1665313 13.436375 5.2695312 13.359375 L 6.0761719 12.759766 C 6.0281719 12.512766 6 12.26 6 12 C 6 11.74 6.0281719 11.487234 6.0761719 11.240234 L 5.2695312 10.640625 C 5.1665313 10.563625 5.1371719 10.421547 5.2011719 10.310547 L 6.1386719 8.6894531 C 6.2026719 8.5784531 6.3390312 8.5310312 6.4570312 8.5820312 L 7.3945312 8.9882812 C 7.7735312 8.6602813 8.2113125 8.4043281 8.6953125 8.2363281 L 8.8125 7.2246094 C 8.8275 7.0966094 8.9354531 7 9.0644531 7 z M 10 10 C 8.896 10 8 10.895 8 12 C 8 13.104 8.896 14 10 14 C 11.104 14 12 13.104 12 12 C 12 10.895 11.104 10 10 10 z"/>
</svg>
