<?xml version="1.0"?>
<svg xmlns="http://www.w3.org/2000/svg" viewBox="0 0 24 24">
    <path d="M 9.3320312 2 L 7.8710938 4 L 4 4 L 4 16 L 9.9042969 16 L 6 22 L 8.4042969 22 L 11 18.011719 L 11 22 L 13 22 L 13 18.083984 L 15.595703 22 L 18 22 L 14.023438 16 L 20 16 L 20 4 L 16.011719 4 L 14.576172 2 L 9.3320312 2 z M 12 6 C 14.206 6 16 7.794 16 10 C 16 12.206 14.206 14 12 14 C 9.794 14 8 12.206 8 10 C 8 7.794 9.794 6 12 6 z M 12 8 A 2 2 0 0 0 10 10 A 2 2 0 0 0 12 12 A 2 2 0 0 0 14 10 A 2 2 0 0 0 12 8 z"/>
</svg>
