<?xml version="1.0"?>
<svg xmlns="http://www.w3.org/2000/svg" viewBox="0 0 24 24">
    <path d="M 18 3 L 18 5.0683594 C 17.477 5.1333594 17.004031 5.2639375 16.582031 5.4609375 C 16.151031 5.6629375 15.784516 5.926 15.478516 6.25 C 15.172516 6.576 14.936484 6.9574844 14.771484 7.3964844 C 14.605484 7.8344844 14.523437 8.3176563 14.523438 8.8476562 C 14.523438 9.4346562 14.617688 9.9487188 14.804688 10.386719 C 14.991687 10.825719 15.256609 11.210922 15.599609 11.544922 C 15.942609 11.879922 16.35775 12.172875 16.84375 12.421875 C 17.33075 12.670875 17.873656 12.898469 18.472656 13.105469 C 18.884656 13.251469 19.232531 13.403547 19.519531 13.560547 C 19.806531 13.718547 20.038797 13.889266 20.216797 14.072266 C 20.394797 14.255266 20.524469 14.456734 20.605469 14.677734 C 20.686469 14.898734 20.726562 15.14225 20.726562 15.40625 C 20.726562 15.98125 20.540922 16.440109 20.169922 16.787109 C 19.798922 17.134109 19.257875 17.308594 18.546875 17.308594 C 18.271875 17.308594 17.999516 17.270406 17.728516 17.191406 C 17.456516 17.112406 17.213047 16.979063 16.998047 16.789062 C 16.783047 16.600062 16.594938 16.345437 16.460938 16.023438 C 16.345938 15.747438 16.289438 15.397 16.273438 15 L 14 15 C 14.018 15.652 14.127266 16.229984 14.322266 16.708984 C 14.537266 17.235984 14.824688 17.671625 15.179688 18.015625 C 15.534688 18.358625 15.942297 18.622687 16.404297 18.804688 C 16.865297 18.988688 17.346703 19.107062 17.845703 19.164062 L 18 19.173828 L 18 21 L 19.75 21 L 19.75 19.080078 C 20.14 19.014078 20.51075 18.92325 20.84375 18.78125 C 21.29575 18.58925 21.680047 18.334625 21.998047 18.015625 C 22.316047 17.696625 22.563281 17.317906 22.738281 16.878906 C 22.913281 16.440906 23 15.944672 23 15.388672 C 23 14.801672 22.910516 14.290469 22.728516 13.855469 C 22.547516 13.419469 22.287172 13.036078 21.951172 12.705078 C 21.614172 12.373078 21.206563 12.084938 20.726562 11.835938 C 20.245562 11.586937 19.704609 11.351859 19.099609 11.130859 C 18.662609 10.972859 18.296 10.812344 18 10.652344 C 17.704 10.491344 17.467062 10.320625 17.289062 10.140625 C 17.111063 9.960625 16.985156 9.7628281 16.910156 9.5488281 C 16.835156 9.3348281 16.796875 9.0950781 16.796875 8.8300781 C 16.796875 8.5520781 16.834156 8.2965 16.910156 8.0625 C 16.985156 7.8285 17.102719 7.6289375 17.261719 7.4609375 C 17.420719 7.2949375 17.618469 7.1633594 17.855469 7.0683594 C 18.092469 6.9733594 18.374078 6.9277344 18.705078 6.9277344 C 19.011078 6.9277344 19.286297 6.9874219 19.529297 7.1074219 C 19.772297 7.2274219 19.977484 7.3961875 20.146484 7.6171875 C 20.314484 7.8391875 20.445156 8.1078281 20.535156 8.4238281 C 20.586156 8.6018281 20.618625 8.796 20.640625 9 L 22.902344 9 C 22.871344 8.561 22.814172 8.1444375 22.701172 7.7734375 C 22.545172 7.2654375 22.320344 6.8252187 22.027344 6.4492188 C 21.734344 6.0732187 21.376078 5.7700625 20.955078 5.5390625 C 20.596078 5.3430625 20.189 5.2158125 19.75 5.1328125 L 19.75 3 L 18 3 z M 6.6855469 5 C 5.8165469 5 5.0330313 5.1520312 4.3320312 5.4570312 C 3.6320313 5.7620312 3.0330625 6.1987656 2.5390625 6.7597656 C 2.0450625 7.3207656 1.6663906 7.9999219 1.4003906 8.7949219 C 1.1333906 9.5909219 1 10.477031 1 11.457031 L 1 12.560547 C 1 13.546547 1.130625 14.435516 1.390625 15.228516 C 1.650625 16.019516 2.0228125 16.696859 2.5078125 17.255859 C 2.9928125 17.813859 3.577625 18.243875 4.265625 18.546875 C 4.952625 18.848875 5.7203125 19 6.5703125 19 C 7.4203125 19 8.1693594 18.883344 8.8183594 18.652344 C 9.4683594 18.422344 10.01875 18.101453 10.46875 17.689453 C 10.91875 17.278453 11.270437 16.788609 11.523438 16.224609 C 11.777438 15.660609 11.937 15.044953 12 14.376953 L 9.6054688 14.376953 C 9.5484688 14.813953 9.4542188 15.201109 9.3242188 15.537109 C 9.1952188 15.875109 9.0113437 16.157672 8.7773438 16.388672 C 8.5423437 16.619672 8.2466719 16.794109 7.8886719 16.912109 C 7.5306719 17.031109 7.0922656 17.091797 6.5722656 17.091797 C 6.0142656 17.091797 5.5357188 16.981672 5.1367188 16.763672 C 4.7377187 16.545672 4.41025 16.237797 4.15625 15.841797 C 3.90225 15.444797 3.7157031 14.970062 3.5957031 14.414062 C 3.4747031 13.859063 3.4140625 13.240547 3.4140625 12.560547 L 3.4140625 11.4375 C 3.4140625 10.7195 3.4831406 10.081531 3.6191406 9.5195312 C 3.7561406 8.9585312 3.9594219 8.4845625 4.2324219 8.1015625 C 4.5044219 7.7175625 4.8468594 7.4256563 5.2558594 7.2226562 C 5.6648594 7.0196563 6.1405469 6.9179688 6.6855469 6.9179688 C 7.1795469 6.9179687 7.6002187 6.9804688 7.9492188 7.1054688 C 8.2972187 7.2304688 8.5864531 7.4113438 8.8144531 7.6523438 C 9.0424531 7.8923437 9.2187969 8.1843438 9.3417969 8.5273438 C 9.4657969 8.8703437 9.5525156 9.2575 9.6035156 9.6875 L 12 9.6875 C 11.93 9.0075 11.769531 8.3806406 11.519531 7.8066406 C 11.269531 7.2326406 10.924375 6.7392188 10.484375 6.3242188 C 10.044375 5.9092187 9.5060469 5.5855625 8.8730469 5.3515625 C 8.2380469 5.1175625 7.5095469 5 6.6855469 5 z"/>
</svg>
