<?xml version="1.0"?>
<svg xmlns="http://www.w3.org/2000/svg" viewBox="0 0 24 24">
    <path style="line-height:normal;text-indent:0;text-align:start;text-decoration-line:none;text-decoration-style:solid;text-decoration-color:#000;text-transform:none;block-progression:tb;isolation:auto;mix-blend-mode:normal" d="M 2 3 L 2 18 C 2 19.654 3.346 21 5 21 L 10.587891 21 C 10.211891 20.073 10 19.062 10 18 L 6 18 L 6 16 L 10.261719 16 C 10.444719 15.29 10.719125 14.619 11.078125 14 L 6 14 L 6 12 L 12.720703 12 C 14.129703 10.759 15.975 10 18 10 L 18 3 L 2 3 z M 6 6 L 14 6 L 14 9 L 6 9 L 6 6 z M 20 7 L 20 10.261719 C 20.71 10.444719 21.381 10.719125 22 11.078125 L 22 7 L 20 7 z M 18 12 C 14.698136 12 12 14.698136 12 18 C 12 21.301864 14.698136 24 18 24 C 21.301864 24 24 21.301864 24 18 C 24 14.698136 21.301864 12 18 12 z M 18 14 C 18.743688 14 19.429056 14.213764 20.023438 14.5625 L 14.5625 20.023438 C 14.213764 19.429056 14 18.743688 14 18 C 14 15.779016 15.779016 14 18 14 z M 21.4375 15.976562 C 21.786236 16.570944 22 17.256312 22 18 C 22 20.220984 20.220984 22 18 22 C 17.256312 22 16.570944 21.786236 15.976562 21.4375 L 21.4375 15.976562 z" font-weight="400" font-family="sans-serif" white-space="normal" overflow="visible"/>
</svg>
