<?xml version="1.0"?>
<svg xmlns="http://www.w3.org/2000/svg" viewBox="0 0 24 24">
    <path style="line-height:normal;text-indent:0;text-align:start;text-decoration-line:none;text-decoration-style:solid;text-decoration-color:#000;text-transform:none;block-progression:tb;isolation:auto;mix-blend-mode:normal" d="M 12.101562 2 L 11.837891 2.1953125 C 11.837891 2.1953125 6 6.2758667 6 12 C 6 15.052059 8.0052831 16.763338 9 17.496094 L 9 18 L 9 22 L 15 22 L 15 18 L 15 17.486328 C 15.929977 16.778438 18 15.07242 18 12 C 18 9.2333333 16.757856 7.6563892 15.738281 6.5390625 C 14.718706 5.4217358 14 4.8015146 14 3 L 14 2 L 12.101562 2 z M 12.375 4.4492188 C 12.777635 5.9282015 13.52202 7.076101 14.261719 7.8867188 C 15.242144 8.961142 16 9.7666667 16 12 C 16 14.28221 14.603802 15.289439 13.660156 16 L 10.324219 16 C 9.448964 15.385074 8 14.29094 8 12 C 8 8.2763415 11.390871 5.2789854 12.375 4.4492188 z" font-weight="400" font-family="sans-serif" white-space="normal" overflow="visible"/>
</svg>
