<?xml version="1.0"?>
<svg xmlns="http://www.w3.org/2000/svg" viewBox="0 0 24 24">
    <path style="line-height:normal;text-indent:0;text-align:start;text-decoration-line:none;text-decoration-style:solid;text-decoration-color:#000;text-transform:none;block-progression:tb;isolation:auto;mix-blend-mode:normal" d="M 12 2 L 12 4 L 10 4 L 10 11 L 12 11 L 12 13 L 14 13 L 14 11 L 16 11 L 16 4 L 14 4 L 14 2 L 12 2 z M 4 9 L 4 11 L 2 11 L 2 12 L 2 18 L 4 18 L 4 20 L 6 20 L 6 18 L 8 18 L 8 11 L 6 11 L 6 9 L 4 9 z M 18 11 L 18 13 L 16 13 L 16 20 L 18 20 L 18 22 L 20 22 L 20 20 L 22 20 L 22 13 L 20 13 L 20 11 L 18 11 z M 4 13 L 6 13 L 6 16 L 4 16 L 4 13 z"/>
</svg>
