<?xml version="1.0"?>
<svg xmlns="http://www.w3.org/2000/svg" viewBox="0 0 24 24">
    <path d="M 18 1 C 17.601 1 17.192156 1.0467187 16.785156 1.1367188 L 14.962891 1.5390625 L 19 5.4257812 L 19 8 L 16.423828 8 L 12.53125 3.9785156 L 12.132812 5.7988281 C 12.043813 6.1988281 12 6.604 12 7 C 12 9.155 13.158 11.127406 15 12.191406 L 15 21 L 21 21 L 21 12.191406 C 22.842 11.127406 24 9.155 24 7 C 24 3.691 21.309 1 18 1 z M 10.060547 6.0996094 C 9.5505469 6.2296094 9.0809375 6.5008594 8.7109375 6.8808594 L 5.5097656 10.080078 L 0 11.181641 L 0 18 L 3.3515625 18 C 3.915565 19.178063 5.1089989 20 6.5 20 C 7.8910011 20 9.084435 19.178063 9.6484375 18 L 13 18 L 13 13.240234 C 11.13 11.740234 10 9.44 10 7 C 10 6.7 10.020547 6.4096094 10.060547 6.0996094 z M 6.5 15 C 7.327 15 8 15.673 8 16.5 C 8 17.327 7.327 18 6.5 18 C 5.673 18 5 17.327 5 16.5 C 5 15.673 5.673 15 6.5 15 z"/>
</svg>
