<?xml version="1.0"?>
<svg xmlns="http://www.w3.org/2000/svg" viewBox="0 0 24 24">
    <path d="M 4 3 L 4 22 L 20 22 L 20 3 L 4 3 z M 12 7 L 16.455078 9.2578125 L 15.589844 11 L 12 9.1796875 L 8.4101562 11 L 7.5507812 9.2695312 L 12 7 z M 9.5 12 L 14.5 12 L 16 14.380859 L 16 18 L 14 18 L 14 17.460938 L 14 17 L 10 17 L 10 17.460938 L 10 18 L 8 18 L 8 14.5 L 9.5 12 z M 9.75 14.5 A 0.75 0.75 0 0 0 9.4628906 14.558594 A 0.75 0.75 0 0 0 9.4589844 14.558594 C 9.4567968 14.559529 9.4553023 14.561544 9.453125 14.5625 A 0.75 0.75 0 0 0 9.2207031 14.720703 A 0.75 0.75 0 0 0 9.0585938 14.957031 C 9.0583782 14.957532 9.0588083 14.958483 9.0585938 14.958984 A 0.75 0.75 0 0 0 9 15.25 A 0.75 0.75 0 0 0 9.0585938 15.537109 C 9.0590819 15.538267 9.0580999 15.539861 9.0585938 15.541016 C 9.0595291 15.543203 9.0615444 15.544698 9.0625 15.546875 A 0.75 0.75 0 0 0 9.2207031 15.779297 A 0.75 0.75 0 0 0 9.4570312 15.941406 C 9.4575324 15.941622 9.4584827 15.941192 9.4589844 15.941406 A 0.75 0.75 0 0 0 9.75 16 A 0.75 0.75 0 0 0 10.037109 15.941406 A 0.75 0.75 0 0 0 10.046875 15.9375 A 0.75 0.75 0 0 0 10.279297 15.779297 A 0.75 0.75 0 0 0 10.441406 15.542969 A 0.75 0.75 0 0 0 10.441406 15.541016 A 0.75 0.75 0 0 0 10.5 15.25 A 0.75 0.75 0 0 0 10.441406 14.962891 A 0.75 0.75 0 0 0 10.4375 14.953125 A 0.75 0.75 0 0 0 10.279297 14.720703 A 0.75 0.75 0 0 0 10.042969 14.558594 C 10.042468 14.558378 10.041517 14.558808 10.041016 14.558594 A 0.75 0.75 0 0 0 9.75 14.5 z M 14.25 14.5 A 0.75 0.75 0 0 0 13.958984 14.558594 C 13.956797 14.559529 13.955302 14.561544 13.953125 14.5625 A 0.75 0.75 0 0 0 13.558594 14.958984 A 0.75 0.75 0 0 0 13.5 15.25 A 0.75 0.75 0 0 0 13.558594 15.537109 C 13.560007 15.54046 13.56104 15.543548 13.5625 15.546875 A 0.75 0.75 0 0 0 13.957031 15.941406 C 13.957031 15.941406 13.958984 15.941406 13.958984 15.941406 A 0.75 0.75 0 0 0 14.25 16 A 0.75 0.75 0 0 0 14.941406 15.541016 A 0.75 0.75 0 0 0 15 15.25 A 0.75 0.75 0 0 0 14.542969 14.558594 C 14.542969 14.558594 14.541016 14.558594 14.541016 14.558594 A 0.75 0.75 0 0 0 14.25 14.5 z"/>
</svg>
