<?xml version="1.0"?>
<svg xmlns="http://www.w3.org/2000/svg" viewBox="0 0 24 24">
    <path style="line-height:normal;text-indent:0;text-align:start;text-decoration-line:none;text-decoration-style:solid;text-decoration-color:#000;text-transform:none;block-progression:tb;isolation:auto;mix-blend-mode:normal" d="M 4 2 L 4 4 L 8 4 L 8 2 L 4 2 z M 16 2 L 16 4 L 20 4 L 20 2 L 16 2 z M 1 6 L 1 20 L 23 20 L 23 6 L 1 6 z M 15 10 L 17 10 L 17 12 L 19 12 L 19 14 L 17 14 L 17 16 L 15 16 L 15 14 L 13 14 L 13 12 L 15 12 L 15 10 z M 5 12 L 10 12 L 10 14 L 5 14 L 5 12 z" font-weight="400" font-family="sans-serif" white-space="normal" overflow="visible"/>
</svg>
