<?xml version="1.0"?>
<svg xmlns="http://www.w3.org/2000/svg" viewBox="0 0 24 24">
    <path d="M 13 4 L 13 6.0351562 C 12.324606 6.0155164 11.635267 6 10.890625 6 C 5.000625 6 2 7 2 7 L 2 9.4101562 L 2 12.589844 L 2 17 C 2 17 5.000625 18 10.890625 18 C 11.635267 18 12.324606 17.984484 13 17.964844 L 13 20 L 15 20 L 15 17.875 C 19.501898 17.610157 22 17 22 17 L 22 14.5 L 22 9.5 L 22 7 C 22 7 19.501898 6.3898427 15 6.125 L 15 4 L 13 4 z M 13 8.0195312 C 13.73 8.0295312 14.39 8.0503125 15 8.0703125 L 15 15.929688 C 14.39 15.949687 13.73 15.970469 13 15.980469 L 13 8.0195312 z M 7 8.0996094 L 7 15.900391 C 6.19 15.840391 5.54 15.780938 5 15.710938 L 5 8.2890625 C 5.54 8.2190625 6.19 8.1596094 7 8.0996094 z"/>
</svg>
