<?xml version="1.0"?>
<svg xmlns="http://www.w3.org/2000/svg" viewBox="0 0 24 24">
    <path d="M 2 4 L 2 7 L 22 7 L 22 4 L 2 4 z M 2 10 L 2 20 L 22 20 L 22 10 L 2 10 z M 7.9960938 13 L 8.9960938 13 L 8.9960938 14 L 7.9960938 14 C 7.4450937 14 6.9960938 14.449 6.9960938 15 L 6.9960938 16 C 6.9960938 16.551 7.4450937 17 7.9960938 17 L 8.9960938 17 L 8.9960938 18 L 7.9960938 18 C 6.8910937 18 5.9960938 17.105 5.9960938 16 L 5.9960938 15 C 5.9960938 13.895 6.8910937 13 7.9960938 13 z M 11.5 13 L 13 13 L 13 14 L 11.5 14 C 11.224 14 11 14.224 11 14.5 C 11 14.776 11.224 15 11.5 15 L 12.5 15 C 13.328 15 14 15.672 14 16.5 C 14 17.328 13.328 18 12.5 18 L 10 18 L 10 17 L 12.5 17 C 12.776 17 13 16.776 13 16.5 C 13 16.224 12.776 16 12.5 16 L 11.5 16 C 10.672 16 10 15.328 10 14.5 C 10 13.672 10.672 13 11.5 13 z M 17 13 L 18 13 L 18 14 L 17 14 C 16.449 14 16 14.449 16 15 L 16 16 C 16 16.551 16.449 17 17 17 L 18 17 L 18 18 L 17 18 C 15.895 18 15 17.105 15 16 L 15 15 C 15 13.895 15.895 13 17 13 z"/>
</svg>
