<?xml version="1.0"?>
<svg xmlns="http://www.w3.org/2000/svg" viewBox="0 0 24 24">
    <path d="M 2 4 L 2 20 L 12.388672 20 C 12.145672 19.197 12 18.311031 12 17.332031 L 12 13.380859 L 19 10.269531 L 22 11.601562 L 22 4 L 2 4 z M 5 7 L 8 7 L 8 10 L 5 10 L 5 7 z M 13 8 L 19 8 L 19 10 L 13 10 L 13 8 z M 19 12.457031 L 14 14.679688 L 14 17.332031 C 14 21.682031 17.577 23.714 19 24 C 20.423 23.714 24 21.682031 24 17.332031 L 24 14.679688 L 19 12.457031 z M 5 15 L 7 15 L 7 17 L 5 17 L 5 15 z M 9 15 L 11 15 L 11 17 L 9 17 L 9 15 z"/>
</svg>
