<?xml version="1.0"?>
<svg xmlns="http://www.w3.org/2000/svg" viewBox="0 0 24 24">
    <path d="M 2 4 L 2 7 L 22 7 L 22 4 L 2 4 z M 2 10 L 2 20 L 22 20 L 22 10 L 2 10 z M 6.9960938 13 L 7.9960938 13 L 7.9960938 14 L 6.9960938 14 C 6.4450937 14 5.9960938 14.449 5.9960938 15 L 5.9960938 16 C 5.9960938 16.551 6.4450937 17 6.9960938 17 L 7.9960938 17 L 7.9960938 18 L 6.9960938 18 C 5.8910937 18 4.9960938 17.105 4.9960938 16 L 4.9960938 15 C 4.9960938 13.895 5.8910937 13 6.9960938 13 z M 9.5 13 L 10.568359 13 L 11.5 16.179688 L 12.431641 13 L 13.5 13 L 12.033203 18 L 10.966797 18 L 9.5 13 z M 14.5 13 L 15.568359 13 L 16.5 16.179688 L 17.431641 13 L 18.5 13 L 17.033203 18 L 15.966797 18 L 14.5 13 z"/>
</svg>
