<?xml version="1.0"?>
<svg xmlns="http://www.w3.org/2000/svg" viewBox="0 0 24 24">
    <path style="line-height:normal;text-indent:0;text-align:start;text-decoration-line:none;text-decoration-style:solid;text-decoration-color:#000;text-transform:none;block-progression:tb;isolation:auto;mix-blend-mode:normal" d="M 5 3 C 3.3550302 3 2 4.3550302 2 6 L 2 7 L 2.4160156 7 C 2.5628658 7.3665241 2.7628774 7.7049863 3.0039062 8 L 3 8 L 3 18 L 3 21 L 5 21 L 5 18 L 7 18 L 7 21 L 9 21 L 9 18 L 11 18 L 11 21 L 13 21 L 13 18 L 15 18 L 15 21 L 17 21 L 17 18 L 19 18 L 19 21 L 21 21 L 21 17 L 21 8 L 20.996094 8 C 21.237123 7.7049863 21.437134 7.3665241 21.583984 7 L 22 7 L 22 6 C 22 4.3550302 20.64497 3 19 3 L 5 3 z M 5 5 L 19 5 C 19.56503 5 20 5.4349698 20 6 C 20 6.5650302 19.56503 7 19 7 L 5 7 C 4.4349698 7 4 6.5650302 4 6 C 4 5.4349698 4.4349698 5 5 5 z M 7 9 L 9.5 9 L 12 11.5 L 14.5 9 L 17 9 L 12 14 L 7 9 z M 7.5 13 L 9 14.5 L 7.5 16 L 6 14.5 L 7.5 13 z M 16.5 13 L 18 14.5 L 16.5 16 L 15 14.5 L 16.5 13 z"/>
</svg>
