<?xml version="1.0"?>
<svg xmlns="http://www.w3.org/2000/svg" viewBox="0 0 24 24">
    <path d="M 5.65625 3 L 2.7597656 8.3496094 L 1.7109375 7.2890625 L 0.2890625 8.7109375 L 2 10.410156 L 2 21 L 5 21 L 4.9902344 19 L 19.009766 19 L 19 21 L 22 21 L 22 10.410156 L 23.710938 8.7109375 L 22.289062 7.2890625 L 21.269531 8.3105469 L 18.615234 3 L 6.2695312 3 L 5.65625 3 z M 6.8691406 5 L 17.380859 5 L 19.779297 9.8007812 L 19.589844 10 L 4.4101562 10 L 4.2402344 9.8203125 L 6.8691406 5 z M 8.5 6 A 1.5 1.5 0 0 0 7 7.5 A 1.5 1.5 0 0 0 8.5 9 A 1.5 1.5 0 0 0 10 7.5 A 1.5 1.5 0 0 0 8.5 6 z M 12 6 A 1 1 0 0 0 11 7 A 1 1 0 0 0 12 8 A 1 1 0 0 0 13 7 A 1 1 0 0 0 12 6 z M 15.5 6 A 1.5 1.5 0 0 0 14 7.5 A 1.5 1.5 0 0 0 15.5 9 A 1.5 1.5 0 0 0 17 7.5 A 1.5 1.5 0 0 0 15.5 6 z M 7 13 C 7.55 13 8 13.45 8 14 C 8 14.55 7.55 15 7 15 C 6.45 15 6 14.55 6 14 C 6 13.45 6.45 13 7 13 z M 17 13 C 17.55 13 18 13.45 18 14 C 18 14.55 17.55 15 17 15 C 16.45 15 16 14.55 16 14 C 16 13.45 16.45 13 17 13 z"/>
</svg>
