<?xml version="1.0"?>
<svg xmlns="http://www.w3.org/2000/svg" viewBox="0 0 24 24">
    <path style="line-height:normal;text-indent:0;text-align:start;text-decoration-line:none;text-decoration-style:solid;text-decoration-color:#000;text-transform:none;block-progression:tb;isolation:auto;mix-blend-mode:normal" d="M 12 1 A 2 2 0 0 0 10 3 A 2 2 0 0 0 12 5 A 2 2 0 0 0 14 3 A 2 2 0 0 0 12 1 z M 8.8066406 6 L 3.6289062 8.0722656 L 4.3710938 9.9277344 L 9 8.078125 L 9 10 L 7 10 C 5.3550302 10 4 11.35503 4 13 L 4 14 L 4.4160156 14 C 4.5619662 14.364279 4.761006 14.700349 5 14.994141 L 5 20 L 5 22 L 7 22 L 7 20 L 9 20 L 9 22 L 11 22 L 11 20 L 13 20 L 13 22 L 15 22 L 15 20 L 17 20 L 17 22 L 19 22 L 19 19 L 19 14.994141 C 19.238994 14.700349 19.438034 14.364279 19.583984 14 L 20 14 L 20 13 C 20 11.35503 18.64497 10 17 10 L 15 10 L 15 8.078125 L 19.628906 9.9277344 L 20.371094 8.0722656 L 15.193359 6 L 8.8066406 6 z M 7 12 L 17 12 C 17.56503 12 18 12.43497 18 13 C 18 13.56503 17.56503 14 17 14 L 7 14 C 6.4349698 14 6 13.56503 6 13 C 6 12.43497 6.4349698 12 7 12 z"/>
</svg>
