<?xml version="1.0"?>
<svg xmlns="http://www.w3.org/2000/svg" viewBox="0 0 24 24">
    <path style="line-height:normal;text-indent:0;text-align:start;text-decoration-line:none;text-decoration-style:solid;text-decoration-color:#000;text-transform:none;block-progression:tb;isolation:auto;mix-blend-mode:normal" d="M 7 3 L 7 8 L 9 8 L 9 5 L 10 5 L 10 8 L 12 8 L 12 5 L 13 5 L 13 8 L 15 8 L 15 5 L 20 5 L 20 3 L 7 3 z M 5 6 C 3.346 6 2 7.346 2 9 C 2 9.883 2.391 10.670703 3 11.220703 L 3 19 L 3 21 L 5 21 L 5 19 L 7 19 L 7 21 L 9 21 L 9 19 L 11 19 L 11 21 L 13 21 L 13 19 L 15 19 L 15 21 L 17 21 L 17 19 L 19 19 L 19 21 L 21 21 L 21 18 L 21 11.220703 C 21.609 10.670703 22 9.883 22 9 C 22 7.346 20.654 6 19 6 L 17 6 L 17 8 L 19 8 C 19.551 8 20 8.448 20 9 C 20 9.552 19.551 10 19 10 L 5 10 C 4.449 10 4 9.552 4 9 C 4 8.448 4.449 8 5 8 L 5 6 z M 9 12 L 15 12 L 12 15 L 9 12 z M 7.5 14 L 9 15.5 L 7.5 17 L 6 15.5 L 7.5 14 z M 16.5 14 L 18 15.5 L 16.5 17 L 15 15.5 L 16.5 14 z"/>
</svg>
