<?xml version="1.0"?>
<svg xmlns="http://www.w3.org/2000/svg" viewBox="0 0 24 24">
    <path style="line-height:normal;text-indent:0;text-align:start;text-decoration-line:none;text-decoration-style:solid;text-decoration-color:#000;text-transform:none;block-progression:tb;isolation:auto;mix-blend-mode:normal" d="M 16.800781 1.3964844 L 15.199219 2.5957031 C 15.199219 2.5957031 15.64243 3.1919465 15.873047 4.1152344 C 16.080337 4.9451319 16.117959 5.9328349 15.447266 7.0273438 C 13.067485 5.0891928 10.77093 5.0017961 10.664062 5 L 10.080078 4.9882812 L 9.7832031 5.4921875 L 9.7792969 5.4902344 C 8.3892969 7.8502344 7.2392969 9.8605469 6.2792969 11.560547 C 7.0892969 12.040547 8.3707031 12.920781 9.7207031 14.300781 L 8.2792969 15.699219 C 7.1192969 14.509219 6.0103125 13.740313 5.3203125 13.320312 C 1.3403125 20.650312 1.8898437 21.200156 2.3398438 21.660156 C 2.4998438 21.810156 2.6600781 21.970703 3.0800781 21.970703 C 4.1200781 21.970703 6.7296094 20.990234 14.599609 16.490234 C 14.189609 15.820234 13.470547 14.830469 12.310547 13.730469 L 13.689453 12.269531 C 15.019453 13.529531 15.840078 14.680469 16.330078 15.480469 C 17.020078 15.090469 16.99 15.110156 17.75 14.660156 L 17.751953 14.65625 C 18.228953 14.37825 18.507812 14.214844 18.507812 14.214844 L 19.015625 13.916016 L 19 13.326172 C 18.997309 13.219423 18.897874 10.947484 16.978516 8.5664062 C 19.34047 7.2274981 21.476563 8.6015625 21.476562 8.6015625 L 22.523438 6.8984375 C 22.523438 6.8984375 21.190707 6.1231529 19.373047 6.0410156 L 21.707031 3.7070312 L 20.292969 2.2929688 L 17.96875 4.6171875 C 17.941424 4.2661023 17.889837 3.932663 17.814453 3.6308594 C 17.48257 2.3021472 16.800781 1.3964844 16.800781 1.3964844 z" font-weight="400" font-family="sans-serif" white-space="normal" overflow="visible"/>
</svg>
