<?xml version="1.0"?>
<svg xmlns="http://www.w3.org/2000/svg" viewBox="0 0 24 24">
    <path style="line-height:normal;text-indent:0;text-align:start;text-decoration-line:none;text-decoration-style:solid;text-decoration-color:#000;text-transform:none;block-progression:tb;isolation:auto;mix-blend-mode:normal" d="M 11 2 L 11 4.0664062 C 10.119565 4.1797331 9.2961285 4.4493279 8.6035156 4.9277344 C 7.6535418 5.5839069 7 6.7015 7 8 C 7 9.3333333 7.7250412 10.405633 8.609375 11.142578 C 9.4937088 11.879523 10.552734 12.394531 11.552734 12.894531 C 12.552734 13.394531 13.493709 13.879523 14.109375 14.392578 C 14.725041 14.905633 15 15.333333 15 16 C 15 16.7015 14.757542 17.083907 14.259766 17.427734 C 13.761989 17.771562 12.953602 18 12 18 C 10.331516 18 9 16.668484 9 15 L 7 15 C 7 17.407153 8.7254225 19.431549 11 19.898438 L 11 22 L 13 22 L 13 19.933594 C 13.880435 19.820267 14.703872 19.550672 15.396484 19.072266 C 16.346458 18.416093 17 17.2985 17 16 C 17 14.666667 16.274959 13.594367 15.390625 12.857422 C 14.506291 12.120477 13.447266 11.605469 12.447266 11.105469 C 11.447266 10.605469 10.506291 10.120477 9.890625 9.6074219 C 9.2749588 9.0943667 9 8.6666667 9 8 C 9 7.2985 9.2424582 6.9160931 9.7402344 6.5722656 C 10.238011 6.2284382 11.046398 6 12 6 C 13.668484 6 15 7.3315161 15 9 L 17 9 C 17 6.5928465 15.274577 4.5684515 13 4.1015625 L 13 2 L 11 2 z M 19 3 L 19 9 L 22 6 L 19 3 z M 5 16 L 2 19 L 5 22 L 5 16 z" font-weight="400" font-family="sans-serif" white-space="normal" overflow="visible"/>
</svg>
