<?xml version="1.0"?>
<svg xmlns="http://www.w3.org/2000/svg" viewBox="0 0 24 24">
    <path d="M 17 1 C 14.239 1 12 3.239 12 6 C 12 8.761 14.239 11 17 11 C 19.761 11 22 8.761 22 6 C 22 3.239 19.761 1 17 1 z M 17.677734 3.3046875 L 17.953125 3.3046875 L 17.953125 8.6855469 L 17.951172 8.6855469 L 16.482422 8.6855469 L 16.482422 4.9316406 L 15.179688 5.4355469 L 15.179688 4.3242188 L 17.677734 3.3046875 z M 2 9 L 2 21 L 22 21 L 22 10.890625 C 21.426 11.476625 20.749 11.957453 20 12.314453 L 20 18.087891 A 1.5 1.5 0 0 0 19.087891 19 L 4.9121094 19 A 1.5 1.5 0 0 0 4 18.087891 L 4 11.912109 A 1.5 1.5 0 0 0 4.9121094 11 L 12.109375 11 C 11.522375 10.426 11.042547 9.749 10.685547 9 L 2 9 z M 12 12 A 3 3 0 0 0 9 15 A 3 3 0 0 0 12 18 A 3 3 0 0 0 15 15 A 3 3 0 0 0 12 12 z M 7 14 C 6.448 14 6 14.447 6 15 C 6 15.553 6.448 16 7 16 C 7.552 16 8 15.553 8 15 C 8 14.447 7.552 14 7 14 z M 17 14 C 16.448 14 16 14.447 16 15 C 16 15.553 16.448 16 17 16 C 17.552 16 18 15.553 18 15 C 18 14.447 17.552 14 17 14 z"/>
</svg>
