<?xml version="1.0"?>
<svg xmlns="http://www.w3.org/2000/svg" viewBox="0 0 24 24">
    <path d="M 12 1 L 5 3 L 5 6 L 3 6 C 2.447 6 2 6.447 2 7 L 2 17 C 2 17.553 2.447 18 3 18 L 5 18 L 5 22 L 17.818359 22 L 23.890625 16.310547 L 22.136719 14.320312 L 18 16 L 4.9121094 16 A 1.5 1.5 0 0 0 4 15.087891 L 4 8.9121094 A 1.5 1.5 0 0 0 4.9121094 8 L 5 8 L 18 8 L 19.087891 8 A 1.5 1.5 0 0 0 20 8.9121094 L 20 13 L 22 12 L 22 7 C 22 6.447 21.553 6 21 6 L 18 6 L 18 1 L 12 1 z M 12 9.5 A 2.5 2.5 0 0 0 9.5 12 A 2.5 2.5 0 0 0 12 14.5 A 2.5 2.5 0 0 0 14.5 12 A 2.5 2.5 0 0 0 12 9.5 z M 7 11 C 6.448 11 6 11.447 6 12 C 6 12.553 6.448 13 7 13 C 7.552 13 8 12.553 8 12 C 8 11.447 7.552 11 7 11 z M 17 11 C 16.448 11 16 11.447 16 12 C 16 12.553 16.448 13 17 13 C 17.552 13 18 12.553 18 12 C 18 11.447 17.552 11 17 11 z"/>
</svg>
