<?xml version="1.0"?>
<svg xmlns="http://www.w3.org/2000/svg" viewBox="0 0 24 24">
    <path d="M 3 3 L 3 21 L 9 21 L 9 13 L 21 13 L 21 3 L 3 3 z M 9 6 L 15 6 L 15 8 L 9 8 L 9 6 z M 11 15 L 11 16.75 L 11 24 L 12 24 L 13 24 L 24 24 L 24 15 L 12.75 15 L 11 15 z M 14.480469 17 L 20.519531 17 A 1.75 1.75 0 0 0 22 18.480469 L 22 20.519531 A 1.75 1.75 0 0 0 20.519531 22 L 14.480469 22 A 1.75 1.75 0 0 0 13 20.519531 L 13 18.480469 A 1.75 1.75 0 0 0 14.480469 17 z M 17.5 18 A 1.5 1.5 0 0 0 16 19.5 A 1.5 1.5 0 0 0 17.5 21 A 1.5 1.5 0 0 0 19 19.5 A 1.5 1.5 0 0 0 17.5 18 z"/>
</svg>
