<?xml version="1.0"?>
<svg xmlns="http://www.w3.org/2000/svg" viewBox="0 0 24 24">
    <path d="M 7 2 L 7 5 L 3 5 L 3 15 L 21 15 L 21 5 L 17 5 L 17 2 L 7 2 z M 9 4 L 15 4 L 15 5 L 15 6 L 15 9 L 9 9 L 9 6 L 9 5 L 9 4 z M 8 11 C 8.552 11 9 11.448 9 12 C 9 12.552 8.552 13 8 13 C 7.448 13 7 12.552 7 12 C 7 11.448 7.448 11 8 11 z M 12 11 C 12.552 11 13 11.448 13 12 C 13 12.552 12.552 13 12 13 C 11.448 13 11 12.552 11 12 C 11 11.448 11.448 11 12 11 z M 16 11 C 16.552 11 17 11.448 17 12 C 17 12.552 16.552 13 16 13 C 15.448 13 15 12.552 15 12 C 15 11.448 15.448 11 16 11 z M 3 17 L 3 21 L 21 21 L 21 17 L 13 17 C 13 17.552 12.552 18 12 18 C 11.448 18 11 17.552 11 17 L 3 17 z"/>
</svg>
