<?xml version="1.0"?>
<svg xmlns="http://www.w3.org/2000/svg" viewBox="0 0 24 24">
    <path style="line-height:normal;text-indent:0;text-align:start;text-decoration-line:none;text-decoration-style:solid;text-decoration-color:#000;text-transform:none;block-progression:tb;isolation:auto;mix-blend-mode:normal" d="M 1 3 L 1 4 L 1 21 L 23 21 L 23 3 L 1 3 z M 3 8 L 11 8 L 11 19 L 3 19 L 3 8 z M 13 8 L 21 8 L 21 19 L 13 19 L 13 8 z M 5 11 L 5 13 L 9 13 L 9 11 L 5 11 z M 15 11 L 15 13 L 19 13 L 19 11 L 15 11 z M 5 15 L 5 17 L 8 17 L 8 15 L 5 15 z M 15 15 L 15 17 L 18 17 L 18 15 L 15 15 z" font-weight="400" font-family="sans-serif" white-space="normal" overflow="visible"/>
</svg>
