<?xml version="1.0"?>
<svg xmlns="http://www.w3.org/2000/svg" viewBox="0 0 24 24">
    <path style="line-height:normal;text-indent:0;text-align:start;text-decoration-line:none;text-decoration-style:solid;text-decoration-color:#000;text-transform:none;block-progression:tb;isolation:auto;mix-blend-mode:normal" d="M 7 2 C 4.2233691 2 2 4.2233691 2 7 L 2 8 L 2.1992188 8 C 2.5304476 9.5943624 3.5754533 10.905109 5 11.554688 L 5 22 L 7 22 L 7 16 C 7 16 7.7262856 15.357163 9 15.105469 L 9 22 L 11 22 L 11 15.144531 C 12.064862 15.420104 13 16 13 16 L 13 22 L 15 22 L 15 16 L 17 16 L 17 22 L 19 22 L 19 13.917969 C 18.674 13.968969 18.341 14 18 14 C 14.692 14 12 11.533 12 8.5 L 12 7 L 10 7 C 7.3867614 7 6.1127578 8.4737779 5.5078125 9.6328125 C 4.5850311 9.1433862 4 8.1968408 4 7 C 4 5.2426309 5.2426309 4 7 4 L 7 2 z M 14 3.5 L 14 8.5 C 14 10.4 15.8 12 18 12 C 20.2 12 22 10.4 22 8.5 L 22 3.5 L 20 5.4003906 C 19.4 5.1003906 18.7 5 18 5 C 17.3 5 16.6 5.1003906 16 5.4003906 L 14 3.5 z M 16 7 C 16.6 7 17 7.4 17 8 C 17 8.6 16.6 9 16 9 C 15.4 9 15 8.6 15 8 C 15 7.4 15.4 7 16 7 z M 20 7 C 20.6 7 21 7.4 21 8 C 21 8.6 20.6 9 20 9 C 19.4 9 19 8.6 19 8 C 19 7.4 19.4 7 20 7 z" font-weight="400" font-family="sans-serif" white-space="normal" overflow="visible"/>
</svg>
