<?xml version="1.0"?>
<svg xmlns="http://www.w3.org/2000/svg" viewBox="0 0 24 24">
    <path style="line-height:normal;text-indent:0;text-align:start;text-decoration-line:none;text-decoration-style:solid;text-decoration-color:#000;text-transform:none;block-progression:tb;isolation:auto;mix-blend-mode:normal" d="M 12 2 C 6.4889971 2 2 6.4889971 2 12 C 2 17.511003 6.4889971 22 12 22 C 17.511003 22 22 17.511003 22 12 C 22 6.4889971 17.511003 2 12 2 z M 8 7 L 10 9 L 12 9 L 14 9 L 16 7 L 16 13 C 16 15.209 14.209 17 12 17 C 13.708638 17 15.273357 17.612471 16.488281 18.628906 C 15.209793 19.494334 13.665805 20 12 20 C 10.334195 20 8.7902071 19.494334 7.5117188 18.628906 C 8.7266434 17.612471 10.291362 17 12 17 C 9.791 17 8 15.209 8 13 L 8 7 z M 10 11 A 1 1 0 0 0 9 12 A 1 1 0 0 0 10 13 A 1 1 0 0 0 11 12 A 1 1 0 0 0 10 11 z M 14 11 A 1 1 0 0 0 13 12 A 1 1 0 0 0 14 13 A 1 1 0 0 0 15 12 A 1 1 0 0 0 14 11 z M 12 13 A 1 0.5 0 0 0 11 13.5 A 1 0.5 0 0 0 12 14 A 1 0.5 0 0 0 13 13.5 A 1 0.5 0 0 0 12 13 z" font-weight="400" font-family="sans-serif" white-space="normal" overflow="visible"/>
</svg>
