<?xml version="1.0"?>
<svg xmlns="http://www.w3.org/2000/svg" viewBox="0 0 24 24">
    <path style="line-height:normal;text-indent:0;text-align:start;text-decoration-line:none;text-decoration-style:solid;text-decoration-color:#000;text-transform:none;block-progression:tb;isolation:auto;mix-blend-mode:normal" d="M 11.984375 2.9863281 A 1.0001 1.0001 0 0 0 11.839844 3 L 5 3 C 3.9069372 3 3 3.9069372 3 5 L 3 11.832031 A 1.0001 1.0001 0 0 0 3 12.158203 L 3 19 C 3 20.093063 3.9069372 21 5 21 L 11.832031 21 A 1.0001 1.0001 0 0 0 12.158203 21 L 14.824219 21 A 1.0001 1.0001 0 0 0 15.152344 21 L 19 21 C 20.093063 21 21 20.093063 21 19 L 21 15.126953 A 1.0001 1.0001 0 0 0 21 14.851562 L 21 12.167969 A 1.0001 1.0001 0 0 0 21 11.841797 L 21 5 C 21 3.9069372 20.093063 3 19 3 L 12.154297 3 A 1.0001 1.0001 0 0 0 11.984375 2.9863281 z M 13 5 L 19 5 L 19 11 L 17.146484 11 A 1.0001 1.0001 0 0 0 16.980469 10.990234 A 1.0001 1.0001 0 0 0 16.869141 11 L 13 11 L 13 5 z M 5 13 L 8 13 L 11 13 L 11 16 L 11 16.847656 A 1.0001 1.0001 0 0 0 11 17.179688 L 11 19 L 8 19 L 5 19 L 5 16 L 5 13 z M 5 16 A 1 1 0 0 0 6 17 A 1 1 0 0 0 7 16 A 1 1 0 0 0 6 15 A 1 1 0 0 0 5 16 z M 8 19 A 1 1 0 0 0 9 18 A 1 1 0 0 0 8 17 A 1 1 0 0 0 7 18 A 1 1 0 0 0 8 19 z M 11 16 A 1 1 0 0 0 10 15 A 1 1 0 0 0 9 16 A 1 1 0 0 0 10 17 A 1 1 0 0 0 11 16 z M 8 13 A 1 1 0 0 0 7 14 A 1 1 0 0 0 8 15 A 1 1 0 0 0 9 14 A 1 1 0 0 0 8 13 z M 13 13 L 14.585938 13 L 13 14.585938 L 13 13 z M 17.414062 13 L 19 13 L 19 14.585938 L 14.585938 19 L 13 19 L 13 17.414062 L 17.414062 13 z M 19 17.414062 L 19 19 L 17.414062 19 L 19 17.414062 z"/>
</svg>
