<?xml version="1.0"?>
<svg xmlns="http://www.w3.org/2000/svg" viewBox="0 0 24 24">
    <path d="M 12 2 C 6.486 2 2 6.486 2 12 C 2 17.514 6.486 22 12 22 C 17.514 22 22 17.514 22 12 C 22 6.486 17.514 2 12 2 z M 7.1015625 5.6875 L 9.2460938 7.8320312 C 8.6850938 8.2040312 8.2040312 8.6850938 7.8320312 9.2460938 L 5.6875 7.1015625 C 6.0985 6.5725625 6.5735625 6.0985 7.1015625 5.6875 z M 12 9 C 13.654 9 15 10.346 15 12 C 15 13.654 13.654 15 12 15 C 10.346 15 9 13.654 9 12 C 9 10.346 10.346 9 12 9 z M 12 11 A 1 1 0 0 0 11 12 A 1 1 0 0 0 12 13 A 1 1 0 0 0 13 12 A 1 1 0 0 0 12 11 z M 16.167969 14.753906 L 18.3125 16.898438 C 17.9015 17.426437 17.426437 17.9015 16.898438 18.3125 L 14.753906 16.167969 C 15.314906 15.795969 15.795969 15.314906 16.167969 14.753906 z"/>
</svg>
