<?xml version="1.0"?>
<svg xmlns="http://www.w3.org/2000/svg" viewBox="0 0 24 24">
    <path d="M 4.0996094 6.9003906 C 3.8996094 6.9003906 3.6992187 7.1007813 3.6992188 7.3007812 L 3.6992188 10 L 0.59960938 10 C 0.29960938 10 -7.4014868e-17 10.299609 0 10.599609 L 0 17.5 C 0 17.7 0.29960938 18 0.59960938 18 L 5.5996094 18 C 5.7996094 18 6 17.799609 6 17.599609 L 6 7.3007812 C 6 7.1007812 5.7996094 6.9003906 5.5996094 6.9003906 L 4.0996094 6.9003906 z M 8.4003906 6.9003906 C 7.8003906 6.9003906 7.5996094 7.0992188 7.5996094 7.6992188 L 7.5996094 8.0996094 C 7.5996094 8.7996094 7.8003906 9 8.4003906 9 L 8.5996094 9 C 9.0996094 9 9.4003906 8.7992188 9.4003906 8.1992188 L 8.8007812 8.1992188 L 8.8007812 8.3007812 C 8.8007812 8.5007812 8.7 8.5996094 8.5 8.5996094 C 8.2 8.5996094 8.1992188 8.4992187 8.1992188 8.1992188 L 8.1992188 7.8007812 C 8.1992188 7.5007813 8.2 7.4003906 8.5 7.4003906 C 8.7 7.4003906 8.8007812 7.3996094 8.8007812 7.5996094 L 9.4003906 7.5996094 C 9.4003906 7.0996094 9.1996094 6.9003906 8.5996094 6.9003906 L 8.4003906 6.9003906 z M 10.800781 6.9003906 C 10.200781 6.9003906 10 7.0992187 10 7.6992188 L 10 8.0996094 C 10 8.6996094 10.200781 8.9003906 10.800781 8.9003906 L 10.900391 8.9003906 L 11 8.9003906 C 11.6 8.9003906 11.800781 8.6996094 11.800781 8.0996094 L 11.800781 7.6992188 C 11.800781 7.0992188 11.6 6.9003906 11 6.9003906 L 10.900391 6.9003906 L 10.800781 6.9003906 z M 20.900391 6.9003906 C 20.300391 6.9003906 20.099609 7.0992188 20.099609 7.6992188 L 20.099609 8.0996094 C 20.099609 8.6996094 20.300391 8.9003906 20.900391 8.9003906 L 21.099609 8.9003906 C 21.599609 9.0003906 21.900391 8.7992188 21.900391 8.1992188 L 21.300781 8.1992188 L 21.300781 8.3007812 C 21.300781 8.5007812 21.2 8.5996094 21 8.5996094 C 20.7 8.5996094 20.699219 8.4992187 20.699219 8.1992188 L 20.699219 7.8007812 C 20.699219 7.5007813 20.7 7.4003906 21 7.4003906 C 21.2 7.4003906 21.300781 7.3996094 21.300781 7.5996094 L 21.900391 7.5996094 C 21.900391 7.0996094 21.699609 6.9003906 21.099609 6.9003906 L 20.900391 6.9003906 z M 12.400391 7 L 12.400391 9 L 13 9 L 13 7.5 L 13.400391 9 L 14 9 L 14.400391 7.5 L 14.400391 9 L 14.900391 9 L 14.900391 7 L 14.099609 7 L 13.699219 8.4003906 L 13.300781 7 L 12.400391 7 z M 15.599609 7 L 15.599609 9 L 16.199219 9 L 16.199219 8.4003906 L 16.5 8.4003906 L 16.599609 8.4003906 C 17.099609 8.4003906 17.400391 8.1992188 17.400391 7.6992188 L 17.400391 7.5996094 C 17.400391 7.0996094 17.099609 7 16.599609 7 L 16.5 7 L 15.599609 7 z M 18.300781 7 L 17.699219 9 L 18.300781 9 L 18.400391 8.6992188 L 18.699219 8.6992188 L 19 8.6992188 L 19.099609 9 L 19.699219 9 L 19.099609 7 L 18.699219 7 L 18.300781 7 z M 22.400391 7 L 22.400391 7.4003906 L 22.900391 7.4003906 L 22.900391 9 L 23.5 9 L 23.5 7.4003906 L 24 7.4003906 L 24 7 L 22.400391 7 z M 10.800781 7.4003906 L 10.900391 7.4003906 C 11.200391 7.4003906 11.199219 7.5007813 11.199219 7.8007812 L 11.199219 8.0996094 C 11.199219 8.3996094 11.200391 8.5 10.900391 8.5 L 10.800781 8.5 C 10.500781 8.5 10.5 8.3996094 10.5 8.0996094 L 10.5 7.8007812 C 10.5 7.5007813 10.500781 7.4003906 10.800781 7.4003906 z M 16.199219 7.4003906 L 16.5 7.4003906 L 16.599609 7.4003906 C 16.799609 7.4003906 16.900391 7.3996094 16.900391 7.5996094 L 16.900391 7.6992188 L 16.800781 7.6992188 C 16.800781 7.8992188 16.799609 8 16.599609 8 L 16.5 8 L 16.199219 8 L 16.199219 7.4003906 z M 18.699219 7.4003906 L 18.900391 8.1992188 L 18.699219 8.1992188 L 18.5 8.1992188 L 18.699219 7.4003906 z M 7.8007812 10 C 7.6007813 10 7.5003906 10.200391 7.4003906 10.400391 L 7.4003906 17.599609 C 7.4003906 17.799609 7.6007812 18 7.8007812 18 L 9.5996094 18 C 9.7996094 18 10 17.799609 10 17.599609 L 10 10.400391 C 10 10.200391 9.7996094 10 9.5996094 10 L 7.8007812 10 z M 11.900391 10 C 11.700391 10 11.5 10.200391 11.5 10.400391 L 11.5 14.599609 C 11.5 14.799609 11.700391 15 11.900391 15 L 15.199219 15 L 15.199219 16.199219 L 11.900391 16.199219 C 11.700391 16.199219 11.5 16.399609 11.5 16.599609 L 11.5 17.599609 C 11.5 17.799609 11.700391 18 11.900391 18 L 16.599609 18 C 16.799609 18 17 17.899609 17 17.599609 L 17 13.400391 C 17 13.200391 16.799609 13 16.599609 13 L 13.400391 13 L 13.400391 11.800781 L 16.400391 11.800781 C 16.700391 11.800781 16.800781 11.600391 16.800781 11.400391 L 16.800781 10.400391 C 16.800781 10.200391 16.600391 10 16.400391 10 L 11.900391 10 z M 18.800781 10 C 18.600781 10 18.400391 10.200391 18.400391 10.400391 L 18.400391 17.599609 C 18.400391 17.799609 18.700781 18 18.800781 18 L 23.599609 18 C 23.799609 18 24 17.799609 24 17.599609 L 24 14.800781 L 22.199219 14.800781 L 22.199219 16.400391 C 22.199219 16.600391 22.000781 16.800781 21.800781 16.800781 L 20.599609 16.800781 C 20.399609 16.800781 20.199219 16.600391 20.199219 16.400391 L 20.199219 11.699219 C 20.199219 11.499219 20.399609 11.300781 20.599609 11.300781 L 21.800781 11.300781 C 22.200781 11.300781 22.199219 11.699219 22.199219 11.699219 L 22.199219 13.400391 L 24 13.400391 L 24 10.400391 C 24 10.300391 23.799609 10 23.599609 10 L 18.800781 10 z M 2.4003906 11.5 L 3.5996094 11.5 C 3.7996094 11.5 4 11.700391 4 11.900391 L 4 16.199219 C 4 16.399219 3.7996094 16.599609 3.5996094 16.599609 L 2.4003906 16.599609 C 2.2003906 16.599609 2 16.399219 2 16.199219 L 2 11.900391 C 2 11.700391 2.2003906 11.5 2.4003906 11.5 z"/>
</svg>
