<?xml version="1.0"?>
<svg xmlns="http://www.w3.org/2000/svg" viewBox="0 0 24 24">
    <path d="M 12 2 L 1.0742188 12 L 4.0351562 12 L 12 4.7109375 L 19.964844 12 L 22.925781 12 L 12 2 z M 11 9 L 11 11.1875 C 9.8426699 11.604859 9 12.706841 9 14 C 9 15.64501 10.35499 17 12 17 C 13.64501 17 15 15.64501 15 14 C 15 12.706841 14.15733 11.604859 13 11.1875 L 13 9 L 11 9 z M 6.5 13 A 0.5 0.5 0 0 0 6 13.5 A 0.5 0.5 0 0 0 6.5 14 A 0.5 0.5 0 0 0 7 13.5 A 0.5 0.5 0 0 0 6.5 13 z M 12 13 C 12.564129 13 13 13.435871 13 14 C 13 14.564129 12.564129 15 12 15 C 11.435871 15 11 14.564129 11 14 C 11 13.435871 11.435871 13 12 13 z M 17.5 13 A 0.5 0.5 0 0 0 17 13.5 A 0.5 0.5 0 0 0 17.5 14 A 0.5 0.5 0 0 0 18 13.5 A 0.5 0.5 0 0 0 17.5 13 z M 7.5 16 A 0.5 0.5 0 0 0 7 16.5 A 0.5 0.5 0 0 0 7.5 17 A 0.5 0.5 0 0 0 8 16.5 A 0.5 0.5 0 0 0 7.5 16 z M 16.5 16 A 0.5 0.5 0 0 0 16 16.5 A 0.5 0.5 0 0 0 16.5 17 A 0.5 0.5 0 0 0 17 16.5 A 0.5 0.5 0 0 0 16.5 16 z M 3 19 L 3 21 L 21 21 L 21 19 L 3 19 z"/>
</svg>
