<?xml version="1.0"?>
<svg xmlns="http://www.w3.org/2000/svg" viewBox="0 0 24 24">
    <path d="M 4.9296875 2.9296875 C 1.0326017 6.8267733 1.0326017 13.173227 4.9296875 17.070312 L 6.34375 15.65625 C 3.2108358 12.523336 3.2108358 7.4766642 6.34375 4.34375 L 4.9296875 2.9296875 z M 19.070312 2.9296875 L 17.65625 4.34375 C 20.789164 7.4766642 20.789164 12.523336 17.65625 15.65625 L 19.070312 17.070312 C 22.967399 13.173227 22.967399 6.8267733 19.070312 2.9296875 z M 7.7578125 5.7578125 C 5.4228373 8.0927877 5.4228373 11.907212 7.7578125 14.242188 L 9.171875 12.828125 C 7.6008502 11.2571 7.6008502 8.7428998 9.171875 7.171875 L 7.7578125 5.7578125 z M 16.242188 5.7578125 L 14.828125 7.171875 C 16.39915 8.7428998 16.39915 11.2571 14.828125 12.828125 L 16.242188 14.242188 C 18.577163 11.907212 18.577163 8.0927877 16.242188 5.7578125 z M 12 8 A 2 2 0 0 0 10 10 A 2 2 0 0 0 11 11.730469 L 11 22 L 13 22 L 13 11.728516 A 2 2 0 0 0 14 10 A 2 2 0 0 0 12 8 z"/>
</svg>
