<?xml version="1.0"?>
<svg xmlns="http://www.w3.org/2000/svg" viewBox="0 0 24 24">
    <path d="M 5 3 L 2 7 L 4 7 C 4 8.2905791 4.6855469 9.2143125 5.1855469 9.9140625 C 5.6855469 10.613813 6 11.089595 6 11.666016 C 6 12.242437 5.6855469 12.717969 5.1855469 13.417969 C 4.6855469 14.117969 4 15.041452 4 16.332031 C 4 17.62261 4.6855469 18.548047 5.1855469 19.248047 C 5.6855469 19.948047 6 20.423579 6 21 L 8 21 C 8 19.709421 7.3144531 18.785937 6.8144531 18.085938 C 6.3144531 17.385938 6 16.908452 6 16.332031 C 6 15.75561 6.3144531 15.280078 6.8144531 14.580078 C 7.3144531 13.880078 8 12.956595 8 11.666016 C 8 10.375437 7.3144531 9.4517031 6.8144531 8.7519531 C 6.3144531 8.0522031 6 7.5764209 6 7 L 8 7 L 5 3 z M 8 7 L 10 7 C 10 8.2905791 10.685547 9.2143125 11.185547 9.9140625 C 11.685547 10.613813 12 11.089595 12 11.666016 C 12 12.242437 11.685547 12.717969 11.185547 13.417969 C 10.685547 14.117969 10 15.041452 10 16.332031 C 10 17.62261 10.685547 18.548047 11.185547 19.248047 C 11.685547 19.948047 12 20.423579 12 21 L 14 21 C 14 19.709421 13.314453 18.785937 12.814453 18.085938 C 12.314453 17.385938 12 16.908452 12 16.332031 C 12 15.75561 12.314453 15.280078 12.814453 14.580078 C 13.314453 13.880078 14 12.956595 14 11.666016 C 14 10.375437 13.314453 9.4517031 12.814453 8.7519531 C 12.314453 8.0522031 12 7.5764209 12 7 L 14 7 L 11 3 L 8 7 z M 14 7 L 16 7 C 16 8.2905791 16.685547 9.2143125 17.185547 9.9140625 C 17.685547 10.613813 18 11.089595 18 11.666016 C 18 12.242437 17.685547 12.717969 17.185547 13.417969 C 16.685547 14.117969 16 15.041452 16 16.332031 C 16 17.62261 16.685547 18.548047 17.185547 19.248047 C 17.685547 19.948047 18 20.423579 18 21 L 20 21 C 20 19.709421 19.314453 18.785937 18.814453 18.085938 C 18.314453 17.385938 18 16.908452 18 16.332031 C 18 15.75561 18.314453 15.280078 18.814453 14.580078 C 19.314453 13.880078 20 12.956595 20 11.666016 C 20 10.375437 19.314453 9.4517031 18.814453 8.7519531 C 18.314453 8.0522031 18 7.5764209 18 7 L 20 7 L 17 3 L 14 7 z"/>
</svg>
