<?xml version="1.0"?>
<svg xmlns="http://www.w3.org/2000/svg" viewBox="0 0 24 24">
    <path style="line-height:normal;text-indent:0;text-align:start;text-decoration-line:none;text-decoration-style:solid;text-decoration-color:#000;text-transform:none;block-progression:tb;isolation:auto;mix-blend-mode:normal" d="M 11 1 L 11 3.0605469 C 7.5030401 3.4421868 4.6372344 5.7951406 3.515625 9 L 5.6699219 9 C 6.7829219 6.626 9.179 5 12 5 C 14.821 5 17.217078 6.626 18.330078 9 L 20.484375 9 C 19.362766 5.7951406 16.49696 3.4421868 13 3.0605469 L 13 1 L 11 1 z M 7 9 L 7 11 L 1 11 L 1 13 L 7 13 L 7 15 L 10 12 L 7 9 z M 17 9 L 14 12 L 17 15 L 17 13 L 23 13 L 23 11 L 17 11 L 17 9 z M 12 11 A 1 1 0 0 0 11 12 A 1 1 0 0 0 12 13 A 1 1 0 0 0 13 12 A 1 1 0 0 0 12 11 z M 3.515625 15 C 4.6372344 18.204859 7.5036604 20.557813 11 20.939453 L 11 23 L 13 23 L 13 20.939453 C 16.49634 20.557813 19.362766 18.204859 20.484375 15 L 18.330078 15 C 17.217078 17.374 14.821 19 12 19 C 9.179 19 6.7829219 17.374 5.6699219 15 L 3.515625 15 z"/>
</svg>
