<?xml version="1.0"?>
<svg xmlns="http://www.w3.org/2000/svg" viewBox="0 0 24 24">
    <path style="line-height:normal;text-indent:0;text-align:start;text-decoration-line:none;text-decoration-style:solid;text-decoration-color:#000;text-transform:none;block-progression:tb;isolation:auto;mix-blend-mode:normal" d="M 9 2 C 9 3.3046254 9.8371625 4.4033157 11 4.8164062 L 11 8 L 13 8 L 13 4.8164062 C 14.162838 4.4033157 15 3.3046254 15 2 L 9 2 z M 5 10 A 3 3 0 0 0 2 13 A 3 3 0 0 0 4.0332031 15.835938 C 4.209383 18.151737 6.1413884 20 8.5 20 C 9.9178798 20 11.173381 19.321426 12 18.287109 C 12.826619 19.321426 14.08212 20 15.5 20 C 17.857884 20 19.787622 18.152684 19.964844 15.837891 A 3 3 0 0 0 22 13 A 3 3 0 0 0 19 10 A 3 3 0 0 0 16 13 A 3 3 0 0 0 17.96875 15.8125 C 17.815972 17.052959 16.785442 18 15.5 18 C 14.215884 18 13.185703 17.054974 13.03125 15.816406 A 3 3 0 0 0 15 13 A 3 3 0 0 0 12 10 A 3 3 0 0 0 9 13 A 3 3 0 0 0 10.96875 15.8125 C 10.815972 17.052959 9.7854418 18 8.5 18 C 7.215221 18 6.184866 17.053967 6.03125 15.814453 A 3 3 0 0 0 8 13 A 3 3 0 0 0 5 10 z M 12 20 A 1 1 0 0 0 11 21 A 1 1 0 0 0 12 22 A 1 1 0 0 0 13 21 A 1 1 0 0 0 12 20 z" font-weight="400" font-family="sans-serif" white-space="normal" overflow="visible"/>
</svg>
