<?xml version="1.0"?>
<svg xmlns="http://www.w3.org/2000/svg" viewBox="0 0 24 24">
    <path d="M 5 2 L 5 5.6972656 L 3 8.6972656 L 3 22 L 16.236328 22 L 21 19.617188 L 21 7.5859375 L 19 5.5859375 L 19 2 L 5 2 z M 18.154297 7.5703125 L 19 8.4140625 L 19 18.382812 L 17 19.382812 L 17 9.3027344 L 18.154297 7.5703125 z M 10 9 C 10 9 14 12.791 14 15 C 14 17.071268 12.419733 18.754576 10.402344 18.958984 C 11.313916 18.772568 12 17.966875 12 17 C 12 15.895 10 14 10 14 C 10 14 8 15.895 8 17 C 8 17.966875 8.686084 18.772568 9.5976562 18.958984 C 7.5802675 18.754576 6 17.071268 6 15 C 6 12.791 10 9 10 9 z"/>
</svg>
