<?xml version="1.0"?>
<svg xmlns="http://www.w3.org/2000/svg" viewBox="0 0 24 24">
    <path d="M12,4c-4.418,0-8,3.582-8,8s3.582,8,8,8s8-3.582,8-8S16.418,4,12,4z M14.341,14.555c-0.102,0.344-0.256,0.646-0.463,0.908 s-0.467,0.471-0.779,0.627s-0.68,0.234-1.102,0.234c-0.316,0-0.623-0.056-0.92-0.167s-0.562-0.274-0.794-0.489 s-0.419-0.477-0.56-0.785s-0.213-0.66-0.217-1.055h1.641c0.027,0.355,0.115,0.631,0.264,0.826s0.34,0.293,0.574,0.293 c0.156,0,0.289-0.041,0.398-0.123s0.198-0.193,0.267-0.334s0.117-0.307,0.146-0.498s0.044-0.398,0.044-0.621 s-0.02-0.426-0.059-0.609s-0.101-0.34-0.185-0.469s-0.189-0.229-0.316-0.302s-0.278-0.108-0.454-0.108 c-0.117,0-0.22,0.014-0.308,0.041s-0.164,0.062-0.229,0.105s-0.12,0.093-0.167,0.149s-0.09,0.114-0.129,0.173l-1.318-0.34 l0.422-4.336h4.131v1.418h-2.77l-0.152,1.828c0.047-0.031,0.104-0.065,0.17-0.103s0.143-0.072,0.229-0.105 c0.086-0.033,0.179-0.061,0.278-0.082c0.099-0.021,0.204-0.031,0.313-0.031c0.355,0,0.67,0.064,0.943,0.193 s0.503,0.316,0.688,0.562s0.326,0.547,0.422,0.902s0.144,0.76,0.144,1.213C14.493,13.85,14.442,14.211,14.341,14.555z"/>
</svg>
