<?xml version="1.0"?>
<svg xmlns="http://www.w3.org/2000/svg" viewBox="0 0 24 24">
    <path d="M 3 3 L 3 13 L 5 12 L 5 6 L 19 6 L 19 10.060547 C 19.7 10.150547 20.37 10.329844 21 10.589844 L 21 3 L 3 3 z M 7 8 L 7 13 L 5 14 L 5 21 L 8 21 L 8.6699219 19 L 10.060547 19 C 10.020547 18.67 10 18.34 10 18 C 10 17.31 10.09 16.64 10.25 16 C 10.36 15.57 10.509688 15.159766 10.679688 14.759766 C 10.739688 14.639766 10.799375 14.530156 10.859375 14.410156 C 10.919375 14.280156 10.990547 14.159062 11.060547 14.039062 C 11.270547 13.669062 11.509531 13.33 11.769531 13 L 9 13 L 9 10 L 15 10 L 15 10.580078 L 15 10.589844 C 15.08 10.559844 15.16 10.520234 15.25 10.490234 C 15.32 10.460234 15.400469 10.430156 15.480469 10.410156 C 15.640469 10.360156 15.810703 10.309766 15.970703 10.259766 C 16.310703 10.169766 16.65 10.110547 17 10.060547 L 17 8 L 7 8 z M 18 12 C 14.691 12 12 14.691 12 18 C 12 21.309 14.691 24 18 24 C 21.309 24 24 21.309 24 18 C 24 14.691 21.309 12 18 12 z M 18 14 C 20.206 14 22 15.794 22 18 C 22 20.206 20.206 22 18 22 C 15.794 22 14 20.206 14 18 C 14 15.794 15.794 14 18 14 z M 19.613281 16 L 17.525391 18.164062 L 16.386719 16.984375 L 15.5 17.902344 L 17.525391 20 L 20.5 16.917969 L 19.613281 16 z"/>
</svg>
