<?xml version="1.0"?>
<svg xmlns="http://www.w3.org/2000/svg" viewBox="0 0 24 24">
    <path d="M 12 3 C 9.794 3 8 4.794 8 7 C 8 9.206 9.794 11 12 11 C 14.206 11 16 9.206 16 7 C 16 4.794 14.206 3 12 3 z M 18 12 C 16.186251 12 14.557338 12.816522 13.455078 14.097656 C 12.947202 14.039827 12.45461 14 12 14 C 8.859 14 3 15.546 3 18.5 L 3 21 L 12.814453 21 C 13.855633 22.789045 15.790313 24 18 24 C 21.301864 24 24 21.301864 24 18 C 24 14.698136 21.301864 12 18 12 z M 18 14 C 19.003867 14 19.905651 14.377038 20.605469 14.980469 L 18 17.585938 L 16.707031 16.292969 L 15.292969 17.707031 L 18 20.414062 L 21.755859 16.658203 C 21.904886 17.0789 22 17.52606 22 18 C 22 20.220984 20.220984 22 18 22 C 15.779016 22 14 20.220984 14 18 C 14 15.779016 15.779016 14 18 14 z"/>
</svg>
