<?xml version="1.0"?>
<svg xmlns="http://www.w3.org/2000/svg" viewBox="0 0 24 24">
    <path d="M 4 2 L 4 22 L 11.078125 22 C 10.419125 20.863 10.027953 19.551437 10.001953 18.148438 C 9.9369531 14.659437 12.170172 11.641125 15.451172 10.453125 C 17.076172 9.865125 18.603 9.9017188 20 10.261719 L 20 8 L 14 2 L 4 2 z M 13 3.5 L 18.5 9 L 13 9 L 13 3.5 z M 18 12 C 14.7 12 12 14.7 12 18 C 12 21.3 14.7 24 18 24 C 21.3 24 24 21.3 24 18 C 24 14.7 21.3 12 18 12 z M 20.800781 15.300781 L 22.199219 16.699219 L 17.5 21.400391 L 14.300781 18.199219 L 15.699219 16.800781 L 17.5 18.599609 L 20.800781 15.300781 z"/>
</svg>
