<?xml version="1.0"?>
<svg xmlns="http://www.w3.org/2000/svg" viewBox="0 0 24 24">
    <path style="line-height:normal;text-indent:0;text-align:start;text-decoration-line:none;text-decoration-style:solid;text-decoration-color:#000;text-transform:none;block-progression:tb;isolation:auto;mix-blend-mode:normal" d="M 14.546875 1.109375 C 14.546875 1.109375 13.259181 1.8623743 12.544922 3.2402344 C 12.106606 3.3545829 10.86599 3.7159728 9.4316406 4.8535156 C 7.7924458 6.1535158 6.1661766 8.4655855 6.0273438 12.025391 C 5.9130796 12.011965 5.7967006 12 5.6679688 12 C 3.9769688 12 2 13.0645 2 16.0625 C 2 18.7395 4.29 21 7 21 C 9.36 21 12 18.8885 12 16.0625 C 12 13.0825 9.8060312 12 8.3320312 12 C 8.2218652 12 8.1244303 12.011832 8.0253906 12.021484 C 8.1528985 9.0701006 9.4032577 7.4275762 10.673828 6.4199219 C 10.82762 6.2979535 10.980052 6.1879341 11.130859 6.0859375 C 10.708722 9.0755841 12.021854 11.498672 13.330078 13.070312 C 13.752942 13.90116 14 14.896808 14 16.050781 C 14 17.270781 13.680859 18.380078 13.130859 19.330078 C 13.970859 19.770078 14.909609 20 15.849609 20 C 16.789609 20 17.730547 19.769297 18.560547 19.279297 C 19.710547 18.609297 20.549141 17.419297 20.869141 16.029297 C 21.179141 14.649297 20.939688 13.270625 20.179688 12.140625 C 18.439688 9.530625 15.849063 9.73 14.539062 10.5 C 14.379997 10.593245 14.245246 10.690238 14.125 10.789062 C 13.482353 9.8067028 13.006631 8.6390184 13.027344 7.234375 C 14.145707 8.2043923 15.978217 8.0767602 17 7.7910156 C 17 7.7910156 16.577984 5.5411406 15.333984 4.4941406 C 14.94872 4.1699732 14.65889 3.9547361 14.414062 3.7832031 C 14.827735 3.3024761 15.453125 2.890625 15.453125 2.890625 L 14.546875 1.109375 z" font-weight="400" font-family="sans-serif" white-space="normal" overflow="visible"/>
</svg>
