<?xml version="1.0"?>
<svg xmlns="http://www.w3.org/2000/svg" viewBox="0 0 24 24">
    <path style="line-height:normal;text-indent:0;text-align:start;text-decoration-line:none;text-decoration-style:solid;text-decoration-color:#000;text-transform:none;block-progression:tb;isolation:auto;mix-blend-mode:normal" d="M 3 3.625 L 3 7.625 L 12 13.625 L 21 7.625 L 21 3.625 L 12 9.625 L 3 3.625 z M 3 10 L 3 14 L 12 20 L 14 18.667969 L 14 14.667969 L 12 16 L 3 10 z M 21 10 L 15 14 L 21 14 L 21 10 z M 17 16 L 17 17 L 16 17 L 16 19 L 17 19 L 17 21 L 16 21 L 16 23 L 17 23 L 17 24 L 19 24 L 19 23 L 21 23 L 21 24 L 23 24 L 23 23 L 24 23 L 24 21 L 23 21 L 23 19 L 24 19 L 24 17 L 23 17 L 23 16 L 21 16 L 21 17 L 19 17 L 19 16 L 17 16 z M 19 19 L 21 19 L 21 21 L 19 21 L 19 19 z" font-weight="400" font-family="sans-serif" white-space="normal" overflow="visible"/>
</svg>
