<?xml version="1.0"?>
<svg xmlns="http://www.w3.org/2000/svg" viewBox="0 0 24 24">
    <path d="M 7 2 A 2.5 2.5 0 0 0 4.5 4.5 A 2.5 2.5 0 0 0 7 7 A 2.5 2.5 0 0 0 9.5 4.5 A 2.5 2.5 0 0 0 7 2 z M 17 2 A 2.5 2.5 0 0 0 14.5 4.5 A 2.5 2.5 0 0 0 17 7 A 2.5 2.5 0 0 0 19.5 4.5 A 2.5 2.5 0 0 0 17 2 z M 5 8 C 3.9 8 3 8.89 3 10 L 3 17 L 4 17 L 4 21 L 6 21 L 6 17 L 8 17 L 8 21 L 10 21 L 10 17 L 11 17 L 11 10 C 11 8.89 10.1 8 9 8 L 5 8 z M 15.75 8 C 14.87 8 14.080078 8.5992188 13.830078 9.4492188 L 11.669922 17 L 14 17 L 14 21 L 16 21 L 16 17 L 18 17 L 18 21 L 20 21 L 20 17 L 22.330078 17 L 20.169922 9.4492188 C 19.919922 8.5992188 19.13 8 18.25 8 L 15.75 8 z"/>
</svg>
