<?xml version="1.0"?>
<svg xmlns="http://www.w3.org/2000/svg" viewBox="0 0 24 24">
    <path style="line-height:normal;text-indent:0;text-align:start;text-decoration-line:none;text-decoration-style:solid;text-decoration-color:#000;text-transform:none;block-progression:tb;isolation:auto;mix-blend-mode:normal" d="M 12.751953 2.3457031 L 10.175781 4.9238281 C 8.8386951 6.2609145 7.8906028 7.9347884 7.4316406 9.7695312 L 6.71875 12.623047 L 3.3789062 15.962891 L 4.796875 17.380859 L 2 20.177734 L 6.2421875 21.591797 L 7.625 20.208984 L 9.0351562 21.617188 L 12.380859 18.285156 L 15.238281 17.566406 C 17.067723 17.106281 18.736776 16.158603 20.070312 14.826172 L 22.652344 12.244141 L 21.238281 10.830078 L 21.236328 10.832031 L 14.166016 3.7617188 L 14.167969 3.7597656 L 12.751953 2.3457031 z M 10.894531 7.1347656 L 17.865234 14.103516 C 16.945358 14.818173 15.887271 15.340917 14.75 15.626953 L 11.359375 16.480469 L 9.0371094 18.792969 L 6.2070312 15.962891 L 8.5234375 13.644531 L 9.3710938 10.255859 C 9.6561258 9.1164182 10.179408 8.0563897 10.894531 7.1347656 z" font-weight="400" font-family="sans-serif" white-space="normal" overflow="visible"/>
</svg>
