<?xml version="1.0"?>
<svg xmlns="http://www.w3.org/2000/svg" viewBox="0 0 24 24">
    <path style="line-height:normal;text-indent:0;text-align:start;text-decoration-line:none;text-decoration-style:solid;text-decoration-color:#000;text-transform:none;block-progression:tb;isolation:auto;mix-blend-mode:normal" d="M 9 3 C 9 3 7.7912483 2.9862118 6.5527344 3.6054688 C 5.3142205 4.2247256 4 5.6666667 4 8 L 6 8 C 6 6.3333333 6.6857795 5.7752743 7.4472656 5.3945312 C 8.2087517 5.0137882 9 5 9 5 L 11.638672 5 L 9.7636719 11 L 7 11 L 7 13 L 9.1386719 13 L 7.921875 16.894531 C 7.5290522 18.151263 6.3754509 19 5.0585938 19 L 4 19 L 4 21 L 5.0585938 21 C 7.2417365 21 9.1808541 19.575455 9.8320312 17.492188 L 11.236328 13 L 14 13 L 14 11 L 11.861328 11 L 13.736328 5 L 20 5 L 20 3 L 9 3 z" font-weight="400" font-family="sans-serif" white-space="normal" overflow="visible"/>
</svg>
