<?xml version="1.0"?>
<svg xmlns="http://www.w3.org/2000/svg" viewBox="0 0 24 24">
    <path d="M 12 4 C 9.501 4 6.7074844 4.2292344 4.5214844 4.6152344 C 3.7344844 4.7582344 3.0394531 5.1825937 2.5644531 5.8085938 C 2.0644531 6.4685938 1.8706719 7.2764063 2.0136719 8.0664062 L 3.5292969 17.042969 C 3.8212969 18.209969 4.6912656 19.079672 5.9472656 19.388672 L 6.4960938 19.476562 C 7.7920937 19.685562 9.75 20 12 20 C 13.979 20 16.040578 19.755531 18.142578 19.269531 C 19.415578 18.952531 20.332281 18.004609 20.488281 16.849609 L 21.984375 8.078125 C 22.130375 7.274125 21.935547 6.4685938 21.435547 5.8085938 C 20.961547 5.1825937 20.266609 4.7592344 19.474609 4.6152344 C 17.293609 4.2292344 14.499 4 12 4 z M 12 8 C 14 8 15.599609 8.2007812 16.599609 8.3007812 C 17.199609 8.4007812 17.6 8.9996094 17.5 9.5996094 L 16.699219 15.099609 C 16.599219 15.599609 16.199609 16 15.599609 16 L 8.5 16 C 7.9 16 7.4007813 15.6 7.3007812 15 L 6.5 9.5 C 6.4 9 6.8003906 8.4007812 7.4003906 8.3007812 C 8.4003906 8.2007812 10 8 12 8 z M 10 12 A 1 1 0 0 0 9 13 A 1 1 0 0 0 10 14 A 1 1 0 0 0 11 13 A 1 1 0 0 0 10 12 z M 14 12 A 1 1 0 0 0 13 13 A 1 1 0 0 0 14 14 A 1 1 0 0 0 15 13 A 1 1 0 0 0 14 12 z"/>
</svg>
