<?xml version="1.0"?>
<svg xmlns="http://www.w3.org/2000/svg" viewBox="0 0 24 24">
    <path d="M20.75,9.97C19.6,6.43,15,3,8,3c-3.364,0-6,3.953-6,9s2.636,9,6,9c7.85,0,11.69-3.52,12.75-6.97C21.53,13.58,22,12.83,22,12 S21.52,10.42,20.75,9.97z M4.976,16.518C4.492,15.533,4.161,14.32,4.048,13h2.436L4.976,16.518z M6.484,11H4.048 c0.114-1.32,0.444-2.533,0.928-3.518L6.484,11z M11.024,7.482C11.508,8.467,11.839,9.68,11.952,11H9.516L11.024,7.482z M11.952,13 c-0.114,1.32-0.444,2.533-0.928,3.518L9.516,13H11.952z M9.637,5.643L8,9.462L6.363,5.643C6.866,5.235,7.42,5,8,5 S9.134,5.235,9.637,5.643z M6.363,18.357L8,14.538l1.637,3.819C9.134,18.765,8.58,19,8,19S6.866,18.765,6.363,18.357z"/>
</svg>
