<?xml version="1.0"?>
<svg xmlns="http://www.w3.org/2000/svg" viewBox="0 0 24 24">
    <path style="line-height:normal;text-indent:0;text-align:start;text-decoration-line:none;text-decoration-style:solid;text-decoration-color:#000;text-transform:none;block-progression:tb;isolation:auto;mix-blend-mode:normal" d="M 12 2 L 12 3.9101562 L 6 2.015625 L 6 12 L 5 12 L 5 10 L 3 10 L 3 12 L 2 12 L 2 22 L 10 22 L 17 22 L 18 22 L 22 22 L 22 8 L 18 8 L 18 5.8066406 L 17 5.4902344 L 17 2 L 15 2 L 15 4.859375 L 14 4.5429688 L 14 2 L 12 2 z M 8 4.7441406 L 16 7.2714844 L 16 20 L 14 20 L 14 18.728516 A 2 2 0 0 0 15 17 A 2 2 0 0 0 13 15 A 2 2 0 0 0 11 17 A 2 2 0 0 0 12 18.730469 L 12 20 L 10 20 L 10 12 L 8 12 L 8 4.7441406 z M 9 8 L 9 10 L 15 10 L 15 8 L 9 8 z M 18 10 L 20 10 L 20 12 L 18 12 L 18 10 z M 11 11 L 11 13 L 15 13 L 15 11 L 11 11 z M 4 14 L 8 14 L 8 16 L 4 16 L 4 14 z M 18 14 L 20 14 L 20 16 L 18 16 L 18 14 z M 4 18 L 8 18 L 8 20 L 4 20 L 4 18 z M 18 18 L 20 18 L 20 20 L 18 20 L 18 18 z"/>
</svg>
