<?xml version="1.0"?>
<svg xmlns="http://www.w3.org/2000/svg" viewBox="0 0 24 24">
    <path d="M 6 2 A 2 2 0 0 0 4 4 A 2 2 0 0 0 6 6 A 2 2 0 0 0 8 4 A 2 2 0 0 0 6 2 z M 10 3 L 10 5 L 19 5 L 19 13 L 11 13 L 11 15 L 21 15 L 21 3 L 10 3 z M 5 7 C 3.895 7 3 7.895 3 9 L 3 15 L 9 15 L 9 9 L 15 9 L 15 7 L 9 7 L 8 7 L 5 7 z M 6 17 A 2 2 0 0 0 4 19 A 2 2 0 0 0 6 21 A 2 2 0 0 0 8 19 A 2 2 0 0 0 6 17 z M 12 17 A 2 2 0 0 0 10 19 A 2 2 0 0 0 12 21 A 2 2 0 0 0 14 19 A 2 2 0 0 0 12 17 z M 18 17 A 2 2 0 0 0 16 19 A 2 2 0 0 0 18 21 A 2 2 0 0 0 20 19 A 2 2 0 0 0 18 17 z"/>
</svg>
