<?xml version="1.0"?>
<svg xmlns="http://www.w3.org/2000/svg" viewBox="0 0 24 24">
    <path d="M 5.40625 1.9960938 L 1.9960938 2.0136719 L 2.0039062 4.0136719 L 4.0761719 4.0039062 L 7.3925781 11.962891 L 4.8730469 17 L 19.990234 17 L 19.990234 15 L 8.109375 15 L 9.109375 13 L 17.697266 13 L 22.382812 4.5664062 L 20.634766 3.5957031 L 16.521484 11 L 9.1582031 11 L 5.40625 1.9960938 z M 11.414062 2 L 10 3.4140625 L 11.585938 5 L 10 6.5859375 L 11.414062 8 L 13 6.4140625 L 14.585938 8 L 16 6.5859375 L 14.414062 5 L 16 3.4140625 L 14.585938 2 L 13 3.5859375 L 11.414062 2 z M 8 18 A 2 2 0 0 0 6 20 A 2 2 0 0 0 8 22 A 2 2 0 0 0 10 20 A 2 2 0 0 0 8 18 z M 18 18 A 2 2 0 0 0 16 20 A 2 2 0 0 0 18 22 A 2 2 0 0 0 20 20 A 2 2 0 0 0 18 18 z"/>
</svg>
