<?xml version="1.0"?>
<svg xmlns="http://www.w3.org/2000/svg" viewBox="0 0 24 24">
    <path style="line-height:normal;text-indent:0;text-align:start;text-decoration-line:none;text-decoration-style:solid;text-decoration-color:#000;text-transform:none;block-progression:tb;isolation:auto;mix-blend-mode:normal" d="M 2 3 L 2 21 L 14.005859 21 L 11.003906 17.996094 L 11 15 L 9.7832031 15 L 9 16.976562 L 7 16.976562 L 10.955078 7 L 12.955078 7 L 14.701172 11.361328 L 17.525391 8.5351562 L 22 13.005859 L 22 3 L 2 3 z M 11.960938 9.5117188 L 10.576172 13 L 13.0625 13 L 13.289062 12.773438 L 11.960938 9.5117188 z M 17.527344 11.365234 L 16.820312 12.070312 L 12.361328 16.527344 L 19.064453 23.220703 L 19.892578 23.220703 L 24.642578 18.470703 L 17.527344 11.365234 z M 17.527344 14.191406 L 19.626953 16.289062 L 17.291016 18.625 L 15.191406 16.527344 L 17.527344 14.191406 z" font-weight="400" font-family="sans-serif" white-space="normal" overflow="visible"/>
</svg>
