<?xml version="1.0"?>
<svg xmlns="http://www.w3.org/2000/svg" viewBox="0 0 24 24">
    <path d="M 3 3 L 3 5 L 4 5 L 9 13 L 9 21 L 12.294922 21 C 12.197922 20.676 12.123219 20.342 12.074219 20 L 12.080078 20 C 12.033078 19.673 12 19.34 12 19 C 12 17.67 12.378437 16.431047 13.023438 15.373047 C 13.133437 15.193047 13.251953 15.018609 13.376953 14.849609 C 13.398953 14.820609 13.419406 14.789766 13.441406 14.759766 C 13.563406 14.599766 13.693125 14.447828 13.828125 14.298828 C 13.858125 14.265828 13.886016 14.231219 13.916016 14.199219 C 14.244016 13.850219 14.606 13.534766 15 13.259766 L 15 13 L 20 5 L 21 5 L 21 3 L 20 3 L 4 3 L 3 3 z M 19.007812 14.019531 C 17.627813 14.019531 16.378609 14.572563 15.474609 15.476562 C 14.570609 16.380562 14.017578 17.629766 14.017578 19.009766 C 14.017578 21.769766 16.249766 24 19.009766 24 C 21.769766 24 24 21.770766 24 19.009766 C 23.999 16.252766 21.767813 14.020531 19.007812 14.019531 z M 17.601562 16.179688 L 19.015625 17.59375 L 20.429688 16.179688 L 21.84375 17.59375 L 20.429688 19.007812 L 21.84375 20.421875 L 20.429688 21.835938 L 19.015625 20.421875 L 17.601562 21.835938 L 16.1875 20.421875 L 17.601562 19.007812 L 16.1875 17.59375 L 17.601562 16.179688 z"/>
</svg>
