<?xml version="1.0"?>
<svg xmlns="http://www.w3.org/2000/svg" viewBox="0 0 24 24">
    <path d="M 3 3 L 3 7 L 5 7 L 5 5 L 7 5 L 7 3 L 3 3 z M 17 3 L 17 5 L 19 5 L 19 7 L 21 7 L 21 3 L 17 3 z M 12 5 C 10.346 5 9 6.346 9 8 C 9 9.654 10.346 11 12 11 C 13.654 11 15 9.654 15 8 C 15 6.346 13.654 5 12 5 z M 12 12 C 10.331 12 7 12.837 7 14.5 L 7 17 L 17 17 L 17 14.5 C 17 12.837 13.669 12 12 12 z M 3 17 L 3 21 L 7 21 L 7 19 L 5 19 L 5 17 L 3 17 z M 19 17 L 19 19 L 17 19 L 17 21 L 21 21 L 21 17 L 19 17 z"/>
</svg>
