<?xml version="1.0"?>
<svg xmlns="http://www.w3.org/2000/svg" viewBox="0 0 24 24">
    <path d="M 5 3 L 5 21 L 9 21 L 9 20 L 9.0195312 20 C 9.1165312 18.473 10.201484 17.225781 11.896484 16.550781 C 11.336484 15.866781 11.004 14.987625 11 14.015625 C 10.992 11.955625 12.634453 10.159766 14.689453 10.009766 C 15.542453 9.9477656 16.333 10.143484 17 10.521484 L 17 10.556641 C 17.174 10.659641 17.343 10.771437 17.5 10.898438 C 17.935 10.547437 18.446 10.293531 19 10.144531 L 19 3 L 5 3 z M 9 7 L 11 7 L 11 9 L 9 9 L 9 7 z M 13 7 L 15 7 L 15 9 L 13 9 L 13 7 z M 9 11 L 11 11 L 11 13 L 9 13 L 9 11 z M 15 12 A 2 2 0 0 0 13 14 A 2 2 0 0 0 15 16 A 2 2 0 0 0 17 14 A 2 2 0 0 0 15 12 z M 20 12 A 2 2 0 0 0 18 14 A 2 2 0 0 0 20 16 A 2 2 0 0 0 22 14 A 2 2 0 0 0 20 12 z M 9 15 L 11 15 L 11 17 L 9 17 L 9 15 z M 15 18 C 12.815 18 11 18.908797 11 20.216797 L 11 21 L 16 21 L 19 21 L 24 21 L 24 20.216797 C 24 18.908797 22.185 18 20 18 C 19.054926 18 18.189708 18.177718 17.5 18.476562 C 16.810292 18.177718 15.945074 18 15 18 z"/>
</svg>
