<?xml version="1.0"?>
<svg xmlns="http://www.w3.org/2000/svg" viewBox="0 0 24 24">
    <path d="M 3 3 L 3 8 L 3 9 L 3 20 C 3 20.552 3.448 21 4 21 L 10.587891 21 C 9.7658906 18.972 9.7296562 16.542547 10.972656 14.060547 C 11.637656 12.731547 12.731547 11.638656 14.060547 10.972656 C 16.542547 9.7296562 18.973953 9.7649375 21.001953 10.585938 L 21.001953 8 L 10 8 L 10 3 L 3 3 z M 12 3 L 12 6 L 19 6 L 19 3 L 12 3 z M 18 12 C 14.7 12 12 14.7 12 18 C 12 21.3 14.7 24 18 24 C 21.3 24 24 21.3 24 18 C 24 14.7 21.3 12 18 12 z M 16.599609 15.199219 L 18 16.599609 L 19.400391 15.199219 L 20.800781 16.599609 L 19.400391 18 L 20.800781 19.400391 L 19.400391 20.800781 L 18 19.400391 L 16.599609 20.800781 L 15.199219 19.400391 L 16.599609 18 L 15.199219 16.599609 L 16.599609 15.199219 z"/>
</svg>
