<?xml version="1.0"?>
<svg xmlns="http://www.w3.org/2000/svg" viewBox="0 0 24 24">
    <path d="M 12 4 C 11.448 4 11 4.448 11 5 L 10.5 5.2851562 L 4 9 L 7 9 L 12 6.1425781 L 17 9 L 20 9 L 13.5 5.2851562 L 13 5 C 13 4.448 12.552 4 12 4 z M 2 10 L 2 19 L 22 19 L 22 10 L 2 10 z M 7.0429688 11.800781 L 8.0371094 11.800781 L 8.0371094 16.369141 L 9.9160156 16.369141 L 9.9160156 17.162109 L 9.9140625 17.162109 L 7.0429688 17.162109 L 7.0429688 11.800781 z M 11.830078 11.800781 C 12.191078 11.800781 12.487656 11.91825 12.722656 12.15625 C 13.119656 12.56025 13.318359 13.330797 13.318359 14.466797 C 13.319359 15.621797 13.119656 16.401688 12.722656 16.804688 C 12.487656 17.043688 12.191078 17.162109 11.830078 17.162109 C 11.451078 17.162109 11.144156 17.042687 10.910156 16.804688 C 10.513156 16.401688 10.314453 15.621797 10.314453 14.466797 C 10.314453 13.330797 10.513156 12.56025 10.910156 12.15625 C 11.144156 11.91825 11.451078 11.800781 11.830078 11.800781 z M 18.03125 11.800781 L 20.851562 11.800781 L 20.845703 12.582031 L 18.693359 12.582031 L 18.699219 14.054688 L 20.675781 14.054688 L 20.669922 14.775391 L 18.691406 14.775391 L 18.699219 16.384766 L 20.996094 16.384766 L 20.996094 17.162109 L 18.03125 17.162109 L 18.03125 11.800781 z M 15.609375 11.818359 C 16.939375 11.818359 17.024859 12.807734 17.005859 13.302734 L 16.164062 13.3125 C 16.202063 13.0015 16.077703 12.572266 15.595703 12.572266 C 15.198703 12.572266 15.102469 12.938203 15.105469 13.158203 C 15.112469 13.672203 15.990063 14.178094 16.414062 14.496094 C 16.812062 14.795094 17.152344 15.237313 17.152344 15.695312 C 17.150344 16.154313 17.064078 17.197641 15.580078 17.181641 C 13.864078 17.162641 14.039062 15.503906 14.039062 15.503906 L 14.939453 15.503906 C 14.939453 15.503906 14.785875 16.363563 15.546875 16.351562 C 15.993875 16.344562 16.211078 16.217766 16.205078 15.759766 C 16.197078 15.176766 15.732891 15.120063 14.837891 14.414062 C 14.531891 14.172063 14.233844 13.623703 14.214844 13.220703 C 14.195844 12.817703 14.295375 11.819359 15.609375 11.818359 z M 4.6777344 11.837891 C 5.0377344 11.837891 5.32325 11.938625 5.53125 12.140625 C 5.92925 12.525625 6.1186094 13.047031 6.0996094 13.707031 L 5.3183594 13.712891 C 5.2993594 13.126891 4.9655 12.653578 4.5625 12.642578 C 4.1725 12.631578 3.9082031 13.509578 3.9082031 14.517578 C 3.9082031 15.397578 4.0325 16.367188 4.5625 16.367188 C 4.9195 16.367188 5.2700625 15.802578 5.2890625 15.142578 L 6.1289062 15.138672 C 6.0739063 15.962672 5.8928437 16.521453 5.5898438 16.814453 C 5.3238437 17.071453 5.0103906 17.199219 4.6503906 17.199219 C 4.2893906 17.199219 3.9759375 17.071453 3.7109375 16.814453 C 3.2369375 16.356453 3 15.641922 3 14.669922 C 3 13.533922 3.2555781 12.717656 3.7675781 12.222656 C 4.0325781 11.966656 4.3367344 11.837891 4.6777344 11.837891 z M 11.828125 12.703125 C 11.663125 12.703125 11.513906 12.773156 11.378906 12.910156 C 11.183906 13.108156 11.085937 13.634328 11.085938 14.486328 C 11.085938 15.354328 11.183906 15.887937 11.378906 16.085938 C 11.513906 16.222938 11.663125 16.291016 11.828125 16.291016 C 11.978125 16.291016 12.120859 16.222938 12.255859 16.085938 C 12.450859 15.888938 12.546875 15.354328 12.546875 14.486328 C 12.546875 13.634328 12.449859 13.108156 12.255859 12.910156 C 12.120859 12.772156 11.978125 12.703125 11.828125 12.703125 z"/>
</svg>
