<?xml version="1.0"?>
<svg xmlns="http://www.w3.org/2000/svg" viewBox="0 0 24 24">
    <path d="M 15.042969 1.8671875 L 14.271484 2.6855469 C 14.250484 2.7075469 13.928141 3.0510469 13.494141 3.6230469 C 13.070141 3.0580469 12.756375 2.7163594 12.734375 2.6933594 L 12.007812 1.9023438 L 11.271484 2.6835938 C 11.250484 2.7055937 10.928141 3.0490938 10.494141 3.6210938 C 10.070141 3.0560938 9.756375 2.7144062 9.734375 2.6914062 L 8.9785156 1.8710938 L 8.2460938 2.7148438 C 8.1540937 2.8188438 6 5.335 6 9 C 6 11.980411 8.8918392 13.505492 11 13.890625 L 11 21 C 11 16.809 7.3687031 14.13525 3.9707031 13.03125 L 2.8125 12.65625 L 2.9707031 14.132812 C 3.4837031 18.911812 6.3203125 22 10.195312 22 L 11 22 L 13 22 L 13.804688 22 C 17.680687 22 20.515297 18.911812 21.029297 14.132812 L 21.189453 12.65625 L 20.029297 13.03125 C 16.631297 14.13525 13 16.809 13 21 L 13 13.890625 C 15.108161 13.505492 18 11.980411 18 9 C 18 5.427 15.855625 2.8345625 15.765625 2.7265625 L 15.042969 1.8671875 z"/>
</svg>
