<?xml version="1.0"?>
<svg xmlns="http://www.w3.org/2000/svg" viewBox="0 0 24 24">
    <path d="M 12 3 C 9.108 3 6.6025625 4.6381563 5.3515625 7.0351562 C 2.3425625 7.3591563 0 9.906 0 13 C 0 16.314 2.686 19 6 19 L 6.5957031 19 L 11.929688 11 L 15 11 L 15 15 L 16.263672 15 L 18.923828 11.009766 L 19.212891 11.03125 C 20.775891 11.14225 22 12.447 22 14 L 22 15 L 23.898438 15 C 23.964437 14.677 24 14.343 24 14 C 24 11.36 21.948469 9.2201563 19.355469 9.0351562 C 18.674469 5.5941562 15.641 3 12 3 z M 13 13 L 9 19 L 12 19 L 12 23 L 16 17 L 13 17 L 13 13 z M 20 13 L 16 19 L 19 19 L 19 23 L 23 17 L 20 17 L 20 13 z"/>
</svg>
