<?xml version="1.0"?>
<svg xmlns="http://www.w3.org/2000/svg" viewBox="0 0 24 24">
    <path d="M 6 3 C 4.346 3 3 4.346 3 6 L 3 9 L 7 9 L 7 11 L 9 11 L 9 9 L 13 9 L 13.001953 19 L 8.5996094 19 C 9.4326094 19 10.1595 18.512969 10.4375 17.792969 C 10.6055 17.415969 11 16.372031 11 14.832031 L 11 14 L 5 14 L 5 14.832031 C 5 16.088031 5.309875 17.092859 5.546875 17.755859 C 5.839875 18.511859 6.5673906 19 7.4003906 19 L 3 19 L 3 21 L 21 21 L 21 8 C 21 5.243 18.757 3 16 3 L 6 3 z M 17 14.5 C 17.828 14.5 18.5 15.172 18.5 16 C 18.5 16.828 17.828 17.5 17 17.5 C 16.172 17.5 15.5 16.828 15.5 16 C 15.5 15.172 16.172 14.5 17 14.5 z"/>
</svg>
