<?xml version="1.0"?>
<svg xmlns="http://www.w3.org/2000/svg" viewBox="0 0 24 24">
    <path d="M 10 2 L 10 4 L 13 7 L 13 9.4648438 L 11 10.849609 L 11 7 L 3 7 L 3 20 C 3 21.105 3.895 22 5 22 L 21 22 L 21 17 L 22 17 L 22 15 L 11 15 L 11 13.287109 L 14.324219 11 L 16.414062 11 L 18.957031 8.4570312 L 17.542969 7.0429688 L 15.585938 9 L 15 9 L 15 7 L 18 4 L 18 2 L 10 2 z M 7 10 C 7.552 10 8 10.448 8 11 C 8 11.552 7.552 12 7 12 C 6.448 12 6 11.552 6 11 C 6 10.448 6.448 10 7 10 z M 7 14 C 7.552 14 8 14.448 8 15 C 8 15.552 7.552 16 7 16 C 6.448 16 6 15.552 6 15 C 6 14.448 6.448 14 7 14 z"/>
</svg>
