<?xml version="1.0"?>
<svg xmlns="http://www.w3.org/2000/svg" viewBox="0 0 24 24">
    <path d="M 10 2 C 5.582 2 2 5.582 2 10 C 2 14.418 5.582 18 10 18 C 14.418 18 18 14.418 18 10 C 18 5.582 14.418 2 10 2 z M 9.7128906 3.5996094 L 10.720703 3.5996094 L 10.720703 5.0566406 C 11.041703 5.1176406 12.837891 5.5272969 12.837891 8.1542969 L 10.947266 8.1542969 C 10.947266 6.7812969 10.364141 6.5644531 10.119141 6.5644531 C 9.9851406 6.5644531 9.3652344 6.5995625 9.3652344 7.7265625 C 9.3662344 9.6935625 12.824219 9.0801563 12.824219 12.285156 C 12.824219 14.613156 10.912219 14.928703 10.574219 14.970703 L 10.574219 16.300781 L 9.5722656 16.300781 L 9.5722656 14.970703 C 9.2602656 14.927703 7.1621094 14.696687 7.1621094 11.804688 L 9.0527344 11.804688 C 9.0527344 13.512688 9.9324062 13.441406 10.066406 13.441406 C 10.213406 13.441406 10.935547 13.414828 10.935547 12.298828 C 10.935547 10.069828 7.4765625 11.05975 7.4765625 7.71875 C 7.4765625 5.42875 9.3738906 5.0703438 9.7128906 5.0273438 L 9.7128906 3.5996094 z M 19.890625 8.5996094 C 19.954625 9.0586094 20 9.524 20 10 C 20 15.523 15.523 20 10 20 C 9.524 20 9.0586094 19.954625 8.5996094 19.890625 C 10.023609 21.195625 11.916 22 14 22 C 18.418 22 22 18.418 22 14 C 22 11.916 21.195625 10.023609 19.890625 8.5996094 z"/>
</svg>
