<?xml version="1.0"?>
<svg xmlns="http://www.w3.org/2000/svg" viewBox="0 0 24 24">
    <path d="M 3 3 L 3 10 L 5 10 L 5 12 L 7 10 L 11 10 L 11 3 L 3 3 z M 13 3 L 13 10 L 17 10 L 19 12 L 19 10 L 21 10 L 21 3 L 13 3 z M 7 13 A 2 2 0 0 0 5 15 A 2 2 0 0 0 7 17 A 2 2 0 0 0 9 15 A 2 2 0 0 0 7 13 z M 17 13 A 2 2 0 0 0 15 15 A 2 2 0 0 0 17 17 A 2 2 0 0 0 19 15 A 2 2 0 0 0 17 13 z M 4.9980469 15.001953 C 4.9980469 15.001953 4.051 14.949 3.5 15.5 C 2.949 16.051 3.0019531 16.998047 3.0019531 16.998047 C 3.0019531 16.998047 3.9470469 17.050047 4.4980469 16.498047 C 5.0490469 15.947047 4.9980469 15.001953 4.9980469 15.001953 z M 7 18 C 4.815 18 3 18.908797 3 20.216797 L 3 22 L 11 22 L 11 20.216797 C 11 18.908797 9.185 18 7 18 z M 17 18 C 14.815 18 13 18.908797 13 20.216797 L 13 22 L 21 22 L 21 20.216797 C 21 18.908797 19.185 18 17 18 z"/>
</svg>
