<?xml version="1.0"?>
<svg xmlns="http://www.w3.org/2000/svg" viewBox="0 0 24 24">
    <path d="M 3 3 L 3 11 L 5 9 L 14 9 L 14 3 L 3 3 z M 16 4 L 16 10 L 19 10 L 21 12 L 21 4 L 16 4 z M 7 12 A 2 2 0 0 0 5 14 A 2 2 0 0 0 7 16 A 2 2 0 0 0 9 14 A 2 2 0 0 0 7 12 z M 17 12 A 2 2 0 0 0 15 14 A 2 2 0 0 0 17 16 A 2 2 0 0 0 19 14 A 2 2 0 0 0 17 12 z M 7 18 C 5.665 18 3 18.67 3 20 L 3 21 L 11 21 L 11 20 C 11 18.67 8.335 18 7 18 z M 17 18 C 15.665 18 13 18.67 13 20 L 13 21 L 21 21 L 21 20 C 21 18.67 18.335 18 17 18 z"/>
</svg>
