<?xml version="1.0"?>
<svg xmlns="http://www.w3.org/2000/svg" viewBox="0 0 24 24">
    <path d="M 11 2.0507812 C 8.992 2.2507813 7.1577813 3.0487187 5.6757812 4.2617188 L 9.9804688 8.5664062 C 10.296469 8.3804063 10.636 8.235625 11 8.140625 L 11 2.0507812 z M 13 2.0507812 L 13 8.1425781 C 13.364 8.2365781 13.703531 8.3804063 14.019531 8.5664062 L 18.324219 4.2617188 C 16.842219 3.0487187 15.008 2.2507813 13 2.0507812 z M 4.2617188 5.6757812 C 3.0487188 7.1577813 2.2507812 8.992 2.0507812 11 L 8.1425781 11 C 8.2365781 10.636 8.3804063 10.296469 8.5664062 9.9804688 L 4.2617188 5.6757812 z M 19.738281 5.6757812 L 15.433594 9.9804688 C 15.619594 10.296469 15.764375 10.636 15.859375 11 L 21.949219 11 C 21.749219 8.992 20.951281 7.1577813 19.738281 5.6757812 z M 2.0507812 13 C 2.2507813 15.008 3.0487187 16.842219 4.2617188 18.324219 L 8.5664062 14.019531 C 8.3804063 13.703531 8.235625 13.364 8.140625 13 L 2.0507812 13 z M 15.857422 13 C 15.763422 13.364 15.619594 13.703531 15.433594 14.019531 L 19.738281 18.324219 C 20.951281 16.842219 21.749219 15.008 21.949219 13 L 15.857422 13 z M 9.9804688 15.433594 L 5.6757812 19.738281 C 7.1577813 20.951281 8.992 21.749219 11 21.949219 L 11 15.857422 C 10.636 15.763422 10.296469 15.619594 9.9804688 15.433594 z M 14.019531 15.435547 C 13.703531 15.620547 13.364 15.764375 13 15.859375 L 13 21.949219 C 15.008 21.749219 16.842219 20.951281 18.324219 19.738281 L 14.019531 15.435547 z"/>
</svg>
