<?xml version="1.0"?>
<svg xmlns="http://www.w3.org/2000/svg" viewBox="0 0 24 24">
    <path d="M 12 2 C 8.09 2 5.4605469 4.32 5.0605469 8 L 2 8 L 2 10 L 22 10 L 22 8 L 18.939453 8 C 18.539453 4.32 15.91 2 12 2 z M 12 12 C 10.105876 12 8.5111798 13.341988 8.1054688 15.119141 C 7.8197187 15.046641 7.5235781 15 7.2050781 15 C 6.6590781 15 6.2345312 15.159063 5.7695312 15.539062 C 5.0515312 16.089063 4.8185781 16.989687 5.1425781 17.929688 C 5.7995781 19.859687 8.7649375 22 11.960938 22 C 15.126937 22 18.129891 19.819375 18.837891 17.859375 C 19.151891 16.989375 18.990344 16.160859 18.402344 15.630859 C 18.038344 15.230859 17.512797 15 16.966797 15 C 16.612268 15 16.258908 15.061985 15.904297 15.150391 C 15.510698 13.357213 13.905568 12 12 12 z M 12 14 C 13.116414 14 14 14.883586 14 16 C 14 17.116414 13.116414 18 12 18 C 10.883586 18 10 17.116414 10 16 C 10 14.883586 10.883586 14 12 14 z"/>
</svg>
