<?xml version="1.0"?>
<svg xmlns="http://www.w3.org/2000/svg" viewBox="0 0 24 24">
    <path d="M 4.984375 2.9863281 A 1.0001 1.0001 0 0 0 4.8398438 3 L 4 3 L 3 3 L 3 5 L 4 5 L 4 11 L 3 11 L 3 13 L 4 13 L 4 19 L 3 19 L 3 21 L 4.8320312 21 A 1.0001 1.0001 0 0 0 5.1582031 21 L 8.9375 21 L 9.0605469 20.515625 L 9.4375 19 L 6 19 L 6 5 L 17 5 L 17 9 L 19 9 L 19 5 L 20 5 L 20 3 L 19 3 L 5.1542969 3 A 1.0001 1.0001 0 0 0 4.984375 2.9863281 z M 11.5 8.3320312 C 11.5 8.3320312 9 11.119 9 12.5 C 9 13.881 10.119 15 11.5 15 C 12.881 15 14 13.881 14 12.5 C 14 11.119 11.5 8.3320312 11.5 8.3320312 z M 16 11 L 15 15 L 21 15 L 20 11 L 16 11 z M 12 17 L 11 21 L 17 21 L 16 17 L 12 17 z M 19 17 L 18 21 L 24 21 L 23 17 L 19 17 z"/>
</svg>
