<?xml version="1.0"?>
<svg xmlns="http://www.w3.org/2000/svg" viewBox="0 0 24 24">
    <path d="M 3 3 L 3 19 C 3 20.105 3.895 21 5 21 L 6 21 L 6 19 L 5 19 L 5 8 L 19 8 L 19 13 L 21 13 L 21 3 L 3 3 z M 10.5 15 C 9.121 15 8 16.122 8 17.5 L 8 18.5 C 8 19.878 9.121 21 10.5 21 C 11.708 21 12.717219 20.14 12.949219 19 L 10.5 19 C 10.225 19 10 18.776 10 18.5 L 10 17.5 C 10 17.224 10.225 17 10.5 17 L 12.949219 17 C 12.717219 15.86 11.707 15 10.5 15 z M 14 15 L 14 17 L 16 17 L 16 15 L 14 15 z M 17 15 L 19 21 L 21 21 L 19 15 L 17 15 z M 14 19 L 14 21 L 16 21 L 16 19 L 14 19 z"/>
</svg>
