<?xml version="1.0"?>
<svg xmlns="http://www.w3.org/2000/svg" viewBox="0 0 24 24">
    <path d="M 2 4 L 2 18 L 0 18 L 0 20 L 13.171875 20 L 14.101562 19.070312 C 14.038562 18.722313 14 18.366 14 18 C 14 17.298 14.126609 16.627 14.349609 16 L 4 16 L 4 6 L 20 6 L 20.001953 12 C 20.683953 12 21.352 12.122469 22 12.355469 L 22 4 L 2 4 z M 20 14 C 17.791 14 16 15.791 16 18 C 16 18.585639 16.133195 19.137377 16.359375 19.638672 L 14 22 L 16 24 L 18.359375 21.640625 C 18.86108 21.867251 19.413749 22 20 22 C 22.209 22 24 20.209 24 18 C 24 17.414 23.867625 16.860375 23.640625 16.359375 L 21 19 L 19 17 L 21.640625 14.359375 C 21.139625 14.132375 20.586 14 20 14 z"/>
</svg>
