<?xml version="1.0"?>
<svg xmlns="http://www.w3.org/2000/svg" viewBox="0 0 24 24">
    <path d="M 2 4 L 2 5.5820312 L 12 12 L 22 5.5820312 L 22 4 L 2 4 z M 2 7.7519531 L 2 20 L 16.171875 20 L 13.585938 17.414062 L 13 16.828125 L 13 16 L 13 14 L 13 13.375 L 12 14 L 2 7.7519531 z M 22 7.7519531 L 15.201172 12 L 17 12 L 17.828125 12 L 18.414062 12.585938 L 22 16.171875 L 22 7.7519531 z M 15 14 L 15 16 L 20.146484 21.146484 L 22.146484 19.146484 L 17 14 L 15 14 z M 22.853516 19.853516 L 20.853516 21.853516 L 21.853516 22.853516 C 22.048516 23.048516 22.364547 23.048516 22.560547 22.853516 L 23.853516 21.560547 C 24.048516 21.365547 24.048516 21.048516 23.853516 20.853516 L 22.853516 19.853516 z"/>
</svg>
