<?xml version="1.0"?>
<svg xmlns="http://www.w3.org/2000/svg" viewBox="0 0 24 24">
    <path d="M 2 3 L 2 21 L 12 21 L 22 21 L 22 7 L 12 7 L 12 3 L 2 3 z M 4 5 L 6 5 L 6 7 L 4 7 L 4 5 z M 8 5 L 10 5 L 10 7 L 8 7 L 8 5 z M 4 9 L 6 9 L 6 11 L 4 11 L 4 9 z M 8 9 L 10 9 L 10 11 L 8 11 L 8 9 z M 12 9 L 20 9 L 20 19 L 12 19 L 12 17 L 14 17 L 14 15 L 12 15 L 12 13 L 14 13 L 14 11 L 12 11 L 12 9 z M 16 11 L 16 13 L 18 13 L 18 11 L 16 11 z M 4 13 L 6 13 L 6 15 L 4 15 L 4 13 z M 8 13 L 10 13 L 10 15 L 8 15 L 8 13 z M 16 15 L 16 17 L 18 17 L 18 15 L 16 15 z M 4 17 L 6 17 L 6 19 L 4 19 L 4 17 z M 8 17 L 10 17 L 10 19 L 8 19 L 8 17 z"/>
</svg>
