<?xml version="1.0"?>
<svg xmlns="http://www.w3.org/2000/svg" viewBox="0 0 24 24">
    <path d="M 12 2 C 12 2 10.0548 3.5354107 9.3066406 5 L 8 5 C 6.895 5 6 5.895 6 7 C 6 7.3660536 6.1058114 7.7049394 6.2773438 8 L 5 8 C 3.895 8 3 8.895 3 10 C 3 11.105 3.895 12 5 12 L 19 12 C 20.105 12 21 11.105 21 10 C 21 8.895 20.105 8 19 8 L 17.722656 8 C 17.894189 7.7049394 18 7.3660536 18 7 C 18 5.895 17.105 5 16 5 L 14.693359 5 C 13.9452 3.5354107 12 2 12 2 z M 4 14 L 5 21 L 19 21 L 20 14 L 4 14 z"/>
</svg>
