<?xml version="1.0"?>
<svg xmlns="http://www.w3.org/2000/svg" viewBox="0 0 24 24">
    <path style="line-height:normal;text-indent:0;text-align:start;text-decoration-line:none;text-decoration-style:solid;text-decoration-color:#000;text-transform:none;block-progression:tb;isolation:auto;mix-blend-mode:normal" d="M 4 4 A 3 3 0 0 0 1.1738281 6 L 0 6 L 0 8 L 1.1757812 8 A 3 3 0 0 0 4 10 A 3 3 0 0 0 6.8261719 8 L 9.1757812 8 A 3 3 0 0 0 12 10 A 3 3 0 0 0 14.826172 8 L 17.175781 8 A 3 3 0 0 0 20 10 A 3 3 0 0 0 22.826172 8 L 24 8 L 24 6 L 22.824219 6 A 3 3 0 0 0 20 4 A 3 3 0 0 0 17.173828 6 L 14.824219 6 A 3 3 0 0 0 12 4 A 3 3 0 0 0 9.1738281 6 L 6.8242188 6 A 3 3 0 0 0 4 4 z M 4 14 A 3 3 0 0 0 1.1738281 16 L 0 16 L 0 18 L 1.1757812 18 A 3 3 0 0 0 4 20 A 3 3 0 0 0 6.8261719 18 L 9.1757812 18 A 3 3 0 0 0 12 20 A 3 3 0 0 0 14.826172 18 L 17.175781 18 A 3 3 0 0 0 20 20 A 3 3 0 0 0 22.826172 18 L 24 18 L 24 16 L 22.824219 16 A 3 3 0 0 0 20 14 A 3 3 0 0 0 17.173828 16 L 14.824219 16 A 3 3 0 0 0 12 14 A 3 3 0 0 0 9.1738281 16 L 6.8242188 16 A 3 3 0 0 0 4 14 z"/>
</svg>
