<?xml version="1.0"?>
<svg xmlns="http://www.w3.org/2000/svg" viewBox="0 0 24 24">
    <path d="M12,2C6.477,2,2,6.477,2,12c0,5.523,4.477,10,10,10s10-4.477,10-10C22,6.477,17.523,2,12,2z M12,4 c4.079,0,7.438,3.055,7.931,7L15,10l1.388-2.082C15.293,6.741,13.735,6,12,6c-2.909,0-5.315,2.077-5.864,4.825l-1.968-0.399 C4.9,6.763,8.122,4,12,4z M12,20c-4.079,0-7.438-3.055-7.931-7L9,14l-1.388,2.082C8.707,17.259,10.265,18,12,18 c2.909,0,5.315-2.077,5.864-4.825l1.968,0.399C19.1,17.237,15.878,20,12,20z"/>
</svg>
