<?xml version="1.0"?>
<svg xmlns="http://www.w3.org/2000/svg" viewBox="0 0 24 24">
    <path d="M 2.8046875 2 L 2 4.890625 L 3.6582031 6.390625 L 4.1054688 4.8125 L 5.3125 5.3398438 L 5.9902344 9 C 6.1112344 9.484 6.4073125 9.9027344 6.8203125 10.177734 L 9.5273438 11.917969 L 8.53125 17 L 13 17 L 13.726562 13.533203 L 16.53125 17 L 19.21875 17 L 14.509766 10.8125 C 14.225766 10.5525 13.873234 10.380406 13.490234 10.316406 L 11.205078 10.025391 C 10.812078 9.9753906 10.432844 9.8493437 10.089844 9.6523438 L 7.8769531 8.3828125 L 7.2675781 5.0742188 L 4.3730469 3.8476562 L 4.7304688 2.5351562 L 2.8046875 2 z M 13 4.9980469 A 2 2 0 0 0 11 6.9980469 A 2 2 0 0 0 13 8.9980469 A 2 2 0 0 0 15 6.9980469 A 2 2 0 0 0 13 4.9980469 z M 4 19 L 4 21 L 22 21 L 22 19 L 4 19 z"/>
</svg>
