<?xml version="1.0"?>
<svg xmlns="http://www.w3.org/2000/svg" viewBox="0 0 24 24">
    <path style="line-height:normal;text-indent:0;text-align:start;text-decoration-line:none;text-decoration-style:solid;text-decoration-color:#000;text-transform:none;block-progression:tb;isolation:auto;mix-blend-mode:normal" d="M 5 2 C 3.346 2 2 3.346 2 5 L 2 7 L 4 7 L 4 20 L 9 20 L 9 18 L 6 18 L 6 7 L 17 7 L 17 5 C 17 4.449 17.448 4 18 4 C 18.56503 4 19 4.4349698 19 5 L 19 20 L 21 20 L 21 5 C 21 3.3550302 19.64497 2 18 2 L 5 2 z M 8 10 L 8 12 L 17 12 L 17 10 L 8 10 z M 8 14 L 8 16 L 10 16 L 10 14 L 8 14 z M 14 14 C 12.35499 14 11 15.35499 11 17 C 11 17.876407 11.391843 18.662168 12 19.212891 L 12 22.804688 L 14 21.554688 L 16 22.804688 L 16 19.212891 C 16.608157 18.662168 17 17.876407 17 17 C 17 15.35499 15.64501 14 14 14 z M 14 16 C 14.564129 16 15 16.435871 15 17 C 15 17.564129 14.564129 18 14 18 C 13.435871 18 13 17.564129 13 17 C 13 16.435871 13.435871 16 14 16 z" font-weight="400" font-family="sans-serif" white-space="normal" overflow="visible"/>
</svg>
