<?xml version="1.0"?>
<svg xmlns="http://www.w3.org/2000/svg" viewBox="0 0 24 24">
    <path d="M 5 2 L 5 6.9941406 C 5.961 6.2791406 7.1821563 5.8893437 8.5351562 6.0273438 C 10.942156 6.2723438 12.875187 8.3232344 12.992188 10.740234 C 13.063187 12.212234 12.525328 13.526562 11.611328 14.476562 C 14.328328 15.262562 16 16.97275 16 19.21875 L 16 22 L 21 22 L 21 8 L 15 2 L 5 2 z M 14 3.5 L 19.5 9 L 14 9 L 14 3.5 z M 8 8 C 6.3549904 8 5 9.3549904 5 11 C 5 12.64501 6.3549904 14 8 14 C 9.6450096 14 11 12.64501 11 11 C 11 9.3549904 9.6450096 8 8 8 z M 8 16 C 6.5235516 16 5.1652139 16.232561 4.0800781 16.699219 C 3.5375102 16.932548 3.0571732 17.224793 2.671875 17.630859 C 2.2865768 18.036925 2 18.600679 2 19.216797 L 2 22 L 14 22 L 14 21 L 14 19.216797 C 14 18.600679 13.713423 18.036925 13.328125 17.630859 C 12.942827 17.224793 12.46249 16.932548 11.919922 16.699219 C 10.834786 16.232561 9.4764484 16 8 16 z"/>
</svg>
