<?xml version="1.0"?>
<svg xmlns="http://www.w3.org/2000/svg" viewBox="0 0 24 24">
    <path d="M 1 4 L 1 18 L 3.0507812 18 C 3.2958204 19.692046 4.7411114 21 6.5 21 C 8.2588886 21 9.7041796 19.692046 9.9492188 18 L 15.050781 18 C 15.300781 19.69 16.74 21 18.5 21 C 20.26 21 21.699219 19.69 21.949219 18 L 24 18 L 24 12.5 L 20.611328 7 L 18.960938 7 L 14 7 L 14 4 L 1 4 z M 4 8 L 6 8 L 6 13 L 4 13 L 4 8 z M 9 8 L 11 8 L 11 13 L 9 13 L 9 8 z M 14 9 L 18.960938 9 L 19.517578 9 L 21.998047 13.019531 C 21.998047 13.021531 22 13.023391 22 13.025391 L 22 16 L 21.650391 16 C 21.080391 14.82 19.89 14 18.5 14 C 17.11 14 15.919609 14.82 15.349609 16 L 14 16 L 14 9 z M 6.5 16 C 7.327 16 8 16.673 8 17.5 C 8 18.327 7.327 19 6.5 19 C 5.673 19 5 18.327 5 17.5 C 5 16.673 5.673 16 6.5 16 z M 18.5 16 C 19.33 16 20 16.67 20 17.5 C 20 18.33 19.33 19 18.5 19 C 17.67 19 17 18.33 17 17.5 C 17 16.67 17.67 16 18.5 16 z"/>
</svg>
