<?xml version="1.0"?>
<svg xmlns="http://www.w3.org/2000/svg" viewBox="0 0 24 24">
    <path d="M 13.832031 3.4453125 L 12.167969 4.5546875 L 15.130859 9 L 9 9 L 9 6 L 7 6 L 7 9 L 4.8808594 9 L 0 10.216797 L 0 18 L 2.5566406 18 C 3.250559 19.189336 4.5262211 20 6 20 C 7.4737789 20 8.749441 19.189336 9.4433594 18 L 14.556641 18 C 15.250559 19.189336 16.526221 20 18 20 C 19.473779 20 20.749441 19.189336 21.443359 18 L 24 18 L 24 11.820312 L 24 10.125 L 17.587891 9.0800781 L 13.832031 3.4453125 z M 6 14 C 7.103 14 8 14.897 8 16 C 8 17.103 7.103 18 6 18 C 4.897 18 4 17.103 4 16 C 4 14.897 4.897 14 6 14 z M 18 14 C 19.103 14 20 14.897 20 16 C 20 17.103 19.103 18 18 18 C 16.897 18 16 17.103 16 16 C 16 14.897 16.897 14 18 14 z"/>
</svg>
