<?xml version="1.0"?>
<svg xmlns="http://www.w3.org/2000/svg" viewBox="0 0 24 24">
    <path d="M 9 2 L 9 6 L 4.5859375 10 L 19.414062 10 L 15 6 L 15 2 L 9 2 z M 2 12 L 2 16 L 22 16 L 22 12 L 2 12 z M 6 18 C 6 19.061111 5.9154673 19.02419 5.6601562 19.419922 C 5.4048452 19.815654 5 20.616667 5 22 L 7 22 C 7 20.883333 7.0951547 20.883174 7.3398438 20.503906 C 7.5845326 20.124638 8 19.338889 8 18 L 6 18 z M 11 18 C 11 19.061111 10.91547 19.02419 10.660156 19.419922 C 10.404845 19.815654 10 20.616667 10 22 L 12 22 C 12 20.883333 12.09516 20.883174 12.339844 20.503906 C 12.584533 20.124638 13 19.338889 13 18 L 11 18 z M 16 18 C 16 19.061111 15.91547 19.02419 15.660156 19.419922 C 15.404845 19.815654 15 20.616667 15 22 L 17 22 C 17 20.883333 17.09515 20.883174 17.339844 20.503906 C 17.584533 20.124638 18 19.338889 18 18 L 16 18 z"/>
</svg>
