<?xml version="1.0"?>
<svg xmlns="http://www.w3.org/2000/svg" viewBox="0 0 24 24">
    <path style="line-height:normal;text-indent:0;text-align:start;text-decoration-line:none;text-decoration-style:solid;text-decoration-color:#000;text-transform:none;block-progression:tb;isolation:auto;mix-blend-mode:normal" d="M 6 2 L 6 3 L 3 3 L 3 9 L 21 9 L 21 3 L 18 3 L 18 2 L 14 2 L 14 3 L 11 3 L 11 2 L 6 2 z M 6 5 C 6.552 5 7 5.448 7 6 C 7 6.552 6.552 7 6 7 C 5.448 7 5 6.552 5 6 C 5 5.448 5.448 5 6 5 z M 9 5 C 9.552 5 10 5.448 10 6 C 10 6.552 9.552 7 9 7 C 8.448 7 8 6.552 8 6 C 8 5.448 8.448 5 9 5 z M 12 5 C 12.552 5 13 5.448 13 6 C 13 6.552 12.552 7 12 7 C 11.448 7 11 6.552 11 6 C 11 5.448 11.448 5 12 5 z M 18 5 C 18.552 5 19 5.448 19 6 C 19 6.552 18.552 7 18 7 C 17.448 7 17 6.552 17 6 C 17 5.448 17.448 5 18 5 z M 3 11 L 3 21 L 21 21 L 21 11 L 3 11 z M 6 14 L 18 14 L 18 18 L 6 18 L 6 14 z" font-weight="400" font-family="sans-serif" white-space="normal" overflow="visible"/>
</svg>
