<?xml version="1.0"?>
<svg xmlns="http://www.w3.org/2000/svg" viewBox="0 0 24 24">
    <path d="M 10 1 C 8.696 1 7.5965938 1.837 7.1835938 3 L 3 3 L 3 18 L 9 18 L 9 20 L 9 22 L 11 22 L 13 22 L 13 20 L 11 20 L 11 18 L 17 18 L 17 12 L 19 12 L 19 14 L 21 14 L 21 12 L 21 10 L 19 10 L 17 10 L 17 3 L 12.816406 3 C 12.403406 1.837 11.304 1 10 1 z M 10 3 C 10.552 3 11 3.448 11 4 C 11 4.552 10.552 5 10 5 C 9.448 5 9 4.552 9 4 C 9 3.448 9.448 3 10 3 z M 9 10 L 11 10 L 13 10 L 13 12 L 11 12 L 11 14 L 9 14 L 9 12 L 9 10 z M 19 18 L 19 20 L 17 20 L 17 22 L 19 22 L 21 22 L 21 20 L 21 18 L 19 18 z"/>
</svg>
