<?xml version="1.0"?>
<svg xmlns="http://www.w3.org/2000/svg" viewBox="0 0 24 24">
    <path style="line-height:normal;text-indent:0;text-align:start;text-decoration-line:none;text-decoration-style:solid;text-decoration-color:#000;text-transform:none;block-progression:tb;isolation:auto;mix-blend-mode:normal" d="M 3 3 L 3 20 L 5 20 L 5 14 L 7.3691406 14 L 7.3691406 13.990234 C 7.1891406 13.220234 7.0096094 12.56 6.8496094 12 L 5 12 L 5 7 C 6.383115 7 7.0921732 7.6370402 7.7695312 8.8476562 C 8.4066939 9.9864321 8.8366155 11.607781 9.234375 13.214844 C 9.2597668 13.31615 9.2851551 13.406245 9.3105469 13.509766 C 9.3505469 13.679766 9.3894531 13.84 9.4394531 14 L 9.4433594 14 C 9.8098052 15.471911 10.16505 16.788699 10.669922 17.830078 C 10.951429 18.410731 11.282947 18.927467 11.748047 19.332031 C 12.213147 19.736596 12.844473 20 13.5 20 C 14.155527 20 14.786853 19.736596 15.251953 19.332031 C 15.717053 18.927467 16.048571 18.410731 16.330078 17.830078 C 16.83495 16.788699 17.190195 15.471911 17.556641 14 L 22 14 L 22 12 L 18.091797 12 C 18.409792 10.825444 18.756672 9.6943177 19.230469 8.8476562 C 19.907918 7.6370713 20.616885 7 22 7 L 22 5 C 19.881115 5 18.365426 6.2966788 17.484375 7.8710938 C 16.603324 9.4455087 16.160196 11.332069 15.742188 13.037109 C 15.334606 14.701192 14.947783 16.095791 14.529297 16.958984 C 14.320054 17.390581 14.106291 17.677143 13.939453 17.822266 C 13.772615 17.967389 13.684973 18 13.5 18 C 13.315027 18 13.227385 17.967389 13.060547 17.822266 C 12.893709 17.677143 12.679946 17.390581 12.470703 16.958984 C 12.141293 16.279525 11.829412 15.210234 11.513672 14 L 13.429688 14 C 13.589687 13.42 13.720781 12.890547 13.800781 12.560547 C 13.850781 12.380547 13.889453 12.19 13.939453 12 L 11 12 C 10.643846 10.59166 10.221456 9.1325979 9.515625 7.8710938 C 8.6347332 6.2967099 7.118885 5 5 5 L 5 3 L 3 3 z" font-weight="400" font-family="sans-serif" white-space="normal" overflow="visible"/>
</svg>
