<?xml version="1.0"?>
<svg xmlns="http://www.w3.org/2000/svg" viewBox="0 0 24 24">
    <path style="line-height:normal;text-indent:0;text-align:start;text-decoration-line:none;text-decoration-style:solid;text-decoration-color:#000;text-transform:none;block-progression:tb;isolation:auto;mix-blend-mode:normal" d="M 6.5 2 C 5.1311328 2 4 3.1311328 4 4.5 C 4 5.8688672 5.1311328 7 6.5 7 C 7.8688672 7 9 5.8688672 9 4.5 C 9 3.1311328 7.8688672 2 6.5 2 z M 16 2 C 13.794 2 12 3.794 12 6 C 12 6.343 12.052672 6.6788594 12.138672 7.0058594 C 12.092672 7.0048594 12.046 7 12 7 C 6.486 7 2 10.364 2 14.5 C 2 18.636 6.486 22 12 22 C 17.514 22 22 18.636 22 14.5 C 22 12.345 20.784078 10.3445 18.705078 8.9375 C 19.508078 8.2035 20 7.156 20 6 C 20 3.794 18.206 2 16 2 z M 6.5 4 C 6.787987 4 7 4.212013 7 4.5 C 7 4.787987 6.787987 5 6.5 5 C 6.212013 5 6 4.787987 6 4.5 C 6 4.212013 6.212013 4 6.5 4 z M 16 4 C 17.103 4 18 4.897 18 6 C 18 6.792 17.541703 7.4856406 16.845703 7.8066406 C 16.206703 7.9996406 16.393594 8.5538125 16.558594 8.7578125 C 16.833594 9.0978125 17 9.528 17 10 C 17 11.105 16.105 12 15 12 C 13.895 12 13 11.105 13 10 C 13 9.004 13.496141 8.5049062 13.994141 8.2539062 C 14.496141 8.0009062 14.640516 7.6406719 14.353516 7.1386719 C 14.160516 6.8026719 14 6.401 14 6 C 14 4.897 14.897 4 16 4 z M 5 15 L 7.0078125 15 C 7.0648125 15.955 8.7460938 17 10.996094 17 L 10.996094 19 C 7.6570937 19 5.039 17.246 5 15 z" font-weight="400" font-family="sans-serif" white-space="normal" overflow="visible"/>
</svg>
