<?xml version="1.0"?>
<svg xmlns="http://www.w3.org/2000/svg" viewBox="0 0 24 24">
    <path d="M 11.5 2 C 9.015 2 7 4.015 7 6.5 C 7 9.875 11.5 14.375 11.5 14.375 C 11.5 14.375 16 9.875 16 6.5 C 16 4.015 13.985 2 11.5 2 z M 11.5 5 C 12.328 5 13 5.672 13 6.5 C 13 7.328 12.328 8 11.5 8 C 10.672 8 10 7.328 10 6.5 C 10 5.672 10.672 5 11.5 5 z M 17.935547 5.6386719 C 17.973547 5.9216719 18 6.207 18 6.5 C 18 6.562 17.990281 6.6255 17.988281 6.6875 C 17.981281 6.9065 17.954828 7.1286094 17.923828 7.3496094 C 17.912828 7.4196094 17.903625 7.4885938 17.890625 7.5585938 C 17.236625 11.356594 13.390063 15.313063 12.914062 15.789062 L 11.5 17.203125 L 10.085938 15.789062 C 9.7059375 15.409062 7.1779375 12.812609 5.8359375 9.8496094 L 5.8359375 9.8476562 C 5.5139375 9.1366562 5.1269531 7.6777344 5.1269531 7.6777344 L 1.9863281 12 L 5 17.277344 L 5 19.650391 L 11.097656 22.054688 L 13.222656 20.072266 L 17.078125 21.970703 L 20 20 C 19.486 19.013 19.146891 18.103047 19.087891 17.998047 C 19.388891 17.571047 22.017578 14 22.017578 14 L 20.361328 11.947266 L 21.970703 8 L 20.960938 6.5957031 C 20.960938 6.5957031 20.013547 6.1466719 17.935547 5.6386719 z M 8 16 C 8.552 16 9 16.448 9 17 C 9 17.552 8.552 18 8 18 C 7.448 18 7 17.552 7 17 C 7 16.448 7.448 16 8 16 z"/>
</svg>
