<?xml version="1.0"?>
<svg xmlns="http://www.w3.org/2000/svg" viewBox="0 0 24 24">
    <path d="M 13 2 L 13 11.759766 C 14.37 10.659766 16.11 10 18 10 C 19.06 10 20.07 10.210078 21 10.580078 L 21 8 L 16 8 L 16 6 L 21 6 L 21 2 L 13 2 z M 3 5 L 3 21 L 10 21 C 10.19 21 10.379297 20.939609 10.529297 20.849609 C 10.189297 19.969609 10 19 10 18 C 10 17.66 10.020547 17.33 10.060547 17 L 7 17 L 7 15 L 10.580078 15 C 10.700078 14.7 10.84 14.410625 11 14.140625 L 11 11 L 7 11 L 7 9 L 11 9 L 11 5 L 3 5 z M 18 12 C 14.698136 12 12 14.698136 12 18 C 12 21.301864 14.698136 24 18 24 C 21.301864 24 24 21.301864 24 18 C 24 14.698136 21.301864 12 18 12 z M 18 14 C 19.003867 14 19.905651 14.377038 20.605469 14.980469 L 18 17.585938 L 16.707031 16.292969 L 15.292969 17.707031 L 18 20.414062 L 21.755859 16.658203 C 21.904886 17.0789 22 17.52606 22 18 C 22 20.220984 20.220984 22 18 22 C 15.779016 22 14 20.220984 14 18 C 14 15.779016 15.779016 14 18 14 z"/>
</svg>
