<?xml version="1.0"?>
<svg xmlns="http://www.w3.org/2000/svg" viewBox="0 0 24 24">
    <path style="line-height:normal;text-indent:0;text-align:start;text-decoration-line:none;text-decoration-style:solid;text-decoration-color:#000;text-transform:none;block-progression:tb;isolation:auto;mix-blend-mode:normal" d="M 22 2.5566406 L 13.148438 5.8769531 L 12.375 5 L 11.443359 5 L 5 5 L 5 13 C 2.8026661 13 1 14.802666 1 17 L 1 18 L 1.203125 18 C 1.6594792 19.706363 3.1564058 21 5 21 L 17 21 C 18.843594 21 20.340521 19.706363 20.796875 18 L 21 18 L 21 17 C 21 14.802666 19.197334 13 17 13 L 17 11.220703 L 17 10.25 L 14.560547 7.4824219 L 20 5.4414062 L 20 7.5 C 20 7.7869372 19.786937 8 19.5 8 C 19.213063 8 19 7.7869372 19 7.5 L 17 7.5 C 17 8.8690628 18.130937 10 19.5 10 C 20.869063 10 22 8.8690628 22 7.5 L 22 2.5566406 z M 9 7 L 11.5 7 L 14.111328 10 L 9 10 L 9 7 z M 5 15 L 17 15 C 18.116666 15 19 15.883334 19 17 C 19 18.116666 18.116666 19 17 19 L 5 19 C 3.8833339 19 3 18.116666 3 17 C 3 15.883334 3.8833339 15 5 15 z M 5 16 A 1 1 0 0 0 4 17 A 1 1 0 0 0 5 18 A 1 1 0 0 0 6 17 A 1 1 0 0 0 5 16 z M 9 16 A 1 1 0 0 0 8 17 A 1 1 0 0 0 9 18 A 1 1 0 0 0 10 17 A 1 1 0 0 0 9 16 z M 13 16 A 1 1 0 0 0 12 17 A 1 1 0 0 0 13 18 A 1 1 0 0 0 14 17 A 1 1 0 0 0 13 16 z M 17 16 A 1 1 0 0 0 16 17 A 1 1 0 0 0 17 18 A 1 1 0 0 0 18 17 A 1 1 0 0 0 17 16 z" font-weight="400" font-family="sans-serif" white-space="normal" overflow="visible"/>
</svg>
