<?xml version="1.0"?>
<svg xmlns="http://www.w3.org/2000/svg" viewBox="0 0 24 24">
    <path d="M22.445,9.168l-1.384,0.923L21.06,10.09l-1.87-2.23l0.933-2.129l-2.716-1.704L5.646,2.996L3.77,7.35L3.768,7.354 L2.707,6.293L1.293,7.707l1.639,1.639L2.93,9.35l-0.85,2.01C2.027,11.485,2,11.619,2,11.755V18v3h3l-0.005-2h14.01L19,21h3v-3 v-6.132l1.555-1.036L22.445,9.168z M7.5,15C6.67,15,6,14.33,6,13.5C6,12.67,6.67,12,7.5,12S9,12.67,9,13.5C9,14.33,8.33,15,7.5,15z M16.5,15c-0.83,0-1.5-0.67-1.5-1.5h3C18,14.33,17.33,15,16.5,15z M14,11L5.48,8.45V8.44l1.43-3.38l9.81,0.92l0.94,0.47l-0.55,1.1 c-0.18,0.36-0.13,0.79,0.13,1.09L19.22,11H14z"/>
</svg>
