<?xml version="1.0"?>
<svg xmlns="http://www.w3.org/2000/svg" viewBox="0 0 24 24">
    <path d="M 0 0 L 0 1 C 0 3.3333333 1.3142205 4.7752743 2.5527344 5.3945312 C 3.7912483 6.0137882 5 6 5 6 L 6 6 L 6 9 L 10 5 L 6 1 L 6 4 L 5 4 C 5 4 4.2087517 3.9862118 3.4472656 3.6054688 C 2.6857795 3.2247256 2 2.6666667 2 1 L 2 0 L 0 0 z M 11.828125 4 L 12.828125 5 L 11.414062 6.4140625 L 8.2011719 9.6269531 L 12 12 L 22 5.5820312 L 22 4 L 11.828125 4 z M 2 7.7519531 L 2 20 L 22 20 L 22 7.7519531 L 12 14 L 2 7.7519531 z"/>
</svg>
