<?xml version="1.0"?>
<svg xmlns="http://www.w3.org/2000/svg" viewBox="0 0 24 24">
    <path d="M 14 4 C 13.66 4 13.325 4.0478125 13 4.1328125 L 13 12 C 13 13.439 13.561 14 15 14 L 15 16 C 14.224 16 13.563 15.848891 13 15.587891 L 13 19.894531 C 13.309 19.959531 13.623359 20 13.943359 20 C 16.073359 20 17.886172 18.498359 18.326172 16.443359 C 19.381172 15.519359 20 14.177344 20 12.777344 C 20 11.740344 19.66975 10.759219 19.09375 9.9492188 C 18.60975 10.717219 17.904 11.378391 17 11.900391 L 16 10.169922 C 16.966 9.6119219 17.580297 8.8517031 17.779297 7.9707031 C 17.865297 7.5897031 17.850203 7.1797656 17.783203 6.7597656 C 17.257203 5.1637656 15.77 4 14 4 z M 9.9863281 4.015625 C 8.9647812 4.0122969 7.946625 4.397125 7.171875 5.171875 C 6.371875 5.971875 5.9745312 7.0661094 6.0195312 8.1621094 C 6.1125312 9.1381094 6.7346563 9.9363906 7.9726562 10.650391 L 6.9726562 12.382812 C 5.9436563 11.788813 5.1854531 11.091734 4.6894531 10.302734 C 4.2514531 11.041734 4 11.889344 4 12.777344 C 4 14.177344 4.6188281 15.520313 5.6738281 16.445312 C 6.1128281 18.499312 7.9266406 20 10.056641 20 C 10.376641 20 10.692 19.960531 11 19.894531 L 11 14.460938 C 10.408 14.806938 9.735 15 9 15 L 9 13 C 9.554 13 10.018859 12.815125 10.380859 12.453125 C 10.757859 12.075125 11.001 11.505953 11 11.001953 L 11 4.1484375 C 10.6675 4.0614375 10.326844 4.0167344 9.9863281 4.015625 z M 4 5 A 1 1 0 0 0 3 6 A 1 1 0 0 0 4 7 A 1 1 0 0 0 5 6 A 1 1 0 0 0 4 5 z M 20 5 A 1 1 0 0 0 19 6 A 1 1 0 0 0 20 7 A 1 1 0 0 0 21 6 A 1 1 0 0 0 20 5 z M 2 9 A 1 1 0 0 0 1 10 A 1 1 0 0 0 2 11 A 1 1 0 0 0 3 10 A 1 1 0 0 0 2 9 z M 22 9 A 1 1 0 0 0 21 10 A 1 1 0 0 0 22 11 A 1 1 0 0 0 23 10 A 1 1 0 0 0 22 9 z M 2 13 A 1 1 0 0 0 1 14 A 1 1 0 0 0 2 15 A 1 1 0 0 0 3 14 A 1 1 0 0 0 2 13 z M 22 13 A 1 1 0 0 0 21 14 A 1 1 0 0 0 22 15 A 1 1 0 0 0 23 14 A 1 1 0 0 0 22 13 z M 3 17 A 1 1 0 0 0 2 18 A 1 1 0 0 0 3 19 A 1 1 0 0 0 4 18 A 1 1 0 0 0 3 17 z M 21 17 A 1 1 0 0 0 20 18 A 1 1 0 0 0 21 19 A 1 1 0 0 0 22 18 A 1 1 0 0 0 21 17 z"/>
</svg>
