<?xml version="1.0"?>
<svg xmlns="http://www.w3.org/2000/svg" viewBox="0 0 24 24">
    <path d="M 4 2 L 4 22 L 12.683594 22 C 12.250594 21.09 12 20.075 12 19 C 12 18.657 12.032078 18.322188 12.080078 17.992188 C 12.052078 17.993187 12.028 18 12 18 C 10.343 18 9 16.657 9 15 C 9 13.343 11 11 11 11 L 13 11 C 13 11 14.045047 12.233969 14.623047 13.542969 C 15.822047 12.579969 17.343 12 19 12 C 19.34 12 19.673 12.033078 20 12.080078 L 20 2 L 13 2 L 13 4 L 11 4 L 11 2 L 4 2 z M 11 5 L 13 5 L 13 7 L 11 7 L 11 5 z M 11 8 L 13 8 L 13 10 L 11 10 L 11 8 z M 12 14 A 1 1 0 0 0 11 15 A 1 1 0 0 0 12 16 A 1 1 0 0 0 13 15 A 1 1 0 0 0 12 14 z M 19 14 C 16.239 14 14 16.239 14 19 C 14 21.761 16.239 24 19 24 C 21.761 24 24 21.761 24 19 C 24 16.239 21.761 14 19 14 z M 18 16 L 20 16 L 20 18 L 22 18 L 22 20 L 20 20 L 20 22 L 18 22 L 18 20 L 16 20 L 16 18 L 18 18 L 18 16 z"/>
</svg>
