<?xml version="1.0"?>
<svg xmlns="http://www.w3.org/2000/svg" viewBox="0 0 24 24">
    <path d="M 2 4 L 2 7 L 22 7 L 22 4 L 2 4 z M 2 10 L 2 20 L 7.7832031 20 L 8.1953125 19.138672 C 8.2243125 19.077672 8.4551562 18.617 8.9101562 18 L 8.9082031 18 C 10.022203 16.487 12.53 14 17 14 C 18.122 14 19.116953 14.161875 20.001953 14.421875 C 20.748953 14.640875 21.411 14.933625 22 15.265625 L 22 10 L 2 10 z M 17 16 C 11.909 16 10 20 10 20 C 10 20 11.909 24 17 24 C 22.091 24 24 20 24 20 C 24 20 22.091 16 17 16 z M 17 18 C 18.104 18 19 18.896 19 20 C 19 21.104 18.104 22 17 22 C 15.896 22 15 21.104 15 20 C 15 18.896 15.896 18 17 18 z"/>
</svg>
