<?xml version="1.0"?>
<svg xmlns="http://www.w3.org/2000/svg" viewBox="0 0 24 24">
    <path style="line-height:normal;text-indent:0;text-align:start;text-decoration-line:none;text-decoration-style:solid;text-decoration-color:#000;text-transform:none;block-progression:tb;isolation:auto;mix-blend-mode:normal" d="M 4 2 A 1.5 1.5 0 0 0 2.5 3.5 A 1.5 1.5 0 0 0 3 4.6152344 L 3 21 L 5 21 L 5 19 L 19 19 L 19 21 L 21 21 L 21 4.6152344 A 1.5 1.5 0 0 0 21.5 3.5 A 1.5 1.5 0 0 0 20 2 A 1.5 1.5 0 0 0 18.5 3.5 A 1.5 1.5 0 0 0 19 4.6152344 L 19 6 L 5 6 L 5 4.6152344 A 1.5 1.5 0 0 0 5.5 3.5 A 1.5 1.5 0 0 0 4 2 z M 5 8 L 7 8 L 7 14 L 5 14 L 5 8 z M 9 8 L 11 8 L 11 14 L 9 14 L 9 8 z M 13 8 L 15 8 L 15 14 L 13 14 L 13 8 z M 17 8 L 19 8 L 19 14 L 17 14 L 17 8 z"/>
</svg>
