<?xml version="1.0"?>
<svg xmlns="http://www.w3.org/2000/svg" viewBox="0 0 24 24">
    <path d="M 12.5 2 C 10.77 2 9.170625 2.8099219 8.140625 4.1699219 C 7.770625 4.0599219 7.39 4 7 4 C 4.95 4 3.2592969 5.5492969 3.0292969 7.5292969 C 1.7892969 8.2292969 1 9.55 1 11 C 1 13.04 2.5395313 14.730703 4.5195312 14.970703 C 5.2195313 16.210703 6.54 17 8 17 C 8.48 17 8.9603906 16.91 9.4003906 16.75 C 9.9103906 17.79 10.86 18.579141 12 18.869141 L 12 22 L 18 22 L 18 21 C 18 19.06 18.75 18 19 18 C 20.65 18 22 16.65 22 15 C 22 14.71 21.959141 14.420625 21.869141 14.140625 C 22.599141 13.250625 23 12.14 23 11 C 23 9.91 22.630938 8.8504688 21.960938 7.9804688 C 21.700937 5.1604687 19.37 3 16.5 3 C 16.25 3 15.990703 3.0205469 15.720703 3.0605469 C 14.780703 2.3705469 13.65 2 12.5 2 z M 14.400391 7 L 15.599609 7 C 15.729609 7 15.839609 7.1004688 15.849609 7.2304688 L 15.929688 8.1601562 C 16.329687 8.2901563 16.69 8.4995313 17 8.7695312 L 17.839844 8.3808594 C 17.869844 8.3608594 17.909219 8.3496094 17.949219 8.3496094 C 18.029219 8.3496094 18.120156 8.4004687 18.160156 8.4804688 L 18.769531 9.5195312 C 18.829531 9.6295312 18.799453 9.7796094 18.689453 9.8496094 L 17.929688 10.380859 C 17.979688 10.580859 18 10.79 18 11 C 18 11.21 17.979688 11.419141 17.929688 11.619141 L 18.689453 12.150391 C 18.799453 12.220391 18.829531 12.360469 18.769531 12.480469 L 18.160156 13.519531 C 18.120156 13.599531 18.029219 13.650391 17.949219 13.650391 C 17.909219 13.650391 17.869844 13.639141 17.839844 13.619141 L 17 13.230469 C 16.69 13.500469 16.329687 13.709844 15.929688 13.839844 L 15.849609 14.769531 C 15.839609 14.899531 15.729609 15 15.599609 15 L 14.400391 15 C 14.270391 15 14.160391 14.899531 14.150391 14.769531 L 14.070312 13.839844 C 13.670312 13.709844 13.31 13.500469 13 13.230469 L 12.160156 13.619141 C 12.130156 13.639141 12.090781 13.650391 12.050781 13.650391 C 11.970781 13.650391 11.879844 13.599531 11.839844 13.519531 L 11.230469 12.480469 C 11.170469 12.370469 11.200547 12.220391 11.310547 12.150391 L 12.070312 11.619141 C 12.020312 11.419141 12 11.21 12 11 C 12 10.79 12.020312 10.580859 12.070312 10.380859 L 11.310547 9.8496094 C 11.200547 9.7796094 11.170469 9.6395312 11.230469 9.5195312 L 11.839844 8.4804688 C 11.879844 8.4004687 11.970781 8.3496094 12.050781 8.3496094 C 12.090781 8.3496094 12.130156 8.3608594 12.160156 8.3808594 L 13.009766 8.7695312 C 13.309766 8.4995313 13.670312 8.2901562 14.070312 8.1601562 L 14.150391 7.2304688 C 14.160391 7.1004687 14.270391 7 14.400391 7 z M 15 9.5 A 1.5 1.5 0 0 0 13.5 11 A 1.5 1.5 0 0 0 15 12.5 A 1.5 1.5 0 0 0 16.5 11 A 1.5 1.5 0 0 0 15 9.5 z"/>
</svg>
