<?xml version="1.0"?>
<svg xmlns="http://www.w3.org/2000/svg" viewBox="0 0 24 24">
    <path d="M 12 3 A 1 1 0 0 0 11 4 A 1 1 0 0 0 11.417969 4.8144531 L 8.3457031 9.1152344 L 2.9472656 7.3164062 A 1 1 0 0 0 3 7 A 1 1 0 0 0 2 6 A 1 1 0 0 0 1 7 A 1 1 0 0 0 2 8 A 1 1 0 0 0 2.2167969 7.9746094 L 4 16 L 20 16 L 21.783203 7.9765625 A 1 1 0 0 0 22 8 A 1 1 0 0 0 23 7 A 1 1 0 0 0 22 6 A 1 1 0 0 0 21 7 A 1 1 0 0 0 21.052734 7.3164062 L 15.654297 9.1152344 L 12.580078 4.8125 A 1 1 0 0 0 13 4 A 1 1 0 0 0 12 3 z M 4 18 L 4 20 L 20 20 L 20 18 L 4 18 z"/>
</svg>
