<?xml version="1.0"?>
<svg xmlns="http://www.w3.org/2000/svg" viewBox="0 0 24 24">
    <path d="M 3 4 L 3 8.8066406 L 1.3242188 13 L 0 13 L 0 14 C 0 17.729 2.1199375 20.497281 2.2109375 20.613281 L 2.5117188 21 L 18.205078 21 L 18.392578 20.919922 C 18.581578 20.838922 23 18.889 23 14 L 23 13 L 20.566406 13 L 17.566406 8 L 16.5 8 L 13.5 4 L 9.21875 4 L 8.6855469 6.1347656 L 7.6171875 4 L 3 4 z M 5 6 L 6.3828125 6 L 8.3828125 10 L 16.433594 10 L 18.234375 13 L 3.4765625 13 L 5 9.1933594 L 5 6 z M 10.78125 6 L 12.5 6 L 14 8 L 10.28125 8 L 10.78125 6 z"/>
</svg>
