<?xml version="1.0"?>
<svg xmlns="http://www.w3.org/2000/svg" viewBox="0 0 24 24">
    <path d="M21.462,13.462c-0.717,0.717-1.88,0.717-2.597,0S18,10,18,10s2.745,0.148,3.462,0.866c0.344,0.344,0.518,0.791,0.532,1.242 C21.995,12.071,22,12.036,22,12c0-5.523-4.477-10-10-10S2,6.477,2,12c0,5.523,4.477,10,10,10c5.406,0,9.799-4.293,9.983-9.654 C21.942,12.753,21.774,13.15,21.462,13.462z M15,8c1.121,0,2,0.879,2,2h-4C13,8.879,13.879,8,15,8z M9,8c1.121,0,2,0.879,2,2H7 C7,8.879,7.879,8,9,8z M7,15c0.783-1.749,2.72-3,5-3s4.217,1.251,5,3H7z"/>
</svg>
