<?xml version="1.0"?>
<svg xmlns="http://www.w3.org/2000/svg" viewBox="0 0 24 24">
    <path d="M 12 2 C 11.19 2 9.8297656 2.339375 9.2597656 3.109375 L 6.3203125 4.25 C 3.6903125 5.26 2 7.5992188 2 10.199219 C 2 10.879219 2.2709375 11.51 2.7109375 12 L 21.289062 12 C 21.729063 11.51 22 10.879219 22 10.199219 C 22 7.5992188 20.309687 5.26 17.679688 4.25 L 14.740234 3.109375 C 14.170234 2.339375 12.81 2 12 2 z M 4.140625 14 L 5.1347656 21 L 18.865234 21 L 19.859375 14 L 4.140625 14 z M 10.490234 15.880859 L 10.880859 19 L 8.8691406 19 L 8.5097656 16.119141 L 10.490234 15.880859 z M 13.509766 15.880859 L 15.490234 16.119141 L 15.130859 19 L 13.119141 19 L 13.509766 15.880859 z"/>
</svg>
