<?xml version="1.0"?>
<svg xmlns="http://www.w3.org/2000/svg" viewBox="0 0 24 24">
    <path d="M 17 1 C 14.399864 1 12.180179 2.6764349 11.351562 5 L 3 5 L 3 17 L 21 17 L 21 11.455078 C 22.223531 10.354918 23 8.7662485 23 7 C 23 3.6981361 20.301864 1 17 1 z M 17 3 C 18.003867 3 18.905651 3.3770376 19.605469 3.9804688 L 17 6.5859375 L 15.707031 5.2929688 L 14.292969 6.7070312 L 17 9.4140625 L 20.755859 5.6582031 C 20.904886 6.0788999 21 6.5260602 21 7 C 21 9.2209836 19.220984 11 17 11 C 14.779016 11 13 9.2209836 13 7 C 13 4.7790164 14.779016 3 17 3 z M 2 19 L 2 21 L 22 21 L 22 19 L 2 19 z"/>
</svg>
