<?xml version="1.0"?>
<svg xmlns="http://www.w3.org/2000/svg" viewBox="0 0 24 24">
    <path style="line-height:normal;text-indent:0;text-align:start;text-decoration-line:none;text-decoration-style:solid;text-decoration-color:#000;text-transform:none;block-progression:tb;isolation:auto;mix-blend-mode:normal" d="M 3.5078125 2.09375 L 2.09375 3.5078125 L 5.6894531 7.1035156 C 4.634573 8.4590307 4 10.155979 4 12 C 4 13.844021 4.634573 15.540969 5.6894531 16.896484 L 2.09375 20.492188 L 3.5078125 21.90625 L 7.1035156 18.310547 C 8.4590307 19.365427 10.155979 20 12 20 C 13.844021 20 15.540969 19.365427 16.896484 18.310547 L 20.492188 21.90625 L 21.90625 20.492188 L 18.310547 16.896484 C 19.365427 15.540969 20 13.844021 20 12 C 20 10.155979 19.365427 8.4590307 18.310547 7.1035156 L 21.90625 3.5078125 L 20.492188 2.09375 L 16.896484 5.6894531 C 15.540969 4.634573 13.844021 4 12 4 C 10.155979 4 8.4590307 4.634573 7.1035156 5.6894531 L 3.5078125 2.09375 z M 12 6 C 15.325553 6 18 8.6744469 18 12 C 18 15.325553 15.325553 18 12 18 C 8.6744469 18 6 15.325553 6 12 C 6 8.6744469 8.6744469 6 12 6 z" font-weight="400" font-family="sans-serif" white-space="normal" overflow="visible"/>
</svg>
