<?xml version="1.0"?>
<svg xmlns="http://www.w3.org/2000/svg" viewBox="0 0 24 24">
    <path d="M 10 2 A 2 2 0 0 0 8 4 A 2 2 0 0 0 9.359375 5.8925781 L 9.6738281 7.46875 C 8.8428153 7.8193532 8.1124366 8.3570674 7.5214844 9.0214844 L 5.9980469 8.0703125 A 2 2 0 0 0 6 8 A 2 2 0 0 0 4 6 A 2 2 0 0 0 2 8 A 2 2 0 0 0 4 10 A 2 2 0 0 0 4.9394531 9.765625 L 6.4550781 10.712891 C 6.1632557 11.41815 6 12.190387 6 13 C 6 14.294015 6.4141991 15.491632 7.1132812 16.472656 L 5.5175781 18.068359 A 2 2 0 0 0 5 18 A 2 2 0 0 0 3 20 A 2 2 0 0 0 5 22 A 2 2 0 0 0 7 20 A 2 2 0 0 0 6.9296875 19.484375 L 8.5273438 17.886719 C 9.5083678 18.585801 10.705985 19 12 19 C 13.104991 19 14.137377 18.694841 15.027344 18.171875 L 16.101562 19.376953 A 2 2 0 0 0 16 20 A 2 2 0 0 0 18 22 A 2 2 0 0 0 20 20 A 2 2 0 0 0 18 18 A 2 2 0 0 0 17.591797 18.041016 L 16.5625 16.888672 C 17.457353 15.840423 18 14.483412 18 13 C 18 12.059239 17.776054 11.172126 17.388672 10.378906 L 19.4375 8.9179688 A 2 2 0 0 0 20 9 A 2 2 0 0 0 22 7 A 2 2 0 0 0 20 5 A 2 2 0 0 0 18 7 A 2 2 0 0 0 18.052734 7.4472656 L 16.228516 8.75 C 15.143009 7.6699417 13.649033 7 12 7 C 11.872877 7 11.748228 7.0117056 11.623047 7.0195312 L 11.320312 5.5 A 2 2 0 0 0 12 4 A 2 2 0 0 0 10 2 z M 12 9 C 13.133 9 14 9.867 14 11 C 14 12.133 13.133 13 12 13 C 10.867 13 10 12.133 10 11 C 10 9.867 10.867 9 12 9 z M 12 14 C 13.639 14 15 14.680109 15 15.662109 L 15 16 L 9 16 L 9 15.662109 C 9 14.680109 10.361 14 12 14 z"/>
</svg>
