<?xml version="1.0"?>
<svg xmlns="http://www.w3.org/2000/svg" viewBox="0 0 24 24">
    <path d="M21.423,13l-2.474-3.882C18.546,5.445,15.656,2.527,12,2.07v7.208c0.595,0.346,1,0.984,1,1.723 c0,0.178-0.031,0.347-0.074,0.512l2.496,2.496C15.448,14.006,15.473,14,15.5,14c0.828,0,1.5,0.672,1.5,1.5S16.328,17,15.5,17 S14,16.328,14,15.5c0-0.027,0.006-0.052,0.008-0.078l-2.496-2.496C11,13.061,10.44,13.072,9.724,12.422 c-0.447-0.406-0.762-0.963-0.719-1.565C9.054,10.18,9.444,9.601,10,9.277V2.069C6.055,2.562,3,5.921,3,10c0,5.004,3,4.429,3,9.24 V22h9v-3h4v-4.979L21.423,13z"/>
</svg>
