<?xml version="1.0"?>
<svg xmlns="http://www.w3.org/2000/svg" viewBox="0 0 24 24">
    <path style="line-height:normal;text-indent:0;text-align:start;text-decoration-line:none;text-decoration-style:solid;text-decoration-color:#000;text-transform:none;block-progression:tb;isolation:auto;mix-blend-mode:normal" d="M 5.5 3 C 3.578848 3 2 4.578848 2 6.5 C 2 7.7022693 2.6191349 8.7692976 3.5527344 9.4003906 L 3.5488281 9.4082031 L 7.9804688 11.998047 L 3.5488281 14.583984 L 3.5566406 14.597656 C 2.621025 15.228434 2 16.296181 2 17.5 C 2 19.421152 3.578848 21 5.5 21 C 7.421152 21 9 19.421152 9 17.5 C 9 16.29928 8.3827562 15.232967 7.4511719 14.601562 L 22 6 L 18.255859 6 L 9.9296875 10.859375 L 7.4550781 9.3964844 C 8.3846877 8.7647785 9 7.6992009 9 6.5 C 9 4.578848 7.421152 3 5.5 3 z M 5.5 5 C 6.3402718 5 7 5.6597282 7 6.5 C 7 7.3402718 6.3402718 8 5.5 8 C 5.2276192 8 4.977882 7.9250588 4.7597656 7.8027344 L 4.6308594 7.7246094 C 4.2481651 7.4552318 4 7.0129491 4 6.5 C 4 5.6597282 4.6597282 5 5.5 5 z M 13.734375 13.109375 L 11.822266 14.240234 L 18.257812 18 L 22 18 L 13.734375 13.109375 z M 5.5 16 C 6.3402718 16 7 16.659728 7 17.5 C 7 18.340272 6.3402718 19 5.5 19 C 4.6597282 19 4 18.340272 4 17.5 C 4 16.659728 4.6597282 16 5.5 16 z" font-weight="400" font-family="sans-serif" white-space="normal" overflow="visible"/>
</svg>
