<?xml version="1.0"?>
<svg xmlns="http://www.w3.org/2000/svg" viewBox="0 0 24 24">
    <path d="M 4.5 2 C 3.1 2 2 3.1 2 4.5 C 2 5.9 3.1 7 4.5 7 C 4.8 7 5.1003906 6.9007813 5.4003906 6.8007812 L 6.5996094 8 L 5.4003906 9.1992188 C 5.1003906 9.0992188 4.8 9 4.5 9 C 3.1 9 2 10.1 2 11.5 C 2 12.9 3.1 14 4.5 14 C 5.9 14 7 12.9 7 11.5 C 7 11.2 6.9007812 10.8 6.8007812 10.5 L 7.9003906 9.4003906 L 11.300781 13 L 14 13 L 6.8007812 5.5 C 6.9007813 5.2 7 4.8 7 4.5 C 7 3.1 5.9 2 4.5 2 z M 11.300781 3 L 8.5996094 5.9003906 L 9.9003906 7.3007812 L 14 3 L 11.300781 3 z M 4.5 3.5 C 5 3.5 5.5 4 5.5 4.5 C 5.5 5 5 5.5 4.5 5.5 C 4 5.5 3.5 5 3.5 4.5 C 3.5 4 4 3.5 4.5 3.5 z M 13 7 L 13 9 L 15 9 L 15 7 L 13 7 z M 17 7 L 17 9 L 19 9 L 19 11 L 21 11 L 21 7 L 17 7 z M 7.8066406 7.6875 C 7.9796406 7.6875 8.1191406 7.827 8.1191406 8 C 8.1191406 8.173 7.9805938 8.3125 7.8085938 8.3125 C 7.6355937 8.3125 7.4941406 8.173 7.4941406 8 C 7.4941406 7.827 7.6346406 7.6885 7.8066406 7.6875 z M 4.5 10.5 C 5 10.5 5.5 11 5.5 11.5 C 5.5 12 5 12.5 4.5 12.5 C 4 12.5 3.5 12 3.5 11.5 C 3.5 11 4 10.5 4.5 10.5 z M 19 13 L 19 15 L 21 15 L 21 13 L 19 13 z M 3 17 L 3 21 L 7 21 L 7 19 L 5 19 L 5 17 L 3 17 z M 19 17 L 19 19 L 17 19 L 17 21 L 21 21 L 21 17 L 19 17 z M 9 19 L 9 21 L 11 21 L 11 19 L 9 19 z M 13 19 L 13 21 L 15 21 L 15 19 L 13 19 z"/>
</svg>
