<?xml version="1.0"?>
<svg xmlns="http://www.w3.org/2000/svg" viewBox="0 0 24 24">
    <path d="M12,2c-5.13,0-9,3.44-9,8c0,2.39,1.25,3.47,2.36,4.42c0.76,0.67,1.48,1.29,1.88,2.4C8.37,20.02,9.73,22,13,22 c2.53,0,5.7-3.44,6.12-5.92c0.11-0.64,0.36-1.07,0.67-1.61C20.33,13.54,21,12.38,21,10C21,5.29,17.3,2,12,2z M13,11.11V17h-2 v-5.89c-0.3-0.27-0.5-0.67-0.5-1.11c0-0.03,0.01-0.05,0.01-0.08L7.29,6.71l1.42-1.42l3.21,3.22c0.03,0,0.05-0.01,0.08-0.01 c0.83,0,1.5,0.67,1.5,1.5C13.5,10.44,13.3,10.84,13,11.11z"/>
</svg>
