<?xml version="1.0"?>
<svg xmlns="http://www.w3.org/2000/svg" viewBox="0 0 24 24">
    <path d="M12,2C6.486,2,2,6.486,2,12s4.486,10,10,10s10-4.486,10-10S17.514,2,12,2z M12,4c0.552,0,1,0.448,1,1s-0.448,1-1,1 c-0.552,0-1-0.448-1-1S11.448,4,12,4z M5,13c-0.552,0-1-0.448-1-1c0-0.552,0.448-1,1-1s1,0.448,1,1C6,12.552,5.552,13,5,13z M6.134,6.5C6.41,6.022,7.022,5.858,7.5,6.134C7.978,6.41,8.142,7.022,7.866,7.5C7.59,7.978,6.978,8.142,6.5,7.866 C6.022,7.59,5.858,6.978,6.134,6.5z M7.866,17.5C7.59,17.978,6.979,18.142,6.5,17.866C6.022,17.59,5.858,16.978,6.134,16.5 c0.276-0.478,0.888-0.642,1.366-0.366C7.979,16.41,8.142,17.021,7.866,17.5z M12,13.5c-0.828,0-1.5-0.672-1.5-1.5 c0-0.828,0.672-1.5,1.5-1.5c0.027,0,0.052,0.006,0.078,0.008L16.586,6L18,7.414l-4.508,4.508C13.494,11.948,13.5,11.973,13.5,12 C13.5,12.828,12.828,13.5,12,13.5z M17.866,17.5c-0.276,0.478-0.888,0.642-1.366,0.366c-0.478-0.276-0.642-0.888-0.366-1.366 c0.276-0.478,0.888-0.642,1.366-0.366C17.978,16.41,18.142,17.021,17.866,17.5z M19,13c-0.552,0-1-0.448-1-1c0-0.552,0.448-1,1-1 s1,0.448,1,1C20,12.552,19.552,13,19,13z"/>
</svg>
