<?xml version="1.0"?>
<svg xmlns="http://www.w3.org/2000/svg" viewBox="0 0 24 24">
    <path style="line-height:normal;text-indent:0;text-align:start;text-decoration-line:none;text-decoration-style:solid;text-decoration-color:#000;text-transform:none;block-progression:tb;isolation:auto;mix-blend-mode:normal" d="M 4 2 L 4 7 L 20 7 L 20 2 L 4 2 z M 4 9 L 4 15 L 10.587891 15 C 11.774891 12.069 14.643 10 18 10 C 18.692 10 19.36 10.096719 20 10.261719 L 20 9 L 4 9 z M 18 12 C 14.698375 12 12 14.698375 12 18 C 12 19.397061 12.486939 20.684418 13.292969 21.707031 L 12 23 L 16 23 L 16 19 L 14.716797 20.283203 C 14.266287 19.637225 14 18.853382 14 18 C 14 15.779625 15.779625 14 18 14 C 20.220375 14 22 15.779625 22 18 C 22 20.220375 20.220375 22 18 22 L 18 24 C 21.301625 24 24 21.301625 24 18 C 24 14.698375 21.301625 12 18 12 z M 4 17 L 4 22 L 11.078125 22 C 10.396125 20.822 10 19.459 10 18 C 10 17.661 10.027359 17.328 10.068359 17 L 4 17 z" font-weight="400" font-family="sans-serif" white-space="normal" overflow="visible"/>
</svg>
