<?xml version="1.0"?>
<svg xmlns="http://www.w3.org/2000/svg" viewBox="0 0 24 24">
    <path d="M 4 2 L 4 7 L 20 7 L 20 2 L 4 2 z M 4 9 L 4 15 L 13.226562 15 L 13.40625 14.689453 C 13.80725 13.994453 14.554422 13.5625 15.357422 13.5625 C 15.541422 13.5625 15.722437 13.584906 15.898438 13.628906 C 16.171437 12.678906 17.046453 12 18.064453 12 L 19.935547 12 C 19.957547 12 19.978 12.005859 20 12.005859 L 20 9 L 4 9 z M 18.064453 14 C 17.935453 14 17.8275 14.096609 17.8125 14.224609 L 17.695312 15.236328 C 17.211312 15.404328 16.774531 15.659281 16.394531 15.988281 L 15.457031 15.582031 C 15.339031 15.531031 15.202672 15.577453 15.138672 15.689453 L 14.201172 17.310547 C 14.137172 17.422547 14.166531 17.564625 14.269531 17.640625 L 15.076172 18.238281 C 15.029172 18.486281 15 18.74 15 19 C 15 19.26 15.028172 19.512766 15.076172 19.759766 L 14.271484 20.359375 C 14.168484 20.436375 14.138125 20.578453 14.203125 20.689453 L 15.138672 22.310547 C 15.202672 22.422547 15.340984 22.467016 15.458984 22.416016 L 16.394531 22.011719 C 16.773531 22.339719 17.211313 22.595672 17.695312 22.763672 L 17.8125 23.775391 C 17.8265 23.904391 17.935453 24 18.064453 24 L 19.935547 24 C 20.064547 24 20.1725 23.903391 20.1875 23.775391 L 20.304688 22.763672 C 20.788688 22.595672 21.225469 22.340719 21.605469 22.011719 L 22.542969 22.417969 C 22.660969 22.468969 22.797328 22.421547 22.861328 22.310547 L 23.798828 20.689453 C 23.862828 20.577453 23.833469 20.435375 23.730469 20.359375 L 22.923828 19.759766 C 22.971828 19.512766 23 19.26 23 19 C 23 18.74 22.971828 18.487234 22.923828 18.240234 L 23.728516 17.640625 C 23.831516 17.563625 23.861875 17.421547 23.796875 17.310547 L 22.861328 15.689453 C 22.797328 15.577453 22.659016 15.532984 22.541016 15.583984 L 21.605469 15.988281 C 21.226469 15.660281 20.788688 15.404328 20.304688 15.236328 L 20.1875 14.224609 C 20.1735 14.095609 20.064547 14 19.935547 14 L 18.064453 14 z M 4 17 L 4 22 L 12.648438 22 L 12.470703 21.689453 C 11.961703 20.807453 12.110875 19.712 12.796875 19 C 12.281875 18.466 12.069938 17.714 12.210938 17 L 4 17 z M 19 17.25 C 19.966 17.25 20.75 18.033 20.75 19 C 20.75 19.966 19.966 20.75 19 20.75 C 18.034 20.75 17.25 19.966 17.25 19 C 17.25 18.033 18.034 17.25 19 17.25 z"/>
</svg>
