<?xml version="1.0"?>
<svg xmlns="http://www.w3.org/2000/svg" viewBox="0 0 24 24">
    <path style="line-height:normal;text-indent:0;text-align:start;text-decoration-line:none;text-decoration-style:solid;text-decoration-color:#000;text-transform:none;block-progression:tb;isolation:auto;mix-blend-mode:normal" d="M 4 2 L 4 7 L 20 7 L 20 2 L 4 2 z M 4 9 L 4 15 L 14.101562 15 C 14.564562 12.718 16.581 11 19 11 L 20 11 L 20 9 L 4 9 z M 19 13 C 17.35503 13 16 14.35503 16 16 L 16 21 C 16 22.64497 17.35503 24 19 24 C 20.64497 24 22 22.64497 22 21 L 22 16 C 22 14.35503 20.64497 13 19 13 z M 4 17 L 4 22 L 14 22 L 14 17 L 4 17 z M 18 19 L 20 19 L 20 21 C 20 21.56503 19.56503 22 19 22 C 18.43497 22 18 21.56503 18 21 L 18 19 z" font-weight="400" font-family="sans-serif" white-space="normal" overflow="visible"/>
</svg>
