<?xml version="1.0"?>
<svg xmlns="http://www.w3.org/2000/svg" viewBox="0 0 24 24">
    <path d="M 4 2 L 4 7 L 20 7 L 20 2 L 4 2 z M 4 9 L 4 15 L 12.605469 15 C 13.516469 13.22 15.364 12 17.5 12 C 18.401 12 19.249 12.221469 20 12.605469 L 20 9 L 4 9 z M 17.5 14 C 15.567 14 14 15.567 14 17.5 C 14 19.433 15.567 21 17.5 21 C 17.965 21 18.4065 20.905234 18.8125 20.740234 L 22.072266 24 L 24 24 L 24 22.072266 L 20.740234 18.8125 C 20.904234 18.4065 21 17.965 21 17.5 C 21 15.567 19.433 14 17.5 14 z M 17 16 C 17.552 16 18 16.448 18 17 C 18 17.552 17.552 18 17 18 C 16.448 18 16 17.552 16 17 C 16 16.448 16.448 16 17 16 z M 4 17 L 4 22 L 14.34375 22 C 12.92775 21.005 12 19.362 12 17.5 C 12 17.331 12.010391 17.165 12.025391 17 L 4 17 z"/>
</svg>
