<?xml version="1.0"?>
<svg xmlns="http://www.w3.org/2000/svg" viewBox="0 0 24 24">
    <path d="M 6 2 A 2 2 0 0 0 4 4 A 2 2 0 0 0 6 6 A 2 2 0 0 0 8 4 A 2 2 0 0 0 6 2 z M 18 2 A 2 2 0 0 0 16 4 A 2 2 0 0 0 18 6 A 2 2 0 0 0 20 4 A 2 2 0 0 0 18 2 z M 5 8 C 3.895 8 3 8.895 3 10 L 3 16 L 3 22 L 5 22 L 5 16 L 7 16 L 7 22 L 9 22 L 9 15 L 9 12.171875 L 12 15.171875 L 14.783203 12.490234 L 14 18 L 15 18 L 15 22 L 17 22 L 17 18 L 19 18 L 19 22 L 21 22 L 21 18 L 22 18 L 20.712891 9.6933594 C 20.561891 8.7193594 19.721375 8 18.734375 8 L 17.15625 8 C 16.580809 8 16.060872 8.2497063 15.693359 8.6464844 L 12 12.171875 L 8.421875 8.5917969 L 8.4199219 8.59375 C 8.0575162 8.2278028 7.5560191 8 7 8 L 5 8 z"/>
</svg>
