<?xml version="1.0"?>
<svg xmlns="http://www.w3.org/2000/svg" viewBox="0 0 24 24">
    <path d="M 3 3 L 3 8 L 3 9 L 3 21 L 12.220703 21 C 11.814703 20.404 11.458281 19.736 11.238281 19 L 5 19 L 5 9 L 19 9 L 19 12.332031 C 19.549 12.121031 20.133266 12 20.697266 12 L 20.703125 12 C 20.804125 12 20.901 12.015484 21 12.021484 L 21 9 L 21 8 L 21 3 L 3 3 z M 6 5 C 6.552 5 7 5.448 7 6 C 7 6.552 6.552 7 6 7 C 5.448 7 5 6.552 5 6 C 5 5.448 5.448 5 6 5 z M 9 5 C 9.552 5 10 5.448 10 6 C 10 6.552 9.552 7 9 7 C 8.448 7 8 6.552 8 6 C 8 5.448 8.448 5 9 5 z M 12 5 L 19 5 L 19 7 L 12 7 L 12 5 z M 16.300781 14 C 14.960781 14.002 13.924703 14.795797 13.345703 15.966797 C 13.109703 16.444797 13.006953 16.917 13.001953 17.375 C 12.979953 19.485 15.053547 21.304125 15.935547 22.078125 L 16.115234 22.234375 C 16.851234 22.901375 18.501953 24 18.501953 24 C 18.501953 24 20.150719 22.900375 20.886719 22.234375 L 21.064453 22.078125 C 21.946453 21.304125 24.022 19.485 24 17.375 C 23.996 16.917 23.89225 16.444797 23.65625 15.966797 C 23.07825 14.795797 22.041172 14.002 20.701172 14 C 19.856172 13.999 18.879953 14.500406 18.501953 15.066406 C 18.157953 14.500406 17.145781 13.999 16.300781 14 z"/>
</svg>
