<?xml version="1.0"?>
<svg xmlns="http://www.w3.org/2000/svg" viewBox="0 0 24 24">
    <path style="line-height:normal;text-indent:0;text-align:start;text-decoration-line:none;text-decoration-style:solid;text-decoration-color:#000;text-transform:none;block-progression:tb;isolation:auto;mix-blend-mode:normal" d="M 12 2 C 10.35499 2 9 3.3549904 9 5 C 9 5.351851 9.0739423 5.6851061 9.1875 6 L 4.1640625 6 L 2.0175781 17.820312 L 2 21 L 22 21 L 22 18 L 19.835938 6 L 14.8125 6 C 14.926058 5.6851061 15 5.351851 15 5 C 15 3.3549904 13.64501 2 12 2 z M 12 4 C 12.564129 4 13 4.4358706 13 5 C 13 5.5641294 12.564129 6 12 6 C 11.435871 6 11 5.5641294 11 5 C 11 4.4358706 11.435871 4 12 4 z M 11.744141 8 L 12 8 L 12.664062 8 L 12.664062 8.9980469 C 12.956062 9.0540469 14.595703 9.602 14.595703 12 L 12.869141 12 C 12.869141 10.747 12.357234 10.375 12.115234 10.375 C 11.926234 10.375 11.427734 10.407547 11.427734 11.435547 C 11.427734 13.230547 14.582031 12.670703 14.582031 15.595703 C 14.582031 17.719703 12.838297 18.005922 12.529297 18.044922 L 12.529297 19 L 11.615234 19 L 11.615234 18.044922 C 11.330234 18.005922 9.4179688 17.639 9.4179688 15 L 11.140625 15 C 11.140625 16.558 11.944406 16.650391 12.066406 16.650391 C 12.200406 16.650391 12.859375 16.625422 12.859375 15.607422 C 12.859375 13.573422 9.703125 14.475734 9.703125 11.427734 C 9.703125 9.3387344 11.435141 9.0136094 11.744141 8.9746094 L 11.744141 8 z" font-weight="400" font-family="sans-serif" white-space="normal" overflow="visible"/>
</svg>
