<?xml version="1.0"?>
<svg xmlns="http://www.w3.org/2000/svg" viewBox="0 0 24 24">
    <path d="M 12 2 C 10.14 2 8.5709531 3.277 8.1269531 5 L 8.1210938 5 C 6.6050938 5 5.2829688 6.0711875 5.0429688 7.4921875 C 4.9049687 8.3121875 5.1085156 9.1437812 5.6035156 9.8007812 C 5.3485156 9.9917813 5.1152031 10.214797 4.9082031 10.466797 C 4.1452031 11.395797 3.842125 12.611781 4.078125 13.800781 C 4.447125 15.654781 6.1518594 17 8.1308594 17 L 11 17 L 11 20 L 8 20 L 8 22 L 16 22 L 16 20 L 13 20 L 13 17 L 15.869141 17 C 17.848141 17 19.551922 15.653828 19.919922 13.798828 C 20.155922 12.610828 19.854797 11.395797 19.091797 10.466797 C 18.884797 10.214797 18.651484 9.9917813 18.396484 9.8007812 C 18.892484 9.1437813 19.095031 8.3121875 18.957031 7.4921875 C 18.717031 6.0711875 17.394906 5 15.878906 5 L 15.873047 5 C 15.429047 3.277 13.86 2 12 2 z"/>
</svg>
