<?xml version="1.0"?>
<svg xmlns="http://www.w3.org/2000/svg" viewBox="0 0 24 24">
    <path d="M 11 1 L 11 2.0488281 C 6.2749186 2.5176034 2.5176034 6.2749186 2.0488281 11 L 1 11 L 1 13 L 2.0488281 13 C 2.5176034 17.725081 6.2749186 21.482397 11 21.951172 L 11 23 L 13 23 L 13 21.951172 C 17.725081 21.482397 21.482397 17.725081 21.951172 13 L 23 13 L 23 11 L 21.951172 11 C 21.482397 6.2749186 17.725081 2.5176034 13 2.0488281 L 13 1 L 11 1 z M 11 4.0683594 L 11 6 L 13 6 L 13 4.0683594 C 16.611121 4.5218946 19.478105 7.3888787 19.931641 11 L 18 11 L 18 13 L 19.931641 13 C 19.478105 16.611121 16.611121 19.478105 13 19.931641 L 13 18 L 11 18 L 11 19.931641 C 7.3888787 19.478105 4.5218946 16.611121 4.0683594 13 L 6 13 L 6 11 L 4.0683594 11 C 4.5218946 7.3888787 7.3888787 4.5218946 11 4.0683594 z"/>
</svg>
