<?xml version="1.0"?>
<svg xmlns="http://www.w3.org/2000/svg" viewBox="0 0 24 24">
    <path d="M 3 3 L 3 7 L 3 21 L 10.589844 21 C 10.333844 20.369 10.156359 19.698 10.068359 19 L 5 19 L 5 7 L 19 7 L 19 10.068359 C 19.698 10.156359 20.369 10.333844 21 10.589844 L 21 6 L 21 3 L 3 3 z M 7 10 L 7 12 L 9 12 L 9 10 L 7 10 z M 11 10 L 11 12 L 12.726562 12 C 13.899563 10.968 15.373 10.273359 17 10.068359 L 17 10 L 11 10 z M 18 12 C 14.7 12 12 14.7 12 18 C 12 21.3 14.7 24 18 24 C 21.3 24 24 21.3 24 18 C 24 14.7 21.3 12 18 12 z M 7 14 L 7 16 L 9 16 L 9 14 L 7 14 z M 16.599609 15.199219 L 18 16.599609 L 19.400391 15.199219 L 20.800781 16.599609 L 19.400391 18 L 20.800781 19.400391 L 19.400391 20.800781 L 18 19.400391 L 16.599609 20.800781 L 15.199219 19.400391 L 16.599609 18 L 15.199219 16.599609 L 16.599609 15.199219 z"/>
</svg>
