<?xml version="1.0"?>
<svg xmlns="http://www.w3.org/2000/svg" viewBox="0 0 24 24">
    <path d="M 3 3 L 3 21 L 14.757812 21 L 15.757812 20 L 14.757812 19 L 5 19 L 5 8 L 19 8 L 19 14.757812 L 20 15.757812 L 21 14.757812 L 21 3 L 3 3 z M 7 11 L 7 13 L 9 13 L 9 11 L 7 11 z M 11 11 L 11 13 L 17 13 L 17 11 L 11 11 z M 7 15 L 7 17 L 9 17 L 9 15 L 7 15 z M 11 15 L 11 17 L 13.576172 17 L 15.576172 15 L 11 15 z M 17.408203 15.994141 L 15.994141 17.408203 L 18.585938 20 L 16 22.585938 L 17.414062 24 L 20 21.414062 L 22.580078 23.994141 L 23.994141 22.580078 L 21.414062 20 L 24 17.414062 L 22.585938 16 L 20 18.585938 L 17.408203 15.994141 z"/>
</svg>
