<?xml version="1.0"?>
<svg xmlns="http://www.w3.org/2000/svg" viewBox="0 0 24 24">
    <path d="M 3 3 L 3 21 L 10.587891 21 C 10.211891 20.073 10 19.062 10 18 C 10 17.661 10.027359 17.328 10.068359 17 L 5 17 L 5 7 L 19 7 L 19 10.068359 C 19.699 10.155359 20.369 10.331891 21 10.587891 L 21 3 L 3 3 z M 18 12 C 14.7 12 12 14.7 12 18 C 12 21.3 14.7 24 18 24 C 21.3 24 24 21.3 24 18 C 24 14.7 21.3 12 18 12 z M 16.599609 15.199219 L 18 16.599609 L 19.400391 15.199219 L 20.800781 16.599609 L 19.400391 18 L 20.800781 19.400391 L 19.400391 20.800781 L 18 19.400391 L 16.599609 20.800781 L 15.199219 19.400391 L 16.599609 18 L 15.199219 16.599609 L 16.599609 15.199219 z"/>
</svg>
