<?xml version="1.0"?>
<svg xmlns="http://www.w3.org/2000/svg" viewBox="0 0 24 24">
    <path d="M 4 2 L 4 22 L 12.683594 22 C 12.250594 21.09 12 20.075 12 19 C 12 18.657 12.032078 18.322188 12.080078 17.992188 C 12.052078 17.993187 12.028 18 12 18 C 10.343 18 9 16.657 9 15 C 9 13.343 11 11 11 11 L 13 11 C 13 11 14.045047 12.233969 14.623047 13.542969 C 15.822047 12.579969 17.343 12 19 12 C 19.34 12 19.673 12.033078 20 12.080078 L 20 2 L 13 2 L 13 4 L 11 4 L 11 2 L 4 2 z M 11 5 L 13 5 L 13 7 L 11 7 L 11 5 z M 11 8 L 13 8 L 13 10 L 11 10 L 11 8 z M 12 14 A 1 1 0 0 0 11 15 A 1 1 0 0 0 12 16 A 1 1 0 0 0 13 15 A 1 1 0 0 0 12 14 z M 19.007812 14.019531 C 17.627813 14.019531 16.378609 14.572563 15.474609 15.476562 C 14.570609 16.380562 14.017578 17.629766 14.017578 19.009766 C 14.017578 21.769766 16.249766 24 19.009766 24 C 21.769766 24 24 21.770766 24 19.009766 C 23.999 16.252766 21.767813 14.020531 19.007812 14.019531 z M 17.601562 16.179688 L 19.015625 17.59375 L 20.429688 16.179688 L 21.84375 17.59375 L 20.429688 19.007812 L 21.84375 20.421875 L 20.429688 21.835938 L 19.015625 20.421875 L 17.601562 21.835938 L 16.1875 20.421875 L 17.601562 19.007812 L 16.1875 17.59375 L 17.601562 16.179688 z"/>
</svg>
