<?xml version="1.0"?>
<svg xmlns="http://www.w3.org/2000/svg" viewBox="0 0 24 24">
    <path d="M 6 4 C 3.239 4 1 6.239 1 9 C 1 11.761 3.239 14 6 14 L 10 14 L 10 12 L 6 12 C 4.343 12 3 10.657 3 9 C 3 7.343 4.343 6 6 6 L 10 6 L 10 4 L 6 4 z M 14 4 L 14 6 L 18 6 C 19.657 6 21 7.343 21 9 C 21 10.657 19.657 12 18 12 L 14 12 L 14 14 L 18 14 C 20.761 14 23 11.761 23 9 C 23 6.239 20.761 4 18 4 L 14 4 z M 7 8 L 7 10 L 17 10 L 17 8 L 7 8 z M 17.414062 16 L 16 17.414062 L 18.585938 20 L 15.998047 22.587891 L 17.412109 24.001953 L 20 21.414062 L 22.585938 24 L 24 22.585938 L 21.414062 20 L 23.914062 17.5 L 22.5 16.085938 L 20 18.585938 L 17.414062 16 z"/>
</svg>
