<?xml version="1.0"?>
<svg xmlns="http://www.w3.org/2000/svg" viewBox="0 0 24 24">
    <path d="M 1 4 L 1 5.5820312 L 11 12 L 21 5.5820312 L 21 4 L 1 4 z M 1 7.7519531 L 1 10.552734 L 1 20 L 12.421875 20 L 14 20 L 14.757812 20 L 15.757812 19 L 13.636719 16.878906 L 17.878906 12.636719 L 20 14.757812 L 21 13.757812 L 21 13 L 21 9.1953125 L 21 7.7519531 L 11 14 L 1 7.7519531 z M 17.878906 15.464844 L 16.464844 16.878906 L 18.585938 19 L 16.464844 21.121094 L 17.878906 22.535156 L 20 20.414062 L 22.121094 22.535156 L 23.535156 21.121094 L 21.414062 19 L 23.535156 16.878906 L 22.121094 15.464844 L 20 17.585938 L 17.878906 15.464844 z"/>
</svg>
