<?xml version="1.0"?>
<svg xmlns="http://www.w3.org/2000/svg" viewBox="0 0 24 24">
    <path d="M19.999,3H4.01c-1.1,0-2.001,0.9-2.001,2L2,16.999C2,18.104,2.895,19,4,19h1.499c0.276,0,0.5,0.224,0.5,0.5v2.086 c0,0.891,1.077,1.337,1.707,0.707l3-3C10.894,19.105,11.148,19,11.413,19h8.586c1.1,0,2-0.9,2-2V5C21.999,3.9,21.099,3,19.999,3z M15.293,12.879c0.391,0.391,0.391,1.024,0,1.414c-0.391,0.391-1.024,0.391-1.414,0L12,12.414l-1.879,1.879 c-0.391,0.391-1.024,0.391-1.414,0c-0.391-0.391-0.391-1.024,0-1.414L10.586,11L8.707,9.121c-0.391-0.391-0.391-1.024,0-1.414 s1.024-0.391,1.414,0L12,9.586l1.879-1.879c0.391-0.391,1.024-0.391,1.414,0s0.391,1.024,0,1.414L13.414,11L15.293,12.879z"/>
</svg>
