<?xml version="1.0"?>
<svg xmlns="http://www.w3.org/2000/svg" viewBox="0 0 24 24">
    <path d="M 5.5 3 C 2.462 3 0 5.462 0 8.5 C 0 9.6753966 0.37215298 10.762524 1 11.65625 L 1 18 L 3 18 C 3 19.657 4.343 21 6 21 C 7.657 21 9 19.657 9 18 L 15 18 C 15 19.657 16.343 21 18 21 C 19.657 21 21 19.657 21 18 L 23 18 L 23 13 L 20 7 L 16 7 L 16 5 L 9.7421875 5 C 8.7334647 3.7789071 7.2078831 3 5.5 3 z M 5.5 4.75 C 7.568 4.75 9.25 6.432 9.25 8.5 C 9.25 10.568 7.568 12.25 5.5 12.25 C 3.432 12.25 1.75 10.568 1.75 8.5 C 1.75 6.432 3.432 4.75 5.5 4.75 z M 5.5078125 6.0917969 L 4.6445312 8.6992188 L 6.4042969 10.486328 L 7.4726562 9.4355469 L 6.3554688 8.3007812 L 6.9316406 6.5625 L 5.5078125 6.0917969 z M 16 8.75 L 18.917969 8.75 L 21.042969 13 L 16 13 L 16 8.75 z M 6 16.75 C 6.689 16.75 7.25 17.311 7.25 18 C 7.25 18.689 6.689 19.25 6 19.25 C 5.311 19.25 4.75 18.689 4.75 18 C 4.75 17.311 5.311 16.75 6 16.75 z M 18 16.75 C 18.689 16.75 19.25 17.311 19.25 18 C 19.25 18.689 18.689 19.25 18 19.25 C 17.311 19.25 16.75 18.689 16.75 18 C 16.75 17.311 17.311 16.75 18 16.75 z"/>
</svg>
