<?xml version="1.0"?>
<svg xmlns="http://www.w3.org/2000/svg" viewBox="0 0 24 24">
    <path d="M 5.6914062 1.0078125 C 5.4844707 1.0182734 5.2752031 1.03825 5.0644531 1.0703125 C 2.4374531 1.4703125 0.3390625 3.6636875 0.0390625 6.3046875 C -0.1939375 8.3526875 0.618 10.218937 2 11.460938 L 2 19 L 3 19 L 3.0507812 19 C 3.2957813 20.692 4.742 22 6.5 22 C 8.258 22 9.7042188 20.692 9.9492188 19 L 14.050781 19 C 14.295781 20.692 15.740047 22 17.498047 22 C 19.256047 22 20.702266 20.692 20.947266 19 L 23 19 L 23 15.306641 L 23 14.457031 L 19.636719 9 L 16 9 L 16 6 L 11.910156 6 C 11.415156 3.0684375 8.7954395 0.85089844 5.6914062 1.0078125 z M 6.03125 3 C 8.5753125 3.0196465 10.560719 5.4278906 9.8554688 8.0878906 C 9.5014688 9.4228906 8.4228906 10.501469 7.0878906 10.855469 C 4.0478906 11.662469 1.3385313 8.9521094 2.1445312 5.9121094 C 2.4985313 4.5771094 3.5771094 3.4985313 4.9121094 3.1445312 C 5.2921094 3.0436563 5.6678125 2.9971934 6.03125 3 z M 5 5 L 5 8.4140625 L 6.7050781 10.119141 L 8.1191406 8.7050781 L 7 7.5859375 L 7 5 L 5 5 z M 16 11 L 17.962891 11 L 18.523438 11 L 21 15.017578 L 21 17 L 20.648438 17 C 20.084437 15.822 18.891 15 17.5 15 C 16.961 15 16.456 15.133562 16 15.351562 L 16 11 z M 6.5 17 C 7.327 17 8 17.673 8 18.5 C 8 19.327 7.327 20 6.5 20 C 5.673 20 5 19.327 5 18.5 C 5 17.673 5.673 17 6.5 17 z M 17.5 17 C 18.327 17 19 17.673 19 18.5 C 19 19.327 18.327 20 17.5 20 C 16.673 20 16 19.327 16 18.5 C 16 17.673 16.673 17 17.5 17 z"/>
</svg>
