<?xml version="1.0"?>
<svg xmlns="http://www.w3.org/2000/svg" viewBox="0 0 24 24">
    <path style="line-height:normal;text-indent:0;text-align:start;text-decoration-line:none;text-decoration-style:solid;text-decoration-color:#000;text-transform:none;block-progression:tb;isolation:auto;mix-blend-mode:normal" d="M 6 2 L 6 5.2753906 C 4.2577251 5.8965769 3 7.5473009 3 9.5 L 3 11 L 12 11 L 12 9.5 C 12 8.0793122 11.324685 6.8253558 10.292969 6 L 14.271484 6 A 2 2 0 0 0 15.669922 6.9707031 L 17.455078 11.730469 A 2 2 0 0 0 17 13 A 2 2 0 0 0 17.162109 13.783203 L 12.5 20 L 9 20 L 9 22 L 18 22 L 18 20 L 15 20 L 18.761719 14.984375 A 2 2 0 0 0 19 15 A 2 2 0 0 0 21 13 A 2 2 0 0 0 19.330078 11.029297 L 17.544922 6.2695312 A 2 2 0 0 0 18 5 A 2 2 0 0 0 16 3 A 2 2 0 0 0 14.269531 4 L 9 4 L 9 2 L 6 2 z" font-weight="400" font-family="sans-serif" white-space="normal" overflow="visible"/>
</svg>
