<?xml version="1.0"?>
<svg xmlns="http://www.w3.org/2000/svg" viewBox="0 0 24 24">
    <path d="M 11.585938 2.0078125 C 6.0222485 2.2344421 1.6297656 7.0082031 2.0253906 12.712891 C 2.3923906 18.001891 7.0056406 22 12.306641 22 L 22 22 L 22 12.306641 C 22 7.0056406 18.001891 2.3923906 12.712891 2.0253906 C 12.332641 1.9990156 11.95685 1.9927039 11.585938 2.0078125 z M 12 4 C 16.418 4 20 7.582 20 12 C 20 16.418 16.418 20 12 20 C 7.582 20 4 16.418 4 12 C 4 7.582 7.582 4 12 4 z M 12 8 C 9.791 8 8 9.791 8 12 C 8 14.209 9.791 16 12 16 C 14.209 16 16 14.209 16 12 C 16 11.653 15.942375 11.321 15.859375 11 L 13 11 L 13 8.140625 C 12.679 8.057625 12.347 8 12 8 z"/>
</svg>
