<?xml version="1.0"?>
<svg xmlns="http://www.w3.org/2000/svg" viewBox="0 0 24 24">
    <path style="line-height:normal;text-indent:0;text-align:start;text-decoration-line:none;text-decoration-style:solid;text-decoration-color:#000;text-transform:none;block-progression:tb;isolation:auto;mix-blend-mode:normal" d="M 5 1 L 5 5.7578125 L 6.7578125 4 L 17.242188 4 L 19 5.7578125 L 19 1 L 5 1 z M 7.2929688 6.2929688 L 2.5859375 11 L 7.2929688 15.707031 L 8.7070312 14.292969 L 5.4140625 11 L 8.7070312 7.7070312 L 7.2929688 6.2929688 z M 16.707031 6.2929688 L 15.292969 7.7070312 L 18.585938 11 L 15.292969 14.292969 L 16.707031 15.707031 L 21.414062 11 L 16.707031 6.2929688 z M 5 16.242188 L 5 23 L 19 23 L 19 16.242188 L 17.242188 18 L 6.7578125 18 L 5 16.242188 z M 12 18.875 C 12.622 18.875 13.125 19.378 13.125 20 C 13.125 20.622 12.622 21.125 12 21.125 C 11.378 21.125 10.875 20.622 10.875 20 C 10.875 19.378 11.378 18.875 12 18.875 z" font-weight="400" font-family="sans-serif" white-space="normal" overflow="visible"/>
</svg>
