<?xml version="1.0"?>
<svg xmlns="http://www.w3.org/2000/svg" viewBox="0 0 24 24">
    <path d="M 16.046875 2 C 15.917875 2 15.809922 2.0966094 15.794922 2.2246094 L 15.677734 3.2363281 C 15.193734 3.4043281 14.756953 3.6592812 14.376953 3.9882812 L 13.439453 3.5820312 C 13.321453 3.5310312 13.183141 3.5774531 13.119141 3.6894531 L 12.183594 5.3105469 C 12.119594 5.4225469 12.148953 5.564625 12.251953 5.640625 L 13.058594 6.2382812 C 13.011594 6.4842813 12.980469 6.7380469 12.980469 6.9980469 C 12.980469 7.2580469 13.010594 7.5127656 13.058594 7.7597656 L 12.251953 8.3574219 C 12.148953 8.4344219 12.118594 8.5765 12.183594 8.6875 L 13.119141 10.308594 C 13.183141 10.420594 13.321453 10.465063 13.439453 10.414062 L 14.376953 10.009766 C 14.755953 10.337766 15.193734 10.593719 15.677734 10.761719 L 15.794922 11.773438 C 15.809922 11.903437 15.918875 12 16.046875 12 L 17.917969 12 C 18.046969 12 18.154922 11.903391 18.169922 11.775391 L 18.287109 10.763672 C 18.771109 10.595672 19.207891 10.340719 19.587891 10.011719 L 20.523438 10.417969 C 20.641437 10.468969 20.77975 10.421547 20.84375 10.310547 L 21.779297 8.6894531 C 21.843297 8.5774531 21.815891 8.435375 21.712891 8.359375 L 20.90625 7.7597656 C 20.95325 7.5127656 20.982422 7.26 20.982422 7 C 20.982422 6.74 20.952297 6.4872344 20.904297 6.2402344 L 21.710938 5.640625 C 21.813938 5.563625 21.844297 5.4215469 21.779297 5.3105469 L 20.84375 3.6894531 C 20.77975 3.5774531 20.641437 3.5329844 20.523438 3.5839844 L 19.587891 3.9882812 C 19.208891 3.6602813 18.769156 3.4043281 18.285156 3.2363281 L 18.169922 2.2246094 C 18.154922 2.0966094 18.046969 2 17.917969 2 L 16.046875 2 z M 12.097656 2.0019531 C 7.9336563 1.9519531 4.4937344 5.0831875 4.0527344 9.1171875 L 1.5761719 13 L 4 14.021484 L 4 19 L 8 19 L 8 22 L 17 22 L 17 19.240234 C 17 16.105234 18.270203 15.25125 19.158203 13.65625 C 18.053203 14.01425 16.834547 14.113563 15.560547 13.851562 C 12.792547 13.280563 10.580469 11.016469 10.105469 8.2304688 C 9.6894687 5.7914687 10.538609 3.5378594 12.099609 2.0058594 C 12.098609 2.0028594 12.098656 2.0049531 12.097656 2.0019531 z M 16.982422 5.25 C 17.948422 5.25 18.732422 6.033 18.732422 7 C 18.732422 7.966 17.949422 8.75 16.982422 8.75 C 16.016422 8.75 15.232422 7.966 15.232422 7 C 15.232422 6.033 16.016422 5.25 16.982422 5.25 z"/>
</svg>
