<?xml version="1.0"?>
<svg xmlns="http://www.w3.org/2000/svg" viewBox="0 0 24 24">
    <path d="M 4 2 L 4 22 L 20 22 L 20 2 L 4 2 z M 9.5292969 9.1191406 L 10.419922 9.1191406 L 12.570312 14.800781 L 11.539062 14.800781 L 11.070312 13.480469 L 8.8691406 13.480469 L 8.4101562 14.800781 L 7.3808594 14.800781 L 9.5292969 9.1191406 z M 9.9707031 10.320312 L 9.1503906 12.679688 L 10.800781 12.679688 L 9.9707031 10.320312 z M 14.820312 10.5 C 15.320312 10.5 15.71 10.619141 16 10.869141 C 16.3 11.119141 16.450937 11.469922 16.460938 11.919922 L 16.460938 13.830078 C 16.460938 14.210078 16.509141 14.510234 16.619141 14.740234 L 16.619141 14.800781 L 15.650391 14.800781 C 15.610391 14.720781 15.569063 14.590156 15.539062 14.410156 C 15.239062 14.730156 14.869687 14.880859 14.429688 14.880859 C 13.999688 14.880859 13.660625 14.759531 13.390625 14.519531 C 13.120625 14.279531 12.990234 13.979141 12.990234 13.619141 C 12.990234 13.169141 13.160234 12.820078 13.490234 12.580078 C 13.830234 12.340078 14.299687 12.220703 14.929688 12.220703 L 15.509766 12.220703 L 15.509766 11.949219 C 15.509766 11.729219 15.450313 11.549922 15.320312 11.419922 C 15.200313 11.289922 15.019531 11.220703 14.769531 11.220703 C 14.549531 11.220703 14.370469 11.280859 14.230469 11.380859 C 14.100469 11.490859 14.029297 11.630781 14.029297 11.800781 L 13.080078 11.800781 C 13.080078 11.560781 13.160547 11.350391 13.310547 11.150391 C 13.460547 10.940391 13.669453 10.789922 13.939453 10.669922 C 14.199453 10.559922 14.500312 10.5 14.820312 10.5 z M 15 12.820312 C 14.64 12.820313 14.379219 12.88 14.199219 13 C 14.029219 13.13 13.939453 13.299531 13.939453 13.519531 C 13.939453 13.709531 13.999141 13.850938 14.119141 13.960938 C 14.239141 14.070937 14.399375 14.119141 14.609375 14.119141 C 14.789375 14.119141 14.970859 14.080469 15.130859 13.980469 C 15.300859 13.890469 15.419766 13.769141 15.509766 13.619141 L 15.509766 12.820312 L 15 12.820312 z"/>
</svg>
