<?xml version="1.0"?>
<svg xmlns="http://www.w3.org/2000/svg" viewBox="0 0 24 24">
    <path style="line-height:normal;text-indent:0;text-align:start;text-decoration-line:none;text-decoration-style:solid;text-decoration-color:#000;text-transform:none;block-progression:tb;isolation:auto;mix-blend-mode:normal" d="M 17.5 1 A 1.5 1.5 0 0 0 16 2.5 A 1.5 1.5 0 0 0 17.5 4 A 1.5 1.5 0 0 0 19 2.5 A 1.5 1.5 0 0 0 17.5 1 z M 15.058594 3.9296875 L 14.056641 5.6621094 L 15.503906 6.5 L 14.056641 7.3378906 L 15.058594 9.0703125 L 17.5 7.65625 L 19.941406 9.0703125 L 20.943359 7.3378906 L 19.496094 6.5 L 20.943359 5.6621094 L 19.941406 3.9296875 L 17.5 5.34375 L 15.058594 3.9296875 z M 2 5 L 2 21 L 4 21 L 4 19 L 20 19 L 20 21 L 22 21 L 22 10 L 10 10 L 10 13 L 7 13 L 4 13 L 4 5 L 2 5 z M 7 13 A 2 2 0 0 0 9 11 A 2 2 0 0 0 7 9 A 2 2 0 0 0 5 11 A 2 2 0 0 0 7 13 z" font-weight="400" font-family="sans-serif" white-space="normal" overflow="visible"/>
</svg>
