<?xml version="1.0"?>
<svg xmlns="http://www.w3.org/2000/svg" viewBox="0 0 24 24">
    <path style="line-height:normal;text-indent:0;text-align:start;text-decoration-line:none;text-decoration-style:solid;text-decoration-color:#000;text-transform:none;block-progression:tb;isolation:auto;mix-blend-mode:normal" d="M 24 2.6367188 L 14.566406 5.6035156 L 12.859375 4 L 12 4 L 8 4 C 8 4 8.0021875 4.723 7.9921875 5.625 L 8 9 L 5 9 L 5 13 C 2.8026661 13 1 14.802666 1 17 L 1 18 L 1.203125 18 C 1.6594792 19.706363 3.1564058 21 5 21 L 17 21 C 18.843594 21 20.340521 19.706363 20.796875 18 L 21 18 L 21 17 C 21 15.149665 19.715801 13.5944 18 13.144531 L 18 11 L 18 10 L 18 9.9726562 L 18 8.828125 L 16.240234 7.1757812 L 22 5.3632812 L 22 6.6972656 L 19.130859 11 L 24 11 L 24 7.1035156 A 1.0001 1.0001 0 0 0 24 6.8652344 L 24 2.6367188 z M 9.9921875 6 L 12.058594 6 L 15.267578 9 L 10 8.9980469 L 9.9921875 6 z M 5 15 L 17 15 C 18.116666 15 19 15.883334 19 17 C 19 18.116666 18.116666 19 17 19 L 5 19 C 3.8833339 19 3 18.116666 3 17 C 3 15.883334 3.8833339 15 5 15 z M 5 16 A 1 1 0 0 0 4 17 A 1 1 0 0 0 5 18 A 1 1 0 0 0 6 17 A 1 1 0 0 0 5 16 z M 9 16 A 1 1 0 0 0 8 17 A 1 1 0 0 0 9 18 A 1 1 0 0 0 10 17 A 1 1 0 0 0 9 16 z M 13 16 A 1 1 0 0 0 12 17 A 1 1 0 0 0 13 18 A 1 1 0 0 0 14 17 A 1 1 0 0 0 13 16 z M 17 16 A 1 1 0 0 0 16 17 A 1 1 0 0 0 17 18 A 1 1 0 0 0 18 17 A 1 1 0 0 0 17 16 z" font-weight="400" font-family="sans-serif" white-space="normal" overflow="visible"/>
</svg>
