<?xml version="1.0"?>
<svg xmlns="http://www.w3.org/2000/svg" viewBox="0 0 24 24">
    <path d="M 14 3 A 2 2 0 0 0 12 5 A 2 2 0 0 0 14 7 A 2 2 0 0 0 16 5 A 2 2 0 0 0 14 3 z M 10.421875 6.9902344 C 9.7558594 6.9589844 9.0996094 7.1621094 8.5996094 7.5996094 C 7.1466094 8.7616094 5.1494375 10.872 5.0234375 14 L 2 14 L 2 15 C 2 18.5 5.2992187 20.740078 5.4492188 20.830078 L 5.6992188 21 L 13.650391 21 L 16.769531 14 L 16.759766 14 L 17.439453 12.46875 L 18.453125 12.974609 L 19.347656 11.185547 L 13.992188 8.5078125 C 13.993188 8.5068125 14 8.5 14 8.5 L 11.599609 7.3007812 C 11.224609 7.1132812 10.821484 7.0089844 10.421875 6.9902344 z M 12.435547 9.9648438 L 15.652344 11.572266 L 14.570312 14 L 10.128906 14 C 10.274906 12.557 11.421547 11.039844 12.435547 9.9648438 z M 18.949219 14 L 15.839844 21 L 18.300781 21 L 18.539062 20.839844 C 18.679063 20.749844 22 18.56 22 15 L 22 14 L 18.949219 14 z"/>
</svg>
