<?xml version="1.0"?>
<svg xmlns="http://www.w3.org/2000/svg" viewBox="0 0 24 24">
    <path d="M 11 2 L 11 4.1875 C 9.8426699 4.6048587 9 5.7068414 9 7 C 9 8.6450096 10.35499 10 12 10 C 13.64501 10 15 8.6450096 15 7 C 15 5.7068414 14.15733 4.6048587 13 4.1875 L 13 2 L 11 2 z M 6.5 6 A 0.5 0.5 0 0 0 6 6.5 A 0.5 0.5 0 0 0 6.5 7 A 0.5 0.5 0 0 0 7 6.5 A 0.5 0.5 0 0 0 6.5 6 z M 12 6 C 12.564129 6 13 6.4358706 13 7 C 13 7.5641294 12.564129 8 12 8 C 11.435871 8 11 7.5641294 11 7 C 11 6.4358706 11.435871 6 12 6 z M 17.5 6 A 0.5 0.5 0 0 0 17 6.5 A 0.5 0.5 0 0 0 17.5 7 A 0.5 0.5 0 0 0 18 6.5 A 0.5 0.5 0 0 0 17.5 6 z M 7.5 9 A 0.5 0.5 0 0 0 7 9.5 A 0.5 0.5 0 0 0 7.5 10 A 0.5 0.5 0 0 0 8 9.5 A 0.5 0.5 0 0 0 7.5 9 z M 16.5 9 A 0.5 0.5 0 0 0 16 9.5 A 0.5 0.5 0 0 0 16.5 10 A 0.5 0.5 0 0 0 17 9.5 A 0.5 0.5 0 0 0 16.5 9 z M 3 12 L 3 14 L 5.1933594 14 L 4 22 L 6.0527344 22 L 6.78125 17 L 17.195312 17 L 17.947266 22 L 20 22 L 18.773438 14 L 21 14 L 21 12 L 3 12 z"/>
</svg>
