<?xml version="1.0"?>
<svg xmlns="http://www.w3.org/2000/svg" viewBox="0 0 24 24">
    <path d="M21,3H3v18h18V3z M17.677,15.584c-0.262,0.379-0.635,0.613-1.05,0.659c-0.509,0.058-1.024-0.145-1.582-0.615 c-0.099-0.084-0.196-0.171-0.293-0.259c-0.255-0.23-0.591-0.509-0.865-0.64c-0.288-0.138-0.699-0.16-0.893,0.07 c-0.173,0.206-0.145,0.546-0.112,0.94c0.036,0.444,0.078,0.946-0.188,1.385c-0.312,0.516-0.909,0.695-1.394,0.793 C11.081,17.963,10.848,18,10.614,18c-0.285,0-0.569-0.055-0.828-0.216c-0.412-0.255-0.653-0.752-0.653-1.267 c0-1.101,0.557-1.613,0.615-1.661c0.137-0.114,0.393-0.455,0.154-0.615c-0.602-0.378-1.445,0.071-1.597,0.098 c-0.125,0.022-0.25,0.044-0.375,0.053c-0.027,0.002-0.063,0.006-0.104,0.011C7.654,14.422,7.328,14.459,7,14.409 c-0.416-0.063-0.837-0.266-0.952-0.82c-0.099-0.479-0.045-0.842,0.166-1.111c0.348-0.441,0.974-0.449,1.637-0.458 c0.539-0.007,1.87,0.213,2.237-0.021c0.052-0.033,0.113-0.081,0.112-0.126c-0.001-0.113,0.289-0.445-1.43-1.487l-0.128-0.078 C8.236,10.054,7.97,9.693,7.875,9.265C7.741,8.663,7.976,8.077,8.136,7.826C8.47,7.302,9.177,7.071,9.817,7.275 c0.502,0.161,0.941,0.561,1.236,1.126c0.119,0.228,0.217,0.445,0.314,0.662c0.084,0.187,0.168,0.375,0.269,0.572 c0.099,0.193,0.3,0.525,0.526,0.51c0.222-0.006,0.516-0.297,0.683-0.677c0.237-0.539,0.468-1.079,0.691-1.625 c0.316-0.775,0.719-1.287,1.229-1.564C15.1,6.097,15.505,6.006,16.001,6c0.699,0.007,1.248,0.197,1.575,0.594 c0.146,0.178,0.253,0.399,0.328,0.676c0.239,0.881,0.025,1.86-0.557,2.555c-0.298,0.355-0.669,0.621-1.028,0.879 c-0.472,0.338-0.916,0.657-1.106,1.124c-0.077,0.19-0.095,0.442,0.02,0.557c0.104,0.103,0.319,0.122,0.547,0.142 c0.076,0.007,0.152,0.014,0.227,0.023c0.9,0.116,1.756,0.821,1.95,1.629C18.068,14.644,17.963,15.17,17.677,15.584z"/>
</svg>
