<?xml version="1.0"?>
<svg xmlns="http://www.w3.org/2000/svg" viewBox="0 0 24 24">
    <path style="line-height:normal;text-indent:0;text-align:start;text-decoration-line:none;text-decoration-style:solid;text-decoration-color:#000;text-transform:none;block-progression:tb;isolation:auto;mix-blend-mode:normal" d="M 15 2 L 11.707031 5.2929688 L 10.707031 4.2929688 L 9.2929688 5.7070312 L 11.085938 7.5 L 9.2929688 9.2929688 L 10.707031 10.707031 L 12.5 8.9140625 L 15.085938 11.5 L 13.292969 13.292969 L 14.707031 14.707031 L 16.5 12.914062 L 18.292969 14.707031 L 19.707031 13.292969 L 18.707031 12.292969 L 22 9 L 19.207031 6.2070312 L 21.707031 3.7070312 L 20.292969 2.2929688 L 17.792969 4.7929688 L 15 2 z M 5.7070312 9.2929688 L 4.2929688 10.707031 L 5.2929688 11.707031 L 2 15 L 4.7929688 17.792969 L 2.2929688 20.292969 L 3.7070312 21.707031 L 6.2070312 19.207031 L 9 22 L 12.292969 18.707031 L 13.292969 19.707031 L 14.707031 18.292969 L 5.7070312 9.2929688 z"/>
</svg>
