<?xml version="1.0"?>
<svg xmlns="http://www.w3.org/2000/svg" viewBox="0 0 24 24">
    <path style="line-height:normal;text-indent:0;text-align:start;text-decoration-line:none;text-decoration-style:solid;text-decoration-color:#000;text-transform:none;block-progression:tb;isolation:auto;mix-blend-mode:normal" d="M 12 2 L 12 10.166016 L 11.082031 10.013672 L 11 10.013672 L 11 3 L 9 3 L 9 10 L 9 12.71875 L 9 15.9375 L 5.1875 12.75 L 3.0722656 14.9375 L 8.0546875 21.046875 L 8.9140625 22 L 20 22 L 20 13.193359 C 20 13.127628 19.988677 13.064275 19.982422 13 L 20 13 L 20 5 L 18 5 L 18 11.167969 L 17 11 L 17 3 L 15 3 L 15 10.667969 L 14 10.5 L 14 2 L 12 2 z M 12.402344 13.011719 L 14.5 15.109375 L 16.597656 13.011719 L 18.011719 14.425781 L 15.914062 16.523438 L 17.988281 18.597656 L 16.574219 20.011719 L 14.5 17.9375 L 12.425781 20.011719 L 11.011719 18.597656 L 13.085938 16.523438 L 10.988281 14.425781 L 12.402344 13.011719 z" font-weight="400" font-family="sans-serif" white-space="normal" overflow="visible"/>
</svg>
