<?xml version="1.0"?>
<svg xmlns="http://www.w3.org/2000/svg" viewBox="0 0 24 24">
    <path d="M 8.7519531 2 L 7.0566406 5.1953125 L 3.4941406 5.8203125 L 4 9.4003906 L 1.484375 12 L 4 14.599609 L 3.4921875 18.179688 L 7.0546875 18.804688 L 8.7519531 22 L 12 20.412109 L 15.248047 22 L 16.943359 18.804688 L 20.505859 18.179688 L 20 14.599609 L 22.515625 12 L 20 9.4003906 L 20.507812 5.8203125 L 16.945312 5.1953125 L 15.248047 2 L 12 3.5878906 L 8.7519531 2 z M 9 7 C 10.105 7 11 7.895 11 9 C 11 10.105 10.105 11 9 11 C 7.895 11 7 10.105 7 9 C 7 7.895 7.895 7 9 7 z M 14.400391 7.5507812 L 15.599609 8.4492188 L 9.5996094 16.449219 L 8.4003906 15.550781 L 14.400391 7.5507812 z M 9 8 A 1 1 0 0 0 8 9 A 1 1 0 0 0 9 10 A 1 1 0 0 0 10 9 A 1 1 0 0 0 9 8 z M 15 13 C 16.105 13 17 13.895 17 15 C 17 16.105 16.105 17 15 17 C 13.895 17 13 16.105 13 15 C 13 13.895 13.895 13 15 13 z M 15 14 A 1 1 0 0 0 14 15 A 1 1 0 0 0 15 16 A 1 1 0 0 0 16 15 A 1 1 0 0 0 15 14 z"/>
</svg>
