<?xml version="1.0"?>
<svg xmlns="http://www.w3.org/2000/svg" viewBox="0 0 24 24">
    <path style="line-height:normal;text-indent:0;text-align:start;text-decoration-line:none;text-decoration-style:solid;text-decoration-color:#000;text-transform:none;block-progression:tb;isolation:auto;mix-blend-mode:normal" d="M 3 3 L 3 21 L 21 21 L 21 20 L 21 3 L 3 3 z M 11 5 C 11.552 5 12 5.448 12 6 C 12 6.552 11.552 7 11 7 C 10.448 7 10 6.552 10 6 C 10 5.448 10.448 5 11 5 z M 14 5 C 14.552 5 15 5.448 15 6 C 15 6.552 14.552 7 14 7 C 13.448 7 13 6.552 13 6 C 13 5.448 13.448 5 14 5 z M 17 5 C 17.552 5 18 5.448 18 6 C 18 6.552 17.552 7 17 7 C 16.448 7 16 6.552 16 6 C 16 5.448 16.448 5 17 5 z M 5 9 L 19 9 L 19 19 L 5 19 L 5 9 z M 6 11 L 6 12.5 C 6 13.452 6.798 14.681281 8 14.738281 L 8 16 L 7 16 L 7 17 L 10 17 L 10 16 L 9 16 L 9 14.738281 C 10.202 14.681281 11 13.452 11 12.5 L 11 11 L 6 11 z M 13 11 L 13 17 C 14.1 17 15 16.1 15 15 L 15 13 C 15 11.9 14.1 11 13 11 z M 16 11 L 16 17 C 17.1 17 18 16.1 18 15 L 18 13 C 18 11.9 17.1 11 16 11 z" font-weight="400" font-family="sans-serif" white-space="normal" overflow="visible"/>
</svg>
