<?xml version="1.0"?>
<svg xmlns="http://www.w3.org/2000/svg" viewBox="0 0 24 24">
    <path style="line-height:normal;text-indent:0;text-align:start;text-decoration-line:none;text-decoration-style:solid;text-decoration-color:#000;text-transform:none;block-progression:tb;isolation:auto;mix-blend-mode:normal" d="M 4 2 L 4 9 L 1 9 L 1 18 L 4 18 L 4 22 L 20 22 L 20 18 L 20 9 L 20 7 L 15 2 L 4 2 z M 6 4 L 14 4 L 14 8 L 18 8 L 18 9 L 6 9 L 6 4 z M 16.035156 11.001953 C 17.207156 11.002953 17.673281 11.538953 17.863281 12.001953 L 16.570312 12.001953 L 16 12 C 15.118 11.987 15 12.855984 15 13.083984 L 15 13.912109 C 15 14.144109 15.206781 15.01 16.175781 15 C 16.458781 14.997 16.976 14.836266 17 14.822266 L 16.978516 14 L 16 14 L 16.021484 13 L 18 13 L 18 15.380859 C 17.94 15.436859 17.291422 15.961047 16.107422 15.998047 C 15.785422 16.008047 14.132 16.038062 14 13.914062 L 14 13.091797 C 14 12.736797 13.958156 10.999953 16.035156 11.001953 z M 3 11.023438 L 4.6289062 11.023438 C 6.2119063 11.023438 7 11.974906 7 13.128906 L 7 13.900391 C 7 15.068391 6.2092344 16 4.6152344 16 L 3 16 L 3 11.023438 z M 8 11.023438 L 9.4570312 11.023438 L 10.501953 14.623047 L 11.542969 11.023438 L 13 11.023438 L 13 16 L 12.998047 16 L 12 16 L 12 14.652344 L 12.103516 12.578125 L 10.876953 16 L 10.117188 16 L 8.8984375 12.578125 L 9 14.652344 L 9 16 L 8 16 L 8 11.023438 z M 4 12.023438 L 4 15 L 4.6152344 15 C 5.2472344 15 6 14.808391 6 13.900391 L 6 13.128906 C 6 12.214906 5.2549062 12.023438 4.6289062 12.023438 L 4 12.023438 z M 6 18 L 18 18 L 18 20 L 6 20 L 6 18 z" font-weight="400" font-family="sans-serif" white-space="normal" overflow="visible"/>
</svg>
