<?xml version="1.0"?>
<svg xmlns="http://www.w3.org/2000/svg" viewBox="0 0 24 24">
    <path d="M 3 5 L 3 15 C 3.726 15 4.3732344 14.839063 4.9902344 14.539062 L 5 7.3125 C 5.715 7.5405 6.376 7.8844062 7 8.3164062 L 7 13.089844 C 7.63 12.499844 8.28 11.769922 9 10.919922 L 9 10.064453 C 9.5771869 10.665975 10.136143 11.328165 10.697266 12.001953 C 10.137857 12.681171 9.5793872 13.330321 9 13.929688 C 8.37 14.599687 7.71 15.199453 7 15.689453 C 6.38 16.119453 5.72 16.469453 5 16.689453 C 4.38 16.889453 3.72 17 3 17 L 3 19 C 7.07 19 9.64 16.380312 12 13.570312 C 11.74 13.260312 11.490469 12.950625 11.230469 12.640625 C 13.810631 15.768608 16.480575 19 21 19 L 21 17 C 17.422 17 15.163484 14.261281 12.771484 11.363281 C 10.190484 8.2342812 7.521 5 3 5 z M 21 5 C 17.67 5 15.350078 6.7499219 13.330078 8.9199219 C 13.670078 9.3099219 13.990547 9.6998437 14.310547 10.089844 C 14.420547 10.219844 14.519141 10.350703 14.619141 10.470703 C 14.749141 10.330703 14.87 10.200313 15 10.070312 L 15 10.919922 C 15.72 11.769922 16.37 12.499844 17 13.089844 L 17 8.3105469 C 17.63 7.8805469 18.289766 7.5305469 19.009766 7.3105469 L 19 14.550781 C 19.617 14.840781 20.264234 15 20.990234 15 L 21 5 z"/>
</svg>
