<?xml version="1.0"?>
<svg xmlns="http://www.w3.org/2000/svg" viewBox="0 0 24 24">
    <path d="M 12 2 C 8.308 2 5.0855156 4.016 3.3535156 7 L 5.7949219 7 C 6.6949219 5.888 7.8693281 5.0079531 9.2363281 4.5019531 C 8.9233281 5.2299531 8.6724688 6.08 8.4804688 7 L 10.537109 7 C 11.016109 5.023 11.687 4 12 4 C 12.313 4 12.983891 5.023 13.462891 7 L 15.519531 7 C 15.327531 6.08 15.075672 5.2299531 14.763672 4.5019531 C 16.129672 5.0079531 17.305078 5.888 18.205078 7 L 20.646484 7 C 18.914484 4.016 15.692 2 12 2 z M 3.1621094 9 L 3.1621094 15 L 5.2949219 15 C 5.8149219 14.997 6.2832656 14.877672 6.6972656 14.638672 C 7.1112656 14.399672 7.4312031 14.062906 7.6582031 13.628906 C 7.8852031 13.194906 8 12.698625 8 12.140625 L 8 11.863281 C 8 11.305281 7.8833438 10.807141 7.6523438 10.369141 C 7.4213438 9.9311406 7.1005 9.5934687 6.6875 9.3554688 C 6.2745 9.1184687 5.8062031 9 5.2832031 9 L 3.1621094 9 z M 9.7050781 9 L 9.7050781 15 L 10.941406 15 L 10.941406 11.052734 L 13.347656 15 L 14.583984 15 L 14.583984 9 L 13.351562 9 L 13.351562 12.955078 L 10.941406 9 L 9.7050781 9 z M 18.333984 9 C 17.919984 9 17.545891 9.0699844 17.212891 9.2089844 C 16.879891 9.3479844 16.625266 9.5420625 16.447266 9.7890625 C 16.269266 10.036062 16.179688 10.316812 16.179688 10.632812 C 16.179688 11.239813 16.512781 11.722078 17.175781 12.080078 C 17.419781 12.211078 17.749016 12.345469 18.166016 12.480469 C 18.583016 12.615469 18.87125 12.743234 19.03125 12.865234 C 19.19225 12.986234 19.273438 13.161672 19.273438 13.388672 C 19.273437 13.596672 19.19225 13.760953 19.03125 13.876953 C 18.87025 13.992953 18.647328 14.050781 18.361328 14.050781 C 17.591328 14.050781 17.207031 13.726031 17.207031 13.082031 L 16 13.082031 C 16 13.459031 16.097016 13.790172 16.291016 14.076172 C 16.485016 14.362172 16.765766 14.589906 17.134766 14.753906 C 17.503766 14.918906 17.912328 15 18.361328 15 C 19.008328 15 19.523297 14.856359 19.904297 14.568359 C 20.287297 14.281359 20.478516 13.883906 20.478516 13.378906 C 20.478516 12.923906 20.322766 12.545234 20.009766 12.240234 C 19.696766 11.935234 19.197672 11.680609 18.513672 11.474609 C 18.142672 11.362609 17.860922 11.241281 17.669922 11.113281 C 17.478922 10.985281 17.382812 10.826719 17.382812 10.636719 C 17.382812 10.433719 17.465906 10.268531 17.628906 10.144531 C 17.791906 10.020531 18.020453 9.9589844 18.314453 9.9589844 C 18.619453 9.9589844 18.855438 10.033641 19.023438 10.181641 C 19.192438 10.330641 19.277344 10.539641 19.277344 10.806641 L 20.480469 10.806641 C 20.480469 10.455641 20.388984 10.143187 20.208984 9.8671875 C 20.028984 9.5911875 19.775219 9.3775625 19.449219 9.2265625 C 19.123219 9.0755625 18.750984 9 18.333984 9 z M 4.4511719 10.001953 L 5.1933594 10.001953 C 5.6753594 10.001953 6.0419687 10.157656 6.2929688 10.472656 C 6.5439688 10.787656 6.6699219 11.249375 6.6699219 11.859375 L 6.6699219 12.175781 C 6.6649219 12.763781 6.53425 13.21525 6.28125 13.53125 C 6.02825 13.84725 5.6606406 14.005859 5.1816406 14.005859 L 4.4511719 14.005859 L 4.4511719 10.001953 z M 3.3535156 17 C 5.0855156 19.984 8.308 22 12 22 C 15.692 22 18.914484 19.984 20.646484 17 L 18.205078 17 C 17.305078 18.112 16.130672 18.992047 14.763672 19.498047 C 15.075672 18.770047 15.325578 17.92 15.517578 17 L 13.460938 17 C 12.981938 18.977 12.311047 20 11.998047 20 C 11.685047 20 11.016109 18.977 10.537109 17 L 8.4804688 17 C 8.6724688 17.92 8.9243281 18.770047 9.2363281 19.498047 C 7.8703281 18.992047 6.6949219 18.112 5.7949219 17 L 3.3535156 17 z"/>
</svg>
