<?xml version="1.0"?>
<svg xmlns="http://www.w3.org/2000/svg" viewBox="0 0 24 24">
    <path style="line-height:normal;text-indent:0;text-align:start;text-decoration-line:none;text-decoration-style:solid;text-decoration-color:#000;text-transform:none;block-progression:tb;isolation:auto;mix-blend-mode:normal" d="M 11 0 L 11 3 L 13 3 L 13 0 L 11 0 z M 3.7070312 2.2929688 L 2.2929688 3.7070312 L 6.4082031 7.8222656 C 5.530809 8.9891318 5 10.430148 5 12 C 5 15.859 8.141 19 12 19 C 13.569852 19 15.010868 18.469191 16.177734 17.591797 L 20.292969 21.707031 L 21.707031 20.292969 L 17.597656 16.183594 C 17.601814 16.178044 17.607186 16.173531 17.611328 16.167969 L 16.177734 14.732422 C 16.177734 14.734422 16.174828 14.736281 16.173828 14.738281 L 9.2617188 7.8261719 C 9.2637188 7.8251719 9.2655781 7.8232656 9.2675781 7.8222656 L 7.8320312 6.3886719 C 7.8264689 6.3928137 7.8219561 6.398186 7.8164062 6.4023438 L 3.7070312 2.2929688 z M 19.777344 2.8085938 L 17.65625 4.9296875 L 19.070312 6.34375 L 21.191406 4.2226562 L 19.777344 2.8085938 z M 12 5 C 11.185 5 10.406734 5.1462969 9.6777344 5.4042969 L 10.476562 6.203125 C 10.473562 6.204125 10.47175 6.2040781 10.46875 6.2050781 L 17.794922 13.533203 C 17.795922 13.530203 17.795875 13.528391 17.796875 13.525391 L 18.595703 14.324219 C 18.852703 13.594219 19 12.815 19 12 C 19 8.141 15.859 5 12 5 z M 0 11 L 0 13 L 3 13 L 3 11 L 0 11 z M 21 11 L 21 13 L 24 13 L 24 11 L 21 11 z M 4.9296875 17.65625 L 2.8085938 19.777344 L 4.2226562 21.191406 L 6.34375 19.070312 L 4.9296875 17.65625 z M 11 21 L 11 24 L 13 24 L 13 21 L 11 21 z"/>
</svg>
