<?xml version="1.0"?>
<svg xmlns="http://www.w3.org/2000/svg" viewBox="0 0 24 24">
    <path style="line-height:normal;text-indent:0;text-align:start;text-decoration-line:none;text-decoration-style:solid;text-decoration-color:#000;text-transform:none;block-progression:tb;isolation:auto;mix-blend-mode:normal" d="M 3.7070312 2.2929688 L 2.2929688 3.7070312 L 5.2753906 6.6894531 C 5.2653405 6.7179071 5.2492424 6.7424629 5.2402344 6.7714844 L 2.3730469 16.572266 L 7.4277344 21.626953 L 17.242188 18.755859 C 17.266479 18.748334 17.286639 18.73291 17.310547 18.724609 L 20.292969 21.707031 L 21.707031 20.292969 L 6.6875 5.2753906 L 3.7070312 2.2929688 z M 16.572266 2.3730469 L 8.8652344 4.6289062 L 14.96875 10.728516 L 16.728516 5.3574219 L 19.373047 8.0039062 L 17.759766 13.521484 L 19.371094 15.134766 L 21.626953 7.4277344 L 16.572266 2.3730469 z M 12.851562 14.265625 L 15.708984 17.123047 L 8.0039062 19.375 L 5.3574219 16.730469 L 12.783203 14.296875 C 12.807496 14.289342 12.827647 14.273927 12.851562 14.265625 z" font-weight="400" font-family="sans-serif" white-space="normal" overflow="visible"/>
</svg>
