<?xml version="1.0"?>
<svg xmlns="http://www.w3.org/2000/svg" viewBox="0 0 24 24">
    <path d="M12,2C8.134,2,5,5.134,5,9c0,5,7,13.012,7,13.012S19,14,19,9C19,5.134,15.866,2,12,2z M14.825,12.279 c0,2.328-1.912,2.642-2.25,2.684v1.33h-1.002v-1.33C11.269,14.921,9.27,14.694,9.171,12h1.894c0.073,1.482,0.873,1.435,1.001,1.435 c0.147,0,0.868-0.027,0.868-1.143c0-2.229-3.459-1.24-3.459-4.581c0-2.29,1.898-2.647,2.237-2.69V4h1.008v1.049 c0.314,0.06,2.032,0.468,2.104,2.951H12.94c-0.043-1.231-0.585-1.442-0.82-1.442c-0.134,0-0.755,0.035-0.755,1.162 C11.366,9.687,14.825,9.074,14.825,12.279z"/>
</svg>
