<?xml version="1.0"?>
<svg xmlns="http://www.w3.org/2000/svg" viewBox="0 0 24 24">
    <path d="M 14.125 0.88085938 L 7.0625 3.5898438 L 4.1015625 7.2753906 C 3.3885625 8.1633906 3 9.26825 3 10.40625 L 3 15.75 L 5.0214844 16.591797 C 5.0123181 16.727175 5 16.862333 5 17 C 5 20.309 7.691 23 11 23 C 14.309 23 17 20.309 17 17 C 17 16.39886 16.902934 15.821904 16.736328 15.275391 L 17.445312 14.765625 C 17.857312 14.469625 19.783594 12.72925 19.933594 12.15625 C 20.083594 11.58325 21 9.088 21 6 L 21 5.4648438 L 14.125 0.88085938 z M 10.521484 7.7636719 L 14 9.4375 L 14 11.613281 L 10.5625 15.6875 L 12.707031 18.167969 L 14.974609 16.541016 C 14.992271 16.691758 15 16.8443 15 17 C 15 19.206 13.206 21 11 21 C 8.794 21 7 19.206 7 17 C 7 15.248 8.1399375 13.772422 9.7109375 13.232422 C 9.8769375 12.973422 10.060109 12.723094 10.287109 12.496094 L 11.736328 11.048828 C 11.494328 11.019828 11.249 11 11 11 C 9.4620556 11 8.0628193 11.586541 7 12.541016 L 7 11.123047 C 7.514 10.655047 10.521484 7.7636719 10.521484 7.7636719 z"/>
</svg>
