<?xml version="1.0"?>
<svg xmlns="http://www.w3.org/2000/svg" viewBox="0 0 24 24">
    <path style="line-height:normal;text-indent:0;text-align:start;text-decoration-line:none;text-decoration-style:solid;text-decoration-color:#000;text-transform:none;block-progression:tb;isolation:auto;mix-blend-mode:normal" d="M 16 2 L 16 8.2988281 C 15.665386 8.1989498 15.326901 8.1136203 14.980469 8.0644531 C 14.595964 8.0098827 14.205679 7.9935265 13.814453 8.0039062 L 10.880859 2.5273438 L 9.1191406 3.4726562 L 12.275391 9.3671875 C 10.531597 9.8483462 9.4053553 10.99375 8.7207031 11.970703 L 4.3261719 6.1347656 L 2.7285156 7.3378906 L 7.2207031 13.300781 C 6.8099906 14.945649 6.9873838 16.745575 7.859375 18.345703 C 9.7029389 21.730417 13.969077 22.985992 17.353516 21.142578 C 20.738229 19.299014 21.995758 15.032875 20.152344 11.648438 C 19.614052 10.660358 18.868222 9.8546699 18 9.2519531 L 18 2 L 16 2 z M 13.253906 11.195312 L 13.527344 11.705078 L 13.578125 11.771484 C 14.264061 12.652825 14.10792 13.89165 13.226562 14.578125 C 12.85764 14.86435 12.43076 15 12.001953 15 C 11.404598 15 10.823056 14.740733 10.423828 14.228516 L 10.421875 14.228516 L 9.9765625 13.636719 C 10.357064 12.859802 11.296632 11.486128 13.253906 11.195312 z" font-weight="400" font-family="sans-serif" white-space="normal" overflow="visible"/>
</svg>
