<?xml version="1.0"?>
<svg xmlns="http://www.w3.org/2000/svg" viewBox="0 0 24 24">
    <path style="line-height:normal;text-indent:0;text-align:start;text-decoration-line:none;text-decoration-style:solid;text-decoration-color:#000;text-transform:none;block-progression:tb;isolation:auto;mix-blend-mode:normal" d="M 9 2 C 7.586 2 6.8389687 2.7469687 6.2929688 3.2929688 C 5.8029687 3.7829687 5.563 4 5 4 L 4 4 L 4 20 L 5 20 C 5.563 20 5.8029688 20.217031 6.2929688 20.707031 C 6.8389688 21.253031 7.586 22 9 22 C 10.414 22 11.161031 21.253031 11.707031 20.707031 C 12.197031 20.217031 12.438 20 13 20 L 14 20 L 14 12 L 9 12 C 7.895 12 7 11.105 7 10 C 7 8.895 7.895 8 9 8 C 10.105 8 11 8.895 11 10 L 12 10 L 14 10 L 19.5 10 A 1.5 1.5 0 0 0 21 8.5 A 1.5 1.5 0 0 0 19.5 7 A 1.5 1.5 0 0 0 18.087891 8 L 14 8 L 14 4 L 13 4 C 12.437 4 12.197031 3.7829687 11.707031 3.2929688 C 11.161031 2.7469687 10.414 2 9 2 z M 9 15 C 9.552 15 10 15.448 10 16 L 10 18 L 8 18 L 8 16 C 8 15.448 8.448 15 9 15 z" font-weight="400" font-family="sans-serif" white-space="normal" overflow="visible"/>
</svg>
