<?xml version="1.0"?>
<svg xmlns="http://www.w3.org/2000/svg" viewBox="0 0 24 24">
    <path d="M20.4,12.8l1.2-1.6l-3.72-2.79c0,0,0,0,0,0C17.79,6.83,17,3,17,3H7c0,0-0.79,3.83-0.88,5.41c0,0,0,0,0,0L2.4,11.2l1.2,1.6 l2.42-1.815v0.005C6.01,11.63,6,12.3,6,13c0,5,1,8,1,8s1.99,0,3.41,0h4.18c1.42,0,2.41,0,2.41,0s1-3,1-8c0-0.7-0.01-1.37-0.02-2.01 v-0.005L20.4,12.8z M15.75,18h-7.5c-0.07-0.54-0.13-1.2-0.18-2h7.86C15.88,16.8,15.82,17.46,15.75,18z M8.05,10 c0.01-0.56,0.09-1.86,0.1-2h7.7c0.01,0.14,0.09,1.44,0.1,2H8.05z"/>
</svg>
