<?xml version="1.0"?>
<svg xmlns="http://www.w3.org/2000/svg" viewBox="0 0 24 24">
    <path d="M 1 3 L 1 18 L 3 18 C 3 19.64501 4.3549904 21 6 21 C 7.6450096 21 9 19.64501 9 18 L 14 18 C 14 19.64501 15.35499 21 17 21 C 18.64501 21 20 19.64501 20 18 L 22 18 L 22 9 C 22 5.686 19.314 3 16 3 L 1 3 z M 5 7 L 17.5 7 L 17.5 9 L 5 9 L 5 7 z M 5 11 L 7 11 L 7 15.1875 C 6.6851061 15.073942 6.351851 15 6 15 C 5.648149 15 5.3148939 15.073942 5 15.1875 L 5 11 z M 9 11 L 18 11 L 18 13 L 9 13 L 9 11 z M 6 17 C 6.5641294 17 7 17.435871 7 18 C 7 18.564129 6.5641294 19 6 19 C 5.4358706 19 5 18.564129 5 18 C 5 17.435871 5.4358706 17 6 17 z M 17 17 C 17.564129 17 18 17.435871 18 18 C 18 18.564129 17.564129 19 17 19 C 16.435871 19 16 18.564129 16 18 C 16 17.435871 16.435871 17 17 17 z"/>
</svg>
