<?xml version="1.0"?>
<svg xmlns="http://www.w3.org/2000/svg" viewBox="0 0 24 24">
    <path d="M 10.5 2 C 9.672 2 9 2.672 9 3.5 C 9 5 12 7 12 7 C 12 7 15 5 15 3.5 C 15 2.672 14.328 2 13.5 2 C 12.672 2 12 2.672 12 3.5 C 12 2.672 11.328 2 10.5 2 z M 7.0039062 3.6699219 C 4.7949062 4.2859219 3.5283125 5.1129688 3.4453125 5.1679688 L 3 5.4648438 L 3 11 L 2 11 L 2 21 L 4 21 L 4 19 L 20 19 L 20 21 L 22 21 L 22 11 L 21 11 L 21 5.4648438 L 20.554688 5.1679688 C 20.471688 5.1129688 19.205094 4.2859219 16.996094 3.6699219 C 16.982094 4.0359219 16.879687 4.58125 16.179688 5.53125 C 17.507687 5.87725 18.48 6.3100781 19 6.5800781 L 19 11 L 18 11 L 18 9 C 18 8.448 17.552 8 17 8 L 14 8 C 13.448 8 13 8.448 13 9 L 13 11 L 11 11 L 11 9 C 11 8.448 10.552 8 10 8 L 7 8 C 6.448 8 6 8.448 6 9 L 6 11 L 5 11 L 5 6.578125 C 5.517 6.306125 6.4854063 5.8723437 7.8164062 5.5273438 C 7.1204063 4.5793438 7.0179063 4.0349219 7.0039062 3.6699219 z"/>
</svg>
