<?xml version="1.0"?>
<svg xmlns="http://www.w3.org/2000/svg" viewBox="0 0 24 24">
    <path style="line-height:normal;text-indent:0;text-align:start;text-decoration-line:none;text-decoration-style:solid;text-decoration-color:#000;text-transform:none;block-progression:tb;isolation:auto;mix-blend-mode:normal" d="M 12 3 C 7.795393 3 4.0825971 5.1698929 1.9414062 8.453125 L 3.6171875 9.546875 C 5.4019966 6.8101071 8.482607 5 12 5 C 15.517393 5 18.598003 6.8101071 20.382812 9.546875 L 22.058594 8.453125 C 19.917403 5.1698929 16.204607 3 12 3 z M 12 7 C 9.0978858 7 6.5425877 8.5535088 5.1425781 10.876953 L 6.8574219 11.908203 C 7.9074123 10.165648 9.8101142 9 12 9 C 14.189886 9 16.092588 10.165648 17.142578 11.908203 L 18.857422 10.876953 C 17.457412 8.5535088 14.902114 7 12 7 z M 12 11 A 4 4 0 0 0 8 15 A 4 4 0 0 0 12 19 A 4 4 0 0 0 16 15 A 4 4 0 0 0 12 11 z" font-weight="400" font-family="sans-serif" white-space="normal" overflow="visible"/>
</svg>
