<?xml version="1.0"?>
<svg xmlns="http://www.w3.org/2000/svg" viewBox="0 0 24 24">
    <path d="M 12 2 C 6.4889971 2 2 6.4889971 2 12 C 2 17.511003 6.4889971 22 12 22 C 17.511003 22 22 17.511003 22 12 C 22 6.4889971 17.511003 2 12 2 z M 12 4 C 16.090654 4 19.441154 7.0457719 19.931641 11 L 16.898438 11 C 16.43156 8.7253922 14.407209 7 12 7 L 12 4 z M 12 9 C 13.668699 9 15 10.331301 15 12 C 15 13.668699 13.668699 15 12 15 C 10.331301 15 9 13.668699 9 12 C 9 10.331301 10.331301 9 12 9 z M 16.898438 13 L 19.931641 13 C 19.706749 14.81304 18.886702 16.437517 17.662109 17.662109 L 15.53125 15.53125 C 16.211852 14.850648 16.6982 13.975548 16.898438 13 z"/>
</svg>
