<?xml version="1.0"?>
<svg xmlns="http://www.w3.org/2000/svg" viewBox="0 0 24 24">
    <path style="line-height:normal;text-indent:0;text-align:start;text-decoration-line:none;text-decoration-style:solid;text-decoration-color:#000;text-transform:none;block-progression:tb;isolation:auto;mix-blend-mode:normal" d="M 2 3 L 2 19 L 6 19 L 6 17 L 9 17 L 9 12 L 15 12 L 15 17 L 18 17 L 18 19 L 22 19 L 22 14 C 21.657 14 21.318328 13.979453 20.986328 13.939453 L 20.96875 13.935547 C 20.63975 13.895547 20.317 13.837625 20 13.765625 C 16.82 13.039625 14.221516 10.614703 13.353516 7.4707031 C 13.224516 7.0047031 13.123453 6.5261562 13.064453 6.0351562 C 13.063453 6.0271562 13.0625 6.0206719 13.0625 6.0136719 C 13.0215 5.6806719 13 5.343 13 5 L 12 5 L 10 3 L 2 3 z M 15 5 C 15 8.8543339 18.145666 12 22 12 L 22 10 C 19.226334 10 17 7.7736661 17 5 L 15 5 z M 19 5 C 19 6.6449698 20.35503 8 22 8 L 22 6 C 21.43497 6 21 5.5650302 21 5 L 19 5 z M 11 14 L 11 19 L 8 19 L 12 23 L 16 19 L 13 19 L 13 14 L 11 14 z" font-weight="400" font-family="sans-serif" white-space="normal" overflow="visible"/>
</svg>
