<?xml version="1.0"?>
<svg xmlns="http://www.w3.org/2000/svg" viewBox="0 0 24 24">
    <path d="M 12 2 C 9.709 2 7.5608125 3.1379063 6.2578125 5.0039062 C 2.4788125 5.1429063 -0.48559375 8.5224531 0.06640625 12.439453 C 0.52340625 15.676453 3.4458437 18 6.7148438 18 L 9 18 L 9 10 L 15 10 L 15 18 L 18.265625 18 C 21.107625 18 23.654797 15.945094 23.966797 13.121094 C 24.323797 9.8810937 21.846078 7.1189063 18.705078 7.0039062 C 17.839078 4.0559063 15.149 2 12 2 z M 11 12 L 11 20 L 8 20 L 12 24 L 16 20 L 13 20 L 13 12 L 11 12 z"/>
</svg>
