<?xml version="1.0"?>
<svg xmlns="http://www.w3.org/2000/svg" viewBox="0 0 24 24">
    <path d="M 12 2 A 4 4 0 0 0 8 6 A 4 4 0 0 0 12 10 A 4 4 0 0 0 16 6 A 4 4 0 0 0 12 2 z M 12 12 C 7.653 12 3 14.089219 3 17.199219 L 3 19.78125 L 6.1777344 20.574219 C 6.0657344 21.032219 6 21.508 6 22 L 7 22 L 8 22 L 16 22 L 17 22 L 18 22 C 18 21.508 17.934266 21.032219 17.822266 20.574219 L 21 19.78125 L 21 17.199219 C 21 14.089219 16.347 12 12 12 z M 12 14 C 15.77 14 19 15.759219 19 17.199219 L 19 18.21875 L 17.015625 18.716797 C 15.942625 17.082797 14.096 16 12 16 C 9.904 16 8.057375 17.082797 6.984375 18.716797 L 5 18.21875 L 5 17.199219 C 5 15.759219 8.23 14 12 14 z"/>
</svg>
