<?xml version="1.0"?>
<svg xmlns="http://www.w3.org/2000/svg" viewBox="0 0 24 24">
    <path d="M 1 5 L 1 19 L 10.277344 19 C 10.623344 19.595 11.261 20 12 20 C 12.739 20 13.376656 19.595 13.722656 19 L 23 19 L 23 5 L 14 5 C 13.29 5 12.61 5.1907813 12 5.5507812 C 11.39 5.1907813 10.71 5 10 5 L 1 5 z M 5.5 9 L 9.5 9 L 11 11.380859 L 11 15 L 9 15 L 9 14.460938 L 9 14 L 6 14 L 6 14.460938 L 6 15 L 4 15 L 4 11.5 L 5.5 9 z M 15 9 L 20 9 L 20 11 L 15 11 L 15 9 z M 5.75 11.5 A 0.75 0.75 0 0 0 5 12.25 A 0.75 0.75 0 0 0 5.75 13 A 0.75 0.75 0 0 0 6.5 12.25 A 0.75 0.75 0 0 0 5.75 11.5 z M 9.25 11.5 A 0.75 0.75 0 0 0 8.5 12.25 A 0.75 0.75 0 0 0 9.25 13 A 0.75 0.75 0 0 0 10 12.25 A 0.75 0.75 0 0 0 9.25 11.5 z M 15 13 L 20 13 L 20 15 L 15 15 L 15 13 z"/>
</svg>
