<?xml version="1.0"?>
<svg xmlns="http://www.w3.org/2000/svg" viewBox="0 0 24 24">
    <path style="line-height:normal;text-indent:0;text-align:start;text-decoration-line:none;text-decoration-style:solid;text-decoration-color:#000;text-transform:none;block-progression:tb;isolation:auto;mix-blend-mode:normal" d="M 5.5 3 A 2.5 2.5 0 0 0 3 5.5 A 2.5 2.5 0 0 0 5.5 8 A 2.5 2.5 0 0 0 8 5.5 A 2.5 2.5 0 0 0 5.5 3 z M 15.013672 5.8359375 L 14.591797 8.3671875 L 11.828125 9.9453125 L 7.6582031 9.1113281 C 6.9926744 8.8790185 6.2137956 9.0000032 5.6308594 9.5390625 C 4.9008594 10.219062 4.8403906 11.369219 5.4003906 12.199219 L 9.3300781 18.109375 C 9.4900781 18.339375 9.6901562 18.539687 9.9101562 18.679688 L 11.25 13.769531 L 9.7871094 11.578125 L 12.171875 12.054688 L 14.167969 10.914062 L 14.013672 11.835938 L 15.986328 12.164062 L 16.986328 6.1640625 L 15.013672 5.8359375 z M 9.9101562 18.679688 L 9 22 L 11 22 L 11.869141 18.800781 C 11.229141 19.110781 10.490156 19.049688 9.9101562 18.679688 z M 11.869141 18.800781 C 11.879141 18.800781 11.880625 18.789062 11.890625 18.789062 L 16.5 16.660156 L 20.164062 21.011719 L 22.007812 19.306641 L 18.470703 13.830078 C 18.020703 13.120078 17.139609 12.829375 16.349609 13.109375 L 13.109375 14.279297 L 11.869141 18.800781 z M 1 9 L 1 10.939453 L 1.6796875 11.119141 L 3.0292969 11.480469 C 3.0092969 11.320469 3 11.16 3 11 C 3 10.51 3.0897656 10.029609 3.2597656 9.5996094 L 1.8007812 9.2109375 L 1 9 z" font-weight="400" font-family="sans-serif" white-space="normal" overflow="visible"/>
</svg>
