<?xml version="1.0"?>
<svg xmlns="http://www.w3.org/2000/svg" viewBox="0 0 24 24">
    <path d="M 1 5 L 1 19 L 23 19 L 23 5 L 1 5 z M 7 9 C 8.1 9 9 9.9 9 11 C 9 12.1 8.1 13 7 13 C 8.66 13 10 13.9 10 15 L 4 15 C 4 13.9 5.34 13 7 13 C 5.9 13 5 12.1 5 11 C 5 9.9 5.9 9 7 9 z M 13.5 9 L 18.5 9 L 20 11.380859 L 20 15 L 18.539062 15 L 18 15 L 18 14 L 14 14 L 14 15 L 13.460938 15 L 12 15 L 12 11.5 L 13.5 9 z M 13.75 11.5 A 0.75 0.75 0 0 0 13 12.25 A 0.75 0.75 0 0 0 13.75 13 A 0.75 0.75 0 0 0 14.5 12.25 A 0.75 0.75 0 0 0 13.75 11.5 z M 18.25 11.5 A 0.75 0.75 0 0 0 17.5 12.25 A 0.75 0.75 0 0 0 18.25 13 A 0.75 0.75 0 0 0 19 12.25 A 0.75 0.75 0 0 0 18.25 11.5 z"/>
</svg>
