<?xml version="1.0"?>
<svg xmlns="http://www.w3.org/2000/svg" viewBox="0 0 24 24">
    <path style="line-height:normal;text-indent:0;text-align:start;text-decoration-line:none;text-decoration-style:solid;text-decoration-color:#000;text-transform:none;block-progression:tb;isolation:auto;mix-blend-mode:normal" d="M 12 2 C 6.4886661 2 2 6.4886661 2 12 L 2 12.513672 L 9 17.515625 L 9 22 L 15 22 L 15 17.515625 L 22 12.513672 L 22 12 C 22 6.4886661 17.511334 2 12 2 z M 6 10 C 7.1166661 10 8 10.883334 8 12 L 8 12.193359 L 9.203125 15.201172 L 4.0898438 11.548828 C 4.0933088 11.489403 4.1027067 11.43212 4.1074219 11.373047 C 4.3676025 10.572161 5.1045321 10 6 10 z M 12 10 C 13.06365 10 13.905876 10.804553 13.984375 11.845703 L 12.324219 16 L 11.675781 16 L 10.039062 11.90625 C 10.094964 10.842217 10.920329 10 12 10 z M 18 10 C 18.895468 10 19.632397 10.572161 19.892578 11.373047 C 19.897293 11.43212 19.906691 11.489403 19.910156 11.548828 L 14.796875 15.201172 L 16 12.193359 L 16 12 C 16 10.883334 16.883334 10 18 10 z M 11 18 L 13 18 L 13 20 L 11 20 L 11 18 z" font-weight="400" font-family="sans-serif" white-space="normal" overflow="visible"/>
</svg>
