<?xml version="1.0"?>
<svg xmlns="http://www.w3.org/2000/svg" viewBox="0 0 24 24">
    <path style="line-height:normal;text-indent:0;text-align:start;text-decoration-line:none;text-decoration-style:solid;text-decoration-color:#000;text-transform:none;block-progression:tb;isolation:auto;mix-blend-mode:normal" d="M 5 5 L 5 11 L 5 13 L 5 19 L 7 19 L 7 13 L 17 13 L 17 19 L 19 19 L 19 5 L 17 5 L 17 11 L 7 11 L 7 5 L 5 5 z M 2 7 L 2 11 L 0 11 L 0 13 L 2 13 L 2 17 L 4 17 L 4 7 L 2 7 z M 20 7 L 20 17 L 22 17 L 22 13 L 24 13 L 24 11 L 22 11 L 22 7 L 20 7 z" font-weight="400" font-family="sans-serif" white-space="normal" overflow="visible"/>
</svg>
