<?xml version="1.0"?>
<svg xmlns="http://www.w3.org/2000/svg" viewBox="0 0 24 24">
    <path d="M 11 2 L 11 8.515625 C 9.613 4.715625 7.8752031 2.4929531 7.7832031 2.3769531 L 6.2167969 3.6230469 C 6.2367969 3.6470469 7.6468594 5.4464062 8.8808594 8.5664062 C 6.8778594 6.2264063 4.643625 4.8641094 4.515625 4.7871094 L 3.484375 6.5 C 3.511375 6.517 5.4005312 7.6740938 7.1445312 9.6210938 C 4.5365312 8.2830937 2.2314688 8.0198594 2.1054688 8.0058594 L 1.8945312 9.9941406 C 1.9245313 9.9971406 4.6062969 10.302 7.2792969 12 L 16.722656 12 C 19.383656 10.314 22.076469 9.9971406 22.105469 9.9941406 L 21.894531 8.0058594 C 21.768531 8.0188594 19.464422 8.2830937 16.857422 9.6210938 C 18.600422 7.6730938 20.488625 6.517 20.515625 6.5 L 19.486328 4.7851562 C 19.359328 4.8621562 17.127 6.2235469 15.125 8.5605469 C 16.357 5.4555469 17.766156 3.6450938 17.785156 3.6210938 L 16.21875 2.3769531 C 16.12575 2.4929531 14.387 4.716625 13 8.515625 L 13 2 L 11 2 z M 8 13 C 8 13 9 15 11 16 L 11 18.277344 C 10.405 18.623344 10 19.261 10 20 C 10 21.104 10.896 22 12 22 C 13.104 22 14 21.104 14 20 C 14 19.261 13.595 18.624344 13 18.277344 L 13 16 C 15 15 16 13 16 13 L 8 13 z"/>
</svg>
