<?xml version="1.0"?>
<svg xmlns="http://www.w3.org/2000/svg" viewBox="0 0 24 24">
    <path d="M 1.4003906 6 C 1.4003906 6 1.5 5.9996094 1.5 6.0996094 C 1.5 6.0996094 1.2992188 7.1003906 1.1992188 7.4003906 C 1.1992188 7.5003906 1.0996094 7.5 1.0996094 7.5 L 3.5996094 7.5 L 4.0996094 7.5 C 5.5996094 7.5 6.6007812 8.2003906 6.3007812 9.4003906 C 6.0007812 10.700391 4.7007812 11.300781 3.3007812 11.300781 L 2.6992188 11.300781 C 2.6992187 11.300781 2.8007812 11.299219 2.8007812 11.199219 C 2.9007813 10.699219 3.4003906 8.4007812 3.4003906 8.3007812 C 3.4003906 8.2007813 3.5 8.1992188 3.5 8.1992188 L 1 8.1992188 L 1 8.3007812 C 1 8.3007812 0.19960938 11.999219 0.099609375 12.699219 C 0.099609375 12.799219 1.110223e-17 12.800781 0 12.800781 L 3.5 12.800781 C 6 12.800781 8.4007812 11.300391 8.8007812 9.4003906 C 8.9007812 9.0003906 8.8992187 8.2992188 8.6992188 7.6992188 L 8.6992188 7.5996094 L 8.6992188 7.5 C 8.6992188 7.4 8.8007812 7.5 8.8007812 7.5 L 8.8007812 7.5996094 L 10.59375 14.023438 C 4.6580933 14.141691 0 14.980226 0 16 C 0 17.1 5.4 18 12 18 C 18.6 18 24 17.1 24 16 C 24 14.9 18.6 14 12 14 C 11.661037 14 11.341829 14.012925 11.009766 14.017578 L 16.199219 7.5996094 L 18.599609 7.5996094 L 19.199219 7.5996094 C 20.699219 7.5996094 21.700391 8.3 21.400391 9.5 C 21.200391 10.8 19.800391 11.400391 18.400391 11.400391 L 17.800781 11.400391 C 17.800781 11.400391 17.900391 11.400781 17.900391 11.300781 C 18.000391 10.800781 18.5 8.5003906 18.5 8.4003906 L 18.599609 8.3007812 L 16.099609 8.3007812 C 16.099609 8.3007813 16.199219 8.3003906 16.199219 8.4003906 C 16.199219 8.4003906 15.400781 12.099219 15.300781 12.699219 C 15.300781 12.799219 15.199219 12.800781 15.199219 12.800781 L 18.599609 12.800781 C 21.099609 12.800781 23.500391 11.300391 23.900391 9.4003906 C 24.300391 7.5003906 22.5 6 20 6 L 14.800781 6 L 11.800781 10.400391 L 10.5 6 L 1.4003906 6 z M 12 15.199219 C 13.5 15.199219 14.800781 15.500391 14.800781 15.900391 C 14.800781 16.300391 13.6 16.599609 12 16.599609 C 10.4 16.599609 9.1992188 16.300391 9.1992188 15.900391 C 9.1992188 15.500391 10.5 15.199219 12 15.199219 z"/>
</svg>
