<?xml version="1.0"?>
<svg xmlns="http://www.w3.org/2000/svg" viewBox="0 0 24 24">
    <path d="M 1 2 L 1 18 L 10 18 L 10 20 L 8 20 L 8 22 L 16 22 L 16 20 L 14 20 L 14 18 L 23 18 L 23 2 L 17.279297 2 C 17.929297 2.572 18.484875 3.246 18.921875 4 L 21 4 L 21 16 L 3 16 L 3 4 L 5.078125 4 C 5.515125 3.246 6.0707031 2.572 6.7207031 2 L 1 2 z M 12 2 C 8.691 2 6 4.691 6 8 C 6 11.309 8.691 14 12 14 C 15.309 14 18 11.309 18 8 C 18 4.691 15.309 2 12 2 z M 12.617188 5 L 13 5 L 13 11 L 11 11 L 11 7.2597656 L 9.7695312 7.7207031 L 9.7695312 6.1640625 L 12.617188 5 z"/>
</svg>
