<?xml version="1.0"?>
<svg xmlns="http://www.w3.org/2000/svg" viewBox="0 0 24 24">
    <path d="M 6.5 3 C 4.958 3 3.2880938 3.7718438 2.2460938 4.9648438 L 2 5.2460938 L 2 9.7539062 L 2.2460938 10.035156 C 3.2880938 11.228156 4.958 12 6.5 12 C 6.671 12 6.834 11.968219 7 11.949219 L 7 21 L 11 21 L 11 7.5 C 11 5.019 8.981 3 6.5 3 z M 17.5 3 C 15.019 3 13 5.019 13 7.5 L 13 21 L 17 21 L 17 11.949219 C 17.166 11.968219 17.329 12 17.5 12 C 19.042 12 20.711906 11.228156 21.753906 10.035156 L 22 9.7539062 L 22 5.2460938 L 21.753906 4.9648438 C 20.711906 3.7718437 19.042 3 17.5 3 z M 5 7 C 5.552 7 6 7.448 6 8 C 6 8.552 5.552 9 5 9 C 4.448 9 4 8.552 4 8 C 4 7.448 4.448 7 5 7 z M 19 7 C 19.552 7 20 7.448 20 8 C 20 8.552 19.552 9 19 9 C 18.448 9 18 8.552 18 8 C 18 7.448 18.448 7 19 7 z"/>
</svg>
