<?xml version="1.0"?>
<svg xmlns="http://www.w3.org/2000/svg" viewBox="0 0 24 24">
    <path style="line-height:normal;text-indent:0;text-align:start;text-decoration-line:none;text-decoration-style:solid;text-decoration-color:#000;text-transform:none;block-progression:tb;isolation:auto;mix-blend-mode:normal" d="M 12 2 A 1 1 0 0 0 11 3 A 1 1 0 0 0 12 4 A 1 1 0 0 0 13 3 A 1 1 0 0 0 12 2 z M 8.1113281 2.8847656 A 1 1 0 0 0 7.1113281 3.8847656 A 1 1 0 0 0 8.1113281 4.8847656 A 1 1 0 0 0 9.1113281 3.8847656 A 1 1 0 0 0 8.1113281 2.8847656 z M 15.923828 2.9003906 A 1 1 0 0 0 14.923828 3.9003906 A 1 1 0 0 0 15.923828 4.9003906 A 1 1 0 0 0 16.923828 3.9003906 A 1 1 0 0 0 15.923828 2.9003906 z M 4.9863281 5.359375 A 1 1 0 0 0 3.9863281 6.359375 A 1 1 0 0 0 4.9863281 7.359375 A 1 1 0 0 0 5.9863281 6.359375 A 1 1 0 0 0 4.9863281 5.359375 z M 19.052734 5.4082031 A 1 1 0 0 0 18.052734 6.4082031 A 1 1 0 0 0 19.052734 7.4082031 A 1 1 0 0 0 20.052734 6.4082031 A 1 1 0 0 0 19.052734 5.4082031 z M 12 6 C 8.6981361 6 6 8.6981361 6 12 C 6 15.301864 8.6981361 18 12 18 C 15.301864 18 18 15.301864 18 12 C 18 8.6981361 15.301864 6 12 6 z M 12 8 C 12.733942 8 13.410836 8.2085319 14 8.5488281 L 14 10 L 11 11 L 8.4667969 10.152344 C 9.1321445 8.8749344 10.450778 8 12 8 z M 3.2324219 8.9707031 A 1 1 0 0 0 2.2324219 9.9707031 A 1 1 0 0 0 3.2324219 10.970703 A 1 1 0 0 0 4.2324219 9.9707031 A 1 1 0 0 0 3.2324219 8.9707031 z M 20.78125 9.0253906 A 1 1 0 0 0 19.78125 10.025391 A 1 1 0 0 0 20.78125 11.025391 A 1 1 0 0 0 21.78125 10.025391 A 1 1 0 0 0 20.78125 9.0253906 z M 3.21875 12.974609 A 1 1 0 0 0 2.21875 13.974609 A 1 1 0 0 0 3.21875 14.974609 A 1 1 0 0 0 4.21875 13.974609 A 1 1 0 0 0 3.21875 12.974609 z M 11 13 L 14 13 L 15.664062 13.605469 C 15.049069 15.018431 13.648149 16 12 16 C 11.930279 16 11.865684 15.983934 11.796875 15.980469 L 11 13 z M 20.767578 13.029297 A 1 1 0 0 0 19.767578 14.029297 A 1 1 0 0 0 20.767578 15.029297 A 1 1 0 0 0 21.767578 14.029297 A 1 1 0 0 0 20.767578 13.029297 z M 4.9472656 16.591797 A 1 1 0 0 0 3.9472656 17.591797 A 1 1 0 0 0 4.9472656 18.591797 A 1 1 0 0 0 5.9472656 17.591797 A 1 1 0 0 0 4.9472656 16.591797 z M 19.013672 16.640625 A 1 1 0 0 0 18.013672 17.640625 A 1 1 0 0 0 19.013672 18.640625 A 1 1 0 0 0 20.013672 17.640625 A 1 1 0 0 0 19.013672 16.640625 z M 8.0761719 19.099609 A 1 1 0 0 0 7.0761719 20.099609 A 1 1 0 0 0 8.0761719 21.099609 A 1 1 0 0 0 9.0761719 20.099609 A 1 1 0 0 0 8.0761719 19.099609 z M 15.888672 19.115234 A 1 1 0 0 0 14.888672 20.115234 A 1 1 0 0 0 15.888672 21.115234 A 1 1 0 0 0 16.888672 20.115234 A 1 1 0 0 0 15.888672 19.115234 z M 12 20 A 1 1 0 0 0 11 21 A 1 1 0 0 0 12 22 A 1 1 0 0 0 13 21 A 1 1 0 0 0 12 20 z"/>
</svg>
