<?xml version="1.0"?>
<svg xmlns="http://www.w3.org/2000/svg" viewBox="0 0 24 24">
    <path style="line-height:normal;text-indent:0;text-align:start;text-decoration-line:none;text-decoration-style:solid;text-decoration-color:#000;text-transform:none;block-progression:tb;isolation:auto;mix-blend-mode:normal" d="M 8 2 C 7.1717913 2 6.4672635 2.3861993 5.9335938 2.9140625 C 5.399924 3.4419257 5 4.1556667 5 5 L 5 6 L 6 6 C 6.449129 6 6.5261937 6.0594608 6.6816406 6.296875 C 6.8218133 6.5109607 6.9608948 7.0092036 6.9882812 7.7597656 C 3.742528 13.325606 3.9891668 20.721372 4.0019531 21.039062 L 4.0390625 22 L 11 22 L 11 18 L 13 18 C 13.004 17.996 13.007719 17.994234 13.011719 17.990234 C 13.038719 16.681234 13.617109 15.314969 15.037109 14.292969 L 15.078125 14.263672 L 15.121094 14.236328 C 15.763094 13.821328 16.502984 13.512641 17.333984 13.306641 C 17.164984 12.987641 16.996031 12.691313 16.832031 12.445312 L 16.535156 12 L 16 12 C 14.507 12 13 11.382 13 10 L 13 9.5527344 C 13.746744 9.7941243 14.739399 10 16 10 L 16 8 C 14.786017 8 13.909696 7.7756272 13.347656 7.5644531 C 13.228918 7.5198399 13.188251 7.493404 13.101562 7.4550781 C 13.136696 7.3743122 13.174199 7.2945571 13.21875 7.2460938 C 13.336776 7.1177026 13.514424 7 14 7 L 18 7 L 18 2 L 8 2 z M 8 4 L 16 4 L 16 5 L 14 5 C 13.104576 5 12.282818 5.3087193 11.746094 5.8925781 C 11.464011 6.1994331 11.47184 6.6196091 11.353516 7 L 8.7695312 7 C 8.6853727 6.3697479 8.6762492 5.6930531 8.3554688 5.203125 C 8.109658 4.8276981 7.7572427 4.5330841 7.3554688 4.328125 C 7.5779187 4.1162183 7.8644819 4 8 4 z M 20.390625 15.005859 C 19.064 14.966359 17.429578 15.123063 16.205078 15.914062 C 14.627693 17.049378 14.899613 18.596979 15.361328 19.433594 C 14.566118 19.78585 13.762638 20 13 20 L 13 22 C 15.896722 22 18.550442 20.208307 20.478516 18.082031 C 18.926185 20.95318 16.896484 22.431641 16.896484 22.431641 C 17.084484 22.621641 17.274391 22.6855 17.525391 22.8125 C 19.722391 23.7615 24.117328 21.10225 22.736328 15.28125 C 22.736328 15.28125 21.71725 15.045359 20.390625 15.005859 z" font-weight="400" font-family="sans-serif" white-space="normal" overflow="visible"/>
</svg>
