<?xml version="1.0"?>
<svg xmlns="http://www.w3.org/2000/svg" viewBox="0 0 24 24">
    <path style="line-height:normal;text-indent:0;text-align:start;text-decoration-line:none;text-decoration-style:solid;text-decoration-color:#000;text-transform:none;block-progression:tb;isolation:auto;mix-blend-mode:normal" d="M 12 2 C 11.239788 2 10.814425 2.5017176 10.601562 2.7519531 C 10.507212 2.8628725 10.449742 2.9328546 10.419922 2.9667969 C 9.7914477 3.0919428 8.918081 3.2858064 8.0058594 3.8769531 C 6.9821762 4.5403302 6 5.7500947 6 7.4238281 C 6 10.213515 6.9146529 13.244489 7.4042969 15.224609 L 7.4121094 15.253906 L 7.4199219 15.28125 C 7.7771282 16.432883 8.2897622 17.139752 8.8125 17.541016 C 8.8762097 17.58992 8.9372929 17.620471 9 17.660156 L 9 22 L 15 22 L 15 17.660156 C 15.06271 17.620473 15.123789 17.589897 15.1875 17.541016 C 15.710249 17.139943 16.222833 16.434389 16.580078 15.283203 L 16.587891 15.253906 L 16.595703 15.226562 C 17.085391 13.246369 18 10.213515 18 7.4238281 C 18 5.7497317 17.017854 4.5385491 15.994141 3.875 C 15.081029 3.2831404 14.206588 3.0898484 13.578125 2.9648438 C 13.548211 2.9307549 13.49219 2.8621002 13.398438 2.7519531 C 13.185683 2.501999 12.760212 2 12 2 z M 12 4.1933594 C 12.04927 4.2532704 12.08432 4.2998782 12.160156 4.3789062 C 12.295117 4.519545 12.492581 4.7488062 12.945312 4.8261719 C 13.382609 4.9019029 14.249289 5.1269064 14.90625 5.5527344 C 15.563786 5.9789353 16 6.4699245 16 7.4238281 C 16 9.7415397 15.177256 12.634113 14.666016 14.695312 C 14.39926 15.548516 14.101604 15.853148 13.96875 15.955078 C 13.91588 15.995638 13.903131 15.99703 13.894531 16 L 10.105469 16 C 10.096869 15.997 10.08412 15.995698 10.03125 15.955078 C 9.8985451 15.85321 9.6005342 15.548687 9.3339844 14.697266 C 8.8227849 12.635807 8 9.7427411 8 7.4238281 C 8 6.4705616 8.4361831 5.9808104 9.09375 5.5546875 C 9.7513169 5.1285646 10.619714 4.9017055 11.056641 4.8261719 C 11.508348 4.7475519 11.707132 4.5194794 11.841797 4.3789062 C 11.91704 4.3003627 11.950947 4.2530289 12 4.1933594 z" font-weight="400" font-family="sans-serif" white-space="normal" overflow="visible"/>
</svg>
