<?xml version="1.0"?>
<svg xmlns="http://www.w3.org/2000/svg" viewBox="0 0 24 24">
    <path d="M 4 2 L 4 22 L 12.087891 22 L 20 14.087891 L 20 8 L 14 2 L 4 2 z M 13 3.5 L 18.5 9 L 13 9 L 13 3.5 z M 12 11 C 13.641 11.031 15 12.343 15 14 L 12 14 L 12 11 z M 10 13 L 10 16 L 13 16 C 12.969 17.641 11.657 19 10 19 C 8.343 19 7 17.657 7 16 C 7 14.343 8.343 13 10 13 z M 22.207031 15 C 22.079156 15 21.951016 15.048984 21.853516 15.146484 L 20.853516 16.146484 L 22.853516 18.146484 L 23.853516 17.146484 C 24.048516 16.951484 24.048516 16.634453 23.853516 16.439453 L 22.560547 15.146484 C 22.462547 15.048984 22.334906 15 22.207031 15 z M 20.146484 16.853516 L 15 22 L 15 24 L 17 24 L 22.146484 18.853516 L 20.146484 16.853516 z"/>
</svg>
