<?xml version="1.0"?>
<svg xmlns="http://www.w3.org/2000/svg" viewBox="0 0 24 24">
    <path d="M 4 2 L 4 22 L 12.087891 22 L 20 14.087891 L 20 8 L 14 2 L 4 2 z M 13 3.5 L 18.5 9 L 13 9 L 13 3.5 z M 15.292969 12.292969 L 16.707031 13.707031 L 12 18.414062 L 10 16.414062 L 8.7070312 17.707031 L 7.2929688 16.292969 L 10 13.585938 L 12 15.585938 L 15.292969 12.292969 z M 22.207031 15 C 22.079156 15 21.951016 15.048984 21.853516 15.146484 L 20.853516 16.146484 L 22.853516 18.146484 L 23.853516 17.146484 C 24.048516 16.951484 24.048516 16.634453 23.853516 16.439453 L 22.560547 15.146484 C 22.462547 15.048984 22.334906 15 22.207031 15 z M 20.146484 16.853516 L 15 22 L 15 24 L 17 24 L 22.146484 18.853516 L 20.146484 16.853516 z"/>
</svg>
