<?xml version="1.0"?>
<svg xmlns="http://www.w3.org/2000/svg" viewBox="0 0 24 24">
    <path d="M 3 3 L 3 7 L 3 21 L 16.171875 21 L 14.171875 19 L 5 19 L 5 7 L 19 7 L 18.998047 14.171875 L 21 16.171875 L 21 6 L 21 3 L 3 3 z M 7 10 L 7 12 L 9 12 L 9 10 L 7 10 z M 11 10 L 11 12 L 17 12 L 17 10 L 11 10 z M 7 14 L 7 16 L 9 16 L 9 14 L 7 14 z M 11 14 L 11 16 L 13 16 L 13 14 L 11 14 z M 15 15 L 15 17 L 20.146484 22.146484 L 22.146484 20.146484 L 17 15 L 15 15 z M 22.853516 20.853516 L 20.853516 22.853516 L 22 24 L 24 22 L 22.853516 20.853516 z"/>
</svg>
