<?xml version="1.0"?>
<svg xmlns="http://www.w3.org/2000/svg" viewBox="0 0 24 24">
    <path d="M 6 4 C 3.239 4 1 6.239 1 9 C 1 11.761 3.239 14 6 14 L 10 14 L 10 12 L 6 12 C 4.343 12 3 10.657 3 9 C 3 7.343 4.343 6 6 6 L 10 6 L 10 4 L 6 4 z M 14 4 L 14 6 L 18 6 C 19.657 6 21 7.343 21 9 C 21 10.657 19.657 12 18 12 L 14 12 L 14 14 L 18 14 C 20.761 14 23 11.761 23 9 C 23 6.239 20.761 4 18 4 L 14 4 z M 7 8 L 7 10 L 17 10 L 17 8 L 7 8 z M 22.207031 15 C 22.079156 15 21.951016 15.048984 21.853516 15.146484 L 20.853516 16.146484 L 22.853516 18.146484 L 23.853516 17.146484 C 24.048516 16.951484 24.048516 16.634453 23.853516 16.439453 L 22.560547 15.146484 C 22.462547 15.048984 22.334906 15 22.207031 15 z M 20.146484 16.853516 L 15 22 L 15 24 L 17 24 L 22.146484 18.853516 L 20.146484 16.853516 z"/>
</svg>
