<?xml version="1.0"?>
<svg xmlns="http://www.w3.org/2000/svg" viewBox="0 0 24 24">
    <path d="M 15 2 L 15 4 L 2 4 L 2 14 L 2 20 L 3.3554688 20 C 3.9222997 21.175306 5.1168481 22 6.5 22 C 7.8831519 22 9.0777003 21.175306 9.6445312 20 L 13.355469 20 C 13.9223 21.175306 15.116848 22 16.5 22 C 17.883152 22 19.0777 21.175306 19.644531 20 L 22 20 L 22 14.183594 L 16.550781 13.089844 L 12.484375 8 L 10.560547 8 L 6.171875 8 C 6.171875 8 6.039375 8.679375 5.859375 9.609375 L 5.1796875 13 L 4 13 L 4 6 L 15 6 L 15 8 L 21 8 L 21 6 L 19 6 L 19 4 L 21 4 L 21 2 L 15 2 z M 7.8203125 10 L 10.560547 10 L 11.5 10 L 13.919922 13 L 7.2207031 13 L 7.8203125 10 z M 6.5 17 C 7.3402718 17 8 17.659728 8 18.5 C 8 19.340272 7.3402718 20 6.5 20 C 5.6597282 20 5 19.340272 5 18.5 C 5 17.659728 5.6597282 17 6.5 17 z M 16.5 17 C 17.340272 17 18 17.659728 18 18.5 C 18 19.340272 17.340272 20 16.5 20 C 15.659728 20 15 19.340272 15 18.5 C 15 17.659728 15.659728 17 16.5 17 z"/>
</svg>
