<?xml version="1.0"?>
<svg xmlns="http://www.w3.org/2000/svg" viewBox="0 0 24 24">
    <path d="M23.515,15.973l-1.029-1.715l-2.695,1.617c-0.496-0.433-1.109-0.726-1.79-0.824V11H6.165L5.858,9H14V7H5.55L4.874,2.603 L2.897,2.907L4.77,15.079C3.19,15.417,2,16.821,2,18.5C2,20.43,3.57,22,5.5,22c1.391,0,2.585-0.822,3.149-2h5.702 c0.564,1.178,1.758,2,3.149,2c1.93,0,3.5-1.57,3.5-3.5c0-0.325-0.059-0.634-0.142-0.933L23.515,15.973z M5.5,20 C4.673,20,4,19.327,4,18.5S4.673,17,5.5,17S7,17.673,7,18.5S6.327,20,5.5,20z M17.5,20c-0.827,0-1.5-0.673-1.5-1.5 s0.673-1.5,1.5-1.5s1.5,0.673,1.5,1.5S18.327,20,17.5,20z"/>
</svg>
