<?xml version="1.0"?>
<svg xmlns="http://www.w3.org/2000/svg" viewBox="0 0 24 24">
    <path d="M 4 3 C 2.35 3 1 4.35 1 6 L 1 18 L 3 18 C 3 19.64501 4.3549904 21 6 21 C 7.6450096 21 9 19.64501 9 18 L 14 18 C 14 19.64501 15.35499 21 17 21 C 18.64501 21 20 19.64501 20 18 L 22 18 L 22 17 C 22 16.69 21.970391 10.09 19.650391 5 L 21 5 L 21 3 L 4 3 z M 15 5 L 17.419922 5 C 18.239922 6.52 18.789922 8.29 19.169922 10 L 15 10 L 15 5 z M 9 6 L 9 9 L 11 9 L 8 14 L 8 11 L 6 11 L 9 6 z M 6 17 C 6.5641294 17 7 17.435871 7 18 C 7 18.564129 6.5641294 19 6 19 C 5.4358706 19 5 18.564129 5 18 C 5 17.435871 5.4358706 17 6 17 z M 17 17 C 17.564129 17 18 17.435871 18 18 C 18 18.564129 17.564129 19 17 19 C 16.435871 19 16 18.564129 16 18 C 16 17.435871 16.435871 17 17 17 z"/>
</svg>
