<?xml version="1.0"?>
<svg xmlns="http://www.w3.org/2000/svg" viewBox="0 0 24 24">
    <path d="M 12 2 C 6.486 2 2 6.486 2 12 C 2 17.514 6.486 22 12 22 C 17.514 22 22 17.514 22 12 C 22 6.486 17.514 2 12 2 z M 8.5 8 C 9.879 8 11 9.122 11 10.5 C 11 11.878 9.879 13 8.5 13 C 7.121 13 6 11.878 6 10.5 C 6 9.122 7.121 8 8.5 8 z M 15.5 8 C 16.879 8 18 9.122 18 10.5 C 18 11.878 16.879 13 15.5 13 C 14.121 13 13 11.878 13 10.5 C 13 9.122 14.121 8 15.5 8 z M 8.5 9.5 A 1 1 0 0 0 7.5 10.5 A 1 1 0 0 0 8.5 11.5 A 1 1 0 0 0 9.5 10.5 A 1 1 0 0 0 8.5 9.5 z M 15.5 9.5 A 1 1 0 0 0 14.5 10.5 A 1 1 0 0 0 15.5 11.5 A 1 1 0 0 0 16.5 10.5 A 1 1 0 0 0 15.5 9.5 z M 9 15 L 15 15 L 15 17 L 9 17 L 9 15 z"/>
</svg>
