<?xml version="1.0"?>
<svg xmlns="http://www.w3.org/2000/svg" viewBox="0 0 24 24">
    <path d="M 12.5 3 A 0.5 0.5 0 0 0 12 3.5 A 0.5 0.5 0 0 0 12.5 4 A 0.5 0.5 0 0 0 13 3.5 A 0.5 0.5 0 0 0 12.5 3 z M 17 3 C 15.35499 3 14 4.3549904 14 6 C 14 7.2931586 14.84267 8.3951413 16 8.8125 L 16 11 L 18 11 L 18 8.8125 C 19.15733 8.3951413 20 7.2931586 20 6 C 20 4.3549904 18.64501 3 17 3 z M 21.5 3 A 0.5 0.5 0 0 0 21 3.5 A 0.5 0.5 0 0 0 21.5 4 A 0.5 0.5 0 0 0 22 3.5 A 0.5 0.5 0 0 0 21.5 3 z M 17 5 C 17.564129 5 18 5.4358706 18 6 C 18 6.5641294 17.564129 7 17 7 C 16.435871 7 16 6.5641294 16 6 C 16 5.4358706 16.435871 5 17 5 z M 22.5 6 A 0.5 0.5 0 0 0 22 6.5 A 0.5 0.5 0 0 0 22.5 7 A 0.5 0.5 0 0 0 23 6.5 A 0.5 0.5 0 0 0 22.5 6 z M 11.289062 6.0449219 A 0.5 0.5 0 0 0 10.824219 6.5449219 A 0.5 0.5 0 0 0 11.324219 7.0449219 A 0.5 0.5 0 0 0 11.824219 6.5449219 A 0.5 0.5 0 0 0 11.324219 6.0449219 A 0.5 0.5 0 0 0 11.289062 6.0449219 z M 4.7207031 8.8945312 L 4.3320312 9.3554688 C 2.6460313 11.358469 2.022 13.845906 2 15.503906 C 1.954 19.178906 4.067625 20.912 6.265625 21 C 6.482625 20.997 6.8441563 20.991375 7.2851562 20.859375 C 7.3701562 20.834375 7.4511562 20.788859 7.5351562 20.755859 C 7.4801563 20.707859 7.4250938 20.658375 7.3710938 20.609375 C 5.7940938 19.173375 5.0627031 16.995344 5.4707031 14.902344 C 5.5317031 14.591344 5.5898437 14.412109 5.5898438 14.412109 L 5.640625 14.464844 C 6.4749076 16.874917 8.1796947 19.146786 10.509766 20.447266 C 11.165212 20.81343 11.901951 21 12.646484 21 C 15.591748 21 18 18.591748 18 15.646484 L 18 13 L 16 13 L 16 15.646484 C 16 17.511221 14.511221 19 12.646484 19 C 12.278508 19 11.921667 18.905084 11.597656 18.746094 C 12.391716 18.009842 13.001953 16.936134 13.001953 15.625 C 13.000953 14.962 12.932344 14.165328 12.402344 13.236328 C 10.443344 10.168328 5.5175937 9.0694375 5.3085938 9.0234375 L 4.7207031 8.8945312 z"/>
</svg>
