<?xml version="1.0"?>
<svg xmlns="http://www.w3.org/2000/svg" viewBox="0 0 24 24">
    <path d="M 17 2 A 2 2 0 0 0 15 4 A 2 2 0 0 0 17 6 A 2 2 0 0 0 19 4 A 2 2 0 0 0 17 2 z M 7.5 7 C 5.026562 7 3 9.026562 3 11.5 L 3 12.5 L 3.203125 12.5 C 3.672572 14.481954 5.3806693 16 7.5 16 L 11 16 L 11 14 L 7.5 14 C 6.107438 14 5 12.892562 5 11.5 C 5 10.107438 6.107438 9 7.5 9 L 11 9 L 11 7 L 7.5 7 z M 13 7 L 13 16 L 14 16 L 14 22 L 16 22 L 16 16 L 18 16 L 18 22 L 20 22 L 20 16 L 21 16 L 21 7 L 13 7 z M 9 10 L 9 11 L 6 11 L 9 13 L 9 12 L 12 12 L 9 10 z"/>
</svg>
