<?xml version="1.0"?>
<svg xmlns="http://www.w3.org/2000/svg" viewBox="0 0 24 24">
    <path style="line-height:normal;text-indent:0;text-align:start;text-decoration-line:none;text-decoration-style:solid;text-decoration-color:#000;text-transform:none;block-progression:tb;isolation:auto;mix-blend-mode:normal" d="M 11 2 L 10.646484 4.1230469 C 10.159736 4.2067166 9.689176 4.3360771 9.2363281 4.5039062 L 7.8652344 2.8398438 L 6.1347656 3.8398438 L 6.8886719 5.8535156 C 6.513238 6.1663963 6.1663963 6.513238 5.8535156 6.8886719 L 3.8398438 6.1347656 L 2.8398438 7.8652344 L 4.5039062 9.2363281 C 4.3360771 9.689176 4.2067166 10.159736 4.1230469 10.646484 L 2 11 L 2 13 L 4.1289062 13.355469 C 4.2126956 13.841671 4.3341804 14.313266 4.5019531 14.765625 L 2.8398438 16.134766 L 3.8398438 17.865234 L 5.8632812 17.107422 C 6.1755989 17.481845 6.5141213 17.83434 6.8886719 18.146484 L 6.1347656 20.160156 L 7.8652344 21.160156 L 9.2363281 19.496094 C 9.6888724 19.66381 10.161051 19.790867 10.646484 19.876953 L 11 22 L 13 22 L 13.353516 19.876953 C 13.840264 19.793283 14.310824 19.663923 14.763672 19.496094 L 16.134766 21.160156 L 17.865234 20.160156 L 17.111328 18.146484 C 17.486762 17.833604 17.833604 17.486762 18.146484 17.111328 L 20.160156 17.865234 L 21.160156 16.134766 L 19.496094 14.763672 C 19.663923 14.310824 19.793283 13.840264 19.876953 13.353516 L 22 13 L 22 11 L 19.876953 10.646484 C 19.793283 10.159736 19.663923 9.689176 19.496094 9.2363281 L 21.160156 7.8652344 L 20.160156 6.1347656 L 18.146484 6.8886719 C 17.833604 6.513238 17.486762 6.1663963 17.111328 5.8535156 L 17.865234 3.8398438 L 16.134766 2.8398438 L 14.763672 4.5039062 C 14.310824 4.3360771 13.840264 4.2067166 13.353516 4.1230469 L 13 2 L 11 2 z M 11 6.0898438 L 11 8.1445312 C 10.247288 8.3418915 9.5868717 8.7600286 9.0722656 9.3144531 L 7.2441406 8.34375 C 8.1465731 7.1692272 9.4715342 6.3445067 11 6.0898438 z M 13 6.0898438 C 14.528466 6.3445067 15.853427 7.1692272 16.755859 8.34375 L 14.927734 9.3144531 C 14.413128 8.7600286 13.752712 8.3418915 13 8.1445312 L 13 6.0898438 z M 12 10 C 13.116414 10 14 10.883586 14 12 C 14 13.116414 13.116414 14 12 14 C 10.883586 14 10 13.116414 10 12 C 10 10.883586 10.883586 10 12 10 z M 6.3066406 10.111328 L 8.1230469 11.076172 C 8.05069 11.374228 8 11.680123 8 12 C 8 12.319877 8.05069 12.625772 8.1230469 12.923828 L 6.3066406 13.888672 C 6.1110855 13.294838 6 12.661219 6 12 C 6 11.338781 6.1110855 10.705162 6.3066406 10.111328 z M 17.693359 10.111328 C 17.888914 10.705162 18 11.338781 18 12 C 18 12.661219 17.888914 13.294838 17.693359 13.888672 L 15.876953 12.923828 C 15.94931 12.625772 16 12.319877 16 12 C 16 11.680123 15.94931 11.374228 15.876953 11.076172 L 17.693359 10.111328 z M 9.0722656 14.685547 C 9.5868717 15.239972 10.247288 15.658108 11 15.855469 L 11 17.910156 C 9.4715342 17.655493 8.1465731 16.830773 7.2441406 15.65625 L 9.0722656 14.685547 z M 14.927734 14.685547 L 16.755859 15.65625 C 15.853427 16.830773 14.528466 17.655493 13 17.910156 L 13 15.855469 C 13.752712 15.658108 14.413128 15.239972 14.927734 14.685547 z"/>
</svg>
