<?xml version="1.0"?>
<svg xmlns="http://www.w3.org/2000/svg" viewBox="0 0 24 24">
    <path d="M 11 2 L 11 12.179688 C 9.84 12.599687 9 13.7 9 15 C 9 16.66 10.34 18 12 18 C 13.66 18 15 16.66 15 15 C 15 13.7 14.16 12.599687 13 12.179688 L 13 10 L 15 10 L 15 8 L 13 8 L 13 6 L 15 6 L 15 4 L 13 4 L 13 2 L 11 2 z M 3 15 L 3 17 C 3.739 17.754 4.806 18 5.5 18 C 6.194 18 7.261 17.754 8 17 L 8 15 C 7.261 15.754 6.194 16 5.5 16 C 4.806 16 3.739 15.754 3 15 z M 16 15 L 16 17 C 16.739 17.754 17.806 18 18.5 18 C 19.194 18 20.261 17.754 21 17 L 21 15 C 20.261 15.754 19.194 16 18.5 16 C 17.806 16 16.739 15.754 16 15 z M 2 19 L 2 21 C 2.739 21.754 3.806 22 4.5 22 C 5.194 22 6.261 21.754 7 21 C 7.739 21.754 8.806 22 9.5 22 C 10.194 22 11.261 21.754 12 21 C 12.739 21.754 13.806 22 14.5 22 C 15.194 22 16.261 21.754 17 21 C 17.739 21.754 18.806 22 19.5 22 C 20.194 22 21.261 21.754 22 21 L 22 19 C 21.261 19.754 20.194 20 19.5 20 C 18.806 20 17.739 19.754 17 19 C 16.261 19.754 15.194 20 14.5 20 C 13.806 20 12.739 19.754 12 19 C 11.261 19.754 10.194 20 9.5 20 C 8.806 20 7.739 19.754 7 19 C 6.261 19.754 5.194 20 4.5 20 C 3.806 20 2.739 19.754 2 19 z"/>
</svg>
