<?xml version="1.0"?>
<svg xmlns="http://www.w3.org/2000/svg" viewBox="0 0 24 24">
    <path d="M 8 4 L 8 6 L 10 6 L 10 8 L 5.7207031 8 L 4.7207031 5 L 0 5 L 0 10.617188 L 4 12.617188 L 4 20 L 15.640625 20 L 21.640625 7 L 23 7 L 23 5 L 19.484375 5 L 16 9.8789062 L 16 8 L 12 8 L 12 6 L 14 6 L 14 4 L 8 4 z M 2 7 L 3.2792969 7 L 4 9.1621094 L 4 10.382812 L 2 9.3828125 L 2 7 z M 21.5 11 C 21.5 11 20 13.671 20 14.5 C 20 15.329 20.671 16 21.5 16 C 22.329 16 23 15.329 23 14.5 C 23 13.671 21.5 11 21.5 11 z"/>
</svg>
