<?xml version="1.0"?>
<svg xmlns="http://www.w3.org/2000/svg" viewBox="0 0 24 24">
    <path d="M 10 1 L 10 3 L 6 3 C 4.3550302 3 3 4.3550302 3 6 L 3 9 L 5 9 L 5 6 C 5 5.4349698 5.4349698 5 6 5 L 10 5 L 10 7 L 13 4 L 10 1 z M 15 3 L 15 5 L 18 5 C 18.56503 5 19 5.4349698 19 6 L 19 10 L 17 10 L 20 13 L 23 10 L 21 10 L 21 6 C 21 4.3550302 19.64497 3 18 3 L 15 3 z M 4 11 L 1 14 L 3 14 L 3 18 C 3 19.64497 4.3550302 21 6 21 L 9 21 L 9 19 L 6 19 C 5.4349698 19 5 18.56503 5 18 L 5 14 L 7 14 L 4 11 z M 19 15 L 19 18 C 19 18.56503 18.56503 19 18 19 L 14 19 L 14 17 L 11 20 L 14 23 L 14 21 L 18 21 C 19.64497 21 21 19.64497 21 18 L 21 15 L 19 15 z"/>
</svg>
