<?xml version="1.0"?>
<svg xmlns="http://www.w3.org/2000/svg" viewBox="0 0 24 24">
    <path d="M 4 2 L 4 9 L 2 9 L 2 18 L 4 18 L 4 22 L 20 22 L 20 7 L 15 2 L 4 2 z M 6 4 L 14 4 L 14 8 L 18 8 L 18 20 L 6 20 L 6 18 L 17 18 L 17 9 L 6 9 L 6 4 z M 4 11 L 7 11 L 7 12 L 5 12 L 5 13 L 6.5996094 13 L 6.5996094 14 L 5 14 L 5 15 L 7 15 L 7 16 L 4 16 L 4 11 z M 8 11 L 9.5 11 C 10.328 11 11 11.672 11 12.5 C 11 13.328 10.328 14 9.5 14 L 9 14 L 9 16 L 8 16 L 8 11 z M 13.490234 11 C 14.913234 11.041 15 12.282906 15 12.503906 L 14.03125 12.503906 C 14.03125 12.400906 14.048656 11.806641 13.472656 11.806641 C 13.297656 11.806641 12.905547 11.884187 12.935547 12.367188 C 12.964547 12.810188 13.547297 13.019406 13.654297 13.066406 C 13.878297 13.148406 14.987094 13.642391 14.996094 14.650391 C 14.998094 14.864391 14.942766 15.985 13.509766 16 C 11.950766 16.017 11.845703 14.675437 11.845703 14.398438 L 12.820312 14.398438 C 12.820312 14.545438 12.832766 15.256172 13.509766 15.201172 C 13.916766 15.167172 14.005531 14.87425 14.019531 14.65625 C 14.042531 14.28925 13.692266 14.068625 13.322266 13.890625 C 12.802266 13.640625 11.979844 13.333375 11.964844 12.359375 C 11.951844 11.482375 12.596234 10.975 13.490234 11 z M 9 12 L 9 13 L 9.5 13 C 9.776 13 10 12.776 10 12.5 C 10 12.224 9.776 12 9.5 12 L 9 12 z"/>
</svg>
