<?xml version="1.0"?>
<svg xmlns="http://www.w3.org/2000/svg" viewBox="0 0 24 24">
    <path d="M 1 4 L 1 20 L 10.277344 20 C 10.623613 20.595634 11.261054 21 12 21 C 12.738946 21 13.376387 20.595634 13.722656 20 L 23 20 L 23 4 L 14 4 C 13.228 4 12.532 4.3002969 12 4.7792969 C 11.468 4.3002969 10.772 4 10 4 L 1 4 z M 4 10 L 7 10 L 7 11 L 5 11 L 5 12 L 6.5996094 12 L 6.5996094 13 L 5 13 L 5 14 L 7 14 L 7 15 L 4 15 L 4 10 z M 8 10 L 10 10 C 11 10 11.300781 10.799609 11.300781 11.599609 C 11.300781 12.499609 10.599219 13 9.6992188 13 L 9 13 L 9 15 L 8 15 L 8 10 z M 12 10 L 13 10 L 13 13 C 13 13.551 13.449 14 14 14 C 14.551 14 15 13.551 15 13 L 15 10 L 16 10 L 16 13 C 16 14.105 15.105 15 14 15 C 12.895 15 12 14.105 12 13 L 12 10 z M 17 10 L 18.5 10 C 18.7 10 20.099609 10.000391 20.099609 11.400391 C 20.099609 12.100391 19.6 12.4 19.5 12.5 C 19.6 12.5 20.199219 12.799609 20.199219 13.599609 C 20.199219 14.899609 19.199609 15 18.599609 15 L 17 15 L 17 14.900391 L 17 10 z M 18.677734 10.994141 C 18.612109 10.994141 18.55 11 18.5 11 L 18 11 L 18 12 L 18.5 12 C 18.7 12 19.099609 12 19.099609 11.5 C 19.099609 11.05 18.874609 10.994141 18.677734 10.994141 z M 9 11 L 9 12 L 9.6503906 12 C 10.050391 12 10.25 11.9 10.25 11.5 C 10.25 11 9.9503906 11 9.6503906 11 L 9 11 z M 18 13 L 18 14 L 18.599609 14 C 18.699609 14 19.199219 14.1 19.199219 13.5 C 19.199219 13.094 18.899219 13 18.699219 13 L 18 13 z"/>
</svg>
