<?xml version="1.0"?>
<svg xmlns="http://www.w3.org/2000/svg" viewBox="0 0 24 24">
    <path d="M15.016,19.111c-1.38,0-2.445-0.42-3.198-1.26c-0.71-0.793-1.088-1.918-1.158-3.352H16v-1.75h-5.375V11H16V9.25h-5.312 c0.098-1.332,0.47-2.388,1.148-3.136c0.74-0.817,1.795-1.225,3.166-1.225c0.919,0,1.835,0.141,2.746,0.422L18,3.371 C16.871,3.124,15.864,3,14.978,3c-2.031,0-3.643,0.576-4.834,1.727c-1.12,1.082-1.73,2.602-1.871,4.523H6V11h2.25v1.75H6v1.75h2.255 c0.093,2.023,0.696,3.611,1.839,4.738C11.285,20.413,12.917,21,14.99,21c1.003,0,2.006-0.121,3.01-0.363l-0.251-1.935 C16.897,18.975,15.985,19.111,15.016,19.111z"/>
</svg>
