<?xml version="1.0"?>
<svg xmlns="http://www.w3.org/2000/svg" viewBox="0 0 24 24">
    <path d="M 6 1 L 6 3 L 3 3 L 3 21 L 11.173828 21 L 9.1757812 19.001953 L 9.1777344 19 L 5 19 L 5 8 L 19 8 L 19.001953 16.34375 L 21 14.345703 L 21 3 L 18 3 L 18 1 L 16 1 L 16 3 L 8 3 L 8 1 L 6 1 z M 12.181641 10 L 11.099609 12.417969 L 8.3632812 12.673828 L 10.400391 14.390625 L 9.8261719 17 L 12.181641 15.599609 L 14.599609 17 L 13.900391 14.390625 L 16 12.673828 L 13.263672 12.417969 L 12.181641 10 z M 22.585938 15.587891 L 17.001953 21.171875 L 13.417969 17.587891 L 12.003906 19.001953 L 17.001953 24 L 24 17.001953 L 22.585938 15.587891 z"/>
</svg>
