<?xml version="1.0"?>
<svg xmlns="http://www.w3.org/2000/svg" viewBox="0 0 24 24">
    <path d="M 6 1 L 6 3 L 3 3 L 3 21 L 10.587891 21 C 10.331891 20.369 10.155359 19.699 10.068359 19 L 5 19 L 5 8 L 19 8 L 19 10.068359 C 19.699 10.155359 20.369 10.331891 21 10.587891 L 21 3 L 18 3 L 18 1 L 16 1 L 16 3 L 8 3 L 8 1 L 6 1 z M 12.181641 10 L 11.099609 12.417969 L 8.3632812 12.673828 L 10.400391 14.390625 L 9.8261719 17 L 12.181641 15.599609 L 12.443359 15.751953 C 12.15989 16.447586 12 17.205189 12 18 C 12 21.301864 14.698136 24 18 24 C 21.301864 24 24 21.301864 24 18 C 24 14.698136 21.301864 12 18 12 C 17.058685 12 16.169653 12.225185 15.375 12.615234 L 13.263672 12.417969 L 12.181641 10 z M 18 14 C 20.220984 14 22 15.779016 22 18 C 22 20.220984 20.220984 22 18 22 C 15.779016 22 14 20.220984 14 18 C 14 15.779016 15.779016 14 18 14 z M 18.427734 15.117188 L 16.828125 18.138672 L 18.925781 20.236328 L 19.986328 19.175781 L 18.671875 17.861328 L 19.753906 15.818359 L 18.427734 15.117188 z"/>
</svg>
