<?xml version="1.0"?>
<svg xmlns="http://www.w3.org/2000/svg" viewBox="0 0 24 24">
    <path d="M 5 1 C 4.3085149 2.3829702 4.1068322 4.6589348 4.0410156 5.9707031 C 2.7664664 7.6492346 2 9.7346612 2 12 C 2 17.514 6.486 22 12 22 C 17.514 22 22 17.514 22 12 C 22 9.7747112 21.259362 7.7236845 20.025391 6.0605469 C 19.964027 4.764817 19.765512 2.4138364 19.060547 1.0039062 L 17.673828 3.7753906 C 16.060298 2.6590054 14.106259 2 12 2 C 9.9137656 2 7.9757211 2.6451315 6.3710938 3.7421875 L 5 1 z M 7 9 L 11 11 C 11 11 10.594 12 9 12 C 7.895 12 7 11.105 7 10 L 7 9 z M 17 9 L 17 10 C 17 11.105 16.105 12 15 12 C 13.562 12 13 11 13 11 L 17 9 z M 10.103516 14.003906 C 11.001875 14.059922 11.8285 14.32525 12.53125 14.59375 C 15.14625 15.59675 17.234 13.859 17 15 C 16.423 15.803 15.71525 16.67025 14.65625 16.90625 C 13.59525 17.14025 12.810641 16.899203 11.931641 16.533203 C 11.036641 16.168203 10.014172 15.765625 9.2011719 15.765625 C 8.3881719 15.765625 6.922 16.734 7 16 C 7.375 14.344 8.8885938 14.078391 9.1835938 14.025391 C 9.4965938 13.990141 9.8040625 13.985234 10.103516 14.003906 z"/>
</svg>
