<?xml version="1.0"?>
<svg xmlns="http://www.w3.org/2000/svg" viewBox="0 0 24 24">
    <path style="line-height:normal;text-indent:0;text-align:start;text-decoration-line:none;text-decoration-style:solid;text-decoration-color:#000;text-transform:none;block-progression:tb;isolation:auto;mix-blend-mode:normal" d="M 20.5 0.005859375 C 19.602211 0.005876475 18.704536 0.34624481 18.025391 1.0253906 L 15.550781 3.5 L 14.84375 2.7929688 L 13.429688 4.2070312 L 14.136719 4.9140625 L 9.3339844 9.7167969 C 8.3393686 10.710776 8.0704646 11.904013 7.8730469 12.816406 C 7.6756291 13.7288 7.5356675 14.343239 7.0644531 14.814453 L 6.3574219 15.521484 L 8.4785156 17.642578 L 9.1855469 16.935547 C 9.6567613 16.464332 10.268554 16.323924 11.169922 16.134766 C 12.07129 15.945607 13.252777 15.697749 14.226562 14.724609 L 19.085938 9.8632812 L 19.792969 10.570312 L 21.207031 9.15625 L 20.5 8.4492188 L 22.976562 5.9746094 C 23.852784 5.0974908 24.100546 3.8673247 23.845703 2.7324219 L 24.685547 2.7324219 L 22.976562 1.0253906 C 22.297015 0.34653836 21.397789 0.005842265 20.5 0.005859375 z M 15.550781 6.328125 L 17.671875 8.4492188 L 12.8125 13.310547 C 12.282287 13.840408 11.648898 13.991143 10.759766 14.177734 C 10.377074 14.258044 9.9335349 14.365366 9.4902344 14.511719 C 9.6378725 14.067622 9.7448757 13.623029 9.828125 13.238281 C 10.021207 12.345925 10.180663 11.69788 10.748047 11.130859 L 15.550781 6.328125 z M 1 8 L 1 23 L 16 23 L 16 16.59375 L 14 16.59375 L 14 21 L 3 21 L 3 10 L 7.03125 10 L 7.03125 8 L 1 8 z" font-weight="400" font-family="sans-serif" white-space="normal" overflow="visible"/>
</svg>
