<?xml version="1.0"?>
<svg xmlns="http://www.w3.org/2000/svg" viewBox="0 0 24 24">
    <path style="line-height:normal;text-indent:0;text-align:start;text-decoration-line:none;text-decoration-style:solid;text-decoration-color:#000;text-transform:none;block-progression:tb;isolation:auto;mix-blend-mode:normal" d="M 4 2 L 4 9 L 1 9 L 1 18 L 4 18 L 4 22 L 20 22 L 20 7 L 15 2 L 4 2 z M 6 4 L 14 4 L 14 8 L 18 8 L 18 20 L 6 20 L 6 18 L 17 18 L 17 9 L 6 9 L 6 4 z M 3 11 L 6 11 L 6 12 L 4 12 L 4 13 L 5.5996094 13 L 5.5996094 14 L 4 14 L 4 15 L 6 15 L 6 16 L 3 16 L 3 11 z M 7.0253906 11 L 8.2734375 11 L 8.9980469 12.716797 L 9.7246094 11 L 10.970703 11 L 9.703125 13.478516 L 11 16 L 9.7382812 16 L 8.9980469 14.251953 L 8.2617188 16 L 7 16 L 8.2949219 13.478516 L 7.0253906 11 z M 12 11 L 15 11 L 15 12 L 13 12 L 13 13 L 14.599609 13 L 14.599609 14 L 13 14 L 13 15 L 15 15 L 15 16 L 12 16 L 12 11 z" font-weight="400" font-family="sans-serif" white-space="normal" overflow="visible"/>
</svg>
