<?xml version="1.0"?>
<svg xmlns="http://www.w3.org/2000/svg" viewBox="0 0 24 24">
    <path d="M4,2v14h2.822h0.001c0.275,0,0.528-0.127,0.696-0.349l0.246-0.324l1.529,1.175l-0.246,0.323C8.544,17.49,7.654,18,6.823,18 c-0.001,0-0.002,0-0.003,0H4v4h6.059l1.682-4.397c0.101-0.259,0.067-0.543-0.074-0.774l-2.823-1.977 c-0.742-0.544-0.941-1.566-0.458-2.349l1.857-3.254l-0.92-0.153C9.113,9.023,8.87,9.038,8.657,9.144l-2.866,1.434L5,9l2.867-1.435 c0.641-0.32,1.471-0.509,2.15-0.275l1.121,0.409l1.536,0.685c0.53,0.237,0.969,0.653,1.234,1.17l0.707,0.966 c0.152,0.295,0.407,0.48,0.738,0.48H18v2l-2.602-0.002c-0.995,0-1.896-0.55-2.352-1.437l-0.38-0.564l-1.577,2.843l1.749,1.573 c0.742,0.743,0.976,1.855,0.595,2.831L12,22h8V2H4z M13.764,8c-0.975,0-1.765-0.79-1.765-1.765s0.79-1.765,1.765-1.765 c0.975,0,1.765,0.79,1.765,1.765S14.739,8,13.764,8z"/>
</svg>
