<?xml version="1.0"?>
<svg xmlns="http://www.w3.org/2000/svg" viewBox="0 0 24 24">
    <path d="M 3 3 L 3 9 L 5.2929688 6.7070312 L 8.8925781 10.306641 L 10.306641 8.8925781 L 6.7070312 5.2929688 L 9 3 L 3 3 z M 15 3 L 17.292969 5.2929688 L 13.693359 8.8925781 L 15.107422 10.306641 L 18.707031 6.7070312 L 21 9 L 21 3 L 15 3 z M 8.8925781 13.693359 L 5.2929688 17.292969 L 3 15 L 3 21 L 9 21 L 6.7070312 18.707031 L 10.306641 15.107422 L 8.8925781 13.693359 z M 15.107422 13.693359 L 13.693359 15.107422 L 17.292969 18.707031 L 15 21 L 21 21 L 21 15 L 18.707031 17.292969 L 15.107422 13.693359 z"/>
</svg>
