<?xml version="1.0"?>
<svg xmlns="http://www.w3.org/2000/svg" viewBox="0 0 24 24">
    <path d="M 8 4 C 3.582 4 0 7.582 0 12 C 0 16.418 3.582 20 8 20 C 12.418 20 16 16.418 16 12 C 16 7.582 12.418 4 8 4 z M 12 4 C 11.661 4 11.328 4.0273594 11 4.0683594 C 14.945 4.5613594 18 7.921 18 12 C 18 16.079 14.945 19.438641 11 19.931641 C 11.328 19.972641 11.661 20 12 20 C 16.418 20 20 16.418 20 12 C 20 7.582 16.418 4 12 4 z M 16 4 C 15.661 4 15.328 4.0273594 15 4.0683594 C 18.945 4.5613594 22 7.921 22 12 C 22 16.079 18.945 19.438641 15 19.931641 C 15.328 19.972641 15.661 20 16 20 C 20.418 20 24 16.418 24 12 C 24 7.582 20.418 4 16 4 z M 7.7128906 5.5996094 L 8.7207031 5.5996094 L 8.7207031 7.0566406 C 9.0417031 7.1176406 10.837891 7.5272969 10.837891 10.154297 L 8.9472656 10.154297 C 8.9472656 8.7812969 8.3641406 8.5644531 8.1191406 8.5644531 C 7.9851406 8.5644531 7.3652344 8.5995625 7.3652344 9.7265625 C 7.3662344 11.693563 10.824219 11.080156 10.824219 14.285156 C 10.824219 16.613156 8.9122187 16.928703 8.5742188 16.970703 L 8.5742188 18.300781 L 7.5722656 18.300781 L 7.5722656 16.970703 C 7.2602656 16.927703 5.1621094 16.696688 5.1621094 13.804688 L 7.0527344 13.804688 C 7.0527344 15.512688 7.9324063 15.441406 8.0664062 15.441406 C 8.2134063 15.441406 8.9355469 15.414828 8.9355469 14.298828 C 8.9355469 12.069828 5.4765625 13.05975 5.4765625 9.71875 C 5.4765625 7.42875 7.3738906 7.0703437 7.7128906 7.0273438 L 7.7128906 5.5996094 z"/>
</svg>
