<?xml version="1.0"?>
<svg xmlns="http://www.w3.org/2000/svg" viewBox="0 0 24 24">
    <path d="M 13 2 L 13 4 L 17 8.3007812 L 17 12 L 18.970703 12 L 18.970703 8.4257812 L 23 4 L 23 2 L 13 2 z M 11 2.0703125 C 8.593 2.3713125 6.5224844 3.7414531 5.2714844 5.6894531 C 5.2634844 5.7014531 5.2550469 5.7145625 5.2480469 5.7265625 C 5.0470469 6.0425625 4.8688906 6.3727969 4.7128906 6.7167969 C 4.6968906 6.7517969 4.6829688 6.7882187 4.6679688 6.8242188 C 4.5219688 7.1612187 4.3939219 7.5081875 4.2949219 7.8671875 C 4.2849219 7.9041875 4.2775781 7.9415156 4.2675781 7.9785156 C 4.1705781 8.3495156 4.0957344 8.7271875 4.0527344 9.1171875 L 1.5761719 13 L 4 14.021484 L 4 17 L 4 19 L 6 19 L 8 19 L 8 22 L 17 22 L 17 19.240234 C 17 16.486234 17.981266 15.494844 18.822266 14.214844 L 19 14.048828 L 18.753906 14.048828 L 18.734375 14 L 17 14 L 15 14 L 15 9.0878906 L 11 4.7851562 L 11 4.09375 L 11 2.0703125 z M 15.730469 4 L 20.296875 4 L 18.037109 6.4804688 L 15.730469 4 z"/>
</svg>
