<?xml version="1.0"?>
<svg xmlns="http://www.w3.org/2000/svg" viewBox="0 0 24 24">
    <path d="M 8 4 C 3.582 4 0 7.582 0 12 C 0 16.418 3.582 20 8 20 C 12.418 20 16 16.418 16 12 C 16 7.582 12.418 4 8 4 z M 12 4 C 11.661 4 11.328 4.0273594 11 4.0683594 C 14.945 4.5613594 18 7.921 18 12 C 18 16.079 14.945 19.438641 11 19.931641 C 11.328 19.972641 11.661 20 12 20 C 16.418 20 20 16.418 20 12 C 20 7.582 16.418 4 12 4 z M 16 4 C 15.661 4 15.328 4.0273594 15 4.0683594 C 18.945 4.5613594 22 7.921 22 12 C 22 16.079 18.945 19.438641 15 19.931641 C 15.328 19.972641 15.661 20 16 20 C 20.418 20 24 16.418 24 12 C 24 7.582 20.418 4 16 4 z M 6.0976562 7.6757812 L 10.228516 7.6757812 L 10.228516 9.09375 L 7.4570312 9.09375 L 7.3066406 10.921875 C 7.3536406 10.890875 7.4105625 10.856359 7.4765625 10.818359 C 7.5425625 10.780359 7.6190781 10.745891 7.7050781 10.712891 C 7.7910781 10.679891 7.8834219 10.651859 7.9824219 10.630859 C 8.0814219 10.609859 8.187875 10.599609 8.296875 10.599609 C 8.651875 10.599609 8.9652812 10.663969 9.2382812 10.792969 C 9.5112812 10.921969 9.7427344 11.109469 9.9277344 11.355469 C 10.112734 11.601469 10.253609 11.902813 10.349609 12.257812 C 10.445609 12.612812 10.492188 13.017703 10.492188 13.470703 C 10.492188 13.850703 10.442797 14.210688 10.341797 14.554688 C 10.239797 14.898687 10.085906 15.200891 9.8789062 15.462891 C 9.6719063 15.724891 9.4116094 15.933844 9.0996094 16.089844 C 8.7876094 16.245844 8.4180938 16.324219 7.9960938 16.324219 C 7.6800938 16.324219 7.3731719 16.26725 7.0761719 16.15625 C 6.7791719 16.04525 6.5152031 15.882969 6.2832031 15.667969 C 6.0512031 15.452969 5.8636562 15.190812 5.7226562 14.882812 C 5.5816562 14.574813 5.5098594 14.223125 5.5058594 13.828125 L 7.1464844 13.828125 C 7.1734844 14.183125 7.2611563 14.459297 7.4101562 14.654297 C 7.5591563 14.849297 7.750375 14.947266 7.984375 14.947266 C 8.140375 14.947266 8.2738125 14.906219 8.3828125 14.824219 C 8.4918125 14.742219 8.5813906 14.631234 8.6503906 14.490234 C 8.7193906 14.349234 8.767875 14.183188 8.796875 13.992188 C 8.825875 13.801188 8.8398438 13.594094 8.8398438 13.371094 C 8.8398438 13.148094 8.82025 12.944719 8.78125 12.761719 C 8.74225 12.578719 8.6797031 12.421969 8.5957031 12.292969 C 8.5117031 12.163969 8.4062969 12.063234 8.2792969 11.990234 C 8.1522969 11.917234 8.0021719 11.882813 7.8261719 11.882812 C 7.7091719 11.882812 7.6055781 11.896828 7.5175781 11.923828 C 7.4295781 11.950828 7.3540625 11.986297 7.2890625 12.029297 C 7.2240625 12.072297 7.1680937 12.121734 7.1210938 12.177734 C 7.0740938 12.233734 7.0311875 12.292563 6.9921875 12.351562 L 5.6757812 12.011719 L 6.0976562 7.6757812 z"/>
</svg>
