<?xml version="1.0"?>
<svg xmlns="http://www.w3.org/2000/svg" viewBox="0 0 24 24">
    <path d="M 9.8632812 2.0019531 C 8.4925415 2.0212463 7.0527344 2.3496094 5.6074219 3.0527344 C 4.0644219 3.8037344 2.8017813 5.0712344 2.0507812 6.6152344 C -1.0412188 12.975234 3.1188906 19.260547 8.9628906 19.935547 C 9.0208906 19.784547 9.0673906 19.630281 9.1503906 19.488281 L 9.4511719 18.972656 L 17.222656 5.6640625 C 15.559594 3.4125 12.878909 1.9595081 9.8632812 2.0019531 z M 9 6 L 11 6 L 11 11.414062 L 7.7070312 14.707031 L 6.2929688 13.292969 L 9 10.585938 L 9 6 z M 17 10 L 10 22 L 24 22 L 17 10 z M 16 14 L 18 14 L 18 18 L 16 18 L 16 14 z M 16 19 L 18 19 L 18 21 L 16 21 L 16 19 z"/>
</svg>
