<?xml version="1.0"?>
<svg xmlns="http://www.w3.org/2000/svg" viewBox="0 0 24 24">
    <path d="M 4 2 L 4 22 L 14.171875 22 L 13 20.828125 L 13 18 L 16 18 L 16 14 L 20 14 L 20 8 L 14 2 L 4 2 z M 13 3.5 L 18.5 9 L 13 9 L 13 3.5 z M 10.832031 10 C 11.382031 10 11.714 10.373406 11.875 10.941406 C 12.035 11.590406 11.875609 12.643375 11.474609 13.859375 C 11.715609 14.346375 12.034469 14.832359 12.355469 15.318359 C 13.317469 15.237359 14.119562 15.2385 14.601562 15.5625 C 15.002562 15.8065 15.083828 16.210266 14.923828 16.697266 C 14.682828 17.265266 14.201625 17.509656 13.640625 17.347656 C 13.159625 17.185656 12.596156 16.778859 12.035156 16.130859 C 11.474156 16.211859 10.912563 16.373156 10.351562 16.535156 C 9.7095625 17.670156 9.0697344 18.643719 8.4277344 18.886719 C 8.2667344 18.967719 8.1063125 19 7.9453125 19 C 7.6243125 19 7.3836562 18.887531 7.2226562 18.644531 C 7.0626562 18.401531 6.7418125 17.914547 7.3828125 17.185547 C 7.7838125 16.698547 8.7460625 16.212672 9.7890625 15.888672 C 10.110062 15.239672 10.350797 14.591328 10.591797 13.861328 C 10.030797 12.807328 9.7090625 11.672438 9.7890625 11.023438 C 9.8700625 10.373438 10.282031 10 10.832031 10 z M 18 16 L 18 20 L 15 20 L 19 24 L 23 20 L 20 20 L 20 16 L 18 16 z"/>
</svg>
