<?xml version="1.0"?>
<svg xmlns="http://www.w3.org/2000/svg" viewBox="0 0 24 24">
    <path d="M 2 4 L 2 20 L 10 20 L 10 13 L 13.050781 13 C 13.295781 11.306 14.738 10 16.5 10 C 18.262 10 19.704219 11.306 19.949219 13 L 20 13 L 22 13 L 22 6 L 12 6 L 10 4 L 2 4 z M 16.5 12 C 15.672 12 15 12.672 15 13.5 C 15 13.87 15.25 15 15.25 15 L 12 15 L 12 18.25 C 12 18.25 13.13 18 13.5 18 C 14.328 18 15 18.672 15 19.5 C 15 20.328 14.328 21 13.5 21 C 13.13 21 12 20.75 12 20.75 L 12 24 L 21 24 L 21 20.75 C 21 20.75 22.13 21 22.5 21 C 23.328 21 24 20.328 24 19.5 C 24 18.672 23.328 18 22.5 18 C 22.13 18 21 18.25 21 18.25 L 21 15 L 17.75 15 C 17.75 15 18 13.87 18 13.5 C 18 12.672 17.328 12 16.5 12 z"/>
</svg>
