<?xml version="1.0"?>
<svg xmlns="http://www.w3.org/2000/svg" viewBox="0 0 24 24">
    <path d="M 0 5 L 0 7 L 1 7 L 1 7.4003906 L 1 16 L 2.0507812 16 C 2.2958204 17.692046 3.7411114 19 5.5 19 C 6.8910011 19 8.084435 18.178063 8.6484375 17 L 14.351562 17 C 14.915565 18.178063 16.108999 19 17.5 19 C 18.891001 19 20.084435 18.178063 20.648438 17 L 23 17 L 23 12.228516 C 20.842 9.4325156 13.943 9.042 11 9 L 10.957031 6 L 10 6 C 6.62 6 4.39 7.4200781 3 8.8300781 L 3 5 L 0.5 5 L 0 5 z M 5.5 14 C 6.327 14 7 14.673 7 15.5 C 7 16.327 6.327 17 5.5 17 C 4.673 17 4 16.327 4 15.5 C 4 14.673 4.673 14 5.5 14 z M 17.5 14 C 18.327 14 19 14.673 19 15.5 C 19 16.327 18.327 17 17.5 17 C 16.673 17 16 16.327 16 15.5 C 16 14.673 16.673 14 17.5 14 z"/>
</svg>
