<?xml version="1.0"?>
<svg xmlns="http://www.w3.org/2000/svg" viewBox="0 0 24 24">
    <path d="M 4 3 L 4 6 L 5 6 L 5 9 L 3 9 L 3 6 L 1 6 L 1 17 L 3 17 L 3 14 L 5 14 L 5 17 L 4 17 L 4 20 L 8 20 L 8 17 L 7 17 L 7 14 L 10 14 L 10 16 L 13 16 L 14 14 C 14 14 14.880496 13.978352 16 13.867188 L 16 17 L 15 17 L 15 20 L 19 20 L 19 17 L 18 17 L 18 13.570312 C 18.676928 13.431045 19.36383 13.255009 20 13.007812 L 20 15 L 22 15 L 22 8 L 20 8 L 20 9.9921875 C 19.363822 9.7451544 18.676938 9.5688615 18 9.4296875 L 18 6.609375 L 18 6 L 19 6 L 19 3 L 15 3 L 15 6 L 16 6 L 16 6.890625 L 16 9.1328125 C 14.880496 9.0217248 14 9 14 9 L 13 7 L 10 7 L 10 9 L 7 9 L 7 6 L 8 6 L 8 3 L 4 3 z"/>
</svg>
