<?xml version="1.0"?>
<svg xmlns="http://www.w3.org/2000/svg" viewBox="0 0 24 24">
    <path style="line-height:normal;text-indent:0;text-align:start;text-decoration-line:none;text-decoration-style:solid;text-decoration-color:#000;text-transform:none;block-progression:tb;isolation:auto;mix-blend-mode:normal" d="M 3 3 L 3 8 L 5 8 L 5 5 L 8 5 L 8 3 L 3 3 z M 16 3 L 16 5 L 19 5 L 19 8 L 21 8 L 21 3 L 16 3 z M 7 8 L 7 11 L 9 11 L 9 8 L 7 8 z M 11 8 L 11 12 L 10 12 L 10 14 L 11 14 C 12.093063 14 13 13.093063 13 12 L 13 8 L 11 8 z M 15 8 L 15 11 L 17 11 L 17 8 L 15 8 z M 9.7070312 15.292969 L 8.2929688 16.707031 C 8.2929688 16.707031 8.6834774 17.084903 9.3027344 17.394531 C 9.9219913 17.70416 10.833333 18 12 18 C 13.166667 18 14.078009 17.70416 14.697266 17.394531 C 15.316523 17.084903 15.707031 16.707031 15.707031 16.707031 L 14.292969 15.292969 C 14.292969 15.292969 14.183477 15.415097 13.802734 15.605469 C 13.421991 15.79584 12.833333 16 12 16 C 11.166667 16 10.578009 15.79584 10.197266 15.605469 C 9.8165222 15.415097 9.7070312 15.292969 9.7070312 15.292969 z M 3 16 L 3 21 L 8 21 L 8 19 L 5 19 L 5 16 L 3 16 z M 19 16 L 19 19 L 16 19 L 16 21 L 21 21 L 21 16 L 19 16 z" font-weight="400" font-family="sans-serif" white-space="normal" overflow="visible"/>
</svg>
