<?xml version="1.0"?>
<svg xmlns="http://www.w3.org/2000/svg" viewBox="0 0 24 24">
    <path d="M 16 2 L 16 4 L 21 4 L 21 2 L 16 2 z M 16 6 L 16 11 L 13 11 L 12 8 L 8 11 L 7 8 L 3 11 L 3 21 L 21 21 L 21 6 L 16 6 z M 5 13 L 7 13 L 7 15 L 5 15 L 5 13 z M 9 13 L 11 13 L 11 15 L 9 15 L 9 13 z M 13 13 L 15 13 L 15 15 L 13 15 L 13 13 z M 17 13 L 19 13 L 19 15 L 17 15 L 17 13 z M 5 17 L 7 17 L 7 19 L 5 19 L 5 17 z M 9 17 L 11 17 L 11 19 L 9 19 L 9 17 z M 13 17 L 15 17 L 15 19 L 13 19 L 13 17 z M 17 17 L 19 17 L 19 19 L 17 19 L 17 17 z"/>
</svg>
