<?xml version="1.0"?>
<svg xmlns="http://www.w3.org/2000/svg" viewBox="0 0 24 24">
    <path d="M 8 3 A 3 3 0 0 0 5 6 A 3 3 0 0 0 8 9 A 3 3 0 0 0 11 6 A 3 3 0 0 0 8 3 z M 16 3 A 3 3 0 0 0 13 6 A 3 3 0 0 0 16 9 A 3 3 0 0 0 19 6 A 3 3 0 0 0 16 3 z M 20.001953 7.0019531 C 20.001953 7.0019531 19.924953 8.4210469 20.751953 9.2480469 C 21.578953 10.075047 22.998047 9.9980469 22.998047 9.9980469 C 22.998047 9.9980469 23.075047 8.5789531 22.248047 7.7519531 C 21.421047 6.9249531 20.001953 7.0019531 20.001953 7.0019531 z M 3 11 L 3 21 L 9 21 C 9 19.895 9.895 19 11 19 L 13 19 C 14.105 19 15 19.895 15 21 L 21 21 L 21 11 L 3 11 z M 12 13 C 13.105 13 14 13.895 14 15 C 14 16.105 13.105 17 12 17 C 10.895 17 10 16.105 10 15 C 10 13.895 10.895 13 12 13 z"/>
</svg>
