<?xml version="1.0"?>
<svg xmlns="http://www.w3.org/2000/svg" viewBox="0 0 24 24">
    <path d="M12,2C6.486,2,2,6.486,2,12s4.486,10,10,10s10-4.486,10-10S17.514,2,12,2z M9.5,5c2.611,0,3.302,2.341,3.458,5.255 C12.672,10.097,12.349,10,12,10c-0.62,0-1.167,0.288-1.534,0.73c-0.282-0.332-0.655-0.559-1.138-0.748C8.051,9.684,7,8.822,7,7.5 C7,6.119,8.119,5,9.5,5z M9.409,18.208c-1.303,0.457-2.73-0.229-3.187-1.532c-0.864-2.462,1.116-3.888,3.811-4.999 C10.015,11.783,10,11.889,10,12c0,0.861,0.547,1.588,1.31,1.87c-0.218,0.376-0.311,0.801-0.329,1.319 C11.121,16.493,10.656,17.77,9.409,18.208z M11,12c0-0.552,0.448-1,1-1s1,0.448,1,1c0,0.552-0.448,1-1,1S11,12.552,11,12z M18.941,14.659c-1.699,1.981-3.924,0.983-6.236-0.793C13.46,13.58,14,12.855,14,12c0-0.115-0.015-0.227-0.034-0.337 c0.434-0.001,0.848-0.135,1.305-0.378c1.058-0.775,2.397-1.012,3.4-0.151C19.719,12.032,19.84,13.611,18.941,14.659z"/>
</svg>
