<?xml version="1.0"?>
<svg xmlns="http://www.w3.org/2000/svg" viewBox="0 0 24 24">
    <path style="line-height:normal;text-indent:0;text-align:start;text-decoration-line:none;text-decoration-style:solid;text-decoration-color:#000;text-transform:none;block-progression:tb;isolation:auto;mix-blend-mode:normal" d="M 12.230469 2.015625 C 11.992346 2.0092881 11.752719 2.0116875 11.511719 2.0234375 C 9.1637187 2.1384375 7.0452969 3.0638125 5.4042969 4.5078125 C 6.1007609 7.2147872 7.5469539 9.0039018 9.8085938 9.9726562 C 9.3533608 10.464008 9.0656887 11.103811 9.0195312 11.808594 C 6.5537565 10.751884 4.8198135 8.8866199 3.8515625 6.2382812 C 2.5995625 8.0022812 1.8987188 10.175047 2.0117188 12.498047 C 2.2247188 16.870047 5.2357031 20.448422 9.2207031 21.607422 L 9.5742188 21.228516 C 11.398206 19.286383 12.166058 17.239439 11.933594 14.994141 C 11.956152 14.994653 11.977329 15 12 15 C 12.704368 15 13.346911 14.741374 13.861328 14.328125 C 14.276132 17.087461 13.499878 19.660941 11.546875 21.998047 C 11.857875 22.012047 12.171281 22.016953 12.488281 22.001953 C 17.995281 21.732953 22.256281 17.032391 21.988281 11.525391 C 21.948281 10.707391 21.800172 9.9229219 21.576172 9.1699219 L 21.080078 9.0742188 C 18.453891 8.582093 16.31796 9.0447415 14.552734 10.455078 C 14.189956 9.8612335 13.63105 9.4066957 12.964844 9.1757812 C 14.67074 7.6982114 16.709146 7.0245312 19.027344 7 C 19.555344 6.994 20.16175 7.0638125 20.71875 7.1328125 C 19.011563 4.2021875 15.802311 2.1106787 12.230469 2.015625 z M 12 11 C 12.564129 11 13 11.435871 13 12 C 13 12.564129 12.564129 13 12 13 C 11.435871 13 11 12.564129 11 12 C 11 11.435871 11.435871 11 12 11 z" font-weight="400" font-family="sans-serif" white-space="normal" overflow="visible"/>
</svg>
