<?xml version="1.0"?>
<svg xmlns="http://www.w3.org/2000/svg" viewBox="0 0 24 24">
    <path d="M 2 2 L 2 12 L 16 12 L 16 2 L 2 2 z M 8.3496094 4 L 9.6484375 4 L 13 9.3027344 L 13 10 L 11 10 L 10.441406 9 L 7.5566406 9 L 7 10 L 5 10 L 5 9.3046875 L 8.3496094 4 z M 8.9980469 6.7167969 L 8.1875 8 L 9.8105469 8 L 8.9980469 6.7167969 z M 18 12 L 18 14 L 15 14 C 16.103 14 17 14.897 17 16 L 17 18.585938 L 17.707031 19.292969 L 16.292969 20.707031 L 15.585938 20 L 13 20 C 11.895 20 11 19.105 11 18 L 11 16 C 11 14.897 11.897 14 13 14 L 7 14 L 7 22 L 21 22 L 21 12 L 18 12 z M 13 16 L 13 18 L 15 18 L 15 16 L 13 16 z"/>
</svg>
