<?xml version="1.0"?>
<svg xmlns="http://www.w3.org/2000/svg" viewBox="0 0 24 24">
    <path style="line-height:normal;text-indent:0;text-align:start;text-decoration-line:none;text-decoration-style:solid;text-decoration-color:#000;text-transform:none;block-progression:tb;isolation:auto;mix-blend-mode:normal" d="M 11 3 L 11 4 L 11 7 L 8 7 L 8 18 L 11 18 L 11 19 C 11 19.56503 10.56503 20 10 20 L 6 20 C 5.4349698 20 5 19.56503 5 19 L 5 18 L 6 18 L 6 5 L 2 5 L 2 18 L 3 18 L 3 19 C 3 20.64497 4.3550302 22 6 22 L 10 22 C 11.64497 22 13 20.64497 13 19 L 13 18 L 22 18 L 22 7 L 19 7 L 19 3 L 11 3 z M 13 5 L 17 5 L 17 8 L 13 8 L 13 5 z M 12 10 L 14 10 L 14 12 L 12 12 L 12 10 z M 16 10 L 18 10 L 18 12 L 16 12 L 16 10 z M 12 14 L 14 14 L 14 16 L 12 16 L 12 14 z M 16 14 L 18 14 L 18 16 L 16 16 L 16 14 z" font-weight="400" font-family="sans-serif" white-space="normal" overflow="visible"/>
</svg>
