<?xml version="1.0"?>
<svg xmlns="http://www.w3.org/2000/svg" viewBox="0 0 24 24">
    <path d="M 4.5 3.7265625 L 3.7929688 5.2988281 L 2 5.4628906 L 3.3320312 6.578125 L 2.9570312 8.2734375 L 4.5 7.3632812 L 6.0820312 8.2734375 L 5.625 6.578125 L 7 5.4628906 L 5.2070312 5.296875 L 4.5 3.7265625 z M 10 5 L 10 7 L 22 7 L 22 5 L 10 5 z M 4.5 9.7265625 L 3.7929688 11.298828 L 2 11.462891 L 3.3320312 12.578125 L 2.9570312 14.273438 L 4.5 13.363281 L 6.0820312 14.273438 L 5.625 12.578125 L 7 11.462891 L 5.2070312 11.296875 L 4.5 9.7265625 z M 10 11 L 10 13 L 22 13 L 22 11 L 10 11 z M 4.5 15.726562 L 3.7929688 17.298828 L 2 17.462891 L 3.3320312 18.578125 L 2.9570312 20.273438 L 4.5 19.363281 L 6.0820312 20.273438 L 5.625 18.578125 L 7 17.462891 L 5.2070312 17.296875 L 4.5 15.726562 z M 10 17 L 10 19 L 22 19 L 22 17 L 10 17 z"/>
</svg>
