<?xml version="1.0"?>
<svg xmlns="http://www.w3.org/2000/svg" viewBox="0 0 24 24">
    <path d="M 6 2 A 2 2 0 0 0 4 4 A 2 2 0 0 0 6 6 A 2 2 0 0 0 8 4 A 2 2 0 0 0 6 2 z M 18 2 A 2 2 0 0 0 16 4 A 2 2 0 0 0 18 6 A 2 2 0 0 0 20 4 A 2 2 0 0 0 18 2 z M 3.5507812 8 L 2 18 L 3 18 L 3 22 L 5 22 L 5 18 L 7 18 L 7 22 L 9 22 L 9 18 L 10 18 L 9.0839844 11.554688 L 12 14.576172 L 14.916016 11.554688 L 14 18 L 15 18 L 15 22 L 17 22 L 17 18 L 19 18 L 19 22 L 21 22 L 21 18 L 22 18 L 20.449219 8 L 15.421875 8 L 12 11.576172 L 8.578125 8 L 3.5507812 8 z"/>
</svg>
