<?xml version="1.0"?>
<svg xmlns="http://www.w3.org/2000/svg" viewBox="0 0 24 24">
    <path style="line-height:normal;text-indent:0;text-align:start;text-decoration-line:none;text-decoration-style:solid;text-decoration-color:#000;text-transform:none;block-progression:tb;isolation:auto;mix-blend-mode:normal" d="M 21.455078 0.91210938 L 16.677734 7.0078125 L 15.599609 6.1992188 L 14.400391 7.8007812 L 15.443359 8.5839844 L 14.839844 9.3535156 L 12 7.0488281 L 12 7 L 5.0625 7 L 5.0429688 6.984375 L 5.0292969 7 L 5 7 L 5 7.0351562 L 2.0683594 10.554688 L 1.0195312 15.804688 L 2.9804688 16.195312 L 3.9316406 11.445312 L 5 10.162109 L 5 16.945312 L 4.6738281 18.628906 L 0.84375 21.166016 L 1.9492188 22.833984 L 6.4765625 19.833984 L 7.0273438 17 L 10.023438 17 L 11 18.648438 L 11 23 L 13 23 L 13 18.101562 L 12 16.414062 L 12 9.6230469 L 15.160156 12.1875 L 17.042969 9.7832031 L 18.400391 10.800781 L 19.599609 9.1992188 L 18.277344 8.2089844 L 23.029297 2.1445312 L 21.455078 0.91210938 z M 8.5 1 A 2.5 2.5 0 0 0 6 3.5 A 2.5 2.5 0 0 0 8.5 6 A 2.5 2.5 0 0 0 11 3.5 A 2.5 2.5 0 0 0 8.5 1 z"/>
</svg>
