<?xml version="1.0"?>
<svg xmlns="http://www.w3.org/2000/svg" viewBox="0 0 24 24">
    <path d="M18.56,9.09c-0.2-0.26-0.4-0.52-0.61-0.79C16.16,5.94,13.94,3,10,3C6.09,3,3.92,7.49,3.27,9.11L0,10.3V17h2.14 c0.45,1.72,2,3,3.86,3s3.41-1.28,3.86-3h4.28c0.45,1.72,2,3,3.86,3s3.41-1.28,3.86-3H24v-6.82L18.56,9.09z M6,18c-1.1,0-2-0.9-2-2 c0-1.1,0.9-2,2-2s2,0.9,2,2C8,17.1,7.1,18,6,18z M9,9H5.52C6.16,7.68,7.36,5.77,9,5.19V9z M11,9V5.1c2.15,0.41,3.61,2.12,4.97,3.9 H11z M18,18c-1.1,0-2-0.9-2-2c0-1.1,0.9-2,2-2s2,0.9,2,2C20,17.1,19.1,18,18,18z"/>
</svg>
