<?xml version="1.0"?>
<svg xmlns="http://www.w3.org/2000/svg" viewBox="0 0 24 24">
    <path style="line-height:normal;text-indent:0;text-align:start;text-decoration-line:none;text-decoration-style:solid;text-decoration-color:#000;text-transform:none;block-progression:tb;isolation:auto;mix-blend-mode:normal" d="M 7 3 L 7 5.1445312 C 6.6378805 5.2394761 6.2976612 5.3814899 5.9824219 5.5683594 L 4.4648438 4.0507812 L 3.0507812 5.4648438 L 4.5683594 6.9824219 C 4.3814899 7.2976612 4.2394761 7.6378805 4.1445312 8 L 2 8 L 2 10 L 4.140625 10 C 4.2353704 10.364926 4.3869331 10.702095 4.5742188 11.019531 C 3.3498509 11.627509 2.5670936 12.091992 2.4707031 12.152344 L 2 12.445312 L 2 19.484375 C 4.261 17.029375 11.384 10.281281 22 9.1132812 L 22 7 L 21 7 C 17.678545 7 14.594317 7.5308948 11.923828 8.2480469 C 11.835789 7.7922199 11.661448 7.3700959 11.431641 6.9824219 L 12.949219 5.4648438 L 11.535156 4.0507812 L 10.017578 5.5683594 C 9.7023388 5.3814899 9.3621195 5.2394761 9 5.1445312 L 9 3 L 7 3 z M 8 7 C 9.055611 7 9.8929455 7.7926119 9.9824219 8.8222656 C 8.6128197 9.2659516 7.4267415 9.7353223 6.3867188 10.185547 C 6.1426693 9.8557266 6 9.4486803 6 9 C 6 7.8833339 6.8833339 7 8 7 z M 22 11.128906 C 12.009 12.320906 5.2160781 18.94 3.3300781 21 L 9.5527344 21 C 10.832734 19.602 15.912 14.443734 22 13.177734 L 22 11.128906 z M 22 15.214844 C 17.978 16.192844 14.365 19.122 12.375 21 L 22 21 L 22 15.214844 z" font-weight="400" font-family="sans-serif" white-space="normal" overflow="visible"/>
</svg>
