<?xml version="1.0"?>
<svg xmlns="http://www.w3.org/2000/svg" viewBox="0 0 24 24">
    <path d="M 7.8476562 2 L 8.8476562 9 L 6.0195312 9 L 4.0195312 6 L 1.7792969 6 L 2.9804688 12 L 1.7792969 18 L 4.0175781 18 L 6.0175781 15 L 8.8457031 15 L 7.8457031 22 L 10.001953 22 L 12.351562 19 L 15.984375 19 L 15.984375 17 L 13.919922 17 L 15.486328 15 L 19 15 C 20.425 15 22.212563 13.2295 22.726562 12.6875 L 23.376953 12 L 22.726562 11.3125 C 22.212563 10.7705 20.425 9 19 9 L 15.486328 9 L 13.919922 7 L 16 7 L 16 5 L 12.351562 5 L 10.001953 2 L 7.8476562 2 z"/>
</svg>
