<?xml version="1.0"?>
<svg xmlns="http://www.w3.org/2000/svg" viewBox="0 0 24 24">
    <path d="M 4 2 L 4 22 L 8.9101562 22 C 8.5751562 21.546 8.3646719 21.180188 8.2636719 20.992188 C 8.2296719 20.929188 8.2033125 20.877328 8.1953125 20.861328 L 7.7832031 20 L 8.1953125 19.138672 C 8.2953125 18.928672 10.72 14 17 14 C 17.346 14 17.678 14.018828 18 14.048828 C 18.723 14.112828 19.389 14.241875 20 14.421875 L 20 8 L 14 2 L 4 2 z M 13 3.4550781 L 18.5 9 L 13 9 L 13 3.4550781 z M 17 16 C 11.909 16 10 20 10 20 C 10 20 11.909 24 17 24 C 22.091 24 24 20 24 20 C 24 20 22.091 16 17 16 z M 17 18 C 18.104 18 19 18.896 19 20 C 19 21.104 18.104 22 17 22 C 15.896 22 15 21.104 15 20 C 15 18.896 15.896 18 17 18 z"/>
</svg>
