<?xml version="1.0"?>
<svg xmlns="http://www.w3.org/2000/svg" viewBox="0 0 24 24">
    <path d="M 4 2 L 4 22 L 12.683594 22 C 12.387594 21.378 12.181078 20.707 12.080078 20 L 12.074219 20 C 12.026219 19.673 12 19.34 12 19 C 12 15.474 14.609 12.566078 18 12.080078 C 18.327 12.033078 18.66 12 19 12 C 19.34 12 19.673 12.033078 20 12.080078 L 20 8 L 14 2 L 4 2 z M 13 3.4550781 L 18.5 9 L 13 9 L 13 3.4550781 z M 19 14 C 16.25 14 14 16.25 14 19 C 14 21.75 16.25 24 19 24 C 21.75 24 24 21.75 24 19 C 24 16.25 21.75 14 19 14 z M 19 16 C 19.461147 16 19.892436 16.114019 20.283203 16.300781 L 16.300781 20.285156 C 16.113553 19.893994 16 19.461758 16 19 C 16 17.346 17.346 16 19 16 z M 21.699219 17.716797 C 21.885981 18.107564 22 18.538853 22 19 C 22 20.654 20.654 22 19 22 C 18.538242 22 18.106006 21.886447 17.714844 21.699219 L 21.699219 17.716797 z"/>
</svg>
