<?xml version="1.0"?>
<svg xmlns="http://www.w3.org/2000/svg" viewBox="0 0 24 24">
    <path d="M 2 2 L 2 6 L 4 6 L 4 4 L 19 4 L 19 6 L 21 6 L 21 2 L 2 2 z M 11 7 L 11 10 L 11 11.351562 C 10.544 11.133563 10.039 11 9.5 11 C 7.57 11 6 12.57 6 14.5 C 6 16.43 7.57 18 9.5 18 C 11.43 18 13 16.43 13 14.5 L 13 10 L 16 10 L 16 7 L 11 7 z M 2 8 L 2 11 L 4 11 L 4 8 L 2 8 z M 19 8 L 19 11 L 21 11 L 21 8 L 19 8 z M 2 13 L 2 16 L 4 16 L 4 13 L 2 13 z M 19 13 L 19 16 L 21 16 L 21 13 L 19 13 z M 2 18 L 2 22 L 21 22 L 21 18 L 19 18 L 19 20 L 4 20 L 4 18 L 2 18 z"/>
</svg>
