<?xml version="1.0"?>
<svg xmlns="http://www.w3.org/2000/svg" viewBox="0 0 24 24">
    <path d="M 9.6777344 2 C 7.2287344 2 6.2555312 5.2325938 5.6445312 7.4335938 C 3.0045313 8.4295938 3 9.313625 3 9.640625 C 3 9.750625 3.0190625 9.8704688 3.0390625 9.9804688 C 3.2590625 10.800469 4.2599219 11.49 5.6699219 12 C 5.9299219 12.1 6.21 12.189531 6.5 12.269531 C 6.79 12.359531 7.0903906 12.43 7.4003906 12.5 C 8.3203906 12.71 9.329375 12.859453 10.359375 12.939453 C 10.899375 12.979453 11.45 13 12 13 C 12.55 13 13.100625 12.979453 13.640625 12.939453 C 14.670625 12.859453 15.679609 12.71 16.599609 12.5 C 16.909609 12.43 17.21 12.359531 17.5 12.269531 C 17.79 12.189531 18.070078 12.1 18.330078 12 C 19.740078 11.49 20.740937 10.800469 20.960938 9.9804688 C 20.980938 9.8704687 21 9.750625 21 9.640625 C 21 9.312625 20.99375 8.4276875 18.34375 7.4296875 L 18.169922 6.8945312 C 17.429922 4.6005312 16.591266 2 14.322266 2 C 13.771266 2 13.348609 2.0813437 12.974609 2.1523438 C 12.645609 2.2153437 12.362 2.2695312 12 2.2695312 C 11.651 2.2695312 11.401937 2.2202031 11.085938 2.1582031 C 10.709937 2.0832031 10.284734 2 9.6777344 2 z M 4.6191406 13.730469 C 4.8191406 14.480469 5.3199219 15.430312 6.1699219 15.820312 C 7.0199219 18.920313 9.25 22 12 22 C 14.75 22 16.980078 18.920313 17.830078 15.820312 C 18.680078 15.430312 19.180859 14.480469 19.380859 13.730469 C 18.350859 14.150469 17.200781 14.440625 16.050781 14.640625 L 16.019531 14.789062 C 15.479531 17.309062 13.74 20 12 20 L 12 18.550781 L 12.820312 16.910156 L 11.769531 15 C 9.7495313 14.98 6.8791406 14.650469 4.6191406 13.730469 z"/>
</svg>
