<?xml version="1.0"?>
<svg xmlns="http://www.w3.org/2000/svg" viewBox="0 0 24 24">
    <path d="M 16 1.7695312 L 12.46875 7 L 9.5761719 7 L 8.4921875 8.1191406 L 7.4296875 7 L 4.421875 7 C 5.1953084 5.2366099 6.9543869 4 9 4 C 9.945 4 10.821172 4.2783281 11.576172 4.7363281 L 12.701172 3.0703125 C 11.625172 2.3963125 10.36 2 9 2 C 5.141 2 2 5.141 2 9 C 2 12.859 5.141 16 9 16 C 10.749847 16 12.347492 15.348957 13.576172 14.283203 L 14 14.707031 L 14 16 L 20 22 L 22 20 L 16 14 L 14.707031 14 L 14.283203 13.576172 C 15.348957 12.347492 16 10.749847 16 9 C 16 8.011754 15.774548 7.0814906 15.400391 6.2304688 L 16 5.34375 L 18.46875 9 L 22 9 L 22 7 L 19.53125 7 L 16 1.7695312 z M 13.957031 8.3691406 C 13.98447 8.5752667 14 8.7859787 14 9 C 14 11.757 11.757 14 9 14 C 6.243 14 4 11.757 4 9 L 6.5703125 9 L 8.4746094 11.009766 L 10.423828 9 L 13.53125 9 L 13.957031 8.3691406 z"/>
</svg>
