<?xml version="1.0"?>
<svg xmlns="http://www.w3.org/2000/svg" viewBox="0 0 24 24">
    <path d="M 12 3 A 4 4 0 0 0 8 7 A 4 4 0 0 0 12 11 A 4 4 0 0 0 16 7 A 4 4 0 0 0 12 3 z M 18 13 C 15.2 13 13 15.2 13 18 C 13 20.8 15.2 23 18 23 C 19 23 20.000781 22.699219 20.800781 22.199219 L 22.599609 24 L 24 22.599609 L 22.199219 20.800781 C 22.699219 20.000781 23 19 23 18 C 23 15.2 20.8 13 18 13 z M 12 14 C 8.996 14 3 15.508 3 18.5 L 3 21 L 11.683594 21 C 11.250594 20.09 11 19.075 11 18 C 11 16.515 11.465906 15.139813 12.253906 14.007812 C 12.169906 14.004813 12.08 14 12 14 z M 18 15 C 19.7 15 21 16.3 21 18 C 21 19.7 19.7 21 18 21 C 16.3 21 15 19.7 15 18 C 15 16.3 16.3 15 18 15 z"/>
</svg>
