<?xml version="1.0"?>
<svg xmlns="http://www.w3.org/2000/svg" viewBox="0 0 24 24">
    <path d="M 9 3 L 9 4 L 2 4 L 2 14 L 12.259766 14 C 13.524766 12.188 15.622 11 18 11 C 19.488 11 20.866 11.467766 22 12.259766 L 22 4 L 15 4 L 15 3 L 9 3 z M 12 10 C 12.552 10 13 10.448 13 11 C 13 11.552 12.552 12 12 12 C 11.448 12 11 11.552 11 11 C 11 10.448 11.448 10 12 10 z M 18.025391 13 C 17.096 12.995609 16.099953 13.234188 15.095703 13.773438 C 14.538703 14.072437 14.072438 14.53675 13.773438 15.09375 C 11.615438 19.11175 14.278 23 18 23 C 19 23 20.000781 22.699219 20.800781 22.199219 L 22.599609 24 L 24 22.599609 L 22.199219 20.800781 C 22.699219 20.000781 23 19 23 18 C 23 15.2085 20.813562 13.013172 18.025391 13 z M 17.751953 15.007812 C 20.227653 14.825841 21.977609 17.376188 20.396484 20.046875 C 20.312484 20.188875 20.187875 20.313484 20.046875 20.396484 C 16.758875 22.342484 13.657516 19.240125 15.603516 15.953125 C 15.687516 15.812125 15.812125 15.687516 15.953125 15.603516 C 16.569625 15.238641 17.180638 15.049806 17.751953 15.007812 z M 2 16 L 2 20 L 11.294922 20 C 11.105922 19.366 11 18.695 11 18 C 11 17.305 11.105922 16.634 11.294922 16 L 2 16 z"/>
</svg>
