<?xml version="1.0"?>
<svg xmlns="http://www.w3.org/2000/svg" viewBox="0 0 24 24">
    <path d="M 10 2 C 5.593562 2 2 5.593562 2 10 C 2 12.203998 2.8995243 14.203242 4.3476562 15.652344 L 2 18 L 8 18 L 8 12 L 5.7578125 14.242188 C 4.6729946 13.158249 4 11.662251 4 10 C 4 6.674438 6.674438 4 10 4 C 13.325562 4 16 6.674438 16 10 C 16 13.325562 13.325562 16 10 16 L 10 18 C 11.94961 18 13.738393 17.295003 15.128906 16.128906 L 15.998047 16.998047 L 16 18 L 20 22 L 22 20 L 18 16 L 16.996094 15.996094 L 16.128906 15.128906 C 17.295003 13.738393 18 11.94961 18 10 C 18 5.593562 14.406438 2 10 2 z"/>
</svg>
