<?xml version="1.0"?>
<svg xmlns="http://www.w3.org/2000/svg" viewBox="0 0 24 24">
    <path d="M 4 2 L 4 22 L 11.519531 22 C 11.049531 21.4 10.689453 20.73 10.439453 20 L 6 20 L 6 4 L 18 4 L 18 10.029297 L 20 10.439453 L 20 2 L 4 2 z M 8 7 L 8 9 L 16 9 L 16 7 L 8 7 z M 8 11 L 8 13 L 11.519531 13 C 12.119531 12.18 12.889297 11.5 13.779297 11 L 8 11 z M 17.5 12 C 16.20102 12 14.993619 12.454471 14.050781 13.224609 C 12.795093 14.228018 12 15.778346 12 17.5 C 12 17.705958 12.012209 17.912543 12.037109 18.115234 C 12.344245 20.859251 14.678639 23 17.5 23 C 18.654525 23 19.72665 22.639807 20.613281 22.027344 L 22.542969 23.957031 L 23.957031 22.542969 L 22.027344 20.613281 C 22.639807 19.72665 23 18.654525 23 17.5 C 23 14.471847 20.528153 12 17.5 12 z M 18 14.048828 C 19.707479 14.289008 21 15.719723 21 17.5 C 21 19.451847 19.451847 21 17.5 21 C 15.722628 21 14.291396 19.698081 14.046875 18 L 18 18 L 18 14.048828 z M 8 15 L 8 17 L 10.029297 17 C 10.059297 16.3 10.199453 15.63 10.439453 15 L 8 15 z"/>
</svg>
