<?xml version="1.0"?>
<svg xmlns="http://www.w3.org/2000/svg" viewBox="0 0 24 24">
    <path d="M21,3H3v18h18V3z M9.172,14.828l-1.414,1.414C6.624,15.109,6,13.603,6,12s0.624-3.109,1.758-4.242l1.414,1.414 C8.416,9.928,8,10.932,8,12S8.416,14.072,9.172,14.828z M12,14c-1.105,0-2-0.895-2-2c0-1.105,0.895-2,2-2s2,0.895,2,2 C14,13.105,13.105,14,12,14z M16.242,16.242l-1.414-1.414C15.584,14.072,16,13.068,16,12s-0.416-2.072-1.172-2.828l1.414-1.414 C17.376,8.891,18,10.397,18,12S17.376,15.109,16.242,16.242z"/>
</svg>
