<?xml version="1.0"?>
<svg xmlns="http://www.w3.org/2000/svg" viewBox="0 0 24 24">
    <path d="M 5.6367188 4.2226562 L 4.9296875 4.9296875 C 3.0406875 6.8176875 2 9.329 2 12 C 2 14.671 3.0406875 17.182313 4.9296875 19.070312 L 5.6367188 19.777344 L 9.8789062 15.535156 L 9.171875 14.828125 C 8.416875 14.072125 8 13.068 8 12 C 8 10.932 8.416875 9.927875 9.171875 9.171875 L 9.8789062 8.4648438 L 5.6367188 4.2226562 z M 18.363281 4.2226562 L 14.121094 8.4648438 L 14.828125 9.171875 C 15.583125 9.927875 16 10.932 16 12 C 16 13.068 15.583125 14.072125 14.828125 14.828125 L 14.121094 15.535156 L 18.363281 19.777344 L 19.070312 19.070312 C 20.959312 17.182313 22 14.671 22 12 C 22 9.329 20.959312 6.8176875 19.070312 4.9296875 L 18.363281 4.2226562 z M 12 10 A 2 2 0 0 0 10 12 A 2 2 0 0 0 12 14 A 2 2 0 0 0 14 12 A 2 2 0 0 0 12 10 z"/>
</svg>
