<?xml version="1.0"?>
<svg xmlns="http://www.w3.org/2000/svg" viewBox="0 0 24 24">
    <path d="M 10 2 L 10 3 C 6.6666667 3 4.7247257 4.8142205 3.8554688 6.5527344 C 2.9862117 8.2912483 3 10 3 10 L 5 10 C 5 10 5.0137882 8.7087517 5.6445312 7.4472656 C 6.2752744 6.1857795 7.3333333 5 10 5 L 10 6.4960938 C 9.0889233 7.1734881 7 8.9346579 7 11 L 7 22 L 17 22 L 17 11 C 17 8.9346579 14.910488 7.1734881 14 6.4960938 L 14 5 L 19 6 L 19 2 L 14 3 L 14 2 L 10 2 z M 10 12 L 14 12 L 14 18 L 10 18 L 10 12 z"/>
</svg>
