<?xml version="1.0"?>
<svg xmlns="http://www.w3.org/2000/svg" viewBox="0 0 24 24">
    <path style="line-height:normal;text-indent:0;text-align:start;text-decoration-line:none;text-decoration-style:solid;text-decoration-color:#000;text-transform:none;block-progression:tb;isolation:auto;mix-blend-mode:normal" d="M 9.4667969 2.6484375 L 9.0449219 2.953125 L 1 8.78125 L 1 17.947266 L 1.0429688 17.916016 C 1.253496 19.641377 2.7213322 21 4.5 21 C 6.2499335 21 7.7018234 19.685411 7.9492188 18 L 13.050781 18 C 13.298177 19.685411 14.750067 21 16.5 21 C 18.249933 21 19.701823 19.685411 19.949219 18 L 22 18 L 22 14.310547 L 22 13.445312 L 18.636719 8 L 16.960938 8 L 14.867188 8 L 18.154297 5.6425781 L 9.4667969 2.6484375 z M 10 4.9492188 L 13.84375 6.2734375 L 10 9.0292969 L 10 4.9492188 z M 8 6.1796875 L 8 9.5546875 L 4.84375 8.4667969 L 8 6.1796875 z M 3 9.9472656 L 6.8652344 11.28125 L 3 14.052734 L 3 9.9472656 z M 11 10.773438 L 11 16 L 7.6445312 16 C 7.2996742 15.28495 6.7204292 14.702251 6.0097656 14.353516 L 11 10.773438 z M 4.5 16 C 5.3402718 16 6 16.659728 6 17.5 C 6 18.340272 5.3402718 19 4.5 19 C 3.6597282 19 3 18.340272 3 17.5 C 3 16.659728 3.6597282 16 4.5 16 z M 16.5 16 C 17.340272 16 18 16.659728 18 17.5 C 18 18.340272 17.340272 19 16.5 19 C 15.659728 19 15 18.340272 15 17.5 C 15 16.659728 15.659728 16 16.5 16 z"/>
</svg>
