<?xml version="1.0"?>
<svg xmlns="http://www.w3.org/2000/svg" viewBox="0 0 24 24">
    <path d="M 11.21875 4 L 9.4335938 11.138672 L 7.7207031 6 L 4 6 L 4 12 L 2 12 L 2 15.839844 L 5.4707031 21 L 17.859375 21 L 18.140625 20.759766 C 18.300625 20.629766 22 17.43 22 14 L 22 11 L 19 11 L 19 8.3027344 L 21.869141 4 L 11.21875 4 z M 12.78125 6 L 18.130859 6 L 17 7.6972656 L 17 11 L 14.759766 11 L 12.759766 12 L 11.28125 12 L 12.78125 6 z M 6 8 L 6.2792969 8 L 7.6113281 12 L 6 12 L 6 8 z M 17 14 C 17.55 14 18 14.45 18 15 C 18 15.55 17.55 16 17 16 C 16.45 16 16 15.55 16 15 C 16 14.45 16.45 14 17 14 z"/>
</svg>
