<?xml version="1.0"?>
<svg xmlns="http://www.w3.org/2000/svg" viewBox="0 0 24 24">
    <path d="M22.946,11.676c-0.06-0.173-1.441-4.063-6.039-5.301c-0.32-1.387-1.444-2.478-2.904-2.722L9,3l0.792,3.948 C8.775,7.397,7.804,7.989,7.006,8.643C6.112,7.819,4.628,6.706,2,7.072c0,0,0,9.832,0,9.84c0,0,0,0,0,0 c2.43,0.422,4.008-0.761,4.955-1.568c0.798,0.692,2.162,1.655,4.045,2.21V20c0,0,4.196-0.555,5.413-2.28 c4.752-1.104,6.443-5.168,6.514-5.346C23.017,12.151,23.024,11.903,22.946,11.676z M16.5,10c0.83,0,1.5,0.67,1.5,1.5 S17.33,13,16.5,13S15,12.33,15,11.5S15.67,10,16.5,10z"/>
</svg>
