<?xml version="1.0"?>
<svg xmlns="http://www.w3.org/2000/svg" viewBox="0 0 24 24">
    <path d="M19.647,18.572l1-1.732l0.46,0.266c0.438-0.965,0.727-2.009,0.837-3.106h-0.538v-2h0.542 c-0.11-1.097-0.406-2.139-0.845-3.104L20.647,9.16l-1-1.732l0.451-0.26c-0.631-0.872-1.398-1.639-2.271-2.269l-0.26,0.451l-1.731-1 l0.263-0.455c-0.965-0.438-2.007-0.733-3.103-0.843l0,0.539l-2-0.002l0-0.537C9.9,3.162,8.859,3.458,7.894,3.897l0.261,0.452 l-1.731,1L6.166,4.903C5.295,5.534,4.53,6.299,3.899,7.171l0.444,0.257l-1,1.732L2.894,8.9C2.456,9.864,2.161,10.905,2.051,12h0.533 v2H2.056c0.11,1.095,0.398,2.138,0.835,3.101l0.453-0.262l1,1.732l-0.448,0.259c0.036,0.05,0.068,0.102,0.104,0.151 C4.567,19.737,6,20,5.991,19.98C6,20,5,20.5,5,21c1.5,0,5.312,0,7,0c1.82,0,5,0,7,0c0-0.5-1-1-1.013-1.004 C18,20,19.428,19.745,20,18.982c0.036-0.048,0.067-0.099,0.102-0.147L19.647,18.572z M12,18c-2.761,0-5-2.239-5-5s2.239-5,5-5 s5,2.239,5,5S14.761,18,12,18z"/>
</svg>
