<?xml version="1.0"?>
<svg xmlns="http://www.w3.org/2000/svg" viewBox="0 0 24 24">
    <path d="M 17.5 1 C 15.74 1 14.279063 2.31 14.039062 4 L 20.960938 4 C 20.720938 2.31 19.26 1 17.5 1 z M 6.2773438 2.6308594 L 1.46875 4 C 1.46875 4 5.2330937 17.517 5.7460938 18 L 8.71875 18 L 7.71875 22 L 16.28125 22 L 15.28125 18 L 18 18 L 18 13 L 9.2871094 13 C 9.0741094 12.321 8.8708281 11.652 8.6738281 11 L 12 11 L 12 9 L 8.0820312 9 C 7.6140313 7.386 6.2773438 2.6308594 6.2773438 2.6308594 z M 14 6 L 14 7.5 C 14 9.43 15.57 11 17.5 11 C 19.43 11 21 9.43 21 7.5 L 21 6 L 14 6 z M 10.78125 18 L 13.21875 18 L 13.71875 20 L 10.28125 20 L 10.78125 18 z"/>
</svg>
