<?xml version="1.0"?>
<svg xmlns="http://www.w3.org/2000/svg" viewBox="0 0 24 24">
    <path d="M 10 2 C 9.448 2 9 2.448 9 3 L 9 15 L 7 15 L 7 16 C 7 17.232 7.5581875 18.448859 8.4921875 19.255859 C 8.9128533 19.617075 9.4354074 19.854776 10 19.951172 L 10 22 L 14 22 L 14 19.955078 C 14.456226 19.883938 14.872519 19.724845 15.220703 19.478516 C 16.317703 18.698516 17 17.366 17 16 L 17 15 L 15 15 L 15 3 C 15 2.448 14.552 2 14 2 C 13.448 2 13 2.448 13 3 L 13 15 L 11 15 L 11 3 C 11 2.448 10.552 2 10 2 z"/>
</svg>
