<?xml version="1.0"?>
<svg xmlns="http://www.w3.org/2000/svg" viewBox="0 0 24 24">
    <path d="M 9.34375 2.0527344 C 8.0710469 2.0796406 6.832875 2.4807656 5.765625 3.2285156 C 4.343625 4.2245156 3.39475 5.7147813 3.09375 7.4257812 C 2.79275 9.1347812 3.175875 10.85925 4.171875 12.28125 C 5.168875 13.70325 6.6591406 14.651125 8.3691406 14.953125 C 8.7421406 15.018125 9.1171875 15.052734 9.4921875 15.052734 C 9.9861875 15.052734 10.476078 14.986953 10.955078 14.876953 C 10.353078 13.890953 10 12.737 10 11.5 C 10 8.419 12.157063 5.836875 15.039062 5.171875 C 14.081062 3.595875 12.496047 2.4813437 10.623047 2.1523438 C 10.196047 2.0770937 9.7679844 2.0437656 9.34375 2.0527344 z M 16.5 7 C 14.019 7 12 9.019 12 11.5 C 12 13.981 14.019 16 16.5 16 C 18.981 16 21 13.981 21 11.5 C 21 9.019 18.981 7 16.5 7 z M 11 16 A 3 3 0 0 0 8 19 A 3 3 0 0 0 11 22 A 3 3 0 0 0 14 19 A 3 3 0 0 0 11 16 z"/>
</svg>
