<?xml version="1.0"?>
<svg xmlns="http://www.w3.org/2000/svg" viewBox="0 0 24 24">
    <path style="line-height:normal;text-indent:0;text-align:start;text-decoration-line:none;text-decoration-style:solid;text-decoration-color:#000;text-transform:none;block-progression:tb;isolation:auto;mix-blend-mode:normal" d="M 20.556641 2.1035156 L 2 11.279297 L 2 12.720703 L 20.556641 21.896484 L 21.443359 20.103516 L 18.761719 18.777344 C 19.549382 17.468774 20.773438 14.974587 20.773438 12 C 20.773438 9.0254127 19.549382 6.5312264 18.761719 5.2226562 L 21.443359 3.8964844 L 20.556641 2.1035156 z M 16.957031 6.1132812 C 17.609315 7.1839677 18.773438 9.4451069 18.773438 12 C 18.773438 14.554893 17.609315 16.816032 16.957031 17.886719 L 12.648438 15.755859 C 13.235211 14.930751 14 13.595142 14 12 C 14 10.404858 13.235211 9.0692495 12.648438 8.2441406 L 16.957031 6.1132812 z M 10.769531 9.1738281 C 10.358221 9.9556429 10 10.92856 10 12 C 10 13.07144 10.358221 14.044357 10.769531 14.826172 L 5.0546875 12 L 10.769531 9.1738281 z" font-weight="400" font-family="sans-serif" white-space="normal" overflow="visible"/>
</svg>
