<?xml version="1.0"?>
<svg xmlns="http://www.w3.org/2000/svg" viewBox="0 0 24 24">
    <path d="M 11.572266 3 L 11.34375 3.6796875 C 11.11475 4.3536875 11 5.05 11 5.75 C 11 8.8403766 13.166675 11.407885 16 11.90625 L 16 15.828125 L 9.7597656 10 L 6.0195312 10 L 17.910156 21 L 21.539062 21 L 18 17.695312 L 18 11.90625 C 20.833325 11.407885 23 8.8403766 23 5.75 C 23 5.05 22.88525 4.3536875 22.65625 3.6796875 L 22.427734 3 L 11.572266 3 z M 4.3398438 11.160156 C 3.6398438 12.000156 2.7195313 13.379766 2.2695312 15.259766 C 2.0825313 16.031766 2.0029531 16.803 2.0019531 17.5 C 1.9999531 19 2 21 2 21 L 14.980469 21 L 4.3398438 11.160156 z"/>
</svg>
