<?xml version="1.0"?>
<svg xmlns="http://www.w3.org/2000/svg" viewBox="0 0 24 24">
    <path d="M 3.65625 3 L 3.0117188 12.013672 C 2.8355928 14.485856 4.6185745 16.611451 7 16.947266 L 7 20 L 4 20 L 4 22 L 12 22 L 12 20 L 9 20 L 9 16.947266 C 11.381426 16.611451 13.164407 14.485856 12.988281 12.013672 L 12.34375 3 L 3.65625 3 z M 16 3 L 16 10 L 14.849609 10 L 14.982422 11.869141 C 15.029422 12.523141 14.973078 13.176641 14.830078 13.806641 C 15.202078 13.921641 15.591 14 16 14 L 16 22 L 18 22 L 18 14 L 22 14 L 22 3 L 20 3 L 20 10 L 18 10 L 18 3 L 16 3 z"/>
</svg>
