<?xml version="1.0"?>
<svg xmlns="http://www.w3.org/2000/svg" viewBox="0 0 24 24">
    <path style="line-height:normal;text-indent:0;text-align:start;text-decoration-line:none;text-decoration-style:solid;text-decoration-color:#000;text-transform:none;block-progression:tb;isolation:auto;mix-blend-mode:normal" d="M 5.890625 2.4765625 L 5.75 2.6152344 C 4.777 3.5882344 4.777 5.1656719 5.75 6.1386719 L 6.9511719 7.3398438 L 8.8535156 5.4394531 L 5.890625 2.4765625 z M 13.246094 3.0078125 C 12.479814 2.9431348 11.613203 3.26375 10.939453 3.9375 C 10.181453 4.6955 9.8805 5.6954375 10.0625 6.5234375 L 5 11.585938 L 6.4140625 13 L 10 9.4140625 L 13.585938 13 L 15 11.585938 L 11.414062 8 L 11.476562 7.9394531 C 12.305562 8.1214531 13.3045 7.8205 14.0625 7.0625 C 15.1405 5.9845 15.315125 4.4108281 14.453125 3.5488281 C 14.1295 3.2252031 13.705861 3.0466191 13.246094 3.0078125 z M 1 6 L 1 19 L 2.1875 19 C 2.6048587 20.15733 3.7068414 21 5 21 C 6.2931586 21 7.3951413 20.15733 7.8125 19 L 13.1875 19 C 13.604859 20.15733 14.706841 21 16 21 C 17.293159 21 18.395141 20.15733 18.8125 19 L 22 19 L 22 11.279297 L 19 10.279297 L 19 6 L 17 6 L 17 7 L 17 8 L 17 11.720703 L 20 12.720703 L 20 17 L 18.8125 17 C 18.395141 15.84267 17.293159 15 16 15 C 14.706841 15 13.604859 15.84267 13.1875 17 L 7.8125 17 C 7.3951413 15.84267 6.2931586 15 5 15 C 4.2313977 15 3.5333493 15.30413 3 15.787109 L 3 8 L 3 7 L 3 6 L 1 6 z M 5 17 C 5.5641294 17 6 17.435871 6 18 C 6 18.564129 5.5641294 19 5 19 C 4.4358706 19 4 18.564129 4 18 C 4 17.435871 4.4358706 17 5 17 z M 16 17 C 16.564129 17 17 17.435871 17 18 C 17 18.564129 16.564129 19 16 19 C 15.435871 19 15 18.564129 15 18 C 15 17.435871 15.435871 17 16 17 z" font-weight="400" font-family="sans-serif" white-space="normal" overflow="visible"/>
</svg>
