<?xml version="1.0"?>
<svg xmlns="http://www.w3.org/2000/svg" viewBox="0 0 24 24">
    <path d="M 11 2 C 6.582 2 3 5.582 3 10 C 3 15.004 6 14.429234 6 19.240234 L 6 22 L 15 22 L 15 19 L 19 19 L 19 14.021484 L 21.423828 13 L 18.949219 9.1191406 C 18.510375 5.1158227 15.1201 2 11 2 z M 10.396484 6 L 11.603516 6 C 11.733516 6 11.842516 6.0995156 11.853516 6.2285156 L 11.931641 7.1621094 C 12.330641 7.2931094 12.690094 7.4994375 12.996094 7.7734375 L 13.839844 7.3769531 C 13.957844 7.3219531 14.097109 7.3645625 14.162109 7.4765625 L 14.765625 8.5214844 C 14.830625 8.6344844 14.798406 8.7775625 14.691406 8.8515625 L 13.933594 9.3789062 C 13.975594 9.5809062 14 9.787 14 10 C 14 10.213 13.975594 10.420094 13.933594 10.621094 L 14.691406 11.146484 C 14.798406 11.220484 14.830625 11.364563 14.765625 11.476562 L 14.162109 12.521484 C 14.097109 12.634484 13.956844 12.679047 13.839844 12.623047 L 12.996094 12.224609 C 12.691094 12.498609 12.330641 12.706891 11.931641 12.837891 L 11.853516 13.769531 C 11.842516 13.899531 11.733516 14 11.603516 14 L 10.396484 14 C 10.266484 14 10.157484 13.900484 10.146484 13.771484 L 10.068359 12.837891 C 9.6693594 12.706891 9.3099062 12.500562 9.0039062 12.226562 L 8.1601562 12.623047 C 8.0421562 12.678047 7.9028906 12.635437 7.8378906 12.523438 L 7.234375 11.478516 C 7.169375 11.365516 7.2015937 11.222437 7.3085938 11.148438 L 8.0664062 10.621094 C 8.0244063 10.419094 8 10.213 8 10 C 8 9.787 8.0244063 9.5799062 8.0664062 9.3789062 L 7.3085938 8.8535156 C 7.2015937 8.7795156 7.169375 8.6354375 7.234375 8.5234375 L 7.8378906 7.4785156 C 7.9028906 7.3655156 8.0431562 7.3209531 8.1601562 7.3769531 L 9.0039062 7.7753906 C 9.3109063 7.5003906 9.6713125 7.2931094 10.070312 7.1621094 L 10.148438 6.2285156 C 10.158437 6.0995156 10.266484 6 10.396484 6 z M 11 8.5 A 1.5 1.5 0 0 0 9.5 10 A 1.5 1.5 0 0 0 11 11.5 A 1.5 1.5 0 0 0 12.5 10 A 1.5 1.5 0 0 0 11 8.5 z"/>
</svg>
