<?xml version="1.0"?>
<svg xmlns="http://www.w3.org/2000/svg" viewBox="0 0 24 24">
    <path style="line-height:normal;text-indent:0;text-align:start;text-decoration-line:none;text-decoration-style:solid;text-decoration-color:#000;text-transform:none;block-progression:tb;isolation:auto;mix-blend-mode:normal" d="M 15.292969 3.0507812 L 10.808594 7.5351562 C 9.6441822 8.6980709 9.6449265 10.613677 10.808594 11.777344 L 3.0292969 19.556641 L 4.4433594 20.970703 L 12.222656 13.191406 C 13.385571 14.355818 15.301177 14.355073 16.464844 13.191406 L 20.949219 8.7070312 L 19.535156 7.2929688 L 15.757812 11.070312 C 15.545813 11.282312 15.262781 11.282312 15.050781 11.070312 C 14.838781 10.858313 14.838781 10.575281 15.050781 10.363281 L 18.828125 6.5859375 L 17.414062 5.171875 L 13.636719 8.9492188 C 13.424719 9.1612187 13.141688 9.1612187 12.929688 8.9492188 C 12.719472 8.7390031 12.719104 8.4594377 12.925781 8.2480469 C 12.927536 8.2462525 12.927903 8.2439719 12.929688 8.2421875 L 16.707031 4.4648438 L 15.292969 3.0507812 z" font-weight="400" font-family="sans-serif" white-space="normal" overflow="visible"/>
</svg>
