<?xml version="1.0"?>
<svg xmlns="http://www.w3.org/2000/svg" viewBox="0 0 24 24">
    <path d="M 15.892578 1.4785156 L 12.5 6 L 7.2617188 6 L 3 19.585938 L 9.0742188 13.511719 C 9.0312188 13.346719 9 13.178 9 13 C 9 11.895 9.895 11 11 11 C 12.105 11 13 11.895 13 13 C 13 14.105 12.105 15 11 15 C 10.822 15 10.653281 14.968781 10.488281 14.925781 L 4.4140625 21 L 18 16.738281 L 18 11.5 L 22.521484 8.1074219 L 15.892578 1.4785156 z M 16.109375 4.5234375 L 19.476562 7.890625 L 17.09375 9.6796875 L 14.320312 6.90625 L 16.109375 4.5234375 z"/>
</svg>
