<?xml version="1.0"?>
<svg xmlns="http://www.w3.org/2000/svg" viewBox="0 0 24 24">
    <path d="M 7.2363281 3 L 4 8.4121094 L 4 10 L 8 10 L 8 12 L 10 12 L 10 10 L 11 10 L 11 8 L 10 8 L 10 3 L 9 3 L 7.2363281 3 z M 13 3 L 13 9 L 13 12 L 15 12 L 15 10 L 15.574219 8.9960938 L 16.775391 12 L 19 12 L 16.878906 6.7109375 L 19 3 L 16.736328 3 L 15 5.7890625 L 15 3 L 13 3 z M 8 5.6210938 L 8 8 L 6.5761719 8 L 8 5.6210938 z M 3 15 L 3 21 L 21 21 L 21 15 L 19 15 L 19 19 L 5 19 L 5 15 L 3 15 z M 7 15 L 7 17 L 9 17 L 9 15 L 7 15 z M 11 15 L 11 17 L 13 17 L 13 15 L 11 15 z M 15 15 L 15 17 L 17 17 L 17 15 L 15 15 z"/>
</svg>
