<?xml version="1.0"?>
<svg xmlns="http://www.w3.org/2000/svg" viewBox="0 0 24 24">
    <path d="M 4.3828125 3 L 2 7.7636719 L 2 10 L 5 10 L 5 12 L 7 12 L 7 10 L 7.5214844 10 L 7.5214844 8 L 7 8 L 7 3 L 6 3 L 5 3 L 4.3828125 3 z M 12 3 C 10.631133 3 9.5 4.1311328 9.5 5.5 C 9.5 6.0000276 9.6537925 6.4663364 9.9121094 6.859375 C 9.3521347 7.4057676 9 8.1641303 9 9 C 9 10.64501 10.35499 12 12 12 C 13.64501 12 15 10.64501 15 9 C 15 8.1641303 14.647865 7.4057676 14.087891 6.859375 C 14.346208 6.4663364 14.5 6.0000276 14.5 5.5 C 14.5 4.1311328 13.368867 3 12 3 z M 19 3 C 17.354937 3 16 4.3549372 16 6 L 16 9 C 16 10.645063 17.354937 12 19 12 C 20.645063 12 22 10.645063 22 9 L 22 6 C 22 4.3549372 20.645063 3 19 3 z M 12 5 C 12.287987 5 12.5 5.212013 12.5 5.5 C 12.5 5.787987 12.287987 6 12 6 C 11.712013 6 11.5 5.787987 11.5 5.5 C 11.5 5.212013 11.712013 5 12 5 z M 19 5 C 19.562937 5 20 5.4370628 20 6 L 20 9 C 20 9.5629372 19.562937 10 19 10 C 18.437063 10 18 9.5629372 18 9 L 18 6 C 18 5.4370628 18.437063 5 19 5 z M 5 6.234375 L 5 8 L 4.1171875 8 L 5 6.234375 z M 12 8 C 12.564129 8 13 8.4358706 13 9 C 13 9.5641294 12.564129 10 12 10 C 11.435871 10 11 9.5641294 11 9 C 11 8.4358706 11.435871 8 12 8 z M 3 15 L 3 21 L 21 21 L 21 15 L 19 15 L 19 19 L 5 19 L 5 15 L 3 15 z M 7 15 L 7 17 L 9 17 L 9 15 L 7 15 z M 11 15 L 11 17 L 13 17 L 13 15 L 11 15 z M 15 15 L 15 17 L 17 17 L 17 15 L 15 15 z"/>
</svg>
