<?xml version="1.0"?>
<svg xmlns="http://www.w3.org/2000/svg" viewBox="0 0 24 24">
    <path d="M 15.849609 3 L 13.482422 6.9101562 L 13.482422 7.7011719 L 15.857422 7.7011719 L 15.857422 9 L 15.861328 9 L 17 9 L 17 7.7011719 L 17.482422 7.7011719 L 17.482422 6.7421875 L 17 6.7421875 L 17 3 L 15.849609 3 z M 2 4 L 2 20 L 4 20 L 4 18 L 20 18 L 20 20 L 22 20 L 22 8 L 20 8 L 20 11 L 12 11 L 12 16 L 10 16 L 10 13 L 10 11 C 10 8.8026661 8.1973339 7 6 7 L 4 7 L 4 4 L 2 4 z M 15.857422 4.6308594 L 15.857422 6.7402344 L 14.59375 6.7402344 L 15.785156 4.7597656 L 15.857422 4.6308594 z M 4 9 L 6 9 C 7.1166661 9 8 9.8833339 8 11 L 4 11 L 4 9 z"/>
</svg>
