<?xml version="1.0"?>
<svg xmlns="http://www.w3.org/2000/svg" viewBox="0 0 24 24">
    <path d="M 0 5 L 0 18 L 4 18 C 4 19.657 5.343 21 7 21 C 8.657 21 10 19.657 10 18 L 16 18 C 16 19.657 17.343 21 19 21 C 20.657 21 22 19.657 22 18 L 24 18 L 24 13 L 20.998047 7 L 17 7 L 17 5 L 0 5 z M 17 8.75 L 19.917969 8.75 L 22.042969 13 L 17 13 L 17 8.75 z M 3 9 L 5 9 L 5 10 L 4 10 L 4 11 L 5 11 L 5 12 L 4 12 L 4 14 L 3 14 L 3 9 z M 6 9 L 8 9 L 8 10 L 7 10 L 7 14 L 6 14 L 6 9 z M 9 9 L 11 9 L 11 10 L 10 10 L 10 11 L 11 11 L 11 12 L 10 12 L 10 13 L 11 13 L 11 14 L 9 14 L 9 9 z M 12 9 L 14 9 L 14 10 L 13 10 L 13 11 L 14 11 L 14 12 L 13 12 L 13 13 L 14 13 L 14 14 L 13 14 L 12 14 L 12 9 z M 7 16.75 C 7.689 16.75 8.25 17.311 8.25 18 C 8.25 18.689 7.689 19.25 7 19.25 C 6.311 19.25 5.75 18.689 5.75 18 C 5.75 17.311 6.311 16.75 7 16.75 z M 19 16.75 C 19.689 16.75 20.25 17.311 20.25 18 C 20.25 18.689 19.689 19.25 19 19.25 C 18.311 19.25 17.75 18.689 17.75 18 C 17.75 17.311 18.311 16.75 19 16.75 z"/>
</svg>
