<?xml version="1.0"?>
<svg xmlns="http://www.w3.org/2000/svg" viewBox="0 0 24 24">
    <path d="M 6 1 L 6 3 L 3 3 L 3 21 L 21 21 L 21 3 L 18 3 L 18 1 L 16 1 L 16 3 L 8 3 L 8 1 L 6 1 z M 5 8 L 19 8 L 19.001953 19 L 5 19 L 5 8 z M 11 13 L 11 18 L 12 18 L 12 16 L 13.599609 16 L 13.599609 15 L 12 15 L 12 14 L 14 14 L 14 13 L 11 13 z M 15 13 L 15 16 L 15 18 L 16 18 L 16 16.117188 L 16.941406 18 L 18.058594 18 L 17.011719 15.904297 C 17.587719 15.694297 18 15.148 18 14.5 C 18 13.672 17.328 13 16.5 13 L 16 13 L 15 13 z M 16 14 L 16.5 14 C 16.776 14 17 14.224 17 14.5 C 17 14.776 16.776 15 16.5 15 L 16 15 L 16 14 z"/>
</svg>
