<?xml version="1.0"?>
<svg xmlns="http://www.w3.org/2000/svg" viewBox="0 0 24 24">
    <path style="line-height:normal;text-indent:0;text-align:start;text-decoration-line:none;text-decoration-style:solid;text-decoration-color:#000;text-transform:none;block-progression:tb;isolation:auto;mix-blend-mode:normal" d="M 3 2 A 1.5 1.5 0 0 0 1.5 3.5 A 1.5 1.5 0 0 0 2 4.6152344 L 2 6 L 2 19 L 2 21 L 4 21 L 4 19 L 11 19 L 11 3.0683594 C 9.388 3.2733594 8.3613125 3.9456406 7.4453125 4.5566406 C 6.5110713 5.1794681 5.6115722 5.7686404 4 5.9433594 L 4 4.6152344 A 1.5 1.5 0 0 0 4.5 3.5 A 1.5 1.5 0 0 0 3 2 z M 21 2 A 1.5 1.5 0 0 0 19.5 3.5 A 1.5 1.5 0 0 0 20 4.6152344 L 20 5.9433594 C 18.388428 5.7686404 17.488929 5.1794681 16.554688 4.5566406 C 15.638687 3.9456406 14.612 3.2733594 13 3.0683594 L 13 19 L 20 19 L 20 21 L 22 21 L 22 4.6152344 A 1.5 1.5 0 0 0 22.5 3.5 A 1.5 1.5 0 0 0 21 2 z M 8 11 C 8.552 11 9 11.448 9 12 C 9 12.552 8.552 13 8 13 C 7.448 13 7 12.552 7 12 C 7 11.448 7.448 11 8 11 z M 16 11 C 16.552 11 17 11.448 17 12 C 17 12.552 16.552 13 16 13 C 15.448 13 15 12.552 15 12 C 15 11.448 15.448 11 16 11 z" font-weight="400" font-family="sans-serif" white-space="normal" overflow="visible"/>
</svg>
