<?xml version="1.0"?>
<svg xmlns="http://www.w3.org/2000/svg" viewBox="0 0 24 24">
    <path d="M 3 2 L 3 15 L 21 15 L 21 2 L 13 2 L 13 7 L 16 7 L 12 11 L 8 7 L 11 7 L 11 2 L 3 2 z M 5 17 L 5 22 L 6 22 L 6 20 L 7.5996094 20 L 7.5996094 19 L 6 19 L 6 18 L 8 18 L 8 17 L 5 17 z M 9 17 L 9 20.5 C 9 21.328 9.672 22 10.5 22 C 11.328 22 12 21.328 12 20.5 L 12 17 L 11 17 L 11 20.5 C 11 20.776 10.776 21 10.5 21 C 10.224 21 10 20.776 10 20.5 L 10 17 L 9 17 z M 13 17 L 13 22 L 16 22 L 16 21 L 14 21 L 14 17 L 13 17 z M 17 17 L 17 22 L 20 22 L 20 21 L 18 21 L 18 17 L 17 17 z"/>
</svg>
