<?xml version="1.0"?>
<svg xmlns="http://www.w3.org/2000/svg" viewBox="0 0 24 24">
    <path d="M15.447,16.781c0.393-0.541,0.648-1.255,0.669-2.159l3.637,3.683C20.958,16.826,21.75,15,21.949,13H16v-2h5.949 C21.479,6.283,17.717,2.521,13,2.051V5h-2V2.051C5.954,2.554,2,6.824,2,12c0,5.514,4.486,10,10,10c2.408,0,4.619-0.856,6.346-2.278 L15.447,16.781z M14.612,14.57c0,1.488-0.939,2.059-1.612,2.284V18h-2v-1.086C10.306,16.719,9,16.083,9,14h1.873 c0,1.546,0.873,1.617,1.006,1.617c0.146,0,0.86-0.024,0.86-1.035c0-2.018-3.428-1.122-3.428-4.147c0-1.526,1.017-2.101,1.689-2.315 V7h2v1.185c0.635,0.29,1.625,1.041,1.625,2.815h-1.873c0-1.243-0.578-1.609-0.821-1.609c-0.133,0-0.748,0.032-0.748,1.052 C11.184,12.224,14.612,11.669,14.612,14.57z"/>
</svg>
