<?xml version="1.0"?>
<svg xmlns="http://www.w3.org/2000/svg" viewBox="0 0 24 24">
    <path d="M 12 2 C 6.486 2 2 6.486 2 12 C 2 17.514 6.486 22 12 22 C 17.514 22 22 17.514 22 12 L 20 12 C 20 16.411 16.411 20 12 20 C 7.589 20 4 16.411 4 12 C 4 7.589 7.589 4 12 4 C 14.46039 4 16.654952 5.1245479 18.123047 6.8769531 L 16 9 L 22 9 L 22 3 L 19.529297 5.4707031 C 17.69628 3.3556682 15.011628 2 12 2 z M 11 6 L 11 11.585938 L 8.2929688 14.292969 L 9.7070312 15.707031 L 13 12.414062 L 13 6 L 11 6 z"/>
</svg>
