<?xml version="1.0"?>
<svg xmlns="http://www.w3.org/2000/svg" viewBox="0 0 24 24">
    <path style="line-height:normal;text-indent:0;text-align:start;text-decoration-line:none;text-decoration-style:solid;text-decoration-color:#000;text-transform:none;block-progression:tb;isolation:auto;mix-blend-mode:normal" d="M 12 2.90625 L 3 6.90625 L 3 21 L 5 21 L 5 8.2050781 L 12 5.09375 L 19 8.2050781 L 19 21 L 21 21 L 21 6.90625 L 12 2.90625 z M 9 10 L 7 14.667969 L 7 15 L 7 19 L 7 21 L 10 21 L 10 19 L 14 19 L 14 21 L 17 21 L 17 19 L 17 15 L 17 14.667969 L 15 10 L 9 10 z M 10.318359 12 L 13.681641 12 L 14.966797 15 L 9.0332031 15 L 10.318359 12 z" font-weight="400" font-family="sans-serif" white-space="normal" overflow="visible"/>
</svg>
