<?xml version="1.0"?>
<svg xmlns="http://www.w3.org/2000/svg" viewBox="0 0 24 24">
    <path style="line-height:normal;text-indent:0;text-align:start;text-decoration-line:none;text-decoration-style:solid;text-decoration-color:#000;text-transform:none;block-progression:tb;isolation:auto;mix-blend-mode:normal" d="M 7 3 C 6.7 3 6.4107031 3.1408594 6.2207031 3.3808594 L 2 9 L 2 18 L 3.0507812 18 C 3.2981765 19.685411 4.7500665 21 6.5 21 C 8.2499335 21 9.7018235 19.685411 9.9492188 18 L 14 18 L 14.050781 18 C 14.298177 19.685411 15.750067 21 17.5 21 C 19.249933 21 20.701823 19.685411 20.949219 18 L 23 18 L 23 11.457031 L 19.638672 6 L 14 6 L 14 3 L 9 3 L 9 9 L 7 9 L 7 3 z M 14 8 L 18.521484 8 L 21 12.023438 L 21 16 L 20.644531 16 C 20.0777 14.824694 18.883152 14 17.5 14 C 16.116848 14 14.9223 14.824694 14.355469 16 L 14 16 L 14 8 z M 6.5 16 C 7.3402718 16 8 16.659728 8 17.5 C 8 18.340272 7.3402718 19 6.5 19 C 5.6597282 19 5 18.340272 5 17.5 C 5 16.659728 5.6597282 16 6.5 16 z M 17.5 16 C 18.340272 16 19 16.659728 19 17.5 C 19 18.340272 18.340272 19 17.5 19 C 16.659728 19 16 18.340272 16 17.5 C 16 16.659728 16.659728 16 17.5 16 z" font-weight="400" font-family="sans-serif" white-space="normal" overflow="visible"/>
</svg>
