<?xml version="1.0"?>
<svg xmlns="http://www.w3.org/2000/svg" viewBox="0 0 24 24">
    <path d="M20,14.938c-0.022-2.674-1.44-5.288-2.478-7.2c-0.23-0.425-0.446-0.821-0.627-1.185l-0.686-1.371l-0.979,1.18 c-0.148,0.18-0.286,0.396-0.411,0.631c-1.231-2.416-1.862-4.285-1.87-4.309L12.436,1.15l-1.143,1.143C10.995,2.591,4,9.647,4,15 c0,4.411,3.589,8,8,8s8-3.589,8-8c0-0.001,0-0.002,0-0.003c0-0.016,0-0.03,0-0.046l0.006-0.008L20,14.938z M9,18c0-3,3-6,3-6 c0.574,3.059,3.129,3.954,3,6c-0.104,1.654-1.343,3-3,3S9,19.657,9,18z"/>
</svg>
