<?xml version="1.0"?>
<svg xmlns="http://www.w3.org/2000/svg" viewBox="0 0 24 24">
    <path style="line-height:normal;text-indent:0;text-align:start;text-decoration-line:none;text-decoration-style:solid;text-decoration-color:#000;text-transform:none;block-progression:tb;isolation:auto;mix-blend-mode:normal" d="M 4.5 5 C 4.5 5 3 7.672 3 8.5 C 3 9.328 3.672 10 4.5 10 C 5.328 10 6 9.328 6 8.5 C 6 7.672 4.5 5 4.5 5 z M 9.5 5 C 9.5 5 8 7.672 8 8.5 C 8 9.328 8.672 10 9.5 10 C 10.328 10 11 9.328 11 8.5 C 11 7.672 9.5 5 9.5 5 z M 14.5 5 C 14.5 5 13 7.672 13 8.5 C 13 9.328 13.672 10 14.5 10 C 15.328 10 16 9.328 16 8.5 C 16 7.672 14.5 5 14.5 5 z M 19.5 5 C 19.5 5 18 7.672 18 8.5 C 18 9.328 18.672 10 19.5 10 C 20.328 10 21 9.328 21 8.5 C 21 7.672 19.5 5 19.5 5 z M 2 12 L 2 14 L 3 14 L 3 20 L 21 20 L 21 14 L 22 14 L 22 12 L 2 12 z M 5 14 L 7 14 L 7 16 L 5 16 L 5 14 z M 9 14 L 11 14 L 11 16 L 9 16 L 9 14 z M 13 14 L 15 14 L 15 16 L 13 16 L 13 14 z M 17 14 L 19 14 L 19 16 L 17 16 L 17 14 z" font-weight="400" font-family="sans-serif" white-space="normal" overflow="visible"/>
</svg>
