<?xml version="1.0"?>
<svg xmlns="http://www.w3.org/2000/svg" viewBox="0 0 24 24">
    <path d="M22,5V3h-4.414l-1.588,1.588l-0.286-0.29C15.523,4.107,15.268,4,15,4h-3.747L8.025,7.263l-5.129,5.186 c-1.17,1.183-1.185,3.089-0.058,4.299L1,18.586V21h2v-1.586l1.239-1.239l1.48,1.496c0.674,0.681,1.539,1.176,2.489,1.295 c1.294,0.162,2.539-0.274,3.44-1.185l3.687-3.727l1.454,1.484L20,14.303V8.641l-2.597-2.63L18.414,5H22z M10.226,18.376 c-0.818,0.827-2.158,0.827-2.976,0l-2.932-2.964c-0.424-0.428-0.424-1.129,0-1.558l4.42-4.469l2.576,2.604L9.195,12l-1.901,1.93 l1.422,1.406l1.333-1.348l3.246,0.005l0.633,0.639L10.226,18.376z"/>
</svg>
