<?xml version="1.0"?>
<svg xmlns="http://www.w3.org/2000/svg" viewBox="0 0 24 24">
    <path d="M 11 2 L 10.646484 4.1230469 C 10.159736 4.2067166 9.689176 4.3360771 9.2363281 4.5039062 L 7.8652344 2.8398438 L 6.1347656 3.8398438 L 6.8886719 5.8535156 C 6.513238 6.1663963 6.1663963 6.513238 5.8535156 6.8886719 L 3.8398438 6.1347656 L 2.8398438 7.8652344 L 4.5039062 9.2363281 C 4.3360771 9.689176 4.2067166 10.159736 4.1230469 10.646484 L 2 11 L 2 13 L 4.1230469 13.353516 C 4.2067166 13.840264 4.3360771 14.310824 4.5039062 14.763672 L 2.8398438 16.134766 L 3.8398438 17.865234 L 5.8535156 17.111328 C 6.1663963 17.486762 6.513238 17.833604 6.8886719 18.146484 L 6.1347656 20.160156 L 7.8652344 21.160156 L 9.2363281 19.496094 C 9.689176 19.663923 10.159736 19.793283 10.646484 19.876953 L 11 22 L 13 22 L 13.353516 19.876953 C 13.840264 19.793283 14.310824 19.663923 14.763672 19.496094 L 16.134766 21.160156 L 17.865234 20.160156 L 17.111328 18.146484 C 17.486762 17.833604 17.833604 17.486762 18.146484 17.111328 L 20.160156 17.865234 L 21.160156 16.134766 L 19.496094 14.763672 C 19.663923 14.310824 19.793283 13.840264 19.876953 13.353516 L 22 13 L 22 11 L 19.876953 10.646484 C 19.793283 10.159736 19.663923 9.689176 19.496094 9.2363281 L 21.160156 7.8652344 L 20.160156 6.1347656 L 18.146484 6.8886719 C 17.833604 6.513238 17.486762 6.1663963 17.111328 5.8535156 L 17.865234 3.8398438 L 16.134766 2.8398438 L 14.763672 4.5039062 C 14.310824 4.3360771 13.840264 4.2067166 13.353516 4.1230469 L 13 2 L 11 2 z M 11 6.0898438 L 11 9.1738281 A 3 3 0 0 0 9 12 A 3 3 0 0 0 9.0527344 12.546875 L 6.3789062 14.091797 C 6.1378251 13.440307 6 12.737638 6 12 C 6 9.0161425 8.1553612 6.5637988 11 6.0898438 z M 13 6.0898438 C 15.844639 6.5637988 18 9.0161425 18 12 C 18 12.737638 17.862175 13.440307 17.621094 14.091797 L 14.947266 12.548828 A 3 3 0 0 0 15 12 A 3 3 0 0 0 13 9.1757812 L 13 6.0898438 z M 10.052734 14.277344 A 3 3 0 0 0 12 15 A 3 3 0 0 0 13.949219 14.279297 L 16.628906 15.826172 C 15.530388 17.156023 13.868625 18 12 18 C 10.131375 18 8.4696124 17.156023 7.3710938 15.826172 L 10.052734 14.277344 z"/>
</svg>
