<?xml version="1.0"?>
<svg xmlns="http://www.w3.org/2000/svg" viewBox="0 0 24 24">
    <path d="M 10 3 L 10 6.5488281 L 6.4492188 10 L 4 10 L 4 14 L 4.0175781 14 L 2.9082031 17 L 1 17 L 1 21 L 5 21 L 5 17.113281 L 6.0273438 14.333984 L 7 17 L 7 21 L 11 21 L 11 17 L 9.1289062 17 L 8 13.904297 L 8 11.279297 L 12.005859 7.3886719 L 16 11.214844 L 16 14 L 16.027344 14 L 14.894531 17 L 13 17 L 13 21 L 17 21 L 17 17.082031 L 18.046875 14.314453 L 19.027344 17 L 19 17 L 19 21 L 23 21 L 23 17 L 21.158203 17 L 20 13.832031 L 20 10 L 17.623047 10 L 14 6.53125 L 14 3 L 10 3 z"/>
</svg>
