<?xml version="1.0"?>
<svg xmlns="http://www.w3.org/2000/svg" viewBox="0 0 24 24">
    <path d="M 2 3 L 2 5 L 5 5 L 5 6 L 2 6 L 2 8 L 5 8 L 5 9 L 2 9 L 2 11 L 5 11 L 5 21 L 19 21 L 19 11 L 22 11 L 22 9 L 19 9 L 19 8 L 22 8 L 22 6 L 19 6 L 19 5 L 22 5 L 22 3 L 2 3 z M 7 5 L 17 5 L 17 6 L 7 6 L 7 5 z M 7 8 L 17 8 L 17 9 L 7 9 L 7 8 z M 7 11 L 17 11 L 17 12 L 7 12 L 7 11 z M 21 13 A 1 1 0 0 0 20 14 A 1 1 0 0 0 21 15 A 1 1 0 0 0 22 14 A 1 1 0 0 0 21 13 z M 21 16 A 1 1 0 0 0 20 17 A 1 1 0 0 0 21 18 A 1 1 0 0 0 22 17 A 1 1 0 0 0 21 16 z M 21 19 A 1 1 0 0 0 20 20 A 1 1 0 0 0 21 21 A 1 1 0 0 0 22 20 A 1 1 0 0 0 21 19 z"/>
</svg>
