<?xml version="1.0"?>
<svg xmlns="http://www.w3.org/2000/svg" viewBox="0 0 24 24">
    <path d="M22,12.8c0-0.4-0.1-0.7-0.1-1.1c0-0.3-0.1-0.7-0.2-1s-0.1-0.6-0.2-0.9c0-0.1-0.1-0.2-0.1-0.4c-0.1-0.5-0.2-0.8-0.4-0.9 c-0.1,0-0.1,0-0.2,0c-0.2,0-0.8,0.1-1.4,0.2l-0.5,0.1C18.5,8.9,18,8.9,17.6,9c-0.2,0-0.4,0.1-0.6,0.1c-0.3,0.1-0.7,0.1-1,0.2 c-0.4,0.1-0.9,0.2-1.5,0.4c-0.4,0.1-0.7,0.2-1,0.3h-0.1c-0.3,0.1-0.6,0.2-0.9,0.3c-0.1,0-0.1,0.1-0.2,0.1l0,0c0-0.1-0.1-0.2-0.1-0.3 s0-0.1-0.1-0.2c-0.1-0.2-0.2-0.5-0.3-0.8c-0.1-0.2-0.1-0.5-0.2-0.7c-0.1-0.2-0.1-0.5-0.1-0.8V7.3c0-0.2-0.1-0.4-0.1-0.6 c-0.1-0.3-0.1-0.7-0.2-1c0-0.1-0.1-0.3-0.1-0.4V5.1c0-0.1,0-0.1-0.1-0.2s-0.2-0.2-0.3-0.2h-0.1c-0.1,0-0.1,0-0.2,0h-0.1 c-0.1,0-0.2,0-0.3,0H9.9H9.8H9.7H9.6H9.5C9.4,4.9,9.3,5,9.3,5.1c0,0.2,0,0.4,0.1,0.6C9.5,6,9.5,6.3,9.6,6.6c0.1,0.3,0.2,0.5,0.3,0.8 c0.1,0.2,0.2,0.5,0.3,0.7l0.1,0.1c0.1,0.3,0.2,0.5,0.4,0.8c0.1,0.1,0.1,0.3,0.2,0.4c0.1,0.2,0.2,0.4,0.3,0.5 c0.1,0.3,0.2,0.6,0.3,0.8c-0.1,0-0.2,0-0.2,0.1h-0.2c-0.3,0.1-0.6,0.2-0.9,0.3c-0.2,0.1-0.4,0.1-0.7,0.1c-0.2,0-0.3,0.1-0.5,0.1 c-0.4,0.1-0.8,0.2-1.2,0.3c-0.3,0.1-0.7,0.2-1,0.3c-0.1,0-0.3,0.1-0.4,0.1c-0.2,0.1-0.4,0.2-0.6,0.3s-0.4,0.2-0.5,0.3l-0.1,0.1H5.1 C5,12.8,4.8,12.8,4.7,13s0.1,0.3,0.2,0.4L5,13.5c0.1,0.1,0.1,0.2,0.2,0.3c0,0.1,0,0.1,0.1,0.2c0,0.1,0.1,0.2,0.1,0.3 s0.1,0.1,0.2,0.2c0,0,0.1,0.1,0.2,0.1s0.2,0,0.3,0c0.1,0,0.2,0,0.3-0.1c0.2,0,0.3-0.1,0.5-0.2c0.2-0.1,0.4-0.2,0.6-0.3 s0.4-0.3,0.6-0.4L8,13.5c0.1-0.1,0.2-0.1,0.2-0.2c0.1-0.1,0.3-0.2,0.4-0.3c0.1,0,0.2,0,0.4-0.1l0.4-0.2c0.2-0.1,0.4-0.2,0.5-0.2 c0.3-0.1,0.6-0.3,0.9-0.4c0.3-0.1,0.5-0.2,0.8-0.3c0.1,0.1,0.1,0.2,0.2,0.3c0.1,0.2,0.2,0.5,0.3,0.7c0.1,0.3,0.2,0.5,0.2,0.8 l0.1,0.2c0.1,0.2,0.1,0.5,0.2,0.7c0,0.1,0.1,0.3,0.1,0.4c0,0.2,0.1,0.3,0.1,0.5s0.1,0.4,0.2,0.6l0.1,0.3c0,0.2,0.1,0.3,0.1,0.5 c0.1,0.2,0.2,0.4,0.2,0.6v0.1c0,0.2,0.1,0.4,0.3,0.4h0.1c0.1,0,0.3-0.1,0.4-0.2c0,0,0.1,0,0.1-0.1c0.1,0,0.2-0.1,0.3-0.2 s0.1-0.2,0.1-0.2c0-0.1,0-0.1,0-0.2s0-0.1,0-0.1c0-0.1,0-0.2,0-0.3c0-0.1,0-0.2,0-0.4c-0.1-0.3-0.1-0.7-0.2-1 c-0.1-0.3-0.2-0.6-0.2-0.9c-0.1-0.3-0.2-0.6-0.3-0.9c-0.1-0.3-0.2-0.6-0.4-0.8c-0.1-0.2-0.2-0.3-0.2-0.5c-0.1-0.1-0.1-0.2-0.2-0.3 c0-0.1-0.1-0.2-0.1-0.2S13,11.5,13,11.4l0,0c0.1,0,0.1,0,0.2-0.1h0.1c0.1-0.1,0.2-0.1,0.4-0.1c0.2-0.1,0.5-0.1,0.7-0.2 c0.2,0,0.4-0.1,0.7-0.1s0.7-0.1,1-0.1c0.4,0,0.7,0,1.1,0h0.3c0.3,0,0.5,0,0.8,0c0.4,0,0.8,0,1.2,0c0.2,0,0.3,0,0.5-0.1 c0.2,0,0.4-0.1,0.5-0.1c0,0.1,0,0.2,0,0.3s0,0.2,0,0.3c0,0.4,0.1,0.8,0.1,1.2c0,0.3,0,0.6,0,1c0,0.2,0,0.3-0.1,0.5v0.2 c0,0.3-0.1,0.6-0.2,0.9c-0.1,0.3-0.2,0.6-0.3,1c-0.1,0.3-0.2,0.6-0.4,0.9c-0.1,0.2-0.2,0.4-0.3,0.6c-0.1,0.2-0.2,0.4-0.4,0.6 c-0.1,0.2-0.3,0.3-0.4,0.5c-0.2,0.2-0.4,0.5-0.7,0.7c-0.2,0.2-0.4,0.3-0.7,0.5c-0.1,0.1-0.3,0.2-0.5,0.3L16.5,20 c-0.1,0.1-0.2,0.1-0.4,0.2H16c-0.1,0-0.2,0.1-0.2,0.1c-0.2,0.1-0.4,0.1-0.6,0.2c-0.3,0.1-0.6,0.1-0.9,0.2c-0.3,0-0.6,0.1-0.9,0.1 h-0.1c-0.2,0-0.4,0-0.6,0h-0.1c-0.3,0-0.6,0-1-0.1c-0.2,0-0.5-0.1-0.7-0.2s-0.4-0.1-0.6-0.2c-0.3-0.1-0.6-0.2-0.9-0.4 c-0.4-0.2-0.7-0.4-1-0.5c-0.3-0.2-0.6-0.4-1-0.6s-0.7-0.4-1-0.7L6.2,18c-0.2,0-0.4-0.1-0.6-0.2c-0.1-0.1-0.3-0.2-0.4-0.3 c-0.2-0.2-0.4-0.4-0.5-0.6c-0.2-0.3-0.4-0.7-0.6-1.1C4,15.5,3.9,15.2,3.8,15c-0.1-0.3-0.2-0.6-0.2-0.9c0-0.2-0.1-0.5-0.1-0.8 c0-0.4-0.1-0.7-0.1-1.1c0-0.2,0-0.3,0-0.5c0-0.3,0-0.6,0.1-0.8c0-0.4,0.1-0.8,0.2-1.1c0-0.2,0.1-0.5,0.2-0.7V9 c0-0.4,0.1-0.6,0.2-0.9c0.1-0.3,0.2-0.5,0.4-0.8C4.6,7,4.8,6.8,4.9,6.6C5,6.4,5.1,6.1,5.3,5.9c0.1-0.2,0.3-0.4,0.5-0.5 C5.9,5.2,6.1,5,6.3,4.8C6.6,4.6,6.8,4.4,7,4.3C7.2,4.1,7.5,4,7.7,3.9s0.4-0.2,0.6-0.3h0.1C8.6,3.5,8.8,3.4,9,3.4 c0.2,0,0.3-0.1,0.5-0.1h0.2c0.2,0,0.4-0.1,0.6-0.1c0.2,0,0.5,0,0.7,0s0.5,0,0.7,0.1c0.3,0,0.6,0.1,0.8,0.2c0.2,0.1,0.5,0.1,0.7,0.2 c0.3,0.1,0.5,0.2,0.7,0.3c0.3,0.1,0.6,0.2,0.8,0.4c0.3,0.2,0.6,0.3,1,0.5c0.2-0.1,0.3,0,0.5,0.1l0.4,0.2c0.1,0,0.2,0.1,0.2,0.1 c0.1,0.1,0.2,0.1,0.4,0.2c0.2,0.1,0.3,0.2,0.5,0.4C17.8,6,17.9,6.1,18,6.2l0.2,0.2c0.1,0.1,0.2,0.2,0.3,0.3c0.1,0.1,0.2,0.2,0.2,0.3 l0.1,0.2v0.1c0.1,0.1,0.1,0.2,0.3,0.3c0.1,0.1,0.3,0,0.4-0.1c0.1,0,0.2-0.1,0.2-0.1c0.1,0,0.1,0,0.2-0.1H20c0.1,0,0.2-0.1,0.3-0.1 l0.1-0.1C20.6,7,20.7,7,20.8,6.9c0.1-0.2,0-0.6,0-0.8c-0.2-0.5-0.4-0.8-0.6-1c-0.3-0.3-0.8-0.6-1.2-0.9l-0.2-0.1 c-0.5-0.3-1-0.6-1.4-0.8c-0.6-0.3-1.2-0.6-1.8-0.8C15,2.3,14.4,2.2,14,2.1C13.7,2,13.3,2,13,2c-0.9,0-1.8,0-2.7,0 c-0.8,0-1.2,0.1-2,0.2C7.9,2.4,7.6,2.5,7.2,2.7C6.8,2.9,6.6,3,6.2,3.3c-0.3,0.4-0.5,0.6-0.9,1L5.1,4.5C5,4.7,4.8,4.9,4.6,5.1 C4.4,5.4,4.2,5.7,4,6C3.9,6.2,3.7,6.5,3.6,6.7C3.4,7,3.3,7.2,3.2,7.4L3.1,7.7C3,7.9,2.9,8.1,2.8,8.3c-0.1,0.3-0.3,0.6-0.4,1 s-0.2,0.8-0.3,1.2S2,11.3,2,11.6s0,0.6,0,0.9c0,0.4,0.1,0.8,0.1,1.2c0,0.3,0.2,0.8,0.2,1.1c0.1,0.4,0.3,0.8,0.5,1.2 c0.2,0.4,0.4,0.8,0.7,1.2c0.2,0.3,0.5,0.6,0.7,1C4.4,18.5,4.7,18.7,5,19c0.3,0.2,0.5,0.5,0.8,0.7l0.1,0.1C6,19.9,6.2,20,6.3,20.1 c0.3,0.2,0.5,0.3,0.8,0.5C7.3,20.7,7.7,20.9,8,21c0.3,0.1,0.7,0.3,1,0.4h0.1c0.2,0.1,0.7,0.2,0.9,0.3c0.3,0.1,0.7,0.2,1.1,0.2 c0.3,0.1,0.6,0.1,1,0.1c0.1,0,0.3,0,0.4,0c0.2,0,0.4,0,0.6,0c0.5,0,0.9-0.1,1.4-0.1s0.9-0.1,1.4-0.2c0.3,0,0.6-0.1,0.9-0.2 c0.2-0.1,0.5-0.2,0.7-0.3c0.3-0.1,0.5-0.3,0.8-0.4c0.2-0.1,0.4-0.3,0.6-0.5s0.4-0.4,0.7-0.6c0.2-0.2,0.4-0.5,0.6-0.7 c0.2-0.3,0.4-0.6,0.6-0.8c0.2-0.3,0.4-0.6,0.5-0.8c0.1-0.2,0.2-0.5,0.3-0.8c0.1-0.2,0.2-0.5,0.2-0.8c0.1-0.3,0.1-0.6,0.1-1 c0-0.2,0.1-0.6,0.1-0.9C22,13.6,22,13.2,22,12.8z"/>
</svg>
