<?xml version="1.0"?>
<svg xmlns="http://www.w3.org/2000/svg" viewBox="0 0 24 24">
    <path d="M 12 2 C 10.723 2 9.3449375 3.961 8.5859375 7 L 15.414062 7 C 14.655062 3.961 13.277 2 12 2 z M 8.0664062 2.8085938 C 6.0804063 3.6615937 4.4305156 5.145 3.3535156 7 L 6.5117188 7 C 6.8687188 5.36 7.4014062 3.9375938 8.0664062 2.8085938 z M 15.933594 2.8085938 C 16.597594 3.9375938 17.131281 5.36 17.488281 7 L 20.646484 7 C 19.569484 5.145 17.919594 3.6615938 15.933594 2.8085938 z M 2.4609375 9 C 2.1619375 9.948 2 10.955 2 12 C 2 13.045 2.1619375 14.052 2.4609375 15 L 6.1816406 15 C 6.0676406 14.045 6 13.046 6 12 C 6 10.954 6.0676406 9.955 6.1816406 9 L 2.4609375 9 z M 8.2011719 9 C 8.0721719 9.939 8 10.945 8 12 C 8 13.055 8.0721719 14.061 8.2011719 15 L 15.798828 15 C 15.926828 14.061 16 13.055 16 12 C 16 10.945 15.927828 9.939 15.798828 9 L 8.2011719 9 z M 17.818359 9 C 17.932359 9.955 18 10.954 18 12 C 18 13.046 17.932359 14.045 17.818359 15 L 21.539062 15 C 21.838063 14.052 22 13.045 22 12 C 22 10.955 21.838062 9.948 21.539062 9 L 17.818359 9 z M 3.3535156 17 C 4.4305156 18.855 6.0804063 20.338406 8.0664062 21.191406 C 7.4024062 20.062406 6.8687187 18.64 6.5117188 17 L 3.3535156 17 z M 8.5859375 17 C 9.3449375 20.039 10.722 22 12 22 C 13.278 22 14.655063 20.039 15.414062 17 L 8.5859375 17 z M 17.488281 17 C 17.131281 18.64 16.598594 20.062406 15.933594 21.191406 C 17.919594 20.338406 19.569484 18.855 20.646484 17 L 17.488281 17 z"/>
</svg>
