<?xml version="1.0"?>
<svg xmlns="http://www.w3.org/2000/svg" viewBox="0 0 24 24">
    <path d="M 17 3 C 14.239 3 12 5.239 12 8 C 12 10.761 14.239 13 17 13 C 19.761 13 22 10.761 22 8 C 22 5.239 19.761 3 17 3 z M 17.677734 5.3046875 L 17.953125 5.3046875 L 17.953125 10.685547 L 17.951172 10.685547 L 16.482422 10.685547 L 16.482422 6.9316406 L 15.179688 7.4355469 L 15.179688 6.3242188 L 17.677734 5.3046875 z M 6.2441406 10.865234 L 1 12.107422 L 1 19.308594 L 5 18 L 14.179688 21.212891 L 22.462891 16.783203 L 21.285156 14.267578 L 14.083984 17.570312 L 13.712891 17.082031 L 14.855469 14.578125 L 6.2441406 10.865234 z"/>
</svg>
