<?xml version="1.0"?>
<svg xmlns="http://www.w3.org/2000/svg" viewBox="0 0 24 24">
    <path style="line-height:normal;text-indent:0;text-align:start;text-decoration-line:none;text-decoration-style:solid;text-decoration-color:#000;text-transform:none;block-progression:tb;isolation:auto;mix-blend-mode:normal" d="M 4 2 L 4 9 L 2 9 L 2 18 L 4 18 L 4 22 L 20 22 L 20 7 L 15 2 L 4 2 z M 6 4 L 14 4 L 14 8 L 18 8 L 18 20 L 6 20 L 6 18 L 16 18 L 16 9 L 6 9 L 6 4 z M 6.0351562 11 C 7.2071562 11.001 7.6732813 11.537 7.8632812 12 L 6 12 C 5.118 11.987 5 12.856937 5 13.085938 L 5 13.914062 C 5 14.145062 5.2067813 15.01 6.1757812 15 C 6.4587813 14.997 6.976 14.836266 7 14.822266 L 6.9785156 14 L 6 14 L 6.0214844 13 L 8 13 L 8 15.380859 C 7.94 15.436859 7.2914219 15.961047 6.1074219 15.998047 C 5.7854219 16.008047 4.132 16.038062 4 13.914062 L 4 13.091797 C 4 12.736797 3.9581563 10.998 6.0351562 11 z M 9 11 L 10 11 L 10 16 L 9 16 L 9 11 z M 11 11 L 14 11 L 14 12 L 12 12 L 12 13 L 13.599609 13 L 13.599609 14 L 12 14 L 12 16 L 11 16 L 11 11 z" font-weight="400" font-family="sans-serif" white-space="normal" overflow="visible"/>
</svg>
