<?xml version="1.0"?>
<svg xmlns="http://www.w3.org/2000/svg" viewBox="0 0 24 24">
    <path d="M 9 2 C 7.3549904 2 6 3.3549904 6 5 C 6 5.351851 6.0739423 5.6851061 6.1875 6 L 2 6 L 2 10 L 3 10 L 3 21 L 11 21 L 11 10 L 13 10 L 13 21 L 21 21 L 21 10 L 22 10 L 22 6 L 17.8125 6 C 17.926058 5.6851061 18 5.351851 18 5 C 18 3.3549904 16.64501 2 15 2 C 14.231397 2 13.533349 2.3041301 13 2.7871094 L 13 2.765625 L 12.882812 2.8828125 L 12 3.765625 L 11.117188 2.8828125 L 11 2.765625 L 11 2.7871094 C 10.466651 2.3041301 9.7686025 2 9 2 z M 9 4 C 9.5641294 4 10 4.4358706 10 5 C 10 5.5641294 9.5641294 6 9 6 C 8.4358706 6 8 5.5641294 8 5 C 8 4.4358706 8.4358706 4 9 4 z M 15 4 C 15.564129 4 16 4.4358706 16 5 C 16 5.5641294 15.564129 6 15 6 C 14.435871 6 14 5.5641294 14 5 C 14 4.4358706 14.435871 4 15 4 z"/>
</svg>
