<?xml version="1.0"?>
<svg xmlns="http://www.w3.org/2000/svg" viewBox="0 0 24 24">
    <path style="line-height:normal;text-indent:0;text-align:start;text-decoration-line:none;text-decoration-style:solid;text-decoration-color:#000;text-transform:none;block-progression:tb;isolation:auto;mix-blend-mode:normal" d="M 4 2 L 4 9 L 2 9 L 2 18 L 4 18 L 4 22 L 20 22 L 20 7 L 15 2 L 4 2 z M 6 4 L 14 4 L 14 8 L 18 8 L 18 20 L 6 20 L 6 18 L 17 18 L 17 9 L 6 9 L 6 4 z M 6.0351562 11 C 7.2901562 10.982 7.7334844 11.529 7.8964844 12 L 6.0703125 12 C 5.1683125 12.027 5 12.856937 5 13.085938 L 5 13.914062 C 5 14.146062 5.2417812 15.009 6.1757812 15 C 6.4737813 14.997 6.976 14.836266 7 14.822266 L 7 14 L 6 14 L 6 13 L 8 13 L 8 15.380859 C 7.94 15.436859 7.5494219 15.976047 6.1074219 15.998047 C 4.1994219 16.027047 4 14.267063 4 13.914062 L 4 13.091797 C 4 12.736797 4.0591563 11.029 6.0351562 11 z M 9 11 L 10 11 L 10 16 L 9 16 L 9 11 z M 12.644531 11 C 14.067531 11.041 14.154297 12.282906 14.154297 12.503906 L 13.1875 12.503906 C 13.1875 12.400906 13.204906 11.806641 12.628906 11.806641 C 12.453906 11.806641 12.059844 11.884188 12.089844 12.367188 C 12.118844 12.810188 12.703547 13.019406 12.810547 13.066406 C 13.034547 13.148406 14.141391 13.642391 14.150391 14.650391 C 14.152391 14.864391 14.097062 15.985 12.664062 16 C 11.105063 16.017 11 14.675438 11 14.398438 L 11.974609 14.398438 C 11.974609 14.545438 11.987062 15.256172 12.664062 15.201172 C 13.071063 15.167172 13.159828 14.87425 13.173828 14.65625 C 13.196828 14.28925 12.846563 14.068625 12.476562 13.890625 C 11.956563 13.640625 11.134141 13.333375 11.119141 12.359375 C 11.106141 11.482375 11.750531 10.975 12.644531 11 z" font-weight="400" font-family="sans-serif" white-space="normal" overflow="visible"/>
</svg>
