<?xml version="1.0"?>
<svg xmlns="http://www.w3.org/2000/svg" viewBox="0 0 24 24">
    <path d="M 12 2 C 10.722 2 9.3449375 3.961 8.5859375 7 L 15.414062 7 C 14.655062 3.961 13.278 2 12 2 z M 8.0605469 2.8105469 C 6.0765469 3.6645469 4.4295156 5.146 3.3535156 7 L 6.5117188 7 C 6.8677187 5.362 7.3965469 3.9385469 8.0605469 2.8105469 z M 15.939453 2.8105469 C 16.602453 3.9385469 17.132281 5.362 17.488281 7 L 20.646484 7 C 19.570484 5.146 17.923453 3.6645469 15.939453 2.8105469 z M 2.4609375 9 C 2.1629375 9.948 2 10.955 2 12 C 2 13.045 2.1629375 14.052 2.4609375 15 L 6.1816406 15 C 6.0676406 14.045 6 13.046 6 12 C 6 10.954 6.0676406 9.955 6.1816406 9 L 2.4609375 9 z M 8.2011719 9 C 8.0721719 9.939 8 10.945 8 12 C 8 13.055 8.0721719 14.061 8.2011719 15 L 15.798828 15 C 15.926828 14.061 16 13.055 16 12 C 16 10.945 15.927828 9.939 15.798828 9 L 8.2011719 9 z M 17.818359 9 C 17.932359 9.955 18 10.954 18 12 C 18 13.046 17.932359 14.045 17.818359 15 L 21.539062 15 C 21.838063 14.052 22 13.045 22 12 C 22 10.955 21.838062 9.948 21.539062 9 L 17.818359 9 z M 3.3535156 17 C 4.4295156 18.854 6.0765469 20.335453 8.0605469 21.189453 C 7.3975469 20.061453 6.8677188 18.638 6.5117188 17 L 3.3535156 17 z M 8.5859375 17 C 9.3449375 20.039 10.722 22 12 22 C 13.278 22 14.655063 20.039 15.414062 17 L 8.5859375 17 z M 17.488281 17 C 17.132281 18.638 16.603453 20.061453 15.939453 21.189453 C 17.923453 20.335453 19.570484 18.854 20.646484 17 L 17.488281 17 z"/>
</svg>
