<?xml version="1.0"?>
<svg xmlns="http://www.w3.org/2000/svg" viewBox="0 0 24 24">
    <path d="M 11.617188 2.0117188 C 11.348744 2.0213906 11.080875 2.0405156 10.8125 2.0722656 C 11.9525 2.7182656 13.124906 3.6837813 14.253906 4.9257812 L 16.988281 3.3457031 C 15.360781 2.4112031 13.496291 1.9440156 11.617188 2.0117188 z M 8.0136719 3.1640625 C 7.6203281 3.1240469 7.2765 3.1800937 7 3.3398438 C 5.894 3.9788437 5.6809688 6.3659531 6.5429688 9.3769531 L 12.455078 5.9628906 C 10.823078 4.2738906 9.1937031 3.2841094 8.0136719 3.1640625 z M 18.761719 4.6328125 L 15.539062 6.4921875 C 16.115063 7.2621875 16.672312 8.094 17.195312 9 C 17.718312 9.906 18.161063 10.805453 18.539062 11.689453 L 21.761719 9.828125 C 21.546719 8.858125 21.183156 7.905 20.660156 7 C 20.137156 6.095 19.493719 5.3048125 18.761719 4.6328125 z M 3.9960938 6.0078125 C 2.7030938 7.7398125 2.0177187 9.8471875 2.0117188 11.992188 L 4.7460938 10.414062 C 4.2350937 8.8160625 3.9850938 7.3178125 3.9960938 6.0078125 z M 13.789062 7.5039062 L 7.2109375 11.300781 C 7.5699375 12.178781 8.0071563 13.086 8.5351562 14 C 9.0631563 14.914 9.6289375 15.747094 10.210938 16.496094 L 16.789062 12.699219 C 16.431062 11.821219 15.991844 10.914 15.464844 10 C 14.937844 9.086 14.371063 8.2529063 13.789062 7.5039062 z M 21.988281 12.005859 L 19.253906 13.585938 C 19.764906 15.183938 20.014906 16.682188 20.003906 17.992188 C 21.296906 16.260188 21.983281 14.150859 21.988281 12.005859 z M 5.4609375 12.310547 L 2.2382812 14.171875 C 2.4532813 15.141875 2.8168438 16.095 3.3398438 17 C 3.8628437 17.905 4.5062813 18.695187 5.2382812 19.367188 L 8.4609375 17.507812 C 7.8849375 16.737813 7.3276875 15.906 6.8046875 15 C 6.2816875 14.094 5.8389375 13.194547 5.4609375 12.310547 z M 17.457031 14.623047 L 11.544922 18.037109 C 13.721922 20.289109 15.894953 21.299156 17.001953 20.660156 C 18.108953 20.021156 18.319031 17.634047 17.457031 14.623047 z M 9.7460938 19.074219 L 7.0117188 20.654297 C 8.8717187 21.722297 11.0405 22.181734 13.1875 21.927734 C 12.0475 21.281734 10.875094 20.316219 9.7460938 19.074219 z"/>
</svg>
