<?xml version="1.0"?>
<svg xmlns="http://www.w3.org/2000/svg" viewBox="0 0 24 24">
    <path d="M15.07,9.96c-0.92,0-1.46,0.88-1.46,2.06c0,1.19,0.56,2.02,1.47,2.02c0.93,0,1.46-0.88,1.46-2.06 C16.54,10.89,16.02,9.96,15.07,9.96z M15.07,9.96c-0.92,0-1.46,0.88-1.46,2.06c0,1.19,0.56,2.02,1.47,2.02 c0.93,0,1.46-0.88,1.46-2.06C16.54,10.89,16.02,9.96,15.07,9.96z M12,2C6.5,2,2,6.5,2,12s4.5,10,10,10s10-4.5,10-10S17.5,2,12,2z M11.37,14.75c-0.43,0.15-1.23,0.35-2.03,0.35c-1.11,0-1.91-0.28-2.46-0.82c-0.56-0.52-0.87-1.32-0.86-2.21 C6.03,10.06,7.5,8.9,9.49,8.9c0.78,0,1.38,0.16,1.68,0.3l-0.29,1.1c-0.33-0.15-0.75-0.26-1.41-0.26c-1.15,0-2.01,0.65-2.01,1.96 c0,1.25,0.78,1.99,1.91,1.99c0.31,0,0.57-0.04,0.67-0.09v-1.27H9.11v-1.07h2.26V14.75z M15.01,15.13c-1.8,0-2.85-1.36-2.85-3.08 c0-1.82,1.16-3.18,2.95-3.18c1.86,0,2.88,1.39,2.88,3.07C17.99,13.93,16.78,15.13,15.01,15.13z M15.07,9.96 c-0.92,0-1.46,0.88-1.46,2.06c0,1.19,0.56,2.02,1.47,2.02c0.93,0,1.46-0.88,1.46-2.06C16.54,10.89,16.02,9.96,15.07,9.96z"/>
</svg>
