<?xml version="1.0"?>
<svg xmlns="http://www.w3.org/2000/svg" viewBox="0 0 24 24">
    <path style="line-height:normal;text-indent:0;text-align:start;text-decoration-line:none;text-decoration-style:solid;text-decoration-color:#000;text-transform:none;block-progression:tb;isolation:auto;mix-blend-mode:normal" d="M 14.400391 2.6992188 L 10.400391 5.6992188 L 11.599609 7.3007812 L 12.642578 6.5195312 L 13.449219 8.140625 L 11.589844 10 L 9.5703125 10 L 6.859375 5.4902344 L 5.140625 6.5097656 L 6.0292969 8 L 6 8 C 2.686 8 0 10.686 0 14 L 0 17 L 2.1425781 17 C 2.5899132 18.720168 4.141562 20 6 20 C 7.858438 20 9.4100868 18.720168 9.8574219 17 L 14.142578 17 C 14.589913 18.720168 16.141562 20 18 20 C 19.858438 20 21.410087 18.720168 21.857422 17 L 24 17 L 24 15.390625 C 24 12.350625 21.940469 9.7009375 18.980469 8.9609375 L 15.689453 8.140625 L 14.265625 5.3007812 L 15.599609 4.3007812 L 14.400391 2.6992188 z M 6 14 C 7.103 14 8 14.897 8 16 C 8 17.103 7.103 18 6 18 C 4.897 18 4 17.103 4 16 C 4 14.897 4.897 14 6 14 z M 18 14 C 19.103 14 20 14.897 20 16 C 20 17.103 19.103 18 18 18 C 16.897 18 16 17.103 16 16 C 16 14.897 16.897 14 18 14 z" font-weight="400" font-family="sans-serif" white-space="normal" overflow="visible"/>
</svg>
