<?xml version="1.0"?>
<svg xmlns="http://www.w3.org/2000/svg" viewBox="0 0 24 24">
    <path d="M 12 2 C 6.477 2 2 6.477 2 12 C 2 17.523 6.477 22 12 22 C 17.523 22 22 17.523 22 12 C 22 10.313 21.577844 8.7240781 20.839844 7.3300781 L 19.34375 8.828125 C 19.76475 9.801125 20 10.872 20 12 C 20 16.418 16.418 20 12 20 C 7.582 20 4 16.418 4 12 C 4 7.582 7.582 4 12 4 C 13.848105 4 15.543163 4.6354358 16.896484 5.6894531 L 15.46875 7.1171875 C 14.489493 6.4175694 13.296093 6 12 6 C 8.686 6 6 8.686 6 12 C 6 15.314 8.686 18 12 18 C 15.314 18 18 15.314 18 12 C 18 11.443 17.917391 10.905531 17.775391 10.394531 L 15.980469 12.189453 C 15.878469 14.308453 14.144 16 12 16 C 9.791 16 8 14.209 8 12 C 8 9.791 9.791 8 12 8 C 12.742152 8 13.432775 8.2065691 14.025391 8.5605469 L 12.515625 10.070312 A 2 2 0 0 0 12 10 A 2 2 0 0 0 10 12 A 2 2 0 0 0 12 14 A 2 2 0 0 0 14 12 A 2 2 0 0 0 13.931641 11.482422 L 22 3.4140625 L 20.585938 2 L 18.322266 4.2636719 C 16.598132 2.8532535 14.400851 2 12 2 z"/>
</svg>
