<?xml version="1.0"?>
<svg xmlns="http://www.w3.org/2000/svg" viewBox="0 0 24 24">
    <path style="line-height:normal;text-indent:0;text-align:start;text-decoration-line:none;text-decoration-style:solid;text-decoration-color:#000;text-transform:none;block-progression:tb;isolation:auto;mix-blend-mode:normal" d="M 2 3 L 2 5 L 3 5 L 3 10.3125 C 1.257109 11.003508 8.8667927e-17 12.809721 0 14.939453 L 0 19 L 2.0507812 19 C 2.2981765 20.685411 3.7500665 22 5.5 22 C 7.2499335 22 8.7018235 20.685411 8.9492188 19 L 14.050781 19 C 14.298177 20.685411 15.750067 22 17.5 22 C 19.249933 22 20.701823 20.685411 20.949219 19 L 23 19 L 23 15.490234 C 23 12.410234 20.8 10 18 10 L 17.867188 10 L 17.152344 5 L 19 5 L 19 3 L 2 3 z M 5 5 L 15.132812 5 L 15.847656 10 L 14.460938 10 L 14.441406 10.027344 L 12.914062 8.5 L 13.707031 7.7070312 L 12.292969 6.2929688 L 9.2929688 9.2929688 L 10.707031 10.707031 L 11.5 9.9140625 L 13.310547 11.724609 L 12.460938 13 L 10 13 L 10 12.349609 L 5 10.111328 L 5 5 z M 5.5 17 C 6.3402718 17 7 17.659728 7 18.5 C 7 19.340272 6.3402718 20 5.5 20 C 4.6597282 20 4 19.340272 4 18.5 C 4 17.659728 4.6597282 17 5.5 17 z M 17.5 17 C 18.340272 17 19 17.659728 19 18.5 C 19 19.340272 18.340272 20 17.5 20 C 16.659728 20 16 19.340272 16 18.5 C 16 17.659728 16.659728 17 17.5 17 z"/>
</svg>
