<?xml version="1.0"?>
<svg xmlns="http://www.w3.org/2000/svg" viewBox="0 0 24 24">
    <path d="M 15.535156 3 C 15.535156 3 15.864969 4.480875 16.167969 6.421875 C 17.508969 8.548875 19.682625 12.573891 20.640625 17.587891 C 20.840625 16.193891 21 14.358734 21 12.052734 C 21 7.2937344 19.841797 3 19.841797 3 L 15.535156 3 z M 8.9453125 6 C 8.8753125 6.657 8.6852187 7.6266094 8.1992188 8.8496094 C 8.4322188 9.1756094 9.7707187 11.194203 11.011719 15.908203 C 11.299719 15.026203 12.100375 13.193 12.359375 12.25 C 13.512375 14.943 14.570656 18.126953 14.722656 21.001953 L 19.066406 21.001953 C 18.512406 12.518953 13.462891 6 13.462891 6 L 8.9453125 6 z M 2 10 C 2 10 4.0598906 13.435 4.9628906 18 L 9.4667969 18 C 8.1457969 12.159 6.5625 10 6.5625 10 L 2 10 z"/>
</svg>
