<?xml version="1.0"?>
<svg xmlns="http://www.w3.org/2000/svg" viewBox="0 0 24 24">
    <path d="M 0.5 0 C 0.493 0.016 0.50920312 0.02615625 0.53320312 0.03515625 L 0.5 0 z M 5.4160156 2.328125 L 13.296875 10.535156 L 15.626953 8.109375 C 11.611953 5.838375 6.3020156 2.834125 5.4160156 2.328125 z M 3 2.625 L 3 21.332031 L 11.910156 11.978516 L 3 2.625 z M 17.423828 9.1269531 L 14.683594 11.978516 L 17.402344 14.810547 C 18.148344 14.388547 20.345875 13.182516 22.546875 11.978516 C 20.341875 10.755516 18.145828 9.5359531 17.423828 9.1269531 z M 13.296875 13.423828 L 5.4746094 21.566406 C 6.8216094 20.800406 11.797469 17.982172 15.605469 15.826172 L 13.296875 13.423828 z M 0.484375 23.972656 C 0.465375 23.979656 0.45303125 23.988 0.45703125 24 L 0.484375 23.972656 z"/>
</svg>
