<?xml version="1.0"?>
<svg xmlns="http://www.w3.org/2000/svg" viewBox="0 0 24 24">
    <path d="M 20.292969 2.2929688 L 18.292969 4.2929688 L 19.707031 5.7070312 L 21.707031 3.7070312 L 20.292969 2.2929688 z M 6.6757812 3.8632812 L 5.7890625 4.75 C 2.0770625 8.461 2.0770625 14.501891 5.7890625 18.212891 C 7.6450625 20.068891 10.081531 20.996094 12.519531 20.996094 C 14.956531 20.996094 17.396906 20.066891 19.253906 18.212891 L 20.154297 17.3125 L 19.064453 16.650391 C 17.218886 15.532418 15.488752 14.229788 13.873047 12.763672 C 14.055592 12.699769 14.237153 12.590972 14.414062 12.414062 C 15.195062 11.633063 15.195063 10.366938 14.414062 9.5859375 C 13.633063 8.8049375 12.366938 8.8049375 11.585938 9.5859375 C 11.412371 9.7595037 11.306803 9.9381667 11.242188 10.117188 C 9.8296583 8.5353576 8.5260601 6.8034247 7.3417969 4.9238281 L 6.6757812 3.8632812 z M 17.292969 5.2929688 L 15.292969 7.2929688 L 16.707031 8.7070312 L 18.707031 6.7070312 L 17.292969 5.2929688 z"/>
</svg>
