<?xml version="1.0"?>
<svg xmlns="http://www.w3.org/2000/svg" viewBox="0 0 24 24">
    <path d="M 16.431641 3.0175781 L 15.017578 4.4316406 L 16.585938 6 L 15.017578 7.5683594 L 16.431641 8.9824219 L 18 7.4140625 L 19.568359 8.9824219 L 20.982422 7.5683594 L 19.414062 6 L 20.982422 4.4316406 L 19.568359 3.0175781 L 18 4.5859375 L 16.431641 3.0175781 z M 6.6308594 3.9082031 L 5.7890625 4.7480469 C 3.9900625 6.5450469 3 8.9374688 3 11.480469 C 3 14.023469 3.9900625 16.413937 5.7890625 18.210938 C 7.6450625 20.066937 10.081531 20.994141 12.519531 20.994141 C 14.957531 20.994141 17.395953 20.067891 19.251953 18.212891 L 20.089844 17.373047 L 19.123047 16.689453 C 17.35893 15.439918 15.691255 14.089686 14.125 12.646484 C 14.221972 12.58532 14.318941 12.509184 14.414062 12.414062 C 15.195062 11.633063 15.195063 10.366938 14.414062 9.5859375 C 13.633063 8.8049375 12.366938 8.8049375 11.585938 9.5859375 C 11.490816 9.6810594 11.41468 9.7780282 11.353516 9.875 C 9.897521 8.2996412 8.5475958 6.6348421 7.3144531 4.8808594 L 6.6308594 3.9082031 z"/>
</svg>
