<?xml version="1.0"?>
<svg xmlns="http://www.w3.org/2000/svg" viewBox="0 0 24 24">
    <path d="M 14 2 L 14 4 C 17.325562 4 20 6.674438 20 10 L 22 10 C 22 5.593562 18.406438 2 14 2 z M 6.6699219 3.8671875 L 5.7890625 4.7480469 C 3.9900625 6.5450469 3 8.9374688 3 11.480469 C 3 14.023469 3.9900625 16.413937 5.7890625 18.210938 C 7.6450625 20.066937 10.081531 20.994141 12.519531 20.994141 C 14.957531 20.994141 17.396953 20.066938 19.251953 18.210938 L 20.154297 17.308594 L 19.060547 16.648438 C 17.228423 15.54228 15.502848 14.237622 13.880859 12.759766 C 14.060686 12.695307 14.239732 12.588393 14.414062 12.414062 C 15.195062 11.633063 15.195063 10.366938 14.414062 9.5859375 C 13.633063 8.8049375 12.366938 8.8049375 11.585938 9.5859375 C 11.416001 9.7558738 11.311406 9.9302724 11.246094 10.105469 C 9.8433348 8.5312705 8.5393263 6.7996571 7.3398438 4.9179688 L 6.6699219 3.8671875 z M 14 6 L 14 8 C 15.116666 8 16 8.8833339 16 10 L 18 10 C 18 7.8026661 16.197334 6 14 6 z"/>
</svg>
