<?xml version="1.0"?>
<svg xmlns="http://www.w3.org/2000/svg" viewBox="0 0 24 24">
    <path d="M 4 2 L 4 9 L 2 9 L 2 18 L 4 18 L 4 22 L 20 22 L 20 16 L 20 11 L 20 7 L 15 2 L 4 2 z M 6 4 L 14 4 L 14 8 L 18 8 L 18 9 L 6 9 L 6 4 z M 6.0351562 11 C 7.2901562 10.982 7.7334844 11.529 7.8964844 12 L 6.609375 12 L 6.0703125 12 C 5.1683125 12.027 5 12.856937 5 13.085938 L 5 13.914062 C 5 14.146062 5.2417812 15.009 6.1757812 15 C 6.4737813 14.997 6.976 14.836266 7 14.822266 L 7 14 L 6 14 L 6 13 L 8 13 L 8 15.380859 C 7.94 15.436859 7.5494219 15.976047 6.1074219 15.998047 C 4.1994219 16.027047 4 14.267063 4 13.914062 L 4 13.091797 C 4 12.736797 4.0591563 11.029 6.0351562 11 z M 9 11 L 10.5 11 C 11.328 11 12 11.672 12 12.5 C 12 13.328 11.328 14 10.5 14 L 10 14 L 10 16 L 9 16 L 9 11 z M 12.451172 11 L 13.699219 11 L 14.425781 12.716797 L 15.150391 11 L 16.396484 11 L 15.130859 13.478516 L 16.427734 16 L 15.166016 16 L 14.425781 14.251953 L 13.689453 16 L 12.427734 16 L 13.722656 13.478516 L 12.451172 11 z M 10 12 L 10 13 L 10.5 13 C 10.776 13 11 12.776 11 12.5 C 11 12.224 10.776 12 10.5 12 L 10 12 z M 6 18 L 18 18 L 18 20 L 6 20 L 6 18 z"/>
</svg>
