<?xml version="1.0"?>
<svg xmlns="http://www.w3.org/2000/svg" viewBox="0 0 24 24">
    <path d="M 2 5 C 1.55 5.901 1.1025781 8.07825 1.0175781 9.90625 C 1.0065781 10.10425 1 10.302 1 10.5 C 1 10.851 1.0187344 11.201828 1.0527344 11.548828 C 1.1647344 13.157828 1.507 14.777 2 16 L 4 16 L 9 16 C 8.4 14.51 8 12.43 8 10.5 C 8 8.58 8.5 6 9 5 L 6 5 L 4 5 L 2 5 z M 11 5 C 10.5 6 10 8.58 10 10.5 C 10 12.43 10.4 14.51 11 16 L 11 23 L 13 23 L 13 17.414062 L 16.292969 20.707031 L 17.707031 19.292969 L 14.414062 16 L 22 16 C 22.49 14.78 22.839219 13.160781 22.949219 11.550781 C 22.979219 11.200781 23 10.85 23 10.5 C 23 10.3 22.990469 10.100156 22.980469 9.9101562 C 22.900469 8.0801562 22.45 5.9 22 5 L 11 5 z M 19.5 7 C 19.62 7 19.760391 7.0599219 19.900391 7.1699219 C 20.430391 7.6099219 21 8.83 21 10.5 C 21 12.5 20.179844 13.870469 19.589844 13.980469 C 19.559844 14.000469 19.53 14 19.5 14 C 18.9 14 18 12.6 18 10.5 C 18 8.4 18.9 7 19.5 7 z"/>
</svg>
