<?xml version="1.0"?>
<svg xmlns="http://www.w3.org/2000/svg" viewBox="0 0 24 24">
    <path d="M 4 2 L 4 22 L 11.101562 22 C 10.998563 21.496 10.998 20.661 11 20 L 11 19 L 16 19 L 16 21 L 13 21 C 13 22.654 14.346 24 16 24 L 21 24 C 22.64497 24 24 22.64497 24 21 L 24 15 L 20 15 L 20 8 L 14 2 L 4 2 z M 13 3.5 L 18.5 9 L 13 9 L 13 3.5 z M 14.292969 11.292969 L 15.707031 12.707031 L 11 17.414062 L 9 15.414062 L 7.7070312 16.707031 L 6.2929688 15.292969 L 9 12.585938 L 11 14.585938 L 14.292969 11.292969 z M 18 17 L 22 17 L 22 21 C 22 21.56503 21.56503 22 21 22 C 20.449 22 20 21.552 20 21 L 18 21 L 18 17 z"/>
</svg>
