<?xml version="1.0"?>
<svg xmlns="http://www.w3.org/2000/svg" viewBox="0 0 24 24">
    <path style="line-height:normal;text-indent:0;text-align:start;text-decoration-line:none;text-decoration-style:solid;text-decoration-color:#000;text-transform:none;block-progression:tb;isolation:auto;mix-blend-mode:normal" d="M 1 3 L 1 4 L 1 5 L 1 10 L 1 14 L 1 19 L 1 21 L 3 21 L 10 21 L 14 21 L 21 21 L 23 21 L 23 19 L 23 14 L 23 10 L 23 5 L 23 3 L 21 3 L 14 3 L 10 3 L 3 3 L 1 3 z M 3 5 L 5 5 L 9 8 L 9 9 L 6.9980469 9 L 3 6 L 3 5 z M 11 5 L 13 5 L 13 11 L 21 11 L 21 13 L 13 13 L 13 19 L 11 19 L 11 13 L 3 13 L 3 11 L 11 11 L 11 5 z M 19 5 L 21 5 L 21 6 L 17.001953 9 L 15 9 L 15 8 L 19 5 z M 6.9980469 15 L 9 15 L 9 16 L 5 19 L 3 19 L 3 18 L 6.9980469 15 z M 15 15 L 17.001953 15 L 21 18 L 21 19 L 19 19 L 15 16 L 15 15 z" font-weight="400" font-family="sans-serif" white-space="normal" overflow="visible"/>
</svg>
