<?xml version="1.0"?>
<svg xmlns="http://www.w3.org/2000/svg" viewBox="0 0 24 24">
    <path d="M 11.859375 2 C 7.679375 2.07 4.1597656 5.5309375 4.0097656 9.7109375 C 3.8997656 12.680937 5.45 15.449922 8 16.919922 L 8 21 L 10 21 L 11 22 L 13 22 L 14 21 L 16 21 L 16 16.919922 C 18.45 15.499922 20 12.85 20 10 C 20 7.84 19.149375 5.8107813 17.609375 4.3007812 C 16.069375 2.7807812 14.029375 1.94 11.859375 2 z M 9.9902344 7 C 15.040234 8 15.680234 11.360312 14.490234 12.820312 C 14.300234 13.000312 14.209297 13.179531 14.029297 13.269531 C 14.029297 13.269531 13.480781 11.000625 11.550781 9.640625 C 12.370781 10.910625 13.749688 13.64 12.929688 16 L 11.640625 15.550781 C 11.820625 15.000781 12.099766 14.450313 12.009766 13.820312 C 11.269766 14.360312 9.6201562 13.999219 9.1601562 12.449219 C 8.5201562 10.269219 9.9902344 7 9.9902344 7 z"/>
</svg>
