<?xml version="1.0"?>
<svg xmlns="http://www.w3.org/2000/svg" viewBox="0 0 24 24">
    <path d="M 12 2.0507812 C 12 2.0507812 8.636 5.669 8 8 L 3 8 L 3 9 C 3 11.620197 4.4300827 13.942199 6.6269531 15.402344 L 4.1191406 21.265625 L 6 21.949219 L 8.4160156 16.333984 C 9.2236444 16.647082 10.09057 16.857482 11 16.947266 L 11 22 L 13 22 L 13 16.947266 C 13.91313 16.857117 14.783337 16.645286 15.59375 16.330078 L 18.119141 21.986328 L 20 21.302734 L 17.382812 15.396484 C 19.574305 13.935942 21 11.61643 21 9 L 21 8 L 16 8 C 15.364 5.669 12 2.0507812 12 2.0507812 z M 12 6 C 12 6 13.082922 7.216 13.294922 8 L 10.705078 8 C 10.917078 7.216 12 6 12 6 z"/>
</svg>
