<?xml version="1.0"?>
<svg xmlns="http://www.w3.org/2000/svg" viewBox="0 0 24 24">
    <path style="line-height:normal;text-indent:0;text-align:start;text-decoration-line:none;text-decoration-style:solid;text-decoration-color:#000;text-transform:none;block-progression:tb;isolation:auto;mix-blend-mode:normal" d="M 4 2 C 2.346 2 1 3.346 1 5 L 1 14 C 1 15.654 2.346 17 4 17 L 5 17 L 5 18 L 5 19 L 5.4160156 19 C 5.8594195 20.106694 6.7433779 21 8 21 L 23 21 L 23 7 L 21 7 L 21 19 L 8 19 C 7.4349698 19 7 18.56503 7 18 L 7 17 L 19 17 L 19 4 L 7 4 L 7 2 L 4 2 z M 4 4 L 5 4 L 5 12 L 4 12 C 3.649 12 3.312 12.061875 3 12.171875 L 3 5 C 3 4.449 3.448 4 4 4 z M 12 7 L 16 7 L 16 11 L 14.707031 9.7070312 L 11 13.414062 L 8.2929688 10.707031 L 9.7070312 9.2929688 L 11 10.585938 L 13.292969 8.2929688 L 12 7 z" font-weight="400" font-family="sans-serif" white-space="normal" overflow="visible"/>
</svg>
