<?xml version="1.0"?>
<svg xmlns="http://www.w3.org/2000/svg" viewBox="0 0 24 24">
    <path d="M 9 3 A 2 2 0 0 0 7 5 A 2 2 0 0 0 9 7 A 2 2 0 0 0 11 5 A 2 2 0 0 0 9 3 z M 15 3 A 2 2 0 0 0 13 5 A 2 2 0 0 0 15 7 A 2 2 0 0 0 17 5 A 2 2 0 0 0 15 3 z M 5 8 A 2 2 0 0 0 3 10 A 2 2 0 0 0 5 12 A 2 2 0 0 0 7 10 A 2 2 0 0 0 5 8 z M 19 8 A 2 2 0 0 0 17 10 A 2 2 0 0 0 19 12 A 2 2 0 0 0 21 10 A 2 2 0 0 0 19 8 z M 12 13 A 2 2 0 0 0 10 15 A 2 2 0 0 0 12 17 A 2 2 0 0 0 14 15 A 2 2 0 0 0 12 13 z M 5 13.25 C 3.665 13.25 2 13.970781 2 15.300781 L 2 16 L 8 16 L 8 15.300781 C 8 13.970781 6.335 13.25 5 13.25 z M 19 13.25 C 17.665 13.25 16 13.970781 16 15.300781 L 16 16 L 22 16 L 22 15.300781 C 22 13.970781 20.335 13.25 19 13.25 z M 12 18 C 10.665 18 8 18.67 8 20 L 8 21 L 16 21 L 16 20 C 16 18.67 13.335 18 12 18 z"/>
</svg>
