<?xml version="1.0"?>
<svg xmlns="http://www.w3.org/2000/svg" viewBox="0 0 24 24">
    <path d="M 3 3 L 3 22 L 7 22 L 7.3300781 21 L 8 21 L 8 14.429688 L 8.5429688 13.072266 L 9.3691406 11 L 9.359375 11 L 5 11 L 5 5 L 10 5 L 10 9.390625 L 10.449219 8.2597656 L 10.949219 7 L 12 7 L 12 5 L 17 5 L 17 7 L 19 7 L 19 3 L 3 3 z M 12.308594 9 L 10 14.804688 L 10 22 L 14 22 L 14.330078 21 L 18.669922 21 L 19 22 L 23 22 L 23 14.804688 L 20.685547 9 L 12.308594 9 z M 13.679688 11 L 19.320312 11 L 20.519531 14 L 12.480469 14 L 13.679688 11 z M 14 16 C 14.55 16 15 16.45 15 17 C 15 17.55 14.55 18 14 18 C 13.45 18 13 17.55 13 17 C 13 16.45 13.45 16 14 16 z M 19 16 C 19.55 16 20 16.45 20 17 C 20 17.55 19.55 18 19 18 C 18.45 18 18 17.55 18 17 C 18 16.45 18.45 16 19 16 z"/>
</svg>
