<?xml version="1.0"?>
<svg xmlns="http://www.w3.org/2000/svg" viewBox="0 0 24 24">
    <path style="line-height:normal;text-indent:0;text-align:start;text-decoration-line:none;text-decoration-style:solid;text-decoration-color:#000;text-transform:none;block-progression:tb;isolation:auto;mix-blend-mode:normal" d="M 2 2 L 2 6 L 3 6 L 3 18 L 2 18 L 2 22 L 6 22 L 6 21 L 18 21 L 18 22 L 22 22 L 22 18 L 21 18 L 21 6 L 22 6 L 22 2 L 18 2 L 18 3 L 6 3 L 6 2 L 2 2 z M 6 5 L 18 5 L 18 6 L 19 6 L 19 18 L 18 18 L 18 19 L 6 19 L 6 18 L 5 18 L 5 6 L 6 6 L 6 5 z M 7 7 L 7 13 L 13 13 L 13 7 L 7 7 z M 15 11 L 15 15 L 11 15 L 11 17 L 17 17 L 17 11 L 15 11 z" font-weight="400" font-family="sans-serif" white-space="normal" overflow="visible"/>
</svg>
