<?xml version="1.0"?>
<svg xmlns="http://www.w3.org/2000/svg" viewBox="0 0 24 24">
    <path style="line-height:normal;text-indent:0;text-align:start;text-decoration-line:none;text-decoration-style:solid;text-decoration-color:#000;text-transform:none;block-progression:tb;isolation:auto;mix-blend-mode:normal" d="M 9.6542969 2.0019531 C 8.9297656 2.0441016 8.24875 2.6236719 8.28125 3.4980469 C 8.31625 4.4380469 7.4561094 5.1598906 6.5371094 4.9628906 C 5.1671094 4.6688906 4.2250625 6.3027969 5.1640625 7.3417969 C 5.7950625 8.0387969 5.6005313 9.1420313 4.7695312 9.5820312 C 3.5315313 10.237031 3.8590938 12.095109 5.2460938 12.287109 C 6.1780938 12.416109 6.7387656 13.388766 6.3847656 14.259766 C 6.2011314 14.711708 6.266104 15.147858 6.4667969 15.5 L 3.8574219 20 L 7.3574219 20 L 8.8476562 23.269531 L 11.984375 18.041016 L 15.121094 23.269531 L 16.611328 20 L 20.111328 20 L 17.519531 15.53125 C 17.734495 15.174247 17.806455 14.725047 17.617188 14.259766 C 17.263188 13.388766 17.823859 12.416109 18.755859 12.287109 C 20.141859 12.095109 20.468469 10.237031 19.230469 9.5820312 C 18.399469 9.1420313 18.204937 8.0387969 18.835938 7.3417969 C 19.774938 6.3027969 18.831891 4.6688906 17.462891 4.9628906 C 16.542891 5.1608906 15.68375 4.4380469 15.71875 3.4980469 C 15.77075 2.0990469 13.998672 1.4555469 13.138672 2.5605469 C 12.560672 3.3025469 11.438328 3.3025469 10.861328 2.5605469 C 10.538828 2.1461719 10.089016 1.9766641 9.6542969 2.0019531 z M 14.583984 6.7109375 L 15.998047 8.1230469 L 11.5 12.621094 L 8.4609375 9.5820312 L 9.8730469 8.1679688 L 11.5 9.7949219 L 14.583984 6.7109375 z M 9.1171875 15.808594 C 9.6873913 15.754783 10.252027 16.053283 10.527344 16.583984 L 9.0898438 18.980469 L 8.6425781 18 L 7.3300781 18 L 8.4726562 16.03125 C 8.4779204 16.028031 8.483027 16.026734 8.4882812 16.023438 C 8.6875312 15.898438 8.9017812 15.828922 9.1171875 15.808594 z M 14.884766 15.808594 C 15.089979 15.82796 15.29314 15.89565 15.484375 16.009766 L 16.638672 18 L 15.326172 18 L 14.878906 18.980469 L 13.458984 16.615234 C 13.727873 16.064958 14.303556 15.753744 14.884766 15.808594 z" font-weight="400" font-family="sans-serif" white-space="normal" overflow="visible"/>
</svg>
