<?xml version="1.0"?>
<svg xmlns="http://www.w3.org/2000/svg" viewBox="0 0 24 24">
    <path style="line-height:normal;text-indent:0;text-align:start;text-decoration-line:none;text-decoration-style:solid;text-decoration-color:#000;text-transform:none;block-progression:tb;isolation:auto;mix-blend-mode:normal" d="M 6 3 C 3.243 3 1 5.243 1 8 C 1 9.33 1.5174375 10.582844 2.5234375 11.589844 L 3.3066406 12.242188 L 4.21875 21 L 8.2304688 21 L 7.7070312 16 L 9 16 L 9 14 L 7.4980469 14 L 7.4414062 13.458984 C 7.3924062 12.953984 7.7276094 12.492766 8.2246094 12.384766 L 14 11.134766 L 14 4.8300781 L 13.25 4.6210938 C 10.183 3.7670937 7.321 3 6 3 z M 19 3.4707031 L 16 4.7832031 L 16 11.277344 L 19 12.476562 L 19 3.4707031 z M 21 5 L 21 7 L 23 7 L 23 5 L 21 5 z M 6 6 C 7.105 6 8 6.895 8 8 C 8 9.105 7.105 10 6 10 C 4.895 10 4 9.105 4 8 C 4 6.895 4.895 6 6 6 z M 21 9 L 21 11 L 23 11 L 23 9 L 21 9 z" font-weight="400" font-family="sans-serif" white-space="normal" overflow="visible"/>
</svg>
