<?xml version="1.0"?>
<svg xmlns="http://www.w3.org/2000/svg" viewBox="0 0 24 24">
    <path d="M 9 3 C 5.691 3 3 5.691 3 9 L 21 9 C 21 5.691 18.309 3 15 3 L 9 3 z M 4 10.546875 L 1.9960938 11.990234 L 3.1660156 13.613281 L 4 13.011719 L 6 14.453125 L 8 13.011719 L 10 14.453125 L 12 13.011719 L 14 14.453125 L 16 13.011719 L 18 14.453125 L 20 13.011719 L 20.833984 13.613281 L 22.003906 11.990234 L 20 10.546875 L 18 11.988281 L 16 10.546875 L 14 11.988281 L 12 10.546875 L 10 11.988281 L 8 10.546875 L 6 11.988281 L 4 10.546875 z M 3 16 L 3 21 L 21 21 L 21 16 L 3 16 z"/>
</svg>
