<?xml version="1.0"?>
<svg xmlns="http://www.w3.org/2000/svg" viewBox="0 0 24 24">
    <path style="line-height:normal;text-indent:0;text-align:start;text-decoration-line:none;text-decoration-style:solid;text-decoration-color:#000;text-transform:none;block-progression:tb;isolation:auto;mix-blend-mode:normal" d="M 12 1.8925781 L 7.7070312 3.9316406 A 1.0001 1.0001 0 0 0 7.4277344 4.0644531 L 7 4.2675781 L 7 4.734375 A 1.0001 1.0001 0 0 0 7 5.0429688 L 7 9.5039062 L 12 12.128906 L 17 9.5039062 L 17 5.0292969 A 1.0001 1.0001 0 0 0 17 4.7617188 L 17 4.2675781 L 16.554688 4.0566406 A 1.0001 1.0001 0 0 0 16.316406 3.9433594 L 12 1.8925781 z M 12 4.1074219 L 13.806641 4.9648438 L 12 5.9589844 L 10.193359 4.9648438 L 12 4.1074219 z M 2 6 L 2 14.339844 L 6 18.314453 L 6 21 L 11 21 L 11 15.935547 L 5.5859375 10.345703 C 4.8049375 11.127703 4.8049375 12.393781 5.5859375 13.175781 L 7.3632812 15.021484 C 7.5582813 15.216484 7.5582813 15.533516 7.3632812 15.728516 C 7.1682812 15.923516 6.85125 15.923516 6.65625 15.728516 L 3.9960938 13.015625 C 3.9960937 13.009625 4 13.006 4 13 L 4 6 L 2 6 z M 20 6 L 20 13 C 20 13.006 20.003906 13.009625 20.003906 13.015625 L 17.34375 15.728516 C 17.14875 15.923516 16.831719 15.923516 16.636719 15.728516 C 16.441719 15.533516 16.441719 15.216484 16.636719 15.021484 L 18.414062 13.175781 C 19.195062 12.394781 19.195062 11.128656 18.414062 10.347656 L 13.001953 15.914062 L 13 21 L 18 21 L 18 18.314453 L 22 14.359375 L 22 6 L 20 6 z M 9 6.5917969 L 12 8.2421875 L 15 6.5917969 L 15 8.2949219 L 12 9.8710938 L 9 8.2949219 L 9 6.5917969 z" font-weight="400" font-family="sans-serif" white-space="normal" overflow="visible"/>
</svg>
