<?xml version="1.0"?>
<svg xmlns="http://www.w3.org/2000/svg" viewBox="0 0 24 24">
    <path style="line-height:normal;text-indent:0;text-align:start;text-decoration-line:none;text-decoration-style:solid;text-decoration-color:#000;text-transform:none;block-progression:tb;isolation:auto;mix-blend-mode:normal" d="M 12.5 4 C 10.742 4 9.2957812 5.308 9.0507812 7 L 11.09375 7 C 11.30075 6.419 11.850953 6 12.501953 6 C 13.327953 6 14 6.673 14 7.5 C 14 8.327 13.327 9 12.5 9 L 12 9 L 11 9 L 11 10.947266 L 3.6738281 14.605469 C 2.6583239 15.056804 2 16.070429 2 17.181641 L 2 18.181641 L 2.4179688 18.181641 C 2.8499878 19.188171 3.6623234 20 4.8183594 20 L 19.181641 20 C 20.338022 20 21.149839 19.188171 21.582031 18.181641 L 22 18.181641 L 22 17.181641 C 22 16.070429 21.341676 15.056804 20.326172 14.605469 L 13.003906 10.949219 C 14.694095 10.702538 16 9.2575652 16 7.5 C 16 5.57 14.43 4 12.5 4 z M 11.998047 12.683594 L 19.494141 16.423828 L 19.513672 16.433594 C 19.812169 16.566225 20 16.854852 20 17.181641 C 20 17.645136 19.646674 18 19.181641 18 L 4.8183594 18 C 4.354864 18 4 17.645136 4 17.181641 C 4 16.854852 4.1878324 16.566259 4.4863281 16.433594 L 4.5058594 16.423828 L 11.998047 12.683594 z" font-weight="400" font-family="sans-serif" white-space="normal" overflow="visible"/>
</svg>
