<?xml version="1.0"?>
<svg xmlns="http://www.w3.org/2000/svg" viewBox="0 0 24 24">
    <path d="M18.705,9.004C17.839,6.056,15.149,4,12,4C9.709,4,7.561,5.138,6.258,7.004C2.785,7.132,0,9.997,0,13.5 C0,17.084,2.916,20,6.5,20h12c3.032,0,5.5-2.467,5.5-5.5C24,11.536,21.643,9.112,18.705,9.004z M14,9.75c0.69,0,1.25,0.56,1.25,1.25 c0,0.69-0.56,1.25-1.25,1.25s-1.25-0.56-1.25-1.25C12.75,10.31,13.31,9.75,14,9.75z M10,9.75c0.69,0,1.25,0.56,1.25,1.25 c0,0.69-0.56,1.25-1.25,1.25S8.75,11.69,8.75,11C8.75,10.31,9.31,9.75,10,9.75z M12,16c-2.347,0-3.575-1.161-3.707-1.293 l1.402-1.425C9.727,13.311,10.481,14,12,14s2.273-0.689,2.305-0.718l1.402,1.425C15.575,14.839,14.347,16,12,16z"/>
</svg>
