<?xml version="1.0"?>
<svg xmlns="http://www.w3.org/2000/svg" viewBox="0 0 24 24">
    <path style="line-height:normal;text-indent:0;text-align:start;text-decoration-line:none;text-decoration-style:solid;text-decoration-color:#000;text-transform:none;block-progression:tb;isolation:auto;mix-blend-mode:normal" d="M 9 3 C 7.35 3 6 4.35 6 6 L 6 8 L 4 8 L 4 13 L 2.2792969 13 L 0.9453125 17 L 2.2792969 21 L 21.720703 21 L 21.949219 20.316406 L 23.054688 17 L 21.720703 13 L 20 13 L 20 10.222656 L 21.976562 6 L 24 6 L 24 4 L 20.705078 4 L 18.832031 8 L 18 8 L 18 6 C 18 4.35 16.65 3 15 3 L 9 3 z M 9 5 L 15 5 C 15.55 5 16 5.45 16 6 L 16 8 L 8 8 L 8 6 C 8 5.45 8.45 5 9 5 z M 9 10 C 9.55 10 10 10.45 10 11 C 10 11.55 9.55 12 9 12 C 8.45 12 8 11.55 8 11 C 8 10.45 8.45 10 9 10 z M 15 10 C 15.55 10 16 10.45 16 11 C 16 11.55 15.55 12 15 12 C 14.45 12 14 11.55 14 11 C 14 10.45 14.45 10 15 10 z M 3.7207031 15 L 20.279297 15 L 20.945312 17 L 20.279297 19 L 3.7207031 19 L 3.0546875 17 L 3.7207031 15 z" font-weight="400" font-family="sans-serif" white-space="normal" overflow="visible"/>
</svg>
