<?xml version="1.0"?>
<svg xmlns="http://www.w3.org/2000/svg" viewBox="0 0 24 24">
    <path d="M 1.3125 3 L -0.013671875 5 L 1 5 L 1 12 L 3 12 L 3 3 L 1.3125 3 z M 7 3 C 5.3549372 3 4 4.3549372 4 6 L 4 9 C 4 10.645063 5.3549372 12 7 12 C 8.6450628 12 10 10.645063 10 9 L 10 6 C 10 4.3549372 8.6450628 3 7 3 z M 14 3 C 12.631133 3 11.5 4.1311328 11.5 5.5 C 11.5 6.0000276 11.653792 6.4663364 11.912109 6.859375 C 11.352135 7.4057676 11 8.1641303 11 9 C 11 10.64501 12.35499 12 14 12 C 15.64501 12 17 10.64501 17 9 C 17 8.1641303 16.647865 7.4057676 16.087891 6.859375 C 16.346208 6.4663364 16.5 6.0000276 16.5 5.5 C 16.5 4.1311328 15.368867 3 14 3 z M 21 3 C 19.354937 3 18 4.3549372 18 6 L 18 9 C 18 10.645063 19.354937 12 21 12 C 22.645063 12 24 10.645063 24 9 L 24 6 C 24 4.3549372 22.645063 3 21 3 z M 7 5 C 7.5629372 5 8 5.4370628 8 6 L 8 9 C 8 9.5629372 7.5629372 10 7 10 C 6.4370628 10 6 9.5629372 6 9 L 6 6 C 6 5.4370628 6.4370628 5 7 5 z M 14 5 C 14.287987 5 14.5 5.212013 14.5 5.5 C 14.5 5.787987 14.287987 6 14 6 C 13.712013 6 13.5 5.787987 13.5 5.5 C 13.5 5.212013 13.712013 5 14 5 z M 21 5 C 21.562937 5 22 5.4370628 22 6 L 22 9 C 22 9.5629372 21.562937 10 21 10 C 20.437063 10 20 9.5629372 20 9 L 20 6 C 20 5.4370628 20.437063 5 21 5 z M 14 8 C 14.564129 8 15 8.4358706 15 9 C 15 9.5641294 14.564129 10 14 10 C 13.435871 10 13 9.5641294 13 9 C 13 8.4358706 13.435871 8 14 8 z M 3 15 L 3 21 L 21 21 L 21 15 L 19 15 L 19 19 L 5 19 L 5 15 L 3 15 z M 7 15 L 7 17 L 9 17 L 9 15 L 7 15 z M 11 15 L 11 17 L 13 17 L 13 15 L 11 15 z M 15 15 L 15 17 L 17 17 L 17 15 L 15 15 z"/>
</svg>
