<?xml version="1.0"?>
<svg xmlns="http://www.w3.org/2000/svg" viewBox="0 0 24 24">
    <path d="M 2 4 L 2 6 L 4.7089844 6 C 4.1867504 7.1200787 3 9.8492772 3 13 L 5 13 C 5 9.8809524 6.8945314 5.9472656 6.8945312 5.9472656 L 7 5.7363281 L 7 4 L 2 4 z M 11.5 4 C 10.130937 4 9 5.1309372 9 6.5 L 9 7 L 11 7 L 11 6.5 C 11 6.2130628 11.213063 6 11.5 6 C 11.786937 6 12 6.2130628 12 6.5 C 12 6.976067 11.774169 7.4163438 11.320312 8.0214844 L 11.316406 8.0273438 L 9 11.201172 L 9 13 L 14 13 L 14 11 L 11.623047 11 L 12.919922 9.2226562 L 12.923828 9.2167969 C 13.28485 8.7348931 13.578874 8.1456561 13.777344 7.5 L 14 7.5 L 14 6.5 C 14 5.1309372 12.869063 4 11.5 4 z M 19 4 C 17.354937 4 16 5.3549372 16 7 L 16 10 C 16 11.645063 17.354937 13 19 13 C 20.645063 13 22 11.645063 22 10 L 22 7 C 22 5.3549372 20.645063 4 19 4 z M 19 6 C 19.562937 6 20 6.4370628 20 7 L 20 10 C 20 10.562937 19.562937 11 19 11 C 18.437063 11 18 10.562937 18 10 L 18 7 C 18 6.4370628 18.437063 6 19 6 z M 3 15 L 3 21 L 21 21 L 21 15 L 19 15 L 19 19 L 5 19 L 5 15 L 3 15 z M 7 15 L 7 17 L 9 17 L 9 15 L 7 15 z M 11 15 L 11 17 L 13 17 L 13 15 L 11 15 z M 15 15 L 15 17 L 17 17 L 17 15 L 15 15 z"/>
</svg>
