<?xml version="1.0"?>
<svg xmlns="http://www.w3.org/2000/svg" viewBox="0 0 24 24">
    <path d="M 4 2 L 4 4 L 4 20 L 4 22 L 20 22 L 20 20 L 20 4 L 20 2 L 4 2 z M 12 5 C 14.761 5 17 7.239 17 10 C 17 12.761 14.761 15 12 15 C 11.035142 15 10.142993 14.713821 9.3789062 14.240234 L 11 11 L 7.3808594 11.904297 C 7.1381288 11.316604 7 10.675256 7 10 C 7 7.239 9.239 5 12 5 z M 12 9 A 1 1 0 0 0 11.005859 9.9003906 A 1 1 0 0 0 11 10 A 1 1 0 0 0 11.900391 10.994141 A 1 1 0 0 0 12 11 A 1 1 0 0 0 13 10 A 1 1 0 0 0 12 9 z"/>
</svg>
