<?xml version="1.0"?>
<svg xmlns="http://www.w3.org/2000/svg" viewBox="0 0 24 24">
    <path d="M 1 3 L 1 19 L 8 19 L 8 21 L 16 21 L 16 19 L 23 19 L 23 3 L 1 3 z M 3 5 L 21 5 L 21 17 L 3 17 L 3 5 z M 5.9941406 8 L 5 14 L 6.7109375 14 L 7.1191406 11.552734 L 9.3496094 11.552734 L 8.9433594 14 L 10.636719 14 L 11.632812 8 L 9.9199219 8 L 9.59375 10.078125 L 7.3613281 10.078125 L 7.7050781 8 L 5.9941406 8 z M 13.498047 8 L 13.269531 9.390625 L 16.478516 9.390625 C 17.065516 9.390625 17.310688 9.558125 17.179688 10.328125 L 16.984375 11.587891 C 16.870375 12.224891 16.577406 12.609375 15.941406 12.609375 L 14.460938 12.609375 L 14.794922 10.470703 L 13.083984 10.470703 L 12.521484 14 L 15.990234 14 C 17.766234 14 18.467516 13.230891 18.728516 11.587891 L 18.939453 10.328125 C 19.217453 8.636125 18.532859 8 16.755859 8 L 13.498047 8 z"/>
</svg>
