<?xml version="1.0"?>
<svg xmlns="http://www.w3.org/2000/svg" viewBox="0 0 24 24">
    <path d="M 10.917969 4 C 6.9699688 4 1 7.19 1 12 C 1 16.81 6.9699688 20 10.917969 20 C 12.962969 20 14 17.309 14 12 C 14 6.691 12.962969 4 10.917969 4 z M 15.300781 6 C 15.480781 6.6 15.630469 7.27 15.730469 8 L 23 8 L 23 6 L 15.300781 6 z M 15.980469 11 C 16.000469 11.32 16 11.66 16 12 C 16 12.34 16.000469 12.68 15.980469 13 L 23 13 L 23 11 L 15.980469 11 z M 15.730469 16 C 15.630469 16.73 15.480781 17.4 15.300781 18 L 23 18 L 23 16 L 15.730469 16 z"/>
</svg>
