<?xml version="1.0"?>
<svg xmlns="http://www.w3.org/2000/svg" viewBox="0 0 24 24">
    <path d="M 6 3 C 4.356 3 2.7515938 3.5287812 2.6835938 3.5507812 L 1.1894531 4.0488281 L 2.2753906 5.1894531 C 2.8573906 5.7994531 3.1992969 6.7127031 3.5292969 7.5957031 C 4.0962969 9.1067031 4.8021406 10.988094 6.9941406 10.996094 L 7.0019531 10.996094 C 7.720404 10.996094 8.6964206 10.51395 9.3632812 9.9863281 C 10.242911 10.559153 11 11.121315 11 13 L 3 13 L 3 14.582031 C 3 19.898031 7.9533281 21.732234 9.8613281 21.990234 L 9.9296875 22 L 14.125 21.988281 C 14.982 21.988281 21 20.516031 21 14.582031 L 21 13 L 13 13 C 13 11.789345 13.888193 10.915808 14.773438 10.101562 C 15.433779 10.582632 16.330331 10.998047 16.996094 10.998047 L 17.003906 10.998047 C 19.196906 10.989047 19.90175 9.1086562 20.46875 7.5976562 C 20.79975 6.7146562 21.142609 5.8014063 21.724609 5.1914062 L 22.810547 4.0507812 L 21.316406 3.5507812 C 21.248406 3.5287812 19.643 3 18 3 C 15.515 3 13 4.374 13 7 C 13 7.6540543 13.16284 8.1612878 13.388672 8.5761719 C 12.981299 8.9312642 12.515757 9.3904472 12.09375 9.9550781 C 11.651774 9.2929959 11.130995 8.8100907 10.671875 8.4570312 C 10.864995 8.0641672 11 7.5931473 11 7 C 11 4.374 8.484 3 6 3 z"/>
</svg>
