<?xml version="1.0"?>
<svg xmlns="http://www.w3.org/2000/svg" viewBox="0 0 24 24">
    <path d="M 6 1 L 6 3 L 3 3 L 3 21 L 21 21 L 21 3 L 18 3 L 18 1 L 16 1 L 16 3 L 8 3 L 8 1 L 6 1 z M 5 8 L 19 8 L 19 19 L 5 19 L 5 8 z M 10.490234 11 C 9.5692344 11.002 8.8550312 11.527734 8.4570312 12.302734 C 8.2940312 12.619734 8.2237031 12.931375 8.2207031 13.234375 C 8.2057031 14.630375 9.6322813 15.833703 10.238281 16.345703 L 10.361328 16.449219 C 10.867328 16.890219 12.001953 17.617188 12.001953 17.617188 C 12.001953 17.617187 13.136578 16.890219 13.642578 16.449219 L 13.763672 16.345703 C 14.369672 15.833703 15.79625 14.630375 15.78125 13.234375 C 15.77825 12.931375 15.706922 12.618734 15.544922 12.302734 C 15.147922 11.527734 14.434625 11.001 13.515625 11 C 12.934625 10.999 12.263906 11.330078 12.003906 11.705078 C 11.766906 11.331078 11.071234 10.999 10.490234 11 z"/>
</svg>
