<?xml version="1.0"?>
<svg xmlns="http://www.w3.org/2000/svg" viewBox="0 0 24 24">
    <path d="M 9 2 C 6.72 2 5 3.7598437 5 6.0898438 C 5 8.9298437 7.8904687 11.609141 8.9804688 12.619141 L 9.0898438 12.720703 C 9.9318758 13.509554 10.840966 14.305771 11.083984 14.519531 C 10.87151 16.024137 11.26066 17.044066 11.566406 17.841797 L 11.576172 17.867188 L 11.587891 17.892578 C 12.033046 18.888388 12.444479 20.255112 11.181641 22.511719 L 12.927734 23.488281 C 14.480896 20.712888 14.004954 18.402362 13.412109 17.076172 L 13.433594 17.126953 C 13.051499 16.130109 12.792143 15.791467 13.166016 14.294922 C 13.55425 13.952244 14.173497 13.410836 14.910156 12.720703 L 15.019531 12.619141 C 16.109531 11.609141 19 8.9298437 19 6.0898438 C 19 3.7598437 17.28 2 15 2 C 13.72 2 12.67 2.6795313 12 3.2695312 C 11.33 2.6795312 10.28 2 9 2 z"/>
</svg>
