<?xml version="1.0"?>
<svg xmlns="http://www.w3.org/2000/svg" viewBox="0 0 24 24">
    <path d="M 8.1132812 3 L 7.0019531 5.6777344 C 7.0019531 5.6787344 7 5.6806406 7 5.6816406 L 7 8 L 5.9082031 8 C 5.7022031 7.419 5.152 7 4.5 7 C 3.672 7 3 7.672 3 8.5 C 3 9.307 3.6395 9.9601406 4.4375 9.9941406 L 4.4375 10 L 7 10 L 7 15 L 4 15 L 4 17 L 7 17 L 7 18.679688 L 8.1523438 20.998047 L 9.8496094 20.998047 L 11 18.679688 L 11 5.6835938 C 11 5.6815938 10.998047 5.6787344 10.998047 5.6777344 L 9.8867188 3 L 8.1132812 3 z M 18.113281 3 L 17.001953 5.6777344 C 17.001953 5.6787344 17 5.6806406 17 5.6816406 L 17 18.679688 L 18.152344 20.998047 L 19.849609 20.998047 L 21 18.679688 L 21 5.6796875 L 19.886719 3 L 18.113281 3 z M 13.113281 3.0019531 L 12.001953 5.6796875 C 12.000953 5.6806875 12 5.6825938 12 5.6835938 L 12 18.681641 L 13.152344 21 L 14.849609 21 L 16 18.681641 L 16 5.6816406 L 14.886719 3.0019531 L 13.113281 3.0019531 z"/>
</svg>
