<?xml version="1.0"?>
<svg xmlns="http://www.w3.org/2000/svg" viewBox="0 0 24 24">
    <path d="M12,2L1,11h3v10h16V11h3L12,2z M8,19c0-0.991-0.338-1.768-0.766-2.752C6.685,14.983,6,13.41,6,11h2 c0,1.994,0.543,3.243,1.068,4.45C9.526,16.504,10,17.593,10,19H8z M12,19c0-0.991-0.338-1.768-0.766-2.752 C10.685,14.983,10,13.41,10,11h2c0,1.994,0.543,3.243,1.068,4.45C13.526,16.504,14,17.593,14,19H12z M16,19 c0-0.991-0.338-1.768-0.766-2.752C14.685,14.983,14,13.41,14,11h2c0,1.994,0.543,3.243,1.068,4.45C17.526,16.504,18,17.593,18,19H16 z"/>
</svg>
