<?xml version="1.0"?>
<svg xmlns="http://www.w3.org/2000/svg" viewBox="0 0 24 24">
    <path d="M 6 3 L 3 7 L 5 7 C 5 8.2905791 5.6855469 9.2143125 6.1855469 9.9140625 C 6.6855469 10.613813 7 11.089595 7 11.666016 C 7 12.242437 6.6855469 12.717969 6.1855469 13.417969 C 5.6855469 14.117969 5 15.041452 5 16.332031 C 5 17.62261 5.6855469 18.548047 6.1855469 19.248047 C 6.6855469 19.948047 7 20.423579 7 21 L 9 21 C 9 19.709421 8.3144531 18.785937 7.8144531 18.085938 C 7.3144531 17.385938 7 16.908452 7 16.332031 C 7 15.75561 7.3144531 15.280078 7.8144531 14.580078 C 8.3144531 13.880078 9 12.956595 9 11.666016 C 9 10.375437 8.3144531 9.4517031 7.8144531 8.7519531 C 7.3144531 8.0522031 7 7.5764209 7 7 L 9 7 L 6 3 z M 15.064453 7 C 14.935453 7 14.8275 7.0966094 14.8125 7.2246094 L 14.695312 8.2363281 C 14.211313 8.4043281 13.773531 8.6602812 13.394531 8.9882812 L 12.457031 8.5820312 C 12.339031 8.5310312 12.202672 8.5784531 12.138672 8.6894531 L 11.201172 10.310547 C 11.137172 10.421547 11.166531 10.563625 11.269531 10.640625 L 12.076172 11.240234 C 12.028172 11.487234 12 11.74 12 12 C 12 12.26 12.028172 12.512766 12.076172 12.759766 L 11.269531 13.359375 C 11.166531 13.436375 11.136172 13.578453 11.201172 13.689453 L 12.138672 15.310547 C 12.202672 15.422547 12.339031 15.467016 12.457031 15.416016 L 13.394531 15.011719 C 13.773531 15.340719 14.211313 15.595672 14.695312 15.763672 L 14.8125 16.775391 C 14.8275 16.903391 14.935453 17 15.064453 17 L 16.935547 17 C 17.064547 17 17.1725 16.903391 17.1875 16.775391 L 17.304688 15.763672 C 17.788688 15.595672 18.226469 15.339719 18.605469 15.011719 L 19.542969 15.417969 C 19.660969 15.468969 19.797328 15.421547 19.861328 15.310547 L 20.798828 13.689453 C 20.862828 13.577453 20.833469 13.435375 20.730469 13.359375 L 19.923828 12.759766 C 19.971828 12.512766 20 12.26 20 12 C 20 11.74 19.971828 11.487234 19.923828 11.240234 L 20.730469 10.640625 C 20.833469 10.563625 20.863828 10.421547 20.798828 10.310547 L 19.861328 8.6894531 C 19.797328 8.5784531 19.660969 8.5310312 19.542969 8.5820312 L 18.605469 8.9882812 C 18.226469 8.6602813 17.788688 8.4043281 17.304688 8.2363281 L 17.1875 7.2246094 C 17.1725 7.0966094 17.064547 7 16.935547 7 L 15.064453 7 z M 16 10 C 17.104 10 18 10.895 18 12 C 18 13.104 17.104 14 16 14 C 14.896 14 14 13.104 14 12 C 14 10.895 14.896 10 16 10 z"/>
</svg>
