<?xml version="1.0"?>
<svg xmlns="http://www.w3.org/2000/svg" viewBox="0 0 24 24">
    <path style="line-height:normal;text-indent:0;text-align:start;text-decoration-line:none;text-decoration-style:solid;text-decoration-color:#000;text-transform:none;block-progression:tb;isolation:auto;mix-blend-mode:normal" d="M 2 3 L 2 5 L 9 5 L 9 3 L 2 3 z M 11 3 L 11 6.2070312 C 8.5839803 6.686176 7.0127551 7.9561855 6.359375 9 L 4 9 L 4 7 L 2 7 L 2 13 L 4 13 L 4 11 L 6 11 L 6 13.300781 C 6 15.370781 7.8795313 17 10.269531 17 L 13.810547 17 C 16.170547 17 21.570703 17 21.970703 13 L 13 13 L 13 7 L 13 3 L 11 3 z M 15 3 L 15 5 L 22 5 L 22 3 L 15 3 z M 15 6.1699219 L 15 11 L 21.740234 11 C 20.940234 8.64 18.28 6.7299219 15 6.1699219 z M 21 18 C 21 18.56503 20.56503 19 20 19 L 6 19 L 6 21 L 20 21 C 21.64497 21 23 19.64497 23 18 L 21 18 z" font-weight="400" font-family="sans-serif" white-space="normal" overflow="visible"/>
</svg>
