<?xml version="1.0"?>
<svg xmlns="http://www.w3.org/2000/svg" viewBox="0 0 24 24">
    <path d="M 9 2 L 9 11 L 4.5859375 11 L 12 18.414062 L 19.414062 11 L 15 11 L 15 2 L 9 2 z M 6.4277344 15.671875 C 4.5117344 16.195875 3 17.075 3 18.5 C 3 21.263 8.657 22 12 22 C 15.343 22 21 21.263 21 18.5 C 21 17.075 19.487313 16.194875 17.570312 15.671875 L 15.898438 17.345703 C 17.696438 17.686703 18.741656 18.200953 18.972656 18.501953 C 18.606656 18.976953 16.246 20 12 20 C 7.754 20 5.3923906 18.976 5.0253906 18.5 C 5.2563906 18.199 6.3045625 17.68475 8.1015625 17.34375 L 6.4277344 15.671875 z"/>
</svg>
