<?xml version="1.0"?>
<svg xmlns="http://www.w3.org/2000/svg" viewBox="0 0 24 24">
    <path d="M3.48,3H2v6h4v3H2v5h0.18C2.07,17.31,2,17.65,2,18c0,1.65,1.35,3,3,3c0.77,0,1.47-0.3,2-0.78C7.53,20.7,8.23,21,9,21 c1.47,0,2.68-1.06,2.94-2.45c0.92,0.6,1.49,1.15,1.5,1.16L13.73,20h6.99l-1.7-3h1.43c0.09,0,0.18,0.01,0.28,0.01 c0.61,0,1.26-0.06,1.75-0.54c0.35-0.34,0.52-0.81,0.52-1.4C23,12.11,14.22,3,3.48,3z M5,19c-0.55,0-1-0.45-1-1s0.45-1,1-1 s1,0.45,1,1S5.55,19,5,19z M9,19c-0.55,0-1-0.45-1-1c0-0.38,0.23-0.72,0.56-0.88C9,17.2,9.43,17.33,9.83,17.47 C9.93,17.63,10,17.81,10,18C10,18.55,9.55,19,9,19z M13,12H8V9.08c0.99,0.37,4.48,1.65,5,1.87V12z"/>
</svg>
