<?xml version="1.0"?>
<svg xmlns="http://www.w3.org/2000/svg" viewBox="0 0 24 24">
    <path style="line-height:normal;text-indent:0;text-align:start;text-decoration-line:none;text-decoration-style:solid;text-decoration-color:#000;text-transform:none;block-progression:tb;isolation:auto;mix-blend-mode:normal" d="M 4.1523438 3 L 5.1621094 4.546875 C 5.1621094 4.546875 6.8574219 7.1418826 6.8574219 11 L 6.8574219 12.1875 L 10 11.644531 L 10 15 L 7.5351562 15 L 5.5351562 12 L 1 12 L 1 16.535156 L 2.5917969 17.597656 C 2.7447969 18.191656 3.1472187 19.196609 4.1992188 20.599609 L 4.5 21 L 17.236328 21 L 17.447266 20.894531 C 17.633266 20.800531 22 18.554 22 13 L 22 12 L 16.464844 12 L 14.464844 15 L 12 15 L 12 11.300781 L 19.160156 10.064453 L 18.984375 9.0761719 C 18.612634 6.9758599 17.91852 5.5233473 17.291016 4.5898438 C 16.663511 3.6563402 16.023438 3.1835937 16.023438 3.1835938 L 15.763672 3 L 4.1523438 3 z M 7.5800781 5 L 15.025391 5 C 15.115981 5.07111 15.253378 5.145473 15.630859 5.7070312 C 16.00487 6.2634261 16.414777 7.2205782 16.744141 8.4511719 L 8.7363281 9.8320312 C 8.5490559 7.5888343 8.084256 6.0952867 7.5800781 5 z" font-weight="400" font-family="sans-serif" white-space="normal" overflow="visible"/>
</svg>
