<?xml version="1.0"?>
<svg xmlns="http://www.w3.org/2000/svg" viewBox="0 0 24 24">
    <path d="M 3 3 C 1.895 3 1 3.895 1 5 L 1 17 C 1 18.105 1.895 19 3 19 L 8 19 L 8 21 L 13.154297 21 L 12.458984 17 L 3 17 L 3 5 L 21 5 L 21 7.1015625 C 21.346 7.0335625 21.683 7 22 7 L 23 7 L 23 5 C 23 3.895 22.105 3 21 3 L 3 3 z M 16 6 C 16 6 16.576497 7.169807 16.853516 10.363281 C 15.671352 9.0088323 14 9 14 9 C 14 9 15.55697 10.565714 15.919922 13 L 13.818359 13 L 15.191406 21 L 20.830078 21 L 22.181641 13 L 20.080078 13 C 20.44303 10.565714 22 9 22 9 C 22 9 20.507661 9.0066812 19.345703 10.148438 C 18.212052 7.1106974 16 6 16 6 z M 13.355469 20.976562 C 13.348719 20.977688 13.343844 20.986 13.339844 21 L 13.380859 21 C 13.369859 20.9815 13.362219 20.975437 13.355469 20.976562 z"/>
</svg>
