<?xml version="1.0"?>
<svg xmlns="http://www.w3.org/2000/svg" viewBox="0 0 24 24">
    <path d="M 12 2 L 3 7.9628906 L 3 21 L 21 21 L 21 7.9628906 L 12 2 z M 11.064453 8 L 12.935547 8 C 13.064547 8 13.1735 8.0956094 13.1875 8.2246094 L 13.304688 9.2363281 C 13.788687 9.4043281 14.226469 9.6602813 14.605469 9.9882812 L 15.541016 9.5839844 C 15.659016 9.5329844 15.797328 9.5779063 15.861328 9.3789062 L 16.796875 11 C 16.861875 11.422 16.831516 11.563625 16.728516 11.640625 L 15.923828 12.240234 C 15.971828 12.487234 16 12.74 16 13 C 16 13.26 15.971828 13.512766 15.923828 13.759766 L 16.730469 14.359375 C 16.833469 14.435375 16.862828 14.577453 16.798828 14.689453 L 15.861328 16.310547 C 15.797328 16.421547 15.660969 16.468969 15.542969 16.417969 L 14.605469 16.011719 C 14.225469 16.340719 13.788688 16.595672 13.304688 16.763672 L 13.1875 17.775391 C 13.1725 17.903391 13.064547 18 12.935547 18 L 11.064453 18 C 10.935453 18 10.8265 17.904391 10.8125 17.775391 L 10.695312 16.763672 C 10.211313 16.595672 9.7735313 16.339719 9.3945312 16.011719 L 8.4589844 16.416016 C 8.3409844 16.467016 8.2026719 16.422547 8.1386719 16.310547 L 7.203125 14.689453 C 7.138125 14.578453 7.1684844 14.436375 7.2714844 14.359375 L 8.0761719 13.759766 C 8.0281719 13.512766 8 13.26 8 13 C 8 12.74 8.0291719 12.486281 8.0761719 12.238281 L 7.2695312 11.640625 C 7.1665313 11.564625 7.1371719 11.422547 7.2011719 11.310547 L 8.1386719 9.6894531 C 8.2026719 9.5774531 8.3390312 9.5310312 8.4570312 9.5820312 L 9.3945312 9.9882812 C 9.7745313 9.6592812 10.211313 9.4043281 10.695312 9.2363281 L 10.8125 8.2246094 C 10.8275 8.0966094 10.935453 8 11.064453 8 z M 12 11 A 2 2 0 0 0 10 13 A 2 2 0 0 0 12 15 A 2 2 0 0 0 14 13 A 2 2 0 0 0 12 11 z"/>
</svg>
