<?xml version="1.0"?>
<svg xmlns="http://www.w3.org/2000/svg" viewBox="0 0 24 24">
    <path d="M 20.375 6 L 20.375 7.3652344 C 20.016 7.4072344 19.686578 7.4853281 19.392578 7.6113281 C 19.074578 7.7483281 18.801219 7.9265313 18.574219 8.1445312 C 18.345219 8.3635312 18.169875 8.6190625 18.046875 8.9140625 C 17.923875 9.2090625 17.863281 9.5355781 17.863281 9.8925781 C 17.863281 10.304578 17.932313 10.661938 18.070312 10.960938 C 18.208313 11.259937 18.401344 11.519187 18.652344 11.742188 C 18.902344 11.965188 19.203687 12.160078 19.554688 12.330078 C 19.905687 12.501078 20.296563 12.664312 20.726562 12.820312 C 20.976562 12.908312 21.187328 12.999797 21.361328 13.091797 C 21.535328 13.184797 21.678109 13.285531 21.787109 13.394531 C 21.896109 13.503531 21.974437 13.624766 22.023438 13.759766 C 22.071437 13.894766 22.097656 14.049562 22.097656 14.226562 C 22.097656 14.382563 22.069578 14.526156 22.017578 14.660156 C 21.964578 14.792156 21.885297 14.906906 21.779297 15.003906 C 21.675297 15.099906 21.543672 15.175469 21.388672 15.230469 C 21.232672 15.285469 21.051703 15.3125 20.845703 15.3125 C 20.665703 15.3125 20.488453 15.288234 20.314453 15.240234 C 20.140453 15.192234 19.987562 15.108281 19.851562 14.988281 C 19.715563 14.868281 19.606391 14.707813 19.525391 14.507812 C 19.468391 14.366812 19.438875 14.192953 19.421875 14.001953 L 17.519531 14.001953 C 17.542531 14.399953 17.605328 14.760547 17.736328 15.060547 C 17.894328 15.422547 18.106141 15.721984 18.369141 15.958984 C 18.632141 16.196984 18.933438 16.379859 19.273438 16.505859 C 19.587438 16.622859 19.913047 16.696281 20.248047 16.738281 L 20.248047 18 L 21.373047 18 L 21.373047 16.744141 L 21.378906 16.744141 C 21.773906 16.706141 22.132078 16.622187 22.455078 16.492188 C 22.778078 16.362188 23.05425 16.189609 23.28125 15.974609 C 23.51025 15.760609 23.685547 15.504937 23.810547 15.210938 C 23.937547 14.915938 24 14.585844 24 14.214844 C 24 13.806844 23.930969 13.453297 23.792969 13.154297 C 23.653969 12.855297 23.460937 12.593188 23.210938 12.367188 C 22.960938 12.142188 22.659547 11.944484 22.310547 11.771484 C 21.961547 11.599484 21.574437 11.431578 21.148438 11.267578 C 20.885437 11.166578 20.664328 11.070609 20.486328 10.974609 C 20.309328 10.880609 20.166594 10.777875 20.058594 10.671875 C 19.951594 10.563875 19.874078 10.447313 19.830078 10.320312 C 19.786078 10.194313 19.765625 10.054438 19.765625 9.8984375 C 19.765625 9.7424375 19.786078 9.5988906 19.830078 9.4628906 C 19.873078 9.3288906 19.942156 9.2113281 20.035156 9.1113281 C 20.127156 9.0133281 20.243719 8.9349063 20.386719 8.8789062 C 20.529719 8.8219062 20.699484 8.7949219 20.896484 8.7949219 C 21.261484 8.7949219 21.552531 8.9209219 21.769531 9.1699219 C 21.937531 9.3629219 22.020594 9.6540469 22.058594 9.9980469 L 23.976562 9.9980469 C 23.954563 9.6990469 23.912219 9.4151094 23.824219 9.1621094 C 23.708219 8.8231094 23.541172 8.5312031 23.326172 8.2832031 C 23.111172 8.0352031 22.850969 7.8337344 22.542969 7.6777344 C 22.234969 7.5217344 21.892625 7.4171875 21.515625 7.3671875 L 21.5 7.3671875 L 21.5 6 L 20.375 6 z M 0 7 L 0 17 L 2 17 L 2 12.75 L 5.75 12.75 L 5.75 17 L 7.75 17 L 7.75 7 L 5.75 7 L 5.75 11 L 2 11 L 2 7 L 0 7 z M 9.375 7 L 9.375 17 L 11.375 17 L 11.375 14.185547 L 12.330078 12.988281 L 14.671875 17 L 17 17 L 13.628906 11.443359 L 17 7 L 14.59375 7 L 11.375 11.486328 L 11.375 7 L 9.375 7 z"/>
</svg>
