<?xml version="1.0"?>
<svg xmlns="http://www.w3.org/2000/svg" viewBox="0 0 24 24">
    <path style="line-height:normal;text-indent:0;text-align:start;text-decoration-line:none;text-decoration-style:solid;text-decoration-color:#000;text-transform:none;block-progression:tb;isolation:auto;mix-blend-mode:normal" d="M 9 2 L 9 4 L 2 4 L 2 6 L 9 6 L 9 8 L 12 8 L 12 2 L 9 2 z M 14 4 L 14 6 L 22 6 L 22 4 L 14 4 z M 14 9 L 14 11 L 2 11 L 2 13 L 14 13 L 14 15 L 17 15 L 17 9 L 14 9 z M 19 11 L 19 13 L 22 13 L 22 11 L 19 11 z M 4 16 L 4 18 L 2 18 L 2 20 L 4 20 L 4 22 L 7 22 L 7 16 L 4 16 z M 9 18 L 9 20 L 22 20 L 22 18 L 9 18 z"/>
</svg>
