<?xml version="1.0"?>
<svg xmlns="http://www.w3.org/2000/svg" viewBox="0 0 24 24">
    <path d="M 20 1 L 2 17.365234 L 7.2734375 22 L 7.8867188 21.580078 C 8.0127187 21.502078 10.610469 19.736187 12.605469 16.242188 L 13.714844 17.228516 L 14.365234 16.583984 C 19.843234 11.089984 20 3.9960781 20 3.2050781 L 20 1 z M 17.800781 5.6367188 C 17.391781 7.9287188 16.342187 11.461156 13.617188 14.535156 L 10.785156 12.007812 L 17.800781 5.6367188 z M 19.5 11.5 C 19.5 11.5 18 14.7 18 15.5 C 18 16.3 18.7 17 19.5 17 C 20.3 17 21 16.3 21 15.5 C 21 14.7 19.5 11.5 19.5 11.5 z M 16 18 C 16 18 15 19.4 15 20 C 15 20.6 15.4 21 16 21 C 16.6 21 17 20.6 17 20 C 17 19.4 16 18 16 18 z"/>
</svg>
