<?xml version="1.0"?>
<svg xmlns="http://www.w3.org/2000/svg" viewBox="0 0 24 24">
    <path d="M 9.7792969 2.2890625 C 6.4392969 3.1290625 4 5.8407812 4 9.0507812 C 4 13.100781 8.4092188 16.640078 9.6992188 17.580078 C 9.5392187 17.100078 9.3692187 16.530156 9.1992188 15.910156 C 9.0392187 15.360156 8.89 14.760859 8.75 14.130859 C 8.34 12.320859 8 10.230703 8 8.2207031 C 8 7.0207031 8.1594531 5.9302344 8.4394531 4.9902344 C 8.5794531 4.4902344 8.7509375 4.019375 8.9609375 3.609375 C 9.1909375 3.099375 9.4692969 2.6590625 9.7792969 2.2890625 z M 14.259766 2.2890625 C 14.569766 2.6590625 14.840078 3.0991406 15.080078 3.6191406 C 15.280078 4.0391406 15.450078 4.4997656 15.580078 5.0097656 C 15.850078 5.9397656 16 7.0207031 16 8.2207031 C 16 10.220703 15.67 12.309141 15.25 14.119141 C 15.12 14.749141 14.960547 15.340391 14.810547 15.900391 C 14.640547 16.520391 14.470547 17.090313 14.310547 17.570312 C 15.610547 16.620313 20 13.090781 20 9.0507812 C 20 5.8507812 17.579766 3.1490625 14.259766 2.2890625 z M 12 3 C 11.81 3.02 11.370937 3.3600781 10.960938 4.0800781 C 10.460938 4.9100781 10 6.2507031 10 8.2207031 C 10 10.960703 10.700547 13.93 11.310547 16 C 11.410547 16.37 11.519375 16.7 11.609375 17 C 11.739375 17.4 11.859219 17.74 11.949219 18 L 12.050781 18 C 12.140781 17.74 12.260625 17.4 12.390625 17 C 12.480625 16.7 12.589453 16.36 12.689453 16 C 13.299453 13.94 14 10.960703 14 8.2207031 C 14 6.2407031 13.550547 4.9000781 13.060547 4.0800781 C 12.640547 3.3500781 12.19 3.02 12 3 z M 10 20 L 10 23 L 14 23 L 14 20 L 10 20 z"/>
</svg>
