<?xml version="1.0"?>
<svg xmlns="http://www.w3.org/2000/svg" viewBox="0 0 24 24">
    <path d="M 3 3 L 3 4 C 3 8.539 4.8407969 12.873203 7.9667969 16.033203 C 11.126797 19.159203 15.461 21 20 21 L 21 21 L 21 15.488281 L 15.75 14.849609 L 13.210938 17.380859 C 11.678937 16.573859 10.451109 15.632891 9.4121094 14.587891 C 8.3671094 13.548891 7.4261406 12.321063 6.6191406 10.789062 L 9.1503906 8.25 L 8.5117188 3 L 3 3 z M 17.5 3 L 16.849609 3.7246094 C 16.373609 4.2546094 14 6.9865469 14 8.6855469 C 14 10.512547 15.410266 11.998297 17.197266 12.154297 C 16.513266 12.014297 16 11.409547 16 10.685547 C 16 9.8575469 17.5 7.6855469 17.5 7.6855469 C 17.5 7.6855469 19 9.8575469 19 10.685547 C 19 11.409547 18.486734 12.014297 17.802734 12.154297 C 19.589734 11.998297 21 10.512547 21 8.6855469 C 21 6.9865469 18.626391 4.2546094 18.150391 3.7246094 L 17.5 3 z"/>
</svg>
