<?xml version="1.0"?>
<svg xmlns="http://www.w3.org/2000/svg" viewBox="0 0 24 24">
    <path style="line-height:normal;text-indent:0;text-align:start;text-decoration-line:none;text-decoration-style:solid;text-decoration-color:#000;text-transform:none;block-progression:tb;isolation:auto;mix-blend-mode:normal" d="M 5 3 L 5 5 L 7 5 L 7 6.34375 C 7 7.6692803 7.526238 8.9415505 8.4648438 9.8789062 L 10.585938 12 L 8.4648438 14.121094 C 7.526238 15.05845 7 16.33072 7 17.65625 L 7 19 L 5 19 L 5 21 L 19 21 L 19 19 L 17 19 L 17 17.65625 C 17 16.330841 16.472461 15.058398 15.535156 14.121094 L 13.414062 12 L 15.535156 9.8789062 C 16.473212 8.9408509 17 7.6692803 17 6.34375 L 17 5 L 19 5 L 19 3 L 5 3 z M 9 5 L 15 5 L 15 6.34375 C 15 6.9381281 14.823391 7.5123753 14.5 8 L 9.5 8 C 9.1760711 7.5127919 9 6.9387149 9 6.34375 L 9 5 z M 12 13.414062 L 14.121094 15.535156 C 14.683789 16.097852 15 16.861659 15 17.65625 L 15 19 L 9 19 L 9 17.65625 C 9 16.85978 9.315512 16.099754 9.8789062 15.537109 L 12 13.414062 z" font-weight="400" font-family="sans-serif" white-space="normal" overflow="visible"/>
</svg>
