<?xml version="1.0"?>
<svg xmlns="http://www.w3.org/2000/svg" viewBox="0 0 24 24">
    <path d="M 17 2 L 17 13.144531 C 15.284199 13.5944 14 15.149665 14 17 L 14 18.927734 C 14 19.641984 13.799251 19.71975 13.541016 19.853516 C 13.28278 19.987281 13 20 13 20 L 13 22 L 19 22 C 20.64497 22 22 20.64497 22 19 L 22 17 C 22 15.149665 20.715801 13.5944 19 13.144531 L 19 2 L 17 2 z M 5.6894531 2.9765625 L 3.9804688 4.015625 L 6.4003906 8 L 2.8183594 8 L 5.1523438 22 L 11 22 L 11 20 L 11 18 C 12 18 12 17 12 17 C 12 14.546 13.481703 12.434859 15.595703 11.505859 L 16.181641 8 L 11.064453 8 L 12.095703 9.9453125 C 12.650071 11.650691 11.773279 12.887109 10.189453 12.982422 A 1 1 0 0 0 11 12 A 1 1 0 0 0 10.853516 11.480469 L 10.855469 11.480469 L 5.6894531 2.9765625 z M 9.5 3 C 9.042 3 8.6170469 3.1326562 8.2480469 3.3476562 L 10.46875 7 L 14.949219 7 C 14.981219 6.838 15 6.671 15 6.5 C 15 5.119 13.881 4 12.5 4 C 12.185 4 11.886375 4.065875 11.609375 4.171875 C 11.166375 3.469875 10.391 3 9.5 3 z"/>
</svg>
