<?xml version="1.0"?>
<svg xmlns="http://www.w3.org/2000/svg" viewBox="0 0 24 24">
    <path d="M21,3H3v18h18V3z M17.5,13c-0.604,0-1.122-0.359-1.359-0.874l-1.669,0.152c-0.066,0.593-0.33,1.124-0.737,1.517l1.429,2.246 C15.273,16.016,15.384,16,15.5,16c0.828,0,1.5,0.672,1.5,1.5S16.328,19,15.5,19S14,18.328,14,17.5c0-0.348,0.123-0.664,0.322-0.919 l-1.433-2.252C12.612,14.435,12.314,14.5,12,14.5c-0.315,0-0.612-0.065-0.89-0.171l-1.433,2.252C9.877,16.836,10,17.152,10,17.5 c0,0.828-0.672,1.5-1.5,1.5S7,18.328,7,17.5S7.672,16,8.5,16c0.116,0,0.227,0.016,0.336,0.041l1.429-2.246 c-0.407-0.393-0.671-0.924-0.737-1.517l-1.669-0.152C7.622,12.641,7.104,13,6.5,13C5.672,13,5,12.328,5,11.5S5.672,10,6.5,10 c0.7,0,1.283,0.481,1.448,1.129l1.669,0.152c0.263-0.872,0.979-1.547,1.883-1.731V7.908c-0.581-0.207-1-0.756-1-1.408 C10.5,5.672,11.172,5,12,5s1.5,0.672,1.5,1.5c0,0.652-0.419,1.202-1,1.408V9.55c0.904,0.183,1.619,0.859,1.882,1.731l1.669-0.152 C16.217,10.481,16.8,10,17.5,10c0.828,0,1.5,0.672,1.5,1.5S18.328,13,17.5,13z"/>
</svg>
