<?xml version="1.0"?>
<svg xmlns="http://www.w3.org/2000/svg" viewBox="0 0 24 24">
    <path d="M 2 4 L 2 20 L 22 20 L 22 4 L 2 4 z M 5 8 L 6.5 8 L 6.5 16 L 5 16 L 5 8 z M 9 8 L 12 8 C 12.552 8 13 8.448 13 9 L 13 15 C 13 15.552 12.552 16 12 16 L 9 16 C 8.448 16 8 15.552 8 15 L 8 9 C 8 8.448 8.448 8 9 8 z M 15 8 L 18 8 C 18.552 8 19 8.448 19 9 L 19 15 C 19 15.552 18.552 16 18 16 L 15 16 C 14.448 16 14 15.552 14 15 L 14 9 C 14 8.448 14.448 8 15 8 z M 9.5 9.5 L 9.5 14.5 L 11.5 14.5 L 11.5 9.5 L 9.5 9.5 z M 15.5 9.5 L 15.5 14.5 L 17.5 14.5 L 17.5 9.5 L 15.5 9.5 z"/>
</svg>
