<?xml version="1.0"?>
<svg xmlns="http://www.w3.org/2000/svg" viewBox="0 0 24 24">
    <path d="M20,10h-1.136C18.944,9.68,19,9.349,19,9c0-1.933-1.308-3.498-3.104-3.896C15.498,3.308,13.933,2,12,2 c-1.99,0-3.59,1.385-3.928,3.263C6.311,5.878,5,7.56,5,9.5C5,9.671,5.033,9.834,5.052,10H4l1,6h2.465L12,22l4.535-6H19L20,10z M12,4 c0.843,0,1.53,0.472,1.832,1.177c-0.561,0.169-1.072,0.459-1.503,0.845c-0.599-0.492-1.318-0.83-2.101-0.96 C10.554,4.423,11.205,4,12,4z M9.5,7c1.145,0,2.145,0.799,2.431,1.943l1.939-0.485c-0.074-0.298-0.184-0.578-0.31-0.847 C13.925,7.232,14.449,7,15,7c1.141,0,2,0.86,2,2c0,0.372-0.099,0.708-0.261,1l-9.687,0C6.726,8.439,7.98,7,9.5,7z"/>
</svg>
