<?xml version="1.0"?>
<svg xmlns="http://www.w3.org/2000/svg" viewBox="0 0 24 24">
    <path style="line-height:normal;text-indent:0;text-align:start;text-decoration-line:none;text-decoration-style:solid;text-decoration-color:#000;text-transform:none;block-progression:tb;isolation:auto;mix-blend-mode:normal" d="M 11 1 L 11 3 L 13 3 L 13 1 L 11 1 z M 13 3 L 13 5 L 11 5 L 11 3 L 4 3 L 4 22 L 13.757812 22 L 12.878906 21.121094 L 11.464844 19.707031 L 12.878906 18.292969 L 13.171875 18 L 7 18 L 7 16.957031 C 7 15.212031 9.269 14 12 14 C 14.601 14 16.759937 15.10675 16.960938 16.71875 L 17.121094 16.878906 L 18 17.757812 L 20 15.757812 L 20 3 L 13 3 z M 12 8 C 13.417 8 14.5 9.083 14.5 10.5 C 14.5 11.917 13.417 13 12 13 C 10.583 13 9.5 11.917 9.5 10.5 C 9.5 9.083 10.583 8 12 8 z M 22.292969 16.292969 L 18 20.585938 L 15.707031 18.292969 L 14.292969 19.707031 L 18 23.414062 L 23.707031 17.707031 L 22.292969 16.292969 z" font-weight="400" font-family="sans-serif" white-space="normal" overflow="visible"/>
</svg>
