<?xml version="1.0"?>
<svg xmlns="http://www.w3.org/2000/svg" viewBox="0 0 24 24">
    <path d="M 5.5 1 A 0.5 0.5 0 0 0 5 1.5 A 0.5 0.5 0 0 0 5.5 2 A 0.5 0.5 0 0 0 6 1.5 A 0.5 0.5 0 0 0 5.5 1 z M 10.515625 1 C 10.240506 0.99878711 9.9585 1.0299531 9.671875 1.0957031 C 8.403875 1.3867031 7.3767969 2.4204531 7.0917969 3.6894531 C 6.7017969 5.4194531 7.597 6.9813906 9 7.6503906 L 9 10 L 12 10 L 12 7.6503906 C 13.179 7.0873906 14 5.894 14 4.5 C 14 2.572375 12.441459 1.0084902 10.515625 1 z M 15.5 1 A 0.5 0.5 0 0 0 15 1.5 A 0.5 0.5 0 0 0 15.5 2 A 0.5 0.5 0 0 0 16 1.5 A 0.5 0.5 0 0 0 15.5 1 z M 10.5 3 C 11.327 3 12 3.673 12 4.5 C 12 5.327 11.327 6 10.5 6 C 9.673 6 9 5.327 9 4.5 C 9 3.673 9.673 3 10.5 3 z M 4.5 4 A 0.5 0.5 0 0 0 4 4.5 A 0.5 0.5 0 0 0 4.5 5 A 0.5 0.5 0 0 0 5 4.5 A 0.5 0.5 0 0 0 4.5 4 z M 16.5 4 A 0.5 0.5 0 0 0 16 4.5 A 0.5 0.5 0 0 0 16.5 5 A 0.5 0.5 0 0 0 17 4.5 A 0.5 0.5 0 0 0 16.5 4 z M 20 6 L 17 7 L 15.613281 6.4863281 C 15.272281 7.3513281 14.722 8.1275625 14 8.7265625 L 14 12 L 7 12 L 7 8.7265625 C 6.436 8.2585625 5.979625 7.6820156 5.640625 7.0410156 C 3.8476111 8.0416418 2.8286243 9.6105592 2.3476562 11.064453 A 1 1 0 0 0 2 11 A 1 1 0 0 0 1 12 A 1 1 0 0 0 2 13 C 2 14.164 2.3912188 15.350359 3.0742188 16.443359 L 4 22 L 8 22 L 8.2578125 20.449219 C 9.2708125 20.794219 10.36 21 11.5 21 C 12.195 21 12.869484 20.942891 13.521484 20.837891 L 14.21875 22 L 18.220703 22 L 17.681641 19.308594 C 18.683641 18.674594 19.500219 17.889 20.074219 17 L 22.001953 17 L 23 13 L 20.693359 12.230469 C 20.438359 11.452469 20.009438 10.640234 19.398438 9.8652344 C 19.735437 8.7722344 20 7.453 20 6 z M 17 12 C 17.552 12 18 12.448 18 13 C 18 13.552 17.552 14 17 14 C 16.448 14 16 13.552 16 13 C 16 12.448 16.448 12 17 12 z"/>
</svg>
