<?xml version="1.0"?>
<svg xmlns="http://www.w3.org/2000/svg" viewBox="0 0 24 24">
    <path d="M 4 2 L 4 22 L 20 22 L 20 8 L 14 2 L 4 2 z M 13 3.5 L 18.5 9 L 13 9 L 13 3.5 z M 12.134766 11.001953 C 13.72918 11.073635 15 12.389125 15 14 C 15 15.304 14.163 16.403406 13 16.816406 L 13 19 L 11 19 L 11 16.816406 C 9.663 16.341406 8.7565938 14.959391 9.0585938 13.400391 C 9.2865937 12.223391 10.256547 11.265781 11.435547 11.050781 C 11.673797 11.007531 11.906992 10.991713 12.134766 11.001953 z M 7.5 12 C 7.776 12 8 12.224 8 12.5 C 8 12.776 7.776 13 7.5 13 C 7.224 13 7 12.776 7 12.5 C 7 12.224 7.224 12 7.5 12 z M 16.5 12 C 16.776 12 17 12.224 17 12.5 C 17 12.776 16.776 13 16.5 13 C 16.224 13 16 12.776 16 12.5 C 16 12.224 16.224 12 16.5 12 z M 12 13 A 1 1 0 0 0 11 14 A 1 1 0 0 0 12 15 A 1 1 0 0 0 13 14 A 1 1 0 0 0 12 13 z M 7.5 15 C 7.776 15 8 15.224 8 15.5 C 8 15.776 7.776 16 7.5 16 C 7.224 16 7 15.776 7 15.5 C 7 15.224 7.224 15 7.5 15 z M 16.5 15 C 16.776 15 17 15.224 17 15.5 C 17 15.776 16.776 16 16.5 16 C 16.224 16 16 15.776 16 15.5 C 16 15.224 16.224 15 16.5 15 z"/>
</svg>
