<?xml version="1.0"?>
<svg xmlns="http://www.w3.org/2000/svg" viewBox="0 0 24 24">
    <path d="M 8.5 2 A 0.5 0.5 0 0 0 8 2.5 A 0.5 0.5 0 0 0 8.5 3 A 0.5 0.5 0 0 0 9 2.5 A 0.5 0.5 0 0 0 8.5 2 z M 13.5 2 A 3.5 3.5 0 0 0 10 5.5 A 3.5 3.5 0 0 0 12 8.6582031 L 12 11 L 15 11 L 15 8.6582031 A 3.5 3.5 0 0 0 17 5.5 A 3.5 3.5 0 0 0 13.5 2 z M 18.5 2 A 0.5 0.5 0 0 0 18 2.5 A 0.5 0.5 0 0 0 18.5 3 A 0.5 0.5 0 0 0 19 2.5 A 0.5 0.5 0 0 0 18.5 2 z M 7.5 5 A 0.5 0.5 0 0 0 7 5.5 A 0.5 0.5 0 0 0 7.5 6 A 0.5 0.5 0 0 0 8 5.5 A 0.5 0.5 0 0 0 7.5 5 z M 19.5 5 A 0.5 0.5 0 0 0 19 5.5 A 0.5 0.5 0 0 0 19.5 6 A 0.5 0.5 0 0 0 20 5.5 A 0.5 0.5 0 0 0 19.5 5 z M 6 12 C 5.71 12 5.4299219 12.050859 5.1699219 12.130859 L 1 13.109375 L 1 20.310547 L 5 19 L 13.160156 21.849609 C 13.420156 21.949609 13.700703 21.990234 13.970703 21.990234 C 14.370703 21.990234 14.770625 21.899219 15.140625 21.699219 L 22.460938 17.779297 L 21.289062 15.269531 L 14.119141 18.880859 L 13.490234 18.689453 L 14.009766 17.429688 C 14.459766 16.409688 14.000469 15.219297 12.980469 14.779297 L 7.109375 12.220703 C 6.769375 12.080703 6.39 12 6 12 z"/>
</svg>
