<?xml version="1.0"?>
<svg xmlns="http://www.w3.org/2000/svg" viewBox="0 0 24 24">
    <path d="M 16 2 L 12.34375 9.0273438 C 10.723797 9.1578406 9.5008227 9.7716767 8.703125 10.683594 C 7.8007284 11.715201 7.4368421 12.985049 7.15625 14.181641 C 6.8756579 15.378232 6.673055 16.534955 6.3164062 17.388672 C 5.9776401 18.199583 5.5852959 18.698753 4.796875 19 L 2 19 L 2 21 L 4.9882812 21 L 5 21 C 8.4745 21 11.573211 21.05951 14.03125 19.90625 C 15.260269 19.329618 16.309211 18.400148 16.990234 17.083984 C 17.642183 15.824012 17.963322 14.235198 17.990234 12.255859 L 22 5 L 16 2 z M 12.792969 11.015625 L 15.974609 12.605469 C 15.914639 14.171188 15.64256 15.339399 15.214844 16.166016 C 14.731648 17.099852 14.083996 17.670382 13.181641 18.09375 C 11.888076 18.700665 9.8996471 18.858096 7.671875 18.923828 C 7.8306773 18.664577 8.048868 18.431224 8.1621094 18.160156 C 8.6503669 16.991405 8.8439827 15.745456 9.1035156 14.638672 C 9.3630485 13.531888 9.6842719 12.597612 10.207031 12 C 10.703142 11.432853 11.401202 11.054048 12.792969 11.015625 z"/>
</svg>
