<?xml version="1.0"?>
<svg xmlns="http://www.w3.org/2000/svg" viewBox="0 0 24 24">
    <path d="M 3 3 L 3 21 L 12.294922 21 C 12.105922 20.366 12 19.695 12 19 L 5 19 L 5 8 L 19 8 L 19 12 C 19.695 12 20.366 12.105922 21 12.294922 L 21 3 L 3 3 z M 7 11 L 7 13 L 9 13 L 9 11 L 7 11 z M 11 11 L 11 13 L 15.408203 13 C 15.903203 12.703 16.435 12.462922 17 12.294922 L 17 11 L 11 11 z M 19 14 C 16.25 14 14 16.25 14 19 C 14 21.75 16.25 24 19 24 C 21.75 24 24 21.75 24 19 C 24 16.25 21.75 14 19 14 z M 7 15 L 7 17 L 9 17 L 9 15 L 7 15 z M 11 15 L 11 17 L 12.294922 17 C 12.509922 16.277 12.837766 15.604 13.259766 15 L 11 15 z M 18.253906 16 L 19.748047 16 L 19.582031 19.986328 L 18.417969 19.986328 L 18.253906 16 z M 19 20.734375 C 19.104 20.734375 19.199203 20.751109 19.283203 20.787109 C 19.368203 20.823109 19.44 20.872594 19.5 20.933594 C 19.559 20.994594 19.604719 21.066391 19.636719 21.150391 C 19.668719 21.233391 19.685547 21.324828 19.685547 21.423828 C 19.684547 21.519828 19.669719 21.607406 19.636719 21.691406 C 19.604719 21.775406 19.559 21.847203 19.5 21.908203 C 19.44 21.969203 19.368203 22.018734 19.283203 22.052734 C 19.199203 22.086734 19.104 22.103516 19 22.103516 C 18.895 22.103516 18.801797 22.087734 18.716797 22.052734 C 18.633797 22.019734 18.560953 21.969203 18.501953 21.908203 C 18.442953 21.847203 18.396281 21.775406 18.363281 21.691406 C 18.330281 21.607406 18.314453 21.518828 18.314453 21.423828 C 18.314453 21.324828 18.331281 21.233391 18.363281 21.150391 C 18.396281 21.066391 18.442953 20.994594 18.501953 20.933594 C 18.560953 20.872594 18.633797 20.823109 18.716797 20.787109 C 18.801797 20.751109 18.896 20.734375 19 20.734375 z"/>
</svg>
