<?xml version="1.0"?>
<svg xmlns="http://www.w3.org/2000/svg" viewBox="0 0 24 24">
    <path d="M12,2C6.477,2,2,6.477,2,12s4.477,10,10,10s10-4.477,10-10S17.523,2,12,2z M7,8c0.879,0,1.488,0.517,1.492,0.521 C8.492,8.521,9.045,8,10,8c0.552,0,1,0.435,1,0.971c0,0.872-1.217,1.941-1.675,2.343L9.171,11.45C8.961,11.64,8.713,11.838,8.5,12 c-0.213-0.162-0.461-0.36-0.672-0.551l-0.153-0.136C7.217,10.911,6,9.843,6,8.971C6,8.435,6.448,8,7,8z M12,17.5 c-2.33,0-4.31-1.46-5.11-3.5h10.22C16.31,16.04,14.33,17.5,12,17.5z M16.325,11.313l-0.154,0.137c-0.21,0.19-0.458,0.388-0.671,0.55 c-0.213-0.162-0.461-0.36-0.672-0.551l-0.153-0.136C14.217,10.911,13,9.843,13,8.971C13,8.435,13.448,8,14,8 c0.879,0,1.488,0.517,1.492,0.521C15.492,8.521,16.045,8,17,8c0.552,0,1,0.435,1,0.971C18,9.843,16.783,10.911,16.325,11.313z"/>
</svg>
