<?xml version="1.0"?>
<svg xmlns="http://www.w3.org/2000/svg" viewBox="0 0 24 24">
    <path d="M 0 5 L 0 7 L 7 7 L 7 9 L 1 9 L 1 11 L 5 11 L 5 13 L 1 13 L 1 18 L 3 18 C 3 19.657 4.343 21 6 21 C 7.657 21 9 19.657 9 18 L 14 18 L 15 18 C 15 19.657 16.343 21 18 21 C 19.657 21 21 19.657 21 18 L 23 18 L 23 13 L 20 7 L 16 7 L 16 5 L 0 5 z M 16 8.75 L 18.917969 8.75 L 21.042969 13 L 16 13 L 16 8.75 z M 6 16.75 C 6.689 16.75 7.25 17.311 7.25 18 C 7.25 18.689 6.689 19.25 6 19.25 C 5.311 19.25 4.75 18.689 4.75 18 C 4.75 17.311 5.311 16.75 6 16.75 z M 18 16.75 C 18.689 16.75 19.25 17.311 19.25 18 C 19.25 18.689 18.689 19.25 18 19.25 C 17.311 19.25 16.75 18.689 16.75 18 C 16.75 17.311 17.311 16.75 18 16.75 z"/>
</svg>
