<?xml version="1.0"?>
<svg xmlns="http://www.w3.org/2000/svg" viewBox="0 0 24 24">
    <path d="M 11 2.0507812 C 8.992 2.2507813 7.1577813 3.0487187 5.6757812 4.2617188 L 7.1015625 5.6875 C 8.2075625 4.8275 9.542 4.2513594 11 4.0683594 L 11 2.0507812 z M 13 2.0507812 L 13 4.0703125 C 14.458 4.2533125 15.792438 4.8294531 16.898438 5.6894531 L 18.324219 4.2617188 C 16.841219 3.0477187 15.008 2.2507812 13 2.0507812 z M 4.2617188 5.6757812 C 3.0477188 7.1577813 2.2507812 8.992 2.0507812 11 L 4.0683594 11 C 4.2513594 9.542 4.8275 8.2075625 5.6875 7.1015625 L 4.2617188 5.6757812 z M 19.738281 5.6757812 L 18.310547 7.1035156 C 19.170547 8.2095156 19.746688 9.5439531 19.929688 11.001953 L 21.949219 11.001953 C 21.749219 8.9929531 20.952281 7.1577813 19.738281 5.6757812 z M 2.0507812 12.998047 C 2.2507812 15.007047 3.0477188 16.842219 4.2617188 18.324219 L 5.6894531 16.896484 C 4.8294531 15.790484 4.2533125 14.456047 4.0703125 12.998047 L 2.0507812 12.998047 z M 19.931641 13.001953 C 19.748375 14.459202 19.172121 15.792924 18.3125 16.898438 L 19.738281 18.324219 C 20.951281 16.842219 21.749219 15.009953 21.949219 13.001953 L 19.931641 13.001953 z M 7.1015625 18.3125 L 5.6757812 19.738281 C 7.1577813 20.951281 8.9900469 21.749219 10.998047 21.949219 L 10.998047 19.931641 C 9.5407978 19.748375 8.2070756 19.172121 7.1015625 18.3125 z M 16.898438 18.3125 C 15.792438 19.1725 14.458 19.748641 13 19.931641 L 13 21.949219 C 15.008 21.749219 16.842219 20.951281 18.324219 19.738281 L 16.898438 18.3125 z"/>
</svg>
