<?xml version="1.0"?>
<svg xmlns="http://www.w3.org/2000/svg" viewBox="0 0 24 24">
    <path d="M 12 2.0996094 L 1 12 L 4 12 L 4 20 L 9 20 L 9 10.210938 C 9.68 10.090937 10.630469 10 11.980469 10 C 13.340469 10 14.310937 10.270781 14.960938 10.800781 C 15.580937 11.300781 16 12.119844 16 13.089844 C 16 14.059844 15.679609 14.889219 15.099609 15.449219 C 14.349609 16.169219 13.239453 16.490234 11.939453 16.490234 C 11.649453 16.490234 11.2 16.440156 11 16.410156 L 11 20 L 20 20 L 20 12 L 23 12 L 12 2.0996094 z M 12.089844 11.689453 C 11.649844 11.689453 11.16 11.770547 11 11.810547 L 11 14.650391 C 11.19 14.700391 11.599922 14.769531 11.919922 14.769531 C 13.089922 14.769531 13.820312 14.170391 13.820312 13.150391 C 13.820312 12.240391 13.189844 11.689453 12.089844 11.689453 z"/>
</svg>
