<?xml version="1.0"?>
<svg xmlns="http://www.w3.org/2000/svg" viewBox="0 0 24 24">
    <path d="M 11 3 L 11 5 L 12.158203 5 C 11.815208 5.7869087 11.457697 6.769563 11.224609 7.9472656 C 10.465028 7.3622985 9.5263053 7 8.5 7 C 6.1975132 7 4.3045266 8.7620398 4.0507812 11 L 2 11 L 2 14.197266 L 4.7832031 21 L 19.216797 21 L 22 14.197266 L 22 11 L 20 11 L 20 10 C 20 8.025344 19.376446 6.226608 18.841797 5 L 20 5 L 20 3 L 11 3 z M 14.386719 5 L 16.613281 5 C 16.947831 5.6422295 18 7.755022 18 10 L 18 11 L 13 11 L 13 10 C 13 7.755022 14.052169 5.6422295 14.386719 5 z M 8.5 9 C 9.7211432 9 10.721064 9.8513376 10.949219 11 L 6.0507812 11 C 6.278936 9.8513376 7.2788568 9 8.5 9 z"/>
</svg>
