<?xml version="1.0"?>
<svg xmlns="http://www.w3.org/2000/svg" viewBox="0 0 24 24">
    <path d="M 11 2 C 6.582 2 3 5.582 3 10 C 3 15.004 6 14.429234 6 19.240234 L 6 22 L 15 22 L 15 19 L 19 19 L 19 14.021484 L 21.423828 13 L 18.949219 9.1191406 C 18.510375 5.1158227 15.1201 2 11 2 z M 11.136719 7.0019531 C 12.730463 7.0736348 14 8.389125 14 10 C 14 11.304 13.163 12.403406 12 12.816406 L 12 14.5 C 12 14.776 11.776 15 11.5 15 L 10.5 15 C 10.224 15 10 14.776 10 14.5 L 10 12.816406 C 8.663 12.341406 7.7565938 10.959391 8.0585938 9.4003906 C 8.2865937 8.2233906 9.2555469 7.2657813 10.435547 7.0507812 C 10.673672 7.0075312 10.909041 6.9917129 11.136719 7.0019531 z M 6.5 8 C 6.776 8 7 8.224 7 8.5 C 7 8.776 6.776 9 6.5 9 C 6.224 9 6 8.776 6 8.5 C 6 8.224 6.224 8 6.5 8 z M 15.5 8 C 15.776 8 16 8.224 16 8.5 C 16 8.776 15.776 9 15.5 9 C 15.224 9 15 8.776 15 8.5 C 15 8.224 15.224 8 15.5 8 z M 6.5 11 C 6.776 11 7 11.224 7 11.5 C 7 11.776 6.776 12 6.5 12 C 6.224 12 6 11.776 6 11.5 C 6 11.224 6.224 11 6.5 11 z M 15.5 11 C 15.776 11 16 11.224 16 11.5 C 16 11.776 15.776 12 15.5 12 C 15.224 12 15 11.776 15 11.5 C 15 11.224 15.224 11 15.5 11 z"/>
</svg>
