<?xml version="1.0"?>
<svg xmlns="http://www.w3.org/2000/svg" viewBox="0 0 24 24">
    <path d="M 6 2 L 2 6 L 5 6 L 5 8 L 2 8 L 2 18 L 12.080078 18 C 12.181078 17.293 12.387594 16.622 12.683594 16 L 12.681641 16 C 13.804641 13.636 16.209 12 19 12 C 19.34 12 19.673 12.027219 20 12.074219 L 20 12.078125 C 20.707 12.179125 21.378 12.385641 22 12.681641 L 22 8 L 7 8 L 7 6 L 10 6 L 6 2 z M 19 14 C 16.239 14 14 16.239 14 19 C 14 21.761 16.239 24 19 24 C 21.761 24 24 21.761 24 19 C 24 16.239 21.761 14 19 14 z M 18 16 L 20 16 L 20 18 L 22 18 L 22 20 L 20 20 L 20 22 L 18 22 L 18 20 L 16 20 L 16 18 L 18 18 L 18 16 z"/>
</svg>
