<?xml version="1.0"?>
<svg xmlns="http://www.w3.org/2000/svg" viewBox="0 0 24 24">
    <path style="line-height:normal;text-indent:0;text-align:start;text-decoration-line:none;text-decoration-style:solid;text-decoration-color:#000;text-transform:none;block-progression:tb;isolation:auto;mix-blend-mode:normal" d="M 1 3 L 1 9 L 5 9 L 5 21 L 19 21 L 19 9 L 23 9 L 23 3 L 1 3 z M 3 5 L 5 5 L 5 7 L 3 7 L 3 5 z M 8 5 L 10 5 L 10 11 L 8 11 L 8 5 z M 14 5 L 16 5 L 16 7 L 14 7 L 14 5 z M 19 5 L 21 5 L 21 7 L 19 7 L 19 5 z M 14 9 L 16 9 L 16 11 L 14 11 L 14 9 z M 14 13 L 16 13 L 16 15 L 14 15 L 14 13 z M 8 16 L 11 16 L 11 19 L 8 19 L 8 16 z M 14 17 L 16 17 L 16 19 L 14 19 L 14 17 z" font-weight="400" font-family="sans-serif" white-space="normal" overflow="visible"/>
</svg>
