<?xml version="1.0"?>
<svg xmlns="http://www.w3.org/2000/svg" viewBox="0 0 24 24">
    <path d="M 2 5 L 2 15 L 5 15 L 5 17 L 2 17 L 6 21 L 10 17 L 7 17 L 7 15 L 12.080078 15 C 12.181078 14.293 12.387594 13.622 12.683594 13 L 12.681641 13 C 13.804641 10.636 16.209 9 19 9 C 19.34 9 19.673 9.0272187 20 9.0742188 L 20 9.0800781 C 20.707 9.1810781 21.378 9.3875938 22 9.6835938 L 22 5 L 2 5 z M 19 11 C 16.239 11 14 13.239 14 16 C 14 18.761 16.239 21 19 21 C 21.761 21 24 18.761 24 16 C 24 13.239 21.761 11 19 11 z M 18 13 L 20 13 L 20 15 L 22 15 L 22 17 L 20 17 L 20 19 L 18 19 L 18 17 L 16 17 L 16 15 L 18 15 L 18 13 z"/>
</svg>
