<?xml version="1.0"?>
<svg xmlns="http://www.w3.org/2000/svg" viewBox="0 0 24 24">
    <path style="line-height:normal;text-indent:0;text-align:start;text-decoration-line:none;text-decoration-style:solid;text-decoration-color:#000;text-transform:none;block-progression:tb;isolation:auto;mix-blend-mode:normal" d="M 10.001953 2 L 9.7558594 4.4375 C 9.2318594 4.6495 8.7465938 4.9333438 8.3085938 5.2773438 L 6.0703125 4.2675781 L 4.0722656 7.7304688 L 4.0722656 7.7324219 L 6.0644531 9.1640625 C 6.0274531 9.4390625 6 9.716 6 10 C 6 10.284 6.0264531 10.560938 6.0644531 10.835938 L 4.0722656 12.267578 C 4.0722656 12.267578 4.0722656 12.269531 4.0722656 12.269531 L 6.0722656 15.730469 C 6.0722656 15.730469 6.0742188 15.732422 6.0742188 15.732422 L 8.3085938 14.722656 C 8.7465938 15.065656 9.2328125 15.3515 9.7578125 15.5625 L 10 18 L 13.998047 18 L 14.242188 15.5625 C 14.766188 15.3505 15.252406 15.065656 15.691406 14.722656 L 17.925781 15.732422 C 17.925781 15.732422 17.927734 15.730469 17.927734 15.730469 L 19.927734 12.269531 L 19.927734 12.267578 L 17.935547 10.835938 C 17.973547 10.561937 18 10.284 18 10 C 18 9.716 17.974547 9.4390625 17.935547 9.1640625 L 19.927734 7.7324219 L 19.927734 7.7304688 L 17.927734 4.2675781 L 15.691406 5.2773438 C 15.253406 4.9343438 14.767188 4.6485 14.242188 4.4375 L 14 2 L 10.001953 2 z M 12 7 C 13.657 7 15 8.343 15 10 C 15 11.657 13.657 13 12 13 C 10.343 13 9 11.657 9 10 C 9 8.343 10.343 7 12 7 z M 2 17 L 2 22 L 22 22 L 22 17 L 20 17 L 20 20 L 4 20 L 4 17 L 2 17 z" font-weight="400" font-family="sans-serif" white-space="normal" overflow="visible"/>
</svg>
