<?xml version="1.0"?>
<svg xmlns="http://www.w3.org/2000/svg" viewBox="0 0 24 24">
    <path style="line-height:normal;text-indent:0;text-align:start;text-decoration-line:none;text-decoration-style:solid;text-decoration-color:#000;text-transform:none;block-progression:tb;isolation:auto;mix-blend-mode:normal" d="M 6 2 L 5.9882812 5.6132812 L 9.5019531 12 L 14.484375 12 L 18.027344 5.7226562 L 18.027344 2 L 6 2 z M 3 10 L 3 12.685547 L 4.859375 16.113281 C 5.315375 17.252281 6.4185313 18 7.6445312 18 L 11 18 L 11 20 L 8 20 L 8 22 L 16 22 L 16 20 L 13 20 L 13 18 L 16.347656 18 C 17.574656 18 18.677813 17.252281 19.132812 16.113281 L 21 12.505859 L 21 10 L 17.835938 10 L 15.669922 14 L 8.3222656 14 L 6.1601562 10 L 3 10 z" font-weight="400" font-family="sans-serif" white-space="normal" overflow="visible"/>
</svg>
