<?xml version="1.0"?>
<svg xmlns="http://www.w3.org/2000/svg" viewBox="0 0 24 24">
    <path style="line-height:normal;text-indent:0;text-align:start;text-decoration-line:none;text-decoration-style:solid;text-decoration-color:#000;text-transform:none;block-progression:tb;isolation:auto;mix-blend-mode:normal" d="M 1 4 L 1 18 L 7.0507812 18 C 7.2981765 19.685411 8.7500665 21 10.5 21 C 12.249933 21 13.701823 19.685411 13.949219 18 L 17 18 L 17 15 L 19 15 L 19 18 L 23 18 L 23 16 L 21 16 L 21 11 L 19 11 L 19 13 L 16.71875 13 L 13.638672 8 L 8 8 L 8 4 L 1 4 z M 8 10 L 12.521484 10 L 15 14.023438 L 15 16 L 13.644531 16 C 13.0777 14.824694 11.883152 14 10.5 14 C 9.5230937 14 8.6372995 14.410546 8 15.064453 L 8 10 z M 10.5 16 C 11.340272 16 12 16.659728 12 17.5 C 12 18.340272 11.340272 19 10.5 19 C 9.6597282 19 9 18.340272 9 17.5 C 9 16.659728 9.6597282 16 10.5 16 z" font-weight="400" font-family="sans-serif" white-space="normal" overflow="visible"/>
</svg>
