<?xml version="1.0"?>
<svg xmlns="http://www.w3.org/2000/svg" viewBox="0 0 24 24">
    <path d="M 3 3 L 3 9 L 3 21 L 10.587891 21 C 10.331891 20.369 10.155359 19.699 10.068359 19 L 5 19 L 5 9 L 19 9 L 19 10.068359 C 19.699 10.155359 20.369 10.331891 21 10.587891 L 21 8 L 21 3 L 3 3 z M 6 5 C 6.552 5 7 5.448 7 6 C 7 6.552 6.552 7 6 7 C 5.448 7 5 6.552 5 6 C 5 5.448 5.448 5 6 5 z M 9 5 C 9.552 5 10 5.448 10 6 C 10 6.552 9.552 7 9 7 C 8.448 7 8 6.552 8 6 C 8 5.448 8.448 5 9 5 z M 12 5 L 19 5 L 19 7 L 12 7 L 12 5 z M 18 12 C 14.698136 12 12 14.698136 12 18 C 12 21.301864 14.698136 24 18 24 C 21.301864 24 24 21.301864 24 18 C 24 14.698136 21.301864 12 18 12 z M 18.974609 14.130859 C 20.716275 14.564376 22 16.117732 22 18 C 22 19.049109 21.592423 19.990212 20.939453 20.701172 C 20.810574 20.29788 20.445867 20 20 20 L 20 19 C 20 18.448 19.552 18 19 18 L 17 18 L 17 17 C 17.552 17 18 16.552 18 16 L 18 15 C 18.5056 15 18.907851 14.618219 18.974609 14.130859 z M 14.105469 17.105469 L 15 18 L 16 19 L 16 20 C 16 20.552 16.448 21 17 21 L 17.111328 21 L 17.111328 21.894531 C 15.324916 21.492523 14 19.9138 14 18 C 14 17.690845 14.040135 17.393891 14.105469 17.105469 z"/>
</svg>
