<?xml version="1.0"?>
<svg xmlns="http://www.w3.org/2000/svg" viewBox="0 0 24 24">
    <path d="M 11.574219 2.0097656 C 8.4865352 2.1397578 5.7660313 3.683 4.0195312 6 L 4 6 L 4 6.0253906 C 3.013 7.3433906 2.3386562 8.9083281 2.0976562 10.611328 C 1.4576562 15.150328 4.1361719 19.362703 8.3261719 21.220703 C 9.9541719 21.942703 11.521 22.096219 13 21.949219 L 13 20.298828 L 13 12 L 9 12 L 9 10 L 11 10 L 11 7 L 15 7 L 15 4.5898438 C 17.928 5.7798437 20 8.65 20 12 C 20 12.108 19.988375 12.213312 19.984375 12.320312 L 21.785156 14.054688 C 22.041156 12.833687 22.081938 11.534406 21.835938 10.191406 C 21.036938 5.8384063 17.326922 2.4399688 12.919922 2.0429688 C 12.465672 2.0019688 12.015316 1.9911953 11.574219 2.0097656 z M 15 10 L 15 20 L 17.273438 17.837891 L 19.306641 22.523438 L 21.505859 21.523438 L 19.457031 17 L 22.273438 17 L 15 10 z M 4.2089844 10.208984 L 6 12 L 9 15 L 9 18 L 11 18 L 11 19.931641 C 7.06 19.436641 4 16.072 4 12 C 4 11.384 4.0769844 10.785984 4.2089844 10.208984 z"/>
</svg>
