<?xml version="1.0"?>
<svg xmlns="http://www.w3.org/2000/svg" viewBox="0 0 24 24">
    <path d="M 3 3 L 3 4 L 3 21 L 21 21 L 21 3 L 3 3 z M 12 7 C 14.761 7 17 9.239 17 12 C 17 14.761 14.761 17 12 17 C 9.239 17 7 14.761 7 12 C 7 9.239 9.239 7 12 7 z M 12 10 C 10.895 10 10 10.895 10 12 C 10 13.105 10.895 14 12 14 C 13.105 14 14 13.105 14 12 C 14 11.795 13.959344 11.602016 13.902344 11.416016 C 13.744344 11.759016 13.403 12 13 12 C 12.448 12 12 11.552 12 11 C 12 10.597 12.240984 10.255656 12.583984 10.097656 C 12.397984 10.040656 12.205 10 12 10 z"/>
</svg>
