<?xml version="1.0"?>
<svg xmlns="http://www.w3.org/2000/svg" viewBox="0 0 24 24">
    <path d="M 6.7558594 3.5078125 C 3.9068594 5.2678125 2 8.411 2 12 C 2 17.514 6.486 22 12 22 C 17.514 22 22 17.514 22 12 C 22 8.411 20.093141 5.2678125 17.244141 3.5078125 L 16.09375 5.1523438 C 18.42575 6.5513437 20 9.088 20 12 C 20 16.411 16.411 20 12 20 C 7.589 20 4 16.411 4 12 C 4 9.088 5.57425 6.5513438 7.90625 5.1523438 L 6.7558594 3.5078125 z M 12 4 L 8 8 L 11 8 L 11 15 L 13 15 L 13 8 L 16 8 L 12 4 z"/>
</svg>
