<?xml version="1.0"?>
<svg xmlns="http://www.w3.org/2000/svg" viewBox="0 0 24 24">
    <path style="line-height:normal;text-indent:0;text-align:start;text-decoration-line:none;text-decoration-style:solid;text-decoration-color:#000;text-transform:none;block-progression:tb;isolation:auto;mix-blend-mode:normal" d="M 4 3 L 4 8 L 6 8 L 6 5 L 18 5 L 18 8 L 20 8 L 20 3 L 4 3 z M 20 8 L 20 12 L 22 12 L 22 8 L 20 8 z M 20 12 L 17.679688 12 L 16.845703 7 L 7.1523438 7 L 6.3203125 12 L 4 12 L 4 21 L 8 21 L 8.6679688 19 L 15.333984 19 L 16 21 L 20 21 L 20 12 z M 4 12 L 4 8 L 2 8 L 2 12 L 4 12 z M 8.8457031 9 L 15.152344 9 L 15.652344 12 L 8.3457031 12 L 8.8457031 9 z M 9 15 L 15 15 L 15 17 L 9 17 L 9 15 z" font-weight="400" font-family="sans-serif" white-space="normal" overflow="visible"/>
</svg>
