<?xml version="1.0"?>
<svg xmlns="http://www.w3.org/2000/svg" viewBox="0 0 24 24">
    <path d="M 12 1 C 10.40563 1 9.0367334 1.9444041 8.3945312 3.296875 C 6.9837518 2.7939115 5.3485456 3.0928606 4.2207031 4.2207031 C 3.0928606 5.3485456 2.7939115 6.9837518 3.296875 8.3945312 C 1.9444041 9.0367334 1 10.40563 1 12 C 1 13.59437 1.9444041 14.963267 3.296875 15.605469 C 2.7939115 17.016248 3.0928606 18.651454 4.2207031 19.779297 C 5.3485456 20.907139 6.9837518 21.206089 8.3945312 20.703125 C 9.0367334 22.055596 10.40563 23 12 23 C 13.59437 23 14.963267 22.055596 15.605469 20.703125 C 17.015935 21.205388 18.649871 20.904816 19.777344 19.777344 C 20.904816 18.649871 21.205388 17.015935 20.703125 15.605469 C 22.055596 14.963267 23 13.59437 23 12 C 23 10.40563 22.055596 9.0367334 20.703125 8.3945312 C 21.205388 6.9840654 20.904816 5.3501286 19.777344 4.2226562 C 18.649871 3.0951839 17.015935 2.7946116 15.605469 3.296875 C 14.963267 1.9444041 13.59437 1 12 1 z M 12 2.5 C 13.049429 2.5 13.943673 3.1481687 14.314453 4.0644531 C 14.251457 4.1200057 14.181292 4.1624577 14.121094 4.2226562 L 12 6.34375 L 9.8789062 4.2207031 C 9.8187077 4.1605045 9.7485429 4.1180526 9.6855469 4.0625 C 10.056754 3.1471249 10.951226 2.5 12 2.5 z M 7.0488281 4.5488281 C 7.3815469 4.5488931 7.7139208 4.6179778 8.0253906 4.75 C 8.0200607 4.8343431 8 4.9143334 8 5 L 8 8 L 5 8 C 4.9143334 8 4.8343431 8.0200607 4.75 8.0253906 C 4.3643101 7.1153064 4.5395024 6.0237576 5.28125 5.28125 C 5.76925 4.79275 6.4089531 4.5487031 7.0488281 4.5488281 z M 16.949219 4.5507812 C 17.589094 4.5507812 18.23025 4.79325 18.71875 5.28125 C 19.460498 6.0229976 19.63569 7.1149112 19.25 8.0253906 C 19.165657 8.0200607 19.085667 8 19 8 L 16 8 L 16 5 C 16 4.9143334 15.979939 4.8343431 15.974609 4.75 C 16.285944 4.6180577 16.6165 4.5507812 16.949219 4.5507812 z M 9.5 5.9628906 L 10.939453 7.4042969 L 10.34375 8 L 9.5 8 L 9.5 5.9628906 z M 14.5 5.9628906 L 14.5 8 L 13.65625 8 L 13.060547 7.4042969 L 14.5 5.9628906 z M 5.9628906 9.5 L 8 9.5 L 8 10.34375 L 7.4042969 10.939453 L 5.9628906 9.5 z M 12 9.5 C 12.168584 9.5 12.332971 9.5170364 12.492188 9.5488281 C 12.543134 9.5590374 12.592222 9.5803474 12.642578 9.59375 C 12.650501 9.5958567 12.658109 9.5993768 12.666016 9.6015625 C 12.765147 9.6290894 12.865222 9.6543361 12.958984 9.6933594 C 13.006353 9.7130004 13.04937 9.7429478 13.095703 9.765625 C 13.126583 9.7807462 13.157136 9.7960307 13.1875 9.8125 C 13.25321 9.8482485 13.322789 9.8786178 13.384766 9.9199219 C 13.519693 10.009922 13.648467 10.113433 13.767578 10.232422 C 13.886567 10.351411 13.990102 10.4804 14.080078 10.615234 C 14.120409 10.67575 14.148556 10.744515 14.183594 10.808594 C 14.2262 10.886736 14.274946 10.961612 14.308594 11.042969 C 14.34416 11.12866 14.366581 11.220351 14.392578 11.310547 C 14.401283 11.34075 14.412336 11.369729 14.419922 11.400391 C 14.42558 11.423368 14.434455 11.445651 14.439453 11.46875 C 14.442021 11.480619 14.446825 11.492008 14.449219 11.503906 C 14.481524 11.664346 14.5 11.830024 14.5 12 C 14.5 12.167259 14.482478 12.330231 14.451172 12.488281 C 14.450924 12.489533 14.451422 12.490936 14.451172 12.492188 C 14.440976 12.543134 14.419639 12.592222 14.40625 12.642578 C 14.404141 12.650501 14.400625 12.658109 14.398438 12.666016 C 14.370911 12.765147 14.345664 12.865222 14.306641 12.958984 C 14.276663 13.031236 14.234304 13.098218 14.197266 13.167969 C 14.193839 13.174425 14.190987 13.181068 14.1875 13.1875 C 14.151751 13.25321 14.121382 13.322789 14.080078 13.384766 C 13.990102 13.519693 13.886567 13.648467 13.767578 13.767578 C 13.648589 13.886689 13.5196 13.990034 13.384766 14.080078 C 13.316767 14.125396 13.240442 14.158655 13.167969 14.197266 C 13.098256 14.234288 13.031205 14.276682 12.958984 14.306641 C 12.85654 14.349277 12.747481 14.377382 12.638672 14.40625 C 12.590705 14.418906 12.544599 14.439459 12.496094 14.449219 C 12.335654 14.481524 12.169976 14.5 12 14.5 C 11.832741 14.5 11.669769 14.482478 11.511719 14.451172 C 11.510503 14.45093 11.509028 14.451415 11.507812 14.451172 C 11.456867 14.440976 11.407777 14.419639 11.357422 14.40625 C 11.3495 14.404141 11.34189 14.400625 11.333984 14.398438 C 11.234853 14.370911 11.134778 14.345664 11.041016 14.306641 C 10.968764 14.276682 10.901782 14.234288 10.832031 14.197266 C 10.825613 14.193846 10.818885 14.190974 10.8125 14.1875 C 10.74679 14.151751 10.677211 14.121382 10.615234 14.080078 C 10.480307 13.990102 10.351533 13.886567 10.232422 13.767578 C 10.113311 13.648589 10.009966 13.5196 9.9199219 13.384766 C 9.8795914 13.32425 9.8514438 13.255485 9.8164062 13.191406 C 9.7738005 13.113264 9.725054 13.038388 9.6914062 12.957031 C 9.6439308 12.842646 9.6103174 12.721836 9.5800781 12.599609 C 9.5744126 12.576606 9.5655501 12.554376 9.5605469 12.53125 C 9.5579822 12.519396 9.5531721 12.507976 9.5507812 12.496094 C 9.5184756 12.335654 9.5 12.169976 9.5 12 C 9.5 11.831416 9.5170364 11.667029 9.5488281 11.507812 C 9.5590372 11.456867 9.5803477 11.407777 9.59375 11.357422 C 9.5958564 11.3495 9.5993771 11.34189 9.6015625 11.333984 C 9.6290894 11.234853 9.6543361 11.134778 9.6933594 11.041016 C 9.7233366 10.968764 9.7656958 10.901782 9.8027344 10.832031 C 9.8413447 10.759558 9.8746044 10.683233 9.9199219 10.615234 C 10.009922 10.480307 10.113433 10.351533 10.232422 10.232422 C 10.351411 10.113433 10.4804 10.009898 10.615234 9.9199219 C 10.683233 9.8746044 10.759558 9.8413447 10.832031 9.8027344 C 10.901744 9.7657119 10.968795 9.7233179 11.041016 9.6933594 C 11.14346 9.6507226 11.252519 9.6226176 11.361328 9.59375 C 11.409295 9.5810941 11.455401 9.5605406 11.503906 9.5507812 C 11.664346 9.5184756 11.830024 9.5 12 9.5 z M 16 9.5 L 18.037109 9.5 L 16.595703 10.939453 L 16 10.34375 L 16 9.5 z M 4.0625 9.6855469 C 4.1180526 9.7485429 4.1605045 9.8187077 4.2207031 9.8789062 L 6.3417969 12 L 4.2207031 14.121094 C 4.1605045 14.181292 4.1180526 14.251457 4.0625 14.314453 C 3.1471249 13.943246 2.5 13.048774 2.5 12 C 2.5 10.951226 3.1471249 10.056754 4.0625 9.6855469 z M 19.935547 9.6855469 C 20.851831 10.056327 21.5 10.950571 21.5 12 C 21.5 13.049429 20.851831 13.943673 19.935547 14.314453 C 19.879994 14.251457 19.837542 14.181292 19.777344 14.121094 L 17.65625 12 L 19.777344 9.8789062 C 19.837542 9.8187077 19.879994 9.7485429 19.935547 9.6855469 z M 7.4042969 13.060547 L 8 13.65625 L 8 14.5 L 5.9628906 14.5 L 7.4042969 13.060547 z M 16.595703 13.060547 L 18.037109 14.5 L 16 14.5 L 16 13.65625 L 16.595703 13.060547 z M 4.75 15.974609 C 4.8343431 15.979939 4.9143334 16 5 16 L 8 16 L 8 19 C 8 19.085667 8.0200607 19.165657 8.0253906 19.25 C 7.1153064 19.63569 6.0237576 19.460498 5.28125 18.71875 C 4.5395024 17.977002 4.3643101 16.885089 4.75 15.974609 z M 19.25 15.974609 C 19.63569 16.884694 19.460498 17.976242 18.71875 18.71875 C 17.977002 19.460498 16.885089 19.63569 15.974609 19.25 C 15.979939 19.165657 16 19.085667 16 19 L 16 16 L 19 16 C 19.085667 16 19.165657 15.979939 19.25 15.974609 z M 9.5 16 L 10.34375 16 L 10.939453 16.595703 L 9.5 18.037109 L 9.5 16 z M 13.65625 16 L 14.5 16 L 14.5 18.037109 L 13.060547 16.595703 L 13.65625 16 z M 12 17.65625 L 14.121094 19.777344 C 14.181292 19.837542 14.251457 19.879994 14.314453 19.935547 C 13.943673 20.851831 13.049429 21.5 12 21.5 C 10.951226 21.5 10.056754 20.852875 9.6855469 19.9375 C 9.7485429 19.881947 9.8187077 19.839495 9.8789062 19.779297 L 12 17.65625 z"/>
</svg>
