<?xml version="1.0"?>
<svg xmlns="http://www.w3.org/2000/svg" viewBox="0 0 24 24">
    <path style="line-height:normal;text-indent:0;text-align:start;text-decoration-line:none;text-decoration-style:solid;text-decoration-color:#000;text-transform:none;block-progression:tb;isolation:auto;mix-blend-mode:normal" d="M 5 1 L 5 6.7578125 L 7 4.7578125 L 7 4 L 17 4 L 17 4.7578125 L 19 6.7578125 L 19 1 L 5 1 z M 7.2929688 7.2929688 L 2.5859375 12 L 7.2929688 16.707031 L 8.7070312 15.292969 L 5.4140625 12 L 8.7070312 8.7070312 L 7.2929688 7.2929688 z M 16.707031 7.2929688 L 15.292969 8.7070312 L 18.585938 12 L 15.292969 15.292969 L 16.707031 16.707031 L 21.414062 12 L 16.707031 7.2929688 z M 5 17.242188 L 5 23 L 19 23 L 19 17.242188 L 17 19.242188 L 17 20 L 7 20 L 7 19.242188 L 5 17.242188 z" font-weight="400" font-family="sans-serif" white-space="normal" overflow="visible"/>
</svg>
