<?xml version="1.0"?>
<svg xmlns="http://www.w3.org/2000/svg" viewBox="0 0 24 24">
    <path d="M 5.7070312 1.2929688 L 4.2929688 2.7070312 L 11.283203 9.6972656 A 1 1 0 0 0 12 10 A 1 1 0 0 0 13 9 A 1 1 0 0 0 12.707031 8.2929688 L 9.7988281 5.3847656 C 12.232287 4.5727495 15.015912 5.116596 16.949219 7.0507812 C 19.678219 9.7797813 19.678219 14.220219 16.949219 16.949219 C 14.219219 19.678219 9.7807812 19.678219 7.0507812 16.949219 C 4.5167813 14.415219 4.3397656 10.409062 6.5097656 7.6640625 L 2.6015625 3.7324219 C 1.7085625 4.6624219 1.7177969 6.1417187 2.5917969 7.0117188 L 3.8300781 8.3359375 L 3.6191406 8.7597656 C 2.738699 11.044231 2.8366832 13.610028 3.8828125 15.837891 L 2.6972656 16.939453 C 2.2482656 17.388453 2 17.985141 2 18.619141 C 2 19.254141 2.2473125 19.851781 2.6953125 20.300781 C 3.6233125 21.228781 5.1316719 21.226797 6.0136719 20.341797 L 6.9609375 19.453125 C 8.4775766 20.479063 10.238145 20.996094 12 20.996094 C 13.761855 20.996094 15.522423 20.479235 17.039062 19.453125 L 17.986328 20.341797 C 18.868328 21.226797 20.376687 21.228781 21.304688 20.300781 C 21.752687 19.851781 22 19.254141 22 18.619141 C 22 17.985141 21.751734 17.388453 21.302734 16.939453 L 20.125 15.845703 C 21.271906 13.415297 21.271196 10.58035 20.123047 8.1503906 L 21.302734 7.0566406 C 21.751734 6.6076406 22 6.0109531 22 5.3769531 C 22 4.7429531 21.752687 4.1443125 21.304688 3.6953125 C 20.376687 2.7673125 18.868328 2.7692969 17.986328 3.6542969 L 17.033203 4.5449219 C 14.416413 2.7805372 11.075699 2.5534632 8.2597656 3.8457031 L 5.7070312 1.2929688 z M 9 12 L 9 14 L 15 14 L 15 12 L 9 12 z M 9 15 L 9 17 L 13 17 L 13 15 L 9 15 z"/>
</svg>
