<?xml version="1.0"?>
<svg xmlns="http://www.w3.org/2000/svg" viewBox="0 0 24 24">
    <path style="line-height:normal;text-indent:0;text-align:start;text-decoration-line:none;text-decoration-style:solid;text-decoration-color:#000;text-transform:none;block-progression:tb;isolation:auto;mix-blend-mode:normal" d="M 12 2.0097656 C 8.144 2.0097656 5.0078125 5.1479063 5.0078125 9.0039062 C 5.0078125 13.486906 10.974516 20.769172 11.228516 21.076172 L 12 22.011719 L 12.771484 21.076172 C 12.925484 20.889172 15.176734 18.136 16.927734 15 L 10 15 L 10 4 L 16.876953 4 C 15.615953 2.771 13.896 2.0097656 12 2.0097656 z M 12 6 L 12 13 L 14 13 L 14 6 L 12 6 z M 15 6 L 15 11 L 15 13 L 17 13 L 17 11 L 17.5 11 C 18.480869 11 19.173964 10.332692 19.582031 9.5 L 20 9.5 L 20 8.5 C 20 7.1309372 18.869063 6 17.5 6 L 17 6 L 15 6 z M 17 8 L 17.5 8 C 17.786937 8 18 8.2130628 18 8.5 C 18 8.7869372 17.786937 9 17.5 9 L 17 9 L 17 8 z" font-weight="400" font-family="sans-serif" white-space="normal" overflow="visible"/>
</svg>
