<?xml version="1.0"?>
<svg xmlns="http://www.w3.org/2000/svg" viewBox="0 0 24 24">
    <path d="M 1 5 L 1 20 L 23 20 L 23 5 L 1 5 z M 7 10 L 8 10 L 8 15 L 7 15 L 7 10 z M 10.490234 10 C 11.913234 10.041 12 11.282906 12 11.503906 L 11.03125 11.503906 C 11.03125 11.400906 11.048656 10.806641 10.472656 10.806641 C 10.297656 10.806641 9.9055469 10.884187 9.9355469 11.367188 C 9.9645469 11.810188 10.547297 12.019406 10.654297 12.066406 C 10.878297 12.148406 11.987094 12.642391 11.996094 13.650391 C 11.998094 13.864391 11.942766 14.985 10.509766 15 C 8.9507656 15.017 8.8457031 13.675437 8.8457031 13.398438 L 9.8203125 13.398438 C 9.8203125 13.545438 9.8327656 14.256172 10.509766 14.201172 C 10.916766 14.167172 11.005531 13.87425 11.019531 13.65625 C 11.042531 13.28925 10.692266 13.068625 10.322266 12.890625 C 9.8022656 12.640625 8.9798437 12.333375 8.9648438 11.359375 C 8.9518438 10.482375 9.5962344 9.975 10.490234 10 z M 15 10 C 16.105 10 17 10.895 17 12 L 17 13 C 17 14.105 16.105 15 15 15 C 13.895 15 13 14.105 13 13 L 13 12 C 13 10.895 13.895 10 15 10 z M 15 11 C 14.449 11 14 11.449 14 12 L 14 13 C 14 13.551 14.449 14 15 14 C 15.551 14 16 13.551 16 13 L 16 12 C 16 11.449 15.551 11 15 11 z"/>
</svg>
