<?xml version="1.0"?>
<svg xmlns="http://www.w3.org/2000/svg" viewBox="0 0 24 24">
    <path style="line-height:normal;text-indent:0;text-align:start;text-decoration-line:none;text-decoration-style:solid;text-decoration-color:#000;text-transform:none;block-progression:tb;isolation:auto;mix-blend-mode:normal" d="M 4.5 2 C 2.57 2 1 3.57 1 5.5 C 1 7.201 3.2093438 10.820297 3.6523438 11.529297 L 4.5 12.886719 L 5.3476562 11.529297 C 5.7906563 10.820297 8 7.201 8 5.5 C 8 3.57 6.43 2 4.5 2 z M 19.5 12 C 17.57 12 16 13.57 16 15.5 C 16 17.201 18.209344 20.820297 18.652344 21.529297 L 19.5 22.886719 L 20.347656 21.529297 C 20.790656 20.820297 23 17.201 23 15.5 C 23 13.57 21.43 12 19.5 12 z M 4 15 L 4 17 L 6 17 L 6 15 L 4 15 z M 8 15 L 8 17 L 10 17 L 10 15 L 8 15 z M 12 15 L 12 17 L 14 17 L 14 15 L 12 15 z" font-weight="400" font-family="sans-serif" white-space="normal" overflow="visible"/>
</svg>
