<?xml version="1.0"?>
<svg xmlns="http://www.w3.org/2000/svg" viewBox="0 0 24 24">
    <path style="line-height:normal;text-indent:0;text-align:start;text-decoration-line:none;text-decoration-style:solid;text-decoration-color:#000;text-transform:none;block-progression:tb;isolation:auto;mix-blend-mode:normal" d="M 14 2 A 1 1 0 0 0 13 3 A 1 1 0 0 0 14 4 A 1 1 0 0 0 15 3 A 1 1 0 0 0 14 2 z M 10.5 5 A 1.5 1.5 0 0 0 9 6.5 A 1.5 1.5 0 0 0 10.5 8 A 1.5 1.5 0 0 0 12 6.5 A 1.5 1.5 0 0 0 10.5 5 z M 16 7 A 1 1 0 0 0 15 8 A 1 1 0 0 0 16 9 A 1 1 0 0 0 17 8 A 1 1 0 0 0 16 7 z M 2 9 L 2 11 C 2.6298605 11 3.1404014 11.462608 3.203125 12.089844 L 3.734375 17.398438 C 3.937596 19.434633 5.6685442 21 7.7148438 21 L 16.285156 21 C 18.33081 21 20.061566 19.434407 20.265625 17.398438 L 20.265625 17.396484 L 20.796875 12.089844 C 20.859599 11.462654 21.37014 11 22 11 L 22 9 C 20.676086 9 19.527278 9.8252265 19.042969 11 L 4.9570312 11 C 4.4727214 9.8252265 3.323914 9 2 9 z M 14.5 14 C 15.328 14 16 14.672 16 15.5 C 16 16.328 15.328 17 14.5 17 C 13.672 17 13 16.328 13 15.5 C 13 14.672 13.672 14 14.5 14 z M 10 16 C 10.552 16 11 16.448 11 17 C 11 17.552 10.552 18 10 18 C 9.448 18 9 17.552 9 17 C 9 16.448 9.448 16 10 16 z" font-weight="400" font-family="sans-serif" white-space="normal" overflow="visible"/>
</svg>
