<?xml version="1.0"?>
<svg xmlns="http://www.w3.org/2000/svg" viewBox="0 0 24 24">
    <path d="M20.996,2.911l-0.131-1.462l-1.313,0.656C15.857,3.953,11.721,7.689,8.467,12.13c-1.724,2.539-4.753,5.793-4.784,5.825 l-0.736,0.79l2.275,1.817c0.361,0.288,0.793,0.431,1.228,0.431c0.597,0,1.198-0.27,1.624-0.8l2.636-3.836 c0.596-0.789,0.945-0.611,1.198-0.443c0.713,0.607,1.316,1.25,1.953,2.123l0.745,1.021l0.821-0.96 C21.63,10.861,21.024,3.231,20.996,2.911z M14.677,15.851c-1.137-1.31-2.325-2.183-4-3.334c2.514-3.256,5.495-6.049,8.308-7.799 C18.825,7.024,18.048,11.454,14.677,15.851z"/>
</svg>
