<?xml version="1.0"?>
<svg xmlns="http://www.w3.org/2000/svg" viewBox="0 0 24 24">
    <path d="M 12 2 C 6.49 2 2 6.49 2 12 C 2 17.51 6.49 22 12 22 C 17.51 22 22 17.51 22 12 C 22 6.49 17.51 2 12 2 z M 11 5 L 13 5 L 13 8.140625 C 13.02 8.150625 13.040547 8.1601562 13.060547 8.1601562 L 14.630859 5.4394531 L 16.369141 6.4394531 L 14.800781 9.1503906 L 14.849609 9.1992188 L 17.560547 7.6308594 L 18.560547 9.3691406 L 15.839844 10.939453 C 15.839844 10.959453 15.849375 10.98 15.859375 11 L 19 11 L 19 13 L 15.859375 13 C 15.849375 13.02 15.839844 13.040547 15.839844 13.060547 L 18.560547 14.630859 L 17.560547 16.369141 L 14.849609 14.800781 L 14.800781 14.849609 L 16.369141 17.560547 L 14.630859 18.560547 L 13.060547 15.839844 C 13.040547 15.839844 13.02 15.849375 13 15.859375 L 13 19 L 11 19 L 11 15.859375 C 10.98 15.849375 10.959453 15.839844 10.939453 15.839844 L 9.3691406 18.560547 L 7.6308594 17.560547 L 9.1992188 14.849609 L 9.1503906 14.800781 L 6.4394531 16.369141 L 5.4394531 14.630859 L 8.1601562 13.060547 C 8.1601562 13.040547 8.150625 13.02 8.140625 13 L 5 13 L 5 11 L 8.140625 11 C 8.150625 10.98 8.1601562 10.959453 8.1601562 10.939453 L 5.4394531 9.3691406 L 6.4394531 7.6308594 L 9.1503906 9.1992188 L 9.1992188 9.1503906 L 7.6308594 6.4394531 L 9.3691406 5.4394531 L 10.939453 8.1601562 C 10.959453 8.1601562 10.98 8.150625 11 8.140625 L 11 5 z M 12 10 A 2 2 0 0 0 10 12 A 2 2 0 0 0 12 14 A 2 2 0 0 0 14 12 A 2 2 0 0 0 12 10 z"/>
</svg>
