<?xml version="1.0"?>
<svg xmlns="http://www.w3.org/2000/svg" viewBox="0 0 24 24">
    <path d="M 8.5 2 C 7.296 2 6 3.408 6 6.5 L 6 8.5859375 L 2 12.585938 L 2 16 L 4 16 L 4 13.414062 L 6 11.414062 L 6 16 L 11 16 L 11 6.5 C 11 3.408 9.704 2 8.5 2 z M 15.5 2 C 14.296 2 13 3.408 13 6.5 L 13 16 L 18 16 L 18 11.414062 L 20 13.414062 L 20 16 L 22 16 L 22 12.585938 L 18 8.5859375 L 18 6.5 C 18 3.408 16.704 2 15.5 2 z M 9.5 18 C 8.672 18 8 18.672 8 19.5 C 8 20.5 9.5 23 9.5 23 C 9.5 23 11 20.5 11 19.5 C 11 18.672 10.328 18 9.5 18 z M 14.5 18 C 13.672 18 13 18.672 13 19.5 C 13 20.5 14.5 23 14.5 23 C 14.5 23 16 20.5 16 19.5 C 16 18.672 15.328 18 14.5 18 z"/>
</svg>
