<?xml version="1.0"?>
<svg xmlns="http://www.w3.org/2000/svg" viewBox="0 0 24 24">
    <path d="M12,2C6.486,2,2,6.486,2,12s4.486,10,10,10s10-4.486,10-10S17.514,2,12,2z M16.756,13.523 c-0.345,1.073-1.099,1.985-2.042,2.602c-1.652,1.082-3.128,1.024-4.408,0.561l-2.26,2.26c-1.245-0.712-2.28-1.746-2.992-2.992 l2.26-2.26c-0.463-1.278-0.52-2.752,0.555-4.401c0.616-0.945,1.529-1.701,2.603-2.048c1.209-0.39,2.351-0.285,3.348,0.107L10.172,11 L13,13.828l3.648-3.648C17.039,11.176,17.145,12.315,16.756,13.523z"/>
</svg>
