<?xml version="1.0"?>
<svg xmlns="http://www.w3.org/2000/svg" viewBox="0 0 24 24">
    <path style="line-height:normal;text-indent:0;text-align:start;text-decoration-line:none;text-decoration-style:solid;text-decoration-color:#000;text-transform:none;block-progression:tb;isolation:auto;mix-blend-mode:normal" d="M 4 2 L 4 9 L 2 9 L 2 18 L 4 18 L 4 22 L 20 22 L 20 7 L 15 2 L 4 2 z M 6 4 L 14 4 L 14 8 L 18 8 L 18 9 L 6 9 L 6 4 z M 6 11 L 7 11 L 7 14.5 C 7 15.328 6.328 16 5.5 16 C 4.672 16 4 15.328 4 14.5 L 5 14.5 C 5 14.776 5.224 15 5.5 15 C 5.776 15 6 14.776 6 14.5 L 6 11 z M 8 11 L 9.5 11 C 10.328 11 11 11.672 11 12.5 C 11 13.328 10.328 14 9.5 14 L 9 14 L 9 16 L 8 16 L 8 11 z M 14.035156 11.001953 C 15.207156 11.002953 15.673281 11.538953 15.863281 12.001953 L 14.570312 12.001953 L 14 12.001953 C 13.118 11.988953 13 12.856937 13 13.085938 L 13 13.914062 C 13 14.146062 13.206781 15.011953 14.175781 15.001953 C 14.458781 14.998953 14.976 14.836266 15 14.822266 L 14.978516 14 L 14 14 L 14.021484 13 L 16 13 L 16 15.380859 C 15.94 15.436859 15.291422 15.961047 14.107422 15.998047 C 13.785422 16.008047 12.132 16.038062 12 13.914062 L 12 13.091797 C 12 12.736797 11.958156 10.999953 14.035156 11.001953 z M 9 12 L 9 13 L 9.5 13 C 9.776 13 10 12.776 10 12.5 C 10 12.224 9.776 12 9.5 12 L 9 12 z M 6 18 L 18 18 L 18 20 L 6 20 L 6 18 z" font-weight="400" font-family="sans-serif" white-space="normal" overflow="visible"/>
</svg>
