<?xml version="1.0"?>
<svg xmlns="http://www.w3.org/2000/svg" viewBox="0 0 24 24">
    <path d="M23,5H1v15h22V5z M11,13.5c0,0.828-0.672,1.5-1.5,1.5S8,14.328,8,13.5h1C9,13.776,9.224,14,9.5,14s0.5-0.224,0.5-0.5V10h1 V13.5z M13.655,12.066c0.224,0.082,1.332,0.576,1.341,1.584c0.002,0.214-0.053,1.335-1.486,1.35 c-1.559,0.017-1.665-1.324-1.665-1.601h0.975c0,0.147,0.013,0.857,0.69,0.802c0.407-0.034,0.495-0.327,0.509-0.545 c0.023-0.367-0.327-0.587-0.697-0.765c-0.52-0.25-1.343-0.557-1.358-1.531c-0.013-0.877,0.632-1.385,1.526-1.36 c1.423,0.041,1.51,1.283,1.51,1.504h-0.968c0-0.103,0.017-0.698-0.559-0.698c-0.175,0-0.568,0.078-0.538,0.561 C12.964,11.81,13.548,12.019,13.655,12.066z"/>
</svg>
