<?xml version="1.0"?>
<svg xmlns="http://www.w3.org/2000/svg" viewBox="0 0 24 24">
    <path d="M 16 3 C 14.35 3 13 4.35 13 6 C 13 7.3 13.84 8.4003125 15 8.8203125 L 15 13 L 19 13 L 19 11 L 17 11 L 17 8.8203125 C 18.16 8.4003125 19 7.3 19 6 C 19 4.35 17.65 3 16 3 z M 16 5 C 16.55 5 17 5.45 17 6 C 17 6.55 16.55 7 16 7 C 15.45 7 15 6.55 15 6 C 15 5.45 15.45 5 16 5 z M 6 11 L 1 12.107422 L 1 19.308594 L 5 18 L 14.179688 21.212891 L 22.462891 16.783203 L 21.285156 14.267578 L 14.083984 17.570312 L 13.712891 17.082031 L 14.855469 14.578125 L 6 11 z"/>
</svg>
