<?xml version="1.0"?>
<svg xmlns="http://www.w3.org/2000/svg" viewBox="0 0 24 24">
    <path d="M 13 2 A 2 2 0 0 0 11 4 A 2 2 0 0 0 13 6 A 2 2 0 0 0 15 4 A 2 2 0 0 0 13 2 z M 9.7890625 5.9375 L 6.2246094 8.3144531 L 4.734375 11.292969 L 6.5234375 12.1875 L 7.7753906 9.6855469 L 9.5957031 8.4726562 L 9.5 8.8007812 L 8.0625 12.59375 L 6.7753906 15.71875 L 8.625 16.480469 L 9.6699219 13.941406 L 10.525391 14.109375 L 8.0644531 20.648438 L 9.9355469 21.351562 L 13.003906 13.203125 L 14.65625 8.9550781 L 20.035156 12.015625 L 21.023438 10.277344 L 15.353516 7.0507812 L 9.7890625 5.9375 z M 5 18 A 2 2 0 0 0 3 20 A 2 2 0 0 0 5 22 A 2 2 0 0 0 7 20 A 2 2 0 0 0 5 18 z"/>
</svg>
