<?xml version="1.0"?>
<svg xmlns="http://www.w3.org/2000/svg" viewBox="0 0 24 24">
    <path d="M 4 1 L 4 22 C 4 22 6.0839688 23 12.042969 23 C 18.001969 23 20 22 20 22 L 20 1 L 4 1 z M 6 4 L 18 4 L 18 18 L 6 18 L 6 4 z M 8 6 L 8 8 L 16 8 L 16 6 L 8 6 z M 8 10 L 8 12 L 13 12 L 13 10 L 8 10 z M 8 14 L 8 16 L 16 16 L 16 14 L 8 14 z M 12 18.875 C 12.622 18.875 13.125 19.378 13.125 20 C 13.125 20.622 12.622 21.125 12 21.125 C 11.378 21.125 10.875 20.622 10.875 20 C 10.875 19.378 11.378 18.875 12 18.875 z"/>
</svg>
