<?xml version="1.0"?>
<svg xmlns="http://www.w3.org/2000/svg" viewBox="0 0 24 24">
    <path d="M 12 2 C 6.477 2 2 6.477 2 12 C 2 17.523 6.477 22 12 22 C 14.528 22 16.830797 21.054813 18.591797 19.507812 C 17.367797 18.392812 16 16.907219 16 15.199219 C 16 13.434219 17.434219 12 19.199219 12 C 19.888219 12 20.487562 12.150656 20.976562 12.347656 C 21.269562 12.230656 21.619094 12.143078 21.996094 12.080078 C 21.996094 12.052078 22 12.027 22 12 C 22 6.477 17.523 2 12 2 z M 6 10 L 11 10 C 11 11.121 9.902 12 8.5 12 C 7.098 12 6 11.121 6 10 z M 13 10 L 18 10 C 18 11.121 16.902 12 15.5 12 C 14.098 12 13 11.121 13 10 z M 10 14 L 12.5 14 C 13.327 14 14 14.673 14 15.5 C 14 15.884 13.855188 16.234 13.617188 16.5 C 13.855187 16.766 14 17.116 14 17.5 C 14 18.327 13.327 19 12.5 19 L 10 19 L 10 17 L 12 17 L 12 16 L 10 16 L 10 14 z M 19.199219 14 C 18.537219 14 18 14.537219 18 15.199219 C 18 16.277219 19.459766 17.598703 20.009766 18.095703 L 20.193359 18.263672 C 20.446359 18.499672 20.745 18.745313 21 18.945312 C 21.255 18.745313 21.552688 18.500625 21.804688 18.265625 L 21.990234 18.095703 C 22.540234 17.598703 24 16.277219 24 15.199219 C 24 14.537219 23.462781 14 22.800781 14 C 21.654781 14 20.990234 14.644531 20.990234 14.644531 C 20.985234 14.639531 20.254219 14 19.199219 14 z"/>
</svg>
