<?xml version="1.0"?>
<svg xmlns="http://www.w3.org/2000/svg" viewBox="0 0 24 24">
    <path style="line-height:normal;text-indent:0;text-align:start;text-decoration-line:none;text-decoration-style:solid;text-decoration-color:#000;text-transform:none;block-progression:tb;isolation:auto;mix-blend-mode:normal" d="M 4 2 L 4 9 L 2 9 L 2 18 L 4 18 L 4 22 L 20 22 L 20 16 L 20 11 L 20 7 L 15 2 L 4 2 z M 6 4 L 14 4 L 14 8 L 18 8 L 18 9 L 6 9 L 6 4 z M 4 11 L 5 11 L 5 12.882812 L 5.9414062 11 L 7.0585938 11 L 5.7714844 13.5 L 7.0585938 16 L 5.9414062 16 L 5 14.117188 L 5 16 L 4 16 L 4 11 z M 14 11 L 15 11 L 15 15 L 17 15 L 17 16 L 14 16 L 14 11 z M 8 11.023438 L 9.4570312 11.023438 L 10.501953 14.623047 L 11.542969 11.023438 L 13 11.023438 L 13 16 L 12 16 L 12 14.652344 L 12.103516 12.578125 L 10.876953 16 L 10.117188 16 L 8.8984375 12.578125 L 9 14.652344 L 9 16 L 8 16 L 8 11.023438 z M 6 18 L 18 18 L 18 20 L 6 20 L 6 18 z" font-weight="400" font-family="sans-serif" white-space="normal" overflow="visible"/>
</svg>
