<?xml version="1.0"?>
<svg xmlns="http://www.w3.org/2000/svg" viewBox="0 0 24 24">
    <path d="M 6 2 L 6 10 L 7 10 C 10.491 10 12.226969 11.643031 12.292969 11.707031 L 12.994141 12.396484 L 13.701172 11.712891 C 13.773172 11.643891 15.509 10 19 10 L 20 10 L 20 2 L 19 2 C 15.988 2 13.984 3.0475156 13 3.7285156 C 12.016 3.0475156 10.012 2 7 2 L 6 2 z M 6.2441406 11.865234 L 1 13.107422 L 1 20.308594 L 5 19 L 14.179688 22.212891 L 22.462891 17.783203 L 21.285156 15.267578 L 14.083984 18.570312 L 13.712891 18.082031 L 14.855469 15.578125 L 6.2441406 11.865234 z"/>
</svg>
