<?xml version="1.0"?>
<svg xmlns="http://www.w3.org/2000/svg" viewBox="0 0 24 24">
    <path d="M 4 2 L 4 22 L 20 22 L 20 2 L 4 2 z M 8 5 C 8.552 5 9 5.448 9 6 C 9 6.552 8.552 7 8 7 C 7.448 7 7 6.552 7 6 C 7 5.448 7.448 5 8 5 z M 16 5 C 16.552 5 17 5.448 17 6 C 17 6.552 16.552 7 16 7 C 15.448 7 15 6.552 15 6 C 15 5.448 15.448 5 16 5 z M 12 7 C 12.552 7 13 7.448 13 8 C 13 8.552 12.552 9 12 9 L 15 9 L 15 12 C 15 11.448 15.448 11 16 11 C 16.552 11 17 11.448 17 12 C 17 12.552 16.552 13 16 13 C 15.448 13 15 12.552 15 12 L 15 15 L 12 15 C 12.552 15 13 15.448 13 16 C 13 16.552 12.552 17 12 17 C 11.448 17 11 16.552 11 16 C 11 15.448 11.448 15 12 15 L 9 15 L 9 12 C 9 12.552 8.552 13 8 13 C 7.448 13 7 12.552 7 12 C 7 11.448 7.448 11 8 11 C 8.552 11 9 11.448 9 12 L 9 9 L 12 9 C 11.448 9 11 8.552 11 8 C 11 7.448 11.448 7 12 7 z M 12 11 A 1 1 0 0 0 11 12 A 1 1 0 0 0 12 13 A 1 1 0 0 0 13 12 A 1 1 0 0 0 12 11 z M 8 17 C 8.552 17 9 17.448 9 18 C 9 18.552 8.552 19 8 19 C 7.448 19 7 18.552 7 18 C 7 17.448 7.448 17 8 17 z M 16 17 C 16.552 17 17 17.448 17 18 C 17 18.552 16.552 19 16 19 C 15.448 19 15 18.552 15 18 C 15 17.448 15.448 17 16 17 z"/>
</svg>
