<?xml version="1.0"?>
<svg xmlns="http://www.w3.org/2000/svg" viewBox="0 0 24 24">
    <path style="line-height:normal;text-indent:0;text-align:start;text-decoration-line:none;text-decoration-style:solid;text-decoration-color:#000;text-transform:none;block-progression:tb;isolation:auto;mix-blend-mode:normal" d="M 8 2 C 6.3545455 2 5 3.3545455 5 5 L 5 22 L 7 22 L 7 5 C 7 4.4454545 7.4454545 4 8 4 L 9 4 L 9 2 L 8 2 z M 20 2 C 18.354545 2 17 3.3545455 17 5 L 17 6 L 8 6 L 8 8 L 17 8 L 17 10 L 8 10 L 8 12 L 17 12 L 17 14 L 8 14 L 8 16 L 17 16 L 17 18 L 8 18 L 8 20 L 17 20 L 17 22 L 19 22 L 19 5 C 19 4.4454545 19.445455 4 20 4 L 21 4 L 21 2 L 20 2 z" font-weight="400" font-family="sans-serif" white-space="normal" overflow="visible"/>
</svg>
