<?xml version="1.0"?>
<svg xmlns="http://www.w3.org/2000/svg" viewBox="0 0 24 24">
    <path style="line-height:normal;text-indent:0;text-align:start;text-decoration-line:none;text-decoration-style:solid;text-decoration-color:#000;text-transform:none;block-progression:tb;isolation:auto;mix-blend-mode:normal" d="M 22 3 C 20.949492 3 20.133073 3.3742063 19.611328 3.7558594 C 19.350456 3.9466859 19.15846 4.1380848 19.025391 4.2890625 C 18.958861 4.3645515 18.906945 4.4296289 18.869141 4.4804688 C 18.850241 4.5058888 18.835939 4.5279379 18.824219 4.5449219 C 18.818319 4.5534119 18.811924 4.5614393 18.808594 4.5664062 L 11.515625 14.416016 C 11.07651 13.557193 10.38109 12.766459 9.4628906 12.136719 C 8.4355273 11.43211 7.3172815 11.041598 6.2539062 11.003906 C 5.1905301 10.966214 4.0932791 11.318973 3.4667969 12.232422 C 3.3706977 12.37254 3.2952132 12.518157 3.2304688 12.667969 C 2.3670384 13.931923 2 15.197098 2 16.332031 C 2 17.990031 2.7954062 19.318687 3.8164062 20.054688 C 4.6184063 20.632687 5.554 20.99 6.625 21 C 8.0609674 21.012991 9.6801424 20.280784 11.246094 18.107422 C 11.24722 18.105859 11.248874 18.10508 11.25 18.103516 C 11.351606 17.999404 11.447813 17.888175 11.533203 17.763672 C 11.544184 17.747661 11.551942 17.730999 11.5625 17.714844 L 20.441406 5.7207031 L 18.638672 5.1269531 C 18.638672 5.1269531 20.471213 5.6789261 20.470703 5.6796875 C 20.471227 5.6789415 20.471809 5.6776481 20.474609 5.6738281 C 20.482509 5.6632261 20.498931 5.6413551 20.525391 5.6113281 C 20.578321 5.5512741 20.668841 5.4618922 20.792969 5.3710938 C 21.041232 5.1894973 21.406508 5 22 5 L 22 3 z M 6.1835938 13.001953 C 6.7869136 13.023343 7.5876632 13.274637 8.3320312 13.785156 C 9.0763984 14.295675 9.6006296 14.950738 9.8378906 15.505859 C 10.075151 16.06098 10.029844 16.42128 9.8847656 16.632812 C 9.7396873 16.844345 9.4197253 17.015525 8.8164062 16.994141 C 8.2130865 16.972755 7.4123358 16.721457 6.6679688 16.210938 C 5.9236007 15.700418 5.4013235 15.045355 5.1640625 14.490234 C 4.9268023 13.935114 4.9701565 13.574813 5.1152344 13.363281 C 5.2603123 13.151748 5.5802747 12.980569 6.1835938 13.001953 z" font-weight="400" font-family="sans-serif" white-space="normal" overflow="visible"/>
</svg>
