<?xml version="1.0"?>
<svg xmlns="http://www.w3.org/2000/svg" viewBox="0 0 24 24">
    <path style="line-height:normal;text-indent:0;text-align:start;text-decoration-line:none;text-decoration-style:solid;text-decoration-color:#000;text-transform:none;block-progression:tb;isolation:auto;mix-blend-mode:normal" d="M 5.9121094 2 L 3 14 L 9.1113281 14 C 9.3398475 15.133638 9.883569 16.337891 10.34375 17.353516 C 10.61275 17.946516 10.981 18.761 11 19 L 11 20 L 7 20 L 7 22 L 17 22 L 17 20 L 13 20 L 13 19.007812 C 13.02 18.757812 13.38825 17.945516 13.65625 17.353516 C 14.116431 16.337891 14.660152 15.133638 14.888672 14 L 21 14 L 18.087891 2 L 5.9121094 2 z M 7.4863281 4 L 16.515625 4 L 18.457031 12 L 5.5449219 12 L 7.4863281 4 z" font-weight="400" font-family="sans-serif" white-space="normal" overflow="visible"/>
</svg>
