<?xml version="1.0"?>
<svg xmlns="http://www.w3.org/2000/svg" viewBox="0 0 24 24">
    <path style="line-height:normal;text-indent:0;text-align:start;text-decoration-line:none;text-decoration-style:solid;text-decoration-color:#000;text-transform:none;block-progression:tb;isolation:auto;mix-blend-mode:normal" d="M 2 3 L 2 13 L 11 13 L 11 17 L 13 17 L 13 13 L 22 13 L 22 3 L 2 3 z M 5.8359375 5.2421875 C 6.8179375 5.2421875 7.5195312 5.8823906 7.5195312 6.9003906 L 6.4394531 6.9003906 C 6.4394531 6.7873906 6.4374063 6.1308594 5.8164062 6.1308594 C 5.2284062 6.1308594 5.2167969 6.664 5.2167969 6.75 C 5.2167969 7.78 7.515625 7.3175781 7.515625 9.2675781 C 7.515625 10.707578 6.1134219 10.757813 5.8574219 10.757812 C 5.6264219 10.757812 4 10.671234 4 8.9902344 L 5.0878906 8.9902344 C 5.0878906 9.1522344 5.0394219 9.8769531 5.8574219 9.8769531 C 5.9604219 9.8769531 6.4257812 9.8663906 6.4257812 9.2753906 C 6.4257812 8.1243906 4.1328125 8.5371875 4.1328125 6.7421875 C 4.1328125 6.0361875 4.5889375 5.2421875 5.8359375 5.2421875 z M 9.7519531 5.3164062 L 10.742188 5.3164062 L 12.429688 10.683594 L 11.273438 10.683594 L 10.986328 9.5859375 L 9.5078125 9.5859375 L 9.2207031 10.683594 L 8.0742188 10.683594 L 9.7519531 5.3164062 z M 13.119141 5.3164062 L 14.201172 5.3164062 L 14.201172 9.7832031 L 16.103516 9.7832031 L 16.103516 10.683594 L 13.119141 10.683594 L 13.119141 5.3164062 z M 16.919922 5.3164062 L 19.992188 5.3164062 L 19.992188 6.2207031 L 18.003906 6.2207031 L 18.003906 7.4882812 L 19.691406 7.4882812 L 19.691406 8.3613281 L 18.003906 8.3613281 L 18.003906 9.7832031 L 20 9.7832031 L 20 10.683594 L 16.919922 10.683594 L 16.919922 5.3164062 z M 10.244141 6.7695312 L 9.7441406 8.6816406 L 10.746094 8.6816406 L 10.244141 6.7695312 z M 5.5859375 15 L 2 18.585938 L 2 21 L 22 21 L 22 18.585938 L 18.414062 15 L 15 15 L 15 19 L 9 19 L 9 15 L 5.5859375 15 z" font-weight="400" font-family="sans-serif" white-space="normal" overflow="visible"/>
</svg>
