<?xml version="1.0"?>
<svg xmlns="http://www.w3.org/2000/svg" viewBox="0 0 24 24">
    <path d="M22,3H2v16h16l4,4V3z M7.187,7h1.625L12,15h-1.875l-0.594-1.656H6.469L5.875,15H4L7.187,7z M15.812,7h1.375v1.344H20 v1.312c-0.203,1.734-0.98,3.027-2.25,3.906c0.344,0.055,0.703,0.094,1.094,0.094V15c-1.047,0-2.023-0.203-2.844-0.531 C15.055,14.824,13.852,15,13,15v-1.344c0.383,0,1.047-0.039,1.469-0.125C13.711,12.852,13,11.414,13,10.438h1.406 c0,0.738,0.754,2.047,1.656,2.562c1.324-0.633,2.18-1.754,2.438-3.344H13V8.344h2.812V7z M8,9.031l-1.063,3h2.125L8,9.031z"/>
</svg>
