<?xml version="1.0"?>
<svg xmlns="http://www.w3.org/2000/svg" viewBox="0 0 24 24">
    <path d="M 12 2 C 8.9883724 2 6.3037203 3.3556682 4.4707031 5.4707031 L 2 3 L 2 9 L 8 9 L 5.8769531 6.8769531 C 7.3450482 5.1245479 9.5396099 4 12 4 C 16.411 4 20 7.589 20 12 L 22 12 C 22 6.486 17.514 2 12 2 z M 2 12 C 2 16.091 4.474 19.607297 8 21.154297 L 8 18.910156 C 5.613 17.526156 4 14.952 4 12 L 2 12 z M 10 14 L 10 20 L 13 20 L 13 22 L 15 22 L 15 14 L 13 14 L 13 18 L 12 18 L 12 14 L 10 14 z M 19.5 14 C 18.131133 14 17 15.131133 17 16.5 C 17 17.062659 17.197404 17.579717 17.517578 18 C 17.197404 18.420283 17 18.937341 17 19.5 C 17 20.868867 18.131133 22 19.5 22 C 20.868867 22 22 20.868867 22 19.5 C 22 18.937341 21.802596 18.420283 21.482422 18 C 21.802596 17.579717 22 17.062659 22 16.5 C 22 15.131133 20.868867 14 19.5 14 z M 19.5 16 C 19.787987 16 20 16.212013 20 16.5 C 20 16.787987 19.787987 17 19.5 17 C 19.212013 17 19 16.787987 19 16.5 C 19 16.212013 19.212013 16 19.5 16 z M 19.5 19 C 19.787987 19 20 19.212013 20 19.5 C 20 19.787987 19.787987 20 19.5 20 C 19.212013 20 19 19.787987 19 19.5 C 19 19.212013 19.212013 19 19.5 19 z"/>
</svg>
