<?xml version="1.0"?>
<svg xmlns="http://www.w3.org/2000/svg" viewBox="0 0 24 24">
    <path d="M 12 2 C 8.739 2 5.8465312 3.577 4.0195312 6 L 19.980469 6 C 18.153469 3.577 15.261 2 12 2 z M 2.8417969 8 C 2.4317969 8.935 2.1557812 9.942 2.0507812 11 L 21.949219 11 C 21.843219 9.942 21.568203 8.935 21.158203 8 L 2.8417969 8 z M 2.0507812 13 C 2.1567812 14.058 2.4317969 15.065 2.8417969 16 L 21.158203 16 C 21.568203 15.065 21.844219 14.058 21.949219 13 L 2.0507812 13 z M 4.0195312 18 C 5.8465312 20.423 8.739 22 12 22 C 15.261 22 18.153469 20.423 19.980469 18 L 4.0195312 18 z"/>
</svg>
