<?xml version="1.0"?>
<svg xmlns="http://www.w3.org/2000/svg" viewBox="0 0 24 24">
    <path d="M 11.5 2 C 11.5 2 7 4.7205469 7 9.5605469 C 7 10.362175 7.2113485 11.660902 7.4628906 13 L 7.2070312 13 L 7.1074219 13.019531 C 7.1074219 13.019531 6.0859259 13.220871 5.0761719 13.933594 C 4.0664176 14.646317 3 16.002867 3 18 L 3 19 L 20 19 L 20 18 C 20 16.002867 18.933582 14.646316 17.923828 13.933594 C 16.914074 13.220871 15.892578 13.019531 15.892578 13.019531 L 15.792969 13 L 15.53125 13 C 15.785531 11.643701 16 10.327088 16 9.5195312 C 16 4.6695313 11.5 2 11.5 2 z M 11.5 7 C 12.33 7 13 7.67 13 8.5 C 13 9.33 12.33 10 11.5 10 C 10.67 10 10 9.33 10 8.5 C 10 7.67 10.67 7 11.5 7 z M 7.4609375 15 L 7.8574219 15 C 8.0185519 15.742732 8.1774424 16.454885 8.3066406 17 L 5.2402344 17 C 5.4593319 16.363321 5.7950967 15.873708 6.2304688 15.566406 C 6.8520561 15.127666 7.420562 15.00885 7.4609375 15 z M 15.138672 15 L 15.539062 15 C 15.579443 15.0089 16.147944 15.127666 16.769531 15.566406 C 17.204903 15.873708 17.540668 16.363321 17.759766 17 L 14.691406 17 C 14.819607 16.45609 14.978611 15.741044 15.138672 15 z M 10 21 C 10 22.483 11.5 23.966797 11.5 23.966797 C 11.5 23.966797 13 22.483 13 21 L 10 21 z"/>
</svg>
