<?xml version="1.0"?>
<svg xmlns="http://www.w3.org/2000/svg" viewBox="0 0 24 24">
    <path d="M 12 2 L 7 7 L 11 7 L 11 17 L 13 17 L 13 7 L 17 7 L 12 2 z M 9 15.181641 C 6.054 15.535641 3 16.47 3 18.5 C 3 21.263 8.657 22 12 22 C 15.343 22 21 21.263 21 18.5 C 21 16.47 17.946 15.535641 15 15.181641 L 15 17.193359 C 17.359 17.512359 18.706609 18.151 18.974609 18.5 C 18.607609 18.976 16.246 20 12 20 C 7.754 20 5.3923906 18.976 5.0253906 18.5 C 5.2933906 18.152 6.641 17.513359 9 17.193359 L 9 15.181641 z"/>
</svg>
