<?xml version="1.0"?>
<svg xmlns="http://www.w3.org/2000/svg" viewBox="0 0 24 24">
    <path d="M 2 4 L 2 20 L 10.277344 20 C 10.623613 20.595634 11.261054 21 12 21 C 12.738946 21 13.376387 20.595634 13.722656 20 L 22 20 L 22 4 L 13 4 L 13 18 L 11 18 L 11 4 L 2 4 z M 17 7 L 18 7 L 18 8.0195312 L 18.134766 8.0214844 C 18.417766 8.0714844 20 8.401625 20 10.515625 L 18.335938 10.515625 C 18.335938 9.410625 17.820469 9.2363281 17.605469 9.2363281 C 17.487469 9.2363281 16.941406 9.264875 16.941406 10.171875 C 16.942406 11.754875 19.988281 11.260844 19.988281 13.839844 C 19.988281 15.712844 18.305812 15.966 18.007812 16 L 18 16 L 18 17 L 17 17 L 17 16 L 17.123047 16 C 16.848047 15.965 15 15.780125 15 13.453125 L 16.664062 13.453125 C 16.664062 14.827125 17.440594 14.769531 17.558594 14.769531 C 17.688594 14.769531 18.324219 14.747609 18.324219 13.849609 C 18.324219 12.055609 15.277344 12.852063 15.277344 10.164062 C 15.277344 8.6190625 16.445 8.172875 17 8.046875 L 17 7 z"/>
</svg>
