<?xml version="1.0"?>
<svg xmlns="http://www.w3.org/2000/svg" viewBox="0 0 24 24">
    <path d="M 12 2 C 9.78 2 7.7351719 2.7310781 6.0761719 3.9550781 L 8.9570312 6.8359375 C 9.8500312 6.3089375 10.888 6 12 6 C 13.112 6 14.149969 6.3089375 15.042969 6.8359375 L 17.923828 3.9550781 C 16.264828 2.7320781 14.22 2 12 2 z M 3.9550781 6.0761719 C 2.7310781 7.7351719 2 9.78 2 12 C 2 14.22 2.7310781 16.264828 3.9550781 17.923828 L 6.8359375 15.042969 C 6.3079375 14.149969 6 13.112 6 12 C 6 10.888 6.3079375 9.8500313 6.8359375 8.9570312 L 3.9550781 6.0761719 z M 20.044922 6.0761719 L 17.164062 8.9570312 C 17.692062 9.8500312 18 10.888 18 12 C 18 13.112 17.692062 14.149969 17.164062 15.042969 L 20.044922 17.923828 C 21.268922 16.264828 22 14.22 22 12 C 22 9.78 21.268922 7.7351719 20.044922 6.0761719 z M 8.9570312 17.164062 L 6.0761719 20.044922 C 7.7351719 21.268922 9.78 22 12 22 C 14.22 22 16.264828 21.268922 17.923828 20.044922 L 15.042969 17.164062 C 14.149969 17.692062 13.112 18 12 18 C 10.888 18 9.8500313 17.692062 8.9570312 17.164062 z"/>
</svg>
