<?xml version="1.0"?>
<svg xmlns="http://www.w3.org/2000/svg" viewBox="0 0 24 24">
    <path d="M 3 2 L 3 4 L 5 4 L 5 19 L 9.5 19 L 17.5 19 L 21 19 L 21 17.492188 L 16.505859 13.5 L 21 9.5078125 L 21 8 L 9 8 L 9 9.5078125 L 13.494141 13.5 L 9.5527344 17 L 7 17 L 7 2 L 3 2 z M 17.5 19 A 1.5 1.5 0 0 0 16 20.5 A 1.5 1.5 0 0 0 17.5 22 A 1.5 1.5 0 0 0 19 20.5 A 1.5 1.5 0 0 0 17.5 19 z M 9.5 19 A 1.5 1.5 0 0 0 8 20.5 A 1.5 1.5 0 0 0 9.5 22 A 1.5 1.5 0 0 0 11 20.5 A 1.5 1.5 0 0 0 9.5 19 z M 12.566406 10 L 17.433594 10 L 15 12.162109 L 12.566406 10 z M 15 14.837891 L 17.433594 17 L 12.566406 17 L 15 14.837891 z"/>
</svg>
