<?xml version="1.0"?>
<svg xmlns="http://www.w3.org/2000/svg" viewBox="0 0 24 24">
    <path style="line-height:normal;text-indent:0;text-align:start;text-decoration-line:none;text-decoration-style:solid;text-decoration-color:#000;text-transform:none;block-progression:tb;isolation:auto;mix-blend-mode:normal" d="M 12.171875 2.0019531 C 11.552977 1.9888984 10.916734 2.0456406 10.271484 2.1816406 C 7.7524844 2.7126406 5.6188594 4.5067656 4.6308594 6.8847656 C 2.8248594 11.234766 5.087 15.824063 9 17.414062 L 9 22 L 15 22 L 15 17.414062 C 17.978 16.204062 20 13.257 20 10 C 20 5.646 16.504164 2.0933359 12.171875 2.0019531 z M 12 4 C 15.314 4 18 6.686 18 10 C 18 13.314 15.314 16 12 16 C 8.686 16 6 13.314 6 10 C 6 6.686 8.686 4 12 4 z M 10.439453 7.0253906 L 9.0253906 8.4394531 L 10.585938 10 L 9.0253906 11.560547 L 10.439453 12.974609 L 12 11.414062 L 13.560547 12.974609 L 14.974609 11.560547 L 13.414062 10 L 14.974609 8.4394531 L 13.560547 7.0253906 L 12 8.5859375 L 10.439453 7.0253906 z" font-weight="400" font-family="sans-serif" white-space="normal" overflow="visible"/>
</svg>
