<?xml version="1.0"?>
<svg xmlns="http://www.w3.org/2000/svg" viewBox="0 0 24 24">
    <path d="M 2 3 L 2 17 L 4 17 L 4 11 L 5.5 11 C 7.0673051 11 8.3546487 9.9301826 8.7949219 8.5 L 9 8.5 L 9 7.5 C 9 6.107438 10.107438 5 11.5 5 C 12.892562 5 14 6.107438 14 7.5 L 14 10.183594 C 12.838749 10.597861 12 11.698391 12 13 L 12 14 C 8.858 15.175 8 17.464 8 19 L 8 20 L 13 20 C 13 21.105 13.895 22 15 22 C 16.105 22 17 21.105 17 20 L 22 20 L 22 19 C 22 17.464 21.142 15.175 18 14 L 18 13 C 18 11.698391 17.161251 10.597861 16 10.183594 L 16 7.5 C 16 5.026562 13.973438 3 11.5 3 C 9.026562 3 7 5.026562 7 7.5 C 7 8.3408117 6.3408117 9 5.5 9 L 4 9 L 4 3 L 2 3 z M 15 12 C 15.552 12 16 12.448 16 13 L 16 14 L 14 14 L 14 13 C 14 12.448 14.448 12 15 12 z"/>
</svg>
