<?xml version="1.0"?>
<svg xmlns="http://www.w3.org/2000/svg" viewBox="0 0 24 24">
    <path d="M 12.384766 2.0078125 C 11.867563 1.9830469 11.337578 2.0083906 10.798828 2.0878906 C 7.8098281 2.5298906 5.2800469 4.71075 4.3730469 7.59375 C 3.0740469 11.72375 5.299 15.910062 9 17.414062 L 9 22 L 15 22 L 15 17.414062 C 15.555 17.189062 16.062922 16.884828 16.544922 16.548828 C 15.821922 16.277828 15.153406 15.897016 14.566406 15.416016 C 14.293406 15.546016 14.009844 15.660047 13.714844 15.748047 C 13.714844 15.748047 13 16 12 16 C 11 16 10.484375 15.806641 10.484375 15.806641 C 8.141375 15.111641 6.3210156 13.136984 6.0410156 10.708984 C 5.6230156 7.0849844 8.458 4 12 4 C 12.919 4 13.787406 4.2139844 14.566406 4.5839844 C 15.159406 4.0979844 15.836359 3.7134063 16.568359 3.4414062 C 15.369859 2.6036562 13.936375 2.0821094 12.384766 2.0078125 z M 18.064453 5 C 17.935453 5 17.8275 5.0966094 17.8125 5.2246094 L 17.695312 6.2363281 C 17.211312 6.4043281 16.773531 6.6602813 16.394531 6.9882812 L 15.457031 6.5820312 C 15.339031 6.5310312 15.202672 6.5784531 15.138672 6.6894531 L 14.201172 8.3105469 C 14.137172 8.4215469 14.166531 8.563625 14.269531 8.640625 L 15.076172 9.2402344 C 15.028172 9.4872344 15 9.74 15 10 C 15 10.26 15.028172 10.512766 15.076172 10.759766 L 14.269531 11.359375 C 14.166531 11.436375 14.136172 11.578453 14.201172 11.689453 L 15.138672 13.310547 C 15.202672 13.422547 15.339031 13.467016 15.457031 13.416016 L 16.394531 13.011719 C 16.773531 13.340719 17.211312 13.595672 17.695312 13.763672 L 17.8125 14.775391 C 17.8275 14.903391 17.935453 15 18.064453 15 L 19.935547 15 C 20.064547 15 20.1725 14.903391 20.1875 14.775391 L 20.304688 13.763672 C 20.788688 13.595672 21.226469 13.339719 21.605469 13.011719 L 22.542969 13.417969 C 22.660969 13.468969 22.797328 13.421547 22.861328 13.310547 L 23.798828 11.689453 C 23.862828 11.577453 23.833469 11.435375 23.730469 11.359375 L 22.923828 10.759766 C 22.971828 10.512766 23 10.26 23 10 C 23 9.74 22.971828 9.4872344 22.923828 9.2402344 L 23.730469 8.640625 C 23.833469 8.563625 23.863828 8.4215469 23.798828 8.3105469 L 22.861328 6.6894531 C 22.797328 6.5784531 22.660969 6.5310312 22.542969 6.5820312 L 21.605469 6.9882812 C 21.226469 6.6602812 20.788688 6.4043281 20.304688 6.2363281 L 20.1875 5.2246094 C 20.1725 5.0966094 20.064547 5 19.935547 5 L 18.064453 5 z M 19 8 C 20.104 8 21 8.895 21 10 C 21 11.104 20.104 12 19 12 C 17.896 12 17 11.104 17 10 C 17 8.895 17.896 8 19 8 z"/>
</svg>
