<?xml version="1.0"?>
<svg xmlns="http://www.w3.org/2000/svg" viewBox="0 0 24 24">
    <path d="M 12 0 A 1 1 0 0 0 11 1 A 1 1 0 0 0 12 2 A 1 1 0 0 0 13 1 A 1 1 0 0 0 12 0 z M 4.2226562 3.2226562 A 1 1 0 0 0 3.2226562 4.2226562 A 1 1 0 0 0 4.2226562 5.2226562 A 1 1 0 0 0 5.2226562 4.2226562 A 1 1 0 0 0 4.2226562 3.2226562 z M 19.777344 3.2226562 A 1 1 0 0 0 18.777344 4.2226562 A 1 1 0 0 0 19.777344 5.2226562 A 1 1 0 0 0 20.777344 4.2226562 A 1 1 0 0 0 19.777344 3.2226562 z M 11.878906 5.0019531 C 8.2279063 5.0649531 5.1398594 8.0892813 5.0058594 11.738281 C 4.8988594 14.634281 6.566 17.153453 9 18.314453 L 9 23 L 15 23 L 15 18.314453 C 17.361 17.188453 19 14.785 19 12 C 19 8.099 15.793906 4.9349531 11.878906 5.0019531 z M 1 11 A 1 1 0 0 0 0 12 A 1 1 0 0 0 1 13 A 1 1 0 0 0 2 12 A 1 1 0 0 0 1 11 z M 23 11 A 1 1 0 0 0 22 12 A 1 1 0 0 0 23 13 A 1 1 0 0 0 24 12 A 1 1 0 0 0 23 11 z M 4.2226562 18.777344 A 1 1 0 0 0 3.2226562 19.777344 A 1 1 0 0 0 4.2226562 20.777344 A 1 1 0 0 0 5.2226562 19.777344 A 1 1 0 0 0 4.2226562 18.777344 z M 19.777344 18.777344 A 1 1 0 0 0 18.777344 19.777344 A 1 1 0 0 0 19.777344 20.777344 A 1 1 0 0 0 20.777344 19.777344 A 1 1 0 0 0 19.777344 18.777344 z"/>
</svg>
