<?xml version="1.0"?>
<svg xmlns="http://www.w3.org/2000/svg" viewBox="0 0 24 24">
    <path d="M22,6H12l-2-2H2v16h20V6z M13.865,15.155l-0.129,0.11C13.2,15.731,12,16.5,12,16.5s-1.2-0.769-1.736-1.236l-0.13-0.11 c-0.642-0.542-2.151-1.815-2.135-3.292c0.004-0.321,0.079-0.651,0.25-0.986c0.421-0.82,1.175-1.375,2.15-1.377 c0.615-0.001,1.35,0.35,1.6,0.746c0.275-0.396,0.986-0.747,1.6-0.746c0.975,0.001,1.729,0.557,2.149,1.377 c0.172,0.335,0.247,0.665,0.25,0.986C16.016,13.339,14.507,14.613,13.865,15.155z"/>
</svg>
