<?xml version="1.0"?>
<svg xmlns="http://www.w3.org/2000/svg" viewBox="0 0 24 24">
    <path d="M 2 4 L 2 6 L 5 6 L 5 10 L 2 10 L 2 18 L 11.142578 18 C 11.589913 19.720168 13.141562 21 15 21 C 16.858438 21 18.410087 19.720168 18.857422 18 L 22 18 L 22 14.539062 L 22 11.1875 L 15.589844 10.080078 L 11.542969 4 L 11 4 L 2 4 z M 7 6 L 10.460938 6 L 13.130859 10 L 7 10 L 7 6 z M 15 15 C 16.103 15 17 15.897 17 17 C 17 18.103 16.103 19 15 19 C 13.897 19 13 18.103 13 17 C 13 15.897 13.897 15 15 15 z"/>
</svg>
