<?xml version="1.0"?>
<svg xmlns="http://www.w3.org/2000/svg" viewBox="0 0 24 24">
    <path style="line-height:normal;text-indent:0;text-align:start;text-decoration-line:none;text-decoration-style:solid;text-decoration-color:#000;text-transform:none;block-progression:tb;isolation:auto;mix-blend-mode:normal" d="M 3 4 L 1 6 L 3 8 L 5 6 L 3 4 z M 7 5 L 7 7 L 22 7 L 22 5 L 7 5 z M 3 10 L 1 12 L 3 14 L 5 12 L 3 10 z M 7 11 L 7 13 L 22 13 L 22 11 L 7 11 z M 3 16 L 1 18 L 3 20 L 5 18 L 3 16 z M 7 17 L 7 19 L 22 19 L 22 17 L 7 17 z" font-weight="400" font-family="sans-serif" white-space="normal" overflow="visible"/>
</svg>
