<?xml version="1.0"?>
<svg xmlns="http://www.w3.org/2000/svg" viewBox="0 0 24 24">
    <path d="M 2 4 L 2 10 L 8 10 L 8 4 L 2 4 z M 13 4 L 13 10 L 19 10 L 19 4 L 13 4 z M 5 6 C 5.552 6 6 6.448 6 7 C 6 7.552 5.552 8 5 8 C 4.448 8 4 7.552 4 7 C 4 6.448 4.448 6 5 6 z M 9 6 L 9 8 L 11 8 L 11 6 L 9 6 z M 15 6 L 17 6 L 17 8 L 15 8 L 15 6 z M 20 6 L 20 8 L 22 8 L 22 6 L 20 6 z M 2 14 L 2 20 L 8 20 L 8 14 L 2 14 z M 13 14 L 13 20 L 19 20 L 19 14 L 13 14 z M 4 16 L 6 16 L 6 18 L 4 18 L 4 16 z M 9 16 L 9 18 L 11 18 L 11 16 L 9 16 z M 16 16 C 16.552 16 17 16.448 17 17 C 17 17.552 16.552 18 16 18 C 15.448 18 15 17.552 15 17 C 15 16.448 15.448 16 16 16 z M 20 16 L 20 18 L 22 18 L 22 16 L 20 16 z"/>
</svg>
