<?xml version="1.0"?>
<svg xmlns="http://www.w3.org/2000/svg" viewBox="0 0 24 24">
    <path d="M 11 1 L 11 3.0585938 C 6.8057199 3.514863 3.514863 6.8057199 3.0585938 11 L 1 11 L 1 13 L 3.0585938 13 C 3.514863 17.19428 6.8057199 20.485137 11 20.941406 L 11 23 L 13 23 L 13 20.941406 C 17.19428 20.485137 20.485137 17.19428 20.941406 13 L 23 13 L 23 11 L 20.941406 11 C 20.485137 6.8057199 17.19428 3.514863 13 3.0585938 L 13 1 L 11 1 z M 12 5 C 15.9 5 19 8.1 19 12 C 19 15.9 15.9 19 12 19 C 8.1 19 5 15.9 5 12 C 5 8.1 8.1 5 12 5 z M 9.7070312 8.2929688 L 8.2929688 9.7070312 L 10.585938 12 L 8.2929688 14.292969 L 9.7070312 15.707031 L 12 13.414062 L 14.292969 15.707031 L 15.707031 14.292969 L 13.414062 12 L 15.707031 9.7070312 L 14.292969 8.2929688 L 12 10.585938 L 9.7070312 8.2929688 z"/>
</svg>
