<?xml version="1.0"?>
<svg xmlns="http://www.w3.org/2000/svg" viewBox="0 0 24 24">
    <path style="line-height:normal;text-indent:0;text-align:start;text-decoration-line:none;text-decoration-style:solid;text-decoration-color:#000;text-transform:none;block-progression:tb;isolation:auto;mix-blend-mode:normal" d="M 5 2 L 5 22 L 19 22 L 19 19 L 17 19 L 17 20 L 7 20 L 7 4 L 17 4 L 17 5 L 19 5 L 19 2 L 5 2 z M 18 7 C 16.3 7 15 8.3 15 10 L 15 11 L 14 11 L 14 12 L 14 16 L 14 17 L 15 17 L 21 17 L 22 17 L 22 16 L 22 12 L 22 11 L 21 11 L 21 10 C 21 8.3 19.7 7 18 7 z M 18 8.5 C 18.8 8.5 19.5 9.2 19.5 10 L 19.5 11 L 16.5 11 L 16.5 10 C 16.5 9.2 17.2 8.5 18 8.5 z" font-weight="400" font-family="sans-serif" white-space="normal" overflow="visible"/>
</svg>
