<?xml version="1.0"?>
<svg xmlns="http://www.w3.org/2000/svg" viewBox="0 0 24 24">
    <path style="line-height:normal;text-indent:0;text-align:start;text-decoration-line:none;text-decoration-style:solid;text-decoration-color:#000;text-transform:none;block-progression:tb;isolation:auto;mix-blend-mode:normal" d="M 12.089844 3.0019531 C 10.345844 2.9549531 9 4.27 9 6 L 9 7 L 8 7 L 8 8 L 8 13 L 16 13 L 16 8 L 16 7 L 15 7 L 15 6.1152344 C 15 4.4742344 13.730844 3.0469531 12.089844 3.0019531 z M 12 4.5 C 12.8 4.5 13.5 5.2 13.5 6 L 13.5 7 L 10.5 7 L 10.5 6 C 10.5 5.2 11.2 4.5 12 4.5 z M 2 7 L 2 21 L 22 21 L 22 7 L 18 7 L 18 9 L 20 9 L 20 19 L 4 19 L 4 9 L 6 9 L 6 7 L 2 7 z" font-weight="400" font-family="sans-serif" white-space="normal" overflow="visible"/>
</svg>
