<?xml version="1.0"?>
<svg xmlns="http://www.w3.org/2000/svg" viewBox="0 0 24 24">
    <path style="line-height:normal;text-indent:0;text-align:start;text-decoration-line:none;text-decoration-style:solid;text-decoration-color:#000;text-transform:none;block-progression:tb;isolation:auto;mix-blend-mode:normal" d="M 12 2.0175781 L 1.2246094 13 L 4 13 L 4 21 L 10 21 L 10 13 L 14 13 L 14 21 L 20 21 L 20 13 L 22.775391 13 L 12 2.0175781 z M 12 4.8710938 L 14.087891 7 L 9.9121094 7 L 12 4.8710938 z M 7.9492188 9 L 16.050781 9 L 18.011719 11 L 5.9882812 11 L 7.9492188 9 z M 6 13 L 8 13 L 8 15 L 6 15 L 6 13 z M 16 13 L 18 13 L 18 15 L 16 15 L 16 13 z M 6 17 L 8 17 L 8 19 L 6 19 L 6 17 z M 16 17 L 18 17 L 18 19 L 16 19 L 16 17 z" font-weight="400" font-family="sans-serif" white-space="normal" overflow="visible"/>
</svg>
