<?xml version="1.0"?>
<svg xmlns="http://www.w3.org/2000/svg" viewBox="0 0 24 24">
    <path d="M 17.482422 1 C 16.614672 1.000625 15.529297 1.0924844 14.654297 1.4589844 C 12.904297 2.1919844 12 4.9511719 12 4.9511719 C 12 4.9511719 14.595703 5.2222344 16.345703 4.4902344 C 18.095703 3.7572344 19 1.0898437 19 1.0898438 C 19 1.0898438 18.350172 0.999375 17.482422 1 z M 12 5 C 9.458 5 8 6.6953437 8 9.6523438 C 8 10.297344 7.4732813 10.922531 6.8632812 11.644531 C 6.0332813 12.628531 5 13.852578 5 15.642578 C 5 19.147578 8.14 22 12 22 C 15.86 22 19 19.147578 19 15.642578 C 19 13.878578 17.972484 12.653922 17.146484 11.669922 C 16.531484 10.936922 16 10.302344 16 9.6523438 C 16 6.6953437 14.542 5 12 5 z"/>
</svg>
