<?xml version="1.0"?>
<svg xmlns="http://www.w3.org/2000/svg" viewBox="0 0 24 24">
    <path d="M 11 2.2109375 C 8.75 3.1669375 7 7.262 7 12 C 7 16.738 8.75 20.833062 11 21.789062 L 11 2.2109375 z M 13 2.2109375 L 13 21.789062 C 15.25 20.833063 17 16.738 17 12 C 17 7.262 15.25 3.1669375 13 2.2109375 z M 7.1777344 3.2460938 C 4.0947344 4.9510937 2 8.234 2 12 C 2 15.766 4.0947344 19.048906 7.1777344 20.753906 C 5.8327344 18.580906 5 15.491 5 12 C 5 8.509 5.8327344 5.4190938 7.1777344 3.2460938 z M 16.822266 3.2460938 C 18.167266 5.4190938 19 8.509 19 12 C 19 15.491 18.167266 18.580906 16.822266 20.753906 C 19.905266 19.048906 22 15.766 22 12 C 22 8.234 19.905266 4.9510938 16.822266 3.2460938 z"/>
</svg>
