<?xml version="1.0"?>
<svg xmlns="http://www.w3.org/2000/svg" viewBox="0 0 24 24">
    <path d="M 14.75 3 C 13.231 3 12 4.231 12 5.75 C 12 7.835 14.455625 9.8561406 15.140625 10.494141 C 15.928625 11.229141 17 12 17 12 C 17 12 18.071375 11.229141 18.859375 10.494141 C 19.544375 9.8561406 22 7.835 22 5.75 C 22 4.231 20.769 3 19.25 3 C 17.803 3 17 4.0449219 17 4.0449219 C 17 4.0449219 16.197 3 14.75 3 z M 2 9 L 2 10.5 L 2 19.5 L 2 21 L 3.5 21 L 20.5 21 L 22 21 L 22 19.5 L 22 10.207031 C 21.409 10.883031 20.814969 11.420297 20.417969 11.779297 L 20.222656 11.957031 C 20.150656 12.024031 20.075 12.091203 20 12.158203 L 20 18.087891 A 1.5 1.5 0 0 0 19.087891 19 L 4.9121094 19 A 1.5 1.5 0 0 0 4 18.087891 L 4 11.912109 A 1.5 1.5 0 0 0 4.9121094 11 L 12.75 11 C 12.21 10.467 11.593078 9.79 11.080078 9 L 3.5 9 L 2 9 z M 12 12 A 3 3 0 0 0 9 15 A 3 3 0 0 0 12 18 A 3 3 0 0 0 15 15 A 3 3 0 0 0 12 12 z M 7 14 C 6.448 14 6 14.447 6 15 C 6 15.553 6.448 16 7 16 C 7.552 16 8 15.553 8 15 C 8 14.447 7.552 14 7 14 z M 17 14 C 16.448 14 16 14.447 16 15 C 16 15.553 16.448 16 17 16 C 17.552 16 18 15.553 18 15 C 18 14.447 17.552 14 17 14 z"/>
</svg>
