<?xml version="1.0"?>
<svg xmlns="http://www.w3.org/2000/svg" viewBox="0 0 24 24">
    <path d="M 12 2 C 6.486 2 2 6.486 2 12 C 2 17.514 6.486 22 12 22 C 12.322 22 12.639125 21.981172 12.953125 21.951172 C 12.488125 21.415172 12.037641 20.785031 11.681641 20.082031 C 11.270641 19.270031 10.99 18.357516 11 17.353516 C 11.009 16.568516 11.192781 15.804031 11.550781 15.082031 C 12.503781 13.155031 14.277875 12.004953 16.296875 12.001953 C 17.101875 11.995953 17.830672 12.200922 18.513672 12.544922 C 18.979672 12.310922 19.487094 12.149406 19.996094 12.066406 C 20.232094 12.027406 20.467219 12 20.699219 12 L 20.703125 12 C 20.803125 12 20.899047 12.015484 20.998047 12.021484 C 21.337047 12.043484 21.669234 12.091781 21.990234 12.175781 C 21.991234 12.115781 22 12.059 22 12 C 22 6.486 17.514 2 12 2 z M 11 6 L 13 6 L 13 12.414062 L 8.7070312 16.707031 L 7.2929688 15.292969 L 11 11.585938 L 11 6 z M 16.300781 14 C 14.960781 14.002 13.924703 14.795797 13.345703 15.966797 C 13.109703 16.444797 13.006953 16.917 13.001953 17.375 C 12.979953 19.485 15.053547 21.304125 15.935547 22.078125 L 16.115234 22.234375 C 16.851234 22.901375 18.501953 24 18.501953 24 C 18.501953 24 20.150719 22.900375 20.886719 22.234375 L 21.064453 22.078125 C 21.946453 21.304125 24.022 19.485 24 17.375 C 23.996 16.917 23.89225 16.444797 23.65625 15.966797 C 23.07825 14.795797 22.041172 14.002 20.701172 14 C 19.856172 13.999 18.879953 14.500406 18.501953 15.066406 C 18.157953 14.500406 17.145781 13.999 16.300781 14 z"/>
</svg>
