<?xml version="1.0"?>
<svg xmlns="http://www.w3.org/2000/svg" viewBox="0 0 24 24">
    <path d="M 2 4 L 2 20 L 22 20 L 22 4 L 2 4 z M 8.5 6 C 9.881 6 11 7.119 11 8.5 C 11 9.881 9.881 11 8.5 11 C 7.119 11 6 9.881 6 8.5 C 6 7.119 7.119 6 8.5 6 z M 14.828125 6.9960938 L 16 7.8769531 L 9.171875 17.003906 L 8 16.123047 L 14.828125 6.9960938 z M 8.5 7.25 A 1.25 1.25 0 0 0 7.25 8.5 A 1.25 1.25 0 0 0 8.5 9.75 A 1.25 1.25 0 0 0 9.75 8.5 A 1.25 1.25 0 0 0 8.5 7.25 z M 15.5 13 C 16.881 13 18 14.119 18 15.5 C 18 16.881 16.881 18 15.5 18 C 14.119 18 13 16.881 13 15.5 C 13 14.119 14.119 13 15.5 13 z M 15.5 14.25 A 1.25 1.25 0 0 0 14.25 15.5 A 1.25 1.25 0 0 0 15.5 16.75 A 1.25 1.25 0 0 0 16.75 15.5 A 1.25 1.25 0 0 0 15.5 14.25 z"/>
</svg>
