<?xml version="1.0"?>
<svg xmlns="http://www.w3.org/2000/svg" viewBox="0 0 24 24">
    <path d="M23,4H1v16h22V4z M14,8c0.552,0,1,0.448,1,1c0,0.552-0.448,1-1,1s-1-0.448-1-1C13,8.448,13.448,8,14,8z M10,8 c0.552,0,1,0.448,1,1c0,0.552-0.448,1-1,1S9,9.552,9,9C9,8.448,9.448,8,10,8z M6,8c0.552,0,1,0.448,1,1c0,0.552-0.448,1-1,1 S5,9.552,5,9C5,8.448,5.448,8,6,8z M6,16c-0.552,0-1-0.448-1-1c0-0.552,0.448-1,1-1s1,0.448,1,1C7,15.552,6.552,16,6,16z M8,13 c-0.552,0-1-0.448-1-1c0-0.552,0.448-1,1-1s1,0.448,1,1C9,12.552,8.552,13,8,13z M4,13c-0.552,0-1-0.448-1-1c0-0.552,0.448-1,1-1 s1,0.448,1,1C5,12.552,4.552,13,4,13z M20,13c-0.552,0-1-0.448-1-1c0-0.552,0.448-1,1-1s1,0.448,1,1C21,12.552,20.552,13,20,13z M10,16c-0.552,0-1-0.448-1-1c0-0.552,0.448-1,1-1s1,0.448,1,1C11,15.552,10.552,16,10,16z M12,13c-0.552,0-1-0.448-1-1 c0-0.552,0.448-1,1-1s1,0.448,1,1C13,12.552,12.552,13,12,13z M14,16c-0.552,0-1-0.448-1-1c0-0.552,0.448-1,1-1s1,0.448,1,1 C15,15.552,14.552,16,14,16z M16,13c-0.552,0-1-0.448-1-1c0-0.552,0.448-1,1-1s1,0.448,1,1C17,12.552,16.552,13,16,13z M18,16 c-0.552,0-1-0.448-1-1c0-0.552,0.448-1,1-1s1,0.448,1,1C19,15.552,18.552,16,18,16z M18,10c-0.552,0-1-0.448-1-1 c0-0.552,0.448-1,1-1s1,0.448,1,1C19,9.552,18.552,10,18,10z"/>
</svg>
