<?xml version="1.0"?>
<svg xmlns="http://www.w3.org/2000/svg" viewBox="0 0 24 24">
    <path style="line-height:normal;text-indent:0;text-align:start;text-decoration-line:none;text-decoration-style:solid;text-decoration-color:#000;text-transform:none;block-progression:tb;isolation:auto;mix-blend-mode:normal" d="M 7 1 C 5.3550302 1 4 2.3550302 4 4 L 4 19 C 4 20.64497 5.3550302 22 7 22 L 20 22 L 20 20 L 7 20 C 6.4349698 20 6 19.56503 6 19 C 6 18.43497 6.4349698 18 7 18 L 9 18 L 20 18 L 20 3 L 9.5839844 3 C 9.1405805 1.8933056 8.2566221 1 7 1 z M 7 3 C 7.5650302 3 8 3.4349698 8 4 L 8 16 L 7 16 C 6.6481575 16 6.3148915 16.07394 6 16.1875 L 6 4 C 6 3.4349698 6.4349698 3 7 3 z M 11 6 L 17 6 L 17 8 L 11 8 L 11 6 z M 11 10 L 17 10 L 17 12 L 11 12 L 11 10 z" font-weight="400" font-family="sans-serif" white-space="normal" overflow="visible"/>
</svg>
