<?xml version="1.0"?>
<svg xmlns="http://www.w3.org/2000/svg" viewBox="0 0 24 24">
    <path style="line-height:normal;text-indent:0;text-align:start;text-decoration-line:none;text-decoration-style:solid;text-decoration-color:#000;text-transform:none;block-progression:tb;isolation:auto;mix-blend-mode:normal" d="M 8 4 C 5.2504839 4 3 6.2504839 3 9 L 3 18 L 1 18 L 1 20 L 11 20 L 12 20 L 23 20 L 23 9 C 23 6.239 20.761 4 18 4 L 8 4 z M 8 6 C 9.657 6 11 7.343 11 9 L 11 18 L 5 18 L 5 9 C 5 7.3315161 6.3315161 6 8 6 z M 14 9 L 20 9 L 20 13 L 18 13 L 18 11 L 14 11 L 14 9 z" font-weight="400" font-family="sans-serif" white-space="normal" overflow="visible"/>
</svg>
