<?xml version="1.0"?>
<svg xmlns="http://www.w3.org/2000/svg" viewBox="0 0 24 24">
    <path d="M 5 3 L 3 5 L 5 8 L 6.5859375 8 L 9.2929688 10.707031 L 10.707031 9.2929688 L 8 6.5859375 L 8 5 L 5 3 z M 18 3 C 15.791 3 14 4.791 14 7 C 14 7.5862513 14.132749 8.1389203 14.359375 8.640625 L 4 19 L 6 21 L 12.128906 14.871094 L 18.255859 21 L 21 18.257812 L 14.871094 12.128906 L 16.359375 10.640625 C 16.86108 10.867251 17.413749 11 18 11 C 20.209 11 22 9.209 22 7 C 22 6.414 21.867625 5.860375 21.640625 5.359375 L 19 8 L 17 6 L 19.640625 3.359375 C 19.139625 3.132375 18.586 3 18 3 z"/>
</svg>
