<?xml version="1.0"?>
<svg xmlns="http://www.w3.org/2000/svg" viewBox="0 0 24 24">
    <path d="M 7 4 A 2 2 0 0 0 5 6 A 2 2 0 0 0 7 8 A 2 2 0 0 0 9 6 A 2 2 0 0 0 7 4 z M 2 5 L 2 21 L 4 21 L 4 19 L 20 19 L 20 21 L 22 21 L 22 14 L 22 13 L 22 5 L 10 5 L 10 13 L 7 13 L 4 13 L 4 5 L 2 5 z M 7 13 A 2 2 0 0 0 9 11 A 2 2 0 0 0 7 9 A 2 2 0 0 0 5 11 A 2 2 0 0 0 7 13 z M 14.5 7 C 15.328 7 16 7.672 16 8.5 C 16 7.672 16.672 7 17.5 7 C 18.328 7 19 7.672 19 8.5 C 19 10 16 12 16 12 C 16 12 13 10 13 8.5 C 13 7.672 13.672 7 14.5 7 z"/>
</svg>
