<?xml version="1.0"?>
<svg xmlns="http://www.w3.org/2000/svg" viewBox="0 0 24 24">
    <path d="M 18 0 C 15.791 0 14 1.791 14 4 C 14 6.857 18 11 18 11 C 18 11 22 6.857 22 4 C 22 1.791 20.209 0 18 0 z M 18 2.5703125 C 18.789 2.5703125 19.429688 3.211 19.429688 4 C 19.429688 4.789 18.789 5.4296875 18 5.4296875 C 17.211 5.4296875 16.570312 4.789 16.570312 4 C 16.570312 3.211 17.211 2.5703125 18 2.5703125 z M 8.96875 2.9355469 L 3 5.3222656 L 3 21.476562 L 9.03125 19.064453 L 15.03125 21.064453 L 21 18.677734 L 21 10.585938 C 20.308 11.465938 19.6965 12.122625 19.4375 12.390625 L 18 13.878906 L 16.5625 12.390625 C 16.3035 12.122625 15.692 11.465937 15 10.585938 L 15 18.923828 L 14.96875 18.935547 L 9 16.945312 L 9 5.0761719 L 9.03125 5.0644531 L 12.427734 6.1953125 C 12.165734 5.4603125 12 4.718 12 4 C 12 3.982 12.003906 3.9652656 12.003906 3.9472656 L 8.96875 2.9355469 z"/>
</svg>
