<?xml version="1.0"?>
<svg xmlns="http://www.w3.org/2000/svg" viewBox="0 0 24 24">
    <path d="M 21 2.59375 L 14.96875 5.0058594 L 8.96875 3 L 3 5.3886719 L 3 5.3945312 L 3 21.542969 L 9.03125 19.130859 L 15.03125 21.136719 L 15.943359 20.771484 L 13.773438 18.601562 L 9 17.009766 L 9 5.1464844 L 9.03125 5.1347656 L 15 7.1230469 L 15 13 L 17.828125 13 L 21 16.171875 L 21 2.59375 z M 15 15 L 15 17 L 20.146484 22.146484 L 22.146484 20.146484 L 17 15 L 15 15 z M 22.853516 20.853516 L 20.853516 22.853516 L 21.853516 23.853516 C 22.048516 24.048516 22.365547 24.048516 22.560547 23.853516 L 23.853516 22.560547 C 24.048516 22.364547 24.048516 22.048516 23.853516 21.853516 L 22.853516 20.853516 z"/>
</svg>
