<?xml version="1.0"?>
<svg xmlns="http://www.w3.org/2000/svg" viewBox="0 0 24 24">
    <path style="line-height:normal;text-indent:0;text-align:start;text-decoration-line:none;text-decoration-style:solid;text-decoration-color:#000;text-transform:none;block-progression:tb;isolation:auto;mix-blend-mode:normal" d="M 5 3 L 5 5 L 6 5 L 6 5.5859375 C 6 6.2309375 5.7489687 6.8369688 5.2929688 7.2929688 C 4.4589687 8.1259687 4 9.2340625 4 10.414062 L 4 18 C 4 19.654 5.346 21 7 21 L 17 21 C 18.654 21 20 19.654 20 18 L 20 10.414062 C 20 9.2340625 19.541031 8.1269687 18.707031 7.2929688 C 18.251031 6.8379687 18 6.2309375 18 5.5859375 L 18 5 L 19 5 L 19 3 L 18 3 L 6 3 L 5 3 z M 8 5 L 16 5 L 16 5.5859375 C 16 6.0769375 16.097 6.549 16.25 7 L 7.75 7 C 7.903 6.549 8 6.0769375 8 5.5859375 L 8 5 z" font-weight="400" font-family="sans-serif" white-space="normal" overflow="visible"/>
</svg>
