<?xml version="1.0"?>
<svg xmlns="http://www.w3.org/2000/svg" viewBox="0 0 24 24">
    <path d="M 2 4 L 2 7 L 22 7 L 22 4 L 2 4 z M 2 10 L 2 20 L 22 20 L 22 10 L 2 10 z M 15 13 C 15.366 13 15.705 13.106344 16 13.277344 C 16.295 13.106344 16.634 13 17 13 C 18.105 13 19 13.895 19 15 C 19 16.105 18.105 17 17 17 C 16.634 17 16.295 16.893656 16 16.722656 C 15.705 16.893656 15.366 17 15 17 C 13.895 17 13 16.105 13 15 C 13 13.895 13.895 13 15 13 z M 16 16.722656 A 1 1.723 0 0 0 17 15 A 1 1.723 0 0 0 16 13.277344 A 1 1.723 0 0 0 15 15 A 1 1.723 0 0 0 16 16.722656 z"/>
</svg>
