<?xml version="1.0"?>
<svg xmlns="http://www.w3.org/2000/svg" viewBox="0 0 24 24">
    <path d="M 2 4 L 2 20 L 22 20 L 22 4 L 2 4 z M 10 8 C 10.733 8 11.411953 8.2106875 12.001953 8.5546875 C 12.592953 8.2116875 13.269 8 14 8 C 16.206 8 18 9.794 18 12 C 18 14.206 16.206 16 14 16 C 13.269 16 12.592953 15.789312 12.001953 15.445312 C 11.411953 15.789312 10.733 16 10 16 C 7.791 16 6 14.209 6 12 C 6 9.791 7.791 8 10 8 z M 14 10 C 13.821 10 13.651328 10.030219 13.486328 10.074219 C 13.804328 10.648219 14 11.298 14 12 C 14 12.702 13.804328 13.351781 13.486328 13.925781 C 13.651328 13.969781 13.821 14 14 14 C 15.103 14 16 13.103 16 12 C 16 10.897 15.103 10 14 10 z"/>
</svg>
