<?xml version="1.0"?>
<svg xmlns="http://www.w3.org/2000/svg" viewBox="0 0 24 24">
    <path style="line-height:normal;text-indent:0;text-align:start;text-decoration-line:none;text-decoration-style:solid;text-decoration-color:#000;text-transform:none;block-progression:tb;isolation:auto;mix-blend-mode:normal" d="M 6 3 L 6 6 L 3 6 L 3 8 L 6 8 L 6 11 L 8 11 L 8 8 L 11 8 L 11 6 L 8 6 L 8 3 L 6 3 z M 13 6 L 13 8 L 21 8 L 21 6 L 13 6 z M 4.7070312 13.292969 L 3.2929688 14.707031 L 5.5859375 17 L 3.2929688 19.292969 L 4.7070312 20.707031 L 7 18.414062 L 9.2929688 20.707031 L 10.707031 19.292969 L 8.4140625 17 L 10.707031 14.707031 L 9.2929688 13.292969 L 7 15.585938 L 4.7070312 13.292969 z M 13 14 L 13 16 L 21 16 L 21 14 L 13 14 z M 13 18 L 13 20 L 21 20 L 21 18 L 13 18 z"/>
</svg>
