<?xml version="1.0"?>
<svg xmlns="http://www.w3.org/2000/svg" viewBox="0 0 24 24">
    <path d="M 12 2 C 6.477 2 2 6.477 2 12 C 2 17.523 6.477 22 12 22 C 17.523 22 22 17.523 22 12 C 22 6.477 17.523 2 12 2 z M 14.755859 8.6425781 C 16.494859 8.6425781 17.173828 10.191703 17.173828 11.970703 C 17.173828 13.979703 16.364078 15.357422 14.705078 15.357422 C 13.026078 15.357422 12.285391 13.848766 12.275391 12.009766 C 12.275391 10.130766 13.075859 8.6425781 14.755859 8.6425781 z M 7.5859375 8.7519531 L 11.164062 8.7519531 L 11.164062 10.001953 L 8.6445312 10.001953 L 8.5058594 11.001953 C 8.6458594 10.981953 8.7657812 10.980469 8.9257812 10.980469 C 9.5457812 10.980469 10.175766 11.121172 10.634766 11.451172 C 11.124766 11.781172 11.423828 12.321078 11.423828 13.080078 C 11.423828 14.289078 10.384766 15.357422 8.6347656 15.357422 C 7.8447656 15.357422 7.1861719 15.178281 6.8261719 14.988281 L 7.0957031 13.847656 C 7.3857031 13.987656 7.9754531 14.167969 8.5644531 14.167969 C 9.1944531 14.167969 9.8632812 13.868688 9.8632812 13.179688 C 9.8632812 12.510687 9.3341562 12.099609 8.0351562 12.099609 C 7.6761563 12.099609 7.42625 12.118203 7.15625 12.158203 L 7.5859375 8.7519531 z M 14.734375 9.7910156 C 14.174375 9.7910156 13.796641 10.499766 13.806641 12.009766 C 13.796641 13.498766 14.155141 14.208984 14.744141 14.208984 C 15.333141 14.208984 15.654297 13.470234 15.654297 11.990234 C 15.654297 10.551234 15.343375 9.7910156 14.734375 9.7910156 z"/>
</svg>
