<?xml version="1.0"?>
<svg xmlns="http://www.w3.org/2000/svg" viewBox="0 0 24 24">
    <path d="M12,2C6.477,2,2,6.477,2,12c0,5.523,4.477,10,10,10s10-4.477,10-10C22,6.477,17.523,2,12,2z M7.75,6.616l0.14-0.14 l2.963,2.963L8.952,11.34L7.75,10.138C6.777,9.165,6.777,7.589,7.75,6.616z M15.586,17L12,13.414L8.414,17L7,15.586l5.062-5.062 c-0.182-0.828,0.119-1.828,0.877-2.586c1.078-1.078,2.651-1.253,3.514-0.39c0.862,0.862,0.688,2.436-0.39,3.514 c-0.758,0.758-1.757,1.059-2.586,0.877L13.414,12L17,15.586L15.586,17z"/>
</svg>
