<?xml version="1.0"?>
<svg xmlns="http://www.w3.org/2000/svg" viewBox="0 0 24 24">
    <path d="M 3.3828125 2 L 7.2871094 9.8105469 C 5.8811094 11.085547 5 12.927 5 15 C 5 18.9 8.1 22 12 22 C 15.9 22 19 18.9 19 15 C 19 12.927 18.118891 11.085547 16.712891 9.8105469 L 20.617188 2 L 15 2 L 12 8 L 9 2 L 3.3828125 2 z M 12 10 C 14.8 10 17 12.2 17 15 C 17 17.8 14.8 20 12 20 C 9.2 20 7 17.8 7 15 C 7 12.2 9.2 10 12 10 z M 12 12 C 11.9 12.3 11.4 13.199219 10.5 13.199219 L 10.5 14.199219 L 11.599609 14.199219 L 11.599609 18 L 12.900391 18 L 13 18 L 13 12 L 12 12 z"/>
</svg>
