<?xml version="1.0"?>
<svg xmlns="http://www.w3.org/2000/svg" viewBox="0 0 24 24">
    <path d="M 3 3 L 3 11 L 11 11 L 11 3 L 3 3 z M 13 3 L 13 11 L 21 11 L 21 3 L 13 3 z M 6 6 L 8 6 L 8 8 L 6 8 L 6 6 z M 17 6 C 17.552 6 18 6.448 18 7 C 18 7.552 17.552 8 17 8 C 16.448 8 16 7.552 16 7 C 16 6.448 16.448 6 17 6 z M 3 13 L 3 21 L 11 21 L 11 13 L 3 13 z M 13 13 L 13 21 L 21 21 L 21 13 L 13 13 z M 7 16 C 7.552 16 8 16.448 8 17 C 8 17.552 7.552 18 7 18 C 6.448 18 6 17.552 6 17 C 6 16.448 6.448 16 7 16 z M 16 16 L 18 16 L 18 18 L 16 18 L 16 16 z"/>
</svg>
