<?xml version="1.0"?>
<svg xmlns="http://www.w3.org/2000/svg" viewBox="0 0 24 24">
    <path d="M 1 2 L 1 18 L 10 18 L 10 20 L 8 20 L 8 22 L 16 22 L 16 20 L 14 20 L 14 18 L 23 18 L 23 2 L 1 2 z M 3 4 L 21 4 L 21 16 L 3 16 L 3 4 z M 5 6 L 5 14 L 9 14 L 9 6 L 5 6 z M 11 6 L 11 14 L 19 14 L 19 6 L 11 6 z M 7 11 C 7.552 11 8 11.448 8 12 C 8 12.552 7.552 13 7 13 C 6.448 13 6 12.552 6 12 C 6 11.448 6.448 11 7 11 z M 15 11 C 15.552 11 16 11.448 16 12 C 16 12.552 15.552 13 15 13 C 14.448 13 14 12.552 14 12 C 14 11.448 14.448 11 15 11 z"/>
</svg>
