<?xml version="1.0"?>
<svg xmlns="http://www.w3.org/2000/svg" viewBox="0 0 24 24">
    <path d="M 6 2 A 2 2 0 0 0 4 4 A 2 2 0 0 0 6 6 A 2 2 0 0 0 8 4 A 2 2 0 0 0 6 2 z M 18 2 A 2 2 0 0 0 16 4 A 2 2 0 0 0 18 6 A 2 2 0 0 0 20 4 A 2 2 0 0 0 18 2 z M 3 8 L 3 16 L 3 22 L 5 22 L 5 16 L 7 16 L 7 22 L 9 22 L 9 15 L 9 12.169922 L 12 15.171875 L 15 12.169922 L 15 16 L 15 22 L 17 22 L 17 16 L 19 16 L 19 22 L 21 22 L 21 15 L 21 8 L 17 8 C 16.443981 8 15.942484 8.2278028 15.580078 8.59375 L 15.578125 8.5917969 L 12 12.171875 L 8.4140625 8.5859375 L 8.3886719 8.5585938 L 8.3847656 8.5625 C 8.0252039 8.2161403 7.5389664 8 7 8 L 3 8 z"/>
</svg>
