<?xml version="1.0"?>
<svg xmlns="http://www.w3.org/2000/svg" viewBox="0 0 24 24">
    <path d="M 4 3 A 2 2 0 0 0 2 5 A 2 2 0 0 0 4 7 A 2 2 0 0 0 6 5 A 2 2 0 0 0 4 3 z M 12 3 A 2 2 0 0 0 10 5 A 2 2 0 0 0 12 7 A 2 2 0 0 0 14 5 A 2 2 0 0 0 12 3 z M 20 3 A 2 2 0 0 0 18 5 A 2 2 0 0 0 20 7 A 2 2 0 0 0 22 5 A 2 2 0 0 0 20 3 z M 2 8 L 2 18 L 7 18 L 7 21 L 9 21 L 9 18 L 9 17 L 9 16 L 7 16 L 7 14 L 8 14 L 16 14 L 17 14 L 17 16 L 15 16 L 15 17 L 15 18 L 15 21 L 17 21 L 17 18 L 22 18 L 22 8 L 17 8 L 17 12 L 15 12 L 15 8 L 9 8 L 9 12 L 7 12 L 7 8 L 2 8 z"/>
</svg>
