<?xml version="1.0"?>
<svg xmlns="http://www.w3.org/2000/svg" viewBox="0 0 24 24">
    <path style="line-height:normal;text-indent:0;text-align:start;text-decoration-line:none;text-decoration-style:solid;text-decoration-color:#000;text-transform:none;block-progression:tb;isolation:auto;mix-blend-mode:normal" d="M 4 2 L 4 7 L 9 7 L 7.4375 5.4375 C 8.7316965 4.5353856 10.297977 4 12 4 C 16.430666 4 20 7.5693339 20 12 C 20 16.430666 16.430666 20 12 20 C 7.5693339 20 4 16.430666 4 12 L 2 12 C 2 17.511334 6.4886661 22 12 22 C 17.511334 22 22 17.511334 22 12 C 22 6.4886661 17.511334 2 12 2 C 9.7532162 2 7.6716357 2.7446772 6 4 L 4 2 z M 10 9 L 10 15 L 15 12 L 10 9 z" font-weight="400" font-family="sans-serif" white-space="normal" overflow="visible"/>
</svg>
