<?xml version="1.0"?>
<svg xmlns="http://www.w3.org/2000/svg" viewBox="0 0 24 24">
    <path style="line-height:normal;text-indent:0;text-align:start;text-decoration-line:none;text-decoration-style:solid;text-decoration-color:#000;text-transform:none;block-progression:tb;isolation:auto;mix-blend-mode:normal" d="M 8.6484375 2 L 3.0761719 6.4589844 L 1.9609375 13.15625 L 5.2910156 19.818359 L 12 22.054688 L 18.710938 19.816406 L 22.039062 13.115234 L 20.923828 6.4570312 L 20.625 6.21875 L 15.351562 2 L 8.6484375 2 z M 10.765625 4 L 13.234375 4 L 12 6.0566406 L 10.765625 4 z M 8.7324219 4.4960938 L 10.085938 6.7539062 L 6.4726562 6.3007812 L 8.7324219 4.4960938 z M 15.267578 4.4960938 L 17.525391 6.3007812 L 13.914062 6.7539062 L 15.267578 4.4960938 z M 6.1425781 8.2753906 L 10.472656 8.8164062 L 8.8496094 12.066406 L 6.1425781 8.2753906 z M 17.859375 8.2753906 L 15.152344 12.066406 L 13.527344 8.8164062 L 17.859375 8.2753906 z M 19.412109 9.5449219 L 19.855469 12.175781 L 17.21875 12.615234 L 19.412109 9.5449219 z M 4.5898438 9.546875 L 6.7832031 12.617188 L 4.1503906 12.177734 L 4.5898438 9.546875 z M 12 10.238281 L 13.380859 13 L 10.619141 13 L 12 10.238281 z M 4.7714844 14.308594 L 7.3867188 14.744141 L 6.0800781 16.923828 L 4.7714844 14.308594 z M 19.214844 14.310547 L 17.917969 16.919922 L 16.613281 14.744141 L 19.214844 14.310547 z M 10.517578 15 L 13.484375 15 L 12 18.460938 L 10.517578 15 z M 8.8515625 16.191406 L 10.203125 19.345703 L 7.4980469 18.445312 L 8.8515625 16.191406 z M 15.148438 16.191406 L 16.501953 18.445312 L 13.796875 19.345703 L 15.148438 16.191406 z"/>
</svg>
