<?xml version="1.0"?>
<svg xmlns="http://www.w3.org/2000/svg" viewBox="0 0 24 24">
    <path style="line-height:normal;text-indent:0;text-align:start;text-decoration-line:none;text-decoration-style:solid;text-decoration-color:#000;text-transform:none;block-progression:tb;isolation:auto;mix-blend-mode:normal" d="M 2 2 L 2 6.5 L 2 11 L 6.03125 11 C 6.0200156 11.170566 6 11.36857 6 11.5 C 6 11.988773 6.0800361 12.774336 6.2226562 13.613281 C 6.2939663 14.032754 6.3796704 14.448783 6.4921875 14.828125 C 6.6023378 15.199488 6.6723327 15.521877 7.0507812 15.912109 C 7.4476432 16.337166 7.7721505 16.394098 8.1425781 16.505859 C 8.5195106 16.619583 8.935255 16.705907 9.3554688 16.777344 C 9.9840594 16.884204 10.547301 16.941414 11.023438 16.970703 C 11.134644 18.287866 11.704666 19.49373 12.605469 20.394531 C 13.612994 21.402672 15.001111 22 16.5 22 C 17.998924 22 19.386476 21.402587 20.394531 20.394531 C 21.402587 19.386476 22 17.999463 22 16.5 C 22 14.999749 21.402308 13.612024 20.394531 12.605469 C 19.493288 11.704224 18.288218 11.134565 16.970703 11.023438 C 16.940968 10.558978 16.88326 10.009758 16.777344 9.3867188 C 16.706033 8.9672462 16.62033 8.5512173 16.507812 8.171875 C 16.397662 7.8005121 16.327667 7.478123 15.949219 7.0878906 C 15.54696 6.6570211 15.220871 6.605546 14.847656 6.4941406 C 14.467932 6.3807921 14.049307 6.2939697 13.626953 6.2226562 C 12.782246 6.0800296 11.988773 6 11.5 6 C 11.364074 6 11.169757 6.022691 11 6.0351562 L 11 2 L 6.5 2 L 2 2 z M 4 4 L 6.5 4 L 9 4 L 9 6.3261719 C 8.7191163 6.3830286 8.4323517 6.4358566 8.1777344 6.5097656 C 7.8051231 6.6179254 7.5030289 6.6634843 7.0996094 7.0292969 L 7.0976562 7.03125 C 6.6452104 7.4433506 6.6074892 7.7726195 6.4941406 8.1523438 C 6.415413 8.4160858 6.3615133 8.7105101 6.3046875 9 L 4 9 L 4 6.5 L 4 4 z M 11.5 8 C 11.697227 8 12.553879 8.070189 13.294922 8.1953125 C 13.665443 8.2578745 14.022896 8.3347861 14.275391 8.4101562 C 14.37398 8.4395854 14.43564 8.4788992 14.490234 8.5097656 C 14.520824 8.5692669 14.559657 8.6384055 14.589844 8.7402344 C 14.666044 8.9971421 14.742123 9.3546287 14.804688 9.7226562 C 14.903856 10.306047 14.955961 10.871594 14.978516 11.214844 C 14.07587 11.471842 13.259774 11.95037 12.605469 12.605469 C 11.950045 13.260493 11.471738 14.077859 11.214844 14.980469 C 10.858374 14.958488 10.279492 14.904662 9.6914062 14.804688 C 9.32412 14.742248 8.9692707 14.664839 8.7207031 14.589844 C 8.6240445 14.560681 8.5631078 14.522281 8.5097656 14.492188 C 8.479139 14.432678 8.4405741 14.362306 8.4101562 14.259766 C 8.3339542 14.002858 8.2578772 13.645371 8.1953125 13.277344 C 8.0701831 12.541289 8 11.697227 8 11.5 C 8 11.302773 8.0701892 10.446121 8.1953125 9.7050781 C 8.2578742 9.3345566 8.3347861 8.977104 8.4101562 8.7246094 C 8.4373191 8.6336124 8.4706319 8.5807002 8.5 8.5273438 C 8.5634278 8.4966902 8.6328212 8.459166 8.734375 8.4296875 C 8.9980137 8.3531598 9.3583009 8.2744477 9.7285156 8.2089844 C 10.468945 8.0780576 11.323667 8 11.5 8 z M 16.5 13 C 17.475749 13 18.336239 13.375302 18.980469 14.019531 L 18.980469 14.021484 C 19.622692 14.662882 20 15.524251 20 16.5 C 20 17.474537 19.624413 18.336524 18.980469 18.980469 C 18.336524 19.624413 17.475076 20 16.5 20 C 15.525463 20 14.661912 19.623628 14.019531 18.980469 C 13.376808 18.337745 13 17.474537 13 16.5 C 13 15.525463 13.376372 14.661912 14.019531 14.019531 L 14.021484 14.019531 C 14.662882 13.377308 15.524251 13 16.5 13 z" font-weight="400" font-family="sans-serif" white-space="normal" overflow="visible"/>
</svg>
