<?xml version="1.0"?>
<svg xmlns="http://www.w3.org/2000/svg" viewBox="0 0 24 24">
    <path style="line-height:normal;text-indent:0;text-align:start;text-decoration-line:none;text-decoration-style:solid;text-decoration-color:#000;text-transform:none;block-progression:tb;isolation:auto;mix-blend-mode:normal" d="M 12 2 L 12 6 L 6 6 A 1.0001 1.0001 0 0 0 5 7 L 5 11.173828 A 3 3 0 0 0 3 14 A 3 3 0 0 0 5 16.824219 L 5 19 L 3 19 L 3 21 L 19 21 L 19 19 L 7 19 L 7 16.826172 A 3 3 0 0 0 8.8242188 15 L 19 15 L 19 13 L 8.8261719 13 A 3 3 0 0 0 7 11.175781 L 7 8 L 12 8 L 12 11 L 18 11 L 18 2 L 12 2 z" font-weight="400" font-family="sans-serif" white-space="normal" overflow="visible"/>
</svg>
