<?xml version="1.0"?>
<svg xmlns="http://www.w3.org/2000/svg" viewBox="0 0 24 24">
    <path d="M 11 4 L 11 8 L 10 8 L 9.546875 9.4257812 A 1.5 1.5 0 0 0 8.5 9 A 1.5 1.5 0 0 0 7 10.5 A 1.5 1.5 0 0 0 8.5 12 A 1.5 1.5 0 0 0 8.734375 11.980469 L 8.0917969 14 L 1 14 L 1 16 L 7.4550781 16 L 6.5 19 L 9 19 L 9 21 L 11 21 L 11 19 L 12 19 L 13 19 L 13 21 L 15 21 L 15 19 L 17.5 19 L 16.544922 16 L 23 16 L 23 14 L 15.908203 14 L 15.267578 11.980469 A 1.5 1.5 0 0 0 15.5 12 A 1.5 1.5 0 0 0 17 10.5 A 1.5 1.5 0 0 0 15.5 9 A 1.5 1.5 0 0 0 14.453125 9.4277344 L 14 8 L 13 8 L 13 4 L 11 4 z M 1 5 L 1 7 L 9 7 L 9 5 L 1 5 z M 15 5 L 15 7 L 23 7 L 23 5 L 15 5 z M 4 17 A 1 1 0 0 0 3 18 A 1 1 0 0 0 4 19 A 1 1 0 0 0 5 18 A 1 1 0 0 0 4 17 z M 20 17 A 1 1 0 0 0 19 18 A 1 1 0 0 0 20 19 A 1 1 0 0 0 21 18 A 1 1 0 0 0 20 17 z"/>
</svg>
