<?xml version="1.0"?>
<svg xmlns="http://www.w3.org/2000/svg" viewBox="0 0 24 24">
    <path d="M 14.34375 3 L 16.464844 5.1210938 L 12 9.5859375 L 6.4257812 4.0117188 L 5.0117188 5.4257812 L 12 12.414062 L 17.878906 6.5351562 L 20 8.65625 L 20 3 L 14.34375 3 z M 12 13 C 8.159 13.021 4.3853281 14.545359 1.6113281 17.318359 L 1 17.929688 L 4.3671875 21.298828 L 8 18.480469 L 8 15.613281 C 9.429 15.170281 10.720141 14.995047 11.994141 14.998047 C 13.268141 14.994047 14.592484 15.170281 16.021484 15.613281 L 16.033203 18.480469 L 19.630859 21.298828 L 23 17.929688 L 22.388672 17.318359 C 19.614672 14.545359 15.841 13.021 12 13 z"/>
</svg>
