<?xml version="1.0"?>
<svg xmlns="http://www.w3.org/2000/svg" viewBox="0 0 24 24">
    <path style="line-height:normal;text-indent:0;text-align:start;text-decoration-line:none;text-decoration-style:solid;text-decoration-color:#000;text-transform:none;block-progression:tb;isolation:auto;mix-blend-mode:normal" d="M 7.1914062 2 L 3 7 L 3 12 L 16 12 L 16 14.533203 C 15.692912 14.792844 15.272683 15.163621 14.773438 15.691406 C 13.963691 16.547443 13 17.568 13 19 C 13 20.098667 13.594488 21.06507 14.404297 21.501953 C 15.214106 21.938836 16.1025 22 17 22 C 17.8975 22 18.785894 21.93884 19.595703 21.501953 C 20.405512 21.06507 21 20.098667 21 19 C 21 17.568 20.036309 16.547443 19.226562 15.691406 C 18.727317 15.163621 18.307088 14.792844 18 14.533203 L 18 12 L 21 12 L 21 7 L 18.027344 2 L 7.1914062 2 z M 10 4 L 16 4 L 16 6 L 10 6 L 10 4 z M 16 17.337891 L 16 19.927734 C 15.716247 19.881857 15.49202 19.816909 15.353516 19.742188 C 15.077575 19.593321 15 19.558333 15 19 C 15 18.801416 15.427339 18.021368 16 17.337891 z M 18 17.337891 C 18.572661 18.021368 19 18.801416 19 19 C 19 19.558333 18.92243 19.593321 18.646484 19.742188 C 18.50798 19.816909 18.283753 19.881857 18 19.927734 L 18 17.337891 z" font-weight="400" font-family="sans-serif" white-space="normal" overflow="visible"/>
</svg>
