<?xml version="1.0"?>
<svg xmlns="http://www.w3.org/2000/svg" viewBox="0 0 24 24">
    <path d="M 2 4 L 2 20 L 22 20 L 22 4 L 2 4 z M 6 6 L 20 6 L 20 18 L 19.996094 18 L 6 18 L 6 6 z M 8 7 L 8 9 L 9.3222656 9 L 11.322266 14 L 16.332031 14 L 18 9 L 11.476562 9 L 10.677734 7 L 8 7 z M 4 11 C 4.552 11 5 11.448 5 12 C 5 12.552 4.552 13 4 13 C 3.448 13 3 12.552 3 12 C 3 11.448 3.448 11 4 11 z M 12 15 A 1 1 0 0 0 11 16 A 1 1 0 0 0 12 17 A 1 1 0 0 0 13 16 A 1 1 0 0 0 12 15 z M 16 15 A 1 1 0 0 0 15 16 A 1 1 0 0 0 16 17 A 1 1 0 0 0 17 16 A 1 1 0 0 0 16 15 z"/>
</svg>
