<?xml version="1.0"?>
<svg xmlns="http://www.w3.org/2000/svg" viewBox="0 0 24 24">
    <path d="M 5 1 L 5 23 L 19 23 L 19 1 L 5 1 z M 7 4 L 17 4 L 17 20 L 7 20 L 7 4 z M 11.712891 6 L 11.712891 7.0273438 C 11.373891 7.0703438 9.4765625 7.42875 9.4765625 9.71875 C 9.4765625 13.05975 12.935547 12.069828 12.935547 14.298828 C 12.935547 15.414828 12.213406 15.441406 12.066406 15.441406 C 11.932406 15.441406 11.052734 15.512688 11.052734 13.804688 L 9.1621094 13.804688 C 9.1621094 16.696687 11.260266 16.927703 11.572266 16.970703 L 11.572266 18 L 12.574219 18 L 12.574219 16.970703 C 12.912219 16.928703 14.824219 16.613156 14.824219 14.285156 C 14.824219 11.080156 11.366234 11.693563 11.365234 9.7265625 C 11.365234 8.5995625 11.985141 8.5644531 12.119141 8.5644531 C 12.364141 8.5644531 12.947266 8.7812969 12.947266 10.154297 L 14.837891 10.154297 C 14.837891 7.5272969 13.041703 7.1176406 12.720703 7.0566406 L 12.720703 6 L 11.712891 6 z"/>
</svg>
