<?xml version="1.0"?>
<svg xmlns="http://www.w3.org/2000/svg" viewBox="0 0 24 24">
    <path d="M 8 2 L 8 8 C 8 10.197294 9.8027056 12 12 12 C 14.197294 12 16 10.197294 16 8 L 16 2 L 13.556641 4 L 12 2 L 10.476562 4 L 8 2 z M 17.003906 9.0039062 C 17.003906 9.0039063 16.898953 10.895047 18.001953 11.998047 C 19.104953 13.101047 20.998047 12.998047 20.998047 12.998047 C 20.998047 12.998047 21.101047 11.104953 19.998047 10.001953 C 18.895047 8.8989531 17.003906 9.0039062 17.003906 9.0039062 z M 12 14 C 10.255047 14 8.1871638 14.409783 6.4492188 15.095703 C 5.5802462 15.438663 4.7946961 15.84605 4.1660156 16.369141 C 3.5373351 16.892231 3 17.599384 3 18.5 L 3 21 L 21 21 L 21 20 L 21 18.5 C 21 17.599384 20.462665 16.892231 19.833984 16.369141 C 19.205304 15.84605 18.419754 15.438663 17.550781 15.095703 C 15.812836 14.409783 13.744953 14 12 14 z"/>
</svg>
