<?xml version="1.0"?>
<svg xmlns="http://www.w3.org/2000/svg" viewBox="0 0 24 24">
    <path d="M 6 1 L 6 3 L 3 3 L 3 21 L 21 21 L 21 3 L 18 3 L 18 1 L 16 1 L 16 3 L 8 3 L 8 1 L 6 1 z M 5 8 L 19 8 L 19.001953 19 L 5 19 L 5 8 z M 16 13.001953 C 14.167 13.030953 14 14.778906 14 15.128906 L 14 15.9375 C 14 16.2795 13.967813 17.956047 16.007812 17.998047 C 16.029812 18.000047 16.051266 18 16.072266 18 C 17.916266 18 18 16.2755 18 15.9375 L 18 15.130859 C 18 14.783859 17.866875 13.001953 16.046875 13.001953 L 16 13.001953 z M 8 13.023438 L 8 18 L 9 18 L 9 16.652344 L 8.8984375 14.578125 L 10.117188 18 L 10.876953 18 L 12.103516 14.578125 L 12 16.652344 L 12 18 L 12.998047 18 L 13 18 L 13 13.023438 L 11.542969 13.023438 L 10.501953 16.623047 L 9.4570312 13.023438 L 8 13.023438 z M 16.017578 14.001953 L 16.048828 14.001953 C 16.875828 14.003953 17 14.709859 17 15.130859 L 17 15.9375 C 17 16.9775 16.354828 17 16.048828 17 L 16.029297 17 C 15.259297 16.984 15.000953 16.7195 15.001953 15.9375 L 15.001953 15.130859 C 15.001953 14.795859 15.100578 14.016953 16.017578 14.001953 z"/>
</svg>
