<?xml version="1.0"?>
<svg xmlns="http://www.w3.org/2000/svg" viewBox="0 0 24 24">
    <path d="M 12 1 C 11.115084 1 10.328373 1.3906671 9.7792969 2 L 7 2 L 8 6 L 16 6 L 17 2 L 14.220703 2 C 13.671627 1.3906671 12.884916 1 12 1 z M 8 8 C 8 8 2 11.014 2 18 C 2 20.319 2.7970937 21.917 4.1210938 23 L 19.878906 23 C 21.202906 21.917 22 20.319 22 18 C 22 11.015 16 8 16 8 L 8 8 z M 9 11 L 15 11 L 15 13 L 11 13 L 11 15 L 14 15 L 14 17 L 11 17 L 11 18 L 12 18 L 12 19 L 11 19 L 11 20 L 9 20 L 9 19 L 8 19 L 8 18 L 9 18 L 9 11 z"/>
</svg>
