<?xml version="1.0"?>
<svg xmlns="http://www.w3.org/2000/svg" viewBox="0 0 24 24">
    <path d="M 12 1 C 11.115084 1 10.328373 1.3906671 9.7792969 2 L 7 2 L 8 6 L 16 6 L 17 2 L 14.220703 2 C 13.671627 1.3906671 12.884916 1 12 1 z M 8 8 C 8 8 2 11.014 2 18 C 2 20.319 2.7970937 21.917 4.1210938 23 L 19.878906 23 C 21.202906 21.917 22 20.319 22 18 C 22 11.015 16 8 16 8 L 8 8 z M 11 11 L 13 11 L 13 12.050781 C 14.141 12.282781 15 13.29 15 14.5 C 15 14.815 14.934125 15.113625 14.828125 15.390625 C 15.530125 15.833625 16 16.609 16 17.5 C 16 18.881 14.881 20 13.5 20 L 13 20 L 13 21 L 11 21 L 11 20 L 9 20 L 9 15 L 9 12 L 11 12 L 11 11 z M 11 14 L 11 15 L 12.5 15 C 12.776 15 13 14.776 13 14.5 C 13 14.224 12.776 14 12.5 14 L 11 14 z M 11 17 L 11 18 L 13.5 18 C 13.776 18 14 17.776 14 17.5 C 14 17.224 13.776 17 13.5 17 L 12.5 17 L 11 17 z"/>
</svg>
