<?xml version="1.0"?>
<svg xmlns="http://www.w3.org/2000/svg" viewBox="0 0 24 24">
    <path d="M 12 1 C 11.115084 1 10.328373 1.3906671 9.7792969 2 L 7 2 L 8 5 L 16 5 L 17 2 L 14.220703 2 C 13.671627 1.3906671 12.884916 1 12 1 z M 8 7 C 8 7 2 10.014 2 17 C 2 19.319 2.7970937 20.917 4.1210938 22 L 19.878906 22 C 21.202906 20.917 22 19.319 22 17 C 22 10.015 16 7 16 7 L 8 7 z M 11.738281 8.7128906 L 12.658203 8.7128906 L 12.658203 10.041016 C 12.950203 10.097016 14.589844 10.469187 14.589844 12.867188 L 12.865234 12.867188 C 12.865234 11.614187 12.351375 11.417969 12.109375 11.417969 C 11.920375 11.417969 11.421875 11.450516 11.421875 12.478516 C 11.420875 14.273516 14.576172 13.713672 14.576172 16.638672 C 14.576172 18.762672 12.832438 19.048891 12.523438 19.087891 L 12.523438 20.300781 L 11.609375 20.300781 L 11.609375 19.087891 C 11.324375 19.048891 9.4101563 18.838219 9.4101562 16.199219 L 11.134766 16.199219 C 11.134766 17.757219 11.938547 17.693359 12.060547 17.693359 C 12.194547 17.693359 12.853516 17.668391 12.853516 16.650391 C 12.853516 14.616391 9.6972656 15.518703 9.6972656 12.470703 C 9.6972656 10.381703 11.429281 10.056578 11.738281 10.017578 L 11.738281 8.7128906 z"/>
</svg>
