<?xml version="1.0"?>
<svg xmlns="http://www.w3.org/2000/svg" viewBox="0 0 24 24">
    <path d="M 6 1 L 6 9.0898438 L 4.1074219 7.9121094 L 4 7.8242188 L 4 5.6582031 L 2 6.8242188 L 2 20 L 22 20 L 22 6.8242188 L 20 5.6582031 L 20 7.828125 L 19.892578 7.9121094 L 18 9.0898438 L 18 1 L 6 1 z M 8.9121094 3 L 15.087891 3 A 1.5 1.5 0 0 0 16 3.9121094 L 16 10.333984 L 14.998047 10.957031 A 3 3 0 0 0 12 8 A 3 3 0 0 0 9.0019531 10.957031 L 8 10.333984 L 8 3.9121094 A 1.5 1.5 0 0 0 8.9121094 3 z M 12 5 C 11.447 5 11 5.448 11 6 C 11 6.552 11.447 7 12 7 C 12.553 7 13 6.552 13 6 C 13 5.448 12.553 5 12 5 z"/>
</svg>
