<?xml version="1.0"?>
<svg xmlns="http://www.w3.org/2000/svg" viewBox="0 0 24 24">
    <path d="M 12 1 C 11.115084 1 10.328373 1.3906671 9.7792969 2 L 7 2 L 8 6 L 16 6 L 17 2 L 14.220703 2 C 13.671627 1.3906671 12.884916 1 12 1 z M 8 8 C 8 8 2 11.014 2 18 C 2 20.319 2.7970937 21.917 4.1210938 23 L 19.878906 23 C 21.202906 21.917 22 20.319 22 18 C 22 11.015 16 8 16 8 L 8 8 z M 13.119141 11.068359 C 13.789141 11.068359 14.465375 11.226875 14.734375 11.296875 L 14.443359 13.101562 C 14.271359 13.032562 13.773094 12.865234 13.246094 12.865234 C 12.197094 12.865234 11.584531 13.453359 11.269531 14.068359 L 13 14.068359 L 13 15.068359 L 10.998047 15.068359 L 10.984375 16.068359 L 13 16.068359 L 13 17.068359 L 11.28125 17.068359 C 11.57525 17.637359 12.135219 18.21875 13.199219 18.21875 C 13.830219 18.21875 14.258312 18.068234 14.445312 17.990234 L 14.734375 19.785156 C 14.456375 19.854156 13.761984 19.999 12.958984 20 C 10.457984 20 9.4350469 18.474359 9.1230469 17.068359 L 8 17.068359 L 8 16.068359 L 9 16.068359 L 9.0058594 15.068359 L 8 15.068359 L 8 14.068359 L 9.1503906 14.068359 C 9.4513906 12.861359 10.360141 11.069359 13.119141 11.068359 z"/>
</svg>
