<?xml version="1.0"?>
<svg xmlns="http://www.w3.org/2000/svg" viewBox="0 0 24 24">
    <path d="M 12 1 C 11.115084 1 10.328373 1.3906671 9.7792969 2 L 7 2 L 7.984375 6 L 15.984375 6 L 17 2 L 14.220703 2 C 13.671627 1.3906671 12.884916 1 12 1 z M 7.984375 8 C 7.984375 8 1.984375 11.014 1.984375 18 C 1.984375 20.319 2.7814687 21.917 4.1054688 23 L 19.863281 23 C 21.187281 21.917 21.984375 20.319 21.984375 18 C 21.984375 11.015 15.984375 8 15.984375 8 L 7.984375 8 z M 13.015625 11 L 14 11 L 14 12.5 L 13.5 12.5 C 12.141 12.5 11.5 12.594 11.5 13.5 C 11.5 13.721 11.688094 14.081688 11.871094 14.429688 C 11.966094 14.610687 12.062344 14.802 12.152344 15 L 14 15 L 14 16 L 12.457031 16 C 12.468031 16.075 12.486234 16.148563 12.490234 16.226562 C 12.510234 16.623562 12.370234 17.065 12.115234 17.5 L 14 17.5 L 14 17 L 15 17 L 15 19 L 9 19 L 9 17.5 L 10.371094 17.5 C 10.786094 17.041 11.006187 16.572437 10.992188 16.273438 C 10.988188 16.182437 10.969219 16.091 10.949219 16 L 9 16 L 9 15 L 10.541016 15 C 10.522016 14.964 10.504328 14.927578 10.486328 14.892578 C 10.236328 14.416578 10 13.967 10 13.5 C 10 12.76 10.225875 12.164469 10.671875 11.730469 C 11.193875 11.222469 12.006625 10.978 13.015625 11 z"/>
</svg>
