<?xml version="1.0"?>
<svg xmlns="http://www.w3.org/2000/svg" viewBox="0 0 24 24">
    <path d="M 2 3 L 2 15 L 22 15 L 22 3 L 2 3 z M 4.9121094 5 L 19.087891 5 A 1.5 1.5 0 0 0 20 5.9121094 L 20 12.087891 A 1.5 1.5 0 0 0 19.087891 13 L 4.9121094 13 A 1.5 1.5 0 0 0 4 12.087891 L 4 5.9121094 A 1.5 1.5 0 0 0 4.9121094 5 z M 12 6 A 3 3 0 0 0 9 9 A 3 3 0 0 0 12 12 A 3 3 0 0 0 15 9 A 3 3 0 0 0 12 6 z M 7 8 C 6.448 8 6 8.447 6 9 C 6 9.553 6.448 10 7 10 C 7.552 10 8 9.553 8 9 C 8 8.447 7.552 8 7 8 z M 17 8 C 16.448 8 16 8.447 16 9 C 16 9.553 16.448 10 17 10 C 17.552 10 18 9.553 18 9 C 18 8.447 17.552 8 17 8 z M 3.9902344 17 L 20.195312 21.220703 L 21.294922 17 L 19.228516 17 L 18.992188 17.900391 C 18.543187 17.939391 18.137766 18.178781 17.884766 18.550781 L 11.927734 17 L 3.9902344 17 z"/>
</svg>
