<?xml version="1.0"?>
<svg xmlns="http://www.w3.org/2000/svg" viewBox="0 0 24 24">
    <path d="M 10 1 C 8.343 1 7 2.343 7 4 C 7 4.772 7.3002969 5.468 7.7792969 6 L 12.220703 6 C 12.699703 5.468 13 4.772 13 4 C 13 2.343 11.657 1 10 1 z M 20 6 L 17.0625 7.7636719 C 16.296143 7.2889551 15.432942 6.8882832 14.470703 6.5917969 L 14.228516 7.3164062 C 14.092516 7.7244062 13.710297 8 13.279297 8 L 6.7207031 8 C 6.2897031 8 5.9074844 7.7254062 5.7714844 7.3164062 L 5.6933594 7.0800781 C 3.9791874 7.9815463 2.8139086 9.388801 2.3007812 11.046875 A 1 1 0 0 0 2 11 A 1 1 0 0 0 1 12 A 1 1 0 0 0 2 13 C 2 14.164275 2.3917757 15.350707 3.0742188 16.443359 L 4 22 L 8 22 L 8.2578125 20.449219 C 9.2711971 20.794856 10.359127 21 11.5 21 C 12.194531 21 12.869344 20.942142 13.521484 20.837891 L 14.21875 22 L 18.21875 22 L 17.681641 19.310547 C 18.684025 18.676299 19.500207 17.888879 20.074219 17 L 22 17 L 23 13 L 20.724609 12.242188 C 20.45438 11.363418 19.98678 10.506561 19.337891 9.7226562 C 19.702341 8.7756856 20 7.5394381 20 6 z M 18 12 C 18.552 12 19 12.448 19 13 C 19 13.552 18.552 14 18 14 C 17.448 14 17 13.552 17 13 C 17 12.448 17.448 12 18 12 z"/>
</svg>
