<?xml version="1.0"?>
<svg xmlns="http://www.w3.org/2000/svg" viewBox="0 0 24 24">
    <path d="M 12 1 C 11.115084 1 10.328373 1.3906671 9.7792969 2 L 7 2 L 8 6 L 16 6 L 17 2 L 14.220703 2 C 13.671627 1.3906671 12.884916 1 12 1 z M 8 8 C 8 8 2 11.014 2 18 C 2 20.319 2.7970937 21.917 4.1210938 23 L 19.878906 23 C 21.202906 21.917 22 20.319 22 18 C 22 11.015 16 8 16 8 L 8 8 z M 9 11 L 12.5 11 C 13.881 11 15 12.119 15 13.5 C 15 14.881 13.881 16 12.5 16 L 11 16 L 11 17 L 12 17 L 12 18 L 11 18 L 11 20 L 9 20 L 9 18 L 8 18 L 8 17 L 9 17 L 9 16 L 8 16 L 8 15 L 9 15 L 9 11 z M 11 13 L 11 14 L 12.5 14 C 12.776 14 13 13.776 13 13.5 C 13 13.224 12.776 13 12.5 13 L 11 13 z"/>
</svg>
