<?xml version="1.0"?>
<svg xmlns="http://www.w3.org/2000/svg" viewBox="0 0 24 24">
    <path d="M 12 1 C 11.115084 1 10.328373 1.3906671 9.7792969 2 L 7 2 L 7.984375 6 L 15.984375 6 L 17 2 L 14.220703 2 C 13.671627 1.3906671 12.884916 1 12 1 z M 7.984375 8 C 7.984375 8 1.984375 11.014 1.984375 18 C 1.984375 20.319 2.7814687 21.917 4.1054688 23 L 19.863281 23 C 21.187281 21.917 21.984375 20.319 21.984375 18 C 21.984375 11.015 15.984375 8 15.984375 8 L 7.984375 8 z M 7.96875 12 L 10.21875 12 L 11.96875 14.5 L 13.71875 12 L 15.96875 12 L 13.144531 16 L 13.96875 16 L 13.96875 17 L 12.974609 17 L 12.978516 18 L 13.96875 18 L 13.96875 19 L 12.980469 19 L 12.984375 20 L 10.984375 20 L 10.980469 19 L 9.96875 19 L 9.96875 18 L 10.978516 18 L 10.974609 17 L 9.96875 17 L 9.96875 16 L 10.792969 16 L 7.96875 12 z"/>
</svg>
