<?xml version="1.0"?>
<svg xmlns="http://www.w3.org/2000/svg" viewBox="0 0 24 24">
    <path style="line-height:normal;text-indent:0;text-align:start;text-decoration-line:none;text-decoration-style:solid;text-decoration-color:#000;text-transform:none;block-progression:tb;isolation:auto;mix-blend-mode:normal" d="M 3 3 L 3 15 L 3 17 L 3 21 L 13 21 L 13 20 L 13 17 L 21 17 L 21 16 L 21 3 L 3 3 z M 5 5 L 7 5 L 7 7 L 5 7 L 5 5 z M 9 5 L 11 5 L 11 7 L 9 7 L 9 5 z M 13 5 L 15 5 L 15 7 L 13 7 L 13 5 z M 17 5 L 19 5 L 19 7 L 17 7 L 17 5 z M 5 9 L 7 9 L 7 11 L 5 11 L 5 9 z M 9 9 L 11 9 L 11 11 L 9 11 L 9 9 z M 13 9 L 15 9 L 15 11 L 13 11 L 13 9 z M 17 9 L 19 9 L 19 11 L 17 11 L 17 9 z M 5 13 L 7 13 L 7 15 L 5 15 L 5 13 z M 9 13 L 11 13 L 11 15 L 9 15 L 9 13 z M 13 13 L 15 13 L 15 15 L 13 15 L 13 13 z M 17 13 L 19 13 L 19 15 L 17 15 L 17 13 z M 5 17 L 7 17 L 7 19 L 5 19 L 5 17 z M 9 17 L 11 17 L 11 19 L 9 19 L 9 17 z"/>
</svg>
