<?xml version="1.0"?>
<svg xmlns="http://www.w3.org/2000/svg" viewBox="0 0 24 24">
    <path d="M 12 2.0996094 L 1.0019531 12 L 4 12 L 4 21 L 12.294922 21 C 12.197922 20.676 12.123219 20.342 12.074219 20 L 12.080078 20 C 12.033078 19.673 12 19.34 12 19 C 12 15.134 15.134 12 19 12 L 22.998047 12 L 12 2.0996094 z M 19 14 C 16.239 14 14 16.239 14 19 C 14 21.761 16.239 24 19 24 C 21.761 24 24 21.761 24 19 C 24 16.239 21.761 14 19 14 z M 19 16 C 20.657 16 22 17.343 22 19 C 22 20.657 20.657 22 19 22 C 17.343 22 16 20.657 16 19 C 16 17.343 17.343 16 19 16 z M 19.408203 17 L 17.509766 17.777344 L 17.509766 18.814453 L 18.302734 18.507812 L 18.302734 21 L 19.662109 21 L 19.662109 17 L 19.408203 17 z"/>
</svg>
