<?xml version="1.0"?>
<svg xmlns="http://www.w3.org/2000/svg" viewBox="0 0 24 24">
    <path d="M 11.169922 3.0097656 C 6.1099219 3.0097656 2 7.1805469 2 12.310547 C 2 15.500547 3 17 3 17 L 17.5 22 L 20.769531 18.169922 C 20.809531 18.119922 20.849141 18.06 20.869141 18 C 14.899141 17.51 10.599063 13.909453 9.5390625 12.939453 C 8.6590625 12.739453 8 11.94 8 11 C 8 9.9 8.9 9 10 9 L 19.419922 9 C 17.859922 5.28 14.829922 3.0097656 11.169922 3.0097656 z M 20.080078 10.990234 C 20.050078 11.000234 20.03 11 20 11 L 12 11 C 12 11.41 11.880156 11.799141 11.660156 12.119141 C 13.230156 13.349141 16.610391 15.600469 20.900391 15.980469 C 20.810391 15.150469 20.640078 13.920625 20.330078 12.140625 C 20.260078 11.750625 20.180078 11.360234 20.080078 10.990234 z"/>
</svg>
