<?xml version="1.0"?>
<svg xmlns="http://www.w3.org/2000/svg" viewBox="0 0 24 24">
    <path style="line-height:normal;text-indent:0;text-align:start;text-decoration-line:none;text-decoration-style:solid;text-decoration-color:#000;text-transform:none;block-progression:tb;isolation:auto;mix-blend-mode:normal" d="M 12 2 L 9 5 L 11 5 L 11 7 L 3 7 L 3 9 L 21 9 L 21 7 L 13 7 L 13 5 L 15 5 L 12 2 z M 3 11 L 3 13 L 21 13 L 21 11 L 3 11 z M 3 15 L 3 17 L 11 17 L 11 19 L 9 19 L 11 21 L 12 22 L 13 21 L 15 19 L 13 19 L 13 17 L 21 17 L 21 15 L 3 15 z"/>
</svg>
