<?xml version="1.0"?>
<svg xmlns="http://www.w3.org/2000/svg" viewBox="0 0 24 24">
    <path style="line-height:normal;text-indent:0;text-align:start;text-decoration-line:none;text-decoration-style:solid;text-decoration-color:#000;text-transform:none;block-progression:tb;isolation:auto;mix-blend-mode:normal" d="M 6 1.9960938 L 2.0039062 2.0136719 L 2.0136719 4.0136719 L 4 4.0039062 L 4 17 L 21 17 L 21 15 L 6 15 L 6 1.9960938 z M 10 3 L 10 7 L 20 7 L 20 3 L 10 3 z M 8 9 L 8 13 L 19 13 L 19 9 L 8 9 z M 8 18 A 2 2 0 0 0 6 20 A 2 2 0 0 0 8 22 A 2 2 0 0 0 10 20 A 2 2 0 0 0 8 18 z M 18 18 A 2 2 0 0 0 16 20 A 2 2 0 0 0 18 22 A 2 2 0 0 0 20 20 A 2 2 0 0 0 18 18 z" font-weight="400" font-family="sans-serif" white-space="normal" overflow="visible"/>
</svg>
