<?xml version="1.0"?>
<svg xmlns="http://www.w3.org/2000/svg" viewBox="0 0 24 24">
    <path style="line-height:normal;text-indent:0;text-align:start;text-decoration-line:none;text-decoration-style:solid;text-decoration-color:#000;text-transform:none;block-progression:tb;isolation:auto;mix-blend-mode:normal" d="M 5 2 L 5 9 L 1 9 L 1 18 L 5 18 L 5 22 L 21 22 L 21 7 L 16 2 L 5 2 z M 7 4 L 15 4 L 15 8 L 19 8 L 19 20 L 7 20 L 7 18 L 18 18 L 18 9 L 7 9 L 7 4 z M 14.240234 10.884766 C 15.849234 10.851766 15.939594 12.070734 15.933594 12.302734 C 15.913594 12.976734 15.314312 13.317094 15.195312 13.371094 C 15.467313 13.472094 16.004 13.755203 16 14.533203 C 15.99 16.022203 14.481422 16.011094 14.232422 15.996094 C 12.834422 15.912094 12.574219 14.810453 12.574219 14.564453 L 13.691406 14.564453 C 13.691406 14.655453 13.786672 15.206359 14.263672 15.193359 C 14.849672 15.177359 14.880719 14.787625 14.886719 14.515625 C 14.892719 14.253625 14.677703 13.786344 14.220703 13.777344 L 13.679688 13.777344 L 13.679688 12.998047 L 14.220703 12.998047 C 14.802703 12.928047 14.814453 12.522453 14.814453 12.314453 C 14.814453 12.223453 14.786484 11.677547 14.271484 11.685547 C 13.802484 11.693547 13.742187 12.153234 13.742188 12.240234 L 12.626953 12.240234 C 12.626953 12.035234 12.755234 10.914766 14.240234 10.884766 z M 9 11 L 10 11 L 10.5 11 C 11.328 11 12 11.672 12 12.5 C 12 13.328 11.328 14 10.5 14 L 10 14 L 10 16 L 9 16 L 9 14 L 9 11 z M 3 11.023438 L 4.4570312 11.023438 L 5.5019531 14.623047 L 6.5429688 11.023438 L 8 11.023438 L 8 16 L 7.9980469 16 L 7 16 L 7 14.652344 L 7.1035156 12.578125 L 5.8769531 16 L 5.1171875 16 L 3.8984375 12.578125 L 4 14.652344 L 4 16 L 3 16 L 3 11.023438 z M 10 12 L 10 13 L 10.5 13 C 10.776 13 11 12.776 11 12.5 C 11 12.224 10.776 12 10.5 12 L 10 12 z" font-weight="400" font-family="sans-serif" white-space="normal" overflow="visible"/>
</svg>
