<?xml version="1.0"?>
<svg xmlns="http://www.w3.org/2000/svg" viewBox="0 0 24 24">
    <path d="M20.644,8.586c-0.17-0.711-0.441-1.448-0.774-2.021c-0.771-1.329-1.464-2.237-3.177-3.32S13.076,2,12.17,2 C9.755,2,7.959,2.86,6.645,3.887C3.344,6.47,3,11,3,11s1.221-2.045,3.54-3.526C7.943,6.579,9.941,6,11.568,6C15.885,6,16,10,16,10H9 c0-2,1-3,1-3s-5,2-5,7.044c0,0.487-0.003,1.372,0.248,2.283c0.232,0.843,0.7,1.705,1.132,2.353c1.221,1.832,3.045,2.614,3.916,2.904 C11.292,21.916,12.325,22,13.306,22c2.72,0,4.877-0.886,5.694-1.275v-4.172C18.242,17.007,16.321,18,14,18c-5,0-5-4-5-4h12v-2.49 C21,11.51,20.961,9.917,20.644,8.586z"/>
</svg>
