<?xml version="1.0"?>
<svg xmlns="http://www.w3.org/2000/svg" viewBox="0 0 24 24">
    <path style="line-height:normal;text-indent:0;text-align:start;text-decoration-line:none;text-decoration-style:solid;text-decoration-color:#000;text-transform:none;block-progression:tb;isolation:auto;mix-blend-mode:normal" d="M 11 3 L 11 15 L 9 15 L 12 18 L 15 15 L 13 15 L 13 3 L 11 3 z M 3.7070312 3.2929688 L 2.2929688 4.7070312 L 5 7.4140625 L 5 11 L 3 11 L 6 14 L 9 11 L 7 11 L 7 6.5859375 L 3.7070312 3.2929688 z M 20.292969 3.2929688 L 17 6.5859375 L 17 11 L 15 11 L 18 14 L 21 11 L 19 11 L 19 7.4140625 L 21.707031 4.7070312 L 20.292969 3.2929688 z M 2 17 L 2 22 L 22 22 L 22 17 L 20 17 L 20 20 L 4 20 L 4 17 L 2 17 z"/>
</svg>
