<?xml version="1.0"?>
<svg xmlns="http://www.w3.org/2000/svg" viewBox="0 0 24 24">
    <path style="line-height:normal;text-indent:0;text-align:start;text-decoration-line:none;text-decoration-style:solid;text-decoration-color:#000;text-transform:none;block-progression:tb;isolation:auto;mix-blend-mode:normal" d="M 7.4179688 2 L 5.5625 4 L 2 4 L 2 17 L 18 17 L 18 4 L 14.289062 4 L 12.4375 2 L 7.4179688 2 z M 10 6 C 12.206 6 14 7.794 14 10 C 14 12.206 12.206 14 10 14 C 7.794 14 6 12.206 6 10 C 6 7.794 7.794 6 10 6 z M 10 8 A 2 2 0 0 0 8 10 A 2 2 0 0 0 10 12 A 2 2 0 0 0 12 10 A 2 2 0 0 0 10 8 z M 20 9 L 20 19 L 6 19 L 6 21 L 22 21 L 22 9 L 20 9 z" font-weight="400" font-family="sans-serif" white-space="normal" overflow="visible"/>
</svg>
