<?xml version="1.0"?>
<svg xmlns="http://www.w3.org/2000/svg" viewBox="0 0 24 24">
    <path style="line-height:normal;text-indent:0;text-align:start;text-decoration-line:none;text-decoration-style:solid;text-decoration-color:#000;text-transform:none;block-progression:tb;isolation:auto;mix-blend-mode:normal" d="M 3 2 L 3 8 L 9 8 L 9 2 L 3 2 z M 11 4 L 11 6 L 21 6 L 21 4 L 11 4 z M 3 9 L 3 10 L 3 15 L 9 15 L 9 9 L 3 9 z M 5 11 L 7 11 L 7 13 L 5 13 L 5 11 z M 11 11 L 11 13 L 21 13 L 21 11 L 11 11 z M 3 16 L 3 22 L 9 22 L 9 16 L 3 16 z M 11 18 L 11 20 L 21 20 L 21 18 L 11 18 z" font-weight="400" font-family="sans-serif" white-space="normal" overflow="visible"/>
</svg>
