<?xml version="1.0"?>
<svg xmlns="http://www.w3.org/2000/svg" viewBox="0 0 24 24">
    <path d="M 12 2 C 6.486 2 2 6.486 2 12 C 2 12.320534 2.0171645 12.636333 2.046875 12.949219 C 2.0583449 13.070421 2.0799278 13.188677 2.0957031 13.308594 C 2.1213168 13.502675 2.1469518 13.696281 2.1835938 13.886719 C 2.2087518 14.017881 2.2412393 14.146087 2.2714844 14.275391 C 2.3124519 14.450106 2.3562173 14.623837 2.40625 14.794922 C 2.4434917 14.922542 2.4832426 15.048359 2.5253906 15.173828 C 2.5806298 15.337968 2.639705 15.499916 2.703125 15.660156 C 2.7545622 15.790328 2.8065985 15.919428 2.8632812 16.046875 C 2.9326789 16.202721 3.0089216 16.354305 3.0859375 16.505859 C 3.1457428 16.623663 3.2033 16.742347 3.2675781 16.857422 C 3.3553646 17.014465 3.4510236 17.16664 3.546875 17.318359 C 3.613859 17.424448 3.6772355 17.533362 3.7480469 17.636719 C 3.9101949 17.873318 4.0804335 18.102748 4.2617188 18.324219 C 4.6852643 18.841575 5.1584248 19.314736 5.6757812 19.738281 C 5.8972523 19.919567 6.1266816 20.089805 6.3632812 20.251953 C 6.4666384 20.322765 6.5755519 20.386141 6.6816406 20.453125 C 6.83336 20.548976 6.9855349 20.644635 7.1425781 20.732422 C 7.257653 20.7967 7.3763366 20.854257 7.4941406 20.914062 C 7.6456953 20.991078 7.7972793 21.067321 7.953125 21.136719 C 8.0805718 21.193401 8.2096719 21.245438 8.3398438 21.296875 C 8.5000845 21.360295 8.662032 21.41937 8.8261719 21.474609 C 8.9516412 21.516757 9.077458 21.556508 9.2050781 21.59375 C 9.3761626 21.643783 9.5498943 21.687548 9.7246094 21.728516 C 9.8539126 21.758761 9.9821186 21.791248 10.113281 21.816406 C 10.303719 21.853048 10.497325 21.878683 10.691406 21.904297 C 10.811323 21.920072 10.929579 21.941655 11.050781 21.953125 C 11.363667 21.982835 11.679466 22 12 22 C 17.514 22 22 17.514 22 12 C 22 11.679466 21.982835 11.363667 21.953125 11.050781 C 21.941655 10.929579 21.920072 10.811323 21.904297 10.691406 C 21.878683 10.497325 21.853048 10.303719 21.816406 10.113281 C 21.791248 9.9821186 21.758761 9.8539126 21.728516 9.7246094 C 21.687548 9.5498943 21.643783 9.3761626 21.59375 9.2050781 C 21.556508 9.077458 21.516757 8.9516412 21.474609 8.8261719 C 21.41937 8.662032 21.360295 8.5000845 21.296875 8.3398438 C 21.245438 8.2096719 21.193401 8.0805718 21.136719 7.953125 C 21.067321 7.7972793 20.991078 7.6456953 20.914062 7.4941406 C 20.854257 7.3763366 20.7967 7.257653 20.732422 7.1425781 C 20.644635 6.9855349 20.548976 6.83336 20.453125 6.6816406 C 20.386141 6.5755519 20.322765 6.4666384 20.251953 6.3632812 C 20.089805 6.1266816 19.919567 5.8972523 19.738281 5.6757812 C 19.314736 5.1584248 18.841575 4.6852643 18.324219 4.2617188 C 18.102748 4.0804335 17.873318 3.9101949 17.636719 3.7480469 C 17.533362 3.6772355 17.424448 3.613859 17.318359 3.546875 C 17.16664 3.4510236 17.014465 3.3553646 16.857422 3.2675781 C 16.742347 3.2033 16.623663 3.1457428 16.505859 3.0859375 C 16.354305 3.0089216 16.202721 2.9326789 16.046875 2.8632812 C 15.919428 2.8065985 15.790328 2.7545622 15.660156 2.703125 C 15.499916 2.639705 15.337968 2.5806298 15.173828 2.5253906 C 15.048359 2.4832426 14.922542 2.4434917 14.794922 2.40625 C 14.623837 2.3562173 14.450106 2.3124519 14.275391 2.2714844 C 14.146087 2.2412393 14.017881 2.2087518 13.886719 2.1835938 C 13.696281 2.1469518 13.502675 2.1213168 13.308594 2.0957031 C 13.188677 2.0799278 13.070421 2.0583449 12.949219 2.046875 C 12.636333 2.0171645 12.320534 2 12 2 z M 16.896484 5.6894531 C 17.425358 6.1007186 17.899281 6.5746423 18.310547 7.1035156 L 16.886719 8.5273438 C 16.49722 7.9807596 16.01924 7.5027796 15.472656 7.1132812 L 16.896484 5.6894531 z M 12 8 C 12.2356 8 12.462982 8.0310707 12.6875 8.0703125 C 12.777204 8.0868085 12.865686 8.1063661 12.953125 8.1289062 C 13.059258 8.1551041 13.161043 8.1901083 13.263672 8.2246094 C 13.527206 8.3163141 13.782271 8.4264426 14.019531 8.5664062 C 14.603382 8.9113308 15.088669 9.396618 15.433594 9.9804688 C 15.436551 9.9854745 15.43847 9.9910741 15.441406 9.9960938 C 15.577526 10.228937 15.685618 10.478347 15.775391 10.736328 C 15.809892 10.838957 15.844896 10.940742 15.871094 11.046875 C 15.893634 11.134314 15.913192 11.222796 15.929688 11.3125 C 15.968929 11.537018 16 11.7644 16 12 C 16 12.27575 15.971332 12.544512 15.917969 12.804688 C 15.917841 12.805312 15.918096 12.806017 15.917969 12.806641 C 15.811129 13.326287 15.603853 13.809217 15.316406 14.234375 C 15.316087 14.234847 15.316725 14.235856 15.316406 14.236328 C 14.596825 15.299785 13.378209 16 12 16 C 11.7644 16 11.537018 15.968929 11.3125 15.929688 C 11.222796 15.913192 11.134314 15.893634 11.046875 15.871094 C 10.940742 15.844896 10.838957 15.809892 10.736328 15.775391 C 10.478347 15.685618 10.228937 15.577526 9.9960938 15.441406 C 9.9910816 15.438476 9.9854684 15.436543 9.9804688 15.433594 C 9.396618 15.088669 8.9113308 14.603382 8.5664062 14.019531 C 8.4264426 13.782271 8.3163141 13.527206 8.2246094 13.263672 C 8.1901083 13.161043 8.1551041 13.059258 8.1289062 12.953125 C 8.1063661 12.865686 8.0868085 12.777204 8.0703125 12.6875 C 8.0310707 12.462982 8 12.2356 8 12 C 8 11.724537 8.0289928 11.455113 8.0820312 11.195312 C 8.0820312 11.195312 8.0820312 11.193359 8.0820312 11.193359 C 8.1351917 10.933597 8.2135899 10.684074 8.3144531 10.445312 C 8.3144531 10.445312 8.3144531 10.443359 8.3144531 10.443359 C 8.4154395 10.204617 8.5402296 9.9780201 8.6835938 9.765625 C 8.6835938 9.765625 8.6835938 9.7636719 8.6835938 9.7636719 C 8.8273652 9.5508691 8.9909063 9.3528437 9.171875 9.171875 C 9.3525822 8.9911678 9.5513144 8.827284 9.7636719 8.6835938 C 9.7636719 8.6835938 9.765625 8.6835938 9.765625 8.6835938 C 9.9780201 8.5402296 10.20657 8.4154395 10.445312 8.3144531 C 10.684074 8.2135899 10.93555 8.1351917 11.195312 8.0820312 C 11.455113 8.0289928 11.724537 8 12 8 z M 12 11 A 1 1 0 0 0 11 12 A 1 1 0 0 0 12 13 A 1 1 0 0 0 13 12 A 1 1 0 0 0 12 11 z M 7.1132812 15.472656 C 7.5027796 16.01924 7.9807596 16.49722 8.5273438 16.886719 L 7.1035156 18.310547 C 6.5746423 17.899281 6.1007186 17.425358 5.6894531 16.896484 L 7.1132812 15.472656 z"/>
</svg>
