<?xml version="1.0"?>
<svg xmlns="http://www.w3.org/2000/svg" viewBox="0 0 24 24">
    <path d="M 1 5 L 1 16 L 1 20 L 23 20 L 23 15 L 21 15 L 21 10 L 22 10 L 22 14 L 23 14 L 23 5 L 1 5 z M 2 10 L 3.4570312 10 L 4.5019531 13.599609 L 5.5429688 10 L 7 10 L 7 14.976562 L 6.9980469 14.976562 L 6 14.976562 L 6 12 L 4.8769531 14.976562 L 4.1171875 14.976562 L 3 12 L 3 14.976562 L 2 14.976562 L 2 10 z M 13.644531 10 C 15.067531 10.041 15.154297 11.282906 15.154297 11.503906 L 14.1875 11.503906 C 14.1875 11.400906 14.204906 10.806641 13.628906 10.806641 C 13.453906 10.806641 13.059844 10.884188 13.089844 11.367188 C 13.118844 11.810188 13.703547 12.019406 13.810547 12.066406 C 14.034547 12.148406 15.141391 12.642391 15.150391 13.650391 C 15.152391 13.864391 15.097062 14.985 13.664062 15 C 12.105063 15.017 12 13.675438 12 13.398438 L 12.974609 13.398438 C 12.974609 13.545438 12.987062 14.256172 13.664062 14.201172 C 14.071063 14.167172 14.159828 13.87425 14.173828 13.65625 C 14.196828 13.28925 13.846563 13.068625 13.476562 12.890625 C 12.956563 12.640625 12.134141 12.333375 12.119141 11.359375 C 12.106141 10.482375 12.750531 9.975 13.644531 10 z M 18 10.001953 C 19.864 9.9719531 20 11.779906 20 12.128906 L 20 12.9375 C 20 13.1195 19.967203 13.698266 19.658203 14.197266 L 20.447266 15.775391 L 19.552734 16.224609 L 18.863281 14.845703 C 18.626281 14.938703 18.355812 15.005047 18.007812 14.998047 C 15.966813 14.954047 16 13.2785 16 12.9375 L 16 12.128906 C 16 11.777906 16.167 10.030953 18 10.001953 z M 18.001953 10.822266 C 17.056953 10.840266 17 11.889094 17 12.121094 L 17 12.9375 C 17 13.1595 17.154719 14.196688 18.011719 14.179688 C 18.833719 14.163688 19 13.1585 19 12.9375 L 19 12.121094 C 19 11.889094 18.887953 10.804266 18.001953 10.822266 z M 8 12 L 9 12 L 9 13.5 C 9 13.776 9.224 14 9.5 14 C 9.776 14 10 13.776 10 13.5 L 10 12 L 11 12 L 11 13.5 L 11 15.5 C 11 16.328 10.328 17 9.5 17 C 8.848 17 8.2977969 16.581 8.0917969 16 L 9.5 16 C 9.776 16 10 15.776 10 15.5 L 10 14.908203 C 9.843 14.964203 9.676 15 9.5 15 C 8.672 15 8 14.328 8 13.5 L 8 12 z"/>
</svg>
