<?xml version="1.0"?>
<svg xmlns="http://www.w3.org/2000/svg" viewBox="0 0 24 24">
    <path style="line-height:normal;text-indent:0;text-align:start;text-decoration-line:none;text-decoration-style:solid;text-decoration-color:#000;text-transform:none;block-progression:tb;isolation:auto;mix-blend-mode:normal" d="M 8.1816406 2.5742188 L 7.375 3.21875 C 7.156 3.39475 2 7.582 2 13 C 2 15.888263 3.3507343 17.45726 4.4179688 18.248047 C 4.1985421 18.606771 3.994541 18.96209 3.8242188 19.302734 C 3.3157163 20.319739 3 21.166667 3 22 L 5 22 C 5 21.833333 5.1842836 21.055261 5.6132812 20.197266 C 6.042279 19.33927 6.6871704 18.339383 7.5019531 17.408203 C 8.9196695 15.787956 10.81239 14.409727 13 14.078125 C 13.022242 14.074978 13.044094 14.071303 13.066406 14.068359 C 13.371989 14.025134 13.683537 14 14 14 L 14 16 C 11.212 16 9.0093906 18.319 7.7753906 20.5 C 8.9463906 20.754 10.474 21 12 21 C 17.535 21 19.818031 17.575688 21.832031 14.554688 L 22.287109 13.873047 L 21.707031 13.292969 C 21.572031 13.157969 18.364 10 14 10 C 11.230461 10 9.2419943 11.436717 7.8457031 13.144531 C 7.9351706 12.125461 8 11.073192 8 10 L 6 10 C 6 12.377246 5.7081189 14.78038 5.34375 16.414062 C 4.7091341 15.837969 4 14.806423 4 13 C 4 9.723 6.4845 6.8334375 7.8125 5.5234375 C 8.3245 6.3574375 9.043625 7.6799687 9.515625 9.1679688 C 10.091625 8.8489687 10.702328 8.5768125 11.361328 8.3828125 C 10.455328 5.6388125 8.8927812 3.5233906 8.8007812 3.4003906 L 8.1816406 2.5742188 z" font-weight="400" font-family="sans-serif" white-space="normal" overflow="visible"/>
</svg>
