<?xml version="1.0"?>
<svg xmlns="http://www.w3.org/2000/svg" viewBox="0 0 24 24">
    <path d="M 12 2 C 8.861 2 5.9666406 3.4308281 4.0566406 5.9238281 C 4.0346406 5.9518281 4.0297188 5.985625 4.0117188 6.015625 C 2.7977188 6.928625 2 8.367 2 10 C 2 10.281 2.0370312 10.552312 2.0820312 10.820312 C 2.0770313 10.845313 2.0625469 10.864625 2.0605469 10.890625 C 2.0205469 11.254625 2 11.625 2 12 C 2 17.514 6.486 22 12 22 C 17.514 22 22 17.514 22 12 C 22 11.767 21.992563 11.533688 21.976562 11.304688 C 21.968563 11.199687 21.932484 11.104719 21.896484 11.011719 C 21.963484 10.684719 22 10.347 22 10 C 22 8.276 21.122016 6.7535156 19.791016 5.8535156 C 19.752016 5.7255156 19.688703 5.6030937 19.595703 5.4960938 C 17.690703 3.2740938 14.923 2 12 2 z M 7 7 C 8.304 7 9.4034062 7.837 9.8164062 9 L 14.183594 9 C 14.597594 7.837 15.696 7 17 7 C 18.657 7 20 8.343 20 10 C 20 11.657 18.657 13 17 13 C 15.696 13 14.596594 12.163 14.183594 11 L 9.8164062 11 C 9.4034062 12.163 8.304 13 7 13 C 5.343 13 4 11.657 4 10 C 4 8.343 5.343 7 7 7 z M 7 9 A 1 1 0 0 0 6 10 A 1 1 0 0 0 7 11 A 1 1 0 0 0 8 10 A 1 1 0 0 0 7 9 z M 17 9 A 1 1 0 0 0 16 10 A 1 1 0 0 0 17 11 A 1 1 0 0 0 18 10 A 1 1 0 0 0 17 9 z M 12.080078 15 C 13.548078 15 15.229781 15.523875 15.300781 15.546875 L 14.699219 17.453125 C 14.685219 17.448125 13.236078 17 12.080078 17 C 11.114078 17 9.8619375 17.327125 9.4609375 17.453125 L 8.859375 15.546875 C 8.930375 15.523875 10.612078 15 12.080078 15 z"/>
</svg>
