<?xml version="1.0"?>
<svg xmlns="http://www.w3.org/2000/svg" viewBox="0 0 24 24">
    <path style="line-height:normal;text-indent:0;text-align:start;text-decoration-line:none;text-decoration-style:solid;text-decoration-color:#000;text-transform:none;block-progression:tb;isolation:auto;mix-blend-mode:normal" d="M 2 2 L 2 4 L 3 4 L 3 7 L 3 17 L 3 22 L 5 22 L 5 18 L 7 18 L 7 20 L 19 20 L 19 18 L 22 18 L 22 6 L 5 6 L 5 2 L 2 2 z M 8 10 C 8.738 10 9.3756562 10.405 9.7226562 11 L 13 11 L 13 13 L 9.7226562 13 C 9.3756562 13.595 8.738 14 8 14 C 6.895 14 6 13.105 6 12 C 6 10.895 6.895 10 8 10 z M 15 10 L 19 10 L 19 14 L 15 14 L 15 10 z" font-weight="400" font-family="sans-serif" white-space="normal" overflow="visible"/>
</svg>
