<?xml version="1.0"?>
<svg xmlns="http://www.w3.org/2000/svg" viewBox="0 0 24 24">
    <path style="line-height:normal;text-indent:0;text-align:start;text-decoration-line:none;text-decoration-style:solid;text-decoration-color:#000;text-transform:none;block-progression:tb;isolation:auto;mix-blend-mode:normal" d="M 14.554688 2.1679688 L 13.445312 3.8320312 L 16.697266 6 L 13 6 L 13 8 L 8 8 C 5.2504839 8 3 10.250484 3 13 L 3 14 L 3.203125 14 C 3.6827793 16.258186 5.6045398 18 8 18 L 12 18 C 12.56503 18 13 18.43497 13 19 L 13 22 L 15 22 L 15 19 C 15 17.35503 13.64497 16 12 16 L 8 16 C 6.3315161 16 5 14.668484 5 13 C 5 11.331516 6.3315161 10 8 10 L 13 10 L 13 12 L 21 12 L 21 6.4648438 L 14.554688 2.1679688 z" font-weight="400" font-family="sans-serif" white-space="normal" overflow="visible"/>
</svg>
