<?xml version="1.0"?>
<svg xmlns="http://www.w3.org/2000/svg" viewBox="0 0 24 24">
    <path style="line-height:normal;text-indent:0;text-align:start;text-decoration-line:none;text-decoration-style:solid;text-decoration-color:#000;text-transform:none;block-progression:tb;isolation:auto;mix-blend-mode:normal" d="M 6 2 L 6 12 L 8.234375 12 L 6.4335938 15 L 3 15 L 3 16 L 3 21 L 5 21 L 5 22 L 9 22 L 9 21 L 11 21 L 11 15 L 8.765625 15 L 10.566406 12 L 13.433594 12 L 15.234375 15 L 13 15 L 13 16 L 13 21 L 15 21 L 15 22 L 19 22 L 19 21 L 21 21 L 21 15 L 17.566406 15 L 15.765625 12 L 18 12 L 18 11 L 18 2 L 6 2 z M 8 5 L 16 5 L 16 10 L 8 10 L 8 5 z M 5 17 L 9 17 L 9 19 L 5 19 L 5 17 z M 15 17 L 19 17 L 19 19 L 15 19 L 15 17 z"/>
</svg>
