<?xml version="1.0"?>
<svg xmlns="http://www.w3.org/2000/svg" viewBox="0 0 24 24">
    <path style="line-height:normal;text-indent:0;text-align:start;text-decoration-line:none;text-decoration-style:solid;text-decoration-color:#000;text-transform:none;block-progression:tb;isolation:auto;mix-blend-mode:normal" d="M 17 2.1992188 L 17 5 L 3 5 L 3 7 L 17 7 L 17 9.8007812 L 22 6 L 17 2.1992188 z M 3 12 L 3 21 L 5 21 L 5 12 L 3 12 z M 7 12 L 7 21 L 9 21 L 9 12 L 7 12 z M 11 12 L 11 21 L 13 21 L 13 12 L 11 12 z M 15 12 L 15 21 L 17 21 L 17 12 L 15 12 z M 19 12 L 19 21 L 21 21 L 21 12 L 19 12 z"/>
</svg>
