<?xml version="1.0"?>
<svg xmlns="http://www.w3.org/2000/svg" viewBox="0 0 24 24">
    <path d="M 5 3 L 5 21 L 13 21 L 13 20.828125 L 11.171875 19 L 13 17.171875 L 13 11 L 15 11 L 15 13 L 17.171875 13 L 19 11.171875 L 19 3 L 5 3 z M 9 7 L 11 7 L 11 9 L 9 9 L 9 7 z M 13 7 L 15 7 L 15 9 L 13 9 L 13 7 z M 9 11 L 11 11 L 11 13 L 9 13 L 9 11 z M 19 14 L 18 15 L 15 15 L 15 18 L 14 19 L 15 20 L 15 23 L 18 23 L 19 24 L 20 23 L 23 23 L 23 20 L 24 19 L 23 18 L 23 15 L 20 15 L 19 14 z M 9 15 L 11 15 L 11 17 L 9 17 L 9 15 z"/>
</svg>
