<?xml version="1.0"?>
<svg xmlns="http://www.w3.org/2000/svg" viewBox="0 0 24 24">
    <path d="M 3 3 L 3 7 L 3 21 L 14.171875 21 L 13.171875 20 L 14.171875 19 L 5 19 L 5 7 L 19 7 L 19 14.171875 L 20 13.171875 L 21 14.171875 L 21 6 L 21 3 L 3 3 z M 7 10 L 7 12 L 9 12 L 9 10 L 7 10 z M 11 10 L 11 12 L 17 12 L 17 10 L 11 10 z M 7 14 L 7 16 L 9 16 L 9 14 L 7 14 z M 11 14 L 11 16 L 17 16 L 17 14 L 11 14 z M 20 16 L 19 17 L 17 17 L 17 19 L 16 20 L 17 21 L 17 23 L 19 23 L 20 24 L 21 23 L 23 23 L 23 21 L 24 20 L 23 19 L 23 17 L 21 17 L 20 16 z"/>
</svg>
