<?xml version="1.0"?>
<svg xmlns="http://www.w3.org/2000/svg" viewBox="0 0 24 24">
    <path style="line-height:normal;text-indent:0;text-align:start;text-decoration-line:none;text-decoration-style:solid;text-decoration-color:#000;text-transform:none;block-progression:tb;isolation:auto;mix-blend-mode:normal" d="M 9 3 L 9 4 L 2 4 L 2 14 L 13 14 L 13 13 L 15 13 L 17.171875 13 L 17.585938 12.585938 L 19 11.171875 L 20.414062 12.585938 L 20.828125 13 L 22 13 L 22 4 L 15 4 L 15 3 L 9 3 z M 12 10 C 12.552 10 13 10.448 13 11 C 13 11.552 12.552 12 12 12 C 11.448 12 11 11.552 11 11 C 11 10.448 11.448 10 12 10 z M 19 14 L 18 15 L 15 15 L 15 18 L 14 19 L 15 20 L 15 23 L 18 23 L 19 24 L 20 23 L 23 23 L 23 20 L 24 19 L 23 18 L 23 15 L 20 15 L 19 14 z M 2 16 L 2 20 L 12.171875 20 L 11.171875 19 L 12.585938 17.585938 L 13 17.171875 L 13 16 L 2 16 z" font-weight="400" font-family="sans-serif" white-space="normal" overflow="visible"/>
</svg>
