<?xml version="1.0"?>
<svg xmlns="http://www.w3.org/2000/svg" viewBox="0 0 24 24">
    <path d="M 1 3 L 1 21 L 5 21 L 5 19 L 7 19 L 7 21 L 13 21 L 13 20.828125 L 12.585938 20.414062 L 11.171875 19 L 12.585938 17.585938 L 13 17.171875 L 13 15 L 13 13 L 15 13 L 17.171875 13 L 17.585938 12.585938 L 19 11.171875 L 20.414062 12.585938 L 20.828125 13 L 23 13 L 23 5 L 13.617188 5 L 12.617188 3 L 1 3 z M 14 8 L 19 8 L 19 10 L 14 10 L 14 8 z M 6.9121094 8.0019531 C 8.4791204 7.9409458 9.5773281 9.5263281 8.6738281 11.228516 C 8.5748281 11.414516 8.4145156 11.575828 8.2285156 11.673828 C 6.1345156 12.785828 4.2141719 10.866484 5.3261719 8.7714844 C 5.4251719 8.5854844 5.5854844 8.4241719 5.7714844 8.3261719 C 6.1642969 8.1178594 6.5504915 8.0160317 6.9121094 8.0019531 z M 7 13 C 9.185 13 11 13.908797 11 15.216797 L 11 16 L 3 16 L 3 15.216797 C 3 13.908797 4.815 13 7 13 z M 19 14 L 18 15 L 15 15 L 15 18 L 14 19 L 15 20 L 15 23 L 18 23 L 19 24 L 20 23 L 23 23 L 23 20 L 24 19 L 23 18 L 23 15 L 20 15 L 19 14 z"/>
</svg>
