<?xml version="1.0"?>
<svg xmlns="http://www.w3.org/2000/svg" viewBox="0 0 24 24">
    <path d="M 5 3 C 3.897 3 3 3.897 3 5 L 3 19 C 3 20.103 3.897 21 5 21 L 13 21 L 13 20.828125 L 12.585938 20.414062 L 11.171875 19 L 12.585938 17.585938 L 13 17.171875 L 13 17 L 5 17 L 5 7 L 19 7 L 19 11.171875 L 20.414062 12.585938 L 20.828125 13 L 21 13 L 21 5 C 21 3.897 20.103 3 19 3 L 5 3 z M 19 14 L 18 15 L 15 15 L 15 18 L 14 19 L 15 20 L 15 23 L 18 23 L 19 24 L 20 23 L 23 23 L 23 20 L 24 19 L 23 18 L 23 15 L 20 15 L 19 14 z"/>
</svg>
