<?xml version="1.0"?>
<svg xmlns="http://www.w3.org/2000/svg" viewBox="0 0 24 24">
    <path d="M 15.183594 3 L 14.59375 3.1796875 L 13.599609 3.65625 L 12.900391 4.21875 L 12.400391 4.78125 L 12 5.5 L 11 6 L 11 7 L 12 7 L 12 7.5 L 11 8 L 12 8.75 L 12 9 L 11 9 L 10 10 L 8 10 L 7 11 L 6 9.625 L 5 9 L 3 9 L 2 10 L 2 11 L 3 11.5 L 3 12 L 2.4003906 12.1875 L 2.0996094 12.75 L 1.4003906 12.9375 L 1.0449219 13.5 L 0 14 L 0 15 L 13 15 L 14 15.375 L 14 16 L 16 18 L 18 19 L 17 20.03125 L 17 20.5 L 17.917969 20.978516 L 21.117188 20.978516 L 24 19 L 23 18 L 21.5 19 L 19 19 L 19 18.75 L 20 18 L 19 17 L 19 14 L 20 12 L 20 9 L 19 8 L 19 7 L 20 6 L 20 5 L 19 4 L 19 3 L 15.183594 3 z"/>
</svg>
