<?xml version="1.0"?>
<svg xmlns="http://www.w3.org/2000/svg" viewBox="0 0 24 24">
    <path style="line-height:normal;text-indent:0;text-align:start;text-decoration-line:none;text-decoration-style:solid;text-decoration-color:#000;text-transform:none;block-progression:tb;isolation:auto;mix-blend-mode:normal" d="M 12 1.0058594 C 9.4387181 1.0058594 6.8782304 1.9811446 4.9296875 3.9296875 L 6.34375 5.34375 C 9.4766642 2.2108358 14.523336 2.2108358 17.65625 5.34375 L 19.070312 3.9296875 C 17.121771 1.9811446 14.561282 1.0058594 12 1.0058594 z M 12 5.0566406 C 10.475233 5.0566406 8.9505423 5.6353951 7.7929688 6.7929688 L 9.2070312 8.2070312 C 10.757884 6.6561787 13.242116 6.6561786 14.792969 8.2070312 L 16.207031 6.7929688 C 15.049458 5.6353951 13.524767 5.0566406 12 5.0566406 z M 5 6.828125 L 5 23 L 19 23 L 19 6.828125 L 17.621094 8.2070312 L 17 8.828125 L 17 18 L 7 18 L 7 8.828125 L 6.3789062 8.2070312 L 6.34375 8.171875 L 5 6.828125 z M 12 9.0058594 C 11.485802 9.0058162 10.972229 9.1996453 10.585938 9.5859375 L 12 11 L 13.414062 9.5859375 C 13.028028 9.1989119 12.514198 9.0059025 12 9.0058594 z M 12 18.875 C 12.622 18.875 13.125 19.378 13.125 20 C 13.125 20.622 12.622 21.125 12 21.125 C 11.378 21.125 10.875 20.622 10.875 20 C 10.875 19.378 11.378 18.875 12 18.875 z" font-weight="400" font-family="sans-serif" white-space="normal" overflow="visible"/>
</svg>
