<?xml version="1.0"?>
<svg xmlns="http://www.w3.org/2000/svg" viewBox="0 0 24 24">
    <path d="M 18.996094 3 C 18.226094 3 17.531 3.2983906 17 3.7753906 C 18.122 3.9023906 18.996094 4.844 18.996094 6 C 18.996094 7.156 18.122 8.0976094 17 8.2246094 C 17.531 8.7016094 18.226094 9 18.996094 9 C 20.653094 9 21.996094 7.657 21.996094 6 C 21.996094 4.343 20.653094 3 18.996094 3 z M 11.5 5 C 9.57 5 8 6.57 8 8.5 C 8 10.43 9.57 12 11.5 12 C 13.43 12 15 10.43 15 8.5 C 15 6.57 13.43 5 11.5 5 z M 11.5 14 C 8.514 14 4 15.795 4 18.5 L 4 21 L 19 21 L 19 18.5 C 19 15.795 14.486 14 11.5 14 z"/>
</svg>
