<?xml version="1.0"?>
<svg xmlns="http://www.w3.org/2000/svg" viewBox="0 0 24 24">
    <path style="line-height:normal;text-indent:0;text-align:start;text-decoration-line:none;text-decoration-style:solid;text-decoration-color:#000;text-transform:none;block-progression:tb;isolation:auto;mix-blend-mode:normal" d="M 3.7070312 2.2929688 L 2.2929688 3.7070312 L 2.5859375 4 L 2 4 L 2 20 L 4 20 L 4 5.4140625 L 5 6.4140625 L 5 20 L 9 20 L 9 10.414062 L 10 11.414062 L 10 20 L 12 20 L 12 13.414062 L 13 14.414062 L 13 20 L 16 20 L 16 17.414062 L 17 18.414062 L 17 20 L 18.585938 20 L 20.292969 21.707031 L 21.707031 20.292969 L 3.7070312 2.2929688 z M 10 4 L 10 5.8066406 L 12 7.8066406 L 12 4 L 10 4 z M 13 4 L 13 8.8066406 L 16 11.806641 L 16 4 L 13 4 z M 17 4 L 17 12.806641 L 19 14.806641 L 19 4 L 17 4 z M 20 4 L 20 15.806641 L 22 17.806641 L 22 4 L 20 4 z"/>
</svg>
