<?xml version="1.0"?>
<svg xmlns="http://www.w3.org/2000/svg" viewBox="0 0 24 24">
    <path style="line-height:normal;text-indent:0;text-align:start;text-decoration-line:none;text-decoration-style:solid;text-decoration-color:#000;text-transform:none;block-progression:tb;isolation:auto;mix-blend-mode:normal" d="M 9 2 L 9 4 L 8.2441406 4 L 9.2441406 5 L 9.2382812 5 L 17 12.761719 L 17 12.755859 L 18 13.755859 L 18 4 L 15 4 L 15 2 L 9 2 z M 3.7070312 2.2929688 L 2.2929688 3.7070312 L 6 7.4140625 L 6 22 L 18 22 L 18 19.414062 L 20.292969 21.707031 L 21.707031 20.292969 L 18 16.585938 L 18 16.582031 L 16 14.582031 L 16 14.585938 L 8 6.5859375 L 8 6.5820312 L 6.328125 4.9101562 C 6.328125 4.9101562 6.3261719 4.9121094 6.3261719 4.9121094 L 3.7070312 2.2929688 z" font-weight="400" font-family="sans-serif" white-space="normal" overflow="visible"/>
</svg>
