<?xml version="1.0"?>
<svg xmlns="http://www.w3.org/2000/svg" viewBox="0 0 24 24">
    <path d="M 12 2 C 9.603 2 7.4007813 2.8497188 5.6757812 4.2617188 L 9.421875 8.0078125 C 9.516875 7.8258125 9.6229062 7.6549063 9.7539062 7.5039062 C 9.9749063 7.2479062 10.239875 7.0408594 10.546875 6.8808594 C 10.689875 6.8068594 10.841 6.7482187 11 6.6992188 L 11 5 L 13 5 L 13 6.7011719 C 13.209 6.7661719 13.408797 6.8469844 13.591797 6.9589844 C 13.888797 7.1399844 14.142609 7.3750625 14.349609 7.6640625 C 14.557609 7.9540625 14.718078 8.2964063 14.830078 8.6914062 C 14.941078 9.0804062 14.996047 9.518 14.998047 10 L 13.158203 10 C 13.155203 9.423 13.052703 8.9872187 12.845703 8.6992188 C 12.635703 8.4072188 12.353953 8.2617188 12.001953 8.2617188 C 11.809953 8.2617188 11.646766 8.293375 11.509766 8.359375 C 11.371766 8.425375 11.256969 8.5178125 11.167969 8.6328125 C 11.077969 8.7478125 11.011703 8.8840156 10.970703 9.0410156 C 10.932703 9.1820156 10.917062 9.3370469 10.914062 9.4980469 L 19.738281 18.322266 C 21.149281 16.598266 22 14.397 22 12 C 22 6.486 17.514 2 12 2 z M 4.2617188 5.6757812 C 2.8497188 7.4007812 2 9.603 2 12 C 2 17.514 6.486 22 12 22 C 14.397 22 16.599219 21.150281 18.324219 19.738281 L 14.666016 16.080078 C 14.564016 16.283078 14.448688 16.473719 14.304688 16.636719 C 14.083687 16.887719 13.818812 17.088234 13.507812 17.240234 C 13.347812 17.318234 13.178 17.382641 13 17.431641 L 13 19 L 11 19 L 11 17.451172 C 10.807 17.401172 10.616641 17.338859 10.431641 17.255859 C 10.102641 17.108859 9.8116406 16.897141 9.5566406 16.619141 C 9.3016406 16.342141 9.0963594 15.993313 8.9433594 15.570312 C 8.7913594 15.148312 8.7167969 14.588 8.7167969 14 L 10.556641 14 C 10.556641 14.348 10.594828 14.692781 10.673828 14.925781 C 10.751828 15.158781 10.857281 15.344375 10.988281 15.484375 C 11.120281 15.624375 11.2705 15.722297 11.4375 15.779297 C 11.6045 15.836297 11.775219 15.865234 11.949219 15.865234 C 12.148219 15.865234 12.323609 15.833531 12.474609 15.769531 C 12.624609 15.705531 12.752516 15.616906 12.853516 15.503906 C 12.956516 15.390906 13.031031 15.257516 13.082031 15.103516 C 13.133031 14.948516 13.158203 14.780609 13.158203 14.599609 C 13.158203 14.588609 13.154297 14.581312 13.154297 14.570312 L 4.2617188 5.6757812 z"/>
</svg>
