<?xml version="1.0"?>
<svg xmlns="http://www.w3.org/2000/svg" viewBox="0 0 24 24">
    <path style="line-height:normal;text-indent:0;text-align:start;text-decoration-line:none;text-decoration-style:solid;text-decoration-color:#000;text-transform:none;block-progression:tb;isolation:auto;mix-blend-mode:normal" d="M 11 0 L 11 3 L 13 3 L 13 0 L 11 0 z M 3.7070312 2.2929688 L 2.2929688 3.7070312 L 6.4082031 7.8222656 C 5.5305434 8.9894364 5 10.430256 5 12 C 5 14.715 6.581 17.170359 9 18.318359 L 9 23 L 15 23 L 15 18.318359 C 15.422609 18.117875 15.808818 17.864724 16.173828 17.587891 L 20.292969 21.707031 L 21.707031 20.292969 L 3.7070312 2.2929688 z M 19.777344 2.8085938 L 17.65625 4.9296875 L 19.070312 6.34375 L 21.191406 4.2226562 L 19.777344 2.8085938 z M 12 5 C 11.166 5 10.368953 5.1548281 9.6269531 5.4238281 L 18.568359 14.365234 C 18.839359 13.618234 19 12.824 19 12 C 19 8.14 15.859 5 12 5 z M 0 11 L 0 13 L 3 13 L 3 11 L 0 11 z M 21 11 L 21 13 L 24 13 L 24 11 L 21 11 z M 4.9296875 17.65625 L 2.8085938 19.777344 L 4.2226562 21.191406 L 6.34375 19.070312 L 4.9296875 17.65625 z"/>
</svg>
