<?xml version="1.0"?>
<svg xmlns="http://www.w3.org/2000/svg" viewBox="0 0 24 24">
    <path style="line-height:normal;text-indent:0;text-align:start;text-decoration-line:none;text-decoration-style:solid;text-decoration-color:#000;text-transform:none;block-progression:tb;isolation:auto;mix-blend-mode:normal" d="M 1 2 L 1 8 L 3 8 L 3 22 L 5 22 L 5 8 L 7 8 L 7 2 L 5 2 L 5 4 L 3 4 L 3 2 L 1 2 z M 9 2 L 9 4 L 21 4 L 21 12.294922 C 21.723 12.509922 22.396 12.837766 23 13.259766 L 23 2 L 9 2 z M 19.007812 14.019531 C 17.627813 14.019531 16.378609 14.572563 15.474609 15.476562 C 14.570609 16.380562 14.017578 17.629766 14.017578 19.009766 C 14.017578 21.769766 16.249766 24 19.009766 24 C 21.769766 24 24 21.770766 24 19.009766 C 23.999 16.252766 21.767813 14.020531 19.007812 14.019531 z M 7 16 L 7 18 L 10 18 L 10 20 L 8 20 L 8 22 L 12.683594 22 C 12.250594 21.09 12 20.075 12 19 C 12 17.925 12.250594 16.91 12.683594 16 L 7 16 z M 17.601562 16.179688 L 19.015625 17.59375 L 20.429688 16.179688 L 21.84375 17.59375 L 20.429688 19.007812 L 21.84375 20.421875 L 20.429688 21.835938 L 19.015625 20.421875 L 17.601562 21.835938 L 16.1875 20.421875 L 17.601562 19.007812 L 16.1875 17.59375 L 17.601562 16.179688 z" font-weight="400" font-family="sans-serif" white-space="normal" overflow="visible"/>
</svg>
