<?xml version="1.0"?>
<svg xmlns="http://www.w3.org/2000/svg" viewBox="0 0 24 24">
    <path d="M 2.7070312 1.2929688 L 1.2929688 2.7070312 L 3.0742188 4.4882812 C 3.0302166 4.652367 3 4.8225565 3 5 L 3 19 C 3 20.1 3.9 21 5 21 L 19 21 C 19.177443 21 19.347633 20.969783 19.511719 20.925781 L 21.292969 22.707031 L 22.707031 21.292969 L 20.927734 19.513672 C 20.928115 19.51226 20.92931 19.511179 20.929688 19.509766 L 14.380859 12.960938 C 14.379608 12.961629 14.378206 12.962201 14.376953 12.962891 L 9 7.5859375 L 9 7.5800781 L 4.4902344 3.0703125 C 4.4888214 3.0706904 4.4877399 3.0718848 4.4863281 3.0722656 L 2.7070312 1.2929688 z M 7.2402344 3 L 11.259766 7.0195312 C 11.479766 6.9995313 11.720469 7 11.980469 7 C 13.340469 7 14.310937 7.2707812 14.960938 7.8007812 C 15.580937 8.3007812 16 9.1198437 16 10.089844 C 16 10.609844 15.910234 11.08 15.740234 11.5 L 21 16.759766 L 21 5 C 21 3.9 20.1 3 19 3 L 7.2402344 3 z M 9 10.414062 L 12.070312 13.484375 C 12.025978 13.485122 11.984214 13.490234 11.939453 13.490234 C 11.649453 13.490234 11.2 13.440156 11 13.410156 L 11 17 L 9 17 L 9 10.414062 z"/>
</svg>
