<?xml version="1.0"?>
<svg xmlns="http://www.w3.org/2000/svg" viewBox="0 0 24 24">
    <path d="M 10.5 2 L 10.5 4.1953125 C 9.9798214 4.3306149 9.4851258 4.5303189 9.0292969 4.7910156 L 9.78125 5.5429688 C 9.7734582 5.5468657 9.7655843 5.5507557 9.7578125 5.5546875 L 17 12.796875 L 17 12.761719 L 18 13.761719 L 18 10 C 18 7.2048001 16.086816 4.862095 13.5 4.1953125 L 13.5 2 L 10.5 2 z M 4.4472656 3.0332031 L 3.0332031 4.4472656 L 6.4121094 7.8261719 C 6.1482795 8.5002956 6 9.2318884 6 10 L 6 16 L 4 18 L 4 19 L 10.269531 19 A 2 2 0 0 0 10 20 A 2 2 0 0 0 12 22 A 2 2 0 0 0 14 20 A 2 2 0 0 0 13.728516 19 L 17.585938 19 L 20.033203 21.447266 L 21.447266 20.033203 L 8.90625 7.4941406 L 7.4765625 6.0644531 L 4.4472656 3.0332031 z"/>
</svg>
