<?xml version="1.0"?>
<svg xmlns="http://www.w3.org/2000/svg" viewBox="0 0 24 24">
    <path style="line-height:normal;text-indent:0;text-align:start;text-decoration-line:none;text-decoration-style:solid;text-decoration-color:#000;text-transform:none;block-progression:tb;isolation:auto;mix-blend-mode:normal" d="M 10 0 C 10 0.54758632 9.9569038 1.6508798 10.417969 2.7871094 C 10.879034 3.9233389 11.946515 5.0672715 13.746094 5.5390625 C 14.899346 5.8420399 16.096222 6.1326767 16.890625 6.5410156 C 17.685028 6.9493545 18 7.2563876 18 8 L 20 8 C 20 6.4576124 18.945035 5.3478798 17.804688 4.7617188 C 16.66434 4.1755577 15.361654 3.8945383 14.253906 3.6035156 C 12.971485 3.2673066 12.539919 2.6966767 12.271484 2.0351562 C 12.003049 1.3736359 12 0.59541368 12 0 L 10 0 z M 15 0 L 15 2 C 15.9 2 16.987549 2.1532079 17.755859 2.5078125 C 18.524169 2.8624171 18.935406 3.2619845 19.003906 4.0839844 A 1.0001 1.0001 0 0 0 20 5 C 20.666667 5 21.0602 5.2680337 21.417969 5.8046875 C 21.775738 6.3413413 22 7.1666667 22 8 L 24 8 C 24 6.8333333 23.724262 5.6586587 23.082031 4.6953125 C 22.565162 3.9200088 21.697642 3.4040766 20.703125 3.1894531 C 20.334003 2.0422113 19.560624 1.1376556 18.59375 0.69140625 C 17.41206 0.14601089 16.1 0 15 0 z M 3.7070312 2.2929688 L 2.2929688 3.7070312 L 7.5859375 9 L 0 9 L 0 15 L 13.585938 15 L 20.292969 21.707031 L 21.707031 20.292969 L 16.414062 15 L 16.421875 15 L 14.421875 13 L 12.421875 11 L 10.421875 9 L 10.414062 9 L 3.7070312 2.2929688 z M 13.248047 9 L 15.248047 11 L 17.248047 13 L 18 13.751953 L 18 9 L 13.248047 9 z M 20 9 L 20 15 L 24 15 L 24 9 L 20 9 z" font-weight="400" font-family="sans-serif" white-space="normal" overflow="visible"/>
</svg>
