<?xml version="1.0"?>
<svg xmlns="http://www.w3.org/2000/svg" viewBox="0 0 24 24">
    <path d="M 9.2734375 1 C 6.6974375 1 5.7185469 2.7913281 5.5605469 3.7363281 C 5.5385469 3.8673281 5.0189531 6.9970938 5.0019531 11.996094 C 4.9969531 13.676094 5.0425781 15.269281 5.1425781 16.863281 L 5.3515625 20.4375 C 5.4205625 21.6565 6.4355781 22.625187 7.7675781 22.742188 L 9.5253906 22.892578 C 10.332391 22.963578 11.167719 23 12.011719 23 L 12.236328 22.998047 L 12.238281 22.996094 C 13.012281 22.991094 13.771094 22.956578 14.496094 22.892578 L 16.259766 22.742188 C 17.589766 22.625187 18.604828 21.657453 18.673828 20.439453 L 18.880859 16.865234 C 19.056859 14.037234 19.081141 12.688094 18.994141 11.996094 L 19 11.996094 C 18.982 7.0020938 18.485844 3.8751406 18.464844 3.7441406 L 18.462891 3.7402344 C 18.305891 2.7922344 17.326 1 14.75 1 L 13 1 L 11 1 L 9.2734375 1 z M 9.2734375 3 L 11 3 L 11 4 L 11 5 L 13 5 L 13 4 L 13 3 L 14.751953 3 C 16.173953 3 16.448188 3.879125 16.492188 4.078125 C 16.523187 4.281125 16.843984 6.4272656 16.958984 9.8222656 C 16.334984 10.952266 14.821 13 12 13 C 9.182 13 7.6699219 10.957172 7.0449219 9.8261719 C 7.1699219 6.2781719 7.5272969 4.0988906 7.5292969 4.0878906 C 7.5672969 3.9058906 7.8304375 3 9.2734375 3 z M 9 6 L 9 10 L 15 10 L 15 6 L 9 6 z M 8 14 C 8.552 14 9 14.448 9 15 C 9 15.552 8.552 16 8 16 C 7.448 16 7 15.552 7 15 C 7 14.448 7.448 14 8 14 z M 16 14 C 16.552 14 17 14.448 17 15 C 17 15.552 16.552 16 16 16 C 15.448 16 15 15.552 15 15 C 15 14.448 15.448 14 16 14 z M 12 15 C 12.552 15 13 15.448 13 16 C 13 16.552 12.552 17 12 17 C 11.448 17 11 16.552 11 16 C 11 15.448 11.448 15 12 15 z M 8 18 C 8.552 18 9 18.448 9 19 C 9 19.552 8.552 20 8 20 C 7.448 20 7 19.552 7 19 C 7 18.448 7.448 18 8 18 z M 16 18 C 16.552 18 17 18.448 17 19 C 17 19.552 16.552 20 16 20 C 15.448 20 15 19.552 15 19 C 15 18.448 15.448 18 16 18 z M 12 19 C 12.552 19 13 19.448 13 20 C 13 20.552 12.552 21 12 21 C 11.448 21 11 20.552 11 20 C 11 19.448 11.448 19 12 19 z"/>
</svg>
