<?xml version="1.0"?>
<svg xmlns="http://www.w3.org/2000/svg" viewBox="0 0 24 24">
    <path d="M 4 1 L 4 22 C 4.018 22.008 6.1089687 23 12.042969 23 C 17.977969 23 19.985 22.008 20 22 L 20 1 L 4 1 z M 6 4 L 18 4 L 18 18 L 6 18 L 6 4 z M 8 6 L 8 8 L 16 8 L 16 6 L 8 6 z M 8 10 L 8 12 L 13 12 L 13 10 L 8 10 z M 8 14 L 8 16 L 16 16 L 16 14 L 8 14 z M 12 19 C 13.105 19 14 19.895 14 21 L 14 22 L 13 22 L 13 21 C 13 20.449 12.551 20 12 20 C 11.449 20 11 20.449 11 21 L 11 22 L 10 22 L 10 21 C 10 19.895 10.895 19 12 19 z"/>
</svg>
