<?xml version="1.0"?>
<svg xmlns="http://www.w3.org/2000/svg" viewBox="0 0 24 24">
    <path d="M 1 3 L 1 19 L 8 19 L 8 21 L 16 21 L 16 19 L 23 19 L 23 3 L 1 3 z M 3 6 L 5 6 L 5 8 L 3 8 L 3 6 z M 19 6 L 21 6 L 21 8 L 19 8 L 19 6 z M 10.382812 7.96875 L 12 9.5859375 L 13.617188 7.96875 L 15.03125 9.3828125 L 13.414062 11 L 15.03125 12.617188 L 13.617188 14.03125 L 12 12.414062 L 10.382812 14.03125 L 8.96875 12.617188 L 10.585938 11 L 8.96875 9.3828125 L 10.382812 7.96875 z M 3 10 L 5 10 L 5 12 L 3 12 L 3 10 z M 19 10 L 21 10 L 21 12 L 19 12 L 19 10 z M 3 14 L 5 14 L 5 16 L 3 16 L 3 14 z M 19 14 L 21 14 L 21 16 L 19 16 L 19 14 z"/>
</svg>
