<?xml version="1.0"?>
<svg xmlns="http://www.w3.org/2000/svg" viewBox="0 0 24 24">
    <path d="M 10 2 C 5.5935666 2 2 5.5935666 2 10 C 2 14.406433 5.5935666 18 10 18 C 12.023929 18 13.871701 17.237039 15.283203 15.990234 L 16 16.707031 L 16 18 L 20 22 L 22 20 L 18 16 L 16.707031 16 L 15.990234 15.283203 C 17.237039 13.871701 18 12.023929 18 10 C 18 5.5935666 14.406433 2 10 2 z M 10 4 C 13.325553 4 16 6.6744469 16 10 C 16 13.325553 13.325553 16 10 16 C 6.6744469 16 4 13.325553 4 10 C 4 6.6744469 6.6744469 4 10 4 z M 7 8 A 1 1 0 0 0 6 9 A 1 1 0 0 0 7 10 A 1 1 0 0 0 8 9 A 1 1 0 0 0 7 8 z M 13 8 A 1 1 0 0 0 12 9 A 1 1 0 0 0 13 10 A 1 1 0 0 0 14 9 A 1 1 0 0 0 13 8 z M 10 10.996094 C 8.7774131 10.996094 7.5540957 11.364541 6.5195312 12.103516 L 7.6816406 13.732422 C 9.0425117 12.760371 10.955535 12.760371 12.316406 13.732422 L 13.478516 12.103516 C 12.443951 11.364541 11.222587 10.996094 10 10.996094 z"/>
</svg>
