<?xml version="1.0"?>
<svg xmlns="http://www.w3.org/2000/svg" viewBox="0 0 24 24">
    <path d="M 4.75 3 C 2.04 3 0 5.0001562 0 7.6601562 C 0 10.940156 3.5701563 14.07 4.9101562 15.25 L 5.0507812 15.369141 C 6.2407813 16.419141 7.859375 17.769531 7.859375 17.769531 L 8.5 18.300781 L 9.140625 17.769531 C 9.140625 17.769531 9.2494531 17.669766 9.4394531 17.509766 C 8.6294531 16.369766 8 15.029297 8 13.529297 C 8 10.429297 10.53 8 13.75 8 C 14.68 8 15.62 8.2296875 16.5 8.6796875 C 16.64 8.6096875 16.779922 8.5404687 16.919922 8.4804688 C 16.969922 8.2104688 17 7.9401563 17 7.6601562 C 17 5.0001562 14.96 3 12.25 3 C 10.61 3 9.29 3.8996094 8.5 4.5996094 C 7.71 3.8996094 6.39 3 4.75 3 z M 13.75 10 C 11.61 10 10 11.519297 10 13.529297 C 10 14.479297 10.420469 15.400703 10.980469 16.220703 C 11.850469 17.490703 13.090938 18.519062 13.710938 19.039062 L 13.820312 19.119141 C 14.690312 19.849141 15.880859 20.789062 15.880859 20.789062 L 16.5 21.269531 L 17.119141 20.789062 C 17.119141 20.789062 18.309453 19.849141 19.189453 19.119141 L 19.289062 19.039062 C 20.299062 18.189063 23 15.959297 23 13.529297 C 23 11.519297 21.39 10 19.25 10 C 18.08 10 17.12 10.549063 16.5 11.039062 C 16.37 10.939063 16.220312 10.840234 16.070312 10.740234 C 15.470313 10.340234 14.68 10 13.75 10 z"/>
</svg>
