<?xml version="1.0"?>
<svg xmlns="http://www.w3.org/2000/svg" viewBox="0 0 24 24">
    <path d="M 12 2 A 2 2 0 0 0 10 4 A 2 2 0 0 0 12 6 A 2 2 0 0 0 14 4 A 2 2 0 0 0 12 2 z M 4 7 A 2 2 0 0 0 2 9 A 2 2 0 0 0 4 11 A 2 2 0 0 0 5.7304688 10 L 9 10 L 9 14.722656 L 7.0332031 18.001953 A 2 2 0 0 0 7 18 A 2 2 0 0 0 5 20 A 2 2 0 0 0 7 22 A 2 2 0 0 0 9 20 A 2 2 0 0 0 8.7480469 19.03125 L 10.566406 16 L 13.433594 16 L 15.251953 19.029297 A 2 2 0 0 0 15 20 A 2 2 0 0 0 17 22 A 2 2 0 0 0 19 20 A 2 2 0 0 0 17 18 A 2 2 0 0 0 16.966797 18.001953 L 15 14.722656 L 15 10 L 18.271484 10 A 2 2 0 0 0 20 11 A 2 2 0 0 0 22 9 A 2 2 0 0 0 20 7 A 2 2 0 0 0 18.269531 8 L 5.7285156 8 A 2 2 0 0 0 4 7 z"/>
</svg>
