<?xml version="1.0"?>
<svg xmlns="http://www.w3.org/2000/svg" viewBox="0 0 24 24">
    <path d="M 12 2 C 8.159 2.021 4.3853281 3.5453594 1.6113281 6.3183594 L 1 6.9296875 L 4.3671875 10.298828 L 8 7.4804688 L 8 4.6152344 C 9.429 4.1722344 10.720141 3.996 11.994141 4 C 13.268141 3.996 14.592484 4.1722344 16.021484 4.6152344 L 16.033203 7.4804688 L 19.630859 10.298828 L 23 6.9296875 L 22.388672 6.3183594 C 19.614672 3.5453594 15.841 2.021 12 2 z M 4 12 L 4 16 L 8 16 L 8 12 L 4 12 z M 10 12 L 10 16 L 14 16 L 14 12 L 10 12 z M 16 12 L 16 16 L 20 16 L 20 12 L 16 12 z M 4 18 L 4 22 L 8 22 L 8 18 L 4 18 z M 10 18 L 10 22 L 14 22 L 14 18 L 10 18 z M 16 18 L 16 22 L 20 22 L 20 18 L 16 18 z"/>
</svg>
