<?xml version="1.0"?>
<svg xmlns="http://www.w3.org/2000/svg" viewBox="0 0 24 24">
    <path style="line-height:normal;text-indent:0;text-align:start;text-decoration-line:none;text-decoration-style:solid;text-decoration-color:#000;text-transform:none;block-progression:tb;isolation:auto;mix-blend-mode:normal" d="M 19 2 C 19 3.5244103 18.651157 3.9756607 18.140625 4.4472656 C 17.200149 3.5218587 15.46434 2.135526 13.400391 2.0097656 C 11.890391 1.9197656 10.519063 2.4909375 9.2890625 3.7109375 C 9.1090625 3.8909375 9.01 4.1308594 9 4.3808594 L 9 4.390625 C 9.14 4.920625 10.000859 7.7391406 13.130859 10.869141 C 16.230859 13.969141 19.029844 14.84 19.589844 15 L 19.609375 15 C 19.859375 14.99 20.099062 14.900937 20.289062 14.710938 C 21.509063 13.490937 22.080234 12.119141 21.990234 10.619141 C 21.87118 8.5431246 20.46799 6.7931052 19.539062 5.8496094 C 20.210551 5.1317328 21 4.0088749 21 2 L 19 2 z M 7.3398438 5.7597656 C 7.2298438 5.8597656 7.1295313 5.9603125 7.0195312 6.0703125 C 4.3495313 8.7703125 3 11.77 3 15 C 3 16.18 3.4108594 17.099922 3.8808594 17.919922 C 3.8108594 18.229922 3.34 19.069141 3 19.619141 L 4.3691406 21 C 4.9091406 20.67 5.7600781 20.200859 6.0800781 20.130859 C 7.0400781 20.680859 7.84 21 9 21 C 12.13 21 15.170547 19.589453 17.810547 16.939453 C 17.880547 16.869453 17.989141 16.749375 18.119141 16.609375 C 16.739141 16.089375 14.320703 14.879297 11.720703 12.279297 C 9.0407031 9.5992969 7.8398438 7.1097656 7.3398438 5.7597656 z" font-weight="400" font-family="sans-serif" white-space="normal" overflow="visible"/>
</svg>
