<?xml version="1.0"?>
<svg xmlns="http://www.w3.org/2000/svg" viewBox="0 0 24 24">
    <path d="M 3.7070312 2.2929688 L 2.2929688 3.7070312 L 4.2617188 5.6757812 C 2.8522719 7.3978059 2 9.5896801 2 11.984375 C 2 15.146375 3.4792969 17.966781 5.7792969 19.800781 L 7.0234375 18.238281 C 5.1834375 16.771281 4 14.514375 4 11.984375 C 4 10.142447 4.6322182 8.4503952 5.6835938 7.0976562 L 7.1132812 8.5273438 C 6.417356 9.5057677 6 10.694531 6 11.984375 C 6 13.882375 6.8875781 15.575781 8.2675781 16.675781 L 9.5214844 15.099609 C 8.6024844 14.365609 8 13.249375 8 11.984375 C 8 11.24859 8.2210174 10.575445 8.5722656 9.9863281 L 10.507812 11.921875 C 10.506908 11.943234 10.5 11.962792 10.5 11.984375 C 10.5 12.812375 11.172 13.484375 12 13.484375 C 12.021583 13.484375 12.041138 13.477467 12.0625 13.476562 L 20.292969 21.707031 L 21.707031 20.292969 L 3.7070312 2.2929688 z M 18.240234 4.1835938 L 16.992188 5.7441406 C 18.822188 7.2111406 20 9.461375 20 11.984375 C 20 13.178375 19.723953 14.304266 19.251953 15.322266 L 20.732422 16.804688 C 21.528422 15.372687 22 13.735375 22 11.984375 C 22 8.830375 20.528234 6.0175938 18.240234 4.1835938 z M 15.744141 7.3046875 L 14.486328 8.8769531 C 15.402328 9.6109531 16 10.722375 16 11.984375 C 16 12.011375 15.995141 12.037453 15.994141 12.064453 L 17.712891 13.783203 C 17.893891 13.214203 18 12.612375 18 11.984375 C 18 10.092375 17.117141 8.4056875 15.744141 7.3046875 z"/>
</svg>
