<?xml version="1.0"?>
<svg xmlns="http://www.w3.org/2000/svg" viewBox="0 0 24 24">
    <path style="line-height:normal;text-indent:0;text-align:start;text-decoration-line:none;text-decoration-style:solid;text-decoration-color:#000;text-transform:none;block-progression:tb;isolation:auto;mix-blend-mode:normal" d="M 3 2 L 3 4 L 4 4 L 4 11 L 3 11 L 3 13 L 4 13 L 4 20 L 3 20 L 3 22 L 21 22 L 21 20 L 20 20 L 20 13 L 21 13 L 21 11 L 20 11 L 20 4 L 21 4 L 21 2 L 3 2 z M 12 7.2402344 L 12.822266 8.4316406 C 13.477266 9.3806406 15 11.722 15 13 C 15 14.654 13.654 16 12 16 C 10.346 16 9 14.654 9 13 C 9 11.722 10.522734 9.3796406 11.177734 8.4316406 L 12 7.2402344 z"/>
</svg>
