<?xml version="1.0"?>
<svg xmlns="http://www.w3.org/2000/svg" viewBox="0 0 24 24">
    <path d="M 14 3 L 14 5 L 15 5 L 15 7 C 12.206 7.37 4.5159219 8.459 4.0449219 19 L 3 19 L 3 21 L 21 21 L 21 3 L 14 3 z M 9 5 A 1 1 0 0 0 8 6 A 1 1 0 0 0 9 7 A 1 1 0 0 0 10 6 A 1 1 0 0 0 9 5 z M 6 7 A 1 1 0 0 0 5 8 A 1 1 0 0 0 6 9 A 1 1 0 0 0 7 8 A 1 1 0 0 0 6 7 z M 4 10 A 1 1 0 0 0 3 11 A 1 1 0 0 0 4 12 A 1 1 0 0 0 5 11 A 1 1 0 0 0 4 10 z M 14 11 C 15.105 11 16 11.895 16 13 C 16 13.738 15.595 14.375656 15 14.722656 L 15 16 L 17 16 L 17 18 L 13 18 L 13 14.722656 C 12.405 14.376656 12 13.739 12 13 C 12 11.895 12.895 11 14 11 z"/>
</svg>
