<?xml version="1.0"?>
<svg xmlns="http://www.w3.org/2000/svg" viewBox="0 0 24 24">
    <path style="line-height:normal;text-indent:0;text-align:start;text-decoration-line:none;text-decoration-style:solid;text-decoration-color:#000;text-transform:none;block-progression:tb;isolation:auto;mix-blend-mode:normal" d="M 12 2 C 9.9395414 2 8.0642436 2.7900094 6.6445312 4.0742188 C 5.4693977 4.2591144 4.4174131 4.8094173 3.609375 5.609375 C 2.619375 6.609375 2 7.98 2 9.5 C 2 10.042739 2.0992393 10.560624 2.2480469 11.056641 C 2.0952348 11.339096 2 11.656871 2 12 C 2 13.304 2.836 14.415125 4 14.828125 L 4 16 C 4 18.757 6.243 21 9 21 L 9.7773438 21 C 10.341344 21.628 11.151 22 12 22 C 12.849 22 13.657656 21.628 14.222656 21 L 15 21 C 17.757 21 20 18.757 20 16 L 20 14.828125 C 21.164 14.415125 22 13.304 22 12 C 22 11.656871 21.904765 11.339096 21.751953 11.056641 C 21.900761 10.560624 22 10.042739 22 9.5 C 22 7.98 21.380625 6.609375 20.390625 5.609375 C 19.582587 4.8094173 18.530602 4.2591144 17.355469 4.0742188 C 15.935756 2.7900094 14.060459 2 12 2 z M 12 4 C 15.309 4 18 6.691 18 10 L 18 11 L 19 11 C 19.55 11 20 11.45 20 12 C 20 12.551 19.552 13 19 13 C 18.447 13 18 13.447 18 14 L 18 16 C 18 17.654 16.654 19 15 19 L 13.720703 19 C 13.365703 19 13.036422 19.187141 12.857422 19.494141 C 12.486422 20.127141 11.513578 20.127141 11.142578 19.494141 C 10.963578 19.187141 10.634297 19 10.279297 19 L 9 19 C 7.346 19 6 17.654 6 16 L 6 14 C 6 13.447 5.552 13 5 13 C 4.449 13 4 12.551 4 12 C 4 11.45 4.45 11 5 11 L 6 11 L 6 10 C 6 6.691 8.691 4 12 4 z M 9 10 C 7.9069372 10 7 10.906937 7 12 L 7 13 C 7 14.093063 7.9069372 15 9 15 L 10 15 C 11.093063 15 12 14.093063 12 13 C 12 14.093063 12.906937 15 14 15 L 15 15 C 16.093063 15 17 14.093063 17 13 L 17 12 C 17 10.906937 16.093063 10 15 10 L 14 10 C 12.906937 10 12 10.906937 12 12 C 12 10.906937 11.093063 10 10 10 L 9 10 z M 9 12 L 10 12 L 10 13 L 9 13 L 9 12 z M 14 12 L 15 12 L 15 13 L 14 13 L 14 12 z" font-weight="400" font-family="sans-serif" white-space="normal" overflow="visible"/>
</svg>
