<?xml version="1.0"?>
<svg xmlns="http://www.w3.org/2000/svg" viewBox="0 0 24 24">
    <path d="M 15 2 C 12.209 2 9.8007344 3.646625 8.6777344 6.015625 C 8.7857344 6.012625 8.891 6 9 6 C 9.639 6 10.262281 6.0692656 10.863281 6.1972656 C 11.764281 4.8722656 13.282 4 15 4 C 17.757 4 20 6.243 20 9 C 20 10.718 19.127734 12.235719 17.802734 13.136719 C 17.930734 13.737719 18 14.361 18 15 C 18 15.109 17.987375 15.214266 17.984375 15.322266 C 20.353375 14.199266 22 11.791 22 9 C 22 5.141 18.859 2 15 2 z M 12 7 L 13.792969 8.7929688 L 7.2558594 15.330078 L 8.6699219 16.744141 L 15.207031 10.207031 L 17 12 L 17 7 L 12 7 z M 9 8 C 5.141 8 2 11.141 2 15 C 2 18.859 5.141 22 9 22 C 12.859 22 16 18.859 16 15 C 16 14.176 15.850891 13.389297 15.587891 12.654297 L 13.929688 14.310547 C 13.961688 14.538547 14 14.764 14 15 C 14 17.757 11.757 20 9 20 C 6.243 20 4 17.757 4 15 C 4 12.243 6.243 10 9 10 C 9.236 10 9.4605 10.038312 9.6875 10.070312 L 11.345703 8.4121094 C 10.610703 8.1491094 9.823 8 9 8 z"/>
</svg>
