<?xml version="1.0"?>
<svg xmlns="http://www.w3.org/2000/svg" viewBox="0 0 24 24">
    <path d="M 3 3 L 3 4 L 3 21 L 21 21 L 21 3 L 3 3 z M 5 8 L 11.744141 8 L 11.744141 8.9316406 C 11.435141 8.9706406 9.703125 9.2957656 9.703125 11.384766 C 9.703125 14.432766 12.859375 13.530453 12.859375 15.564453 C 12.859375 16.582453 12.200406 16.607422 12.066406 16.607422 C 11.944406 16.607422 11.140625 16.671281 11.140625 15.113281 L 9.4179688 15.113281 C 9.4179688 17.752281 11.330234 17.962953 11.615234 18.001953 L 11.615234 19 L 5 19 L 5 8 z M 12.664062 8 L 19 8 L 19 19 L 12.529297 19 L 12.529297 18.001953 C 12.838297 17.962953 14.582031 17.676734 14.582031 15.552734 C 14.582031 12.627734 11.426734 13.187578 11.427734 11.392578 C 11.427734 10.364578 11.926234 10.332031 12.115234 10.332031 C 12.357234 10.332031 12.871094 10.52825 12.871094 11.78125 L 14.595703 11.78125 C 14.595703 9.38325 12.956062 9.0110781 12.664062 8.9550781 L 12.664062 8 z"/>
</svg>
