<?xml version="1.0"?>
<svg xmlns="http://www.w3.org/2000/svg" viewBox="0 0 24 24">
    <path d="M 6 2 L 6 11 L 5 11 L 5 13 L 6 13 L 18 13 L 19 13 L 19 11 L 18 11 L 18 2 L 6 2 z M 3 4 C 1.895 4 1 4.895 1 6 L 1 16 C 1 17.105 1.895 18 3 18 L 10 18 L 10 20 L 8 20 L 8 22 L 16 22 L 16 20 L 14 20 L 14 18 L 21 18 C 22.105 18 23 17.105 23 16 L 23 6 C 23 4.895 22.105 4 21 4 L 20 4 L 20 6 L 21 6 L 21 16 L 3 16 L 3 6 L 4 6 L 4 4 L 3 4 z M 8.9121094 4 L 15.087891 4 A 1.5 1.5 0 0 0 16 4.9121094 L 16 11 L 14.816406 11 C 14.403316 9.8371625 13.304625 9 12 9 C 10.695375 9 9.5966843 9.8371625 9.1835938 11 L 8 11 L 8 4.9121094 A 1.5 1.5 0 0 0 8.9121094 4 z M 12 6 C 11.447 6 11 6.448 11 7 C 11 7.552 11.447 8 12 8 C 12.553 8 13 7.552 13 7 C 13 6.448 12.553 6 12 6 z"/>
</svg>
