<?xml version="1.0"?>
<svg xmlns="http://www.w3.org/2000/svg" viewBox="0 0 24 24">
    <path d="M 6.6640625 3.5527344 C 3.8640625 5.3257344 2 8.441 2 12 C 2 15.559 3.8640625 18.674266 6.6640625 20.447266 L 7.7324219 18.757812 C 5.4924219 17.339813 4 14.847 4 12 C 4 9.153 5.4924219 6.6601875 7.7324219 5.2421875 L 6.6640625 3.5527344 z M 17.335938 3.5527344 L 16.267578 5.2421875 C 18.507578 6.6601875 20 9.153 20 12 C 20 14.847 18.507578 17.339813 16.267578 18.757812 L 17.335938 20.447266 C 20.135938 18.674266 22 15.559 22 12 C 22 8.441 20.135938 5.3257344 17.335938 3.5527344 z M 8.7988281 6.9316406 C 7.1188281 7.9946406 6 9.865 6 12 C 6 14.135 7.1188281 16.004359 8.7988281 17.068359 L 9.8691406 15.375 C 8.7491406 14.665 8 13.424 8 12 C 8 10.576 8.7491406 9.3359531 9.8691406 8.6269531 L 8.7988281 6.9316406 z M 15.201172 6.9316406 L 14.130859 8.625 C 15.250859 9.335 16 10.576 16 12 C 16 13.424 15.250859 14.664047 14.130859 15.373047 L 15.201172 17.068359 C 16.881172 16.005359 18 14.135 18 12 C 18 9.865 16.881172 7.9956406 15.201172 6.9316406 z M 12 10 A 2 2 0 0 0 10 12 A 2 2 0 0 0 12 14 A 2 2 0 0 0 14 12 A 2 2 0 0 0 12 10 z"/>
</svg>
