<?xml version="1.0"?>
<svg xmlns="http://www.w3.org/2000/svg" viewBox="0 0 24 24">
    <path style="line-height:normal;text-indent:0;text-align:start;text-decoration-line:none;text-decoration-style:solid;text-decoration-color:#000;text-transform:none;block-progression:tb;isolation:auto;mix-blend-mode:normal" d="M 4 3 L 4 7 L 2 12 L 2 14 L 3 14 L 3 21 L 21 21 L 21 14 L 22 14 L 22 12 L 20 7 L 20 3 L 4 3 z M 7 5 C 7.552 5 8 5.448 8 6 C 8 6.552 7.552 7 7 7 C 6.448 7 6 6.552 6 6 C 6 5.448 6.448 5 7 5 z M 10 5 C 10.552 5 11 5.448 11 6 C 11 6.552 10.552 7 10 7 C 9.448 7 9 6.552 9 6 C 9 5.448 9.448 5 10 5 z M 5 14 L 19 14 L 19 19 L 5 19 L 5 14 z" font-weight="400" font-family="sans-serif" white-space="normal" overflow="visible"/>
</svg>
