<?xml version="1.0"?>
<svg xmlns="http://www.w3.org/2000/svg" viewBox="0 0 24 24">
    <path d="M 3 3 L 3 6 L 6 6 L 6 3 L 3 3 z M 6 6 L 6 10 L 10 10 L 10 6 L 6 6 z M 10 6 L 14 6 L 14 3 L 10 3 L 10 6 z M 14 6 L 14 10 L 18 10 L 18 6 L 14 6 z M 18 6 L 21 6 L 21 3 L 18 3 L 18 6 z M 18 10 L 18 14 L 21 14 L 21 10 L 18 10 z M 18 14 L 14 14 L 14 18 L 18 18 L 18 14 z M 18 18 L 18 21 L 21 21 L 21 18 L 18 18 z M 14 18 L 10 18 L 10 21 L 14 21 L 14 18 z M 10 18 L 10 14 L 6 14 L 6 18 L 10 18 z M 6 18 L 3 18 L 3 21 L 6 21 L 6 18 z M 6 14 L 6 10 L 3 10 L 3 14 L 6 14 z M 10 14 L 14 14 L 14 10 L 10 10 L 10 14 z"/>
</svg>
