<?xml version="1.0"?>
<svg xmlns="http://www.w3.org/2000/svg" viewBox="0 0 24 24">
    <path d="M 12 4 C 11.448 4 11 4.448 11 5 L 10.5 5.2851562 L 4 9 L 7 9 L 12 6.1425781 L 17 9 L 20 9 L 13.5 5.2851562 L 13 5 C 13 4.448 12.552 4 12 4 z M 2 10 L 2 19 L 22 19 L 22 10 L 2 10 z M 5.0136719 11.800781 C 5.4936719 11.800781 5.8891719 11.920156 6.2011719 12.160156 C 6.7281719 12.566156 6.9921875 13.342328 6.9921875 14.486328 C 6.9921875 15.649328 6.7281719 16.433844 6.2011719 16.839844 C 5.8891719 17.079844 5.4936719 17.199219 5.0136719 17.199219 C 4.5096719 17.199219 4.1020156 17.079844 3.7910156 16.839844 C 3.2640156 16.433844 3 15.649328 3 14.486328 C 3 13.341328 3.2640156 12.566156 3.7910156 12.160156 C 4.1020156 11.920156 4.5096719 11.800781 5.0136719 11.800781 z M 7.8574219 11.800781 L 9.7070312 11.800781 C 10.276031 11.800781 10.728547 11.9285 11.060547 12.1875 C 11.416547 12.4645 11.59375 12.853562 11.59375 13.351562 C 11.59375 13.849563 11.416547 14.236672 11.060547 14.513672 C 10.727547 14.771672 10.276031 14.902344 9.7070312 14.902344 L 8.8886719 14.923828 L 8.8886719 17.173828 L 7.8574219 17.199219 L 7.8574219 11.800781 z M 12.478516 11.800781 L 16.169922 11.800781 L 16.164062 12.646484 L 13.380859 12.646484 L 13.382812 13.861328 L 16.0625 13.861328 L 16.0625 14.740234 L 13.382812 14.740234 L 13.386719 16.357422 L 16.199219 16.357422 L 16.199219 17.199219 L 12.478516 17.199219 L 12.478516 11.800781 z M 17.011719 11.800781 L 18.085938 11.800781 L 20.080078 15.84375 L 20.117188 15.84375 L 20.117188 11.800781 L 21 11.800781 L 21 17.199219 L 19.925781 17.199219 L 17.931641 13.15625 L 17.894531 13.15625 L 17.894531 17.199219 L 17.011719 17.199219 L 17.011719 11.800781 z M 8.8886719 12.529297 L 8.8886719 14.171875 L 9.5449219 14.171875 C 9.8869219 14.171875 10.15275 14.097219 10.34375 13.949219 C 10.51475 13.816219 10.599609 13.617562 10.599609 13.351562 C 10.599609 13.085562 10.51475 12.884953 10.34375 12.751953 C 10.15275 12.603953 9.8859687 12.529297 9.5429688 12.529297 L 8.8886719 12.529297 z M 5 12.646484 C 4.766 12.646484 4.5542813 12.731344 4.3632812 12.902344 C 4.0872813 13.148344 3.9492188 13.419469 3.9492188 14.480469 C 3.9492188 15.561469 4.0872813 15.808687 4.3632812 16.054688 C 4.5542813 16.225687 4.766 16.310547 5 16.310547 C 5.212 16.310547 5.4144688 16.225687 5.6054688 16.054688 C 5.8814687 15.808687 6.0195312 15.561469 6.0195312 14.480469 C 6.0195312 13.418469 5.8814688 13.148344 5.6054688 12.902344 C 5.4144687 12.731344 5.212 12.646484 5 12.646484 z"/>
</svg>
