<?xml version="1.0"?>
<svg xmlns="http://www.w3.org/2000/svg" viewBox="0 0 24 24">
    <path d="M 2 2.3828125 L 2 4 L 2 21.617188 L 7.234375 19 L 16.765625 19 L 22 21.617188 L 22 2.3828125 L 20.552734 3.1054688 L 16.765625 5 L 7.234375 5 L 2 2.3828125 z M 4 5.6171875 L 6 6.6171875 L 6 9.71875 L 4 9.21875 L 4 5.6171875 z M 20 5.6171875 L 20 9.21875 L 18 9.71875 L 18 6.6171875 L 20 5.6171875 z M 4 11.28125 L 6 11.78125 L 6 17.382812 L 4 18.382812 L 4 11.28125 z M 20 11.28125 L 20 18.382812 L 18 17.382812 L 18 11.78125 L 20 11.28125 z"/>
</svg>
