<?xml version="1.0"?>
<svg xmlns="http://www.w3.org/2000/svg" viewBox="0 0 24 24">
    <path d="M 3 3 L 3 7 L 3 9 L 3 21 L 9 21 L 9 19 L 5 19 L 5 9 L 19 9 L 19 19 L 15 19 L 15 21 L 21 21 L 21 9 L 21 7 L 21 3 L 3 3 z M 6 5 C 6.552 5 7 5.448 7 6 C 7 6.552 6.552 7 6 7 C 5.448 7 5 6.552 5 6 C 5 5.448 5.448 5 6 5 z M 9 5 C 9.552 5 10 5.448 10 6 C 10 6.552 9.552 7 9 7 C 8.448 7 8 6.552 8 6 C 8 5.448 8.448 5 9 5 z M 12 5 L 19 5 L 19 7 L 12 7 L 12 5 z M 12 11 L 8 15 L 11 15 L 11 21 L 13 21 L 13 15 L 16 15 L 12 11 z"/>
</svg>
