<?xml version="1.0"?>
<svg xmlns="http://www.w3.org/2000/svg" viewBox="0 0 24 24">
    <path d="M 6 4 C 3.2504209 4 1 6.2504209 1 9 C 1 11.749579 3.2504209 14 6 14 C 8.153837 14 9.9841003 12.611407 10.683594 10.691406 A 3 3 0 0 0 12 11 A 3 3 0 0 0 13.316406 10.693359 C 14.016383 12.612452 15.846815 14 18 14 C 20.749579 14 23 11.749579 23 9 C 23 6.2504209 20.749579 4 18 4 C 16.43201 4 15.04356 4.7458541 14.125 5.8847656 A 3 3 0 0 0 12 5 A 3 3 0 0 0 9.875 5.8847656 C 8.9564401 4.7458541 7.5679904 4 6 4 z M 6 6 C 7.6686989 6 9 7.3313011 9 9 C 9 10.668699 7.6686989 12 6 12 C 4.3313011 12 3 10.668699 3 9 C 3 7.3313011 4.3313011 6 6 6 z M 18 6 C 19.668699 6 21 7.3313011 21 9 C 21 10.668699 19.668699 12 18 12 C 16.331301 12 15 10.668699 15 9 C 15 7.3313011 16.331301 6 18 6 z M 23 13.890625 C 22.43 14.480625 21.75 14.970313 21 15.320312 L 21 22 L 23 22 L 23 13.890625 z"/>
</svg>
