<?xml version="1.0"?>
<svg xmlns="http://www.w3.org/2000/svg" viewBox="0 0 24 24">
    <path d="M 12 2 C 6.486 2 2 6.486 2 12 C 2 17.514 6.486 22 12 22 C 17.514 22 22 17.514 22 12 C 22 6.486 17.514 2 12 2 z M 8 7 C 9.654 7 11 8.346 11 10 L 11 14 C 11 15.654 9.654 17 8 17 C 6.346 17 5 15.654 5 14 L 5 10 C 5 8.346 6.346 7 8 7 z M 16 7 C 17.654 7 19 8.346 19 10 L 17 10 C 17 9.449 16.551 9 16 9 C 15.449 9 15 9.449 15 10 C 15 10.354 15.600266 10.682469 16.447266 11.105469 C 17.524266 11.644469 19 12.382 19 14 C 19 15.654 17.654 17 16 17 C 14.346 17 13 15.654 13 14 L 15 14 C 15 14.551 15.449 15 16 15 C 16.551 15 17 14.551 17 14 C 17 13.646 16.399734 13.317531 15.552734 12.894531 C 14.475734 12.355531 13 11.618 13 10 C 13 8.346 14.346 7 16 7 z M 8 9 C 7.449 9 7 9.449 7 10 L 7 14 C 7 14.551 7.449 15 8 15 C 8.551 15 9 14.551 9 14 L 9 10 C 9 9.449 8.551 9 8 9 z"/>
</svg>
