<?xml version="1.0"?>
<svg xmlns="http://www.w3.org/2000/svg" viewBox="0 0 24 24">
    <path d="M 16 2 C 14.895 2 14 2.895 14 4 L 14 4.453125 L 13.873047 4.3320312 C 13.417047 3.8890313 12.679656 3.8890312 12.222656 4.3320312 L 11.34375 5.1875 C 10.88675 5.6315 10.88675 6.3499688 11.34375 6.7929688 L 11.623047 7.0644531 C 10.676376 7.6457867 10.007138 8.520916 9.6425781 9.4511719 C 9.4153826 10.030912 9.2863704 10.624414 9.1914062 11.208984 C 7.2531484 7.0169196 3 7 3 7 C 3 7 3.0116238 11.777151 6.9570312 14 L 3 14 L 3 16 L 4 16 L 13.980469 16 L 13.580078 18 L 4.390625 18 L 5.2089844 22 L 14.835938 22 L 15.980469 16.195312 L 15.984375 16 L 17 16 L 17 14 L 11 14 C 11 12.864031 11.06188 11.307615 11.503906 10.179688 C 11.799742 9.4247966 12.157571 8.8752414 12.847656 8.5898438 C 12.533941 9.4142871 12.857367 10.364205 13.640625 10.791016 C 14.486625 11.252016 15.538234 10.9255 15.990234 10.0625 L 16.021484 9.9980469 C 16.041073 9.9978816 16.058719 9.9927854 16.078125 9.9921875 L 16.140625 10.099609 C 16.573625 10.928609 17.583484 11.241828 18.396484 10.798828 C 19.209484 10.355828 19.514078 9.3260469 19.080078 8.4980469 L 18.804688 8 L 19 8 L 19 7.9863281 C 19.274096 7.9696837 19.54606 7.8713407 19.755859 7.6679688 L 20.65625 6.7929688 C 21.11325 6.3489688 21.11325 5.6285469 20.65625 5.1855469 L 19.779297 4.3320312 C 19.322297 3.8890312 18.583953 3.8890312 18.126953 4.3320312 L 18 4.453125 L 18 4 C 18 2.895 17.105 2 16 2 z M 16 6 C 16.56503 6 17 6.4349698 17 7 C 17 7.5650302 16.56503 8 16 8 C 15.43497 8 15 7.5650302 15 7 C 15 6.4349698 15.43497 6 16 6 z"/>
</svg>
