<?xml version="1.0"?>
<svg xmlns="http://www.w3.org/2000/svg" viewBox="0 0 24 24">
    <path style="line-height:normal;text-indent:0;text-align:start;text-decoration-line:none;text-decoration-style:solid;text-decoration-color:#000;text-transform:none;block-progression:tb;isolation:auto;mix-blend-mode:normal" d="M 4 3 L 4 15 L 2 15 L 2 18 C 2 19.654 3.346 21 5 21 L 13 21 L 13 19 L 15 17 L 13 15 L 6 15 L 6 5 L 19 5 L 19 9 L 21 9 L 21 3 L 4 3 z M 8 7 L 8 9 L 10 9 L 10 7 L 8 7 z M 12 7 L 12 9 L 17 9 L 17 7 L 12 7 z M 8 11 L 8 13 L 10 13 L 10 11 L 8 11 z M 15 11 L 15 13 L 16 13 L 16 14.914062 L 18.085938 17 L 16 19.085938 L 16 21 L 15 21 L 15 23 L 24 23 L 24 21 L 23 21 L 23 19.085938 L 20.914062 17 L 23 14.914062 L 23 13 L 24 13 L 24 11 L 15 11 z M 18 13 L 21 13 L 21 14.085938 L 19.5 15.585938 L 18 14.085938 L 18 13 z M 19.5 18.414062 L 21 19.914062 L 21 21 L 18 21 L 18 19.914062 L 19.5 18.414062 z"/>
</svg>
