<?xml version="1.0"?>
<svg xmlns="http://www.w3.org/2000/svg" viewBox="0 0 24 24">
    <path d="M 12 2 C 6.486 2 2 6.486 2 12 C 2 17.514 6.486 22 12 22 C 17.514 22 22 17.514 22 12 C 22 6.486 17.514 2 12 2 z M 13.029297 8 C 15.729297 8 17.679766 10.259609 17.759766 10.349609 L 18.210938 10.880859 L 17.869141 11.490234 C 16.729141 13.500234 15.320391 16 11.900391 16 C 10.590391 16 9.3398438 15.400937 8.5898438 14.960938 C 8.2198438 15.360937 8 15.74 8 16 L 6 16 C 6 15.04 6.6303906 13.960781 7.6503906 13.050781 C 8.0503906 11.760781 9.5292969 8 13.029297 8 z M 13.029297 10 C 12.019297 10 11.259219 10.619375 10.699219 11.359375 C 11.429219 11.139375 12.2 11 13 11 L 13 13 C 12.04 13 11.160391 13.260859 10.400391 13.630859 C 10.880391 13.840859 11.410391 14 11.900391 14 C 13.810391 14 14.7 12.939922 15.75 11.169922 C 15.18 10.689922 14.179297 10 13.029297 10 z"/>
</svg>
