<?xml version="1.0"?>
<svg xmlns="http://www.w3.org/2000/svg" viewBox="0 0 24 24">
    <path style="line-height:normal;text-indent:0;text-align:start;text-decoration-line:none;text-decoration-style:solid;text-decoration-color:#000;text-transform:none;block-progression:tb;isolation:auto;mix-blend-mode:normal" d="M 2 3 L 2 21 L 16 21 L 22 21 L 22 7 L 16 7 L 16 3 L 2 3 z M 6 7 L 8 7 L 8 9 L 6 9 L 6 7 z M 10 7 L 12 7 L 12 9 L 10 9 L 10 7 z M 16 9 L 20 9 L 20 19 L 16 19 L 16 17 L 18 17 L 18 15 L 16 15 L 16 13 L 18 13 L 18 11 L 16 11 L 16 9 z M 6 11 L 8 11 L 8 13 L 6 13 L 6 11 z M 10 11 L 12 11 L 12 13 L 10 13 L 10 11 z M 6 15 L 8 15 L 8 17 L 6 17 L 6 15 z M 10 15 L 12 15 L 12 17 L 10 17 L 10 15 z" font-weight="400" font-family="sans-serif" white-space="normal" overflow="visible"/>
</svg>
