<?xml version="1.0"?>
<svg xmlns="http://www.w3.org/2000/svg" viewBox="0 0 24 24">
    <path style="line-height:normal;text-indent:0;text-align:start;text-decoration-line:none;text-decoration-style:solid;text-decoration-color:#000;text-transform:none;block-progression:tb;isolation:auto;mix-blend-mode:normal" d="M 2 3 L 2 7 L 22 7 L 22 3 L 2 3 z M 3 9 L 3 21 L 10.587891 21 C 10.211891 20.073 10 19.062 10 18 C 10 16.107 10.660766 14.37 11.759766 13 L 9 13 L 9 11 L 14.130859 11 C 15.277859 10.364 16.596 10 18 10 C 19.062 10 20.073 10.211891 21 10.587891 L 21 9 L 3 9 z M 18 12 C 14.698136 12 12 14.698136 12 18 C 12 21.301864 14.698136 24 18 24 C 21.301864 24 24 21.301864 24 18 C 24 14.698136 21.301864 12 18 12 z M 18 14 C 20.220984 14 22 15.779016 22 18 C 22 18.743688 21.786236 19.429056 21.4375 20.023438 L 15.976562 14.5625 C 16.570944 14.213764 17.256312 14 18 14 z M 14.5625 15.976562 L 20.023438 21.4375 C 19.429056 21.786236 18.743688 22 18 22 C 15.779016 22 14 20.220984 14 18 C 14 17.256312 14.213764 16.570944 14.5625 15.976562 z" font-weight="400" font-family="sans-serif" white-space="normal" overflow="visible"/>
</svg>
