<?xml version="1.0"?>
<svg xmlns="http://www.w3.org/2000/svg" viewBox="0 0 24 24">
    <path d="M 20 4 L 20 7 L 0 7 L 0 9 L 20 9 L 20 12 L 24 8 L 20 4 z M 4 14 A 3 3 0 0 0 1.1738281 16 L 0 16 L 0 18 L 1.1757812 18 A 3 3 0 0 0 4 20 A 3 3 0 0 0 6.8261719 18 L 9.1757812 18 A 3 3 0 0 0 12 20 A 3 3 0 0 0 14.826172 18 L 17.175781 18 A 3 3 0 0 0 20 20 A 3 3 0 0 0 22.826172 18 L 24 18 L 24 16 L 22.824219 16 A 3 3 0 0 0 20 14 A 3 3 0 0 0 17.173828 16 L 14.824219 16 A 3 3 0 0 0 12 14 A 3 3 0 0 0 9.1738281 16 L 6.8242188 16 A 3 3 0 0 0 4 14 z"/>
</svg>
