<?xml version="1.0"?>
<svg xmlns="http://www.w3.org/2000/svg" viewBox="0 0 24 24">
    <path style="line-height:normal;text-indent:0;text-align:start;text-decoration-line:none;text-decoration-style:solid;text-decoration-color:#000;text-transform:none;block-progression:tb;isolation:auto;mix-blend-mode:normal" d="M 3 3 L 3 4 L 3 21 L 21 21 L 21 3 L 3 3 z M 5 7 L 19 7 L 19 19 L 5 19 L 5 7 z M 7 10 L 7 12 L 9 12 L 9 10 L 7 10 z M 11 10 L 11 12 L 17 12 L 17 10 L 11 10 z M 7 14 L 7 16 L 9 16 L 9 14 L 7 14 z M 11 14 L 11 16 L 17 16 L 17 14 L 11 14 z" font-weight="400" font-family="sans-serif" white-space="normal" overflow="visible"/>
</svg>
