<?xml version="1.0"?>
<svg xmlns="http://www.w3.org/2000/svg" viewBox="0 0 24 24">
    <path d="M 3 3 L 3 5 L 4 5 L 20 5 L 21 5 L 21 3 L 20 3 L 4 3 L 3 3 z M 3 7 L 3 13 L 9 13 L 9 7 L 3 7 z M 11 7 L 11 9 L 12 9 L 20 9 L 21 9 L 21 7 L 20 7 L 12 7 L 11 7 z M 5 9 L 7 9 L 7 11 L 5 11 L 5 9 z M 11 11 L 11 13 L 12 13 L 17 13 L 18 13 L 18 11 L 17 11 L 12 11 L 11 11 z M 3 15 L 3 21 L 9 21 L 9 15 L 3 15 z M 11 15 L 11 17 L 12 17 L 20 17 L 21 17 L 21 15 L 20 15 L 12 15 L 11 15 z M 5 17 L 7 17 L 7 19 L 5 19 L 5 17 z M 11 19 L 11 21 L 12 21 L 17 21 L 18 21 L 18 19 L 17 19 L 12 19 L 11 19 z"/>
</svg>
