<?xml version="1.0"?>
<svg xmlns="http://www.w3.org/2000/svg" viewBox="0 0 24 24">
    <path d="M 17 2 C 14.250484 2 12 4.2504839 12 7 C 12 7.2130714 12.049232 7.3903642 12.076172 7.5859375 L 10.603516 9.1035156 L 7.5 6 L 6 7.5 L 7.9042969 11.550781 L 7.7441406 12.072266 C 7.4993613 12.035335 7.2537227 12 7 12 C 4.2504839 12 2 14.250484 2 17 C 2 19.749516 4.2504839 22 7 22 C 9.7495161 22 12 19.749516 12 17 C 12 16.749748 11.964362 16.505369 11.927734 16.261719 L 12.455078 16.101562 L 16.5 18 L 18 16.5 L 14.861328 13.361328 L 16.306641 11.898438 C 16.536482 11.9367 16.743584 12 17 12 C 19.749516 12 22 9.7495161 22 7 C 22 4.2504839 19.749516 2 17 2 z M 17 4 C 18.668484 4 20 5.3315161 20 7 C 20 8.6684839 18.668484 10 17 10 C 16.751565 10 16.493657 9.95497 16.207031 9.8769531 L 15.644531 9.7246094 L 13.447266 11.947266 L 12.017578 10.517578 L 14.226562 8.2441406 L 14.095703 7.7070312 C 14.034408 7.4552262 14 7.2250632 14 7 C 14 5.3315161 15.331516 4 17 4 z M 7 14 C 7.0510963 14 7.0981666 14.011209 7.1484375 14.013672 L 7 14.5 L 9.5 17 L 9.9863281 16.851562 C 9.9887698 16.902028 10 16.948584 10 17 C 10 18.668484 8.6684839 20 7 20 C 5.3315161 20 4 18.668484 4 17 C 4 15.331516 5.3315161 14 7 14 z"/>
</svg>
