<?xml version="1.0"?>
<svg xmlns="http://www.w3.org/2000/svg" viewBox="0 0 24 24">
    <path d="M 3 3 L 3 7 L 3 21 L 11.683594 21 C 11.387594 20.378 11.181078 19.707 11.080078 19 L 5 19 L 5 7 L 19 7 L 19 11.078125 C 19.707 11.179125 20.378 11.385641 21 11.681641 L 21 6 L 21 3 L 3 3 z M 8.7734375 8 L 8.7734375 9.125 C 8.5064375 9.159 8.2667813 9.2336094 8.0507812 9.3496094 C 7.8347812 9.4656094 7.6500937 9.6158281 7.4960938 9.7988281 C 7.3420938 9.9798281 7.2236719 10.193547 7.1386719 10.435547 C 7.0546719 10.679547 7.0117187 10.947187 7.0117188 11.242188 C 7.0117188 11.589187 7.0592969 11.886766 7.1542969 12.134766 C 7.2492969 12.380766 7.3826875 12.600109 7.5546875 12.787109 C 7.7266875 12.974109 7.930875 13.13825 8.171875 13.28125 C 8.411875 13.42225 8.67775 13.559453 8.96875 13.689453 C 9.10575 13.763453 9.2213594 13.838062 9.3183594 13.914062 C 9.4143594 13.992062 9.4955937 14.074062 9.5585938 14.164062 C 9.6215938 14.252062 9.6673125 14.352797 9.6953125 14.466797 C 9.7233125 14.577797 9.7363281 14.706609 9.7363281 14.849609 C 9.7363281 14.979609 9.7233125 15.100937 9.6953125 15.210938 C 9.6673125 15.321938 9.6243594 15.416141 9.5683594 15.494141 C 9.5123594 15.574141 9.4414687 15.637641 9.3554688 15.681641 C 9.2694687 15.727641 9.1696875 15.75 9.0546875 15.75 C 8.9496875 15.75 8.8479531 15.729453 8.7519531 15.689453 C 8.6559531 15.649453 8.5700938 15.577516 8.4960938 15.478516 C 8.4220938 15.377516 8.3643125 15.248031 8.3203125 15.082031 C 8.2763125 14.918031 8.2558594 14.712891 8.2558594 14.462891 L 6.765625 14.462891 C 6.765625 14.881891 6.8188281 15.238109 6.9238281 15.537109 C 7.0288281 15.838109 7.1706563 16.085203 7.3476562 16.283203 C 7.5246562 16.483203 7.726125 16.635188 7.953125 16.742188 C 8.181125 16.849187 8.4180625 16.920125 8.6640625 16.953125 L 8.6640625 18 L 9.453125 18 L 9.453125 16.953125 C 9.720125 16.919125 9.9626406 16.846375 10.181641 16.734375 C 10.400641 16.625375 10.586234 16.479781 10.740234 16.300781 C 10.894234 16.121781 11.014609 15.910016 11.099609 15.666016 C 11.183609 15.420016 11.224609 15.143844 11.224609 14.839844 C 11.224609 14.500844 11.178937 14.207031 11.085938 13.957031 C 10.991937 13.708031 10.8595 13.489734 10.6875 13.302734 C 10.5155 13.115734 10.310266 12.949641 10.072266 12.806641 C 9.8342656 12.661641 9.5712031 12.521766 9.2832031 12.384766 C 9.1392031 12.300766 9.0189219 12.218672 8.9199219 12.138672 C 8.8199219 12.060672 8.7397344 11.976719 8.6777344 11.886719 C 8.6157344 11.798719 8.5709688 11.702609 8.5429688 11.599609 C 8.5149687 11.496609 8.5019531 11.378 8.5019531 11.25 C 8.5019531 11.12 8.5131562 11.000672 8.5351562 10.888672 C 8.5581562 10.779672 8.5935781 10.681609 8.6425781 10.599609 C 8.6915781 10.517609 8.7521719 10.453297 8.8261719 10.404297 C 8.9001719 10.358297 8.9907031 10.335938 9.0957031 10.335938 C 9.2887031 10.335938 9.4454062 10.438531 9.5664062 10.644531 C 9.6874063 10.852531 9.7460937 11.165938 9.7460938 11.585938 L 11.234375 11.585938 C 11.234375 11.240937 11.196187 10.930344 11.117188 10.652344 C 11.038187 10.372344 10.927203 10.129828 10.783203 9.9238281 C 10.639203 9.7158281 10.464812 9.5470625 10.257812 9.4140625 C 10.050813 9.2840625 9.8203594 9.1954844 9.5683594 9.1464844 L 9.5683594 8 L 8.7734375 8 z M 18 13 C 15.2 13 13 15.2 13 18 C 13 20.8 15.2 23 18 23 C 19 23 20.000781 22.699219 20.800781 22.199219 L 22.599609 24 L 24 22.599609 L 22.199219 20.800781 C 22.699219 20.000781 23 19 23 18 C 23 15.2 20.8 13 18 13 z M 18 15 C 19.7 15 21 16.3 21 18 C 21 19.7 19.7 21 18 21 C 16.3 21 15 19.7 15 18 C 15 16.3 16.3 15 18 15 z"/>
</svg>
