<?xml version="1.0"?>
<svg xmlns="http://www.w3.org/2000/svg" viewBox="0 0 24 24">
    <path d="M 3 3 L 3 5 L 3 19 L 3 21 L 15.109375 21 C 15.069375 20.83 15.042891 20.659688 15.025391 20.492188 C 15.007891 20.324687 15 20.16 15 20 L 15 18 L 15 16 C 15 15.79125 15.012207 15.58625 15.035156 15.384766 C 15.195801 13.974375 15.90625 12.759219 17 11.980469 L 17 10 L 21 10 L 21 5 L 21 3 L 3 3 z M 8.9804688 6 C 10.340469 6 11.310937 6.2707812 11.960938 6.8007812 C 12.270527 7.0504502 12.530427 7.3814514 12.712891 7.7695312 C 12.895391 8.1582812 13 8.6048437 13 9.0898438 C 13 9.0898438 13 9.0917969 13 9.0917969 C 13 9.0917969 13 9.09375 13 9.09375 C 12.999779 9.3348081 12.980252 9.5673307 12.941406 9.7890625 C 12.941192 9.7902986 12.941622 9.7917334 12.941406 9.7929688 C 12.823789 10.460229 12.533779 11.03002 12.099609 11.449219 C 11.912485 11.628858 11.70196 11.784934 11.472656 11.916016 C 10.783125 12.309766 9.9144531 12.490234 8.9394531 12.490234 C 8.6500517 12.490234 8.2006153 12.440176 8 12.410156 L 8 16 L 6 16 L 6 6.2109375 C 6.68 6.0909375 7.6304687 6 8.9804688 6 z M 9.0898438 7.6894531 C 8.6498437 7.6894531 8.16 7.7705469 8 7.8105469 L 8 7.8125 L 8 10.650391 L 8 10.652344 C 8.188 10.696344 8.604875 10.771484 8.921875 10.771484 C 9.0676938 10.771484 9.2065006 10.760518 9.3378906 10.742188 C 9.3378906 10.742188 9.3398438 10.742188 9.3398438 10.742188 C 10.2622 10.61286 10.820312 10.042254 10.820312 9.1503906 C 10.820312 8.6959577 10.661478 8.329345 10.367188 8.078125 C 10.294111 8.0158862 10.212694 7.9619801 10.123047 7.9140625 C 10.123047 7.9140625 10.121094 7.9121094 10.121094 7.9121094 C 10.0317 7.8645417 9.9333349 7.825623 9.828125 7.7929688 C 9.8268447 7.7925757 9.8255014 7.7914064 9.8242188 7.7910156 C 9.6104688 7.7252344 9.3648438 7.6894531 9.0898438 7.6894531 z M 19 12 L 19 13.199219 C 18 13.499219 17 14.4 17 16 C 17 17.9 18.599609 18.500391 19.599609 18.900391 C 20.799609 19.400391 21 19.5 21 20 C 21 20.5 20.8 21 20 21 C 19.2 21 19 20.5 19 20 L 17 20 C 17 21 17.6 22.400781 19 22.800781 L 19 24 L 21 24 L 21 22.800781 C 22.4 22.400781 23 21 23 20 C 23 18.1 21.400391 17.499609 20.400391 17.099609 C 19.200391 16.599609 19 16.5 19 16 C 19 15.2 19.5 15 20 15 C 20.8 15 21 15.5 21 16 L 22 16 L 23 16 C 23 15 22.4 13.599219 21 13.199219 L 21 12 L 19 12 z"/>
</svg>
