<?xml version="1.0"?>
<svg xmlns="http://www.w3.org/2000/svg" viewBox="0 0 24 24">
    <path d="M12.712,2.025C6.628,1.603,1.603,6.628,2.025,12.712C2.391,18.002,7.006,22,12.309,22L15,22v-7h7l0-2.691 C22,7.006,18.002,2.391,12.712,2.025z M10.5,4C11.328,4,12,4.672,12,5.5S11.328,7,10.5,7S9,6.328,9,5.5S9.672,4,10.5,4z M5.5,15 C4.672,15,4,14.328,4,13.5S4.672,12,5.5,12S7,12.672,7,13.5S6.328,15,5.5,15z M6.5,10C5.672,10,5,9.328,5,8.5S5.672,7,6.5,7 S8,7.672,8,8.5S7.328,10,6.5,10z M11,20c-1.105,0-2-0.895-2-2c0-1.105,0.895-2,2-2s2,0.895,2,2C13,19.105,12.105,20,11,20z M15.5,8 C14.672,8,14,7.328,14,6.5S14.672,5,15.5,5S17,5.672,17,6.5S16.328,8,15.5,8z M18.5,13c-0.828,0-1.5-0.672-1.5-1.5 s0.672-1.5,1.5-1.5s1.5,0.672,1.5,1.5S19.328,13,18.5,13z"/>
</svg>
