<?xml version="1.0"?>
<svg xmlns="http://www.w3.org/2000/svg" viewBox="0 0 24 24">
    <path d="M 9 2 L 9 7 L 12 8.5 L 12 10 L 5 10 L 5 11 L 3 11 L 3 14 L 5 14 L 5 15 C 5.913 15 6.5775469 15.877953 6.3105469 16.751953 C 6.1375469 17.317953 6 17.944 6 18.5 L 6 22 L 9 22 L 9 17.294922 C 9 14.999922 11 15 11 15 L 18 15 L 18 10 L 14 10 L 14 8.5 L 17 7 L 17 2 L 9 2 z M 11 4 L 15 4 L 15 5.7636719 L 13.105469 6.7109375 L 13 6.7636719 L 12.894531 6.7109375 L 11 5.7636719 L 11 4 z M 19 10 L 19 15 L 21 15 L 21 10 L 19 10 z M 11 16 C 11 17.988 12 19 12 19 L 13.162109 18.003906 C 13.162109 18.003906 12.5 17.225 12.5 16 L 11 16 z"/>
</svg>
