<?xml version="1.0"?>
<svg xmlns="http://www.w3.org/2000/svg" viewBox="0 0 24 24">
    <path style="line-height:normal;text-indent:0;text-align:start;text-decoration-line:none;text-decoration-style:solid;text-decoration-color:#000;text-transform:none;block-progression:tb;isolation:auto;mix-blend-mode:normal" d="M 9 3 C 6.2504839 3 4 5.2504839 4 8 L 4 9 L 4.203125 9 C 4.6827793 11.258186 6.6045398 13 9 13 L 12 13 L 12 21 L 14 21 L 14 5 L 16 5 L 16 21 L 18 21 L 18 5 L 20 5 L 20 3 L 9 3 z M 9 5 L 12 5 L 12 11 L 9 11 C 7.3315161 11 6 9.6684839 6 8 C 6 6.3315161 7.3315161 5 9 5 z" font-weight="400" font-family="sans-serif" white-space="normal" overflow="visible"/>
</svg>
