<?xml version="1.0"?>
<svg xmlns="http://www.w3.org/2000/svg" viewBox="0 0 24 24">
    <path style="line-height:normal;text-indent:0;text-align:start;text-decoration-line:none;text-decoration-style:solid;text-decoration-color:#000;text-transform:none;block-progression:tb;isolation:auto;mix-blend-mode:normal" d="M 12 2 A 3 3 0 0 0 9.1738281 4 L 4 4 L 4 9 L 2 9 L 2 15 L 4 15 L 4 20 L 9.1757812 20 A 3 3 0 0 0 12 22 A 3 3 0 0 0 14.826172 20 L 20 20 L 20 15 L 22 15 L 22 9 L 20 9 L 20 4 L 14.826172 4 A 3 3 0 0 0 12 2 z M 6 6 L 9.1757812 6 A 3 3 0 0 0 12 8 A 3 3 0 0 0 14.824219 6 L 18 6 L 18 9 L 16 9 L 16 15 L 18 15 L 18 18 L 14.824219 18 A 3 3 0 0 0 12 16 A 3 3 0 0 0 9.1738281 18 L 6 18 L 6 15 L 8 15 L 8 9 L 6 9 L 6 6 z"/>
</svg>
