<?xml version="1.0"?>
<svg xmlns="http://www.w3.org/2000/svg" viewBox="0 0 24 24">
    <path d="M 8.5 4 A 3.5 3.5 0 0 0 5 7.5 A 3.5 3.5 0 0 0 8.5 11 A 3.5 3.5 0 0 0 12 7.5 A 3.5 3.5 0 0 0 8.5 4 z M 17 7 A 3 3 0 0 0 14 10 A 3 3 0 0 0 17 13 A 3 3 0 0 0 20 10 A 3 3 0 0 0 17 7 z M 8.5 13 C 5.69 13 3.2395313 14.140313 2.0195312 14.820312 C 1.3895312 15.180312 1 15.840312 1 16.570312 L 1 20 L 9 20 L 9 17.130859 C 9 15.710859 9.7790625 14.379922 11.039062 13.669922 C 11.179062 13.589922 11.339766 13.509922 11.509766 13.419922 C 10.589766 13.169922 9.57 13 8.5 13 z M 17 14 C 14.858 14 12.963437 14.886063 12.023438 15.414062 C 11.392437 15.770062 11 16.427859 11 17.130859 L 11 20 L 23 20 L 23 17.130859 C 23 16.427859 22.606609 15.770063 21.974609 15.414062 C 21.035609 14.886062 19.142 14 17 14 z"/>
</svg>
