<?xml version="1.0"?>
<svg xmlns="http://www.w3.org/2000/svg" viewBox="0 0 24 24">
    <path d="M 1 3 L 1 5 L 1 7 L 1 10 L 7 10 L 7 7 L 7 5 L 7 3 L 5 3 L 5 5 L 3 5 L 3 3 L 1 3 z M 9 3 L 9 12 L 7 12 L 7 19 L 5 19 L 5 12 L 3 12 L 3 21 L 21 21 L 21 3 L 9 3 z M 14.980469 9 C 16.339469 9 17.307984 9.2649219 17.958984 9.7949219 C 18.580984 10.295922 19 11.12175 19 12.09375 C 19 13.06575 18.681516 13.889219 18.103516 14.449219 C 17.351516 15.170219 16.237547 15.494141 14.935547 15.494141 C 14.647547 15.494141 14.202953 15.440156 14.001953 15.410156 L 14.001953 19 L 12.001953 19 L 12.001953 9.2050781 C 12.680953 9.0870781 13.635469 9 14.980469 9 z M 15.095703 10.693359 C 14.647703 10.693359 14.159 10.7675 14 10.8125 L 14 13.654297 C 14.188 13.698297 14.604875 13.771484 14.921875 13.771484 C 16.093875 13.771484 16.816406 13.168344 16.816406 12.152344 C 16.816406 11.239344 16.194703 10.693359 15.095703 10.693359 z"/>
</svg>
