<?xml version="1.0"?>
<svg xmlns="http://www.w3.org/2000/svg" viewBox="0 0 24 24">
    <path d="M 3 3 L 3 21 L 21 21 L 21 3 L 3 3 z M 11.980469 7 C 13.340469 7 14.310937 7.2707812 14.960938 7.8007812 C 15.580937 8.3007812 16 9.1198437 16 10.089844 C 16 11.059844 15.679609 11.889219 15.099609 12.449219 C 14.349609 13.169219 13.239453 13.490234 11.939453 13.490234 C 11.649453 13.490234 11.2 13.440156 11 13.410156 L 11 17 L 9 17 L 9 7.2109375 C 9.68 7.0909375 10.630469 7 11.980469 7 z M 12.089844 8.6894531 C 11.649844 8.6894531 11.16 8.7705469 11 8.8105469 L 11 11.650391 C 11.19 11.700391 11.599922 11.769531 11.919922 11.769531 C 13.089922 11.769531 13.820312 11.170391 13.820312 10.150391 C 13.820312 9.2403906 13.189844 8.6894531 12.089844 8.6894531 z"/>
</svg>
