<?xml version="1.0"?>
<svg xmlns="http://www.w3.org/2000/svg" viewBox="0 0 24 24">
    <path d="M 3 1 L 3 17 L 5 17 L 5 3 L 17 3 L 17 1 L 3 1 z M 7 5 L 7 23 L 15 23 L 15 22 L 15 21 L 15 14 L 20 14 L 21 14 L 22 14 L 22 5 L 7 5 z M 12.5 7 C 13.328 7 14 7.672 14 8.5 C 14 9.328 13.328 10 12.5 10 C 11.672 10 11 9.328 11 8.5 C 11 7.672 11.672 7 12.5 7 z M 12.5 11 C 13.334 11 15 11.419 15 12.25 L 15 13 L 10 13 L 10 12.25 C 10 11.419 11.666 11 12.5 11 z M 17 16 L 17 18 L 24 18 L 24 16 L 17 16 z M 17 19 L 17 21 L 24 21 L 24 19 L 17 19 z M 17 22 L 17 24 L 24 24 L 24 22 L 17 22 z"/>
</svg>
