<?xml version="1.0"?>
<svg xmlns="http://www.w3.org/2000/svg" viewBox="0 0 24 24">
    <path style="line-height:normal;text-indent:0;text-align:start;text-decoration-line:none;text-decoration-style:solid;text-decoration-color:#000;text-transform:none;block-progression:tb;isolation:auto;mix-blend-mode:normal" d="M 16.083984 2.9257812 L 16.791016 4.4277344 C 16.956494 4.7792255 17 5.2551919 17 5.9121094 C 17 7.1902255 16.477177 8.2194472 15.566406 8.8320312 C 14.560658 7.716228 13.121088 7 11.5 7 C 9.347 7 7.4889375 8.2409688 6.5859375 10.042969 C 4.0219375 10.256969 2 12.381 2 15 C 2 17.761 4.239 20 7 20 L 17 20 C 19.209 20 21 18.209 21 16 C 21 14.994862 20.616185 14.087468 20.003906 13.384766 C 21.778532 12.467185 23 10.616762 23 8.4902344 C 23 5.5422228 20.653641 3.134602 17.740234 3.0019531 L 16.083984 2.9257812 z M 18.894531 5.296875 C 20.135549 5.8319206 21 7.0428263 21 8.4902344 C 21 10.440889 19.440889 12 17.490234 12 L 17.490234 12.050781 C 17.327817 12.030703 17.167846 12 17 12 C 16.991 12 16.983609 12.002906 16.974609 12.003906 C 16.928215 11.48749 16.790264 11.000496 16.611328 10.535156 C 18.146665 9.536199 19 7.7914575 19 5.9121094 C 19 5.7233982 18.903313 5.4966407 18.894531 5.296875 z" font-weight="400" font-family="sans-serif" white-space="normal" overflow="visible"/>
</svg>
