<?xml version="1.0"?>
<svg xmlns="http://www.w3.org/2000/svg" viewBox="0 0 24 24">
    <path d="M 9 2 C 5.69 2 3 4.7298438 3 8.0898438 C 3 10.955958 5.0499592 15.069022 8.0019531 15.855469 L 8 21 L 10 21 L 10.001953 15.855469 C 12.95198 15.06659 15 10.954774 15 8.0898438 C 15 4.7298438 12.31 2 9 2 z M 16.400391 5.0195312 C 16.790391 5.9695313 17 7.0098437 17 8.0898438 C 17 10.649844 15.749844 13.939531 13.589844 16.019531 C 14.00956 16.383697 14.483981 16.65712 14.998047 16.824219 L 14.996094 22 L 16.996094 22 L 16.998047 16.839844 C 19.434423 16.071462 21 12.618968 21 10.240234 C 21 7.4902344 18.970391 5.2295313 16.400391 5.0195312 z"/>
</svg>
