<?xml version="1.0"?>
<svg xmlns="http://www.w3.org/2000/svg" viewBox="0 0 24 24">
    <path style="line-height:normal;text-indent:0;text-align:start;text-decoration-line:none;text-decoration-style:solid;text-decoration-color:#000;text-transform:none;block-progression:tb;isolation:auto;mix-blend-mode:normal" d="M 16 3 L 16 5.1445312 C 15.637884 5.2394778 15.297661 5.3814876 14.982422 5.5683594 L 13.464844 4.0507812 L 12.050781 5.4648438 L 13.568359 6.9824219 C 13.426956 7.2209589 13.31448 7.4737556 13.224609 7.7402344 C 12.419911 7.2781842 11.494971 7 10.5 7 C 8.347 7 6.4889375 8.2409688 5.5859375 10.042969 C 3.0219375 10.256969 1 12.381 1 15 C 1 17.761 3.239 20 6 20 L 16 20 C 18.209 20 20 18.209 20 16 C 20 14.660326 19.33541 13.481803 18.324219 12.755859 C 18.567651 12.669139 18.798044 12.561779 19.017578 12.431641 L 20.535156 13.949219 L 21.949219 12.535156 L 20.431641 11.017578 C 20.618512 10.702339 20.760522 10.362116 20.855469 10 L 23 10 L 23 8 L 20.855469 8 C 20.760522 7.6378836 20.618512 7.2976612 20.431641 6.9824219 L 21.949219 5.4648438 L 20.535156 4.0507812 L 19.017578 5.5683594 C 18.702339 5.3814876 18.362116 5.2394778 18 5.1445312 L 18 3 L 16 3 z M 17 7 C 18.116414 7 19 7.8835859 19 9 C 19 10.116414 18.116414 11 17 11 C 16.423108 11 15.911592 10.760981 15.548828 10.378906 C 15.412544 10.054614 15.249711 9.7481023 15.056641 9.4589844 C 15.022666 9.3112898 15 9.1590232 15 9 C 15 7.8835859 15.883586 7 17 7 z"/>
</svg>
