<?xml version="1.0"?>
<svg xmlns="http://www.w3.org/2000/svg" viewBox="0 0 24 24">
    <path d="M 16 2 A 2 2 0 0 0 14 4 A 2 2 0 0 0 16 6 A 2 2 0 0 0 18 4 A 2 2 0 0 0 16 2 z M 13.763672 7 L 9.1835938 9.2910156 L 8.6855469 10.783203 L 8.6835938 10.78125 L 7.2929688 14.857422 L 4.3085938 13.664062 L 1.6699219 20.259766 L 3.0117188 20.888672 C 3.0717188 19.284672 4.381 18 6 18 C 6.728 18 7.38725 18.270172 7.90625 18.701172 L 9.8554688 13.341797 L 10.816406 10.710938 L 12.591797 9.8222656 L 10.015625 22 L 12.060547 22 L 13.441406 15.472656 C 13.920406 16.041656 14.652 16.961984 15 17.333984 L 15 22 L 17 22 L 17 16.697266 L 15.826172 14.9375 L 16.658203 11.441406 C 16.942203 11.945406 17.283641 12.380328 17.681641 12.736328 C 18.605641 13.563328 19.753 14 21 14 L 21 12 C 20.231 12 19.582625 11.753094 19.015625 11.246094 C 18.508625 10.793094 18.133344 10.091109 17.902344 9.1621094 C 17.474344 7.4511094 15.817 7 15 7 L 13.763672 7 z M 6 19.888672 A 1 1 0 0 0 5 20.888672 A 1 1 0 0 0 6 21.888672 A 1 1 0 0 0 7 20.888672 A 1 1 0 0 0 6 19.888672 z"/>
</svg>
