<?xml version="1.0"?>
<svg xmlns="http://www.w3.org/2000/svg" viewBox="0 0 24 24">
    <path d="M 3 3 L 3 9 L 6 9 L 6 11 L 3 11 L 3 17 L 6 17 L 6 19 L 3 19 L 3 21 L 10.587891 21 C 10.331891 20.369 10.155359 19.699 10.068359 19 L 8 19 L 8 17 L 10.068359 17 C 10.197359 15.97 10.518 15.000859 11 14.130859 L 11 13 L 11.759766 13 C 12.410766 12.189 13.214859 11.507 14.130859 11 L 14 11 L 14 9 L 18 9 L 18 10 C 18.692 10 19.36 10.096719 20 10.261719 L 20 9 L 21 9 L 21 7 L 17 7 L 17 5 L 21 5 L 21 3 L 3 3 z M 5 5 L 9 5 L 9 7 L 5 7 L 5 5 z M 11 5 L 15 5 L 15 7 L 11 7 L 11 5 z M 8 9 L 12 9 L 12 11 L 8 11 L 8 9 z M 18 12 C 14.691 12 12 14.691 12 18 C 12 21.309 14.691 24 18 24 C 21.309 24 24 21.309 24 18 C 24 14.691 21.309 12 18 12 z M 5 13 L 9 13 L 9 15 L 5 15 L 5 13 z M 18.617188 15 L 19 15 L 19 21 L 17 21 L 17 17.259766 L 15.769531 17.720703 L 15.769531 16.164062 L 18.617188 15 z"/>
</svg>
