<?xml version="1.0"?>
<svg xmlns="http://www.w3.org/2000/svg" viewBox="0 0 24 24">
    <path d="M 2 5 L 2 17 L 13 17 L 13 15 L 4.9121094 15 A 1.5 1.5 0 0 0 4 14.087891 L 4 7.9121094 A 1.5 1.5 0 0 0 4.9121094 7 L 19.087891 7 A 1.5 1.5 0 0 0 20 7.9121094 L 20 10 L 22 10 L 22 5 L 2 5 z M 11.974609 8 C 11.786691 8.0014902 11.595266 8.0208438 11.400391 8.0585938 C 10.223391 8.2865937 9.2657812 9.2555469 9.0507812 10.435547 C 8.7047812 12.340547 10.159 14 12 14 C 12.353 14 12.686 13.928406 13 13.816406 L 13 10 L 14.816406 10 C 14.400781 8.830125 13.290035 7.9895684 11.974609 8 z M 7 10 C 6.448 10 6 10.447 6 11 C 6 11.553 6.448 12 7 12 C 7.552 12 8 11.553 8 11 C 8 10.447 7.552 10 7 10 z M 15 12 L 15 14 L 16 14 L 16 15.914062 L 18.085938 18 L 16 20.085938 L 16 22 L 15 22 L 15 24 L 24 24 L 24 22 L 23 22 L 23 20.085938 L 20.914062 18 L 23 15.914062 L 23 14 L 24 14 L 24 12 L 15 12 z M 18 14 L 21 14 L 21 15.085938 L 19.5 16.585938 L 18 15.085938 L 18 14 z M 19.5 19.414062 L 21 20.914062 L 21 22 L 18 22 L 18 20.914062 L 19.5 19.414062 z"/>
</svg>
