<?xml version="1.0"?>
<svg xmlns="http://www.w3.org/2000/svg" viewBox="0 0 24 24">
    <path d="M 12 3 A 3.5 3.5 0 0 0 8.5 6.5 A 3.5 3.5 0 0 0 12 10 A 3.5 3.5 0 0 0 15.5 6.5 A 3.5 3.5 0 0 0 12 3 z M 4.5 6 A 2.5 2.5 0 0 0 2 8.5 A 2.5 2.5 0 0 0 4.5 11 A 2.5 2.5 0 0 0 7 8.5 A 2.5 2.5 0 0 0 4.5 6 z M 12 12 C 9.664 12 5 13.172 5 15.5 L 5 19 L 12.091797 19 C 12.572078 21.82834 15.039615 24 18 24 C 21.301864 24 24 21.301864 24 18 C 24 14.698136 21.301864 12 18 12 C 17.091739 12 16.232289 12.209495 15.458984 12.574219 C 14.230009 12.200668 12.932788 12 12 12 z M 3.8984375 13.052734 C 2.3174375 13.296734 0 14.389078 0 15.705078 L 0 19 L 3 19 L 3 15.5 C 3 14.539 3.3454375 13.732734 3.8984375 13.052734 z M 18 14 C 20.220984 14 22 15.779016 22 18 C 22 20.220984 20.220984 22 18 22 C 15.779016 22 14 20.220984 14 18 C 14 15.779016 15.779016 14 18 14 z M 18.490234 15.599609 L 16.210938 16.53125 L 16.210938 17.777344 L 17.164062 17.408203 L 17.164062 20.400391 L 18.796875 20.400391 L 18.796875 15.599609 L 18.490234 15.599609 z"/>
</svg>
