<?xml version="1.0"?>
<svg xmlns="http://www.w3.org/2000/svg" viewBox="0 0 24 24">
    <path style="line-height:normal;text-indent:0;text-align:start;text-decoration-line:none;text-decoration-style:solid;text-decoration-color:#000;text-transform:none;block-progression:tb;isolation:auto;mix-blend-mode:normal" d="M 4 2 L 4 9 L 2 9 L 2 18 L 4 18 L 4 22 L 20 22 L 20 7 L 15 2 L 4 2 z M 6 4 L 14 4 L 14 8 L 18 8 L 18 9 L 6 9 L 6 4 z M 4 11 L 5.5 11 C 6.328 11 7 11.672 7 12.5 C 7 13.328 6.328 14 5.5 14 L 5 14 L 5 16 L 4 16 L 4 11 z M 13 11 L 16 11 L 16 12 L 14 12 L 14 13 L 15.599609 13 L 15.599609 14 L 14 14 L 14 16 L 13 16 L 13 11 z M 8 11.023438 L 9.6289062 11.023438 C 11.210906 11.023438 12 11.974906 12 13.128906 L 12 13.900391 C 12 15.068391 11.209234 16 9.6152344 16 L 8 16 L 8 11.023438 z M 5 12 L 5 13 L 5.5 13 C 5.776 13 6 12.776 6 12.5 C 6 12.224 5.776 12 5.5 12 L 5 12 z M 9 12.023438 L 9 15 L 9.6152344 15 C 10.247234 15 11 14.808391 11 13.900391 L 11 13.128906 C 11 12.214906 10.254906 12.023438 9.6289062 12.023438 L 9 12.023438 z M 6 18 L 18 18 L 18 20 L 6 20 L 6 18 z" font-weight="400" font-family="sans-serif" white-space="normal" overflow="visible"/>
</svg>
