<?xml version="1.0"?>
<svg xmlns="http://www.w3.org/2000/svg" viewBox="0 0 24 24">
    <path d="M17.56,2.171l-1.12,1.657C17.43,4.5,20,6.686,20,8.7c0,1.949-1.915,3.054-4,3.257V7h-2v6.56C13.41,13.21,12.73,13,12,13 s-1.41,0.21-2,0.56V7H8v4.938C5.958,11.676,4,10.622,4,8.7c0-2.087,2.56-4.218,3.546-4.862L6.455,2.161C6.273,2.279,2,5.099,2,8.7 c0,3.238,2.996,4.939,6,5.251V18c0,1.86,1.27,3.43,3,3.87V19c0,0,0.45,0,1,0s1,0,1,0v2.87c1.73-0.44,3-2.01,3-3.87v-4.029 c3.085-0.237,6-2.035,6-5.271C22,5.209,17.741,2.294,17.56,2.171z"/>
</svg>
