<?xml version="1.0"?>
<svg xmlns="http://www.w3.org/2000/svg" viewBox="0 0 24 24">
    <path d="M 3.2265625 4 L 0 11.800781 L 0 19 L 1.3515625 19 C 1.9155625 20.178 3.109 21 4.5 21 C 5.891 21 7.0844375 20.178 7.6484375 19 L 14.351562 19 C 14.915563 20.178 16.109 21 17.5 21 C 18.993 21 20.261672 20.055328 20.763672 18.736328 L 23 17.617188 L 23 12.179688 L 17.716797 11.123047 L 14.738281 4 L 3.2265625 4 z M 4.5625 6 L 8 6 L 8 11 L 6 11 L 2.4960938 11 L 4.5625 6 z M 6 11 A 1 1 0 0 0 7 10 A 1 1 0 0 0 6 9 A 1 1 0 0 0 5 10 A 1 1 0 0 0 6 11 z M 10 6 L 13.40625 6 L 15.498047 11 L 12 11 L 10 11 L 10 6 z M 12 11 A 1 1 0 0 0 13 10 A 1 1 0 0 0 12 9 A 1 1 0 0 0 11 10 A 1 1 0 0 0 12 11 z M 4.5 16 C 5.327 16 6 16.673 6 17.5 C 6 18.327 5.327 19 4.5 19 C 3.673 19 3 18.327 3 17.5 C 3 16.673 3.673 16 4.5 16 z M 17.5 16 C 18.327 16 19 16.673 19 17.5 C 19 18.327 18.327 19 17.5 19 C 16.673 19 16 18.327 16 17.5 C 16 16.673 16.673 16 17.5 16 z"/>
</svg>
