<?xml version="1.0"?>
<svg xmlns="http://www.w3.org/2000/svg" viewBox="0 0 24 24">
    <path d="M 5.6796875 3 L 2.9707031 7.9609375 L 1.8007812 6.4003906 L 0.19921875 7.5996094 L 2 10 L 2 21 L 5 21 L 4.9902344 19 L 19.009766 19 L 19 21 L 22 21 L 22 10 L 23.800781 7.5996094 L 22.199219 6.4003906 L 21.070312 7.9101562 L 18.619141 3 L 5.6796875 3 z M 6.8691406 5 L 17.380859 5 L 19.730469 9.6894531 L 19.5 10 L 14.5 10 L 9.5 10 L 4.5 10 L 4.2890625 9.7207031 L 6.8691406 5 z M 9.5 10 A 1.5 1.5 0 0 0 11 8.5 A 1.5 1.5 0 0 0 9.5 7 A 1.5 1.5 0 0 0 8 8.5 A 1.5 1.5 0 0 0 9.5 10 z M 14.5 10 A 1.5 1.5 0 0 0 16 8.5 A 1.5 1.5 0 0 0 14.5 7 A 1.5 1.5 0 0 0 13 8.5 A 1.5 1.5 0 0 0 14.5 10 z M 7 13 C 7.55 13 8 13.45 8 14 C 8 14.55 7.55 15 7 15 C 6.45 15 6 14.55 6 14 C 6 13.45 6.45 13 7 13 z M 17 13 C 17.55 13 18 13.45 18 14 C 18 14.55 17.55 15 17 15 C 16.45 15 16 14.55 16 14 C 16 13.45 16.45 13 17 13 z"/>
</svg>
