<?xml version="1.0"?>
<svg xmlns="http://www.w3.org/2000/svg" viewBox="0 0 24 24">
    <path d="M18.832,12.557l1.938-2.584C21.469,9.845,22,9.236,22,8.5C22,7.672,21.328,7,20.5,7S19,7.672,19,8.5 c0,0.144,0.027,0.281,0.065,0.414l-0.972,1.296l-1.888-3.15l1.565-2.087C18.469,4.845,19,4.236,19,3.5C19,2.672,18.328,2,17.5,2 S16,2.672,16,3.5c0,0.144,0.027,0.281,0.065,0.414L14.5,6H9.908C9.702,5.419,9.152,5,8.5,5C7.672,5,7,5.672,7,6.5 c0,0.435,0.188,0.824,0.484,1.098l-1.571,2.62L4.935,8.914C4.973,8.781,5,8.644,5,8.5C5,7.672,4.328,7,3.5,7S2,7.672,2,8.5 c0,0.736,0.531,1.345,1.23,1.473L5.2,12.6l0.004-0.003l2.598,4.334L6.23,19.027C5.531,19.155,5,19.764,5,20.5 C5,21.328,5.672,22,6.5,22S8,21.328,8,20.5c0-0.144-0.027-0.281-0.065-0.414L9.5,18h5l1.565,2.086C16.027,20.219,16,20.356,16,20.5 c0,0.828,0.672,1.5,1.5,1.5s1.5-0.672,1.5-1.5c0-0.736-0.531-1.345-1.23-1.473l-1.565-2.087L18.832,12.557z M9.575,8h4.861l2.397,4 l-2.397,4H9.575l-2.397-4L9.575,8z"/>
</svg>
