<?xml version="1.0"?>
<svg xmlns="http://www.w3.org/2000/svg" viewBox="0 0 24 24">
    <path style="line-height:normal;text-indent:0;text-align:start;text-decoration-line:none;text-decoration-style:solid;text-decoration-color:#000;text-transform:none;block-progression:tb;isolation:auto;mix-blend-mode:normal" d="M 3 3 L 3 4 L 3 21 L 21 21 L 21 3 L 3 3 z M 5 5 L 19 5 L 19 19 L 5 19 L 5 5 z M 8.5 7 A 1.5 1.5 0 0 0 7 8.5 A 1.5 1.5 0 0 0 8.5 10 A 1.5 1.5 0 0 0 10 8.5 A 1.5 1.5 0 0 0 8.5 7 z M 15.292969 7.2929688 L 7.2929688 15.292969 L 8.7070312 16.707031 L 16.707031 8.7070312 L 15.292969 7.2929688 z M 15.5 14 A 1.5 1.5 0 0 0 14 15.5 A 1.5 1.5 0 0 0 15.5 17 A 1.5 1.5 0 0 0 17 15.5 A 1.5 1.5 0 0 0 15.5 14 z" font-weight="400" font-family="sans-serif" white-space="normal" overflow="visible"/>
</svg>
