<?xml version="1.0"?>
<svg xmlns="http://www.w3.org/2000/svg" viewBox="0 0 24 24">
    <path style="line-height:normal;text-indent:0;text-align:start;text-decoration-line:none;text-decoration-style:solid;text-decoration-color:#000;text-transform:none;block-progression:tb;isolation:auto;mix-blend-mode:normal" d="M 7.5 4 C 5.578848 4 4 5.578848 4 7.5 C 4 9.421152 5.578848 11 7.5 11 C 9.421152 11 11 9.421152 11 7.5 C 11 5.578848 9.421152 4 7.5 4 z M 16.185547 4.4179688 L 6.1855469 18.417969 L 7.8144531 19.582031 L 17.814453 5.5820312 L 16.185547 4.4179688 z M 7.5 6 C 8.3402718 6 9 6.6597282 9 7.5 C 9 8.3402718 8.3402718 9 7.5 9 C 6.6597282 9 6 8.3402718 6 7.5 C 6 6.6597282 6.6597282 6 7.5 6 z M 16.5 13 C 14.578848 13 13 14.578848 13 16.5 C 13 18.421152 14.578848 20 16.5 20 C 18.421152 20 20 18.421152 20 16.5 C 20 14.578848 18.421152 13 16.5 13 z M 16.5 15 C 17.340272 15 18 15.659728 18 16.5 C 18 17.340272 17.340272 18 16.5 18 C 15.659728 18 15 17.340272 15 16.5 C 15 15.659728 15.659728 15 16.5 15 z" font-weight="400" font-family="sans-serif" white-space="normal" overflow="visible"/>
</svg>
