<?xml version="1.0"?>
<svg xmlns="http://www.w3.org/2000/svg" viewBox="0 0 24 24">
    <path d="M 12 3 A 4 4 0 0 0 8 7 A 4 4 0 0 0 12 11 A 4 4 0 0 0 16 7 A 4 4 0 0 0 12 3 z M 17.003906 9.0039062 C 17.003906 9.0039063 16.898953 10.895047 18.001953 11.998047 C 19.104953 13.101047 20.998047 12.998047 20.998047 12.998047 C 20.998047 12.998047 21.101047 11.104953 19.998047 10.001953 C 18.895047 8.8989531 17.003906 9.0039062 17.003906 9.0039062 z M 12 14 C 8.996 14 3 15.508 3 18.5 L 3 21 L 21 21 L 21 18.5 C 21 15.508 15.004 14 12 14 z"/>
</svg>
