<?xml version="1.0"?>
<svg xmlns="http://www.w3.org/2000/svg" viewBox="0 0 24 24">
    <path d="M 11.429688 3 L 3 11.587891 L 3 12 L 3 18.289062 L 3 21 L 18.310547 21 L 21 21 L 21 3 L 18.310547 3 L 11.869141 3 L 11.429688 3 z M 5.0410156 4.0410156 L 1.0410156 8.0410156 L 2.4550781 9.4550781 L 6.4550781 5.4550781 L 5.0410156 4.0410156 z M 12.289062 5 L 17.900391 5 L 14.896484 8.0039062 L 9.3378906 8.0039062 L 12.289062 5 z M 12 11 C 12 11 14 13.510391 14 14.900391 C 14 16.060391 13.1 17 12 17 C 10.9 17 10 16.060391 10 14.900391 C 10 13.510391 12 11 12 11 z"/>
</svg>
