<?xml version="1.0"?>
<svg xmlns="http://www.w3.org/2000/svg" viewBox="0 0 24 24">
    <path d="M 3 2 L 3 3 L 3 20 L 5 20 L 5 20.5 C 5 22.421188 6.5788117 24 8.5 24 C 10.421188 24 12 22.421188 12 20.5 L 12 20 L 21 20 L 21 2 L 9 2 L 3 2 z M 5 4 L 7 4 L 7 18 L 5 18 L 5 4 z M 12 6 L 18 6 L 18 8 L 12 8 L 12 6 z M 12 10 L 14 10 L 14 12 L 12 12 L 12 10 z M 16 10 L 18 10 L 18 12 L 16 12 L 16 10 z M 12 14 L 14 14 L 14 16 L 12 16 L 12 14 z M 16 14 L 18 14 L 18 16 L 16 16 L 16 14 z M 7 20 L 9 20 L 10 20 L 10 20.5 C 10 21.340812 9.3408117 22 8.5 22 C 7.6591883 22 7 21.340812 7 20.5 L 7 20 z"/>
</svg>
