<?xml version="1.0"?>
<svg xmlns="http://www.w3.org/2000/svg" viewBox="0 0 24 24">
    <path d="M 6 1 L 6 4 L 18 4 L 18 18 L 6 18 L 6 23 L 20 23 L 20 1 L 6 1 z M 7.0898438 6.0019531 C 5.3458438 5.9549531 4 7.27 4 9 L 4 10 L 3 10 L 3 16 L 11 16 L 11 10 L 10 10 L 10 9.1152344 C 10 7.4742344 8.7308438 6.0469531 7.0898438 6.0019531 z M 7 7.5 C 7.8 7.5 8.5 8.2 8.5 9 L 8.5 10 L 5.5 10 L 5.5 9 C 5.5 8.2 6.2 7.5 7 7.5 z M 13 18.875 C 13.622 18.875 14.125 19.378 14.125 20 C 14.125 20.622 13.622 21.125 13 21.125 C 12.378 21.125 11.875 20.622 11.875 20 C 11.875 19.378 12.378 18.875 13 18.875 z"/>
</svg>
