<?xml version="1.0"?>
<svg xmlns="http://www.w3.org/2000/svg" viewBox="0 0 24 24">
    <path d="M 12 2 C 8.158 2.02 4.3853281 3.5443594 1.6113281 6.3183594 C 1.2013281 6.7293594 1 6.9296875 1 6.9296875 L 4.3691406 10.298828 L 7.9667969 7.4804688 L 7.9726562 4.3828125 C 9.4016562 3.9388125 10.727 3.7635781 12 3.7675781 C 13.273 3.7635781 14.598344 3.9398125 16.027344 4.3828125 L 16.033203 7.4804688 L 19.630859 10.298828 L 23 6.9296875 L 22.388672 6.3183594 C 19.614672 3.5443594 15.842 2.02 12 2 z M 9 8 L 9 10 L 4 13.998047 L 4 19 L 3 19 L 3 21 L 21 21 L 21 19 L 20 19 L 20 14 L 15 10 L 15 8 L 13 8 L 13 10 L 11 10 L 11 8 L 9 8 z M 9 13 C 9.552 13 10 13.448 10 14 C 10 14.552 9.552 15 9 15 C 8.448 15 8 14.552 8 14 C 8 13.448 8.448 13 9 13 z M 12 13 C 12.552 13 13 13.448 13 14 C 13 14.552 12.552 15 12 15 C 11.448 15 11 14.552 11 14 C 11 13.448 11.448 13 12 13 z M 15 13 C 15.552 13 16 13.448 16 14 C 16 14.552 15.552 15 15 15 C 14.448 15 14 14.552 14 14 C 14 13.448 14.448 13 15 13 z M 9 16 C 9.552 16 10 16.448 10 17 C 10 17.552 9.552 18 9 18 C 8.448 18 8 17.552 8 17 C 8 16.448 8.448 16 9 16 z M 12 16 C 12.552 16 13 16.448 13 17 C 13 17.552 12.552 18 12 18 C 11.448 18 11 17.552 11 17 C 11 16.448 11.448 16 12 16 z M 15 16 C 15.552 16 16 16.448 16 17 C 16 17.552 15.552 18 15 18 C 14.448 18 14 17.552 14 17 C 14 16.448 14.448 16 15 16 z"/>
</svg>
