<?xml version="1.0"?>
<svg xmlns="http://www.w3.org/2000/svg" viewBox="0 0 24 24">
    <path d="M23,5h-9.382l-1.001-2H1v18h4v-2h2v2h10v-2h2v2h4V5z M16.962,15.772c-0.208,0.583-1.227,1.145-1.685,1.186 c-0.458,0.042-0.887,0.207-2.995-0.624c-2.537-1-4.139-3.601-4.263-3.767C7.894,12.4,7,11.214,7,9.986 c0-1.228,0.645-1.832,0.874-2.081c0.229-0.25,0.499-0.312,0.666-0.312c0.166,0,0.333,0,0.478,0.006 C9.196,7.606,9.393,7.615,9.58,8.03c0.222,0.494,0.707,1.728,0.769,1.853s0.104,0.271,0.021,0.437s-0.125,0.27-0.249,0.416 c-0.125,0.146-0.262,0.325-0.374,0.437c-0.125,0.124-0.255,0.26-0.11,0.509c0.146,0.25,0.646,1.067,1.388,1.728 c0.954,0.85,1.757,1.113,2.007,1.239c0.25,0.125,0.395,0.104,0.541-0.063c0.146-0.166,0.624-0.728,0.79-0.978 c0.166-0.25,0.333-0.208,0.562-0.125c0.229,0.083,1.456,0.687,1.705,0.812c0.25,0.125,0.416,0.187,0.478,0.291 C17.17,14.689,17.17,15.189,16.962,15.772z"/>
</svg>
