<?xml version="1.0"?>
<svg xmlns="http://www.w3.org/2000/svg" viewBox="0 0 24 24">
    <path d="M 5 1 L 5 23 L 19 23 L 19 18 L 7 18 L 7 4 L 19 4 L 19 1 L 5 1 z M 17.232422 6 C 17.103422 6 16.995469 6.0966094 16.980469 6.2246094 L 16.863281 7.2363281 C 16.379281 7.4043281 15.9425 7.6592812 15.5625 7.9882812 L 14.626953 7.5820312 C 14.508953 7.5310312 14.370641 7.5774531 14.306641 7.6894531 L 13.369141 9.3105469 C 13.305141 9.4225469 13.3345 9.564625 13.4375 9.640625 L 14.244141 10.238281 C 14.197141 10.486281 14.167969 10.74 14.167969 11 C 14.167969 11.26 14.196141 11.512766 14.244141 11.759766 L 13.439453 12.359375 C 13.336453 12.436375 13.306094 12.578453 13.371094 12.689453 L 14.306641 14.310547 C 14.370641 14.422547 14.508953 14.467016 14.626953 14.416016 L 15.5625 14.011719 C 15.9415 14.339719 16.379281 14.595672 16.863281 14.763672 L 16.980469 15.775391 C 16.994469 15.904391 17.103422 16 17.232422 16 L 19.103516 16 C 19.232516 16 19.340469 15.903391 19.355469 15.775391 L 19.472656 14.763672 C 19.956656 14.595672 20.393438 14.340719 20.773438 14.011719 L 21.710938 14.417969 C 21.828937 14.468969 21.965297 14.421547 22.029297 14.310547 L 22.966797 12.689453 C 23.030797 12.577453 23.001438 12.435375 22.898438 12.359375 L 22.091797 11.759766 C 22.139797 11.512766 22.167969 11.26 22.167969 11 C 22.167969 10.74 22.139797 10.487234 22.091797 10.240234 L 22.896484 9.640625 C 22.999484 9.563625 23.029844 9.4215469 22.964844 9.3105469 L 22.029297 7.6894531 C 21.965297 7.5774531 21.826984 7.5329844 21.708984 7.5839844 L 20.773438 7.9882812 C 20.394437 7.6602812 19.956656 7.4043281 19.472656 7.2363281 L 19.355469 6.2246094 C 19.341469 6.0956094 19.232516 6 19.103516 6 L 17.232422 6 z M 18.167969 9.25 C 19.133969 9.25 19.917969 10.033 19.917969 11 C 19.917969 11.966 19.133969 12.75 18.167969 12.75 C 17.201969 12.75 16.417969 11.966 16.417969 11 C 16.417969 10.033 17.201969 9.25 18.167969 9.25 z M 12 18.875 C 12.622 18.875 13.125 19.378 13.125 20 C 13.125 20.622 12.622 21.125 12 21.125 C 11.378 21.125 10.875 20.622 10.875 20 C 10.875 19.378 11.378 18.875 12 18.875 z"/>
</svg>
