<?xml version="1.0"?>
<svg xmlns="http://www.w3.org/2000/svg" viewBox="0 0 24 24">
    <path style="line-height:normal;text-indent:0;text-align:start;text-decoration-line:none;text-decoration-style:solid;text-decoration-color:#000;text-transform:none;block-progression:tb;isolation:auto;mix-blend-mode:normal" d="M 2 4 L 2 20 L 12 20 L 12 16 L 5 16 L 5 14 L 8.25 10.5 L 10.75 13 L 14.25 9 L 17.40625 13 L 22 13 L 22 4 L 2 4 z M 20 15 L 20 16 L 14 16 L 14 18 L 20 18 L 20 19 L 22 19 L 22 18 L 24 18 L 24 16 L 22 16 L 22 15 L 20 15 z M 16 20 L 16 21 L 14 21 L 14 23 L 16 23 L 16 24 L 18 24 L 18 23 L 24 23 L 24 21 L 18 21 L 18 20 L 16 20 z" font-weight="400" font-family="sans-serif" white-space="normal" overflow="visible"/>
</svg>
