<?xml version="1.0"?>
<svg xmlns="http://www.w3.org/2000/svg" viewBox="0 0 24 24">
    <path d="M 1 4 L 1 19 L 23 19 L 23 4 L 1 4 z M 7 9 L 8.5 9 C 9.328 9 10 9.672 10 10.5 C 10 11.328 9.328 12 8.5 12 L 8 12 L 8 14 L 7 14 L 7 9 z M 11 9 L 12 9 L 12 11 L 13 11 L 13 9 L 14 9 L 14 11 L 14 12 L 14 14 L 13 14 L 13 12 L 12 12 L 12 14 L 11 14 L 11 12 L 11 11 L 11 9 z M 15 9 L 16.5 9 C 17.328 9 18 9.672 18 10.5 C 18 11.328 17.328 12 16.5 12 L 16 12 L 16 14 L 15 14 L 15 9 z M 8 10 L 8 11 L 8.5 11 C 8.776 11 9 10.776 9 10.5 C 9 10.224 8.776 10 8.5 10 L 8 10 z M 16 10 L 16 11 L 16.5 11 C 16.776 11 17 10.776 17 10.5 C 17 10.224 16.776 10 16.5 10 L 16 10 z"/>
</svg>
