<?xml version="1.0"?>
<svg xmlns="http://www.w3.org/2000/svg" viewBox="0 0 24 24">
    <path d="M 4 2 L 4 20 L 4 22 L 6 22 L 11.939453 22 C 11.609453 21.35 11.370703 20.67 11.220703 20 L 6 20 L 6 4 L 18 4 L 18 9.9199219 C 18.11 9.7599219 18.229375 9.6202344 18.359375 9.4902344 C 18.819375 9.0202344 19.38 8.650625 20 8.390625 L 20 4 L 20 2 L 18 2 L 4 2 z M 22 10 C 21.151 10 20.332062 10.336672 19.789062 10.888672 C 19.298062 11.391672 19 12.283 19 13 C 19.876 13 20.813031 12.577625 21.332031 12.015625 C 21.817031 11.489625 22 10.847 22 10 z M 16.445312 14 C 15.014312 14 13 15.342172 13 18.326172 C 13 20.957172 15.296922 24 16.794922 24 C 17.223922 24 17.5125 23.875094 17.8125 23.746094 C 18.0835 23.626094 18.339531 23.513766 18.769531 23.509766 C 19.223531 23.513766 19.472594 23.621531 19.808594 23.769531 C 20.061594 23.877531 20.348906 24 20.753906 24 C 21.898906 24 23.206297 22.498625 23.904297 21.015625 C 24.104297 20.591625 23.982328 20.084828 23.611328 19.798828 C 23.105328 19.406828 22.998047 18.745719 22.998047 18.261719 C 22.998047 17.630719 23.193656 17.127609 23.597656 16.724609 C 23.948656 16.373609 23.990359 15.818922 23.693359 15.419922 C 23.040359 14.543922 22.056 14 21.125 14 C 20.604 14 20.141016 14.179281 19.666016 14.363281 C 19.002016 14.628281 18.590719 14.636375 17.886719 14.359375 C 17.493719 14.199375 17.004312 14 16.445312 14 z"/>
</svg>
