<?xml version="1.0"?>
<svg xmlns="http://www.w3.org/2000/svg" viewBox="0 0 24 24">
    <path d="M 7 3 L 7 10 L 1 10 L 1 19 L 2.5605469 19 C 3.2568565 20.187528 4.5333802 21 6 21 C 7.4666198 21 8.7431435 20.187528 9.4394531 19 L 13.560547 19 C 14.256857 20.187528 15.53338 21 17 21 C 18.46662 21 19.743143 20.187528 20.439453 19 L 23 19 L 23 12.820312 L 23 11.125 L 18.652344 10.125 L 14.580078 3 L 7 3 z M 9 5 L 13.419922 5 L 16.275391 10 L 9 10 L 9 5 z M 6 15 C 7.1164141 15 8 15.883586 8 17 C 8 18.116414 7.1164141 19 6 19 C 4.8835859 19 4 18.116414 4 17 C 4 15.883586 4.8835859 15 6 15 z M 17 15 C 18.116414 15 19 15.883586 19 17 C 19 18.116414 18.116414 19 17 19 C 15.883586 19 15 18.116414 15 17 C 15 15.883586 15.883586 15 17 15 z"/>
</svg>
