<?xml version="1.0"?>
<svg xmlns="http://www.w3.org/2000/svg" viewBox="0 0 24 24">
    <path d="M22,12c0-2.48-1-3.647-1-5c0.115-0.952,1.469-2.076,0.782-2.763s-1.767,0.348-2.825,0.65C18.631,4.98,18.326,5.009,18,4.998 C16.858,4.959,15.458,4,12,4S7.142,4.959,6,4.998C5.674,5.009,5.369,4.98,5.043,4.887c-1.059-0.302-2.138-1.338-2.825-0.65 S2.885,6.048,3,7c0,1.353-1,2.52-1,5s1,3.647,1,5c-0.115,0.952-1.469,2.076-0.782,2.763s1.767-0.348,2.825-0.65 C5.369,19.02,5.674,18.991,6,19.002C7.142,19.041,8.542,20,12,20s4.858-0.959,6-0.998c0.326-0.011,0.631,0.018,0.957,0.111 c1.059,0.302,2.138,1.338,2.825,0.65S21.115,17.952,21,17C21,15.647,22,14.48,22,12z M10,9H8.549C7.694,9,7,9.694,7,10.549V12H5 v-1.451C5,8.592,6.592,7,8.549,7H10V9z"/>
</svg>
