<?xml version="1.0"?>
<svg xmlns="http://www.w3.org/2000/svg" viewBox="0 0 24 24">
    <path style="line-height:normal;text-indent:0;text-align:start;text-decoration-line:none;text-decoration-style:solid;text-decoration-color:#000;text-transform:none;block-progression:tb;isolation:auto;mix-blend-mode:normal" d="M 16 2 L 18.292969 4.2929688 L 16.294922 6.2910156 C 15.179886 5.7767718 13.770445 5.9572557 12.878906 6.8535156 C 11.708906 8.0285156 11.708906 9.9421875 12.878906 11.117188 C 13.444906 11.686187 14.198 12 15 12 C 15.802 12 16.555094 11.686188 17.121094 11.117188 C 18.039184 10.195961 18.228067 8.8242109 17.707031 7.7070312 L 19.707031 5.7070312 L 22 8 L 22 2 L 16 2 z M 9 12 C 8.222125 12 7.4439531 12.284016 6.8769531 12.853516 C 5.9542395 13.780172 5.7700627 15.162519 6.3027344 16.283203 L 4.2929688 18.292969 L 2 16 L 2 22 L 8 22 L 5.7070312 19.707031 L 7.7148438 17.699219 C 8.1125313 17.88937 8.5464785 18 9 18 C 9.802 18 10.555094 17.686188 11.121094 17.117188 C 12.291094 15.942187 12.291094 14.028516 11.121094 12.853516 C 10.554594 12.284016 9.777875 12 9 12 z" font-weight="400" font-family="sans-serif" white-space="normal" overflow="visible"/>
</svg>
