<?xml version="1.0"?>
<svg xmlns="http://www.w3.org/2000/svg" viewBox="0 0 24 24">
    <path d="M 7.8066406 3 L 1.8808594 5.3710938 L 2.8203125 11 L 1 11 L 1 17.720703 L 4.0234375 18.730469 C 4.1458341 20.543657 5.6578556 22 7.5 22 C 8.8830877 22 10.077679 21.175299 10.644531 20 L 13.355469 20 C 13.92232 21.175299 15.116912 22 16.5 22 C 18.342145 22 19.854166 20.543657 19.976562 18.730469 L 23 17.720703 L 23 11 L 21.179688 11 L 22.119141 5.3710938 L 16.193359 3 L 12 3 L 7.8066406 3 z M 9.4238281 5 L 12 5 L 14.576172 5 C 14.291611 5.962834 14 7.3395686 14 9 L 16 9 C 16 7.3263944 16.314113 6.0833173 16.572266 5.3066406 L 19.880859 6.6289062 L 19.152344 11 L 4.8476562 11 L 4.1191406 6.6289062 L 7.4277344 5.3066406 C 7.6858867 6.0833173 8 7.3263944 8 9 L 10 9 C 10 7.3395686 9.7083887 5.962834 9.4238281 5 z M 7.5 17 C 8.3389372 17 9 17.661063 9 18.5 C 9 19.338937 8.3389372 20 7.5 20 C 6.6610628 20 6 19.338937 6 18.5 C 6 17.661063 6.6610628 17 7.5 17 z M 16.5 17 C 17.338937 17 18 17.661063 18 18.5 C 18 19.338937 17.338937 20 16.5 20 C 15.661063 20 15 19.338937 15 18.5 C 15 17.661063 15.661063 17 16.5 17 z"/>
</svg>
