<?xml version="1.0"?>
<svg xmlns="http://www.w3.org/2000/svg" viewBox="0 0 24 24">
    <path d="M 5 3 L 5 11 L 11 11 L 11 13.173828 C 10.397781 13.319639 9.8259505 13.584191 9.3554688 13.998047 L 6 14 L 6 20 L 9.3554688 20.001953 C 10.081469 20.641953 11.022 21 12 21 C 12.977 21 13.917531 20.641953 14.644531 20.001953 L 18 20 L 18 14 L 14.644531 13.998047 C 14.17462 13.584201 13.602797 13.319654 13 13.173828 L 13 11 L 19 11 L 19 3 L 5 3 z M 12 5 C 13.1 5 14 5.9 14 7 C 14 8.1 13.1 9 12 9 C 10.9 9 10 8.1 10 7 C 10 5.9 10.9 5 12 5 z"/>
</svg>
