<?xml version="1.0"?>
<svg xmlns="http://www.w3.org/2000/svg" viewBox="0 0 24 24">
    <path d="M21.959,14.685C19.984,8.743,15.257,4.016,9.315,2.04L8.351,1.719l-6.379,20.31l20.309-6.379L21.959,14.685z M9.641,4.287 c0.353,0.14,0.69,0.311,1.031,0.473c0.212,0.1,0.432,0.185,0.639,0.293c0.5,0.261,0.983,0.551,1.454,0.857 c0.04,0.026,0.083,0.046,0.123,0.073c2.544,1.681,4.64,3.993,6.059,6.707c0.094,0.18,0.167,0.372,0.255,0.556 c0.177,0.368,0.359,0.733,0.511,1.114l-1.926,0.605c-1.625-3.966-4.785-7.126-8.751-8.751L9.641,4.287z M12.108,16.748 c-0.644-0.333-1.098-0.986-1.098-1.758c0-1.11,0.9-2,2-2c1.11,0,2,0.89,2,2c0,0.337-0.099,0.646-0.247,0.924L12.108,16.748z M6.438,18.529C6.176,18.259,6.01,17.897,6.01,17.49c0-0.83,0.67-1.5,1.5-1.5s1.5,0.67,1.5,1.5c0,0.086-0.027,0.163-0.043,0.245 L6.438,18.529z M9.01,8.99c1.11,0,2,0.89,2,2c0,1.1-0.89,2-2,2c-0.772,0-1.425-0.454-1.758-1.099l0.833-2.654 C8.364,9.089,8.673,8.99,9.01,8.99z"/>
</svg>
