<?xml version="1.0"?>
<svg xmlns="http://www.w3.org/2000/svg" viewBox="0 0 24 24">
    <path d="M 12 1 C 8.686 1 6 3.686 6 7 C 6 11.286 12 18 12 18 C 12 18 18 11.286 18 7 C 18 3.686 15.314 1 12 1 z M 12 4.8574219 C 13.184 4.8574219 14.142578 5.816 14.142578 7 C 14.142578 8.183 13.183 9.1425781 12 9.1425781 C 10.817 9.1425781 9.8574219 8.184 9.8574219 7 C 9.8574219 5.816 10.816 4.8574219 12 4.8574219 z M 7.4804688 15.435547 C 4.2314687 16.095547 2 17.442 2 19 C 2 21.209 6.477 23 12 23 C 17.523 23 22 21.209 22 19 C 22 17.442 19.768531 16.096547 16.519531 15.435547 C 16.067531 16.096547 15.624797 16.702422 15.216797 17.232422 C 17.948797 17.646422 19.566219 18.512047 19.949219 18.998047 C 19.434219 19.652047 16.695953 20.998047 12.001953 20.998047 L 12 21.001953 L 11.998047 21 C 7.3040469 21 4.5667813 19.655 4.0507812 19 C 4.4337813 18.513 6.0502031 17.645422 8.7832031 17.232422 C 8.3752031 16.701422 7.9324688 16.095547 7.4804688 15.435547 z"/>
</svg>
