<?xml version="1.0"?>
<svg xmlns="http://www.w3.org/2000/svg" viewBox="0 0 24 24">
    <path d="M 13.984375 1.9863281 A 1.0001 1.0001 0 0 0 13 3 L 11 3 L 11 4 L 11 12 L 22 12 L 22 3 L 20 3 A 1.0001 1.0001 0 0 0 18.984375 1.9863281 A 1.0001 1.0001 0 0 0 18 3 L 15 3 A 1.0001 1.0001 0 0 0 13.984375 1.9863281 z M 9.0566406 2.578125 C 6.3786406 3.657125 4.41875 6.1401875 4.09375 9.1171875 L 1.6191406 13 L 4.0429688 14.021484 L 4.0429688 19 L 8.0429688 19 L 8.0429688 22 L 17.042969 22 L 17.042969 19.240234 C 17.042969 16.336234 18.133 15.391 19 14 L 9.0566406 14 L 9.0566406 2.578125 z M 13 6 L 13.832031 6 A 1.0001 1.0001 0 0 0 14.158203 6 L 18.832031 6 A 1.0001 1.0001 0 0 0 19.158203 6 L 20 6 L 20 10 L 13 10 L 13 6 z"/>
</svg>
