<?xml version="1.0"?>
<svg xmlns="http://www.w3.org/2000/svg" viewBox="0 0 24 24">
    <path d="M20.174,8.259c1.387-3.09,0.774-4.663,0.001-5.435c-1.221-1.221-3.43-1.068-6.238,0.398 c-2.899-0.635-6.052,0.164-8.302,2.413c-2.25,2.25-3.049,5.403-2.414,8.302c-1.464,2.807-1.617,5.019-0.398,6.238 c0.438,0.439,1.135,0.83,2.222,0.83c0.825,0,1.88-0.232,3.214-0.831c1.185,0.54,2.461,0.82,3.74,0.82 c2.305,0,4.609-0.877,6.364-2.631C21.093,15.635,21.689,11.58,20.174,8.259z M7.05,7.05C8.415,5.686,10.207,5.004,12,5.004 s3.586,0.682,4.95,2.046c0.383,0.383,0.707,0.803,0.982,1.245c-0.941,1.757-2.404,3.663-4.189,5.449s-3.691,3.248-5.449,4.19 c-0.441-0.276-0.861-0.599-1.245-0.982C4.321,14.221,4.321,9.779,7.05,7.05z M16.95,16.95c-1.714,1.712-4.101,2.349-6.316,1.912 c1.51-0.979,3.06-2.241,4.523-3.705c1.464-1.463,2.725-3.013,3.705-4.523C19.299,12.85,18.663,15.237,16.95,16.95z"/>
</svg>
