<?xml version="1.0"?>
<svg xmlns="http://www.w3.org/2000/svg" viewBox="0 0 24 24">
    <path style="line-height:normal;text-indent:0;text-align:start;text-decoration-line:none;text-decoration-style:solid;text-decoration-color:#000;text-transform:none;block-progression:tb;isolation:auto;mix-blend-mode:normal" d="M 6 4 A 2 2 0 0 0 4 6 A 2 2 0 0 0 6 8 A 2 2 0 0 0 7.7304688 7 L 10 7 L 10 12 L 4 12 L 4 10 L 2 10 L 2 19 L 4 19 L 4 17 L 17 17 L 17 20 L 22 20 L 22 16 C 22 13.794 20.206 12 18 12 L 12 12 L 12 7 L 14.271484 7 A 2 2 0 0 0 16 8 A 2 2 0 0 0 18 6 A 2 2 0 0 0 16 4 A 2 2 0 0 0 14.269531 5 L 12 5 L 12 4 L 10 4 L 10 5 L 7.7285156 5 A 2 2 0 0 0 6 4 z" font-weight="400" font-family="sans-serif" white-space="normal" overflow="visible"/>
</svg>
