<?xml version="1.0"?>
<svg xmlns="http://www.w3.org/2000/svg" viewBox="0 0 24 24">
    <path d="M 6 1 L 6 3 L 3 3 L 3 21 L 21 21 L 21 3 L 18 3 L 18 1 L 16 1 L 16 3 L 8 3 L 8 1 L 6 1 z M 5 8 L 19 8 L 19 19 L 5 19 L 5 8 z M 10 11 L 10 12 L 11 12 L 11 17 L 12 17 L 12 11 L 11 11 L 10 11 z M 16 11 L 16 13 L 15 13 C 13.895 13 13 13.895 13 15 C 13 16.105 13.895 17 15 17 L 16 17 L 17 17 L 17 11 L 16 11 z M 7 13 L 7 14 L 6 14 L 6 15 L 7 15 L 7 16 L 8 16 L 8 15 L 9 15 L 9 14 L 8 14 L 8 13 L 7 13 z M 15 14 L 16 14 L 16 16 L 15 16 C 14.448 16 14 15.552 14 15 C 14 14.448 14.448 14 15 14 z"/>
</svg>
