<?xml version="1.0"?>
<svg xmlns="http://www.w3.org/2000/svg" viewBox="0 0 24 24">
    <path d="M 8 0 L 7.0449219 5.734375 C 5.194415 7.2018099 4 9.4639795 4 12 C 4 14.53602 5.194415 16.79819 7.0449219 18.265625 L 8 24 L 16 24 L 16.955078 18.265625 C 18.805585 16.79819 20 14.53602 20 12 C 20 9.4639795 18.805585 7.2018099 16.955078 5.734375 L 16 0 L 8 0 z M 12 6 C 15.325562 6 18 8.674438 18 12 C 18 15.325562 15.325562 18 12 18 C 8.674438 18 6 15.325562 6 12 C 6 8.674438 8.674438 6 12 6 z M 10 10 L 10 11 L 11 11 L 11 15 L 12 15 L 12 10 L 11 10 L 10 10 z M 13 10 L 13 15 L 14 15 L 14 13 L 14.5 13 C 14.776 13 15 13.224 15 13.5 L 15 15 L 16 15 L 16 13.5 C 16 12.672 15.328 12 14.5 12 L 14 12 L 14 10 L 13 10 z M 8 11 L 8 12 L 7 12 L 7 13 L 8 13 L 8 14 L 9 14 L 9 13 L 10 13 L 10 12 L 9 12 L 9 11 L 8 11 z"/>
</svg>
