<?xml version="1.0"?>
<svg xmlns="http://www.w3.org/2000/svg" viewBox="0 0 24 24">
    <path d="M 4 2 L 4 9 L 2 9 L 2 18 L 4 18 L 4 22 L 20 22 L 20 7 L 15 2 L 4 2 z M 6 4 L 14 4 L 14 8 L 18 8 L 18 9 L 6 9 L 6 4 z M 4 11 L 5.5 11 C 6.328 11 7 11.672 7 12.5 C 7 13.328 6.328 14 5.5 14 L 5 14 L 5 16 L 4 16 L 4 11 z M 11 11 L 12 11 L 12 16 L 10.845703 16 L 9 12.736328 L 9 16 L 8 16 L 8 11.023438 L 9.1542969 11.023438 L 11 14.267578 L 11 11 z M 15.035156 11.001953 C 16.207156 11.002953 16.673281 11.538953 16.863281 12.001953 L 15 12.001953 C 14.118 11.988953 14 12.856937 14 13.085938 L 14 13.914062 C 14 14.146062 14.206781 15.011953 15.175781 15.001953 C 15.458781 14.998953 15.976 14.836266 16 14.822266 L 15.978516 14 L 15 14 L 15.021484 13 L 17 13 L 17 15.380859 C 16.94 15.436859 16.291422 15.961047 15.107422 15.998047 C 14.785422 16.008047 13.132 16.038062 13 13.914062 L 13 13.091797 C 13 12.736797 12.958156 10.999953 15.035156 11.001953 z M 5 12 L 5 13 L 5.5 13 C 5.776 13 6 12.776 6 12.5 C 6 12.224 5.776 12 5.5 12 L 5 12 z M 6 18 L 18 18 L 18 20 L 6 20 L 6 18 z"/>
</svg>
