<?xml version="1.0"?>
<svg xmlns="http://www.w3.org/2000/svg" viewBox="0 0 24 24">
    <path style="line-height:normal;text-indent:0;text-align:start;text-decoration-line:none;text-decoration-style:solid;text-decoration-color:#000;text-transform:none;block-progression:tb;isolation:auto;mix-blend-mode:normal" d="M 18 3 A 2 2 0 0 0 16 5 A 2 2 0 0 0 17 6.7304688 L 17 9 L 2 9 L 2 11 L 3.2910156 11 L 4 14 L 20 14 L 20.708984 11 L 22 11 L 22 9 L 19 9 L 19 6.7285156 A 2 2 0 0 0 20 5 A 2 2 0 0 0 18 3 z M 8 16 L 8 21 L 16 21 L 16 16 L 8 16 z" font-weight="400" font-family="sans-serif" white-space="normal" overflow="visible"/>
</svg>
