<?xml version="1.0"?>
<svg xmlns="http://www.w3.org/2000/svg" viewBox="0 0 24 24">
    <path d="M 18 3 A 2 2 0 0 0 16 5 A 2 2 0 0 0 17 6.7304688 L 17 9 L 2 9 L 2 11 L 3.21875 11 L 4.21875 15 L 19.78125 15 L 19.970703 14.242188 L 20.78125 11 L 22 11 L 22 9 L 19 9 L 19 6.7285156 A 2 2 0 0 0 20 5 A 2 2 0 0 0 18 3 z M 6 17 A 2 2 0 0 0 4 19 A 2 2 0 0 0 6 21 A 2 2 0 0 0 8 19 A 2 2 0 0 0 6 17 z M 12 17 A 2 2 0 0 0 10 19 A 2 2 0 0 0 12 21 A 2 2 0 0 0 14 19 A 2 2 0 0 0 12 17 z M 18 17 A 2 2 0 0 0 16 19 A 2 2 0 0 0 18 21 A 2 2 0 0 0 20 19 A 2 2 0 0 0 18 17 z"/>
</svg>
