<?xml version="1.0"?>
<svg xmlns="http://www.w3.org/2000/svg" viewBox="0 0 24 24">
    <path d="M 7 2 C 4.243 2 2 4.243 2 7 C 2 10.148 5.8189062 14.511047 6.2539062 14.998047 L 7 15.833984 L 7.7460938 14.998047 C 8.1810937 14.511047 12 10.148 12 7 C 12 4.243 9.757 2 7 2 z M 7 5 C 8.105 5 9 5.895 9 7 C 9 8.105 8.105 9 7 9 C 5.895 9 5 8.105 5 7 C 5 5.895 5.895 5 7 5 z M 17 8 C 14.243 8 12 10.243 12 13 C 12 16.148 15.818906 20.511047 16.253906 20.998047 L 17 21.833984 L 17.746094 20.998047 C 18.181094 20.511047 22 16.148 22 13 C 22 10.243 19.757 8 17 8 z M 17 11 C 18.105 11 19 11.895 19 13 C 19 14.105 18.105 15 17 15 C 15.895 15 15 14.105 15 13 C 15 11.895 15.895 11 17 11 z"/>
</svg>
