<?xml version="1.0"?>
<svg xmlns="http://www.w3.org/2000/svg" viewBox="0 0 24 24">
    <path d="M 23.101562 2.8242188 L 21.853516 3.0117188 C 19.32465 3.3883583 17.629473 4.3535887 16.583984 5.2558594 C 15.899138 5.8468914 15.820844 6.1061966 15.607422 6.4492188 C 15.116879 6.3345421 13.84241 6 12 6 C 10.182514 6 8.959422 6.3231868 8.4414062 6.4433594 C 8.2096883 6.18171 7.9003164 5.877574 7.4238281 5.5644531 C 6.388421 4.8840427 4.7134623 4.214577 2.0800781 4.0039062 L 0.64257812 3.8886719 L 1.0390625 5.2753906 C 1.3373487 6.3193924 1.7956863 9.2212397 4.9199219 10.972656 C 4.7768981 11.455918 4.5411431 12.122008 4.5117188 13.285156 C 4.0981708 14.261507 4 15.034441 4 16 C 4 17.194444 4.698667 18.125871 5.4550781 18.806641 C 6.2114892 19.487411 7 20 8 20 L 8 18 C 8 18 7.9824531 16.926281 7.6894531 16.363281 C 7.305881 15.626624 6.6595704 15.143444 6.0410156 15.046875 C 6.0856687 14.715351 6.1810801 14.416929 6.4101562 13.916016 L 6.5 13.71875 L 6.5 13.5 C 6.5 12.222222 6.9492188 10.816406 6.9492188 10.816406 L 7.2402344 9.9433594 L 6.3945312 9.5800781 C 5.2219161 9.0775288 4.5411658 8.5024407 4.1074219 7.8925781 L 5.25 6.75 C 5.706276 6.9078731 6.0772799 7.0727706 6.3261719 7.2363281 C 6.6834683 7.4711229 6.8900691 7.6802734 7.0019531 7.8125 C 7.1138372 7.9447266 7.0976563 7.9296875 7.0976562 7.9296875 L 7.4492188 8.6679688 L 8.2421875 8.4707031 C 8.2421875 8.4707031 10.166667 8 12 8 C 13.833333 8 15.757813 8.4707031 15.757812 8.4707031 L 16.558594 8.6699219 L 16.90625 7.921875 C 16.90625 7.921875 17.111113 7.4422606 17.890625 6.7695312 C 18.175203 6.5239366 18.567141 6.2778398 19.044922 6.0449219 L 20.269531 7.2695312 C 19.822832 8.1577813 19.109189 8.9356262 17.605469 9.5800781 L 16.759766 9.9433594 L 17.050781 10.816406 C 17.050781 10.816406 17.5 12.222222 17.5 13.5 L 17.5 13.736328 L 17.605469 13.947266 C 17.852822 14.441972 17.941721 14.721195 17.976562 15.041016 C 17.35258 15.128118 16.695903 15.616688 16.308594 16.363281 C 16.013594 16.932281 16 18 16 18 L 16 20 C 17 20 17.788511 19.487411 18.544922 18.806641 C 19.301333 18.125871 20 17.194444 20 16 C 20 15.071366 19.942084 14.282264 19.488281 13.279297 C 19.458303 12.124815 19.225288 11.46544 19.082031 10.980469 C 20.550547 10.176615 21.601843 9.159971 22.142578 8.015625 C 22.775393 6.6764112 22.895139 5.2954389 22.996094 4.0839844 L 23.101562 2.8242188 z M 9 13 A 1 1 0 0 0 8 14 A 1 1 0 0 0 9 15 A 1 1 0 0 0 10 14 A 1 1 0 0 0 9 13 z M 15 13 A 1 1 0 0 0 14 14 A 1 1 0 0 0 15 15 A 1 1 0 0 0 16 14 A 1 1 0 0 0 15 13 z M 12 15 A 1 0.5 0 0 0 11 15.5 A 1 0.5 0 0 0 12 16 A 1 0.5 0 0 0 13 15.5 A 1 0.5 0 0 0 12 15 z"/>
</svg>
