<?xml version="1.0"?>
<svg xmlns="http://www.w3.org/2000/svg" viewBox="0 0 24 24">
    <path d="M 12 2 C 6.83 2 2.5507812 5.96 2.0507812 11 L 9.1796875 11 C 9.5996875 9.84 10.7 9 12 9 C 13.3 9 14.400313 9.84 14.820312 11 L 21.949219 11 C 21.449219 5.96 17.17 2 12 2 z M 12 11 A 1 1 0 0 0 11 12 A 1 1 0 0 0 12 13 A 1 1 0 0 0 13 12 A 1 1 0 0 0 12 11 z M 2.0507812 13 C 2.5507813 18.04 6.83 22 12 22 C 17.17 22 21.449219 18.04 21.949219 13 L 14.820312 13 C 14.400313 14.16 13.3 15 12 15 C 10.7 15 9.5996875 14.16 9.1796875 13 L 2.0507812 13 z"/>
</svg>
