<?xml version="1.0"?>
<svg xmlns="http://www.w3.org/2000/svg" viewBox="0 0 24 24">
    <path d="M 20 2 A 2 2 0 0 0 18.035156 3.625 L 14.46875 4.6445312 A 2 2 0 0 0 13 4 A 2 2 0 0 0 11 6 A 2 2 0 0 0 12.994141 8 L 16.398438 14.806641 A 2 2 0 0 0 16.339844 14.884766 L 11.880859 14.328125 A 2 2 0 0 0 10 13 A 2 2 0 0 0 8 15 A 2 2 0 0 0 8.0527344 15.451172 L 4.7949219 18.166016 A 2 2 0 0 0 4 18 A 2 2 0 0 0 2 20 A 2 2 0 0 0 4 22 A 2 2 0 0 0 6 20 A 2 2 0 0 0 5.9472656 19.548828 L 9.2050781 16.833984 A 2 2 0 0 0 10 17 A 2 2 0 0 0 11.660156 16.115234 L 16.119141 16.671875 A 2 2 0 0 0 18 18 A 2 2 0 0 0 20 16 A 2 2 0 0 0 18.005859 14 L 14.601562 7.1933594 A 2 2 0 0 0 14.964844 6.375 L 18.53125 5.3554688 A 2 2 0 0 0 20 6 A 2 2 0 0 0 22 4 A 2 2 0 0 0 20 2 z"/>
</svg>
