<?xml version="1.0"?>
<svg xmlns="http://www.w3.org/2000/svg" viewBox="0 0 24 24">
    <path d="M 19.5 3 C 18.122 3 17 4.121 17 5.5 C 17 6.879 18.122 8 19.5 8 C 20.878 8 22 6.879 22 5.5 C 22 4.121 20.878 3 19.5 3 z M 11.5 5 C 9.57 5 8 6.57 8 8.5 C 8 10.43 9.57 12 11.5 12 C 13.43 12 15 10.43 15 8.5 C 15 6.57 13.43 5 11.5 5 z M 6.7636719 10.001953 C 6.3254844 10.018781 5.371 10.131703 4.75 10.751953 C 3.922 11.579953 4.0019531 12.998047 4.0019531 12.998047 C 4.0019531 12.998047 5.4200469 13.077 6.2480469 12.25 C 7.0760469 11.423 6.9980469 10.001953 6.9980469 10.001953 C 6.9980469 10.001953 6.9097344 9.9963437 6.7636719 10.001953 z M 11.5 14 C 8.514 14 4 15.795 4 18.5 L 4 21 L 19 21 L 19 18.5 C 19 15.795 14.486 14 11.5 14 z"/>
</svg>
