<?xml version="1.0"?>
<svg xmlns="http://www.w3.org/2000/svg" viewBox="0 0 24 24">
    <path style="line-height:normal;text-indent:0;text-align:start;text-decoration-line:none;text-decoration-style:solid;text-decoration-color:#000;text-transform:none;block-progression:tb;isolation:auto;mix-blend-mode:normal" d="M 3 3 L 3 15 L 5 15 L 5 21 L 15 21 L 15 15 L 17 15 L 17 3 L 15 3 L 15 5 L 5 5 L 5 3 L 3 3 z M 19 3 L 19 13 L 21 13 L 21 3 L 19 3 z M 5 7 L 7 7 L 7 9 L 5 9 L 5 7 z M 9 7 L 11 7 L 11 9 L 9 9 L 9 7 z M 13 7 L 15 7 L 15 9 L 13 9 L 13 7 z M 5 11 L 7 11 L 7 13 L 5 13 L 5 11 z M 9 11 L 11 11 L 11 13 L 9 13 L 9 11 z M 13 11 L 15 11 L 15 13 L 13 13 L 13 11 z M 7 15 L 8 15 L 8 19 L 7 19 L 7 15 z M 10 15 L 13 15 L 13 19 L 10 19 L 10 15 z" font-weight="400" font-family="sans-serif" white-space="normal" overflow="visible"/>
</svg>
