<?xml version="1.0"?>
<svg xmlns="http://www.w3.org/2000/svg" viewBox="0 0 24 24">
    <path d="M 19.5 2 C 17.015 2 15 4.015 15 6.5 C 15 9.875 19.5 14.375 19.5 14.375 C 19.5 14.375 24 9.875 24 6.5 C 24 4.015 21.985 2 19.5 2 z M 2 4 L 2 5.4355469 L 12 11.726562 L 14.103516 10.412109 C 13.460516 9.1481094 13 7.795 13 6.5 C 13 5.614 13.179953 4.77 13.501953 4 L 2 4 z M 19.5 5 C 20.328 5 21 5.672 21 6.5 C 21 7.328 20.328 8 19.5 8 C 18.672 8 18 7.328 18 6.5 C 18 5.672 18.672 5 19.5 5 z M 2 7.734375 L 2 20 L 22 20 L 22 14.609375 C 21.465 15.228375 21.050062 15.653062 20.914062 15.789062 L 19.5 17.203125 L 18.085938 15.789062 C 17.805937 15.509063 16.360078 14.021172 15.080078 12.076172 L 12 14 L 2 7.734375 z"/>
</svg>
