<?xml version="1.0"?>
<svg xmlns="http://www.w3.org/2000/svg" viewBox="0 0 24 24">
    <path style="line-height:normal;text-indent:0;text-align:start;text-decoration-line:none;text-decoration-style:solid;text-decoration-color:#000;text-transform:none;block-progression:tb;isolation:auto;mix-blend-mode:normal" d="M 6 3 C 4.2777778 3 2.6835938 3.5507812 2.6835938 3.5507812 L 1.1894531 4.0488281 L 2.2753906 5.1894531 C 2.9451269 5.8924545 3.3208957 7.1134803 3.8164062 8.3339844 C 4.0641616 8.9442364 4.3478147 9.5640738 4.8515625 10.091797 C 5.3553103 10.61952 6.1319495 10.99459 6.9960938 10.998047 C 7.5820856 11.000347 7.9923791 10.809171 8.4472656 10.582031 C 8.7722773 10.419742 9.0771741 10.215352 9.3652344 9.9863281 C 10.244277 10.558845 11 11.12229 11 13 L 5 13 L 5 15 L 15.996094 15 L 15.636719 17 L 6.390625 17 L 7.1464844 21 L 16.865234 21 L 17.980469 15 L 19 15 L 19 13 L 13 13 C 13 11.789345 13.888193 10.915808 14.773438 10.101562 C 15.021665 10.282631 15.280773 10.446232 15.552734 10.582031 C 16.007621 10.809171 16.417914 11.000391 17.003906 10.998047 C 17.86805 10.994547 18.64469 10.61952 19.148438 10.091797 C 19.652185 9.5640738 19.935838 8.9442364 20.183594 8.3339844 C 20.679104 7.1134803 21.054873 5.8924545 21.724609 5.1894531 L 22.810547 4.0488281 L 21.316406 3.5507812 C 21.316406 3.5507812 19.722222 3 18 3 C 16.833333 3 15.658659 3.2757379 14.695312 3.9179688 C 13.731967 4.5601996 13 5.6666667 13 7 C 13 7.6170652 13.172258 8.1318553 13.404297 8.5605469 C 12.99348 8.9175351 12.521324 9.3829977 12.09375 9.9550781 C 11.645945 9.2842628 11.117427 8.7973927 10.654297 8.4433594 C 10.854946 8.0380784 11 7.5623648 11 7 C 11 5.6666667 10.268034 4.5601996 9.3046875 3.9179688 C 8.3413413 3.2757379 7.1666667 3 6 3 z" font-weight="400" font-family="sans-serif" white-space="normal" overflow="visible"/>
</svg>
