<?xml version="1.0"?>
<svg xmlns="http://www.w3.org/2000/svg" viewBox="0 0 24 24">
    <path d="M8.854,19c0.486-0.726,0.734-1.685,0.734-2.888L9.53,13.75H14V12H9.424L9.312,8.279c0-1.009,0.272-1.825,0.815-2.447 C10.671,5.21,11.381,4.9,12.259,4.9c0.927,0,1.656,0.251,2.187,0.752c0.531,0.503,0.796,1.187,0.796,2.052v0.295h2.393l0.001-0.295 c0-1.427-0.464-2.568-1.392-3.422S14.059,3,12.471,3C10.8,3,9.452,3.479,8.428,4.438C7.404,5.398,6.893,6.68,6.893,8.284L7.004,12H5 v1.75h2.081l0.088,2.374v0.097c-0.017,0.774-0.13,1.425-0.338,1.953C6.662,18.6,6.45,18.871,6.2,19H5v2h13v-2H8.854z"/>
</svg>
