<?xml version="1.0"?>
<svg xmlns="http://www.w3.org/2000/svg" viewBox="0 0 24 24">
    <path d="M 11.982422 2 C 11.734422 2 11.490047 2.0121562 11.248047 2.0351562 C 11.092047 2.0491562 10.939156 2.0746563 10.785156 2.0976562 C 10.705156 2.1096563 10.623922 2.1188125 10.544922 2.1328125 C 10.320922 2.1738125 10.099859 2.2251563 9.8808594 2.2851562 L 9.8789062 2.2851562 C 7.3509063 2.9741563 5.3280313 4.8723125 4.4570312 7.3203125 C 4.4460312 7.3503125 4.4367812 7.3801562 4.4257812 7.4101562 C 4.3477813 7.6371562 4.2796562 7.8694687 4.2226562 8.1054688 C 4.2086562 8.1614687 4.1926875 8.2164375 4.1796875 8.2734375 C 4.1186875 8.5504375 4.0681094 8.8301875 4.0371094 9.1171875 L 2.1445312 12.087891 C 2.1335312 12.104891 2.1300469 12.123578 2.1230469 12.142578 L 1.5761719 13 L 2.5371094 13.404297 C 2.5441094 13.409297 2.5495937 13.417875 2.5585938 13.421875 L 4 14.021484 L 4 17 L 4 19 L 5.984375 19 L 8 19 L 8 22 L 16.984375 22 L 17 22 L 17 19.240234 C 17 19.161234 17.005813 19.091625 17.007812 19.015625 C 17.003812 19.015625 16.999094 19.015625 16.996094 19.015625 C 17.002094 18.766625 17.011203 18.518875 17.033203 18.296875 C 17.041203 18.217875 17.051547 18.144359 17.060547 18.068359 C 17.088547 17.850359 17.122062 17.642219 17.164062 17.449219 C 17.176063 17.394219 17.186219 17.338156 17.199219 17.285156 C 17.320219 16.792156 17.482875 16.372 17.671875 16 L 17.664062 16 C 17.886062 15.56 18.141391 15.177781 18.400391 14.800781 L 16.806641 13.605469 C 16.362641 14.246469 15.865953 14.985 15.501953 16 L 15.453125 16.111328 C 15.279125 16.444328 15.120703 16.753875 14.970703 17.046875 C 13.877703 16.573875 11.553047 15.567531 9.9980469 14.894531 L 9.9980469 8.0117188 L 12.025391 8.0117188 L 12.332031 8.0117188 L 13.042969 6.3574219 C 13.031969 6.2414219 13.025391 6.1277188 13.025391 6.0117188 C 13.025391 5.2937188 13.227031 4.6000938 13.582031 3.9960938 C 13.619031 3.9330937 13.663125 3.8764063 13.703125 3.8164062 C 13.804125 3.6654063 13.905391 3.5139531 14.025391 3.3769531 L 14.025391 3.2988281 L 14.017578 3.2363281 L 14 3.0566406 L 14 2.3007812 L 13.914062 2.265625 L 13.912109 2.2441406 C 13.294109 2.0901406 12.650375 2 11.984375 2 L 11.982422 2 z M 16 2 L 16 4.2714844 A 2 2 0 0 0 15 6 A 2 2 0 0 0 15.099609 6.6132812 L 15.080078 6.6054688 L 13.625 10 L 12 10 L 12 12 L 12.767578 12 L 12.080078 13.605469 L 13.919922 14.394531 L 14.945312 12 L 19.054688 12 L 20.080078 14.394531 L 21.919922 13.605469 L 21.232422 12 L 22 12 L 22 10 L 20.375 10 L 18.919922 6.6054688 L 18.902344 6.6132812 A 2 2 0 0 0 19 6 A 2 2 0 0 0 18 4.2695312 L 18 2 L 16 2 z M 16.671875 7.9707031 A 2 2 0 0 0 17 8 A 2 2 0 0 0 17.328125 7.9726562 L 18.197266 10 L 15.802734 10 L 16.671875 7.9707031 z"/>
</svg>
