<?xml version="1.0"?>
<svg xmlns="http://www.w3.org/2000/svg" viewBox="0 0 24 24">
    <path d="M 12 2 A 2 2 0 0 0 10 4 A 2 2 0 0 0 12 6 A 2 2 0 0 0 14 4 A 2 2 0 0 0 12 2 z M 10.669922 7 C 9.6999219 7 8.8692187 7.690625 8.6992188 8.640625 L 7 18 L 9 18 L 9 22 L 11 22 L 11 18 L 13 18 L 13 22 L 15 22 L 15 18 L 17 18 L 15.300781 8.640625 C 15.130781 7.690625 14.300078 7 13.330078 7 L 10.669922 7 z M 11 11 C 11.58 11 12 11.550781 12 11.550781 C 12 11.550781 12.42 11 13 11 C 13.56 11 14 11.400469 14 11.980469 C 14 12.780469 13.020234 13.609375 12.740234 13.859375 C 12.430234 14.139375 12 14.5 12 14.5 C 12 14.5 11.569766 14.139375 11.259766 13.859375 C 10.979766 13.609375 10 12.780469 10 11.980469 C 10 11.400469 10.44 11 11 11 z"/>
</svg>
