<?xml version="1.0"?>
<svg xmlns="http://www.w3.org/2000/svg" viewBox="0 0 24 24">
    <path d="M 5 1 L 5 23 L 19 23 L 19 12.908203 C 21.82834 12.427922 24 9.960385 24 7 C 24 3.6981361 21.301864 1 18 1 L 5 1 z M 18 3 C 20.220984 3 22 4.7790164 22 7 C 22 9.2209836 20.220984 11 18 11 C 15.779016 11 14 9.2209836 14 7 C 14 4.7790164 15.779016 3 18 3 z M 7 4 L 12.814453 4 C 12.299831 4.8842671 12 5.9078231 12 7 C 12 9.960385 14.17166 12.427922 17 12.908203 L 17 18 L 7 18 L 7 4 z M 18.490234 4.5996094 L 16.210938 5.53125 L 16.210938 6.7773438 L 17.164062 6.4082031 L 17.164062 9.4003906 L 18.796875 9.4003906 L 18.796875 4.5996094 L 18.490234 4.5996094 z M 12 18.875 C 12.622 18.875 13.125 19.378 13.125 20 C 13.125 20.622 12.622 21.125 12 21.125 C 11.378 21.125 10.875 20.622 10.875 20 C 10.875 19.378 11.378 18.875 12 18.875 z"/>
</svg>
