<?xml version="1.0"?>
<svg xmlns="http://www.w3.org/2000/svg" viewBox="0 0 24 24">
    <path d="M 7.6152344 1.3613281 C 4.7867623 2.5284427 2.5274218 4.7874376 1.3613281 7.6171875 L 3.2109375 8.3789062 C 4.1728438 6.0446562 6.0434252 4.1738229 8.3769531 3.2109375 L 7.6152344 1.3613281 z M 12 4 C 7.589 4 4 7.589 4 12 C 4 16.411 7.589 20 12 20 C 16.411 20 20 16.411 20 12 C 20 7.589 16.411 4 12 4 z M 11 8.0253906 L 13 8.0253906 L 13 11.636719 L 14.757812 13.744141 L 13.220703 15.025391 L 11 12.361328 L 11 8.0253906 z M 20.783203 15.619141 C 19.821297 17.953391 17.950714 19.826178 15.617188 20.789062 L 16.378906 22.636719 C 19.207378 21.469604 21.466719 19.212562 22.632812 16.382812 L 20.783203 15.619141 z"/>
</svg>
