<?xml version="1.0"?>
<svg xmlns="http://www.w3.org/2000/svg" viewBox="0 0 24 24">
    <path d="M12.172,3L2,13.172L10.828,22L21,11.828V3H12.172z M16.011,10.729c-0.054-0.138-0.231-0.52-0.527-0.816 c-0.898-0.898-1.855-0.182-2.339,0.248l1.163,1.163l-0.685,0.685l-1.172-1.172l-0.559,0.559l1.172,1.172l-0.69,0.69l-1.172-1.172 c-0.243,0.255-1.323,1.309-0.288,2.344c0.354,0.354,0.685,0.502,0.838,0.559l-0.938,1.262c-0.198-0.114-0.676-0.415-1.127-0.865 c-1.751-1.751-0.766-3.679,0.185-4.629l-0.617-0.617l0.69-0.69l0.617,0.617l0.559-0.559L10.504,8.89l0.685-0.685l0.622,0.622 c0.491-0.44,2.649-2.137,4.701-0.086c0.376,0.376,0.658,0.853,0.766,1.046L16.011,10.729z"/>
</svg>
