<?xml version="1.0"?>
<svg xmlns="http://www.w3.org/2000/svg" viewBox="0 0 24 24">
    <path d="M12.172,3L2,13.172L10.828,22L21,11.828V3H12.172z M15.416,12.094l-1.228-1.228c0.893-0.892,0.654-1.412,0.495-1.571 c-0.087-0.087-0.513-0.468-1.245,0.265c-1.278,1.278,1.368,3.128-0.715,5.211c-1.513,1.513-2.959,0.474-3.207,0.282l-0.864,0.864 L8,15.266l0.864-0.864c-0.175-0.23-1.389-1.744,0.49-3.623l1.228,1.228c-1.11,1.11-0.491,1.637-0.404,1.724 c0.095,0.095,0.582,0.546,1.307-0.179c1.449-1.449-1.442-3.053,0.729-5.225c1.488-1.488,2.954-0.487,3.202-0.294l0.929-0.929 L17,7.759l-0.946,0.946C16.222,8.953,17.124,10.386,15.416,12.094z"/>
</svg>
