<?xml version="1.0"?>
<svg xmlns="http://www.w3.org/2000/svg" viewBox="0 0 24 24">
    <path style="line-height:normal;text-indent:0;text-align:start;text-decoration-line:none;text-decoration-style:solid;text-decoration-color:#000;text-transform:none;block-progression:tb;isolation:auto;mix-blend-mode:normal" d="M 6 2 L 6 3 L 6 6 L 2 6 L 2 19 L 6 19 L 6 22 L 18 22 L 18 19 L 22 19 L 22 6 L 18 6 L 18 2 L 6 2 z M 9 5 L 15 5 L 15 7 L 9 7 L 9 5 z M 4 8 L 6 8 L 6 17 L 4 17 L 4 8 z M 18 8 L 20 8 L 20 17 L 18 17 L 18 8 z M 9 9 L 15 9 L 15 11 L 9 11 L 9 9 z M 9 13 L 15 13 L 15 15 L 9 15 L 9 13 z M 9 17 L 15 17 L 15 19 L 9 19 L 9 17 z" font-weight="400" font-family="sans-serif" white-space="normal" overflow="visible"/>
</svg>
