<?xml version="1.0"?>
<svg xmlns="http://www.w3.org/2000/svg" viewBox="0 0 24 24">
    <path d="M 12 1 C 8.6761905 1 6 3.6761905 6 7 L 6 8 L 4 8 L 4 22 L 20 22 L 20 8 L 18 8 L 18 7 C 18 3.6761905 15.32381 1 12 1 z M 12 3 C 14.27619 3 16 4.7238095 16 7 L 16 8 L 8 8 L 8 7 C 8 4.7238095 9.7238095 3 12 3 z M 12 11 C 14.2 11 16 12.8 16 15 C 16 17.2 14.2 19 12 19 C 9.8 19 8 17.2 8 15 C 8 12.8 9.8 11 12 11 z M 12 13 C 10.895 13 10 13.895 10 15 C 10 16.105 10.895 17 12 17 C 13.105 17 14 16.105 14 15 C 14 14.795 13.959344 14.602016 13.902344 14.416016 C 13.744344 14.759016 13.403 15 13 15 C 12.448 15 12 14.552 12 14 C 12 13.597 12.240984 13.255656 12.583984 13.097656 C 12.397984 13.040656 12.205 13 12 13 z"/>
</svg>
