<?xml version="1.0"?>
<svg xmlns="http://www.w3.org/2000/svg" viewBox="0 0 24 24">
    <path d="M12,2C6.486,2,2,6.486,2,12s4.486,10,10,10s10-4.486,10-10S17.514,2,12,2z M7,9.5C7,8.672,7.672,8,8.5,8S10,8.672,10,9.5 S9.328,11,8.5,11S7,10.328,7,9.5z M8.447,19l-0.895-1.789l1.106-0.553l2.236,1.118L8.447,19z M16.447,17.211L15.553,19l-8-4 l0.895-1.789L12,14.987l3.553-1.776L16.447,15l-2.211,1.105L16.447,17.211z M15.5,11c-0.828,0-1.5-0.672-1.5-1.5S14.672,8,15.5,8 S17,8.672,17,9.5S16.328,11,15.5,11z"/>
</svg>
