<?xml version="1.0"?>
<svg xmlns="http://www.w3.org/2000/svg" viewBox="0 0 24 24">
    <path d="M18.933,7.783C18.978,7.521,19,7.261,19,7c0-2.757-2.243-5-5-5c-0.69,0-1.361,0.146-2.002,0.433 c-1.87-0.82-4.073-0.428-5.533,1.032C5.313,4.616,4.814,6.209,5.071,7.78C3.204,8.831,2,10.83,2,13c0,1.778,0.77,3.418,2.126,4.563 C4.627,20.121,6.866,22,9.5,22c0.876,0,1.729-0.207,2.5-0.602C12.771,21.793,13.624,22,14.5,22c2.634,0,4.873-1.879,5.374-4.437 C21.23,16.418,22,14.778,22,13C22,10.831,20.798,8.833,18.933,7.783z M13,17h-2v-2h2V17z M13,13h-2V7h2V13z"/>
</svg>
