<?xml version="1.0"?>
<svg xmlns="http://www.w3.org/2000/svg" viewBox="0 0 24 24">
    <path d="M 11 0 L 9 2 L 13 2 L 11 0 z M 16 0 L 14 2 L 18 2 L 16 0 z M 5.4160156 1.9960938 L 2.0039062 2.0136719 L 2.0136719 4.0136719 L 4.0839844 4.0039062 L 7.4003906 11.962891 L 4.8828125 17 L 10.068359 17 C 10.155359 16.301 10.331891 15.631 10.587891 15 L 8.1171875 15 L 9.1171875 13 L 11.759766 13 C 13.225766 11.173 15.474 10 18 10 C 18.438 10 18.865203 10.044328 19.283203 10.111328 L 22 4 L 6.25 4 L 5.4160156 1.9960938 z M 18 12 C 14.698136 12 12 14.698136 12 18 C 12 21.301864 14.698136 24 18 24 C 21.301864 24 24 21.301864 24 18 C 24 14.698136 21.301864 12 18 12 z M 18 14 C 20.220984 14 22 15.779016 22 18 C 22 20.220984 20.220984 22 18 22 C 15.779016 22 14 20.220984 14 18 C 14 15.779016 15.779016 14 18 14 z M 18.900391 15.199219 L 17.199219 18.099609 L 19.400391 20.300781 L 20.300781 19.300781 L 18.800781 17.900391 L 20 15.800781 L 18.900391 15.199219 z M 8 18 A 2 2 0 0 0 6 20 A 2 2 0 0 0 8 22 A 2 2 0 0 0 10 20 A 2 2 0 0 0 8 18 z"/>
</svg>
