<?xml version="1.0"?>
<svg xmlns="http://www.w3.org/2000/svg" viewBox="0 0 24 24">
    <path d="M 11 0 L 11 2.0566406 C 7.3347361 2.4216277 4.2536462 4.7611035 2.8378906 8 L 5.078125 8 C 6.3033839 5.885012 8.467233 4.3858257 11 4.0683594 L 11 6 L 12.935547 4.0644531 C 12.956718 4.0669824 12.978871 4.0657182 13 4.0683594 L 13 4 L 14 3 L 11 0 z M 16 2.8378906 L 16 5.078125 C 18.114988 6.3033839 19.614174 8.467233 19.931641 11 L 18 11 L 19.935547 12.935547 C 19.933018 12.956718 19.934282 12.978871 19.931641 13 L 20 13 L 21 14 L 24 11 L 21.943359 11 C 21.578372 7.3347361 19.238896 4.2536462 16 2.8378906 z M 3 10 L 0 13 L 2.0566406 13 C 2.4216277 16.665264 4.7611035 19.746354 8 21.162109 L 8 18.921875 C 5.885012 17.696616 4.3858257 15.532767 4.0683594 13 L 6 13 L 4.0644531 11.064453 C 4.0669824 11.043282 4.0657182 11.021129 4.0683594 11 L 4 11 L 3 10 z M 18.921875 16 C 17.696616 18.114988 15.532767 19.614174 13 19.931641 L 13 18 L 11.064453 19.935547 C 11.043282 19.933018 11.021129 19.934282 11 19.931641 L 11 20 L 10 21 L 13 24 L 13 21.943359 C 16.665264 21.578372 19.746354 19.238896 21.162109 16 L 18.921875 16 z"/>
</svg>
