<?xml version="1.0"?>
<svg xmlns="http://www.w3.org/2000/svg" viewBox="0 0 24 24">
    <path d="M14,2H4v20h16V8L14,2z M11.989,16.84c0,1.873-1.684,2.126-1.982,2.16H10v1H9v-1h0.124C8.849,18.965,7,18.78,7,16.453h1.665 c0,1.374,0.776,1.317,0.894,1.317c0.13,0,0.765-0.022,0.765-0.92c0-1.794-3.047-0.998-3.047-3.686c0-1.545,1.168-1.992,1.723-2.118 V10h1v1.019l0.135,0.003C10.418,11.072,12,11.401,12,13.515h-1.665c0-1.105-0.514-1.279-0.729-1.279 c-0.118,0-0.665,0.028-0.665,0.935C8.942,14.755,11.989,14.261,11.989,16.84z M13,9V3.5L18.5,9H13z"/>
</svg>
