<?xml version="1.0"?>
<svg xmlns="http://www.w3.org/2000/svg" viewBox="0 0 24 24">
    <path d="M 9.5 2 C 5.369709 2 2 5.369709 2 9.5 C 2 13.630291 5.369709 17 9.5 17 C 11.385768 17 13.107386 16.291317 14.427734 15.134766 L 15 15.707031 L 15 17 L 20 22 L 22 20 L 17 15 L 15.707031 15 L 15.134766 14.427734 C 16.291317 13.107386 17 11.385768 17 9.5 C 17 5.369709 13.630291 2 9.5 2 z M 9.2382812 4.0117188 L 9.2382812 5.0175781 C 8.9292812 5.0565781 7.1972656 5.3817031 7.1972656 7.4707031 C 7.1972656 10.518703 10.353516 9.6163906 10.353516 11.650391 C 10.353516 12.668391 9.6945469 12.693359 9.5605469 12.693359 C 9.4385469 12.693359 8.6347656 12.757219 8.6347656 11.199219 L 6.9101562 11.199219 C 6.9101563 13.838219 8.824375 14.048891 9.109375 14.087891 L 9.109375 14.980469 C 6.2447482 14.780949 4 12.417506 4 9.5 C 4 6.5389431 6.3124291 4.148102 9.2382812 4.0117188 z M 10.158203 4.0410156 C 12.893943 4.3643316 15 6.6738117 15 9.5 C 15 12.372671 12.824858 14.712868 10.023438 14.974609 L 10.023438 14.087891 C 10.332438 14.048891 12.076172 13.762672 12.076172 11.638672 C 12.076172 8.7136719 8.920875 9.2735156 8.921875 7.4785156 C 8.921875 6.4505156 9.420375 6.4179688 9.609375 6.4179688 C 9.851375 6.4179687 10.365234 6.6141875 10.365234 7.8671875 L 12.089844 7.8671875 C 12.089844 5.4691875 10.450203 5.0970156 10.158203 5.0410156 L 10.158203 4.0410156 z"/>
</svg>
