<?xml version="1.0"?>
<svg xmlns="http://www.w3.org/2000/svg" viewBox="0 0 24 24">
    <path d="M 3 3 L 3 21 L 10 21 L 10 19 L 5 19 L 5 8 L 19 8 L 19 9 L 21 9 L 21 3 L 3 3 z M 7 11 L 7 13 L 9 13 L 9 11 L 7 11 z M 14 11 L 14 19 L 12 19 L 12 21 C 12 22.654 13.346 24 15 24 L 20 24 L 21 24 C 22.654 24 24 22.654 24 21 L 24 11 L 14 11 z M 16 13 L 22 13 L 22 21 C 22 21.546 21.558672 21.988094 21.013672 21.996094 L 21.013672 21.986328 C 20.480672 21.955328 20.008 21.550672 20 21.013672 L 20 19 L 16 19 L 16 13 z M 7 15 L 7 17 L 9 17 L 9 15 L 7 15 z"/>
</svg>
