<?xml version="1.0"?>
<svg xmlns="http://www.w3.org/2000/svg" viewBox="0 0 24 24">
    <path style="line-height:normal;text-indent:0;text-align:start;text-decoration-line:none;text-decoration-style:solid;text-decoration-color:#000;text-transform:none;block-progression:tb;isolation:auto;mix-blend-mode:normal" d="M 9 5 L 9 7 L 10 7 L 10 9.3222656 L 6.3398438 10.787109 L 3.5 7 L 1 7 L 2.5 18 L 18.302734 18 C 19.290568 18 20.223335 17.661967 21 17.115234 L 21 19 L 23 19 L 23 13.503906 L 23 8 L 21 8 L 21 9.8085938 C 20.257515 9.2869942 19.395247 9 18.5 9 L 18 9 L 18 7 L 19 7 L 19 5 L 9 5 z M 12 7 L 16 7 L 16 10 L 16 11 L 12 11 L 12 10 L 12 7 z" font-weight="400" font-family="sans-serif" white-space="normal" overflow="visible"/>
</svg>
