<?xml version="1.0"?>
<svg xmlns="http://www.w3.org/2000/svg" viewBox="0 0 24 24">
    <path d="M 3 3 L 3 21 L 10.587891 21 C 10.331891 20.369 10.155359 19.699 10.068359 19 L 5 19 L 5 8 L 19 8 L 19 10.068359 C 19.699 10.155359 20.369 10.331891 21 10.587891 L 21 3 L 3 3 z M 7 11 L 7 13 L 9 13 L 9 11 L 7 11 z M 11 11 L 11 13 L 11.759766 13 C 12.410766 12.189 13.214859 11.507 14.130859 11 L 11 11 z M 18 12 C 14.7 12 12 14.7 12 18 C 12 21.3 14.7 24 18 24 C 21.3 24 24 21.3 24 18 C 24 14.7 21.3 12 18 12 z M 18 14 C 20.2 14 22 15.8 22 18 C 22 20.2 20.2 22 18 22 C 15.8 22 14 20.2 14 18 C 14 15.8 15.8 14 18 14 z M 7 15 L 7 17 L 9 17 L 9 15 L 7 15 z M 18.427734 15.117188 L 16.828125 18.138672 L 18.925781 20.236328 L 19.986328 19.175781 L 18.671875 17.861328 L 19.753906 15.818359 L 18.427734 15.117188 z"/>
</svg>
