<?xml version="1.0"?>
<svg xmlns="http://www.w3.org/2000/svg" viewBox="0 0 24 24">
    <path d="M 12 2 L 7 6 L 9 6 L 9 10 L 11 10 L 11 8 L 13 8 L 13 10 L 15 10 L 15 6 L 17 6 L 12 2 z M 2 6 L 2 14.314453 L 6 18.314453 L 6 21 L 11 21 L 10.998047 15.962891 L 5.5859375 10.347656 C 4.8049375 11.128656 4.8049375 12.394781 5.5859375 13.175781 L 7.3632812 15.021484 C 7.5582813 15.216484 7.5582813 15.533516 7.3632812 15.728516 C 7.1682812 15.923516 6.85125 15.923516 6.65625 15.728516 L 3.9960938 13.015625 C 3.9960937 13.009625 4 13.006 4 13 L 4 6 L 2 6 z M 20 6 L 20 13 C 20 13.006 20.003906 13.009625 20.003906 13.015625 L 17.34375 15.728516 C 17.14875 15.923516 16.831719 15.923516 16.636719 15.728516 C 16.441719 15.533516 16.441719 15.216484 16.636719 15.021484 L 18.414062 13.175781 C 19.195062 12.394781 19.195062 11.128656 18.414062 10.347656 L 13.001953 15.962891 L 13 21 L 18 21 L 18 18.314453 L 22 14.314453 L 22 6 L 20 6 z"/>
</svg>
