<?xml version="1.0"?>
<svg xmlns="http://www.w3.org/2000/svg" viewBox="0 0 24 24">
    <path d="M 3 3 L 3 21 L 10.587891 21 C 10.331891 20.369 10.155359 19.699 10.068359 19 L 5 19 L 5 8 L 19 8 L 19 10.068359 C 19.699 10.155359 20.369 10.331891 21 10.587891 L 21 3 L 3 3 z M 7 11 L 7 13 L 9 13 L 9 11 L 7 11 z M 11 11 L 11 13 L 11.759766 13 C 12.410766 12.189 13.215859 11.507 14.130859 11 L 11 11 z M 18 12 L 18 14 C 20.2 14 22 15.8 22 18 C 22 20.2 20.2 22 18 22 C 15.892 22 14.170344 20.342531 14.027344 18.269531 L 12.210938 16.453125 C 12.078937 16.947125 12 17.465 12 18 C 12 21.3 14.7 24 18 24 C 21.3 24 24 21.3 24 18 C 24 14.7 21.3 12 18 12 z M 14.515625 13.101562 L 13.101562 14.515625 L 17.292969 18.707031 C 17.487969 18.902031 17.744 19 18 19 C 18.256 19 18.512031 18.902031 18.707031 18.707031 C 19.098031 18.316031 19.098031 17.683969 18.707031 17.292969 L 14.515625 13.101562 z M 7 15 L 7 17 L 9 17 L 9 15 L 7 15 z"/>
</svg>
