<?xml version="1.0"?>
<svg xmlns="http://www.w3.org/2000/svg" viewBox="0 0 24 24">
    <path d="M 4 2 L 4 9 L 2 9 L 2 18 L 4 18 L 4 22 L 20 22 L 20 7 L 15 2 L 4 2 z M 6 4 L 14 4 L 14 8 L 18 8 L 18 20 L 6 20 L 6 18 L 13 18 L 13 9 L 6 9 L 6 4 z M 4 11 L 5.5 11 C 6.328 11 7 11.672 7 12.5 C 7 13.328 6.328 14 5.5 14 L 5 14 L 5 16 L 4 16 L 4 11 z M 9.4902344 11 C 10.913234 11.041 11 12.282906 11 12.503906 L 10.03125 12.503906 C 10.03125 12.400906 10.048656 11.806641 9.4726562 11.806641 C 9.2976562 11.806641 8.9055469 11.884187 8.9355469 12.367188 C 8.9645469 12.810188 9.5472969 13.019406 9.6542969 13.066406 C 9.8782969 13.148406 10.987094 13.642391 10.996094 14.650391 C 10.998094 14.864391 10.942766 15.985 9.5097656 16 C 7.9507656 16.017 7.8457031 14.675437 7.8457031 14.398438 L 8.8203125 14.398438 C 8.8203125 14.545438 8.8327656 15.256172 9.5097656 15.201172 C 9.9167656 15.167172 10.005531 14.87425 10.019531 14.65625 C 10.042531 14.28925 9.6922656 14.068625 9.3222656 13.890625 C 8.8022656 13.640625 7.9798437 13.333375 7.9648438 12.359375 C 7.9518438 11.482375 8.5962344 10.975 9.4902344 11 z M 5 12 L 5 13 L 5.5 13 C 5.776 13 6 12.776 6 12.5 C 6 12.224 5.776 12 5.5 12 L 5 12 z"/>
</svg>
