<?xml version="1.0"?>
<svg xmlns="http://www.w3.org/2000/svg" viewBox="0 0 24 24">
    <path d="M 3 4 C 1.9 4 1 4.9 1 6 L 1 7 L 0 7 L 0 9 L 1 9 L 1 15 L 0 15 L 0 17 L 1 17 L 1 18 C 1 19.1 1.9 20 3 20 L 20 20 C 21.1 20 22 19.1 22 18 L 22 17 L 23 17 L 23 15 L 22 15 L 22 9 L 23 9 L 23 7 L 22 7 L 22 6 C 22 4.9 21.1 4 20 4 L 3 4 z M 3 6 L 20 6 L 20 7 L 20 9 L 20 15 L 20 17 L 20 18 L 3 18 L 3 17 L 3 15 L 3 9 L 3 7 L 3 6 z M 5 7 C 4.448 7 4 7.448 4 8 L 4 17 L 5 17 L 5 13 L 6 13 C 6.552 13 7 12.552 7 12 L 7 8 C 7 7.448 6.552 7 6 7 L 5 7 z M 8 7 L 8 16 C 8 16.552 8.448 17 9 17 L 10 17 C 10.552 17 11 16.552 11 16 L 11 7 L 10 7 L 10 16 L 9 16 L 9 7 L 8 7 z M 13 7 C 12.448 7 12 7.448 12 8 L 12 16 C 12 16.552 12.448 17 13 17 L 14 17 C 14.552 17 15 16.552 15 16 L 15 12.542969 C 15 11.990969 14.552 11.542969 14 11.542969 C 14.552 11.542969 15 11.094969 15 10.542969 L 15 8 C 15 7.448 14.552 7 14 7 L 13 7 z M 17 7 C 16.448 7 16 7.448 16 8 L 16 16 C 16 16.552 16.448 17 17 17 L 18 17 C 18.552 17 19 16.552 19 16 L 19 13 L 19 12 L 19 11 L 17 11 L 17 10 L 17 8 L 18 8 L 18 10 L 19 10 L 19 8 C 19 7.448 18.552 7 18 7 L 17 7 z M 5 8 L 6 8 L 6 12 L 5 12 L 5 8 z M 13 8 L 14 8 L 14 11 L 13 11 L 13 8 z M 13 12 L 14 12 L 14 16 L 13 16 L 13 12 z M 17 12 L 18 12 L 18 14 L 18 16 L 17 16 L 17 14 L 17 12 z"/>
</svg>
