<?xml version="1.0"?>
<svg xmlns="http://www.w3.org/2000/svg" viewBox="0 0 24 24">
    <path d="M12,2C6.5,2,2,6.5,2,12s4.5,10,10,10s10-4.5,10-10S17.5,2,12,2z M12.5,4C13.328,4,14,4.672,14,5.5S13.328,7,12.5,7 C11.672,7,11,6.328,11,5.5S11.672,4,12.5,4z M13.5,15.495V19H12v-3.027c-0.261-0.279-0.929-1.442-1.288-1.869L9.677,19H8.143 l1.859-8.921L8.67,10.744l-0.652,1.955l-1.422-0.475L7.445,9.68L10.585,8h1.222c0.613,0,1.856,0.301,2.177,1.584 c0.173,0.697,0.454,1.222,0.834,1.562c0.347,0.31,0.737,0.484,1.181,0.54v1.498c-0.815-0.065-1.567-0.37-2.182-0.921 c-0.299-0.267-0.554-0.593-0.767-0.971l-0.549,2.41L13.5,15.495z"/>
</svg>
