<?xml version="1.0"?>
<svg xmlns="http://www.w3.org/2000/svg" viewBox="0 0 24 24">
    <path d="M 9.5 2 A 1.5 1.5 0 0 0 8 3.5 A 1.5 1.5 0 0 0 9.5 5 A 1.5 1.5 0 0 0 11 3.5 A 1.5 1.5 0 0 0 9.5 2 z M 14.5 2 A 1.5 1.5 0 0 0 13 3.5 A 1.5 1.5 0 0 0 14.5 5 A 1.5 1.5 0 0 0 16 3.5 A 1.5 1.5 0 0 0 14.5 2 z M 12 6 C 6.8549859 6 2.7558594 7.0292969 2.7558594 7.0292969 L 3.2441406 8.9707031 C 3.2441406 8.9707031 7.1210141 8 12 8 C 16.878986 8 20.755859 8.9707031 20.755859 8.9707031 L 21.244141 7.0292969 C 21.244141 7.0292969 17.145014 6 12 6 z M 12 10 C 8 10 4 10.878906 4 10.878906 C 4 10.878906 2 16.009 2 19 L 2 21 L 22 21 L 22 19 C 22 16.009 20 10.878906 20 10.878906 C 20 10.878906 16 10 12 10 z"/>
</svg>
