<?xml version="1.0"?>
<svg xmlns="http://www.w3.org/2000/svg" viewBox="0 0 24 24">
    <path style="line-height:normal;text-indent:0;text-align:start;text-decoration-line:none;text-decoration-style:solid;text-decoration-color:#000;text-transform:none;block-progression:tb;isolation:auto;mix-blend-mode:normal" d="M 12 4 L 12 6 L 14.382812 6 L 14.585938 6.4082031 C 13.99343 6.7445296 13.471723 7.2355007 12.990234 7.6972656 C 12.322234 8.3372656 11.634 9 11 9 C 10.173 9 9.7850312 8.716125 9.0820312 8.203125 C 7.8090312 7.272125 6.065 6 1 6 L 1 8 C 1.7673597 8 2.4213416 8.0369879 3.0195312 8.0917969 L 4.2695312 10 L 2 10 L 2 12 L 5.5800781 12 L 8.8554688 17 L 17 17 C 17 18.64501 18.35499 20 20 20 C 21.64501 20 23 18.64501 23 17 C 23 15.560616 21.962944 14.342391 20.601562 14.060547 L 18.765625 11 L 23 11 C 23 11 21.165635 6.4451464 16.638672 6.0410156 L 15.617188 4 L 12 4 z M 16.949219 11.857422 L 18.496094 14.435547 C 18.235251 14.592456 17.990901 14.774956 17.787109 15 L 16.046875 15 C 16.180166 13.596519 16.576476 12.569859 16.949219 11.857422 z M 4 14 C 2.3549904 14 1 15.35499 1 17 C 1 18.64501 2.3549904 20 4 20 C 5.6450096 20 7 18.64501 7 17 C 7 15.35499 5.6450096 14 4 14 z M 4 16 C 4.5641294 16 5 16.435871 5 17 C 5 17.564129 4.5641294 18 4 18 C 3.4358706 18 3 17.564129 3 17 C 3 16.435871 3.4358706 16 4 16 z M 19.894531 16.019531 A 1.0001 1.0001 0 0 0 20.119141 16.023438 C 20.621114 16.082696 21 16.478489 21 17 C 21 17.564129 20.564129 18 20 18 C 19.435871 18 19 17.564129 19 17 C 19 16.473517 19.385303 16.072545 19.894531 16.019531 z"/>
</svg>
