<?xml version="1.0"?>
<svg xmlns="http://www.w3.org/2000/svg" viewBox="0 0 24 24">
    <path d="M 8 4 C 3.589 4 4.980738e-17 7.589 0 12 C 0 16.411 3.589 20 8 20 C 9.4586423 20 10.82314 19.600882 12.001953 18.916016 C 13.180289 19.600641 14.543722 20 16 20 C 20.406433 20 24 16.406433 24 12 C 24 7.5935666 20.406433 4 16 4 C 14.543722 4 13.180289 4.3993587 12.001953 5.0839844 C 10.82314 4.3991178 9.4586423 4 8 4 z M 16 6 C 19.325553 6 22 8.6744469 22 12 C 22 15.325553 19.325553 18 16 18 C 15.198837 18 14.437529 17.840744 13.740234 17.558594 C 15.135741 16.117848 16 14.159292 16 12 C 16 9.8407078 15.135741 7.8821521 13.740234 6.4414062 C 14.437529 6.1592562 15.198837 6 16 6 z"/>
</svg>
