<?xml version="1.0"?>
<svg xmlns="http://www.w3.org/2000/svg" viewBox="0 0 24 24">
    <path d="M 8 4 C 3.5935666 4 0 7.5935666 0 12 C 0 16.406433 3.5935666 20 8 20 C 9.4562782 20 10.819711 19.600641 11.998047 18.916016 C 13.17686 19.600882 14.541358 20 16 20 C 20.411 20 24 16.411 24 12 C 24 7.589 20.411 4 16 4 C 14.541358 4 13.17686 4.3991178 11.998047 5.0839844 C 10.819711 4.3993587 9.4562782 4 8 4 z M 8 6 C 8.8011635 6 9.5624708 6.1592562 10.259766 6.4414062 C 8.8642594 7.8821521 8 9.8407078 8 12 C 8 14.159292 8.8642594 16.117848 10.259766 17.558594 C 9.5624708 17.840744 8.8011635 18 8 18 C 4.6744469 18 2 15.325553 2 12 C 2 8.6744469 4.6744469 6 8 6 z"/>
</svg>
