<?xml version="1.0"?>
<svg xmlns="http://www.w3.org/2000/svg" viewBox="0 0 24 24">
    <path style="line-height:normal;text-indent:0;text-align:start;text-decoration-line:none;text-decoration-style:solid;text-decoration-color:#000;text-transform:none;block-progression:tb;isolation:auto;mix-blend-mode:normal" d="M 3 4 L 3 6 L 5 6 L 5 4 L 3 4 z M 7 4 L 7 6 L 21 6 L 21 4 L 7 4 z M 3 8 L 3 10 L 5 10 L 5 8 L 3 8 z M 7 8 L 7 10 L 21 10 L 21 8 L 7 8 z M 3 14 L 3 16 L 5 16 L 5 14 L 3 14 z M 7 14 L 7 16 L 21 16 L 21 14 L 7 14 z M 3 18 L 3 20 L 5 20 L 5 18 L 3 18 z M 7 18 L 7 20 L 21 20 L 21 18 L 7 18 z"/>
</svg>
