<?xml version="1.0"?>
<svg xmlns="http://www.w3.org/2000/svg" viewBox="0 0 24 24">
    <path d="M 5 0 C 1.912 0 0 2.595 0 5 L 0 7 L 2.6425781 7 C 2.2695781 7.644 2 8.293 2 9 L 2 12 C 2 17.523 6.477 22 12 22 C 17.523 22 22 17.523 22 12 C 22 6.477 17.523 2 12 2 C 11.051683 2 10.138071 2.1406141 9.2695312 2.3886719 C 8.4523398 1.0190911 6.9798837 0 5 0 z M 5 2 C 6.878 2 8 3.525 8 5 C 8 6.422 6 8.014 6 9 L 4 9 C 4 8.025 6 6.054 6 5 C 6 4.99 5.989 4 5 4 C 4.174 4 4 4.835 4 5 L 2 5 C 2 3.79 2.954 2 5 2 z M 10.5 8 C 11.33 8 12 8.67 12 9.5 C 12 10.33 11.33 11 10.5 11 C 9.67 11 9 10.33 9 9.5 C 9 8.67 9.67 8 10.5 8 z M 17.5 8 C 18.33 8 19 8.67 19 9.5 C 19 10.33 18.33 11 17.5 11 C 16.67 11 16 10.33 16 9.5 C 16 8.67 16.67 8 17.5 8 z M 4 11 L 6 11 L 6 13 L 4 13 L 4 12 L 4 11 z M 17 13 L 17 16 L 10.078125 17 C 11.462125 14.611 14.041 13 17 13 z"/>
</svg>
