<?xml version="1.0"?>
<svg xmlns="http://www.w3.org/2000/svg" viewBox="0 0 24 24">
    <path d="M 6.9003906 2.5 C 4.6003906 4.2 3 6.9 3 10 C 3 12.5 4.1007813 14.8 5.8007812 16.5 L 6.8007812 14.699219 C 5.7007813 13.399219 5 11.8 5 10 C 5 7.7 6.2003906 5.6007813 7.9003906 4.3007812 L 6.9003906 2.5 z M 17.099609 2.5996094 L 16.099609 4.4003906 C 17.799609 5.6003906 19 7.7 19 10 C 19 11.8 18.299219 13.399609 17.199219 14.599609 L 18.199219 16.400391 C 19.899219 14.800391 21 12.500391 21 9.9003906 C 21 6.9003906 19.399609 4.1996094 17.099609 2.5996094 z M 8.9003906 6.0996094 C 7.7003906 6.9996094 7 8.4 7 10 C 7 11 7.3007813 11.899219 7.8007812 12.699219 L 9 10.5 L 9 10 C 9 9.2 9.3003906 8.4003906 9.9003906 7.9003906 L 8.9003906 6.0996094 z M 15.099609 6.0996094 L 14.099609 7.9003906 C 14.699609 8.4003906 15 9.2 15 10 L 15 10.5 L 16.199219 12.800781 C 16.699219 11.900781 17 11 17 10 C 17 8.4 16.299609 6.9996094 15.099609 6.0996094 z M 11 10 L 8 22 L 10 22 L 12 14 L 14 22 L 16 22 L 13 10 L 11 10 z"/>
</svg>
