<?xml version="1.0"?>
<svg xmlns="http://www.w3.org/2000/svg" viewBox="0 0 24 24">
    <path d="M 6 4 C 3.8026661 4 2 5.8026661 2 8 L 2 18 L 6.0507812 18 C 6.2981765 19.685411 7.7500665 21 9.5 21 C 10.476906 21 11.362701 20.589454 12 19.935547 C 12.637299 20.589454 13.523094 21 14.5 21 C 16.249933 21 17.701823 19.685411 17.949219 18 L 21 18 L 22 18 L 22 8 C 22 5.8026661 20.197334 4 18 4 L 6 4 z M 6 6 L 8 6 L 8 11 L 4 11 L 4 8 C 4 6.8833339 4.8833339 6 6 6 z M 10 6 L 14 6 L 14 11 L 10 11 L 10 6 z M 16 6 L 18 6 C 19.116666 6 20 6.8833339 20 8 L 20 11 L 16 11 L 16 6 z M 8.0898438 18 L 10.910156 18 C 10.707356 18.586085 10.163014 19 9.5 19 C 8.836986 19 8.2926438 18.586085 8.0898438 18 z M 13.089844 18 L 15.910156 18 C 15.707356 18.586085 15.163014 19 14.5 19 C 13.836986 19 13.292644 18.586085 13.089844 18 z"/>
</svg>
