<?xml version="1.0"?>
<svg xmlns="http://www.w3.org/2000/svg" viewBox="0 0 24 24">
    <path d="M 12 -0.0546875 L 2.6835938 3.0507812 L 3.3164062 4.9492188 L 12 2.0546875 L 20.683594 4.9492188 L 21.316406 3.0507812 L 12 -0.0546875 z M 7 5 L 7 7 L 6.5 7 L 4 7 L 4 21 L 7 21 L 7 23 L 9 23 L 9 21 L 15 21 L 15 23 L 17 23 L 17 21 L 20 21 L 20 7 L 17.5 7 L 17 7 L 17 5 L 7 5 z M 6 10 L 18 10 L 18 11 L 18 14 L 6 14 L 6 11 L 6 10 z M 12 16 C 12.55 16 13 16.45 13 17 C 13 17.55 12.55 18 12 18 C 11.45 18 11 17.55 11 17 C 11 16.45 11.45 16 12 16 z"/>
</svg>
