<?xml version="1.0"?>
<svg xmlns="http://www.w3.org/2000/svg" viewBox="0 0 24 24">
    <path style="line-height:normal;text-indent:0;text-align:start;text-decoration-line:none;text-decoration-style:solid;text-decoration-color:#000;text-transform:none;block-progression:tb;isolation:auto;mix-blend-mode:normal" d="M 5 2 L 5 9 L 1 9 L 1 18 L 5 18 L 5 22 L 21 22 L 21 7 L 16 2 L 5 2 z M 7 4 L 15 4 L 15 8 L 19 8 L 19 20 L 7 20 L 7 18 L 17 18 L 17 9 L 7 9 L 7 4 z M 3 11 L 4 11 L 4.5 11 C 5.328 11 6 11.672 6 12.5 C 6 13.148 5.5877187 13.694297 5.0117188 13.904297 L 6.0585938 16 L 4.9414062 16 L 4 14.117188 L 4 16 L 3 16 L 3 14 L 3 11 z M 8.3457031 11 L 9.6464844 11 L 11 16 L 9.9375 16 L 9.6796875 15 L 8.3085938 15 L 8.0527344 16 L 7 16 L 8.3457031 11 z M 12 11 L 13 11 L 13.5 11 C 14.328 11 15 11.672 15 12.5 C 15 13.148 14.587719 13.694297 14.011719 13.904297 L 15.058594 16 L 13.941406 16 L 13 14.117188 L 13 16 L 12 16 L 12 14 L 12 11 z M 4 12 L 4 13 L 4.5 13 C 4.776 13 5 12.776 5 12.5 C 5 12.224 4.776 12 4.5 12 L 4 12 z M 13 12 L 13 13 L 13.5 13 C 13.776 13 14 12.776 14 12.5 C 14 12.224 13.776 12 13.5 12 L 13 12 z M 8.9941406 12.353516 L 8.5683594 14 L 9.4199219 14 L 8.9941406 12.353516 z" font-weight="400" font-family="sans-serif" white-space="normal" overflow="visible"/>
</svg>
