<?xml version="1.0"?>
<svg xmlns="http://www.w3.org/2000/svg" viewBox="0 0 24 24">
    <path style="line-height:normal;text-indent:0;text-align:start;text-decoration-line:none;text-decoration-style:solid;text-decoration-color:#000;text-transform:none;block-progression:tb;isolation:auto;mix-blend-mode:normal" d="M 4 2 L 4 9 L 2 9 L 2 18 L 4 18 L 4 22 L 20 22 L 20 18 L 20 9 L 20 7 L 15 2 L 4 2 z M 6 4 L 14 4 L 14 8 L 18 8 L 18 9 L 6 9 L 6 4 z M 4 11 L 5 11 L 5.5 11 C 6.328 11 7 11.672 7 12.5 C 7 13.148 6.5877188 13.694297 6.0117188 13.904297 L 7.0585938 16 L 5.9414062 16 L 5 14.117188 L 5 16 L 4 16 L 4 14 L 4 11 z M 9.3535156 11 L 10.654297 11 L 12 16 L 10.947266 16 L 10.691406 15 L 9.3203125 15 L 9.0625 16 L 8 16 L 9.3535156 11 z M 12 11 L 13.005859 11 L 13.482422 14.126953 L 14.070312 11 L 14.923828 11 L 15.513672 14.123047 L 15.988281 11 L 17 11 L 16.101562 15.976562 L 15.080078 15.976562 L 14.498047 13.044922 L 13.912109 15.976562 L 12.894531 15.976562 L 12 11 z M 5 12 L 5 13 L 5.5 13 C 5.776 13 6 12.776 6 12.5 C 6 12.224 5.776 12 5.5 12 L 5 12 z M 9.9921875 12.353516 L 9.5683594 14 L 10.419922 14 L 9.9921875 12.353516 z M 6 18 L 18 18 L 18 20 L 6 20 L 6 18 z" font-weight="400" font-family="sans-serif" white-space="normal" overflow="visible"/>
</svg>
