<?xml version="1.0"?>
<svg xmlns="http://www.w3.org/2000/svg" viewBox="0 0 24 24">
    <path d="M 13.003906 1 L 13.003906 11.580078 L 20.486328 4.0996094 L 19.777344 3.3925781 C 18.234344 1.8505781 16.184906 1 14.003906 1 L 13.003906 1 z M 11.003906 2.0507812 C 10.688469 2.0821563 10.376527 2.1273857 10.070312 2.1875 C 8.8447197 2.4275684 7.6996318 2.8913223 6.6796875 3.5351562 C 6.6796875 3.5351562 6.6777344 3.5371094 6.6777344 3.5371094 C 6.4235621 3.6976511 6.1754763 3.8686063 5.9375 4.0507812 C 5.9375 4.0507812 5.9355469 4.0527344 5.9355469 4.0527344 C 5.6976333 4.2349651 5.4664458 4.4303298 5.2460938 4.6328125 C 5.0258019 4.8353518 4.8146451 5.0461667 4.6132812 5.2675781 C 2.9911993 7.0455432 2 9.4090176 2 12 C 2 17.514 6.486 22 12 22 C 15.101625 22 17.877247 20.580769 19.712891 18.357422 C 20.120245 17.86403 20.481086 17.32952 20.789062 16.763672 C 20.789477 16.76291 20.790601 16.762481 20.791016 16.761719 C 20.944729 16.479118 21.084523 16.188773 21.210938 15.890625 C 21.211263 15.889859 21.212566 15.889438 21.212891 15.888672 C 21.339333 15.590241 21.451413 15.284978 21.548828 14.972656 C 21.549015 14.972059 21.548642 14.9713 21.548828 14.970703 C 21.646371 14.65777 21.730158 14.338857 21.796875 14.013672 C 21.930309 13.363301 22 12.68925 22 12 C 22 11.528588 21.966693 11.064985 21.902344 10.611328 C 21.710203 9.2509688 21.240797 7.9803125 20.560547 6.8515625 L 20.558594 6.8535156 L 13.705078 13.705078 L 17.654297 17.654297 C 16.205672 19.102922 14.2055 20 12 20 C 7.589 20 4 16.411 4 12 L 11.003906 12 L 11.003906 4.0683594 L 11.003906 2.0507812 z"/>
</svg>
