<?xml version="1.0"?>
<svg xmlns="http://www.w3.org/2000/svg" viewBox="0 0 24 24">
    <path d="M 10.5 3 C 9.119 3 8 4.119 8 5.5 C 8 6.881 9.119 8 10.5 8 C 10.672 8 10.840906 7.9822187 11.003906 7.9492188 C 11.015906 6.4442188 11.583719 5.0743437 12.511719 4.0273438 C 12.056719 3.4063438 11.328 3 10.5 3 z M 17 4 C 14.791 4 13 5.791 13 8 C 13 10.209 14.791 12 17 12 C 19.209 12 21 10.209 21 8 C 21 5.791 19.209 4 17 4 z M 6.2441406 10.865234 L 1 12.107422 L 1 19.308594 L 5 18 L 14.179688 21.212891 L 22.462891 16.783203 L 21.285156 14.267578 L 14.083984 17.570312 L 13.712891 17.082031 L 14.855469 14.578125 L 6.2441406 10.865234 z"/>
</svg>
