<?xml version="1.0"?>
<svg xmlns="http://www.w3.org/2000/svg" viewBox="0 0 24 24">
    <path d="M 5 3 L 5 13 L 2 13 L 2 21 L 22 21 L 22 13 L 19 13 L 19 3 L 17 3 L 17 4 L 15 4 L 15 3 L 13 3 L 13 4 L 11 4 L 11 3 L 9 3 L 9 4 L 7 4 L 7 3 L 5 3 z M 7 6 L 17 6 L 17 15 L 7 15 L 7 6 z M 9 8 L 9 10 L 15 10 L 15 8 L 9 8 z M 9 11 L 9 13 L 13 13 L 13 11 L 9 11 z M 5 17 L 7 17 L 7 19 L 5 19 L 5 17 z M 9 17 L 11 17 L 11 19 L 9 19 L 9 17 z M 13 17 L 15 17 L 15 19 L 13 19 L 13 17 z M 17 17 L 19 17 L 19 19 L 17 19 L 17 17 z"/>
</svg>
