<?xml version="1.0"?>
<svg xmlns="http://www.w3.org/2000/svg" viewBox="0 0 24 24">
    <path d="M 4 3 L 4 15 L 2 15 L 2 18 C 2 19.654 3.346 21 5 21 L 12.294922 21 C 12.198256 20.675736 12.124128 20.341883 12.074219 20 L 12.080078 20 C 12.033078 19.673 12 19.34 12 19 C 12 18.255039 12.127885 17.541499 12.345703 16.869141 C 12.433482 16.594675 12.534643 16.326741 12.654297 16.068359 C 12.66469 16.045927 12.672979 16.022307 12.683594 16 L 12.681641 16 C 12.848156 15.650158 13.039681 15.315002 13.259766 15 L 6 15 L 6 5 L 19 5 L 19 12 C 19.695 12 20.366 12.105922 21 12.294922 L 21 3 L 4 3 z M 8 7 L 8 9 L 10 9 L 10 7 L 8 7 z M 12 7 L 12 9 L 17 9 L 17 7 L 12 7 z M 8 11 L 8 13 L 10 13 L 10 11 L 8 11 z M 12 11 L 12 13 L 15.408203 13 C 15.903203 12.703 16.435 12.462922 17 12.294922 L 17 11 L 12 11 z M 19 14 C 16.239 14 14 16.239 14 19 C 14 21.761 16.239 24 19 24 C 21.761 24 24 21.761 24 19 C 24 16.239 21.761 14 19 14 z M 21.050781 16.650391 L 22.449219 18.050781 L 18.5 22 L 15.550781 19.050781 L 16.949219 17.650391 L 18.5 19.199219 L 21.050781 16.650391 z"/>
</svg>
