<?xml version="1.0"?>
<svg xmlns="http://www.w3.org/2000/svg" viewBox="0 0 24 24">
    <path d="M 9.453125 3 L 6.6992188 7.2949219 L 8.3808594 8.375 L 10.546875 5 L 13.457031 5 L 15.646484 8.3808594 L 14 9.3730469 L 18.117188 10.396484 L 19.138672 6.2773438 L 17.361328 7.3476562 L 14.542969 3 L 9.453125 3 z M 6.6054688 9.6308594 L 2.4667969 10.566406 L 4.1367188 11.621094 L 1.3984375 16.158203 L 4.3710938 20 L 10 20 L 10 18 L 5.3515625 18 L 3.8183594 16.019531 L 5.8300781 12.689453 L 7.5390625 13.769531 L 6.6054688 9.6308594 z M 19.923828 11.677734 L 18.191406 12.675781 L 20.152344 16.080078 L 18.744141 18 L 15 18 L 15 16 L 12 19 L 15 22 L 15 20 L 19.755859 20 L 22.537109 16.210938 L 19.923828 11.677734 z"/>
</svg>
