<?xml version="1.0"?>
<svg xmlns="http://www.w3.org/2000/svg" viewBox="0 0 24 24">
    <path style="line-height:normal;text-indent:0;text-align:start;text-decoration-line:none;text-decoration-style:solid;text-decoration-color:#000;text-transform:none;block-progression:tb;isolation:auto;mix-blend-mode:normal" d="M 9 1.8554688 L 5 4.0878906 L 5 6 L 6 6 L 6 8 L 4 8 L 4 10 L 4.8203125 10 L 2.8203125 22 L 15.179688 22 L 13.179688 10 L 14 10 L 14 8 L 12 8 L 12 6 L 13 6 L 13 4.0878906 L 9 1.8554688 z M 21 3 L 14 5 L 21 7 L 21 3 z M 6.8476562 10 L 11.152344 10 L 11.486328 12 L 6.5136719 12 L 6.8476562 10 z M 6.1816406 14 L 11.818359 14 L 12.152344 16 L 5.8476562 16 L 6.1816406 14 z M 5.5136719 18 L 12.486328 18 L 12.820312 20 L 5.1796875 20 L 5.5136719 18 z" font-weight="400" font-family="sans-serif" white-space="normal" overflow="visible"/>
</svg>
