<?xml version="1.0"?>
<svg xmlns="http://www.w3.org/2000/svg" viewBox="0 0 24 24">
    <path d="M 4 2 C 2.895 2 2 2.895 2 4 C 2 4.738 2.405 5.3756562 3 5.7226562 L 3 19 L 5 19 L 5 8.7480469 C 6.343 9.3610469 8.561 10 12 10 C 15.44 10 17.659 9.3724844 19 8.7714844 L 19 19 L 21 19 L 21 5.7226562 C 21.595 5.3756563 22 4.738 22 4 C 22 2.895 21.105 2 20 2 C 18.895 2 18 2.895 18 4 C 18 4.738 18.405 5.3756562 19 5.7226562 L 19 6.5019531 C 18.285 6.9649531 16.217 8 12 8 C 7.773 8 5.708 6.93875 5 6.46875 L 5 5.7226562 C 5.595 5.3756563 6 4.738 6 4 C 6 2.895 5.105 2 4 2 z M 9.3066406 12 L 6 22 L 18 22 L 14.693359 12 L 9.3066406 12 z"/>
</svg>
