<?xml version="1.0"?>
<svg xmlns="http://www.w3.org/2000/svg" viewBox="0 0 24 24">
    <path d="M 15 2.0234375 C 13.35 2.0234375 12 3.3734375 12 5.0234375 C 12 6.6734375 13.35 8.0234375 15 8.0234375 L 21 8.0234375 C 22.65 8.0234375 24 6.6734375 24 5.0234375 C 24 3.3724375 22.65 2.0234375 21 2.0234375 L 15 2.0234375 z M 2 4 L 2 6.6445312 L 9.5527344 11.306641 C 11.038734 12.234641 12.960219 12.236641 14.449219 11.306641 L 16.537109 10 L 15.230469 10 C 12.985469 10 10.898562 8.6137031 10.226562 6.4707031 C 9.9575625 5.6107031 9.9446094 4.7797656 10.099609 4.0097656 L 10 4 L 2 4 z M 18 4 C 18.552 4 19 4.448 19 5 C 19 5.552 18.552 6 18 6 C 17.448 6 17 5.552 17 5 C 17 4.448 17.448 4 18 4 z M 21 4 C 21.552 4 22 4.448 22 5 C 22 5.552 21.552 6 21 6 C 20.448 6 20 5.552 20 5 C 20 4.448 20.448 4 21 4 z M 15 4.0234375 C 15.552 4.0234375 16 4.4714375 16 5.0234375 C 16 5.5754375 15.552 6.0234375 15 6.0234375 C 14.448 6.0234375 14 5.5754375 14 5.0234375 C 14 4.4714375 14.448 4.0234375 15 4.0234375 z M 2 8.9941406 L 2 20 L 22 20 L 22 10 L 21 10 L 20.310547 10 L 15.507812 13.001953 C 14.442813 13.667953 13.221 14 12 14 C 10.779 14 9.5581875 13.668906 8.4921875 13.003906 L 2 8.9941406 z"/>
</svg>
