<?xml version="1.0"?>
<svg xmlns="http://www.w3.org/2000/svg" viewBox="0 0 24 24">
    <path d="M 0 5 L 0 19 L 4 19 L 4 17 L 2 17 L 2 7 L 4 7 L 4 5 L 0 5 z M 19 5 L 19 7 L 21 7 L 21 17 L 19 17 L 19 19 L 23 19 L 23 5 L 19 5 z M 3 9 L 4.4316406 12 L 3 15 L 4.7070312 15 L 5.5 13.332031 L 6.2929688 15 L 8 15 L 6.5683594 12 L 8 9 L 6.2929688 9 L 5.5 10.646484 L 4.7070312 9 L 3 9 z M 9 9 L 10.431641 12 L 9 15 L 10.707031 15 L 11.5 13.332031 L 12.292969 15 L 14 15 L 12.568359 12 L 14 9 L 12.292969 9 L 11.5 10.646484 L 10.707031 9 L 9 9 z M 15 9 L 16.431641 12 L 15 15 L 16.707031 15 L 17.5 13.332031 L 18.292969 15 L 20 15 L 18.568359 12 L 20 9 L 18.292969 9 L 17.5 10.646484 L 16.707031 9 L 15 9 z"/>
</svg>
