<?xml version="1.0"?>
<svg xmlns="http://www.w3.org/2000/svg" viewBox="0 0 24 24">
    <path style="line-height:normal;text-indent:0;text-align:start;text-decoration-line:none;text-decoration-style:solid;text-decoration-color:#000;text-transform:none;block-progression:tb;isolation:auto;mix-blend-mode:normal" d="M 18 0 C 14.698375 0 12 2.6983746 12 6 C 12 9.3016254 14.698375 12 18 12 L 18 10 C 15.779625 10 14 8.2203746 14 6 C 14 5.7224532 14.02708 5.4525647 14.080078 5.1914062 C 14.451066 3.3632973 16.057172 2 18 2 C 20.220375 2 22 3.7796254 22 6 C 22 6.8225713 21.755118 7.5825623 21.333984 8.2148438 C 21.31821 8.2385269 21.299468 8.2598805 21.283203 8.2832031 L 20 7 L 20 11 L 24 11 L 22.707031 9.7070312 C 23.513061 8.6844183 24 7.3970614 24 6 C 24 2.6983746 21.301625 0 18 0 z M 2 4 L 2 20 L 4 20 L 4 4 L 2 4 z M 5 4 L 5 20 L 9 20 L 9 4 L 5 4 z M 10 6 L 10 20 L 12 20 L 12 11.279297 C 10.759 9.8702969 10 8.026 10 6 z M 13 12.240234 L 13 20 L 16 20 L 16 13.738281 C 14.888 13.451281 13.869 12.937234 13 12.240234 z M 22 12.921875 C 21.381 13.280875 20.71 13.555281 20 13.738281 L 20 20 L 22 20 L 22 12.921875 z M 17 13.931641 L 17 20 L 19 20 L 19 13.931641 C 18.672 13.972641 18.339 14 18 14 C 17.661 14 17.328 13.972641 17 13.931641 z" font-weight="400" font-family="sans-serif" white-space="normal" overflow="visible"/>
</svg>
