<?xml version="1.0"?>
<svg xmlns="http://www.w3.org/2000/svg" viewBox="0 0 24 24">
    <path d="M12,2.01c-3.856,0-6.993,3.137-6.993,6.993c0,4.483,5.968,11.767,6.222,12.074L12,22.012l0.771-0.935 c0.254-0.308,6.222-7.591,6.222-12.074C18.993,5.146,15.856,2.01,12,2.01z M9.879,11.121l-1.414,1.414 c-1.949-1.949-1.949-5.121,0-7.07l1.414,1.414C8.709,8.049,8.709,9.951,9.879,11.121z M12,10c-0.552,0-1-0.448-1-1 c0-0.552,0.448-1,1-1s1,0.448,1,1C13,9.552,12.552,10,12,10z M14.121,11.121c1.17-1.17,1.17-3.072,0-4.242l1.414-1.414 c1.949,1.949,1.949,5.121,0,7.07L14.121,11.121z"/>
</svg>
