<?xml version="1.0"?>
<svg xmlns="http://www.w3.org/2000/svg" viewBox="0 0 24 24">
    <path d="M 18 2 L 18 6 L 22 6 L 22 2 L 18 2 z M 12.324219 3 L 10 6.2539062 L 13.253906 8.5800781 L 15.580078 5.3242188 L 12.324219 3 z M 2 8 L 2 12 L 6 12 L 6 8 L 2 8 z M 16.78125 9.5957031 L 13.59375 12.013672 L 16.011719 15.199219 L 19.199219 12.78125 L 16.78125 9.5957031 z M 2 13 L 2 17 L 6 17 L 6 13 L 2 13 z M 7 13 L 7 17 L 11 17 L 11 13 L 7 13 z M 2 18 L 2 22 L 6 22 L 6 18 L 2 18 z M 7 18 L 7 22 L 11 22 L 11 18 L 7 18 z M 12 18 L 12 22 L 16 22 L 16 18 L 12 18 z"/>
</svg>
