<?xml version="1.0"?>
<svg xmlns="http://www.w3.org/2000/svg" viewBox="0 0 24 24">
    <path d="M 18 3 L 17 5 L 10 8 L 10 16 L 13.140625 17.373047 L 16.878906 13.636719 L 19 15.757812 L 20 14.757812 L 20 13.722656 C 20.595634 13.376387 21 12.738946 21 12 C 21 11.261054 20.595634 10.623613 20 10.277344 L 20 3 L 18 3 z M 2 8 L 2 16 L 6 16 L 6 21 L 8 21 L 8 14 L 8 8 L 2 8 z M 16.878906 16.464844 L 15.464844 17.878906 L 17.585938 20 L 15.464844 22.121094 L 16.878906 23.535156 L 19 21.414062 L 21.121094 23.535156 L 22.535156 22.121094 L 20.414062 20 L 22.535156 17.878906 L 21.121094 16.464844 L 19 18.585938 L 16.878906 16.464844 z"/>
</svg>
