<?xml version="1.0"?>
<svg xmlns="http://www.w3.org/2000/svg" viewBox="0 0 24 24">
    <path style="line-height:normal;text-indent:0;text-align:start;text-decoration-line:none;text-decoration-style:solid;text-decoration-color:#000;text-transform:none;block-progression:tb;isolation:auto;mix-blend-mode:normal" d="M 16 2 L 16 4 C 18.27619 4 20 5.7238095 20 8 L 22 8 C 22 4.6761905 19.32381 2 16 2 z M 12 5 L 1 16 L 8 23 L 19 12 L 12 5 z M 16 5 L 16 7 C 16.554545 7 17 7.4454545 17 8 L 19 8 C 19 6.3545455 17.645455 5 16 5 z M 12 9 C 13.7 9 15 10.3 15 12 C 15 13.7 13.7 15 12 15 C 10.3 15 9 13.7 9 12 C 9 10.3 10.3 9 12 9 z M 12 11 A 1 1 0 0 0 11 12 A 1 1 0 0 0 12 13 A 1 1 0 0 0 13 12 A 1 1 0 0 0 12 11 z M 6 14 C 6.6 14 7 14.4 7 15 C 7 15.6 6.6 16 6 16 C 5.4 16 5 15.6 5 15 C 5 14.4 5.4 14 6 14 z M 9 17 C 9.6 17 10 17.4 10 18 C 10 18.6 9.6 19 9 19 C 8.4 19 8 18.6 8 18 C 8 17.4 8.4 17 9 17 z" font-weight="400" font-family="sans-serif" white-space="normal" overflow="visible"/>
</svg>
