<?xml version="1.0"?>
<svg xmlns="http://www.w3.org/2000/svg" viewBox="0 0 24 24">
    <path d="M 3 3 L 3 21 L 12.294922 21 C 12.105922 20.366 12 19.695 12 19 L 5 19 L 5 8 L 19 8 L 19 12 C 19.695 12 20.366 12.105922 21 12.294922 L 21 3 L 3 3 z M 7 11 L 7 13 L 9 13 L 9 11 L 7 11 z M 11 11 L 11 13 L 15.408203 13 C 15.903203 12.703 16.435 12.462922 17 12.294922 L 17 11 L 11 11 z M 19 14 C 16.239 14 14 16.239 14 19 C 14 21.761 16.239 24 19 24 C 21.761 24 24 21.761 24 19 C 24 16.239 21.761 14 19 14 z M 7 15 L 7 17 L 9 17 L 9 15 L 7 15 z M 11 15 L 11 17 L 12.294922 17 C 12.509922 16.277 12.837766 15.604 13.259766 15 L 11 15 z M 16 18 L 22 18 L 22 20 L 16 20 L 16 18 z"/>
</svg>
