<?xml version="1.0"?>
<svg xmlns="http://www.w3.org/2000/svg" viewBox="0 0 24 24">
    <path style="line-height:normal;text-indent:0;text-align:start;text-decoration-line:none;text-decoration-style:solid;text-decoration-color:#000;text-transform:none;block-progression:tb;isolation:auto;mix-blend-mode:normal" d="M 12 3 L 12 5 C 12.833333 5 13.421991 5.2041597 13.802734 5.3945312 C 13.899195 5.4427618 13.93573 5.4711718 14 5.5097656 L 14 18.490234 C 13.93573 18.528828 13.899195 18.557238 13.802734 18.605469 C 13.421991 18.79584 12.833333 19 12 19 L 12 21 C 13.166667 21 14.078009 20.70416 14.697266 20.394531 C 14.883184 20.301572 14.85968 20.280666 15 20.1875 C 15.14032 20.28067 15.116816 20.301572 15.302734 20.394531 C 15.921991 20.70416 16.833333 21 18 21 L 18 19 C 17.166667 19 16.578009 18.79584 16.197266 18.605469 C 16.100805 18.557238 16.06427 18.528828 16 18.490234 L 16 5.5097656 C 16.06427 5.4711718 16.100805 5.4427618 16.197266 5.3945312 C 16.578009 5.2041597 17.166667 5 18 5 L 18 3 C 16.833333 3 15.921991 3.2958402 15.302734 3.6054688 C 15.116816 3.6984278 15.14032 3.7193337 15 3.8125 C 14.85968 3.7193337 14.883184 3.6984278 14.697266 3.6054688 C 14.078009 3.2958402 13.166667 3 12 3 z M 2 8 L 2 16 L 12 16 L 12 14 L 4 14 L 4 10 L 12 10 L 12 8 L 2 8 z M 18 8 L 18 10 L 20 10 L 20 14 L 18 14 L 18 16 L 22 16 L 22 8 L 18 8 z" font-weight="400" font-family="sans-serif" white-space="normal" overflow="visible"/>
</svg>
