<?xml version="1.0"?>
<svg xmlns="http://www.w3.org/2000/svg" viewBox="0 0 24 24">
    <path d="M 2 3 L 2 18 C 2 19.654 3.346 21 5 21 L 10.587891 21 C 10.211891 20.073 10 19.062 10 18 L 6 18 L 6 16 L 10.261719 16 C 10.444719 15.29 10.719125 14.619 11.078125 14 L 6 14 L 6 12 L 12.720703 12 C 14.129703 10.759 15.975 10 18 10 L 18 3 L 2 3 z M 6 6 L 14 6 L 14 9 L 6 9 L 6 6 z M 20 7 L 20 10.261719 C 20.71 10.444719 21.381 10.719125 22 11.078125 L 22 7 L 20 7 z M 18 12 C 14.698375 12 12 14.698375 12 18 C 12 21.301625 14.698375 24 18 24 L 18 22 C 15.779625 22 14 20.220375 14 18 C 14 15.779625 15.779625 14 18 14 C 20.220375 14 22 15.779625 22 18 C 22 18.853382 21.733713 19.637225 21.283203 20.283203 L 20 19 L 20 23 L 24 23 L 22.707031 21.707031 C 23.513061 20.684418 24 19.397061 24 18 C 24 14.698375 21.301625 12 18 12 z"/>
</svg>
