<?xml version="1.0"?>
<svg xmlns="http://www.w3.org/2000/svg" viewBox="0 0 24 24">
    <path d="M 14 2 L 14 9 L 17.123047 5.8769531 C 18.873631 7.3427896 20 9.530617 20 12 L 20 13 L 22 13 L 22 12 C 22 8.9898617 20.651657 6.2962133 18.539062 4.4609375 L 21 2 L 14 2 z M 7.8652344 2.8398438 L 6.1347656 3.8398438 L 7.1347656 5.5722656 L 8.8652344 4.5722656 L 7.8652344 2.8398438 z M 3.8398438 6.1347656 L 2.8398438 7.8652344 L 4.5722656 8.8652344 L 5.5722656 7.1347656 L 3.8398438 6.1347656 z M 2 11 L 2 12 C 2 15.010138 3.3483428 17.703787 5.4609375 19.539062 L 3 22 L 10 22 L 10 15 L 6.8769531 18.123047 C 5.1263686 16.65721 4 14.469383 4 12 L 4 11 L 2 11 z M 19.427734 15.132812 L 18.427734 16.865234 L 20.160156 17.865234 L 21.160156 16.132812 L 19.427734 15.132812 z M 16.865234 18.427734 L 15.134766 19.427734 L 16.134766 21.160156 L 17.865234 20.160156 L 16.865234 18.427734 z"/>
</svg>
