<?xml version="1.0"?>
<svg xmlns="http://www.w3.org/2000/svg" viewBox="0 0 24 24">
    <path d="M 2 4 L 2 5.5820312 L 12 12 L 22 5.5820312 L 22 4 L 2 4 z M 2 7.7519531 L 2 20 L 8.171875 20 L 7.171875 19 L 8.5859375 17.585938 L 12.105469 14.066406 L 2 7.7519531 z M 22 7.7519531 L 13.599609 13 L 16 13 L 16 14.171875 L 17.171875 13 L 20 13 L 20 16.074219 C 20.651 16.168219 21.335 16.356437 22 16.648438 L 22 7.7519531 z M 14 15 L 10 19 L 14 23 L 14 19 L 14 15 z M 14 19 L 18 23 L 18 20 L 19 20 C 19 20 19.791248 20.01379 20.552734 20.394531 C 21.31422 20.775274 22 21.333333 22 23 L 22 24 L 24 24 L 24 23 C 24 20.666667 22.68578 19.224726 21.447266 18.605469 C 20.208752 17.986212 19 18 19 18 L 18 18 L 18 15 L 14 19 z"/>
</svg>
