<?xml version="1.0"?>
<svg xmlns="http://www.w3.org/2000/svg" viewBox="0 0 24 24">
    <path style="line-height:normal;text-indent:0;text-align:start;text-decoration-line:none;text-decoration-style:solid;text-decoration-color:#000;text-transform:none;block-progression:tb;isolation:auto;mix-blend-mode:normal" d="M 2 4 L 2 5.625 L 12 12 L 22 5.625 L 22 4 L 2 4 z M 2 7.7519531 L 2 14.171875 L 3.171875 13 L 6 13 L 6 16.074219 C 8.016 16.365219 10.355922 17.54 11.419922 20 L 22 20 L 22 7.7519531 L 12 14 L 2 7.7519531 z M 4 15 L 0 19 L 4 23 L 4 20 L 5 20 C 5 20 5.7912483 20.01379 6.5527344 20.394531 C 7.3142205 20.775274 8 21.333333 8 23 L 8 24 L 10 24 L 10 23 C 10 20.666667 8.6857795 19.224726 7.4472656 18.605469 C 6.2087517 17.986212 5 18 5 18 L 4 18 L 4 15 z" font-weight="400" font-family="sans-serif" white-space="normal" overflow="visible"/>
</svg>
