<?xml version="1.0"?>
<svg xmlns="http://www.w3.org/2000/svg" viewBox="0 0 24 24">
    <path style="line-height:normal;text-indent:0;text-align:start;text-decoration-line:none;text-decoration-style:solid;text-decoration-color:#000;text-transform:none;block-progression:tb;isolation:auto;mix-blend-mode:normal" d="M 3 3 L 3 4 L 3 21 L 21 21 L 21 3 L 3 3 z M 5 8 L 19 8 L 19 19 L 5 19 L 5 8 z M 7.5 10.5 A 1.5 1.5 0 0 0 6 12 A 1.5 1.5 0 0 0 7.5 13.5 A 1.5 1.5 0 0 0 9 12 A 1.5 1.5 0 0 0 7.5 10.5 z M 12 11 A 1 1 0 0 0 11 12 A 1 1 0 0 0 12 13 A 1 1 0 0 0 13 12 A 1 1 0 0 0 12 11 z M 16 11 A 1 1 0 0 0 15 12 A 1 1 0 0 0 16 13 A 1 1 0 0 0 17 12 A 1 1 0 0 0 16 11 z M 16 15 A 1.5 1.5 0 0 0 14.5 16.5 A 1.5 1.5 0 0 0 16 18 A 1.5 1.5 0 0 0 17.5 16.5 A 1.5 1.5 0 0 0 16 15 z" font-weight="400" font-family="sans-serif" white-space="normal" overflow="visible"/>
</svg>
