<?xml version="1.0"?>
<svg xmlns="http://www.w3.org/2000/svg" viewBox="0 0 24 24">
    <path d="M 3 3 L 3 5 L 5 5 L 5 3 L 3 3 z M 7 3 L 7 5 L 9 5 L 9 3 L 7 3 z M 11 3 L 11 5 L 13 5 L 13 3 L 11 3 z M 15 3 L 15 5 L 17 5 L 17 3 L 15 3 z M 19 3 L 19 5 L 21 5 L 21 3 L 19 3 z M 3 7 L 3 9 L 5 9 L 5 7 L 3 7 z M 11.34375 7 L 13.464844 9.1210938 L 11.585938 11 L 3 11 L 3 21 L 13 21 L 13 12.414062 L 14.878906 10.535156 L 17 12.65625 L 17 7 L 11.34375 7 z M 19 7 L 19 9 L 21 9 L 21 7 L 19 7 z M 19 11 L 19 13 L 21 13 L 21 11 L 19 11 z M 19 15 L 19 17 L 21 17 L 21 15 L 19 15 z M 15 19 L 15 21 L 17 21 L 17 19 L 15 19 z M 19 19 L 19 21 L 21 21 L 21 19 L 19 19 z"/>
</svg>
