<?xml version="1.0"?>
<svg xmlns="http://www.w3.org/2000/svg" viewBox="0 0 24 24">
    <path style="line-height:normal;text-indent:0;text-align:start;text-decoration-line:none;text-decoration-style:solid;text-decoration-color:#000;text-transform:none;block-progression:tb;isolation:auto;mix-blend-mode:normal" d="M 4 2 L 4 22 L 11.078125 22 C 10.419125 20.863 10.027953 19.551437 10.001953 18.148438 C 9.9369531 14.659437 12.170172 11.641125 15.451172 10.453125 C 17.076172 9.865125 18.603 9.9017188 20 10.261719 L 20 8 L 14 2 L 4 2 z M 13 3.5 L 18.5 9 L 13 9 L 13 3.5 z M 18 12 C 14.698375 12 12 14.698375 12 18 C 12 19.397061 12.486939 20.684418 13.292969 21.707031 L 12 23 L 16 23 L 16 19 L 14.716797 20.283203 C 14.700532 20.259881 14.68179 20.238527 14.666016 20.214844 C 14.244882 19.582562 14 18.822571 14 18 C 14 17.722453 14.02708 17.452565 14.080078 17.191406 C 14.451066 15.363297 16.057172 14 18 14 C 20.220375 14 22 15.779625 22 18 C 22 20.220375 20.220375 22 18 22 L 18 24 C 21.301625 24 24 21.301625 24 18 C 24 14.698375 21.301625 12 18 12 z" font-weight="400" font-family="sans-serif" white-space="normal" overflow="visible"/>
</svg>
