<?xml version="1.0"?>
<svg xmlns="http://www.w3.org/2000/svg" viewBox="0 0 24 24">
    <path style="line-height:normal;text-indent:0;text-align:start;text-decoration-line:none;text-decoration-style:solid;text-decoration-color:#000;text-transform:none;block-progression:tb;isolation:auto;mix-blend-mode:normal" d="M 12 3 A 4 4 0 0 0 8 7 A 4 4 0 0 0 12 11 A 4 4 0 0 0 16 7 A 4 4 0 0 0 12 3 z M 18 12 C 15.154384 12 12.762451 14.006466 12.154297 16.673828 L 12 16.828125 L 9.4355469 14.263672 C 6.4565469 14.814672 3 16.228 3 18.5 L 3 21 L 12.814453 21 C 13.855633 22.789045 15.790313 24 18 24 C 21.301864 24 24 21.301864 24 18 C 24 14.698136 21.301864 12 18 12 z M 18 14 C 19.003867 14 19.905651 14.377038 20.605469 14.980469 L 18 17.585938 L 16.707031 16.292969 L 15.292969 17.707031 L 18 20.414062 L 21.755859 16.658203 C 21.904886 17.0789 22 17.52606 22 18 C 22 20.220984 20.220984 22 18 22 C 15.779016 22 14 20.220984 14 18 C 14 15.779016 15.779016 14 18 14 z" font-weight="400" font-family="sans-serif" white-space="normal" overflow="visible"/>
</svg>
