<?xml version="1.0"?>
<svg xmlns="http://www.w3.org/2000/svg" viewBox="0 0 24 24">
    <path d="M 12 3 C 9.8027056 3 8 4.8027056 8 7 C 8 9.1972944 9.8027056 11 12 11 C 14.197294 11 16 9.1972944 16 7 C 16 4.8027056 14.197294 3 12 3 z M 6.9980469 9.0019531 C 6.9980469 9.0019531 5.1049531 8.8989531 4.0019531 10.001953 C 2.8989531 11.104953 3.0039062 12.996094 3.0039062 12.996094 C 3.0039063 12.996094 4.8950469 13.101047 5.9980469 11.998047 C 7.1010469 10.895047 6.9980469 9.0019531 6.9980469 9.0019531 z M 18 12 C 16.187239 12 14.559267 12.815775 13.457031 14.095703 C 12.957866 14.038872 12.465573 14 12 14 C 10.255047 14 8.1871638 14.409783 6.4492188 15.095703 C 5.5802462 15.438663 4.7946961 15.84605 4.1660156 16.369141 C 3.5373351 16.892231 3 17.599384 3 18.5 L 3 21 L 12.814453 21 C 13.855633 22.789045 15.790313 24 18 24 C 21.301864 24 24 21.301864 24 18 C 24 14.698136 21.301864 12 18 12 z M 18 14 C 19.003867 14 19.905651 14.377038 20.605469 14.980469 L 18 17.585938 L 16.707031 16.292969 L 15.292969 17.707031 L 18 20.414062 L 21.755859 16.658203 C 21.904886 17.0789 22 17.52606 22 18 C 22 20.220984 20.220984 22 18 22 C 15.779016 22 14 20.220984 14 18 C 14 15.779016 15.779016 14 18 14 z"/>
</svg>
