<?xml version="1.0"?>
<svg xmlns="http://www.w3.org/2000/svg" viewBox="0 0 24 24">
    <path d="M 11 2 C 4.04 2 3 5.133 3 7 C 3 8.581 3.9195781 10.080969 4.8925781 11.667969 C 5.7955781 13.142969 6.7291719 14.667063 6.9511719 16.289062 C 7.0396318 16.937547 7.4472435 17.475123 8 17.765625 L 8 22 L 14 22 L 14 17.765625 C 14.552535 17.475123 14.959703 16.937547 15.048828 16.289062 C 15.061828 16.192062 15.085516 16.097 15.103516 16 L 13.076172 16 L 11 16 L 8.9296875 16 C 8.6466875 13.97 7.5586562 12.192047 6.5976562 10.623047 C 5.7766563 9.2820469 5 8.017 5 7 C 5 4.521 8.263 4 11 4 C 13.319 4 16.007344 4.379 16.777344 6 L 18.890625 6 C 18.497625 4.19 16.822 2 11 2 z M 10 8 L 10 14 L 11.207031 14 L 11.207031 11.808594 L 11.806641 11.808594 L 12.703125 14 L 14 14 L 14 13.941406 L 12.953125 11.486328 C 13.087125 11.412328 13.820313 11.1265 13.820312 9.8125 C 13.820312 9.5155 13.658828 8 11.923828 8 L 10 8 z M 17.035156 8 C 16.722156 8 16.4395 8.0513438 16.1875 8.1523438 C 15.9355 8.2533438 15.720875 8.4081875 15.546875 8.6171875 C 15.372875 8.8261875 15.237578 9.0883438 15.142578 9.4023438 C 15.048578 9.7163438 15 10.086719 15 10.511719 L 15 11.498047 C 15 11.923047 15.050437 12.293422 15.148438 12.607422 C 15.247438 12.921422 15.387266 13.180719 15.572266 13.386719 C 15.757266 13.592719 15.979328 13.746656 16.236328 13.847656 C 16.494328 13.947656 16.785422 14 17.107422 14 C 17.379422 14 17.618172 13.973875 17.826172 13.921875 C 18.035172 13.870875 18.215141 13.804516 18.369141 13.728516 C 18.523141 13.651516 18.652859 13.572328 18.755859 13.486328 C 18.857859 13.402328 18.94 13.324812 19 13.257812 L 19 10.847656 L 17.021484 10.847656 L 17.021484 11.736328 L 17.835938 11.736328 L 17.835938 12.808594 C 17.811937 12.825594 17.782 12.843188 17.75 12.867188 C 17.717 12.891187 17.674047 12.9145 17.623047 12.9375 C 17.571047 12.9605 17.5095 12.980094 17.4375 12.996094 C 17.3645 13.012094 17.277781 13.019531 17.175781 13.019531 C 17.004781 13.019531 16.854516 12.9925 16.728516 12.9375 C 16.602516 12.8825 16.497063 12.794828 16.414062 12.673828 C 16.331063 12.552828 16.269516 12.393172 16.228516 12.201172 C 16.187516 12.009172 16.166063 11.774094 16.164062 11.496094 L 16.164062 10.501953 C 16.164062 10.225953 16.183703 9.9918281 16.220703 9.7988281 C 16.257703 9.6058281 16.314672 9.4452188 16.388672 9.3242188 C 16.462672 9.2032187 16.557875 9.1155469 16.671875 9.0605469 C 16.785875 9.0055469 16.917313 8.9785156 17.070312 8.9785156 C 17.199313 8.9785156 17.310297 8.9943437 17.404297 9.0273438 C 17.498297 9.0593438 17.576625 9.1125469 17.640625 9.1855469 C 17.704625 9.2595469 17.755016 9.3574688 17.791016 9.4804688 C 17.827016 9.6034687 17.851187 9.7574062 17.867188 9.9414062 L 18.998047 9.9414062 C 18.975047 9.6254062 18.920937 9.3474688 18.835938 9.1054688 C 18.751938 8.8634688 18.630656 8.6581406 18.472656 8.4941406 C 18.313656 8.3301406 18.115906 8.2070469 17.878906 8.1230469 C 17.642906 8.0400469 17.362156 8 17.035156 8 z M 20 8 L 20 13.912109 L 22.060547 13.912109 C 22.929547 13.912109 24 13.777781 24 12.175781 C 24 11.207781 23.288906 10.914094 23.128906 10.871094 C 23.265906 10.815094 23.910156 10.581141 23.910156 9.6191406 C 23.910156 8.9311406 23.567828 8 21.923828 8 L 20 8 z M 21.257812 8.9941406 L 21.923828 8.9941406 C 22.548828 8.9941406 22.650391 9.4780938 22.650391 9.7460938 C 22.650391 9.9840937 22.606156 10.472656 21.910156 10.472656 L 21.257812 10.472656 L 21.257812 8.9941406 z M 11.207031 9.0097656 L 11.925781 9.0097656 C 12.614781 9.0097656 12.613281 9.7751094 12.613281 9.9121094 C 12.612281 10.181109 12.534578 10.798828 11.892578 10.798828 L 11.207031 10.798828 L 11.207031 9.0097656 z M 21.255859 11.341797 L 22.101562 11.341797 C 22.649562 11.341797 22.747094 11.90525 22.746094 12.15625 C 22.746094 12.26825 22.684547 12.921875 22.060547 12.921875 L 21.255859 12.921875 L 21.255859 11.341797 z"/>
</svg>
