<?xml version="1.0"?>
<svg xmlns="http://www.w3.org/2000/svg" viewBox="0 0 24 24">
    <path d="M22.989,12.028c-0.006-2.267-1.622-3.52-3.09-3.894L21.8,5.6l-1.6-1.2l-3,4l0.026,0.02 c-0.158,0.073-0.304,0.149-0.435,0.223c-0.454-0.286-0.924-0.443-1.322-0.534l2.449-5.715l-1.838-0.788l-2.859,6.671 C12.618,7.72,11.571,7,10.202,7L10,6.995c-1.43,0-2.521,0.732-3.186,1.307C6.275,8.101,5.668,8,5,8c-1.953,0-3.973,1.476-4,4v0.162 h0.01C1.367,16.569,4.213,21,9,21h6c4.676,0,7.534-4.369,7.979-8.741c0.011-0.071,0.018-0.148,0.021-0.23L22.989,12.028z M5,10 c0.612,0,1.094,0.114,1.473,0.35l0.674,0.418l0.561-0.561c0.394-0.394,1.212-1.212,2.265-1.212L10.174,9 c1.183,0,2.016,1.085,2.02,1.091l0.562,0.769l0.796-0.525c0.005-0.003,0.533-0.328,1.155-0.328c0.171,0.001,0.901,0.138,1.296,0.554 l0.597,0.629l0.708-0.502C17.572,10.5,18.276,10,19,10c0.686,0,1.959,0.589,1.985,2H3.004C3.003,11.988,3.001,11.977,3,11.965 C3.02,10.534,4.232,10,5,10z"/>
</svg>
