<?xml version="1.0"?>
<svg xmlns="http://www.w3.org/2000/svg" viewBox="0 0 24 24">
    <path style="line-height:normal;text-indent:0;text-align:start;text-decoration-line:none;text-decoration-style:solid;text-decoration-color:#000;text-transform:none;block-progression:tb;isolation:auto;mix-blend-mode:normal" d="M 3 3 L 3 21 L 21 21 L 21 20 L 21 3 L 3 3 z M 5 5 L 12 5 L 12 19 L 5 19 L 5 5 z M 15 5 C 15.552 5 16 5.448 16 6 C 16 6.552 15.552 7 15 7 C 14.448 7 14 6.552 14 6 C 14 5.448 14.448 5 15 5 z M 18 5 C 18.552 5 19 5.448 19 6 C 19 6.552 18.552 7 18 7 C 17.448 7 17 6.552 17 6 C 17 5.448 17.448 5 18 5 z M 14 8 L 19 8 L 19 10 L 14 10 L 14 8 z" font-weight="400" font-family="sans-serif" white-space="normal" overflow="visible"/>
</svg>
