<?xml version="1.0"?>
<svg xmlns="http://www.w3.org/2000/svg" viewBox="0 0 24 24">
    <path d="M 3 3 L 3 4 C 3 8.539 4.8407969 12.873203 7.9667969 16.033203 C 11.126797 19.159203 15.461 21 20 21 L 21 21 L 21 15.488281 L 15.75 14.849609 L 13.210938 17.380859 C 11.678937 16.573859 10.451109 15.632891 9.4121094 14.587891 C 8.3671094 13.548891 7.4261406 12.321063 6.6191406 10.789062 L 9.1503906 8.25 L 8.5117188 3 L 3 3 z M 12 3 L 12 5 C 15.866 5 19 8.134 19 12 L 21 12 C 21 7.029 16.971 3 12 3 z M 12 7 L 12 9 C 13.657 9 15 10.343 15 12 L 17 12 C 17 9.239 14.761 7 12 7 z"/>
</svg>
