<?xml version="1.0"?>
<svg xmlns="http://www.w3.org/2000/svg" viewBox="0 0 24 24">
    <path d="M 13.384766 2 C 12.455891 1.9890156 11.524922 2.0675781 10.607422 2.2363281 C 6.9444219 2.9513281 3.6186563 5.0902344 1.4726562 8.2402344 C 1.1546562 8.7062344 1 8.9335937 1 8.9335938 L 4.8242188 11.539062 L 7.75 8.1972656 L 7.2675781 5.5234375 C 8.5515781 4.8414375 9.784 4.4340312 11 4.2070312 C 12.215 3.9730313 13.511078 3.9024062 14.955078 4.0664062 L 15.449219 6.7382812 L 19.394531 8.7773438 L 22 4.953125 C 22 4.953125 21.772641 4.7984688 21.306641 4.4804688 C 18.944141 2.8709688 16.171391 2.0329531 13.384766 2 z M 9 8 L 9 10 L 4 14 L 4 20 L 3 20 L 3 22 L 21 22 L 21 20 L 20 20 L 20 14 L 15 10 L 15 8 L 13 8 L 13 10 L 11 10 L 11 8 L 9 8 z M 9 14 C 9.552 14 10 14.448 10 15 C 10 15.552 9.552 16 9 16 C 8.448 16 8 15.552 8 15 C 8 14.448 8.448 14 9 14 z M 12 14 C 12.552 14 13 14.448 13 15 C 13 15.552 12.552 16 12 16 C 11.448 16 11 15.552 11 15 C 11 14.448 11.448 14 12 14 z M 15 14 C 15.552 14 16 14.448 16 15 C 16 15.552 15.552 16 15 16 C 14.448 16 14 15.552 14 15 C 14 14.448 14.448 14 15 14 z M 9 17 C 9.552 17 10 17.448 10 18 C 10 18.552 9.552 19 9 19 C 8.448 19 8 18.552 8 18 C 8 17.448 8.448 17 9 17 z M 12 17 C 12.552 17 13 17.448 13 18 C 13 18.552 12.552 19 12 19 C 11.448 19 11 18.552 11 18 C 11 17.448 11.448 17 12 17 z M 15 17 C 15.552 17 16 17.448 16 18 C 16 18.552 15.552 19 15 19 C 14.448 19 14 18.552 14 18 C 14 17.448 14.448 17 15 17 z"/>
</svg>
