<?xml version="1.0"?>
<svg xmlns="http://www.w3.org/2000/svg" viewBox="0 0 24 24">
    <path style="line-height:normal;text-indent:0;text-align:start;text-decoration-line:none;text-decoration-style:solid;text-decoration-color:#000;text-transform:none;block-progression:tb;isolation:auto;mix-blend-mode:normal" d="M 7.3828125 3 L 7.1054688 3.5527344 C 6.4424687 4.8797344 4.4086406 5.8077344 3.6816406 6.0527344 L 3 6.28125 L 3 17.720703 L 3.6835938 17.949219 C 4.4085937 18.191219 6.4364688 19.110266 7.1054688 20.447266 L 7.3828125 21 L 14 21 L 14 19 L 21 19 L 21 5 L 14 5 L 14 3 L 7.3828125 3 z M 14 7 L 19 7 L 19 8 L 17 8 L 17 10 L 19 10 L 19 11 L 17 11 L 17 13 L 19 13 L 19 14 L 17 14 L 17 16 L 19 16 L 19 17 L 14 17 L 14 14 L 8 14 L 8 10 L 14 10 L 14 7 z" font-weight="400" font-family="sans-serif" white-space="normal" overflow="visible"/>
</svg>
