<?xml version="1.0"?>
<svg xmlns="http://www.w3.org/2000/svg" viewBox="0 0 24 24">
    <path d="M 12 1 C 9.79 1 8 2.79 8 5 C 8 5.7326028 8.2111919 6.4096092 8.5546875 7 L 4.7207031 7 L 3 7 L 3 15 L 4.7207031 15 L 5 15 L 5 21 L 7 21 L 7 19 L 17 19 L 17 21 L 19 21 L 19 15 L 19.316406 15 L 21 15 L 21 7 L 19.316406 7 L 15.445312 7 C 15.788808 6.4096092 16 5.7326028 16 5 C 16 2.79 14.21 1 12 1 z M 10 4 L 14 4 L 14 6 L 10 6 L 10 4 z M 9.0800781 9 L 11.910156 9 L 7.9101562 13 L 5.0800781 13 L 9.0800781 9 z M 16.080078 9 L 18.910156 9 L 14.910156 13 L 12.080078 13 L 16.080078 9 z M 7 15 L 17 15 L 17 17 L 7 17 L 7 15 z"/>
</svg>
