<?xml version="1.0"?>
<svg xmlns="http://www.w3.org/2000/svg" viewBox="0 0 24 24">
    <path d="M 8.5 2 C 7.122 2 6 3.122 6 4.5 C 6 5.065014 6.1961065 5.5807599 6.5136719 6 L 4.7207031 6 L 3 6 L 3 14 L 4.7207031 14 L 5 14 L 5 21 L 7 21 L 7 18 L 17 18 L 17 21 L 19 21 L 19 14 L 19.316406 14 L 21 14 L 21 6 L 19.316406 6 L 17.486328 6 C 17.803894 5.5807599 18 5.065014 18 4.5 C 18 3.122 16.878 2 15.5 2 C 14.122 2 13 3.122 13 4.5 C 13 5.065014 13.196106 5.5807599 13.513672 6 L 10.486328 6 C 10.803894 5.5807599 11 5.065014 11 4.5 C 11 3.122 9.878 2 8.5 2 z M 9.0800781 8 L 11.910156 8 L 7.9101562 12 L 5.0800781 12 L 9.0800781 8 z M 16.080078 8 L 18.910156 8 L 14.910156 12 L 12.080078 12 L 16.080078 8 z M 7 14 L 17 14 L 17 16 L 7 16 L 7 14 z"/>
</svg>
