<?xml version="1.0"?>
<svg xmlns="http://www.w3.org/2000/svg" viewBox="0 0 24 24">
    <path d="M 11 2 A 2 2 0 0 0 9 4 A 2 2 0 0 0 11 6 A 2 2 0 0 0 13 4 A 2 2 0 0 0 11 2 z M 7.4980469 6.5117188 C 6.4517969 6.5395625 4.8714687 6.7664062 4.2617188 7.1601562 L 4.0292969 7.3085938 L 3.4453125 8.4765625 L 2.828125 8.1796875 L 2.3945312 9.0800781 L 2.3945312 9.0820312 L 1.9628906 9.9824219 L 16.603516 17.03125 C 16.162516 17.72025 15.75775 18.323969 15.46875 18.292969 C 15.08275 18.250969 14.767906 18.359203 14.628906 18.658203 C 14.423906 19.102203 13.033203 22 13.033203 22 L 22 22 C 22 22 19.510672 16.718719 19.263672 16.136719 C 18.983672 15.478719 18.639453 15.101563 18.314453 15.101562 C 18.151453 15.101562 17.977875 15.214719 17.796875 15.386719 L 13.373047 13.257812 L 12.4375 8.9902344 C 12.2555 8.4102344 11.828531 7.9494687 11.269531 7.7304688 L 8.4804688 6.6035156 L 8.3105469 6.5507812 C 8.1362969 6.5145313 7.8467969 6.5024375 7.4980469 6.5117188 z M 7.2460938 8.5195312 L 6.5507812 9.9726562 L 5.2480469 9.3457031 L 5.53125 8.7773438 C 5.93025 8.6643438 6.6780937 8.5625312 7.2460938 8.5195312 z M 10.636719 10.095703 L 11.082031 12.154297 L 10.001953 11.634766 L 10.636719 10.095703 z M 5.0390625 13.5 L 3 22 L 5 22 L 7.0195312 14.5 L 5.0390625 13.5 z M 7.609375 14.800781 L 9 17 L 9 22 L 11 22 L 10.990234 16.519531 L 7.609375 14.800781 z"/>
</svg>
