<?xml version="1.0"?>
<svg xmlns="http://www.w3.org/2000/svg" viewBox="0 0 24 24">
    <path d="M 15.986328 3 L 13.984375 5.0019531 C 13.252173 5.0077243 12.621094 5.4086998 12.277344 6 L 7.8261719 6 C 7.4272381 4.8190398 6.3444278 4 5 4 C 3.3 4 2 5.3 2 7 C 2 8.4729049 2.9773524 9.6426778 4.34375 9.9296875 L 6.5625 15 L 3 15 L 3 21 L 20 21 L 20 15 L 9.5625 15 L 7.0351562 9.2207031 C 7.394207 8.8929709 7.6649235 8.4773422 7.8261719 8 L 12.277344 8 C 12.621094 8.5913002 13.252173 8.9922757 13.984375 8.9980469 L 15.986328 11 L 21 11 L 21 9 L 16.814453 9 L 14.814453 7 L 16.814453 5 L 21 5 L 21 3 L 15.986328 3 z"/>
</svg>
