<?xml version="1.0"?>
<svg xmlns="http://www.w3.org/2000/svg" viewBox="0 0 24 24">
    <path d="M 21 2 C 20.636184 2 13.10218 2.0974103 7.7148438 9 L 5.0742188 9 L 1 14 L 5.7753906 14 C 5.4453444 14.374184 5.2772021 14.772381 5.1074219 15.212891 C 4.9193817 15.700777 4.7628153 16.231993 4.6328125 16.732422 C 4.372807 17.733279 4.21875 18.625 4.21875 18.625 L 3.9707031 20.029297 L 5.375 19.78125 C 5.375 19.78125 6.2667206 19.627192 7.2675781 19.367188 C 7.7680069 19.237185 8.2992228 19.080618 8.7871094 18.892578 C 9.227619 18.722798 9.625816 18.554655 10 18.224609 L 10 23 L 15 19.066406 L 15 16.371094 C 21.996967 10.867816 22.004336 3.3505688 22 2.9863281 L 21.986328 2 L 21 2 z M 16.498047 6 C 17.326047 6 17.998047 6.672 17.998047 7.5 C 17.998047 8.328 17.327047 9 16.498047 9 C 15.670047 9 14.998047 8.328 14.998047 7.5 C 14.998047 6.672 15.670047 6 16.498047 6 z M 12.498047 10 C 13.326047 10 13.998047 10.672 13.998047 11.5 C 13.998047 12.328 13.327047 13 12.498047 13 C 11.670047 13 10.998047 12.328 10.998047 11.5 C 10.998047 10.672 11.670047 10 12.498047 10 z M 7.6855469 14.900391 L 9.0566406 16.357422 L 8.7070312 16.707031 C 8.7251503 16.688911 8.441301 16.882853 8.0664062 17.027344 C 7.6915116 17.171835 7.2183681 17.311564 6.7636719 17.429688 C 6.6336192 17.463477 6.6400478 17.454465 6.515625 17.484375 C 6.545532 17.359952 6.5365275 17.366381 6.5703125 17.236328 C 6.6884347 16.781632 6.8281652 16.308488 6.9726562 15.933594 C 7.1171473 15.558699 7.311088 15.274849 7.2929688 15.292969 L 7.6855469 14.900391 z"/>
</svg>
