<?xml version="1.0"?>
<svg xmlns="http://www.w3.org/2000/svg" viewBox="0 0 24 24">
    <path d="M 12 2 C 6.486 2 2 6.486 2 12 C 2 17.514 6.486 22 12 22 C 12.374 22 12.743422 21.975547 13.107422 21.935547 L 10.171875 19 L 16.171875 13 L 19 13 L 19 16 C 19.323 16 19.665625 16.027125 20.015625 16.078125 C 20.018625 16.072125 20.020437 16.064594 20.023438 16.058594 C 20.373438 16.098594 20.715922 16.158281 21.044922 16.238281 C 21.651922 14.949281 22 13.516 22 12 C 22 6.486 17.514 2 12 2 z M 11 6 L 13 6 L 13 12.414062 L 8.7070312 16.707031 L 7.2929688 15.292969 L 11 11.585938 L 11 6 z M 17 15 L 13 19 L 17 23 L 17 20 L 18.994141 20 C 19.496141 20.006 22 20.177 22 23 L 22 24 L 24 24 L 24 23 C 24 19.045 20.729 18 19 18 L 17 18 L 17 15 z"/>
</svg>
