<?xml version="1.0"?>
<svg xmlns="http://www.w3.org/2000/svg" viewBox="0 0 24 24">
    <path d="M 4 2 L 4 7 L 9 7 L 7.4375 5.4375 C 8.7316965 4.5353856 10.297977 4 12 4 C 16.430666 4 20 7.5693339 20 12 C 20 16.430666 16.430666 20 12 20 C 11.405 20 10.812328 19.908344 10.236328 19.777344 L 9.7988281 21.753906 C 10.516828 21.917906 11.257 22 12 22 C 17.511334 22 22 17.511334 22 12 C 22 6.4886661 17.511334 2 12 2 C 9.7532162 2 7.6716357 2.7446772 6 4 L 4 2 z M 2.0019531 12 C 2.0139531 12.753 2.1062969 13.536766 2.2792969 14.259766 L 4.2246094 13.783203 C 4.0866094 13.204203 4.01 12.605 4 12 L 2.0019531 12 z M 4.8300781 15.470703 L 3.0390625 16.371094 C 3.3670625 17.041094 3.7712812 17.677766 4.2382812 18.259766 L 5.7890625 16.980469 C 5.4150625 16.514469 5.0930781 16.007703 4.8300781 15.470703 z M 7.0546875 18.242188 L 5.8183594 19.832031 C 6.4013594 20.297031 7.0341719 20.697531 7.7011719 21.019531 L 8.5605469 19.189453 C 8.0285469 18.932453 7.5216875 18.614187 7.0546875 18.242188 z"/>
</svg>
