<?xml version="1.0"?>
<svg xmlns="http://www.w3.org/2000/svg" viewBox="0 0 24 24">
    <path d="M 12.001953 2 C 6.4906193 2 2.0019531 6.4886661 2.0019531 12 C 2.0019531 17.511334 6.4906193 22 12.001953 22 C 12.744953 22 13.485125 21.917906 14.203125 21.753906 L 13.765625 19.777344 C 13.189625 19.908344 12.596953 20 12.001953 20 C 7.5712872 20 4.0019531 16.430666 4.0019531 12 C 4.0019531 7.5693339 7.5712872 4 12.001953 4 C 13.704556 4 15.270464 4.5348237 16.564453 5.4375 L 15.001953 7 L 20.001953 7 L 20.001953 2 L 18.001953 4 C 16.330317 2.7446772 14.248737 2 12.001953 2 z M 20.001953 12 C 19.991953 12.605 19.915344 13.204203 19.777344 13.783203 L 21.720703 14.259766 C 21.893703 13.536766 21.988 12.753 22 12 L 20.001953 12 z M 19.171875 15.470703 C 18.908875 16.006703 18.584937 16.514469 18.210938 16.980469 L 19.763672 18.259766 C 20.230672 17.677766 20.634891 17.041094 20.962891 16.371094 L 19.171875 15.470703 z M 16.945312 18.242188 C 16.479312 18.614188 15.972453 18.932453 15.439453 19.189453 L 16.300781 21.019531 C 16.966781 20.697531 17.600594 20.297031 18.183594 19.832031 L 16.945312 18.242188 z"/>
</svg>
