<?xml version="1.0"?>
<svg xmlns="http://www.w3.org/2000/svg" viewBox="0 0 24 24">
    <path d="M 8 3 L 8 5.1816406 C 8 5.8666406 8.387 6.4928281 9 6.7988281 C 9.613 7.1048281 10 7.7329688 10 8.4179688 L 10 13 L 14 13 L 14 8.4179688 C 14 7.7329687 14.387 7.1048281 15 6.7988281 C 15.613 6.4928281 16 5.8666406 16 5.1816406 L 16 3 L 8 3 z M 2.1914062 15 C 2.0864063 15 2 15.086406 2 15.191406 L 2 20 L 4 20 L 4 21 L 20 21 L 20 20 L 22 20 L 22 15.191406 C 22 15.086406 21.913594 15 21.808594 15 L 2.1914062 15 z"/>
</svg>
