<?xml version="1.0"?>
<svg xmlns="http://www.w3.org/2000/svg" viewBox="0 0 24 24">
    <path style="line-height:normal;text-indent:0;text-align:start;text-decoration-line:none;text-decoration-style:solid;text-decoration-color:#000;text-transform:none;block-progression:tb;isolation:auto;mix-blend-mode:normal" d="M 5 3 C 3.3550302 3 2 4.3550302 2 6 L 2 9 L 5 9 L 5 18 C 5 19.64497 6.3550302 21 8 21 L 19 21 C 20.64497 21 22 19.64497 22 18 L 22 15 L 18 15 L 18 6 C 18 4.3550302 16.64497 3 15 3 L 5 3 z M 5 5 L 12.416016 5 C 12.278986 5.3420139 12 5.6116523 12 6 L 12 7 L 4 7 L 4 6 C 4 5.4349698 4.4349698 5 5 5 z M 8 11 L 15 11 L 15 13 L 8 13 L 8 11 z M 8 15 L 15 15 L 15 17 L 8 17 L 8 15 z M 18 17 L 20 17 L 20 18 C 20 18.56503 19.56503 19 19 19 C 18.43497 19 18 18.56503 18 18 L 18 17 z" font-weight="400" font-family="sans-serif" white-space="normal" overflow="visible"/>
</svg>
