<?xml version="1.0"?>
<svg xmlns="http://www.w3.org/2000/svg" viewBox="0 0 24 24">
    <path d="M 3 3 L 3 20 L 5 20 L 5 3 L 3 3 z M 11 3 L 11 5 L 13 5 L 13 3 L 11 3 z M 19 3 L 19 20 L 21 20 L 21 3 L 19 3 z M 11 7 L 11 9 L 13 9 L 13 7 L 11 7 z M 11.984375 10.986328 A 1.0001 1.0001 0 0 0 11 12 L 11 14 L 7 16 L 7 17 L 11 17 L 11 18 L 9 19 L 9 20 L 11.832031 20 A 1.0001 1.0001 0 0 0 12.158203 20 L 15 20 L 15 19 L 13 18 L 13 17 L 17 17 L 17 16 L 13 14 L 13 12 A 1.0001 1.0001 0 0 0 11.984375 10.986328 z"/>
</svg>
