<?xml version="1.0"?>
<svg xmlns="http://www.w3.org/2000/svg" viewBox="0 0 24 24">
    <path style="line-height:normal;text-indent:0;text-align:start;text-decoration-line:none;text-decoration-style:solid;text-decoration-color:#000;text-transform:none;block-progression:tb;isolation:auto;mix-blend-mode:normal" d="M 2 4 L 2 10 L 9 10 L 9 12 L 2 12 L 2 18 L 3.0507812 18 C 3.2981765 19.685411 4.7500665 21 6.5 21 C 8.2499335 21 9.7018235 19.685411 9.9492188 18 L 14.050781 18 C 14.300781 19.69 15.74 21 17.5 21 C 19.26 21 20.699219 19.69 20.949219 18 L 23 18 L 23 13.310547 C 23 12.750547 22.850781 12.210469 22.550781 11.730469 L 20.519531 8.4296875 C 20.459531 8.3396875 20.255313 8.0780469 20.195312 7.9980469 L 21 8 L 21 4 L 2 4 z M 13 9 L 17.960938 9 C 18.310938 9 18.630547 9.1804687 18.810547 9.4804688 L 20.849609 12.777344 C 20.948609 12.937344 21 13.122547 21 13.310547 L 21 16 L 20.650391 16 C 20.080391 14.82 18.89 14 17.5 14 C 16.11 14 14.919609 14.82 14.349609 16 L 13 16 L 13 9 z M 6.5 16 C 7.3402718 16 8 16.659728 8 17.5 C 8 18.340272 7.3402718 19 6.5 19 C 5.6597282 19 5 18.340272 5 17.5 C 5 16.659728 5.6597282 16 6.5 16 z M 17.5 16 C 18.33 16 19 16.67 19 17.5 C 19 18.33 18.33 19 17.5 19 C 16.67 19 16 18.33 16 17.5 C 16 16.67 16.67 16 17.5 16 z" font-weight="400" font-family="sans-serif" white-space="normal" overflow="visible"/>
</svg>
