<?xml version="1.0"?>
<svg xmlns="http://www.w3.org/2000/svg" viewBox="0 0 24 24">
    <path d="M12,2C6.486,2,2,6.486,2,12s4.486,10,10,10s10-4.486,10-10S17.514,2,12,2z M16,8.5c0.828,0,1.5,0.672,1.5,1.5 c0,0.828-0.672,1.5-1.5,1.5s-1.5-0.672-1.5-1.5C14.5,9.172,15.172,8.5,16,8.5z M8,8.5c0.828,0,1.5,0.672,1.5,1.5 c0,0.828-0.672,1.5-1.5,1.5S6.5,10.828,6.5,10C6.5,9.172,7.172,8.5,8,8.5z M16.153,17.33c-2.407-1.72-5.898-1.72-8.306,0 l-1.162-1.628c1.545-1.103,3.383-1.686,5.315-1.686s3.77,0.583,5.315,1.686L16.153,17.33z"/>
</svg>
