<?xml version="1.0"?>
<svg xmlns="http://www.w3.org/2000/svg" viewBox="0 0 24 24">
    <path style="line-height:normal;text-indent:0;text-align:start;text-decoration-line:none;text-decoration-style:solid;text-decoration-color:#000;text-transform:none;block-progression:tb;isolation:auto;mix-blend-mode:normal" d="M 2 4 L 2 5.171875 L 4 7.171875 L 4 6 L 6 6 L 6 9.171875 L 8.9121094 11.917969 L 6 14.828125 L 6 18 L 4 18 L 4 16.828125 L 2 18.828125 L 2 20 L 4 20 L 4 21 L 6 21 L 6 20 L 8 20 L 18 20 L 18 21 L 20 21 L 20 20 L 22 20 L 22 4 L 2 4 z M 18.587891 6.9980469 L 20 8.4121094 L 20 8.4140625 L 18.433594 9.9804688 C 18.785594 10.575469 19 11.26 19 12 C 19 12.74 18.785594 13.424531 18.433594 14.019531 L 20 15.585938 L 20 15.765625 L 18.675781 17.089844 L 17.019531 15.433594 C 16.424531 15.785594 15.74 16 15 16 C 14.26 16 13.575469 15.785594 12.980469 15.433594 L 11.412109 17.001953 L 9.9980469 15.587891 L 11.566406 14.019531 C 11.214406 13.424531 11 12.74 11 12 C 11 11.26 11.214406 10.575469 11.566406 9.9804688 L 10.087891 8.5019531 L 11.501953 7.0878906 L 12.980469 8.5664062 C 13.575469 8.2144062 14.26 8 15 8 C 15.74 8 16.424531 8.2144062 17.019531 8.5664062 L 18.587891 6.9980469 z M 2 8 L 2 16 L 6 12 L 2 8 z M 15 10 A 2 2 0 0 0 13 12 A 2 2 0 0 0 15 14 A 2 2 0 0 0 17 12 A 2 2 0 0 0 15 10 z" font-weight="400" font-family="sans-serif" white-space="normal" overflow="visible"/>
</svg>
