<?xml version="1.0"?>
<svg xmlns="http://www.w3.org/2000/svg" viewBox="0 0 24 24">
    <path d="M 2 4 L 2 20 L 4 20 L 4 21 L 6 21 L 6 20 L 12.080078 20 C 12.033078 19.673 12 19.34 12 19 C 12 17.696 12.363375 16.480547 12.984375 15.435547 C 12.983375 15.434547 12.981469 15.434594 12.980469 15.433594 L 11.412109 17.001953 L 9.9980469 15.587891 L 11.566406 14.019531 C 11.214406 13.424531 11 12.74 11 12 C 11 11.26 11.214406 10.575469 11.566406 9.9804688 L 10.087891 8.5019531 L 11.501953 7.0878906 L 12.980469 8.5664062 C 13.575469 8.2144062 14.26 8 15 8 C 15.74 8 16.424531 8.2144062 17.019531 8.5664062 L 18.587891 6.9980469 L 20.001953 8.4121094 L 18.433594 9.9804688 C 18.785594 10.575469 19 11.26 19 12 C 20.075 12 21.09 12.250594 22 12.683594 L 22 4 L 2 4 z M 5 9 L 7 9 L 7 15 L 5 15 L 5 9 z M 15 10 C 13.897 10 13 10.897 13 12 C 13 12.842 13.524672 13.561469 14.263672 13.855469 C 15.028672 13.150469 15.94775 12.611734 16.96875 12.302734 C 16.98475 12.202734 17 12.103 17 12 C 17 10.897 16.103 10 15 10 z M 19 14 C 16.239 14 14 16.239 14 19 C 14 21.761 16.239 24 19 24 C 21.761 24 24 21.761 24 19 C 24 16.239 21.761 14 19 14 z M 21.050781 16.650391 L 22.449219 18.050781 L 18.5 22 L 15.550781 19.050781 L 16.949219 17.650391 L 18.5 19.199219 L 21.050781 16.650391 z"/>
</svg>
