<?xml version="1.0"?>
<svg xmlns="http://www.w3.org/2000/svg" viewBox="0 0 24 24">
    <path d="M 9.3359375 3 L 9.0605469 3.4550781 A 1.0001 1.0001 0 0 0 9.0585938 3.4589844 L 9.0449219 3.4824219 C 9.0449219 3.4824219 8.2389038 4.8151025 7.1191406 6.3222656 C 5.9993774 7.8294287 4.4981089 9.4978547 3.5136719 10.046875 L 3 10.332031 L 3 10.919922 L 3 11 L 3 11.697266 L 3.6542969 11.9375 C 5.9616258 12.789103 7.8636714 12.964027 9 12.994141 L 9 15 L 2 15 L 2 16 C 2 19.577 4.4477344 20.841531 4.5527344 20.894531 L 4.7636719 21 L 19.376953 21 L 19.779297 20.646484 C 20.500297 20.030484 22 18.747 22 16 L 22 15 L 11 15 L 11 12.90625 L 11 12 L 11 11 L 11 10 L 11 4 L 11 3 L 10 3 L 9.3359375 3 z M 13 3 L 13 4 L 13 11 L 13 11.798828 L 13.779297 11.974609 C 17.406709 12.798473 18.769531 12.980469 18.769531 12.980469 L 18.835938 12.988281 L 20 12.988281 L 20 11.988281 C 19.999997 9.4704113 18.939891 7.3992309 17.757812 5.9082031 C 16.575734 4.4171753 15.335305 3.5003815 14.546875 3.1054688 L 14.335938 3 L 13 3 z M 15 6.09375 C 15.448184 6.4722468 15.72765 6.5678903 16.189453 7.1503906 C 16.945737 8.1043377 17.485227 9.3534288 17.751953 10.738281 C 17.334053 10.670253 16.630383 10.535169 15 10.183594 L 15 6.09375 z M 9 7.1074219 L 9 10 L 9 10.988281 C 8.3964128 10.98893 7.4587019 10.779489 6.0976562 10.464844 C 7.055324 9.5647981 7.9600775 8.5427057 8.7246094 7.5136719 C 8.8849405 7.2978717 8.8532151 7.3133456 9 7.1074219 z"/>
</svg>
