<?xml version="1.0"?>
<svg xmlns="http://www.w3.org/2000/svg" viewBox="0 0 24 24">
    <path d="M 4 2.0058594 L 3 2.0078125 L 3 3.0058594 L 3 3.1601562 L 4.4472656 2.265625 C 4.4472656 2.265625 3.0175708 3.3476177 3.0175781 3.3476562 C 3.0175855 3.3476948 3.0800401 3.5545988 3.0800781 3.5546875 C 3.0801538 3.5548648 3.1080473 3.6129819 3.1132812 3.6230469 C 3.1237503 3.6431769 3.1263722 3.6477887 3.1289062 3.6523438 C 3.1339762 3.6614538 3.1358519 3.6649029 3.1386719 3.6699219 C 3.1443119 3.6799599 3.1500882 3.6922705 3.1601562 3.7109375 C 3.1802933 3.7482705 3.2129701 3.8069855 3.2519531 3.8886719 C 3.3299181 4.0520448 3.4377757 4.3035459 3.5488281 4.6347656 C 3.770929 5.297205 4 6.2752896 4 7.5 C 4 9.0518444 3.7659659 10.022315 3.5625 10.576172 C 3.460767 10.8531 3.3673946 11.02724 3.3105469 11.119141 C 3.3068269 11.125141 3.3061244 11.123506 3.3027344 11.128906 L 3.2070312 11.257812 C 3.2070195 11.257829 3.4570921 11.656 3.7070312 12.054688 L 3.0097656 11.800781 L 2.9335938 13.162109 L 12 11.867188 L 12 11 C 12 6.7083333 9.9957115 4.2756904 7.9960938 3.1347656 C 5.9964759 1.9938408 4 2.0058594 4 2.0058594 z M 13 2.5390625 L 13 4 L 13 4.4082031 L 13.105469 4.6191406 C 13.109969 4.6281406 13.314376 5.0982304 13.546875 5.8691406 C 13.779374 6.6400508 14.00042 7.6463332 14 8.5 C 13.999591 9.2325789 13.815568 9.9211537 13.615234 10.433594 C 13.515067 10.689814 13.411768 10.903054 13.332031 11.048828 C 13.252291 11.194602 13.114017 11.355501 13.25 11.201172 L 13 11.484375 L 13 13.179688 L 21 11.847656 L 21 11 C 21 8.2367345 19.240935 6.2244849 17.613281 4.9589844 C 15.985628 3.6934839 14.361328 3.0683594 14.361328 3.0683594 L 13 2.5390625 z M 5.4960938 4.3203125 C 5.971425 4.4479037 6.4559722 4.5584583 7.0039062 4.8710938 C 8.3710194 5.6511294 9.6768909 7.1043058 9.9082031 10.146484 L 5.5136719 10.773438 C 5.7592666 9.982176 6 9.0239441 6 7.5 C 6 6.1615438 5.747088 5.1366674 5.4960938 4.3203125 z M 15.591797 6.0742188 C 15.95595 6.2942336 15.989772 6.2304361 16.386719 6.5390625 C 17.542158 7.4374165 18.442947 8.7014294 18.75 10.195312 L 15.564453 10.726562 C 15.779181 10.091468 15.999506 9.3843705 16 8.5 C 16.000439 7.6084592 15.782878 6.8281772 15.591797 6.0742188 z M 2 15 L 2 16 C 2 19.783 5.1137656 21.554891 6.7597656 21.962891 L 16 22 C 18.691 22 22 18.696812 22 16.007812 L 22 15.007812 L 2 15 z"/>
</svg>
