<?xml version="1.0"?>
<svg xmlns="http://www.w3.org/2000/svg" viewBox="0 0 24 24">
    <path d="M 8 2 L 8 3.4238281 L 8.1347656 3.65625 C 8.143205 3.6707859 8.2245994 3.9014307 8.265625 4 L 4 4 L 4 5.4277344 L 4.1464844 5.6660156 C 4.3930733 6.0710806 4.7601334 6.6037955 4.9160156 7.3730469 C 5.0718979 8.1422982 5.0377241 9.0728248 4.1777344 10.3125 L 4 10.570312 L 4 12.220703 L 8.1230469 11.394531 C 8.1187313 11.402978 8.115682 11.41148 8.1113281 11.419922 L 8 11.634766 L 8 13.162109 L 13 12.412109 L 13 13.197266 L 20.169922 11.894531 L 20.394531 11.447266 C 20.394531 11.447266 21 10.222222 21 8.5 C 21 6.5555556 19.707031 5.2929688 19.707031 5.2929688 L 19.414062 5 L 19 5 L 17.669922 5 C 17.354349 3.6485199 16.919922 2.6054687 16.919922 2.6054688 L 16.660156 2 L 8 2 z M 10.255859 4 L 15.261719 4 C 15.353249 4.235898 15.473604 4.5725592 15.599609 5 L 13 5 L 13 6.4277344 L 13.146484 6.6660156 C 13.393073 7.0710806 13.760133 7.6037955 13.916016 8.3730469 C 14.024943 8.9105845 14.022122 9.533804 13.728516 10.279297 L 10.369141 10.783203 C 10.877136 9.1390183 11.054992 7.5210432 10.888672 6.1894531 C 10.753141 5.104364 10.491388 4.6455548 10.255859 4 z M 6.4511719 6 L 8.8242188 6 C 8.850343 6.1477974 8.8850608 6.2834916 8.9042969 6.4375 C 9.0095677 7.2803202 9.0167928 8.2310155 8.84375 9.2109375 L 6.6054688 9.6601562 C 6.9110078 8.6761991 7.0295825 7.7374466 6.875 6.9746094 C 6.7725239 6.468908 6.6239086 6.3702799 6.4511719 6 z M 15.451172 7 L 18.5 7 C 18.70711 7.2800033 19 7.7536361 19 8.5 C 19 9.5150614 18.789853 9.886836 18.6875 10.130859 L 15.589844 10.693359 C 15.905614 9.6969309 16.031313 8.7459845 15.875 7.9746094 C 15.772524 7.468908 15.623909 7.3702799 15.451172 7 z M 22 12.601562 L 14.458984 15.126953 L 13.585938 16 L 8.4121094 15.992188 L 6.4121094 14 L 2 14 L 2 15 C 2 19.58 5.1128125 21.566516 6.7578125 21.978516 L 6.8769531 22.009766 L 17.179688 22 L 17.345703 21.9375 C 20.368703 20.8225 22 17.010234 22 13.990234 L 22 12.601562 z"/>
</svg>
