<?xml version="1.0"?>
<svg xmlns="http://www.w3.org/2000/svg" viewBox="0 0 24 24">
    <path d="M 7.8574219 2 L 5.8769531 5.8769531 L 2 7.8574219 L 3.3417969 12 L 2 16.142578 L 5.8769531 18.123047 L 7.8574219 22 L 12 20.658203 L 16.142578 22 L 18.123047 18.123047 L 22 16.142578 L 20.658203 12 L 22 7.8574219 L 18.123047 5.8769531 L 16.142578 2 L 12 3.3417969 L 7.8574219 2 z M 6.6660156 9.5039062 C 6.9000156 9.5039062 7.1108281 9.5402344 7.2988281 9.6152344 C 7.4868281 9.6852344 7.6472969 9.788875 7.7792969 9.921875 C 7.9122969 10.053875 8.0149375 10.211484 8.0859375 10.396484 C 8.1569375 10.579484 8.1933594 10.782906 8.1933594 11.003906 L 7.2148438 11.003906 C 7.2148438 10.900906 7.2026406 10.806703 7.1816406 10.720703 C 7.1606406 10.635703 7.1270313 10.562 7.0820312 10.5 C 7.0360312 10.439 6.97725 10.391422 6.90625 10.357422 C 6.83525 10.322422 6.7484375 10.304688 6.6484375 10.304688 C 6.5544375 10.304688 6.47425 10.318656 6.40625 10.347656 C 6.33825 10.376656 6.2822812 10.417797 6.2382812 10.466797 C 6.1942813 10.517797 6.1606719 10.575531 6.1386719 10.644531 C 6.1166719 10.713531 6.1054687 10.787234 6.1054688 10.865234 C 6.1044687 10.946234 6.12125 11.018984 6.15625 11.083984 C 6.19125 11.147984 6.2397344 11.209625 6.3027344 11.265625 C 6.3667344 11.321625 6.4422031 11.372875 6.5332031 11.421875 C 6.6232031 11.470875 6.7230312 11.519406 6.8320312 11.566406 C 7.0590313 11.649406 7.2577344 11.739844 7.4277344 11.839844 C 7.5967344 11.939844 7.7385625 12.054641 7.8515625 12.181641 C 7.9655625 12.308641 8.0494688 12.451328 8.1054688 12.611328 C 8.1614687 12.770328 8.1894531 12.949391 8.1894531 13.150391 C 8.1894531 13.364391 8.1559375 13.555656 8.0859375 13.722656 C 8.0149375 13.889656 7.9132031 14.031484 7.7832031 14.146484 C 7.6522031 14.261484 7.4955469 14.348156 7.3105469 14.410156 C 7.1255469 14.471156 6.9175469 14.503906 6.6855469 14.503906 C 6.4755469 14.503906 6.2703594 14.47125 6.0683594 14.40625 C 5.8663594 14.34325 5.6872969 14.246234 5.5292969 14.115234 C 5.3712969 13.984234 5.2434844 13.817188 5.1464844 13.617188 C 5.0504844 13.416187 5.0019531 13.177391 5.0019531 12.900391 L 5.9863281 12.900391 C 5.9863281 13.047391 6.0002969 13.173391 6.0292969 13.275391 C 6.0582969 13.377391 6.1031094 13.460437 6.1621094 13.523438 C 6.2211094 13.587438 6.2938594 13.633109 6.3808594 13.662109 C 6.4678594 13.690109 6.5695469 13.703125 6.6855469 13.703125 C 6.7795469 13.703125 6.8578281 13.690109 6.9238281 13.662109 C 6.9898281 13.634109 7.0429844 13.596828 7.0839844 13.548828 C 7.1259844 13.500828 7.1558281 13.442953 7.1738281 13.376953 C 7.1918281 13.309953 7.1992187 13.236203 7.1992188 13.158203 C 7.1992188 13.073203 7.1927344 12.997641 7.1777344 12.931641 C 7.1617344 12.864641 7.129125 12.801187 7.078125 12.742188 C 7.028125 12.683188 6.9562813 12.626312 6.8632812 12.570312 C 6.7712813 12.514313 6.6481406 12.456531 6.4941406 12.394531 C 6.3111406 12.325531 6.1386563 12.24525 5.9726562 12.15625 C 5.8066562 12.06725 5.6592031 11.963797 5.5332031 11.841797 C 5.4072031 11.720797 5.3074219 11.578922 5.2324219 11.419922 C 5.1574219 11.260922 5.1210938 11.074281 5.1210938 10.863281 C 5.1210938 10.660281 5.158375 10.476594 5.234375 10.308594 C 5.310375 10.139594 5.4176875 9.9969063 5.5546875 9.8789062 C 5.6926875 9.7609062 5.8549688 9.6675625 6.0429688 9.6015625 C 6.2319688 9.5365625 6.4380156 9.5039062 6.6660156 9.5039062 z M 10.044922 9.5664062 L 10.943359 9.5664062 L 12.474609 14.433594 L 11.425781 14.433594 L 11.164062 13.4375 L 9.8242188 13.4375 L 9.5625 14.433594 L 8.5234375 14.433594 L 10.044922 9.5664062 z M 12.929688 9.5664062 L 13.912109 9.5664062 L 13.912109 13.617188 L 15.636719 13.617188 L 15.636719 14.433594 L 12.929688 14.433594 L 12.929688 9.5664062 z M 16.205078 9.5664062 L 18.992188 9.5664062 L 18.992188 10.384766 L 17.1875 10.384766 L 17.1875 11.535156 L 18.71875 11.535156 L 18.71875 12.326172 L 17.1875 12.326172 L 17.1875 13.617188 L 18.998047 13.617188 L 18.998047 14.433594 L 16.205078 14.433594 L 16.205078 9.5664062 z M 10.492188 10.882812 L 10.037109 12.619141 L 10.947266 12.619141 L 10.492188 10.882812 z"/>
</svg>
