<?xml version="1.0"?>
<svg xmlns="http://www.w3.org/2000/svg" viewBox="0 0 24 24">
    <path style="line-height:normal;text-indent:0;text-align:start;text-decoration-line:none;text-decoration-style:solid;text-decoration-color:#000;text-transform:none;block-progression:tb;isolation:auto;mix-blend-mode:normal" d="M 5 2 A 2 2 0 0 0 3 4 A 2 2 0 0 0 5 6 A 2 2 0 0 0 5.2988281 5.9746094 L 6.9199219 8 L 9.4804688 8 L 6.8632812 4.7265625 A 2 2 0 0 0 7 4 A 2 2 0 0 0 5 2 z M 12 2 A 2 2 0 0 0 10 4 A 2 2 0 0 0 11 5.7285156 L 11 8 L 13 8 L 13 5.7304688 A 2 2 0 0 0 14 4 A 2 2 0 0 0 12 2 z M 19 2 A 2 2 0 0 0 17 4 A 2 2 0 0 0 17.136719 4.7265625 L 14.519531 8 L 17.080078 8 L 18.701172 5.9746094 A 2 2 0 0 0 19 6 A 2 2 0 0 0 21 4 A 2 2 0 0 0 19 2 z M 4 10 L 4 11 L 4 22 L 20 22 L 20 10 L 4 10 z M 6 12 L 18 12 L 18 20 L 6 20 L 6 12 z M 10 14 L 10 16 L 14 16 L 14 14 L 10 14 z"/>
</svg>
