<?xml version="1.0"?>
<svg xmlns="http://www.w3.org/2000/svg" viewBox="0 0 24 24">
    <path d="M 16 2 C 14.76032 2 13.630447 2.2384874 12.724609 2.6914062 C 11.818772 3.1443253 11 3.9072751 11 5 L 11 8.5761719 C 10.143121 8.204055 9.1208203 8 8 8 C 6.7603205 8 5.630447 8.2384875 4.7246094 8.6914062 C 3.8187718 9.1443253 3 9.9072751 3 11 L 3 15 L 3 19 C 3 20.092771 3.8187259 20.85573 4.7246094 21.308594 C 5.6304929 21.761457 6.7604464 22 8 22 C 9.2395536 22 10.369507 21.761457 11.275391 21.308594 C 12.064343 20.914185 12.785522 20.2841 12.958984 19.40625 C 13.823861 19.789931 14.861529 20 16 20 C 17.239554 20 18.369507 19.761457 19.275391 19.308594 C 20.181274 18.85573 21 18.092771 21 17 L 21 9 L 21 5 C 21 3.9072751 20.181228 3.1443251 19.275391 2.6914062 C 18.369553 2.2384876 17.23968 2 16 2 z M 13 7.4238281 C 13.856879 7.795945 14.879179 8 16 8 C 17.120821 8 18.143121 7.795945 19 7.4238281 L 19 9 C 19 9.012229 18.92273 9.248645 18.380859 9.5195312 C 17.838993 9.7904179 16.969446 10 16 10 C 15.030554 10 14.161007 9.7904177 13.619141 9.5195312 C 13.077274 9.2486448 13 9.0122285 13 9 L 13 7.4238281 z M 13 11.423828 C 13.856925 11.795913 14.879293 12 16 12 C 17.120707 12 18.143075 11.795913 19 11.423828 L 19 13 C 19 13.01223 18.92273 13.248645 18.380859 13.519531 C 17.838993 13.790418 16.969446 14 16 14 C 15.030554 14 14.161007 13.790418 13.619141 13.519531 C 13.077274 13.248645 13 13.012229 13 13 L 13 11.423828 z M 5 13.423828 C 5.856879 13.795945 6.8791797 14 8 14 C 9.1208203 14 10.143121 13.795945 11 13.423828 L 11 15 C 11 15.01223 10.92273 15.248645 10.380859 15.519531 C 9.8389937 15.790418 8.9694464 16 8 16 C 7.0305536 16 6.1610071 15.790418 5.6191406 15.519531 C 5.0772741 15.248645 5 15.012229 5 15 L 5 13.423828 z M 13 15.423828 C 13.856925 15.795913 14.879293 16 16 16 C 17.120707 16 18.143075 15.795913 19 15.423828 L 19 17 C 19 17.01223 18.92273 17.248645 18.380859 17.519531 C 17.838993 17.790418 16.969446 18 16 18 C 15.030554 18 14.161007 17.790418 13.619141 17.519531 C 13.077274 17.248645 13 17.012229 13 17 L 13 15.423828 z M 11 17.421875 L 11 19 C 11 19.01223 10.92273 19.248645 10.380859 19.519531 C 9.8389937 19.790418 8.9694464 20 8 20 C 7.0305536 20 6.1610071 19.790418 5.6191406 19.519531 C 5.0772741 19.248645 5 19.012229 5 19 L 5 17.423828 C 5.8569245 17.795913 6.8792936 18 8 18 C 9.1212538 18 10.143071 17.794574 11 17.421875 z"/>
</svg>
