<?xml version="1.0"?>
<svg xmlns="http://www.w3.org/2000/svg" viewBox="0 0 24 24">
    <path d="M 6.7304688 3.0097656 C 5.5974902 2.9874414 4.658125 3.311875 3.984375 3.984375 C 2.820375 5.148375 2.6835625 7.1022813 3.6015625 9.4882812 C 3.9165625 10.307281 4.3470469 11.153 4.8730469 12 C 4.3470469 12.847 3.9165625 13.692719 3.6015625 14.511719 C 2.6845625 16.897719 2.820375 18.851625 3.984375 20.015625 C 4.639375 20.669625 5.5428125 21 6.6328125 21 C 7.3368125 21 8.1228437 20.854125 8.9648438 20.578125 C 8.5278438 20.065125 8.2091719 19.449719 8.0761719 18.761719 C 6.8441719 19.118719 5.8674375 19.070563 5.3984375 18.601562 C 4.8434375 18.046563 4.87075 16.786469 5.46875 15.230469 C 5.64875 14.762469 5.8727187 14.281875 6.1367188 13.796875 C 6.7127187 14.532875 7.3489219 15.259078 8.0449219 15.955078 C 8.1609219 16.071078 8.2814375 16.174109 8.3984375 16.287109 C 8.6924375 15.671109 9.1325937 15.141047 9.6835938 14.748047 C 9.6095938 14.676047 9.5319844 14.614016 9.4589844 14.541016 C 8.6389844 13.721016 7.9111563 12.863 7.2851562 12 C 7.9111563 11.137 8.6399844 10.278984 9.4589844 9.4589844 C 9.5329844 9.3849844 9.6095938 9.3239531 9.6835938 9.2519531 C 9.1335937 8.8589531 8.6924375 8.3288906 8.3984375 7.7128906 C 8.2804375 7.8258906 8.1609219 7.9289219 8.0449219 8.0449219 C 7.3489219 8.7409219 6.7127188 9.466125 6.1367188 10.203125 C 5.8737187 9.717125 5.64875 9.2375312 5.46875 8.7695312 C 4.86975 7.2135313 4.8444375 5.9534375 5.3984375 5.3984375 C 5.6654375 5.1334375 6.0917188 5 6.6367188 5 C 7.0537187 5 7.5421719 5.0813281 8.0761719 5.2363281 C 8.2091719 4.5503281 8.5278906 3.9368281 8.9628906 3.4238281 C 8.1592656 3.1605781 7.4102559 3.0231602 6.7304688 3.0097656 z M 17.271484 3.0097656 C 16.591604 3.0231602 15.841109 3.1605781 15.037109 3.4238281 C 15.472109 3.9368281 15.790828 4.5493281 15.923828 5.2363281 C 16.457828 5.0813281 16.946281 5 17.363281 5 C 17.908281 5 18.335562 5.1334375 18.601562 5.3984375 C 19.156562 5.9534375 19.12925 7.2135312 18.53125 8.7695312 C 18.35125 9.2375312 18.127281 9.7161719 17.863281 10.201172 C 17.287281 9.4651719 16.651078 8.7409219 15.955078 8.0449219 C 15.839078 7.9289219 15.718562 7.8239375 15.601562 7.7109375 C 15.307562 8.3269375 14.867406 8.857 14.316406 9.25 C 14.390406 9.322 14.469969 9.3840312 14.542969 9.4570312 C 15.362969 10.277031 16.088844 11.135047 16.714844 11.998047 C 16.088844 12.861047 15.361969 13.719062 14.542969 14.539062 C 14.468969 14.613062 14.390406 14.676047 14.316406 14.748047 C 14.867406 15.141047 15.307562 15.671109 15.601562 16.287109 C 15.718563 16.174109 15.839078 16.069125 15.955078 15.953125 C 16.651078 15.257125 17.287281 14.533875 17.863281 13.796875 C 18.127281 14.281875 18.35125 14.760516 18.53125 15.228516 C 19.13025 16.784516 19.156562 18.044609 18.601562 18.599609 C 18.131563 19.068609 17.154828 19.118719 15.923828 18.761719 C 15.790828 19.449719 15.471156 20.062172 15.035156 20.576172 C 15.876156 20.853172 16.662188 21 17.367188 21 C 18.457187 21 19.361625 20.669625 20.015625 20.015625 C 21.179625 18.851625 21.316437 16.897719 20.398438 14.511719 C 20.083437 13.692719 19.652953 12.847 19.126953 12 C 19.652953 11.153 20.083437 10.307281 20.398438 9.4882812 C 21.315438 7.1022812 21.179625 5.148375 20.015625 3.984375 C 19.3425 3.311875 18.404619 2.9874414 17.271484 3.0097656 z M 12 4 A 2 2 0 0 0 10 6 A 2 2 0 0 0 12 8 A 2 2 0 0 0 14 6 A 2 2 0 0 0 12 4 z M 12 16 A 2 2 0 0 0 10 18 A 2 2 0 0 0 12 20 A 2 2 0 0 0 14 18 A 2 2 0 0 0 12 16 z"/>
</svg>
