<?xml version="1.0"?>
<svg xmlns="http://www.w3.org/2000/svg" viewBox="0 0 24 24">
    <path d="M 4.75 1.5507812 L 1.5507812 4.75 L 5.8007812 9 L 7.1367188 9.6367188 L 9.6367188 7.1367188 L 9 5.8007812 L 4.75 1.5507812 z M 20.292969 2.2929688 L 16.623047 5.9628906 C 17.186047 6.3488906 17.661109 6.8279531 18.037109 7.3769531 L 21.707031 3.7070312 L 20.292969 2.2929688 z M 13.900391 7 C 13.100391 7 12.299219 7.3003906 11.699219 7.9003906 L 7 12.599609 L 11.400391 17 L 16.099609 12.300781 C 17.299609 11.100781 17.299609 9.1003906 16.099609 7.9003906 C 15.499609 7.3003906 14.700391 7 13.900391 7 z M 16.875 14.353516 L 14.431641 16.796875 L 15.099609 18.199219 L 19.349609 22.449219 L 22.464844 19.335938 L 18.300781 15.099609 L 16.875 14.353516 z M 6.9414062 15.644531 L 2.2929688 20.292969 L 3.7070312 21.707031 L 8.3554688 17.058594 L 6.9414062 15.644531 z"/>
</svg>
