<?xml version="1.0"?>
<svg xmlns="http://www.w3.org/2000/svg" viewBox="0 0 24 24">
    <path d="M 12 2 A 2 2 0 0 0 10 4 A 2 2 0 0 0 12 6 A 2 2 0 0 0 14 4 A 2 2 0 0 0 12 2 z M 18.5 5 A 2.5 2.5 0 0 0 16 7.5 A 2.5 2.5 0 0 0 18.5 10 A 2.5 2.5 0 0 0 21 7.5 A 2.5 2.5 0 0 0 18.5 5 z M 5.5 5.1992188 A 1.8 1.8 0 0 0 3.6992188 7 A 1.8 1.8 0 0 0 5.5 8.8007812 A 1.8 1.8 0 0 0 7.3007812 7 A 1.8 1.8 0 0 0 5.5 5.1992188 z M 3.5 11 A 1.5 1.5 0 0 0 2 12.5 A 1.5 1.5 0 0 0 3.5 14 A 1.5 1.5 0 0 0 5 12.5 A 1.5 1.5 0 0 0 3.5 11 z M 19 13 A 3 3 0 0 0 16 16 A 3 3 0 0 0 19 19 A 3 3 0 0 0 22 16 A 3 3 0 0 0 19 13 z M 5 16.800781 A 1.2 1.2 0 0 0 3.8007812 18 A 1.2 1.2 0 0 0 5 19.199219 A 1.2 1.2 0 0 0 6.1992188 18 A 1.2 1.2 0 0 0 5 16.800781 z M 10 20 A 1 1 0 0 0 9 21 A 1 1 0 0 0 10 22 A 1 1 0 0 0 11 21 A 1 1 0 0 0 10 20 z"/>
</svg>
