<?xml version="1.0"?>
<svg xmlns="http://www.w3.org/2000/svg" viewBox="0 0 24 24">
    <path d="M 3 3 L 3 21 L 16.171875 21 L 13.667969 18.494141 C 13.054969 18.904141 12.280031 19.096125 11.457031 18.953125 C 10.246031 18.741125 9.253875 17.747156 9.046875 16.535156 C 8.721875 14.637156 10.165 13 12 13 L 17 13 C 17.53 13 18.039062 13.210937 18.414062 13.585938 L 21 16.171875 L 21 7 L 17 3 L 3 3 z M 5 5 L 15 5 L 15 9 L 5 9 L 5 5 z M 15 15 L 15 17 L 20.146484 22.146484 L 22.146484 20.146484 L 17 15 L 15 15 z M 22.853516 20.853516 L 20.853516 22.853516 L 22 24 L 24 22 L 22.853516 20.853516 z"/>
</svg>
