<?xml version="1.0"?>
<svg xmlns="http://www.w3.org/2000/svg" viewBox="0 0 24 24">
    <path d="M 4 2 L 4 22 L 12 22 L 12 15 C 10.343 15 9 13.657 9 12 C 9 10.343 11 8 11 8 L 13 8 C 13 8 15 10.343 15 12 L 20 12 L 20 2 L 13 2 L 13 4 L 11 4 L 11 2 L 4 2 z M 11 5 L 13 5 L 13 7 L 11 7 L 11 5 z M 12 11 A 1 1 0 0 0 11 12 A 1 1 0 0 0 12 13 A 1 1 0 0 0 13 12 A 1 1 0 0 0 12 11 z M 14 14 L 14 24 L 24 24 L 24 17 L 21 14 L 14 14 z M 16 16 L 20 16 L 20 18 L 16 18 L 16 16 z M 19 19.5 C 19.828 19.5 20.5 20.172 20.5 21 C 20.5 21.828 19.828 22.5 19 22.5 C 18.172 22.5 17.5 21.828 17.5 21 C 17.5 20.172 18.172 19.5 19 19.5 z"/>
</svg>
