<?xml version="1.0"?>
<svg xmlns="http://www.w3.org/2000/svg" viewBox="0 0 24 24">
    <path d="M 3 3 L 3 21 L 10.587891 21 C 10.239891 20.142 10.039719 19.208422 10.011719 18.232422 C 9.3947187 17.683422 9 16.893 9 16 C 9 14.429 10.204234 13.158391 11.740234 13.025391 C 13.206234 11.183391 15.463 10 18 10 C 19.062 10 20.073 10.211891 21 10.587891 L 21 7 L 17 3 L 3 3 z M 5 5 L 15 5 L 15 9 L 5 9 L 5 5 z M 18 12 C 14.7 12 12 14.7 12 18 C 12 21.3 14.7 24 18 24 C 21.3 24 24 21.3 24 18 C 24 14.7 21.3 12 18 12 z M 20.800781 15.300781 L 22.199219 16.699219 L 17.5 21.400391 L 14.300781 18.199219 L 15.699219 16.800781 L 17.5 18.599609 L 20.800781 15.300781 z"/>
</svg>
