<?xml version="1.0"?>
<svg xmlns="http://www.w3.org/2000/svg" viewBox="0 0 24 24">
    <path d="M 12 2 C 7.59 2 4 5.59 4 10 L 4 11.769531 C 3.37 12.329531 3 13.14 3 14 C 3 15.28 3.8202344 16.400313 4.9902344 16.820312 C 6.4002344 20.030313 9.04 22 12 22 C 14.96 22 17.599766 20.030313 19.009766 16.820312 C 20.179766 16.400312 21 15.28 21 14 C 21 13.14 20.63 12.329531 20 11.769531 L 20 10 C 20 5.59 16.41 2 12 2 z M 7 10 L 17 10 C 17.55 10 18 10.45 18 11 L 18 12.849609 L 18.5 13.140625 C 18.81 13.320625 19 13.64 19 14 C 19 14.49 18.630625 14.910469 18.140625 14.980469 L 17.550781 15.060547 L 17.339844 15.609375 C 16.299844 18.319375 14.26 20 12 20 C 9.74 20 7.7001563 18.319375 6.6601562 15.609375 L 6.4492188 15.060547 L 5.859375 14.980469 C 5.369375 14.910469 5 14.49 5 14 C 5 13.64 5.19 13.320625 5.5 13.140625 L 6 12.849609 L 6 11 C 6 10.45 6.45 10 7 10 z M 9 12 A 2 2 0 0 0 7 14 A 2 2 0 0 0 9 16 A 2 2 0 0 0 10.730469 15 L 13.271484 15 A 2 2 0 0 0 15 16 A 2 2 0 0 0 17 14 A 2 2 0 0 0 15 12 A 2 2 0 0 0 13.269531 13 L 10.728516 13 A 2 2 0 0 0 9 12 z"/>
</svg>
