<?xml version="1.0"?>
<svg xmlns="http://www.w3.org/2000/svg" viewBox="0 0 24 24">
    <path d="M 18.646484 3 A 2 2 0 0 0 16.646484 5 A 2 2 0 0 0 18.646484 7 A 2 2 0 0 0 20.646484 5 A 2 2 0 0 0 18.646484 3 z M 8.6464844 4 A 2 2 0 0 0 6.6464844 6 A 2 2 0 0 0 8.6464844 8 A 2 2 0 0 0 10.646484 6 A 2 2 0 0 0 8.6464844 4 z M 17.330078 7.9453125 C 16.940078 7.9073125 16.546266 7.9772969 16.197266 8.1542969 C 15.947266 8.2812969 14.205078 9.546875 14.205078 9.546875 C 13.753063 9.8559634 12.340449 11.686446 11.365234 12.970703 L 10.873047 12.71875 C 10.702047 12.63175 10.702828 12.631484 10.548828 12.521484 L 10.011719 14.525391 L 12.087891 15.587891 C 12.087891 15.587891 14.909078 11.487219 15.330078 11.199219 C 15.330078 11.199219 15.837953 10.876734 16.376953 10.552734 C 16.376953 10.552734 15.872109 11.667281 15.787109 12.113281 C 15.466109 13.792281 15.636906 14.197516 16.128906 14.853516 C 16.628906 15.520516 18.076172 17.804687 18.076172 17.804688 L 19.771484 22 L 21.753906 22 L 19.822266 17.023438 L 18.912109 14.658203 L 19.949219 9.9121094 C 20.087219 9.1541094 19.625391 8.4318437 18.900391 8.2148438 L 17.330078 7.9453125 z M 7.3300781 8.9453125 C 6.9400781 8.9073125 6.5462656 8.9772969 6.1972656 9.1542969 C 5.9472656 9.2812969 4.2050781 10.546875 4.2050781 10.546875 C 3.5630781 10.985875 1.6484375 13.597656 1.6484375 13.597656 L 3.3261719 14.6875 C 3.3261719 14.6875 4.9090781 12.487219 5.3300781 12.199219 C 5.3300781 12.199219 5.8379531 11.876734 6.3769531 11.552734 C 6.3769531 11.552734 5.8721094 12.667281 5.7871094 13.113281 C 5.4661094 14.792281 5.6369062 15.197516 6.1289062 15.853516 C 6.6289062 16.520516 8.0761719 18.804688 8.0761719 18.804688 L 9.7714844 22 L 11.753906 22 L 9.8222656 18.023438 L 8.9121094 15.658203 L 9.9492188 10.912109 C 10.087219 10.154109 9.6253906 9.4318437 8.9003906 9.2148438 L 7.3300781 8.9453125 z M 20.548828 11.521484 L 20.011719 13.525391 L 22.087891 14.587891 L 23 12.808594 L 20.873047 11.71875 C 20.702047 11.63175 20.702828 11.631484 20.548828 11.521484 z M 15.837891 16.429688 L 13.763672 22 L 15.763672 22 L 17.146484 18.298828 L 15.837891 16.429688 z M 5.8378906 17.429688 L 3.7636719 22 L 5.7636719 22 L 7.1464844 19.298828 L 5.8378906 17.429688 z"/>
</svg>
