<?xml version="1.0"?>
<svg xmlns="http://www.w3.org/2000/svg" viewBox="0 0 24 24">
    <path style="line-height:normal;text-indent:0;text-align:start;text-decoration-line:none;text-decoration-style:solid;text-decoration-color:#000;text-transform:none;block-progression:tb;isolation:auto;mix-blend-mode:normal" d="M 2 3 L 2 5 L 4 5 L 4 10 L 2 10 L 2 18 L 11.050781 18 C 11.298177 19.685411 12.750067 21 14.5 21 C 16.249933 21 17.701823 19.685411 17.949219 18 L 21 18 L 21 10 L 16 10 L 16 3 L 2 3 z M 6 5 L 9 5 L 9 10 L 6 10 L 6 5 z M 11 5 L 14 5 L 14 10 L 11 10 L 11 5 z M 14.5 16 C 15.340272 16 16 16.659728 16 17.5 C 16 18.340272 15.340272 19 14.5 19 C 13.659728 19 13 18.340272 13 17.5 C 13 16.659728 13.659728 16 14.5 16 z" font-weight="400" font-family="sans-serif" white-space="normal" overflow="visible"/>
</svg>
