<?xml version="1.0"?>
<svg xmlns="http://www.w3.org/2000/svg" viewBox="0 0 24 24">
    <path d="M 12 3 C 8.69 3 6 5.47 6 8.5 C 6 10.93 11.39 11 12 11 C 12.61 11 18 10.93 18 8.5 C 18 5.47 15.31 3 12 3 z M 4.0996094 7.3007812 C 1.4696094 8.3107813 0 9.79 0 11.5 C 0 13.331 1.631 14.72725 4 15.65625 L 4 20 L 6 20 L 6 16.287109 C 7.555 16.679109 9.274 16.915469 11 16.980469 L 11 21 L 13 21 L 13 16.978516 C 14.726 16.913516 16.445 16.679109 18 16.287109 L 18 20 L 20 20 L 20 15.65625 C 22.369 14.72725 24 13.331 24 11.5 C 24 9.79 22.530391 8.3107813 19.900391 7.3007812 C 19.960391 7.6907813 20 8.09 20 8.5 C 20 11.32 17.01 13 12 13 C 6.99 13 4 11.32 4 8.5 C 4 8.09 4.0396094 7.6907813 4.0996094 7.3007812 z"/>
</svg>
