<?xml version="1.0"?>
<svg xmlns="http://www.w3.org/2000/svg" viewBox="0 0 24 24">
    <path style="line-height:normal;text-indent:0;text-align:start;text-decoration-line:none;text-decoration-style:solid;text-decoration-color:#000;text-transform:none;block-progression:tb;isolation:auto;mix-blend-mode:normal" d="M 4 3 L 4 5 L 20 5 L 20 3 L 4 3 z M 6.6992188 7 L 9.6992188 9 L 5.1992188 12 L 9.6992188 15 L 6.6992188 17 L 10.300781 17 L 11.5 16.199219 L 12.699219 17 L 16.300781 17 L 13.300781 15 L 17.800781 12 L 13.300781 9 L 16.300781 7 L 12.699219 7 L 11.5 7.8007812 L 10.300781 7 L 6.6992188 7 z M 11.5 10.199219 L 14.199219 12 L 11.5 13.800781 L 8.8007812 12 L 11.5 10.199219 z M 4 19 L 4 21 L 20 21 L 20 19 L 4 19 z" font-weight="400" font-family="sans-serif" white-space="normal" overflow="visible"/>
</svg>
