<?xml version="1.0"?>
<svg xmlns="http://www.w3.org/2000/svg" viewBox="0 0 24 24">
    <path d="M 16 3 L 16 4.5 L 16 5 L 14 5 L 14 7 L 16.310547 7 L 16.519531 7.5605469 L 12.619141 11 L 9 11 L 9 9 L 12 9 L 12 7 L 2 7 L 2 9 L 4 9 L 1 14 L 1.5292969 14.716797 C 1.2147614 15.241921 1.0234375 15.848318 1.0234375 16.5 C 1.0234375 18.418558 2.5945875 20 4.5117188 20 C 6.2579417 20 7.7029312 18.683767 7.9492188 17 L 16.074219 17 C 16.320506 18.683767 17.765496 20 19.511719 20 C 21.42885 20 23 18.418558 23 16.5 C 23 15.033786 22.079411 13.770945 20.791016 13.253906 L 20.695312 13 L 23 13 L 23 11 L 19.945312 11 L 18.070312 6 L 20 6 L 20 3 L 16 3 z M 4.5117188 15 C 5.3427564 15 6 15.657134 6 16.5 C 6 17.342866 5.3427564 18 4.5117188 18 C 3.6806811 18 3.0234375 17.342866 3.0234375 16.5 C 3.0234375 15.657134 3.6806811 15 4.5117188 15 z M 19.511719 15 C 20.342756 15 21 15.657134 21 16.5 C 21 17.342866 20.342756 18 19.511719 18 C 18.680681 18 18.023438 17.342866 18.023438 16.5 C 18.023438 15.657134 18.680681 15 19.511719 15 z"/>
</svg>
