<?xml version="1.0"?>
<svg xmlns="http://www.w3.org/2000/svg" viewBox="0 0 24 24">
    <path d="M 3 3 L 3 5 L 5 5 L 5 3 L 3 3 z M 7 3 L 7 5 L 9 5 L 9 3 L 7 3 z M 11 3 L 11 5 L 13 5 L 13 3 L 11 3 z M 15 3 L 15 5 L 17 5 L 17 3 L 15 3 z M 19 3 L 19 5 L 21 5 L 21 3 L 19 3 z M 3 7 L 3 9 L 5 9 L 5 7 L 3 7 z M 19 7 L 19 9 L 21 9 L 21 7 L 19 7 z M 12 9 L 10.666016 11 L 7 11 L 7 21 L 21 21 L 21 11 L 17.333984 11 L 16 9 L 12 9 z M 3 11 L 3 13 L 5 13 L 5 11 L 3 11 z M 14 13 C 15.657 13 17 14.343 17 16 C 17 17.657 15.657 19 14 19 C 12.343 19 11 17.657 11 16 C 11 14.343 12.343 13 14 13 z M 3 15 L 3 17 L 5 17 L 5 15 L 3 15 z M 3 19 L 3 21 L 5 21 L 5 19 L 3 19 z"/>
</svg>
