<?xml version="1.0"?>
<svg xmlns="http://www.w3.org/2000/svg" viewBox="0 0 24 24">
    <path d="M 10 2 C 5.5935666 2 2 5.5935666 2 10 C 2 14.406433 5.5935666 18 10 18 C 12.023929 18 13.871701 17.237039 15.283203 15.990234 L 16 16.707031 L 16 18 L 20 22 L 22 20 L 18 16 L 16.707031 16 L 15.990234 15.283203 C 17.237039 13.871701 18 12.023929 18 10 C 18 5.5935666 14.406433 2 10 2 z M 10 4 C 13.325553 4 16 6.6744469 16 10 C 16 13.325553 13.325553 16 10 16 C 6.6744469 16 4 13.325553 4 10 C 4 6.6744469 6.6744469 4 10 4 z M 8.125 7 C 6.951 7 6 7.951 6 9.125 C 6 11 10 14 10 14 C 10 14 14 11 14 9.125 C 14 7.951 13.049 7 11.875 7 C 11.057 7 10.355 7.4665313 10 8.1445312 C 9.645 7.4665313 8.943 7 8.125 7 z"/>
</svg>
