<?xml version="1.0"?>
<svg xmlns="http://www.w3.org/2000/svg" viewBox="0 0 24 24">
    <path d="M 2 4 L 2 20 L 11.294922 20 C 10.966922 18.9 10.890734 17.690641 11.177734 16.431641 C 11.791734 13.735641 14.006516 11.595281 16.728516 11.113281 C 18.699516 10.764281 20.549 11.246766 22 12.259766 L 22 6 L 12 6 L 10 4 L 2 4 z M 18 13 C 15.2 13 13 15.2 13 18 C 13 20.8 15.2 23 18 23 C 19 23 20.000781 22.699219 20.800781 22.199219 L 22.599609 24 L 24 22.599609 L 22.199219 20.800781 C 22.699219 20.000781 23 19 23 18 C 23 15.2 20.8 13 18 13 z M 18 15 C 19.7 15 21 16.3 21 18 C 21 19.7 19.7 21 18 21 C 16.3 21 15 19.7 15 18 C 15 16.3 16.3 15 18 15 z"/>
</svg>
