<?xml version="1.0"?>
<svg xmlns="http://www.w3.org/2000/svg" viewBox="0 0 24 24">
    <path d="M 3 3 L 3 6 L 3 7 L 3 21 L 11.683594 21 C 11.387594 20.378 11.181078 19.707 11.080078 19 L 5 19 L 5 7 L 19 7 L 19 11.078125 C 19.707 11.179125 20.378 11.385641 21 11.681641 L 21 7 L 21 6 L 21 3 L 3 3 z M 7 10 L 7 12 L 9 12 L 9 10 L 7 10 z M 11 10 L 11 12 L 17 12 L 17 10 L 11 10 z M 18 13 C 15.2 13 13 15.2 13 18 C 13 20.8 15.2 23 18 23 C 19 23 20.000781 22.699219 20.800781 22.199219 L 22.599609 24 L 24 22.599609 L 22.199219 20.800781 C 22.699219 20.000781 23 19 23 18 C 23 15.2 20.8 13 18 13 z M 7 14 L 7 16 L 9 16 L 9 14 L 7 14 z M 18 15 C 19.7 15 21 16.3 21 18 C 21 19.7 19.7 21 18 21 C 16.3 21 15 19.7 15 18 C 15 16.3 16.3 15 18 15 z"/>
</svg>
