<?xml version="1.0"?>
<svg xmlns="http://www.w3.org/2000/svg" viewBox="0 0 24 24">
    <path d="M 0 6 L 0 18 L 24 18 L 24 6 L 0 6 z M 17.5 8 C 19.43 8 21 9.57 21 11.5 C 21 12.101 20.834406 12.658344 20.566406 13.152344 L 22.207031 14.792969 L 20.792969 16.207031 L 19.152344 14.566406 C 18.658344 14.834406 18.101 15 17.5 15 C 15.57 15 14 13.43 14 11.5 C 14 9.57 15.57 8 17.5 8 z M 17.5 9.625 A 1.875 1.875 0 0 0 15.625 11.5 A 1.875 1.875 0 0 0 17.5 13.375 A 1.875 1.875 0 0 0 19.375 11.5 A 1.875 1.875 0 0 0 17.5 9.625 z"/>
</svg>
