<?xml version="1.0"?>
<svg xmlns="http://www.w3.org/2000/svg" viewBox="0 0 24 24">
    <path d="M 2 4 L 2 20 L 14 20 L 14 16.720703 L 15.007812 16.720703 C 15.148813 14.051703 17.29 12 20 12 C 20.717 12 21.389 12.151109 22 12.412109 L 22 4 L 2 4 z M 4 6 L 12 11 L 20 6 L 20 8 L 12 13 L 4 8 L 4 6 z M 20.089844 14.001953 C 18.345844 13.954953 17 15.27 17 17 L 17 18 L 16 18 L 16 24 L 24 24 L 24 18 L 23 18 L 23 17.115234 C 23 15.474234 21.730844 14.046953 20.089844 14.001953 z M 20 15.5 C 20.8 15.5 21.5 16.2 21.5 17 L 21.5 18 L 18.5 18 L 18.5 17 C 18.5 16.2 19.2 15.5 20 15.5 z"/>
</svg>
