<?xml version="1.0"?>
<svg xmlns="http://www.w3.org/2000/svg" viewBox="0 0 24 24">
    <path d="M 5.3261719 3 L 2.765625 9.3691406 L 0 10.332031 L 0 12.439453 L 0 18 L 2.5566406 18 C 3.250559 19.189336 4.5262211 20 6 20 C 7.4737789 20 8.749441 19.189336 9.4433594 18 L 12.556641 18 C 13.250559 19.189336 14.526221 20 16 20 C 17.473779 20 18.749441 19.189336 19.443359 18 L 23 18 L 23 10.183594 L 18.552734 9.2910156 L 13.478516 3 L 12.039062 3 L 5.3261719 3 z M 6.6777344 5 L 9 5 L 9 9 L 5.0703125 9 L 6.6777344 5 z M 11 5 L 12.039062 5 L 12.521484 5 L 15.746094 9 L 11 9 L 11 5 z M 6 14 C 7.103 14 8 14.897 8 16 C 8 17.103 7.103 18 6 18 C 4.897 18 4 17.103 4 16 C 4 14.897 4.897 14 6 14 z M 16 14 C 17.103 14 18 14.897 18 16 C 18 17.103 17.103 18 16 18 C 14.897 18 14 17.103 14 16 C 14 14.897 14.897 14 16 14 z"/>
</svg>
