<?xml version="1.0"?>
<svg xmlns="http://www.w3.org/2000/svg" viewBox="0 0 24 24">
    <path style="line-height:normal;text-indent:0;text-align:start;text-decoration-line:none;text-decoration-style:solid;text-decoration-color:#000;text-transform:none;block-progression:tb;isolation:auto;mix-blend-mode:normal" d="M 6.9042969 2.9609375 L 4.1289062 4.0722656 L 4.8710938 5.9277344 L 7.0957031 5.0390625 L 11 5.8203125 L 11 9 L 13 9 L 13 5.8203125 L 16.904297 5.0390625 L 19.128906 5.9277344 L 19.871094 4.0722656 L 17.095703 2.9609375 L 12 3.9804688 L 6.9042969 2.9609375 z M 11 11 L 11 17 L 7 17 L 7 14 L 5 14 L 5 22 L 7 22 L 7 19 L 17 19 L 17 22 L 19 22 L 19 14 L 17 14 L 17 17 L 13 17 L 13 11 L 11 11 z"/>
</svg>
