<?xml version="1.0"?>
<svg xmlns="http://www.w3.org/2000/svg" viewBox="0 0 24 24">
    <path style="line-height:normal;text-indent:0;text-align:start;text-decoration-line:none;text-decoration-style:solid;text-decoration-color:#000;text-transform:none;block-progression:tb;isolation:auto;mix-blend-mode:normal" d="M 5 3 C 3.9069372 3 3 3.9069372 3 5 L 3 7 L 5 7 L 5 5 L 7 5 L 7 3 L 5 3 z M 9 3 L 9 5 L 11 5 L 11 3 L 9 3 z M 13 3 L 13 5 L 15 5 L 15 3 L 13 3 z M 17 3 L 17 5 L 19 5 L 19 7 L 21 7 L 21 5 C 21 3.9069372 20.093063 3 19 3 L 17 3 z M 3 9 L 3 11 L 5 11 L 5 9 L 3 9 z M 19 9 L 19 11 L 21 11 L 21 9 L 19 9 z M 20.990234 12.884766 L 18.990234 12.894531 L 19 15.003906 L 21 14.996094 L 20.990234 12.884766 z M 3 13 L 3 15 L 5 15 L 5 13 L 3 13 z M 3 17 L 3 19 C 3 20.093063 3.9069372 21 5 21 L 7 21 L 7 19 L 5 19 L 5 17 L 3 17 z M 19 17 L 19 19 L 17 19 L 17 21 L 19 21 C 20.093063 21 21 20.093063 21 19 L 21 17 L 19 17 z M 9 19 L 9 21 L 11 21 L 11 19 L 9 19 z M 13 19 L 13 21 L 15 21 L 15 19 L 13 19 z"/>
</svg>
