<?xml version="1.0"?>
<svg xmlns="http://www.w3.org/2000/svg" viewBox="0 0 24 24">
    <path style="line-height:normal;text-indent:0;text-align:start;text-decoration-line:none;text-decoration-style:solid;text-decoration-color:#000;text-transform:none;block-progression:tb;isolation:auto;mix-blend-mode:normal" d="M 4 2 L 4 3 L 4 22 L 20 22 L 20 2 L 4 2 z M 6 4 L 18 4 L 18 20 L 6 20 L 6 4 z M 11 6 L 11 8 L 8 8 L 8 10 L 11 10 L 11 14 L 8 14 L 8 16 L 11 16 L 11 18 L 13 18 L 13 16 L 16 16 L 16 14 L 13 14 L 13 10 L 16 10 L 16 8 L 13 8 L 13 6 L 11 6 z" font-weight="400" font-family="sans-serif" white-space="normal" overflow="visible"/>
</svg>
