<?xml version="1.0"?>
<svg xmlns="http://www.w3.org/2000/svg" viewBox="0 0 24 24">
    <path style="line-height:normal;text-indent:0;text-align:start;text-decoration-line:none;text-decoration-style:solid;text-decoration-color:#000;text-transform:none;block-progression:tb;isolation:auto;mix-blend-mode:normal" d="M 4 2 L 4 3 L 4 9 L 20 9 L 20 2 L 4 2 z M 6 4 L 18 4 L 18 7 L 13 7 L 13 6 L 11 6 L 11 7 L 6 7 L 6 4 z M 4 11 L 4 22 L 20 22 L 20 11 L 18 11 L 18 14 L 13 14 L 13 11 L 11 11 L 11 14 L 6 14 L 6 11 L 4 11 z M 6 16 L 11 16 L 11 20 L 6 20 L 6 16 z M 13 16 L 18 16 L 18 20 L 13 20 L 13 16 z" font-weight="400" font-family="sans-serif" white-space="normal" overflow="visible"/>
</svg>
