<?xml version="1.0"?>
<svg xmlns="http://www.w3.org/2000/svg" viewBox="0 0 24 24">
    <path style="line-height:normal;text-indent:0;text-align:start;text-decoration-line:none;text-decoration-style:solid;text-decoration-color:#000;text-transform:none;block-progression:tb;isolation:auto;mix-blend-mode:normal" d="M 4 2 L 4 22 L 14 22 L 14 17 L 18 17 L 18 14 L 20 14 L 20 2 L 4 2 z M 10 5 L 14 5 L 14 6 L 17 6 L 17 8 L 7 8 L 7 6 L 10 6 L 10 5 z M 7 10 L 11 10 L 11 11 L 13 11 L 13 10 L 17 10 L 17 13 L 7 13 L 7 10 z M 20 16 L 20 19 L 16 19 L 16 21 L 20 21 L 20 24 L 24 20 L 20 16 z" font-weight="400" font-family="sans-serif" white-space="normal" overflow="visible"/>
</svg>
