<?xml version="1.0"?>
<svg xmlns="http://www.w3.org/2000/svg" viewBox="0 0 24 24">
    <path style="line-height:normal;text-indent:0;text-align:start;text-decoration-line:none;text-decoration-style:solid;text-decoration-color:#000;text-transform:none;block-progression:tb;isolation:auto;mix-blend-mode:normal" d="M 1 3 L 1 5 L 1 18 L 3 18 L 3 5 L 19 5 L 19 3 L 3 3 L 1 3 z M 4.9667969 7 L 4.9667969 7.1777344 L 13.966797 12.875 L 22.966797 7.125 L 22.966797 7 L 4.9667969 7 z M 23 9.2832031 L 14 15 L 5 9.4160156 L 5 21 L 14 21 L 14 17 L 18 17 L 18 14 L 20.828125 14 L 23 16.171875 L 23 9.2832031 z M 20 16 L 20 19 L 16 19 L 16 21 L 20 21 L 20 24 L 24 20 L 20 16 z" font-weight="400" font-family="sans-serif" white-space="normal" overflow="visible"/>
</svg>
