<?xml version="1.0"?>
<svg xmlns="http://www.w3.org/2000/svg" viewBox="0 0 24 24">
    <path d="M 6.7773438 4 L 0.55664062 20 L 2.5566406 20 L 4.1113281 16 L 11.445312 16 L 13 20 L 15 20 L 8.7773438 4 L 6.7773438 4 z M 7.7773438 6.5722656 L 10.666016 14 L 4.8886719 14 L 7.7773438 6.5722656 z M 19 12 C 17.35503 12 16 13.35503 16 15 L 16 16 L 16 17 L 16 18 L 16.416016 18 C 16.85942 19.106694 17.743378 20 19 20 C 19.768584 20 20.466647 19.695875 21 19.212891 C 21.533353 19.695875 22.231416 20 23 20 L 23 18 C 22.43497 18 22 17.56503 22 17 L 22 16 L 22 15 C 22 13.35503 20.64497 12 19 12 z M 19 14 C 19.56503 14 20 14.43497 20 15 L 20 16 L 20 17 C 20 17.56503 19.56503 18 19 18 C 18.43497 18 18 17.56503 18 17 L 18 16 L 18 15 C 18 14.43497 18.43497 14 19 14 z"/>
</svg>
