<?xml version="1.0"?>
<svg xmlns="http://www.w3.org/2000/svg" viewBox="0 0 24 24">
    <path style="line-height:normal;text-indent:0;text-align:start;text-decoration-line:none;text-decoration-style:solid;text-decoration-color:#000;text-transform:none;block-progression:tb;isolation:auto;mix-blend-mode:normal" d="M 3 3 L 3 9 L 9 9 L 9 7 L 15.173828 7 A 3 3 0 0 0 17 8.8242188 L 17 15 L 15 15 L 15 17 L 9 17 L 9 15 L 3 15 L 3 21 L 9 21 L 9 19 L 15 19 L 15 21 L 21 21 L 21 15 L 19 15 L 19 8.8261719 A 3 3 0 0 0 21 6 A 3 3 0 0 0 18 3 A 3 3 0 0 0 15.175781 5 L 9 5 L 9 3 L 3 3 z" font-weight="400" font-family="sans-serif" white-space="normal" overflow="visible"/>
</svg>
