<?xml version="1.0"?>
<svg xmlns="http://www.w3.org/2000/svg" viewBox="0 0 24 24">
    <path d="M 12 2 L 12 3.1425781 C 11.275096 3.330346 10.629093 3.7056502 10.125 4.2285156 L 9.1367188 3.671875 L 8.1542969 5.4140625 L 9.1503906 5.9746094 C 9.062763 6.3037475 9 6.6432792 9 7 C 9 7.3567208 9.062763 7.6962525 9.1503906 8.0253906 L 8.1542969 8.5859375 L 9.1367188 10.328125 L 10.125 9.7714844 C 10.629093 10.29435 11.275096 10.669654 12 10.857422 L 12 12 L 14 12 L 14 10.857422 C 14.724904 10.669654 15.370907 10.29435 15.875 9.7714844 L 16.863281 10.328125 L 17.845703 8.5859375 L 16.849609 8.0253906 C 16.937237 7.6962525 17 7.3567208 17 7 C 17 6.6447947 16.938472 6.3063965 16.851562 5.9785156 L 17.847656 5.4160156 L 16.865234 3.6738281 L 15.876953 4.2304688 C 15.37258 3.7065968 14.725819 3.3305831 14 3.1425781 L 14 2 L 12 2 z M 13 5.5 C 13.828 5.5 14.5 6.172 14.5 7 C 14.5 7.828 13.828 8.5 13 8.5 C 12.172 8.5 11.5 7.828 11.5 7 C 11.5 6.172 12.172 5.5 13 5.5 z M 20 12 L 15 17 L 11 17 L 11 16 L 15 16 L 15 13 L 7 13 L 2 18 L 6 22 L 8 20 L 15.171875 20 C 15.701875 20 16.210937 19.789062 16.585938 19.414062 L 22 14 L 20 12 z"/>
</svg>
