<?xml version="1.0"?>
<svg xmlns="http://www.w3.org/2000/svg" viewBox="0 0 24 24">
    <path d="M 2 2 L 2 22 L 11.259766 22 C 10.467766 20.866 10 19.488 10 18 C 10 16.512 10.467766 15.134 11.259766 14 L 4 14 L 4 4 L 12 4 L 12 13.105469 C 12.574 12.519469 13.251 12.040594 14 11.683594 L 14 2 L 2 2 z M 6 6 L 6 8 L 10 8 L 10 6 L 6 6 z M 6 10 L 6 12 L 10 12 L 10 10 L 6 10 z M 16 13 L 16 18 L 18 18 L 18 13 L 16 13 z M 14 14.025391 C 12.793 14.939391 12 16.374 12 18 C 12 20.757 14.243 23 17 23 C 19.757 23 22 20.757 22 18 C 22 16.373 21.207 14.938391 20 14.025391 L 20 18 C 20 19.654 18.654 21 17 21 C 15.346 21 14 19.654 14 18 L 14 14.025391 z M 8 16.75 C 8.69 16.75 9.25 17.31 9.25 18 C 9.25 18.69 8.69 19.25 8 19.25 C 7.31 19.25 6.75 18.69 6.75 18 C 6.75 17.31 7.31 16.75 8 16.75 z"/>
</svg>
