<?xml version="1.0"?>
<svg xmlns="http://www.w3.org/2000/svg" viewBox="0 0 24 24">
    <path d="M 15.837891 2 L 15.693359 3.2363281 C 15.210047 3.4043168 14.773437 3.6602018 14.394531 3.9882812 L 13.251953 3.4941406 L 12.089844 5.5058594 L 13.078125 6.2402344 C 13.030702 6.4865104 13 6.7398913 13 7 C 13 7.2601087 13.030702 7.5134896 13.078125 7.7597656 L 12.089844 8.4941406 L 13.251953 10.505859 L 14.394531 10.011719 C 14.773437 10.339798 15.210047 10.595683 15.693359 10.763672 L 15.837891 12 L 18.162109 12 L 18.306641 10.763672 C 18.789953 10.595683 19.226563 10.339798 19.605469 10.011719 L 20.748047 10.505859 L 21.910156 8.4941406 L 20.921875 7.7597656 C 20.969298 7.5134896 21 7.2601087 21 7 C 21 6.7398913 20.969298 6.4865104 20.921875 6.2402344 L 21.910156 5.5058594 L 20.748047 3.4941406 L 19.605469 3.9882812 C 19.226563 3.6602018 18.789953 3.4043168 18.306641 3.2363281 L 18.162109 2 L 15.837891 2 z M 17 5.25 C 17.966 5.25 18.75 6.034 18.75 7 C 18.75 7.967 17.966 8.75 17 8.75 C 16.034 8.75 15.25 7.967 15.25 7 C 15.25 6.034 16.034 5.25 17 5.25 z M 6.8378906 9 L 6.6386719 10.710938 C 5.8318177 10.940482 5.1025295 11.35085 4.5175781 11.919922 L 2.9511719 11.244141 L 1.7890625 13.255859 L 3.1679688 14.279297 C 3.0687954 14.672064 3 15.076469 3 15.5 C 3 15.923531 3.0687954 16.327936 3.1679688 16.720703 L 1.7890625 17.744141 L 2.9511719 19.755859 L 4.5175781 19.080078 C 5.1025295 19.64915 5.8318177 20.059518 6.6386719 20.289062 L 6.8378906 22 L 9.1621094 22 L 9.3613281 20.289062 C 10.168182 20.059518 10.89747 19.64915 11.482422 19.080078 L 13.048828 19.755859 L 14.210938 17.744141 L 12.832031 16.720703 C 12.931205 16.327936 13 15.923531 13 15.5 C 13 15.076469 12.931205 14.672064 12.832031 14.279297 L 14.210938 13.255859 L 13.048828 11.244141 L 11.482422 11.919922 C 10.89747 11.35085 10.168182 10.940482 9.3613281 10.710938 L 9.1621094 9 L 6.8378906 9 z M 8 13.5 C 9.105 13.5 10 14.395 10 15.5 C 10 16.605 9.105 17.5 8 17.5 C 6.895 17.5 6 16.605 6 15.5 C 6 14.395 6.895 13.5 8 13.5 z"/>
</svg>
