<?xml version="1.0"?>
<svg xmlns="http://www.w3.org/2000/svg" viewBox="0 0 24 24">
    <path style="line-height:normal;text-indent:0;text-align:start;text-decoration-line:none;text-decoration-style:solid;text-decoration-color:#000;text-transform:none;block-progression:tb;isolation:auto;mix-blend-mode:normal" d="M 7 2 L 7 4 L 9 4 L 9 7 C 6.8026661 7 5 8.8026661 5 11 L 5 22 L 19 22 L 19 21 L 19 11 C 19 8.8026661 17.197334 7 15 7 L 15 2 L 7 2 z M 9 9 L 15 9 C 16.116666 9 17 9.8833339 17 11 L 17 12 L 7 12 L 7 11 C 7 9.8833339 7.8833339 9 9 9 z M 13.5 14 C 14.328 14 15 14.672 15 15.5 C 15 16.328 14.328 17 13.5 17 C 12.672 17 12 16.328 12 15.5 C 12 14.672 12.672 14 13.5 14 z M 10 17 C 10.552 17 11 17.448 11 18 C 11 18.552 10.552 19 10 19 C 9.448 19 9 18.552 9 18 C 9 17.448 9.448 17 10 17 z" font-weight="400" font-family="sans-serif" white-space="normal" overflow="visible"/>
</svg>
