<?xml version="1.0"?>
<svg xmlns="http://www.w3.org/2000/svg" viewBox="0 0 24 24">
    <path d="M 7 4 C 4.2504839 4 2 6.2504839 2 9 L 2 20 L 10 20 L 11 20 L 22 20 L 22 15 L 14 15 L 14 12 C 14 10.218 15.407891 9.1512656 16.962891 8.5722656 C 16.371891 7.8742656 16 6.984 16 6 C 16 5.268 16.212641 4.591 16.556641 4 L 7 4 z M 20 4 A 2 2 0 0 0 18 6 A 2 2 0 0 0 20 8 A 2 2 0 0 0 22 6 A 2 2 0 0 0 20 4 z M 7 6 C 8.657 6 10 7.343 10 9 L 10 18 L 4 18 L 4 9 C 4 7.3315161 5.3315161 6 7 6 z M 6 9 L 6 11 L 8 11 L 8 9 L 6 9 z M 20 10 C 18.665 10 16 10.67 16 12 L 16 13 L 24 13 L 24 12 C 24 10.67 21.335 10 20 10 z"/>
</svg>
