<?xml version="1.0"?>
<svg xmlns="http://www.w3.org/2000/svg" viewBox="0 0 24 24">
    <path d="M 3 4 L 3 20 L 5.375 20 L 5.375 6 L 9.875 6 C 10.951 6.01 11.764719 6.3778125 12.261719 7.0078125 C 12.750719 7.6288125 13 8.579 13 9.875 L 13 15 L 15.375 15 L 15.375 9.625 C 15.338 7.753 14.905625 6.3423438 14.140625 5.4023438 C 13.382625 4.4713438 12.189703 4 10.595703 4 L 3 4 z M 18.625 4 L 18.625 18 L 14.125 18 C 13.049 17.99 12.235281 17.622187 11.738281 16.992188 C 11.249281 16.371187 11 15.421 11 14.125 L 11 9 L 8.625 9 L 8.625 14.375 C 8.662 16.247 9.094375 17.657656 9.859375 18.597656 C 10.617375 19.528656 11.810297 20 13.404297 20 L 21 20 L 21 4 L 18.625 4 z"/>
</svg>
