<?xml version="1.0"?>
<svg xmlns="http://www.w3.org/2000/svg" viewBox="0 0 24 24">
    <path d="M23,13l-3-6h-4V5H1v13h2c0,1.657,1.343,3,3,3s3-1.343,3-3h6c0,1.657,1.343,3,3,3s3-1.343,3-3h2V13z M6,19.25 c-0.689,0-1.25-0.561-1.25-1.25c0-0.689,0.561-1.25,1.25-1.25S7.25,17.311,7.25,18C7.25,18.689,6.689,19.25,6,19.25z M8,13.914 l-3.457-3.457l1.414-1.414L8,11.086l3.543-3.543l1.414,1.414L8,13.914z M18,19.25c-0.689,0-1.25-0.561-1.25-1.25 c0-0.689,0.561-1.25,1.25-1.25s1.25,0.561,1.25,1.25C19.25,18.689,18.689,19.25,18,19.25z M16,13V9h2.764l2,4H16z"/>
</svg>
