<?xml version="1.0"?>
<svg xmlns="http://www.w3.org/2000/svg" viewBox="0 0 24 24">
    <path d="M 11 1 L 11 3.0585938 C 9.2684249 3.2515403 7.6855534 3.9405857 6.390625 4.9765625 L 4.9296875 3.515625 L 3.515625 4.9296875 L 4.9785156 6.3925781 C 3.941843 7.6863811 3.2557548 9.2689866 3.0625 11 L 1 11 L 1 13 L 3.0585938 13 C 3.2515142 14.731341 3.9402473 16.314775 4.9765625 17.609375 L 3.515625 19.070312 L 4.9296875 20.484375 L 6.390625 19.023438 C 7.685225 20.059753 9.2686593 20.748486 11 20.941406 L 11 23 L 13 23 L 13 20.941406 C 14.731341 20.748486 16.314775 20.059753 17.609375 19.023438 L 19.070312 20.484375 L 20.484375 19.070312 L 19.023438 17.609375 C 20.059753 16.314775 20.748486 14.731341 20.941406 13 L 23 13 L 23 11 L 20.9375 11 C 20.744245 9.2689866 20.058157 7.6863811 19.021484 6.3925781 L 20.484375 4.9296875 L 19.070312 3.515625 L 17.609375 4.9765625 C 16.314447 3.9405857 14.731575 3.2515403 13 3.0585938 L 13 1 L 11 1 z M 11 5.078125 L 11 8.1308594 A 4 4 0 0 0 9.9726562 8.5585938 L 7.8125 6.3984375 C 8.7278476 5.7161994 9.8133729 5.2470255 11 5.078125 z M 13 5.078125 C 14.186627 5.2470255 15.272152 5.7161994 16.1875 6.3984375 L 14.025391 8.5605469 A 4 4 0 0 0 13 8.1328125 L 13 5.078125 z M 6.3925781 7.8066406 L 8.5585938 9.9726562 A 4 4 0 0 0 8.1328125 11 L 5.078125 11 C 5.2473279 9.8118709 5.7069387 8.7212036 6.3925781 7.8066406 z M 17.607422 7.8066406 C 18.293061 8.7212036 18.752672 9.8118709 18.921875 11 L 15.867188 11 A 4 4 0 0 0 15.439453 9.9746094 L 17.607422 7.8066406 z M 5.078125 13 L 8.1328125 13 A 4 4 0 0 0 8.5585938 14.027344 L 6.3945312 16.191406 C 5.7100858 15.276044 5.247181 14.18772 5.078125 13 z M 15.869141 13 L 18.921875 13 C 18.752819 14.18772 18.289914 15.276044 17.605469 16.191406 L 15.441406 14.027344 A 4 4 0 0 0 15.869141 13 z M 9.9726562 15.441406 A 4 4 0 0 0 11 15.869141 L 11 18.921875 C 9.8122798 18.752819 8.7239559 18.289914 7.8085938 17.605469 L 9.9726562 15.441406 z M 14.027344 15.441406 L 16.191406 17.605469 C 15.276044 18.289914 14.18772 18.752819 13 18.921875 L 13 15.867188 A 4 4 0 0 0 14.027344 15.441406 z"/>
</svg>
