<?xml version="1.0"?>
<svg xmlns="http://www.w3.org/2000/svg" viewBox="0 0 24 24">
    <path style="line-height:normal;text-indent:0;text-align:start;text-decoration-line:none;text-decoration-style:solid;text-decoration-color:#000;text-transform:none;block-progression:tb;isolation:auto;mix-blend-mode:normal" d="M 10 2 C 8.9069372 2 8 2.9069372 8 4 L 8 6 L 3 6 L 3 21 L 21 21 L 21 6 L 16 6 L 16 4 C 16 2.9069372 15.093063 2 14 2 L 10 2 z M 10 4 L 14 4 L 14 6 L 10 6 L 10 4 z M 9 8 C 9.552 8 10 8.448 10 9 C 10 9.552 9.552 10 9 10 C 8.448 10 8 9.552 8 9 C 8 8.448 8.448 8 9 8 z M 15 8 C 15.552 8 16 8.448 16 9 C 16 9.552 15.552 10 15 10 C 14.448 10 14 9.552 14 9 C 14 8.448 14.448 8 15 8 z" font-weight="400" font-family="sans-serif" white-space="normal" overflow="visible"/>
</svg>
