<?xml version="1.0"?>
<svg xmlns="http://www.w3.org/2000/svg" viewBox="0 0 24 24">
    <path d="M 10 0 L 8 2 L 12 2 L 10 0 z M 15 0 L 13 2 L 17 2 L 15 0 z M 4.4160156 1.9960938 L 1.0039062 2.0136719 L 1.0136719 4.0136719 L 3.0839844 4.0039062 L 6.4003906 11.962891 L 3.8828125 17 L 19 17 L 19 15 L 7.1171875 15 L 8.1171875 13 L 17 13 L 21 4 L 5.25 4 L 4.4160156 1.9960938 z M 7 18 A 2 2 0 0 0 5 20 A 2 2 0 0 0 7 22 A 2 2 0 0 0 9 20 A 2 2 0 0 0 7 18 z M 17 18 A 2 2 0 0 0 15 20 A 2 2 0 0 0 17 22 A 2 2 0 0 0 19 20 A 2 2 0 0 0 17 18 z"/>
</svg>
