<?xml version="1.0"?>
<svg xmlns="http://www.w3.org/2000/svg" viewBox="0 0 24 24">
    <path d="M19,2v1h-2V2H6v1H4V2H2v20h2v-1h2v1h11v-1h2v1h2V2H19z M6,18H4v-2h2V18z M6,13H4v-2h2V13z M6,8H4V6h2V8z M11.453,17 c-2.817,0-3.547-2.1-3.443-2.9h1.982c0,0.4,0.313,1.3,1.461,1.3c1.461,0,1.461-1.6,1.461-1.8c0-1.3-0.73-1.7-1.669-1.7 c-0.835,0-1.356,0.5-1.356,0.5L8.218,12l0.626-5h5.738v1.6h-4.069l-0.209,2.1c0.104,0,0.626-0.4,1.565-0.4 c3.026,0,3.13,2.8,3.13,3.3C15,16.1,13.122,17,11.453,17z M19,18h-2v-2h2V18z M19,13h-2v-2h2V13z M19,8h-2V6h2V8z"/>
</svg>
