<?xml version="1.0"?>
<svg xmlns="http://www.w3.org/2000/svg" viewBox="0 0 24 24">
    <path d="M 3 3 L 3 21 L 8 21 L 8 19 L 5 19 L 5 8 L 19 8 L 19 14.185547 C 19.73 14.320547 20.4 14.518531 21 14.769531 L 21 3 L 3 3 z M 7 11 L 7 13 L 9 13 L 9 11 L 7 11 z M 11 11 L 11 13 L 17 13 L 17 11 L 11 11 z M 7 15 L 7 17 L 9 17 L 9 15 L 7 15 z M 17 16 C 11.909 16 10 20 10 20 C 10 20 11.909 24 17 24 C 22.091 24 24 20 24 20 C 24 20 22.091 16 17 16 z M 17 18 C 18.104 18 19 18.896 19 20 C 19 21.104 18.104 22 17 22 C 15.896 22 15 21.104 15 20 C 15 18.896 15.896 18 17 18 z"/>
</svg>
