<?xml version="1.0"?>
<svg xmlns="http://www.w3.org/2000/svg" viewBox="0 0 24 24">
    <path style="line-height:normal;text-indent:0;text-align:start;text-decoration-line:none;text-decoration-style:solid;text-decoration-color:#000;text-transform:none;block-progression:tb;isolation:auto;mix-blend-mode:normal" d="M 11 2 L 11 4.3066406 L 3 7.3066406 L 3 10 L 21 10 L 21 9 L 21 7.3066406 L 13 4.3066406 L 13 2 L 11 2 z M 12 11 A 1 1 0 0 0 11 12 A 1 1 0 0 0 12 13 A 1 1 0 0 0 13 12 A 1 1 0 0 0 12 11 z M 10 14 A 1 1 0 0 0 9 15 A 1 1 0 0 0 10 16 A 1 1 0 0 0 11 15 A 1 1 0 0 0 10 14 z M 14 14 A 1 1 0 0 0 13 15 A 1 1 0 0 0 14 16 A 1 1 0 0 0 15 15 A 1 1 0 0 0 14 14 z M 8 17 A 1 1 0 0 0 7 18 A 1 1 0 0 0 8 19 A 1 1 0 0 0 9 18 A 1 1 0 0 0 8 17 z M 12 17 A 1 1 0 0 0 11 18 A 1 1 0 0 0 12 19 A 1 1 0 0 0 13 18 A 1 1 0 0 0 12 17 z M 16 17 A 1 1 0 0 0 15 18 A 1 1 0 0 0 16 19 A 1 1 0 0 0 17 18 A 1 1 0 0 0 16 17 z M 6 20 A 1 1 0 0 0 5 21 A 1 1 0 0 0 6 22 A 1 1 0 0 0 7 21 A 1 1 0 0 0 6 20 z M 10 20 A 1 1 0 0 0 9 21 A 1 1 0 0 0 10 22 A 1 1 0 0 0 11 21 A 1 1 0 0 0 10 20 z M 14 20 A 1 1 0 0 0 13 21 A 1 1 0 0 0 14 22 A 1 1 0 0 0 15 21 A 1 1 0 0 0 14 20 z M 18 20 A 1 1 0 0 0 17 21 A 1 1 0 0 0 18 22 A 1 1 0 0 0 19 21 A 1 1 0 0 0 18 20 z"/>
</svg>
