<?xml version="1.0"?>
<svg xmlns="http://www.w3.org/2000/svg" viewBox="0 0 24 24">
    <path style="line-height:normal;text-indent:0;text-align:start;text-decoration-line:none;text-decoration-style:solid;text-decoration-color:#000;text-transform:none;block-progression:tb;isolation:auto;mix-blend-mode:normal" d="M 3 3 L 3 21 L 21 21 L 21 19 L 17 19 L 17 5 L 21 5 L 21 3 L 3 3 z M 6 7 L 8 7 L 8 9 L 6 9 L 6 7 z M 10 7 L 15 7 L 15 9 L 10 9 L 10 7 z M 6 11 L 8 11 L 8 13 L 6 13 L 6 11 z M 10 11 L 15 11 L 15 13 L 10 13 L 10 11 z M 6 15 L 8 15 L 8 17 L 6 17 L 6 15 z M 10 15 L 15 15 L 15 17 L 10 17 L 10 15 z" font-weight="400" font-family="sans-serif" white-space="normal" overflow="visible"/>
</svg>
