<?xml version="1.0"?>
<svg xmlns="http://www.w3.org/2000/svg" viewBox="0 0 24 24">
    <path d="M 2 5 L 2 11 L 7 11 L 7 10 C 7 9.45 6.55 9 6 9 L 6 7 C 7.65 7 9 8.35 9 10 L 9 15.349609 C 10.18 15.919609 11 17.11 11 18.5 C 11 19.04 10.880391 19.55 10.650391 20 L 13.349609 20 C 13.119609 19.55 13 19.04 13 18.5 C 13 17.11 13.82 15.919609 15 15.349609 L 15 10 C 15 8.35 16.35 7 18 7 L 18 9 C 17.45 9 17 9.45 17 10 L 17 11 L 22 11 L 22 5 L 2 5 z M 2 13 L 2 15 L 7 15 L 7 13 L 2 13 z M 17 13 L 17 15 L 22 15 L 22 13 L 17 13 z M 2 17 L 2 20 L 7.5 20 C 8.33 20 9 19.33 9 18.5 C 9 17.67 8.33 17 7.5 17 L 2 17 z M 16.5 17 C 15.67 17 15 17.67 15 18.5 C 15 19.33 15.67 20 16.5 20 L 22 20 L 22 17 L 16.5 17 z"/>
</svg>
