<?xml version="1.0"?>
<svg xmlns="http://www.w3.org/2000/svg" viewBox="0 0 24 24">
    <path style="line-height:normal;text-indent:0;text-align:start;text-decoration-line:none;text-decoration-style:solid;text-decoration-color:#000;text-transform:none;block-progression:tb;isolation:auto;mix-blend-mode:normal" d="M 3 3 L 3 20 L 5 20 L 5 13 L 10.400391 13 C 10.340391 12.77 10.270938 12.540781 10.210938 12.300781 C 10.080938 11.840781 9.9600781 11.41 9.8300781 11 L 7.0390625 11 C 7.0965366 10.617509 7.3 9.3232462 7.71875 7.8535156 C 7.9613259 7.0021219 8.2708372 6.163308 8.5859375 5.6191406 C 8.7434876 5.3470569 8.9033809 5.1541959 9.0058594 5.0664062 C 9.1083379 4.9786166 9.1138175 5 9.09375 5 C 9.10009 5 9.4447897 5.06299 10.035156 6.0820312 C 10.588241 7.0367185 11.261378 8.7270524 11.990234 11.275391 C 12.0378 11.439604 12.085937 11.602675 12.130859 11.769531 C 12.250859 12.199531 12.370469 12.61 12.480469 13 L 12.5 13 C 13.180589 15.257569 13.83454 16.86449 14.501953 17.957031 C 15.288641 19.244824 16.227048 20 17.289062 20 C 18.369575 20 19.09568 19.246971 19.628906 18.472656 C 20.162133 17.698341 20.572703 16.76617 20.914062 15.847656 C 21.596781 14.010629 21.978516 12.208984 21.978516 12.208984 L 22.236328 11 L 16 11 L 13.994141 11 C 13.210684 8.2029953 12.488207 6.325384 11.765625 5.078125 C 11.021492 3.7936658 10.162413 3 9.09375 3 C 8.5471825 3 8.0596777 3.2450553 7.7050781 3.5488281 C 7.3504785 3.8526009 7.0866061 4.2180212 6.8554688 4.6171875 C 6.393194 5.4155201 6.062346 6.3680344 5.7949219 7.3066406 C 5.2655042 9.1647925 5.0187068 10.963206 5.0136719 11 L 5 11 L 5 3 L 3 3 z M 14.587891 13 L 16 13 L 19.667969 13 C 19.509213 13.638318 19.434797 14.087522 19.039062 15.152344 C 18.730048 15.98383 18.351086 16.801659 17.980469 17.339844 C 17.609851 17.878029 17.31805 18 17.289062 18 C 17.177077 18 16.823046 17.919269 16.208984 16.914062 C 15.733416 16.135567 15.179733 14.859325 14.587891 13 z" font-weight="400" font-family="sans-serif" white-space="normal" overflow="visible"/>
</svg>
