<?xml version="1.0"?>
<svg xmlns="http://www.w3.org/2000/svg" viewBox="0 0 24 24">
    <path style="line-height:normal;text-indent:0;text-align:start;text-decoration-line:none;text-decoration-style:solid;text-decoration-color:#000;text-transform:none;block-progression:tb;isolation:auto;mix-blend-mode:normal" d="M 6 2 A 3 3 0 0 0 3 5 A 3 3 0 0 0 6 8 A 3 3 0 0 0 9 5 A 3 3 0 0 0 6 2 z M 11 4 L 11 6 L 21 6 L 21 4 L 11 4 z M 6 9 C 4.3549904 9 3 10.35499 3 12 C 3 13.64501 4.3549904 15 6 15 C 7.6450096 15 9 13.64501 9 12 C 9 10.35499 7.6450096 9 6 9 z M 6 11 C 6.5641294 11 7 11.435871 7 12 C 7 12.564129 6.5641294 13 6 13 C 5.4358706 13 5 12.564129 5 12 C 5 11.435871 5.4358706 11 6 11 z M 11 11 L 11 13 L 21 13 L 21 11 L 11 11 z M 6 16 C 4.3549904 16 3 17.35499 3 19 C 3 20.64501 4.3549904 22 6 22 C 7.6450096 22 9 20.64501 9 19 C 9 17.35499 7.6450096 16 6 16 z M 6 18 C 6.5641294 18 7 18.435871 7 19 C 7 19.564129 6.5641294 20 6 20 C 5.4358706 20 5 19.564129 5 19 C 5 18.435871 5.4358706 18 6 18 z M 11 18 L 11 20 L 21 20 L 21 18 L 11 18 z"/>
</svg>
