<?xml version="1.0"?>
<svg xmlns="http://www.w3.org/2000/svg" viewBox="0 0 24 24">
    <path d="M12,2c-4.971,0-9,3.806-9,8.5c0,1.397,0.367,2.71,1,3.872V18h4v4h8v-4h4v-3.628c0.633-1.162,1-2.475,1-3.872 C21,5.806,16.971,2,12,2z M9,16c-1.105,0-2-0.895-2-2c0-1.105,0.895-2,2-2s2,0.895,2,2C11,15.105,10.105,16,9,16z M12.8,19 c-0.5,0-0.7-0.4-0.8-0.7c-0.1,0.3-0.4,0.7-0.8,0.7c-0.2,0-0.5-0.2-0.5-0.5c0-0.7,0.8-2,1.3-2.1c0.5,0.1,1.3,1.4,1.3,2.1 C13.3,18.8,13.1,19,12.8,19z M15,16c-1.105,0-2-0.895-2-2c0-1.105,0.895-2,2-2s2,0.895,2,2C17,15.105,16.105,16,15,16z"/>
</svg>
