<?xml version="1.0"?>
<svg xmlns="http://www.w3.org/2000/svg" viewBox="0 0 24 24">
    <path style="line-height:normal;text-indent:0;text-align:start;text-decoration-line:none;text-decoration-style:solid;text-decoration-color:#000;text-transform:none;block-progression:tb;isolation:auto;mix-blend-mode:normal" d="M 18 2 L 18 3 L 19.583984 3 L 18 5.2949219 L 18 6 L 21 6 L 21 5 L 19.419922 5 L 21 2.7109375 L 21 2 L 18 2 z M 14 4 L 14 5 L 15.583984 5 L 14 7.2949219 L 14 8 L 17 8 L 17 7 L 15.419922 7 L 17 4.7109375 L 17 4 L 14 4 z M 2 5 L 2 21 L 4 21 L 4 19 L 20 19 L 20 21 L 22 21 L 22 10 L 10 10 L 10 13 L 7 13 L 4 13 L 4 5 L 2 5 z M 7 13 A 2 2 0 0 0 9 11 A 2 2 0 0 0 7 9 A 2 2 0 0 0 5 11 A 2 2 0 0 0 7 13 z" font-weight="400" font-family="sans-serif" white-space="normal" overflow="visible"/>
</svg>
