<?xml version="1.0"?>
<svg xmlns="http://www.w3.org/2000/svg" viewBox="0 0 24 24">
    <path d="M 12 0 C 9.239 0 7 2.239 7 5 L 7 7 L 9 7 L 9 5 C 9 3.343 10.343 2 12 2 C 13.657 2 15 3.343 15 5 L 15 7 L 17 7 L 17 5 C 17 2.239 14.761 0 12 0 z M 11 5 L 11 11 L 13 11 L 13 5 L 11 5 z M 7 9 L 7 11 C 7 13.418632 8.7179002 15.437095 11 15.900391 L 11 20.111328 L 8.7070312 17.818359 L 7.2929688 19.232422 L 11 22.939453 L 11 23 L 11.060547 23 L 12 23.939453 L 12.939453 23 L 13 23 L 13 22.939453 L 16.707031 19.232422 L 15.292969 17.818359 L 13 20.111328 L 13 15.900391 C 15.2821 15.437095 17 13.418632 17 11 L 17 9 L 15 9 L 15 11 C 15 12.657 13.657 14 12 14 C 10.343 14 9 12.657 9 11 L 9 9 L 7 9 z"/>
</svg>
