<?xml version="1.0"?>
<svg xmlns="http://www.w3.org/2000/svg" viewBox="0 0 24 24">
    <path d="M 5 3 L 5 9.2363281 L 6 11.236328 L 6 13 L 2 13 L 2 21 L 5.5859375 21 L 6.5859375 22 L 12.414062 22 L 13.414062 21 L 22 21 L 22 11 L 16.382812 11 L 15.382812 13 L 13 13 L 13 11.236328 L 14 9.2363281 L 14 3 L 5 3 z M 7.1171875 9 L 11.882812 9 L 11 10.763672 L 11 13 L 8 13 L 8 10.763672 L 7.1171875 9 z M 18.5 15 C 19.328 15 20 15.672 20 16.5 C 20 17.328 19.328 18 18.5 18 C 17.672 18 17 17.328 17 16.5 C 17 15.672 17.672 15 18.5 15 z M 7 16 L 12 16 L 12 18 L 7 18 L 7 16 z"/>
</svg>
