<?xml version="1.0"?>
<svg xmlns="http://www.w3.org/2000/svg" viewBox="0 0 24 24">
    <path d="M 5 4 L 5 8.4140625 L 6 9.4140625 L 6 11 L 2 11 L 2 19 L 5.5859375 19 L 6.5859375 20 L 12.414062 20 L 13.414062 19 L 22 19 L 22 9 L 16.382812 9 L 15.382812 11 L 13 11 L 13 9.4140625 L 14 8.4140625 L 14 4 L 5 4 z M 8 9 L 11 9 L 11 11 L 8 11 L 8 9 z M 18.5 13 C 19.328 13 20 13.672 20 14.5 C 20 15.328 19.328 16 18.5 16 C 17.672 16 17 15.328 17 14.5 C 17 13.672 17.672 13 18.5 13 z M 7 14 L 12 14 L 12 16 L 7 16 L 7 14 z"/>
</svg>
