<?xml version="1.0"?>
<svg xmlns="http://www.w3.org/2000/svg" viewBox="0 0 24 24">
    <path d="M 2 2 L 2 7 L 7 7 L 7 2 L 2 2 z M 9 2 L 9 7 L 14 7 L 14 2 L 9 2 z M 16 2 L 16 7 L 21 7 L 21 2 L 16 2 z M 4 4 L 5 4 L 5 5 L 4 5 L 4 4 z M 11.5 4 C 11.776 4 12 4.224 12 4.5 C 12 4.776 11.776 5 11.5 5 C 11.224 5 11 4.776 11 4.5 C 11 4.224 11.224 4 11.5 4 z M 18 4 L 19 4 L 19 5 L 18 5 L 18 4 z M 2 9 L 2 14 L 7 14 L 7 9 L 2 9 z M 9 9 L 9 14 L 14 14 L 14 9 L 9 9 z M 16 9 L 16 14 L 21 14 L 21 9 L 16 9 z M 4.5 11 C 4.776 11 5 11.224 5 11.5 C 5 11.776 4.776 12 4.5 12 C 4.224 12 4 11.776 4 11.5 C 4 11.224 4.224 11 4.5 11 z M 11 11 L 12 11 L 12 12 L 11 12 L 11 11 z M 18.5 11 C 18.776 11 19 11.224 19 11.5 C 19 11.776 18.776 12 18.5 12 C 18.224 12 18 11.776 18 11.5 C 18 11.224 18.224 11 18.5 11 z M 2 16 L 2 21 L 7 21 L 7 16 L 2 16 z M 9 16 L 9 21 L 14 21 L 14 16 L 9 16 z M 16 16 L 16 21 L 21 21 L 21 16 L 16 16 z M 4 18 L 5 18 L 5 19 L 4 19 L 4 18 z M 11.5 18 C 11.776 18 12 18.224 12 18.5 C 12 18.776 11.776 19 11.5 19 C 11.224 19 11 18.776 11 18.5 C 11 18.224 11.224 18 11.5 18 z M 18 18 L 19 18 L 19 19 L 18 19 L 18 18 z"/>
</svg>
