<?xml version="1.0"?>
<svg xmlns="http://www.w3.org/2000/svg" viewBox="0 0 24 24">
    <path style="line-height:normal;text-indent:0;text-align:start;text-decoration-line:none;text-decoration-style:solid;text-decoration-color:#000;text-transform:none;block-progression:tb;isolation:auto;mix-blend-mode:normal" d="M 7 1 L 7 3 L 9 3 L 9 1 L 7 1 z M 11 1 L 11 3 L 13 3 L 13 1 L 11 1 z M 15 1 L 15 3 L 17 3 L 17 1 L 15 1 z M 4 4 L 4 5 L 4 20 L 20 20 L 20 4 L 4 4 z M 1 7 L 1 9 L 3 9 L 3 7 L 1 7 z M 21 7 L 21 9 L 23 9 L 23 7 L 21 7 z M 9 9 L 15 9 L 15 15 L 9 15 L 9 9 z M 1 11 L 1 13 L 3 13 L 3 11 L 1 11 z M 21 11 L 21 13 L 23 13 L 23 11 L 21 11 z M 1 15 L 1 17 L 3 17 L 3 15 L 1 15 z M 21 15 L 21 17 L 23 17 L 23 15 L 21 15 z M 7 21 L 7 23 L 9 23 L 9 21 L 7 21 z M 11 21 L 11 23 L 13 23 L 13 21 L 11 21 z M 15 21 L 15 23 L 17 23 L 17 21 L 15 21 z"/>
</svg>
