<?xml version="1.0"?>
<svg xmlns="http://www.w3.org/2000/svg" viewBox="0 0 24 24">
    <path d="M 5 3 L 5 5 L 7 5 L 7 3 L 5 3 z M 9 3 L 9 5 L 11 5 L 11 3 L 9 3 z M 13 3 L 13 5 L 15 5 L 15 3 L 13 3 z M 17 3 L 17 5 L 19 5 L 19 3 L 17 3 z M 2 6 L 2 18 L 22 18 L 22 6 L 2 6 z M 5 8 C 5.552 8 6 8.448 6 9 C 6 9.552 5.552 10 5 10 C 4.448 10 4 9.552 4 9 C 4 8.448 4.448 8 5 8 z M 19 14 C 19.552 14 20 14.448 20 15 C 20 15.552 19.552 16 19 16 C 18.448 16 18 15.552 18 15 C 18 14.448 18.448 14 19 14 z M 5 19 L 5 21 L 7 21 L 7 19 L 5 19 z M 9 19 L 9 21 L 11 21 L 11 19 L 9 19 z M 13 19 L 13 21 L 15 21 L 15 19 L 13 19 z M 17 19 L 17 21 L 19 21 L 19 19 L 17 19 z"/>
</svg>
