<?xml version="1.0"?>
<svg xmlns="http://www.w3.org/2000/svg" viewBox="0 0 24 24">
    <path style="line-height:normal;text-indent:0;text-align:start;text-decoration-line:none;text-decoration-style:solid;text-decoration-color:#000;text-transform:none;block-progression:tb;isolation:auto;mix-blend-mode:normal" d="M 17.919922 0 C 16.784997 0.00158068 15.773738 0.66801095 15.285156 1.6894531 C 14.779467 2.7472725 15.044149 3.8931847 15.537109 4.7382812 C 16.030362 5.58388 16.733681 6.2695933 17.375 6.8496094 L 17.507812 6.96875 C 17.903927 7.3389735 18.463721 7.7490286 18.914062 8.0742188 L 19.5 8.4960938 L 20.083984 8.0761719 C 20.535765 7.7509721 21.093673 7.3431706 21.484375 6.9785156 L 21.623047 6.8515625 C 22.265177 6.2707122 22.969326 5.5840369 23.462891 4.7382812 C 23.956455 3.8925257 24.221504 2.7460722 23.714844 1.6875 C 23.225616 0.66789463 22.216119 0.00158392 21.082031 0 L 21.080078 1 L 21.080078 0 L 21.078125 0 C 20.530444 0 19.995477 0.17194482 19.523438 0.45117188 L 19.566406 0.47851562 C 19.546596 0.46586122 19.52009 0.47115757 19.5 0.45898438 C 19.47991 0.47109377 19.453414 0.46593143 19.433594 0.47851562 L 19.472656 0.45117188 C 19.001594 0.1717691 18.468287 7.4014868e-17 17.921875 0 L 17.919922 0 z M 12 2 C 6.477 2 2 6.477 2 12 C 2 17.523 6.477 22 12 22 C 17.523 22 22 17.523 22 12 C 22 11.103 21.870437 10.237156 21.648438 9.4101562 C 21.522437 9.5041562 21.394906 9.5982188 21.253906 9.6992188 L 20.669922 10.121094 L 19.882812 10.6875 C 19.884812 10.7015 19.886672 10.715516 19.888672 10.728516 L 19.513672 11 L 18.34375 10.154297 L 17.757812 9.7304688 C 17.447813 9.5064687 17.183266 9.308 16.947266 9.125 C 16.978266 9.246 17 9.37 17 9.5 C 17 10.328 16.328 11 15.5 11 C 14.672 11 14 10.328 14 9.5 C 14 8.672 14.672 8 15.5 8 C 15.563 8 15.624547 8.0105312 15.685547 8.0195312 C 13.944547 6.3385312 13.058437 4.6795 13.023438 3.0625 C 13.018437 3.0625 13.014766 3.0635 13.009766 3.0625 C 12.999766 2.7275 13.026844 2.3945 13.089844 2.0625 C 12.731844 2.0235 12.369 2 12 2 z M 17.921875 2 C 18.140424 2 18.310397 2.049181 18.490234 2.1640625 L 19.498047 2.8085938 L 20.505859 2.1660156 C 20.689457 2.0493986 20.859576 2 21.078125 2 L 21.080078 2 C 21.376971 2.00117 21.756812 2.2342231 21.910156 2.5507812 C 22.086496 2.9192091 22.03506 3.2152243 21.734375 3.7304688 C 21.433643 4.2457132 20.86512 4.8409909 20.28125 5.3691406 L 20.125 5.5117188 L 20.119141 5.515625 C 20.011688 5.6159485 19.730974 5.821302 19.501953 5.9980469 C 19.269038 5.8182972 18.984994 5.6124432 18.873047 5.5078125 L 18.867188 5.5019531 L 18.714844 5.3652344 C 18.132613 4.8385134 17.565921 4.2452755 17.265625 3.7304688 C 16.965128 3.2153174 16.913751 2.9203898 17.089844 2.5527344 L 17.089844 2.5507812 C 17.241015 2.2347365 17.621029 2.0011805 17.921875 2 z M 8.5 8 C 9.328 8 10 8.672 10 9.5 C 10 10.328 9.328 11 8.5 11 C 7.672 11 7 10.328 7 9.5 C 7 8.672 7.672 8 8.5 8 z M 6.890625 14 L 17.109375 14 C 16.309375 16.04 14.33 17.5 12 17.5 C 9.67 17.5 7.690625 16.04 6.890625 14 z" font-weight="400" font-family="sans-serif" white-space="normal" overflow="visible"/>
</svg>
