<?xml version="1.0"?>
<svg xmlns="http://www.w3.org/2000/svg" viewBox="0 0 24 24">
    <path style="line-height:normal;text-indent:0;text-align:start;text-decoration-line:none;text-decoration-style:solid;text-decoration-color:#000;text-transform:none;block-progression:tb;isolation:auto;mix-blend-mode:normal" d="M 2 3 L 2 9 L 22 9 L 22 3 L 2 3 z M 5 5 L 7 5 L 7 7 L 5 7 L 5 5 z M 9 5 L 11 5 L 11 7 L 9 7 L 9 5 z M 13 5 L 15 5 L 15 7 L 13 7 L 13 5 z M 17 5 L 19 5 L 19 7 L 17 7 L 17 5 z M 5.46875 11 L 6.21875 14 L 17.78125 14 L 18.53125 11 L 5.46875 11 z M 7 16 L 7 20 L 9 20 L 9 16 L 7 16 z M 11 16 L 11 22 L 13 22 L 13 16 L 11 16 z M 15 16 L 15 20 L 17 20 L 17 16 L 15 16 z" font-weight="400" font-family="sans-serif" white-space="normal" overflow="visible"/>
</svg>
