<?xml version="1.0"?>
<svg xmlns="http://www.w3.org/2000/svg" viewBox="0 0 24 24">
    <path d="M 6.2167969 4 L 5.0976562 8.5429688 L 5 8.6367188 L 5 6 L 3 6 L 3 9 L 4.6269531 9 L 3 10.576172 L 3 15 L 3.0175781 15 L 2 20 L 3 20 L 21 20 L 22 20 L 20.982422 15 L 21 15 L 21 10.576172 L 19.367188 9 L 21 9 L 21 6 L 19 6 L 19 8.6445312 L 18.902344 8.5507812 L 17.783203 4 L 6.2167969 4 z M 7.7832031 6 L 16.216797 6 L 16.707031 8 L 7.2910156 8 L 7.7832031 6 z M 6.4667969 10 L 17.523438 10 L 19 11.423828 L 19 14 L 16.912109 14 A 1.5 1.5 0 0 0 17 13.5 A 1.5 1.5 0 0 0 15.5 12 A 1.5 1.5 0 0 0 14 13.5 A 1.5 1.5 0 0 0 14.087891 14 L 9.9121094 14 A 1.5 1.5 0 0 0 10 13.5 A 1.5 1.5 0 0 0 8.5 12 A 1.5 1.5 0 0 0 7 13.5 A 1.5 1.5 0 0 0 7.0878906 14 L 5 14 L 5 11.423828 L 6.4667969 10 z"/>
</svg>
