<?xml version="1.0"?>
<svg xmlns="http://www.w3.org/2000/svg" viewBox="0 0 24 24">
    <path d="M 8.5 2 C 6.578848 2 5 3.578848 5 5.5 C 5 7.421152 6.578848 9 8.5 9 C 10.421152 9 12 7.421152 12 5.5 C 12 3.578848 10.421152 2 8.5 2 z M 8.5 4 C 9.3402718 4 10 4.6597282 10 5.5 C 10 6.3402718 9.3402718 7 8.5 7 C 7.6597282 7 7 6.3402718 7 5.5 C 7 4.6597282 7.6597282 4 8.5 4 z M 17 4 C 15.895 4 15 4.895 15 6 C 15 7.105 15.895 8 17 8 C 18.105 8 19 7.105 19 6 C 19 4.895 18.105 4 17 4 z M 14.5 9 C 13.555754 9 12.696499 9.3840071 12.064453 10 L 7.2871094 10 C 5.3981094 10 3.7909531 11.296344 3.3769531 13.152344 C 3.1269531 14.278344 3 15.237 3 16 C 3 16.763 3.1269531 17.720656 3.3769531 18.847656 C 3.7909531 20.702656 5.3971094 22 7.2871094 22 L 16.712891 22 C 18.601891 22 20.209047 20.703656 20.623047 18.847656 C 20.872047 17.721656 21 16.763 21 16 C 21 15.237 20.873047 14.279344 20.623047 13.152344 C 20.227564 11.380311 18.740483 10.130903 16.960938 10.021484 C 16.326813 9.3918017 15.456114 9 14.5 9 z M 14.5 11 C 15.340272 11 16 11.659728 16 12.5 C 16 13.340272 15.340272 14 14.5 14 C 13.659728 14 13 13.340272 13 12.5 C 13 11.659728 13.659728 11 14.5 11 z"/>
</svg>
