<?xml version="1.0"?>
<svg xmlns="http://www.w3.org/2000/svg" viewBox="0 0 24 24">
    <path style="line-height:normal;text-indent:0;text-align:start;text-decoration-line:none;text-decoration-style:solid;text-decoration-color:#000;text-transform:none;block-progression:tb;isolation:auto;mix-blend-mode:normal" d="M 4 4 L 4 6.1289062 L 6.6796875 13 L 17.318359 13 L 20 6.6992188 L 20 4 L 4 4 z M 0 10 L 0 12.410156 L 1.859375 17.115234 C 2.315375 18.253234 3.4185313 19 4.6445312 19 L 5 19 L 5 21 L 7 21 L 7 19 L 17 19 L 17 21 L 19 21 L 19 19 L 19.347656 19 C 20.574656 19 21.677813 18.252281 22.132812 17.113281 L 24 12.572266 L 24 10 L 20.751953 10 L 18.671875 15 L 5.3222656 15 L 3.3574219 10 L 0 10 z" font-weight="400" font-family="sans-serif" white-space="normal" overflow="visible"/>
</svg>
