<?xml version="1.0"?>
<svg xmlns="http://www.w3.org/2000/svg" viewBox="0 0 24 24">
    <path style="line-height:normal;text-indent:0;text-align:start;text-decoration-line:none;text-decoration-style:solid;text-decoration-color:#000;text-transform:none;block-progression:tb;isolation:auto;mix-blend-mode:normal" d="M 12 2 C 10.415 2 8.9572344 2.737 7.9902344 4 L 7 4 C 5.574 4 4.3830781 5.0009375 4.0800781 6.3359375 L 6.6757812 13 L 17.316406 13 L 19.974609 6.7558594 C 19.847609 5.2178594 18.571 4 17 4 L 15.996094 4.0214844 C 15.042094 2.7374844 13.585 2 12 2 z M 12 5 C 12.552 5 13 5.448 13 6 C 13 6.552 12.552 7 12 7 C 11.448 7 11 6.552 11 6 C 11 5.448 11.448 5 12 5 z M 9 7 C 9.552 7 10 7.448 10 8 C 10 8.552 9.552 9 9 9 C 8.448 9 8 8.552 8 8 C 8 7.448 8.448 7 9 7 z M 15 7 C 15.552 7 16 7.448 16 8 C 16 8.552 15.552 9 15 9 C 14.448 9 14 8.552 14 8 C 14 7.448 14.448 7 15 7 z M 12 9 C 12.552 9 13 9.448 13 10 C 13 10.552 12.552 11 12 11 C 11.448 11 11 10.552 11 10 C 11 9.448 11.448 9 12 9 z M 0 10 L 0 12.410156 L 1.859375 17.115234 C 2.315375 18.253234 3.4185313 19 4.6445312 19 L 5 19 L 5 21 L 7 21 L 7 19 L 17 19 L 17 21 L 19 21 L 19 19 L 19.347656 19 C 20.574656 19 21.677813 18.252281 22.132812 17.113281 L 24 12.572266 L 24 10 L 20.751953 10 L 18.671875 15 L 5.3222656 15 L 3.3574219 10 L 0 10 z" font-weight="400" font-family="sans-serif" white-space="normal" overflow="visible"/>
</svg>
