<?xml version="1.0"?>
<svg xmlns="http://www.w3.org/2000/svg" viewBox="0 0 24 24">
    <path d="M 12 3 C 7.0412819 3 3 7.0412819 3 12 C 3 12.687995 3.0851753 13.355669 3.2324219 14 L 2 14 L 2 21 L 12 21 L 22 21 L 22 14 L 20.767578 14 C 20.914825 13.355669 21 12.687995 21 12 C 21 7.0412819 16.958718 3 12 3 z M 12 5 C 15.877838 5 19 8.1221621 19 12 C 19 12.696138 18.894572 13.366258 18.707031 14 L 12 14 L 5.2929688 14 C 5.1054276 13.366258 5 12.696138 5 12 C 5 10.423359 5.521362 8.9763508 6.3945312 7.8085938 L 8.5664062 9.9804688 C 8.9114063 9.3954688 9.3954687 8.9114063 9.9804688 8.5664062 L 7.8085938 6.3945312 C 8.9763508 5.521362 10.423359 5 12 5 z M 12 14 A 2 2 0 0 0 14 12 A 2 2 0 0 0 12 10 A 2 2 0 0 0 10 12 A 2 2 0 0 0 12 14 z"/>
</svg>
