<?xml version="1.0"?>
<svg xmlns="http://www.w3.org/2000/svg" viewBox="0 0 24 24">
    <path style="line-height:normal;text-indent:0;text-align:start;text-decoration-line:none;text-decoration-style:solid;text-decoration-color:#000;text-transform:none;block-progression:tb;isolation:auto;mix-blend-mode:normal" d="M 3 3 L 3 5 L 5 5 L 5 3 L 3 3 z M 7 3 L 7 5 L 21 5 L 21 3 L 7 3 z M 3 7 L 3 9 L 5 9 L 5 7 L 3 7 z M 7 7 L 7 9 L 19 9 L 19 7 L 7 7 z M 3 11 L 3 13 L 5 13 L 5 11 L 3 11 z M 7 11 L 7 13 L 17 13 L 17 11 L 7 11 z M 3 15 L 3 17 L 5 17 L 5 15 L 3 15 z M 7 15 L 7 17 L 15 17 L 15 15 L 7 15 z M 3 19 L 3 21 L 5 21 L 5 19 L 3 19 z M 7 19 L 7 21 L 13 21 L 13 19 L 7 19 z"/>
</svg>
