<?xml version="1.0"?>
<svg xmlns="http://www.w3.org/2000/svg" viewBox="0 0 24 24">
    <path style="line-height:normal;text-indent:0;text-align:start;text-decoration-line:none;text-decoration-style:solid;text-decoration-color:#000;text-transform:none;block-progression:tb;isolation:auto;mix-blend-mode:normal" d="M 7 2 L 2 7 L 6 7 L 6 13 L 8 13 L 8 7 L 12 7 L 7 2 z M 16 3 L 16 5 L 18 5 L 18 3 L 16 3 z M 16 7 L 16 9 L 18 9 L 18 7 L 16 7 z M 16 11 L 16 17 L 12 17 L 17 22 L 22 17 L 18 17 L 18 11 L 16 11 z M 6 15 L 6 17 L 8 17 L 8 15 L 6 15 z M 6 19 L 6 21 L 8 21 L 8 19 L 6 19 z"/>
</svg>
