<?xml version="1.0"?>
<svg xmlns="http://www.w3.org/2000/svg" viewBox="0 0 24 24">
    <path style="line-height:normal;text-indent:0;text-align:start;text-decoration-line:none;text-decoration-style:solid;text-decoration-color:#000;text-transform:none;block-progression:tb;isolation:auto;mix-blend-mode:normal" d="M 17 2 L 17 6 L 11 6 L 11 8 L 17 8 L 17 12 L 22 7 L 17 2 z M 3 6 L 3 8 L 5 8 L 5 6 L 3 6 z M 7 6 L 7 8 L 9 8 L 9 6 L 7 6 z M 7 12 L 2 17 L 7 22 L 7 18 L 13 18 L 13 16 L 7 16 L 7 12 z M 15 16 L 15 18 L 17 18 L 17 16 L 15 16 z M 19 16 L 19 18 L 21 18 L 21 16 L 19 16 z"/>
</svg>
