<?xml version="1.0"?>
<svg xmlns="http://www.w3.org/2000/svg" viewBox="0 0 24 24">
    <path style="line-height:normal;text-indent:0;text-align:start;text-decoration-line:none;text-decoration-style:solid;text-decoration-color:#000;text-transform:none;block-progression:tb;isolation:auto;mix-blend-mode:normal" d="M 15.232422 2.9746094 C 15.104547 2.9746094 14.976406 3.0235937 14.878906 3.1210938 L 13.878906 4.1210938 L 15.878906 6.1210938 L 16.878906 5.1210938 C 17.073906 4.9260937 17.073906 4.6090625 16.878906 4.4140625 L 15.585938 3.1210938 C 15.487938 3.0235937 15.360297 2.9746094 15.232422 2.9746094 z M 2 3 L 2 17 L 11 17 L 11 19 L 8 19 L 12 23 L 16 19 L 13 19 L 13 17 L 22 17 L 22 3 L 20 3 L 20 15 L 4 15 L 4 3 L 2 3 z M 13.171875 4.828125 L 7 11 L 7 13 L 9 13 L 15.171875 6.828125 L 13.171875 4.828125 z" font-weight="400" font-family="sans-serif" white-space="normal" overflow="visible"/>
</svg>
