<?xml version="1.0"?>
<svg xmlns="http://www.w3.org/2000/svg" viewBox="0 0 24 24">
    <path d="M23,4H1v16h22V4z M5.636,18.364c-3.509-3.509-3.509-9.22,0-12.729L7.05,7.05c-2.729,2.729-2.729,7.171,0,9.9L5.636,18.364z M9.878,14.121l-1.414,1.414C7.52,14.591,7,13.336,7,12s0.52-2.591,1.464-3.535l1.414,1.414C9.312,10.445,9,11.198,9,12 S9.312,13.555,9.878,14.121z M12,13c-0.552,0-1-0.448-1-1c0-0.552,0.448-1,1-1s1,0.448,1,1C13,12.552,12.552,13,12,13z M14.122,14.121C14.688,13.555,15,12.802,15,12s-0.312-1.555-0.878-2.121l1.414-1.414C16.48,9.409,17,10.664,17,12 s-0.52,2.591-1.464,3.535L14.122,14.121z M18.364,18.364L16.95,16.95c2.729-2.729,2.729-7.171,0-9.9l1.414-1.414 C21.873,9.145,21.873,14.855,18.364,18.364z"/>
</svg>
