<?xml version="1.0"?>
<svg xmlns="http://www.w3.org/2000/svg" viewBox="0 0 24 24">
    <path style="line-height:normal;text-indent:0;text-align:start;text-decoration-line:none;text-decoration-style:solid;text-decoration-color:#000;text-transform:none;block-progression:tb;isolation:auto;mix-blend-mode:normal" d="M 11 1 L 11 3.0585938 C 6.8057199 3.514863 3.514863 6.8057199 3.0585938 11 L 1 11 L 1 13 L 3.0625 13 C 3.4295886 16.320653 5.595205 19.106292 8.6367188 20.355469 L 7.1953125 17.113281 C 5.8553125 15.817281 5 14.018 5 12 C 5 8.1 8.1 5 12 5 C 15.9 5 19 8.1 19 12 C 19 14.018 18.144687 15.817281 16.804688 17.113281 L 15.363281 20.355469 C 18.404795 19.106292 20.570411 16.320653 20.9375 13 L 23 13 L 23 11 L 20.941406 11 C 20.485137 6.8057199 17.19428 3.514863 13 3.0585938 L 13 1 L 11 1 z M 8 14 L 12 23 L 16 14 L 12 16 L 8 14 z" font-weight="400" font-family="sans-serif" white-space="normal" overflow="visible"/>
</svg>
