<?xml version="1.0"?>
<svg xmlns="http://www.w3.org/2000/svg" viewBox="0 0 24 24">
    <path d="M5,1v16.969l7,5.833l7-5.833V1H5z M14.043,12.38c0.053,1.546-1.673,1.629-1.977,1.62c-2.078-0.064-2.236-1.52-2.214-1.92 h1.297c-0.001,0.176,0.042,1.029,0.918,0.962c0.677-0.051,0.657-0.45,0.676-0.654c0.117-1.222-2.656-0.688-2.732-2.755 C9.996,9.225,10.273,8.015,12.04,8c1.89-0.016,2.008,1.539,2.008,1.805H12.76c0-0.123-0.016-0.876-0.742-0.837 c-0.535,0.028-0.647,0.325-0.672,0.409C10.919,10.815,13.965,10.118,14.043,12.38z"/>
</svg>
