<?xml version="1.0"?>
<svg xmlns="http://www.w3.org/2000/svg" viewBox="0 0 24 24">
    <path style="line-height:normal;text-indent:0;text-align:start;text-decoration-line:none;text-decoration-style:solid;text-decoration-color:#000;text-transform:none;block-progression:tb;isolation:auto;mix-blend-mode:normal" d="M 16.353516 2.2949219 L 14.933594 3.7050781 L 19.291016 8.0917969 L 20.708984 6.6835938 L 19.230469 5.1933594 L 20.708984 3.7050781 L 19.291016 2.2949219 L 17.822266 3.7753906 L 16.353516 2.2949219 z M 12.720703 4.4902344 L 11.302734 5.8984375 L 17.113281 11.75 L 18.53125 10.339844 L 12.720703 4.4902344 z M 8.3808594 5.9707031 L 4.0683594 10.314453 L 5.5195312 11.777344 L 4.0664062 13.240234 L 8.3945312 17.597656 C 7.5774971 18.201566 6.45376 18.137052 5.7109375 17.388672 C 5.3282722 17.003273 5.1301589 16.514622 5.1035156 16.009766 L 3.1054688 16.115234 C 3.1568257 17.088378 3.5556339 18.054274 4.2929688 18.796875 C 5.8767878 20.392543 8.4845406 20.392543 10.068359 18.796875 L 10.533203 18.341797 L 10.53125 18.339844 C 10.534723 18.336443 10.539534 18.335493 10.542969 18.332031 L 11.285156 17.583984 L 12.734375 19.044922 L 17.052734 14.701172 L 8.3808594 5.9707031 z" font-weight="400" font-family="sans-serif" white-space="normal" overflow="visible"/>
</svg>
