<?xml version="1.0"?>
<svg xmlns="http://www.w3.org/2000/svg" viewBox="0 0 24 24">
    <path d="M 8 2.0039062 A 2 2 0 0 0 6 4.0039062 A 2 2 0 0 0 8 6.0039062 A 2 2 0 0 0 10 4.0039062 A 2 2 0 0 0 8 2.0039062 z M 20 3.0039062 A 2 2 0 0 0 18 5.0039062 A 2 2 0 0 0 20 7.0039062 A 2 2 0 0 0 22 5.0039062 A 2 2 0 0 0 20 3.0039062 z M 15.158203 4.6269531 L 6.1386719 7.0058594 C 5.9256719 7.0618594 5.7365625 7.1882812 5.6015625 7.3632812 L 3.2734375 10.390625 C 3.0044375 10.740625 2.9969062 11.222078 3.2539062 11.580078 C 3.5109063 11.939078 3.9716719 12.085266 4.3886719 11.947266 L 7.234375 10.96875 L 5.21875 12.601562 L 5.0449219 15.533203 L 2.9785156 22 L 5.078125 22 L 6.9707031 16.076172 C 6.9797031 16.047172 7.28125 14.873047 7.28125 14.873047 L 7.984375 16.861328 C 7.989375 16.900328 8 16.938516 8 16.978516 L 8 22 L 10 22 L 10 16.978516 C 10 16.707516 9.962625 16.438781 9.890625 16.175781 L 9.34375 13.316406 L 10.177734 8.0390625 L 15.669922 6.5605469 L 15.158203 4.6269531 z M 17.681641 7.0546875 C 17.561891 7.0769375 17.446797 7.1205469 17.341797 7.1855469 L 14.101562 9.1816406 L 10.603516 10.173828 L 11.148438 12.097656 L 14.78125 11.066406 C 14.86925 11.041406 14.955203 11.003078 15.033203 10.955078 L 16.837891 9.8457031 L 15.367188 12.806641 L 13.650391 16.048828 C 13.576391 16.177828 13.531531 16.321703 13.519531 16.470703 L 13.076172 22 L 15.082031 22 L 15.494141 16.853516 L 15.53125 16.792969 L 17.041016 14.890625 L 19.085938 22 L 21.148438 22 L 19.478516 15.267578 L 20.066406 13.392578 L 18.875 11.628906 L 21.492188 13.314453 C 21.853188 13.543453 22.319344 13.515047 22.652344 13.248047 C 22.985344 12.979047 23.112797 12.529906 22.966797 12.128906 L 21.541016 8.2011719 C 21.420016 7.8671719 21.131203 7.6235937 20.783203 7.5585938 L 18.046875 7.0546875 C 17.924875 7.0326875 17.801391 7.0324375 17.681641 7.0546875 z"/>
</svg>
