<?xml version="1.0"?>
<svg xmlns="http://www.w3.org/2000/svg" viewBox="0 0 24 24">
    <path d="M 5 1 L 5 23 L 19 23 L 19 18 L 7 18 L 7 4 L 19 4 L 19 1 L 5 1 z M 19 6 L 16 9 L 14 9 L 14 13 L 16 13 L 19 16 L 19 12 A 1 1 0 0 0 20 11 A 1 1 0 0 0 19 10 L 19 6 z M 22.464844 7.2421875 L 21.050781 8.65625 C 22.325707 9.9311762 22.325707 11.967261 21.050781 13.242188 L 22.464844 14.65625 C 24.503918 12.617176 24.503918 9.2812613 22.464844 7.2421875 z M 12 18.875 C 12.622 18.875 13.125 19.378 13.125 20 C 13.125 20.622 12.622 21.125 12 21.125 C 11.378 21.125 10.875 20.622 10.875 20 C 10.875 19.378 11.378 18.875 12 18.875 z"/>
</svg>
