<?xml version="1.0"?>
<svg xmlns="http://www.w3.org/2000/svg" viewBox="0 0 24 24">
    <path d="M12,3C5.935,3,1,7.935,1,14c0,1.935,0.509,3.837,1.472,5.502L2.761,20H8v-2h8v2h5.239l0.289-0.499 C22.491,17.836,23,15.935,23,14C23,7.935,18.065,3,12,3z M12,5c0.552,0,1,0.448,1,1c0,0.552-0.448,1-1,1s-1-0.448-1-1 C11,5.448,11.448,5,12,5z M16.843,6.414c0.466,0.297,0.602,0.915,0.305,1.381c-0.297,0.465-0.915,0.602-1.381,0.305 c-0.466-0.297-0.602-0.916-0.305-1.381C15.759,6.253,16.377,6.117,16.843,6.414z M7.094,6.455c0.463-0.301,1.082-0.17,1.383,0.293 c0.301,0.463,0.17,1.082-0.293,1.383c-0.463,0.301-1.082,0.17-1.383-0.293C6.499,7.375,6.631,6.756,7.094,6.455z M4.145,9.608 c0.27-0.482,0.879-0.654,1.361-0.385c0.482,0.27,0.654,0.879,0.385,1.361c-0.27,0.482-0.879,0.654-1.361,0.385 C4.047,10.699,3.875,10.09,4.145,9.608z M4,15c-0.552,0-1-0.448-1-1c0-0.552,0.448-1,1-1s1,0.448,1,1C5,14.552,4.552,15,4,15z M13.323,15.493l-0.001-0.002C12.969,15.804,12.509,16,12,16c-1.105,0-2-0.895-2-2c0-0.933,0.641-1.71,1.505-1.931l-0.001-0.003 l0.059-0.015c0.015-0.003,6.967-1.802,6.967-1.802L13.323,15.493z M20,15c-0.552,0-1-0.448-1-1c0-0.552,0.448-1,1-1s1,0.448,1,1 C21,14.552,20.552,15,20,15z"/>
</svg>
