<?xml version="1.0"?>
<svg xmlns="http://www.w3.org/2000/svg" viewBox="0 0 24 24">
    <path d="M12,3C5.935,3,1,7.935,1,14c0,2.129,0.618,4.221,1.78,6.001c0,0,18.441-0.001,18.441-0.001C22.382,18.221,23,16.131,23,14 C23,7.935,18.065,3,12,3z M15.438,7c0.552,0,1,0.448,1,1c0,0.552-0.448,1-1,1s-1-0.448-1-1C14.438,7.448,14.885,7,15.438,7z M12,6 c0.552,0,1,0.448,1,1c0,0.552-0.448,1-1,1s-1-0.448-1-1C11,6.448,11.448,6,12,6z M4,14c0-0.552,0.448-1,1-1s1,0.448,1,1 c0,0.552-0.448,1-1,1S4,14.552,4,14z M6,18.5c-0.552,0-1-0.448-1-1c0-0.552,0.448-1,1-1s1,0.448,1,1C7,18.052,6.552,18.5,6,18.5z M6,11.5c-0.552,0-1-0.448-1-1s0.448-1,1-1s1,0.448,1,1S6.552,11.5,6,11.5z M8.5,9c-0.552,0-1-0.448-1-1c0-0.552,0.448-1,1-1 s1,0.448,1,1C9.5,8.552,9.052,9,8.5,9z M12,16c-1.105,0-2-0.895-2-2c0-1.105,0.895-2,2-2c0.366,0,0.704,0.105,0.999,0.277 l5.042-2.882l0.992,1.736l-5.035,2.877C13.994,15.109,13.101,16,12,16z M18,18.781c-0.552,0-1-0.448-1-1c0-0.552,0.448-1,1-1 s1,0.448,1,1C19,18.333,18.552,18.781,18,18.781z M19,15c-0.552,0-1-0.448-1-1c0-0.552,0.448-1,1-1s1,0.448,1,1 C20,14.552,19.552,15,19,15z"/>
</svg>
