<?xml version="1.0"?>
<svg xmlns="http://www.w3.org/2000/svg" viewBox="0 0 24 24">
    <path d="M 7.5 4 A 2.5 2.5 0 0 0 5 6.5 A 2.5 2.5 0 0 0 7.5 9 A 2.5 2.5 0 0 0 10 6.5 A 2.5 2.5 0 0 0 7.5 4 z M 13 4 A 1 1 0 0 0 12 5 A 1 1 0 0 0 13 6 A 1 1 0 0 0 14 5 A 1 1 0 0 0 13 4 z M 18 6 A 1 1 0 0 0 17 7 A 1 1 0 0 0 18 8 A 1 1 0 0 0 19 7 A 1 1 0 0 0 18 6 z M 5 11 A 2 2 0 0 0 3 13 A 2 2 0 0 0 5 15 A 2 2 0 0 0 7 13 A 2 2 0 0 0 5 11 z M 20 11 A 1 1 0 0 0 19 12 A 1 1 0 0 0 20 13 A 1 1 0 0 0 21 12 A 1 1 0 0 0 20 11 z M 18.5 16 A 1.5 1.5 0 0 0 17 17.5 A 1.5 1.5 0 0 0 18.5 19 A 1.5 1.5 0 0 0 20 17.5 A 1.5 1.5 0 0 0 18.5 16 z M 7.5 17 A 1.5 1.5 0 0 0 6 18.5 A 1.5 1.5 0 0 0 7.5 20 A 1.5 1.5 0 0 0 9 18.5 A 1.5 1.5 0 0 0 7.5 17 z M 13.484375 18 A 1.5 1.5 0 0 0 11.984375 19.5 A 1.5 1.5 0 0 0 13.484375 21 A 1.5 1.5 0 0 0 14.984375 19.5 A 1.5 1.5 0 0 0 13.484375 18 z"/>
</svg>
