<?xml version="1.0"?>
<svg xmlns="http://www.w3.org/2000/svg" viewBox="0 0 24 24">
    <path d="M 11 3 A 2 2 0 0 0 9 5 A 2 2 0 0 0 11 7 A 2 2 0 0 0 13 5 A 2 2 0 0 0 11 3 z M 17.5 5 A 2.5 2.5 0 0 0 15 7.5 A 2.5 2.5 0 0 0 17.5 10 A 2.5 2.5 0 0 0 20 7.5 A 2.5 2.5 0 0 0 17.5 5 z M 5.5 6 A 1.5 1.5 0 0 0 4 7.5 A 1.5 1.5 0 0 0 5.5 9 A 1.5 1.5 0 0 0 7 7.5 A 1.5 1.5 0 0 0 5.5 6 z M 4.5 11.984375 A 1.5 1.5 0 0 0 3 13.484375 A 1.5 1.5 0 0 0 4.5 14.984375 A 1.5 1.5 0 0 0 6 13.484375 A 1.5 1.5 0 0 0 4.5 11.984375 z M 19 12 A 1 1 0 0 0 18 13 A 1 1 0 0 0 19 14 A 1 1 0 0 0 20 13 A 1 1 0 0 0 19 12 z M 6.5 17 A 1.5 1.5 0 0 0 5 18.5 A 1.5 1.5 0 0 0 6.5 20 A 1.5 1.5 0 0 0 8 18.5 A 1.5 1.5 0 0 0 6.5 17 z M 17 17 A 1 1 0 0 0 16 18 A 1 1 0 0 0 17 19 A 1 1 0 0 0 18 18 A 1 1 0 0 0 17 17 z M 12 19 A 1 1 0 0 0 11 20 A 1 1 0 0 0 12 21 A 1 1 0 0 0 13 20 A 1 1 0 0 0 12 19 z"/>
</svg>
