<?xml version="1.0"?>
<svg xmlns="http://www.w3.org/2000/svg" viewBox="0 0 24 24">
    <path d="M 13 3 A 1 1 0 0 0 12 4 A 1 1 0 0 0 13 5 A 1 1 0 0 0 14 4 A 1 1 0 0 0 13 3 z M 8 5 A 1 1 0 0 0 7 6 A 1 1 0 0 0 8 7 A 1 1 0 0 0 9 6 A 1 1 0 0 0 8 5 z M 18 5 A 1 1 0 0 0 17 6 A 1 1 0 0 0 18 7 A 1 1 0 0 0 19 6 A 1 1 0 0 0 18 5 z M 5.5 9 A 2.5 2.5 0 0 0 3 11.5 A 2.5 2.5 0 0 0 5.5 14 A 2.5 2.5 0 0 0 8 11.5 A 2.5 2.5 0 0 0 5.5 9 z M 19.5 10 A 1.5 1.5 0 0 0 18 11.5 A 1.5 1.5 0 0 0 19.5 13 A 1.5 1.5 0 0 0 21 11.5 A 1.5 1.5 0 0 0 19.5 10 z M 18.5 15 A 1.5 1.5 0 0 0 17 16.5 A 1.5 1.5 0 0 0 18.5 18 A 1.5 1.5 0 0 0 20 16.5 A 1.5 1.5 0 0 0 18.5 15 z M 8 16 A 2 2 0 0 0 6 18 A 2 2 0 0 0 8 20 A 2 2 0 0 0 10 18 A 2 2 0 0 0 8 16 z M 13.5 18 A 1.5 1.5 0 0 0 12 19.5 A 1.5 1.5 0 0 0 13.5 21 A 1.5 1.5 0 0 0 15 19.5 A 1.5 1.5 0 0 0 13.5 18 z"/>
</svg>
