<?xml version="1.0"?>
<svg xmlns="http://www.w3.org/2000/svg" viewBox="0 0 24 24">
    <path d="M 10.5 3 A 1.5 1.5 0 0 0 9 4.5 A 1.5 1.5 0 0 0 10.5 6 A 1.5 1.5 0 0 0 12 4.5 A 1.5 1.5 0 0 0 10.5 3 z M 16 4 A 2 2 0 0 0 14 6 A 2 2 0 0 0 16 8 A 2 2 0 0 0 18 6 A 2 2 0 0 0 16 4 z M 5.5 6 A 1.5 1.5 0 0 0 4 7.5 A 1.5 1.5 0 0 0 5.5 9 A 1.5 1.5 0 0 0 7 7.5 A 1.5 1.5 0 0 0 5.5 6 z M 18.5 10 A 2.5 2.5 0 0 0 16 12.5 A 2.5 2.5 0 0 0 18.5 15 A 2.5 2.5 0 0 0 21 12.5 A 2.5 2.5 0 0 0 18.5 10 z M 4.5 11 A 1.5 1.5 0 0 0 3 12.5 A 1.5 1.5 0 0 0 4.5 14 A 1.5 1.5 0 0 0 6 12.5 A 1.5 1.5 0 0 0 4.5 11 z M 6 17 A 1 1 0 0 0 5 18 A 1 1 0 0 0 6 19 A 1 1 0 0 0 7 18 A 1 1 0 0 0 6 17 z M 16 17 A 1 1 0 0 0 15 18 A 1 1 0 0 0 16 19 A 1 1 0 0 0 17 18 A 1 1 0 0 0 16 17 z M 11 19 A 1 1 0 0 0 10 20 A 1 1 0 0 0 11 21 A 1 1 0 0 0 12 20 A 1 1 0 0 0 11 19 z"/>
</svg>
