<?xml version="1.0"?>
<svg xmlns="http://www.w3.org/2000/svg" viewBox="0 0 24 24">
    <path d="M 12.5 3 A 2.5 2.5 0 0 0 10 5.5 A 2.5 2.5 0 0 0 12.5 8 A 2.5 2.5 0 0 0 15 5.5 A 2.5 2.5 0 0 0 12.5 3 z M 6 6 A 2 2 0 0 0 4 8 A 2 2 0 0 0 6 10 A 2 2 0 0 0 8 8 A 2 2 0 0 0 6 6 z M 18 7 A 1 1 0 0 0 17 8 A 1 1 0 0 0 18 9 A 1 1 0 0 0 19 8 A 1 1 0 0 0 18 7 z M 4.5 12 A 1.5 1.5 0 0 0 3 13.5 A 1.5 1.5 0 0 0 4.5 15 A 1.5 1.5 0 0 0 6 13.5 A 1.5 1.5 0 0 0 4.5 12 z M 20 12 A 1 1 0 0 0 19 13 A 1 1 0 0 0 20 14 A 1 1 0 0 0 21 13 A 1 1 0 0 0 20 12 z M 7.5 17 A 1.5 1.5 0 0 0 6 18.5 A 1.5 1.5 0 0 0 7.5 20 A 1.5 1.5 0 0 0 9 18.5 A 1.5 1.5 0 0 0 7.5 17 z M 18 17 A 1 1 0 0 0 17 18 A 1 1 0 0 0 18 19 A 1 1 0 0 0 19 18 A 1 1 0 0 0 18 17 z M 12.5 18 A 1.5 1.5 0 0 0 11 19.5 A 1.5 1.5 0 0 0 12.5 21 A 1.5 1.5 0 0 0 14 19.5 A 1.5 1.5 0 0 0 12.5 18 z"/>
</svg>
