<?xml version="1.0"?>
<svg xmlns="http://www.w3.org/2000/svg" viewBox="0 0 24 24">
    <path d="M 12 3 A 1 1 0 0 0 11 4 A 1 1 0 0 0 12 5 A 1 1 0 0 0 13 4 A 1 1 0 0 0 12 3 z M 17.5 4 A 1.5 1.5 0 0 0 16 5.5 A 1.5 1.5 0 0 0 17.5 7 A 1.5 1.5 0 0 0 19 5.5 A 1.5 1.5 0 0 0 17.5 4 z M 7 5 A 1 1 0 0 0 6 6 A 1 1 0 0 0 7 7 A 1 1 0 0 0 8 6 A 1 1 0 0 0 7 5 z M 19.5 9.015625 A 1.5 1.5 0 0 0 18 10.515625 A 1.5 1.5 0 0 0 19.5 12.015625 A 1.5 1.5 0 0 0 21 10.515625 A 1.5 1.5 0 0 0 19.5 9.015625 z M 5 10 A 1 1 0 0 0 4 11 A 1 1 0 0 0 5 12 A 1 1 0 0 0 6 11 A 1 1 0 0 0 5 10 z M 6.5 14 A 2.5 2.5 0 0 0 4 16.5 A 2.5 2.5 0 0 0 6.5 19 A 2.5 2.5 0 0 0 9 16.5 A 2.5 2.5 0 0 0 6.5 14 z M 18.5 15 A 1.5 1.5 0 0 0 17 16.5 A 1.5 1.5 0 0 0 18.5 18 A 1.5 1.5 0 0 0 20 16.5 A 1.5 1.5 0 0 0 18.5 15 z M 13 17 A 2 2 0 0 0 11 19 A 2 2 0 0 0 13 21 A 2 2 0 0 0 15 19 A 2 2 0 0 0 13 17 z"/>
</svg>
