<?xml version="1.0"?>
<svg xmlns="http://www.w3.org/2000/svg" viewBox="0 0 24 24">
    <path d="M 13.183594 2 C 13.183594 2 12.538922 2.9862187 11.669922 3.1992188 C 10.964922 3.3732187 6.8476562 4.4160156 6.8476562 4.4160156 C 6.2966563 4.5090156 5.9236719 5.03575 6.0136719 5.59375 C 6.1036719 6.15275 6.6266875 6.6125313 7.1796875 6.5195312 L 15.605469 4.4316406 C 15.605469 4.4316406 16.205078 4.2697031 16.205078 3.7207031 C 16.205078 2.6567031 13.183594 2 13.183594 2 z M 16.863281 5.2949219 L 6.8164062 7.6503906 C 6.2844063 7.7393906 5.9266719 8.2471562 6.0136719 8.7851562 C 6.1006719 9.3251562 6.6037188 9.7696875 7.1367188 9.6796875 L 16.876953 7.3769531 L 17.183594 7.3242188 C 17.715594 7.2352187 18.073328 6.6493281 17.986328 6.1113281 C 17.899328 5.5713281 17.396281 5.2049219 16.863281 5.2949219 z M 16.863281 8.6035156 L 6.8164062 10.958984 C 6.2844063 11.047984 5.9266719 11.557703 6.0136719 12.095703 C 6.1006719 12.635703 6.6037187 13.078281 7.1367188 12.988281 L 9 12.546875 L 9 15 L 7 15 L 7 16 C 7 17.232 7.5581875 18.448859 8.4921875 19.255859 C 8.9128533 19.617075 9.4354074 19.854776 10 19.951172 L 10 22 L 14 22 L 14 19.955078 C 14.456226 19.883938 14.872519 19.724845 15.220703 19.478516 C 16.317703 18.698516 17 17.366 17 16 L 17 15 L 15 15 L 15 12.244141 L 13 12.712891 L 13 15 L 11 15 L 11 12.074219 L 16.876953 10.685547 L 17.183594 10.632812 C 17.715594 10.543812 18.073328 9.9579219 17.986328 9.4199219 C 17.899328 8.8799219 17.396281 8.5135156 16.863281 8.6035156 z"/>
</svg>
