<?xml version="1.0"?>
<svg xmlns="http://www.w3.org/2000/svg" viewBox="0 0 24 24">
    <path d="M 15.998047 1.9980469 A 2 2 0 0 0 13.998047 3.9980469 A 2 2 0 0 0 15.998047 5.9980469 A 2 2 0 0 0 17.998047 3.9980469 A 2 2 0 0 0 15.998047 1.9980469 z M 12.998047 6 L 8.453125 6.0019531 L 4.9980469 9.2792969 L 6.3769531 10.730469 L 9.2460938 8.0039062 L 10.675781 8.0097656 L 4.4140625 21.089844 L 6.1601562 22.064453 L 8.5058594 17.142578 L 14.751953 16.035156 L 15.953125 14.419922 L 12.644531 13.261719 L 14.292969 9.9003906 L 15.722656 11.998047 L 20 11.998047 L 20 9.9980469 L 16.777344 9.9980469 L 14.728516 6.9960938 L 14.722656 6.9921875 A 2 2 0 0 0 12.998047 6 z"/>
</svg>
