<?xml version="1.0"?>
<svg xmlns="http://www.w3.org/2000/svg" viewBox="0 0 24 24">
    <path style="line-height:normal;text-indent:0;text-align:start;text-decoration-line:none;text-decoration-style:solid;text-decoration-color:#000;text-transform:none;block-progression:tb;isolation:auto;mix-blend-mode:normal" d="M 16 3 C 13.802666 3 12 4.8026661 12 7 C 12 7.0276759 12.00529 7.0544696 12.005859 7.0820312 C 11.676114 7.033999 11.342645 7 11 7 C 10.193312 7 9.4215425 7.1450766 8.6992188 7.3984375 A 1.5 1.5 0 0 0 9 6.5 A 1.5 1.5 0 0 0 7.5 5 A 1.5 1.5 0 0 0 6 6.5 A 1.5 1.5 0 0 0 7.4238281 7.9960938 C 5.3786073 9.2208165 4 11.452542 4 14 L 3 14 L 5 16 L 7 14 L 6 14 C 6 11.227698 8.2276983 9 11 9 C 13.772302 9 16 11.227698 16 14 C 16 16.772302 13.772302 19 11 19 L 3 19 L 3 21 L 19 21 L 19 22 L 21 20 L 19 18 L 19 19 L 15.884766 19 C 17.187006 17.727387 18 15.956034 18 14 C 18 11.285346 16.436006 8.9276631 14.166016 7.7675781 C 14.066201 7.5303069 14 7.2764443 14 7 C 14 5.8833339 14.883334 5 16 5 C 17.116666 5 18 5.8833339 18 7 L 17 7 L 19 9 L 21 7 L 20 7 C 20 4.8026661 18.197334 3 16 3 z" font-weight="400" font-family="sans-serif" white-space="normal" overflow="visible"/>
</svg>
