<?xml version="1.0"?>
<svg xmlns="http://www.w3.org/2000/svg" viewBox="0 0 24 24">
    <path d="M18.849,14.305C18.938,13.852,19,13.409,19,13c0-0.015-0.008-0.027-0.008-0.041C20.732,12.352,22,11.458,22,10.203 c0-1.102-0.994-1.951-3.131-2.678c-0.077-0.215-0.154-0.432-0.232-0.653C17.873,4.701,16.923,2,14.533,2 c-0.584,0-1.038,0.079-1.439,0.149c-0.366,0.064-0.684,0.12-1.095,0.12c-0.397,0-0.69-0.053-1.03-0.114 C10.566,2.082,10.11,2,9.466,2c-2.633,0-3.68,3.338-4.34,5.527C2.992,8.254,2,9.103,2,10.203c0,1.255,1.268,2.149,3.008,2.756 C5.008,12.973,5,12.985,5,13c0,0.408,0.05,0.85,0.142,1.31L1,16.5L4,22h16l3-5.5L18.849,14.305z M9.466,4 c0.465,0,0.781,0.057,1.147,0.123c0.379,0.068,0.81,0.146,1.386,0.146c0.585,0,1.039-0.08,1.44-0.149 C13.806,4.056,14.123,4,14.533,4c0.974,0,1.634,1.878,2.217,3.535c0.013,0.036,0.024,0.071,0.037,0.107 C15.974,7.819,14.304,8,11.999,8C9.657,8,7.975,7.81,7.184,7.627C7.666,6.096,8.438,4,9.466,4z M4.036,10.264 c0.153-0.145,0.646-0.5,1.985-0.931C6.828,9.668,8.476,10,11.999,10c3.537,0,5.194-0.322,6.007-0.659 c1.272,0.411,1.769,0.752,1.939,0.905C19.401,10.915,16.251,12,12,12C7.673,12,4.486,10.876,4.036,10.264z M7.786,13.644 c0.091,0.918,0.763,1.76,1.899,1.829c0.841,0.052,1.79-0.359,1.875-1.48C11.707,13.996,11.858,14,12,14s0.293-0.004,0.44-0.007 c0.085,1.121,1.033,1.532,1.875,1.48c1.136-0.069,1.808-0.911,1.899-1.829c0.25-0.042,0.499-0.087,0.745-0.137 c-0.2,1.695-1.328,3.963-2.699,5.315c-0.78,0.769-1.576,1.165-2.245,1.179c-2.138-0.03-4.683-3.82-4.984-6.496 C7.28,13.555,7.532,13.601,7.786,13.644z"/>
</svg>
