<?xml version="1.0"?>
<svg xmlns="http://www.w3.org/2000/svg" viewBox="0 0 24 24">
    <path d="M15.43,3.01l-1.006-1.006C4.881,1.834,0.777,7.348,1.009,20l6.931,0c1.09,1.21,2.46,2,4.06,2c1.62,0,3.05-0.78,4.17-2 l6.814,0C23.03,18.755,23.406,3.544,15.43,3.01z M14.35,19c-0.69,0.62-1.49,1-2.35,1c-0.81,0-1.57-0.38-2.25-1 c-1.007-0.927-1.817-2.404-2.291-4h0.663C8.398,15.581,9.13,16,10,16c1.105,0,2-0.672,2-1.5S11.105,13,10,13H7.055 C7.02,12.663,7,12.328,7,12c0-1.29,0.77-1.56,3.43-1.8c1.7-0.16,4.07-0.38,5.08-2.13c0.781,1.089,1.647,2.808,1.466,4.93L14,13 c-1.105,0-2,0.672-2,1.5s0.895,1.5,2,1.5c0.87,0,1.602-0.419,1.878-1h0.755C16.193,16.593,15.388,18.073,14.35,19z"/>
</svg>
