<?xml version="1.0"?>
<svg xmlns="http://www.w3.org/2000/svg" viewBox="0 0 24 24">
    <path style="line-height:normal;text-indent:0;text-align:start;text-decoration-line:none;text-decoration-style:solid;text-decoration-color:#000;text-transform:none;block-progression:tb;isolation:auto;mix-blend-mode:normal" d="M 3.7070312 2.2929688 L 2.2929688 3.7070312 L 5.6210938 7.0351562 C 5.1606311 8.025104 4.8097433 9.0890878 4.5371094 9.9921875 C 1.7441094 10.760187 0 11.517828 0 12.923828 C 0 14.557828 2.28 15.600609 5 16.224609 L 5.0019531 16.726562 C 4.9539531 18.308563 5.9995313 19.992187 8.0195312 19.992188 C 9.9905313 19.992188 10.991328 18.014094 11.986328 17.996094 C 11.991328 17.997094 11.995 18 12 18 C 13 18 14.000469 20 15.980469 20 C 16.78252 20 17.415658 19.728573 17.894531 19.308594 L 20.292969 21.707031 L 21.707031 20.292969 L 3.7070312 2.2929688 z M 9.2109375 4 C 8.8999375 4 8.6118438 4.0508125 8.3398438 4.1328125 L 16.742188 12.535156 C 17.501188 12.374156 18.207703 12.159234 18.720703 11.865234 C 19.921703 12.193234 21.321953 12.621047 21.876953 12.998047 C 21.446953 13.386047 20.213281 13.88125 18.488281 14.28125 L 20.132812 15.925781 C 22.322813 15.285781 24 14.322828 24 12.923828 C 24 11.515828 22.251125 10.759234 19.453125 9.9902344 C 19.370125 9.7602344 19.288078 9.5289688 19.205078 9.2929688 C 18.333078 6.8129688 17.344156 4 14.785156 4 C 14.151156 4 13.656703 4.0870625 13.220703 4.1640625 C 12.812703 4.2350625 12.459047 4.296875 11.998047 4.296875 C 11.552047 4.296875 11.226656 4.2379219 10.847656 4.1699219 C 10.409656 4.0899219 9.9119375 4 9.2109375 4 z M 5.3085938 11.857422 C 6.8216457 12.708803 9.9433986 12.953104 11.572266 12.986328 L 13.53125 14.945312 C 13.027498 14.971719 12.524346 15 12 15 C 7.021 15 2.8040313 13.728344 2.0820312 13.027344 C 2.6110312 12.640344 4.0715938 12.194422 5.3085938 11.857422 z" font-weight="400" font-family="sans-serif" white-space="normal" overflow="visible"/>
</svg>
