<?xml version="1.0"?>
<svg xmlns="http://www.w3.org/2000/svg" viewBox="0 0 24 24">
    <path d="M 1 5 L 1 20 L 23 20 L 23 5 L 1 5 z M 7.6445312 10 C 9.0675313 10.041 9.1542969 11.282906 9.1542969 11.503906 L 8.1875 11.503906 C 8.1875 11.400906 8.2049063 10.806641 7.6289062 10.806641 C 7.4539063 10.806641 7.0598438 10.884188 7.0898438 11.367188 C 7.1188438 11.810188 7.7035469 12.019406 7.8105469 12.066406 C 8.0345469 12.148406 9.1413906 12.642391 9.1503906 13.650391 C 9.1523906 13.864391 9.0970625 14.985 7.6640625 15 C 6.1050625 15.017 6 13.675438 6 13.398438 L 6.9746094 13.398438 C 6.9746094 13.545438 6.9870625 14.256172 7.6640625 14.201172 C 8.0710625 14.167172 8.1598281 13.87425 8.1738281 13.65625 C 8.1968281 13.28925 7.8465625 13.068625 7.4765625 12.890625 C 6.9565625 12.640625 6.1341406 12.333375 6.1191406 11.359375 C 6.1061406 10.482375 6.7505312 9.975 7.6445312 10 z M 15 10 L 16 10 L 16 14 L 18 14 L 18 15 L 15 15 L 15 10 z M 12 10.001953 C 13.864 9.9719531 14 11.779906 14 12.128906 L 14 12.9375 C 14 13.2795 13.913812 15.039047 12.007812 14.998047 C 9.9668125 14.955047 10 13.2785 10 12.9375 L 10 12.128906 C 10 11.777906 10.167 10.030953 12 10.001953 z M 12.001953 10.822266 C 11.056953 10.840266 11 11.889094 11 12.121094 L 11 12.9375 C 11 13.1595 11.154719 14.196688 12.011719 14.179688 C 12.833719 14.163688 13 13.1585 13 12.9375 L 13 12.121094 C 13 11.889094 12.887953 10.804266 12.001953 10.822266 z"/>
</svg>
