<?xml version="1.0"?>
<svg xmlns="http://www.w3.org/2000/svg" viewBox="0 0 24 24">
    <path style="line-height:normal;text-indent:0;text-align:start;text-decoration-line:none;text-decoration-style:solid;text-decoration-color:#000;text-transform:none;block-progression:tb;isolation:auto;mix-blend-mode:normal" d="M 19.5 3 C 18.130937 3 17 4.1309372 17 5.5 L 17 6 L 19 6 L 19 5.5 C 19 5.2130628 19.213063 5 19.5 5 C 19.786937 5 20 5.2130628 20 5.5 C 20 5.583333 19.520757 6.4039566 18.841797 6.9980469 C 18.162837 7.5921371 17.470703 8.0273438 17.470703 8.0273438 L 17 8.3203125 L 17 10 L 22 10 L 22 8 L 20.65625 8 C 21.335367 7.3659126 22 6.6295197 22 5.5 C 22 4.1309372 20.869063 3 19.5 3 z M 2.0429688 5 L 7.3222656 13 L 2.0429688 21 L 4.4394531 21 L 8.5214844 14.816406 L 12.601562 21 L 14.998047 21 L 9.71875 13.001953 L 15 5 L 12.603516 5 L 8.5195312 11.185547 L 4.4375 5 L 2.0429688 5 z" font-weight="400" font-family="sans-serif" white-space="normal" overflow="visible"/>
</svg>
