<?xml version="1.0"?>
<svg xmlns="http://www.w3.org/2000/svg" viewBox="0 0 24 24">
    <path style="line-height:normal;text-indent:0;text-align:start;text-decoration-line:none;text-decoration-style:solid;text-decoration-color:#000;text-transform:none;block-progression:tb;isolation:auto;mix-blend-mode:normal" d="M 3 3 L 3 21 L 8 21 L 8 19 L 5 19 L 5 8 L 19 8 L 19 14 L 21 14 L 21 3 L 3 3 z M 18 16 L 18 18 L 18 19 L 18 21 L 19 21 L 19 19 L 20 19 L 20 21 L 21 21 L 21 16 L 20 16 L 20 18 L 19 18 L 19 16 L 18 16 z M 11.490234 16.001953 C 10.596234 15.976953 9.9518438 16.484328 9.9648438 17.361328 C 9.9798437 18.335328 10.802266 18.642578 11.322266 18.892578 C 11.692266 19.070578 12.041531 19.29025 12.019531 19.65625 C 12.005531 19.87425 11.916766 20.167172 11.509766 20.201172 C 10.832766 20.256172 10.820312 19.545437 10.820312 19.398438 L 9.8457031 19.398438 C 9.8457031 19.675438 9.9507656 21.017 11.509766 21 C 12.942766 20.985 12.998094 19.864391 12.996094 19.650391 C 12.987094 18.642391 11.878297 18.148406 11.654297 18.066406 C 11.547297 18.018406 10.964547 17.808187 10.935547 17.367188 C 10.905547 16.884188 11.297656 16.806641 11.472656 16.806641 C 12.048656 16.806641 12.03125 17.402859 12.03125 17.505859 L 13 17.505859 C 13 17.284859 12.913234 16.042953 11.490234 16.001953 z M 15.644531 16.001953 C 14.750531 15.976953 14.106141 16.484328 14.119141 17.361328 C 14.134141 18.335328 14.956563 18.642578 15.476562 18.892578 C 15.846563 19.070578 16.195828 19.29025 16.173828 19.65625 C 16.159828 19.87425 16.071063 20.167172 15.664062 20.201172 C 14.987062 20.256172 14.974609 19.545437 14.974609 19.398438 L 14 19.398438 C 14 19.675437 14.105062 21.017 15.664062 21 C 17.097063 20.985 17.152391 19.864391 17.150391 19.650391 C 17.141391 18.642391 16.034547 18.148406 15.810547 18.066406 C 15.703547 18.018406 15.118844 17.808187 15.089844 17.367188 C 15.059844 16.884188 15.453906 16.806641 15.628906 16.806641 C 16.204906 16.806641 16.1875 17.402859 16.1875 17.505859 L 17.154297 17.505859 C 17.154297 17.284859 17.067531 16.042953 15.644531 16.001953 z" font-weight="400" font-family="sans-serif" white-space="normal" overflow="visible"/>
</svg>
