<?xml version="1.0"?>
<svg xmlns="http://www.w3.org/2000/svg" viewBox="0 0 24 24">
    <path d="M 4.0195312 2 L 4.0058594 5 L 2.0117188 5 L 1.9980469 20 L 6 20 L 10.199219 20 L 12 23 L 13.800781 20 L 22 20 L 22 5 L 20 5 L 20 2 L 4.0195312 2 z M 6 4 L 18 4 L 18 5 L 6 5 L 6 4 z M 9 8 L 11 8 L 11 9 L 11 11 L 12.998047 11 L 14 11 L 14.998047 11 L 14.998047 11.996094 C 14.998047 11.997094 15 11.999 15 12 C 15 12.001 14.998047 12.002906 14.998047 12.003906 L 14.998047 13 L 14 13 L 12.998047 13 L 11 13 L 11 15 L 12.998047 15 L 14 15 L 14.998047 15 L 14.998047 15.996094 C 14.998047 15.997094 15 15.999 15 16 C 15 16.001 14.998047 16.002906 14.998047 16.003906 L 14.998047 17 L 14 17 L 12.998047 17 L 9 17 L 9 11 L 9 9 L 9 8 z"/>
</svg>
