<?xml version="1.0"?>
<svg xmlns="http://www.w3.org/2000/svg" viewBox="0 0 24 24">
    <path d="M 2 4 L 2 8 L 22 8 L 22 4 L 2 4 z M 5 5 C 5.552 5 6 5.448 6 6 C 6 6.552 5.552 7 5 7 C 4.448 7 4 6.552 4 6 C 4 5.448 4.448 5 5 5 z M 2 10 L 2 14 L 22 14 L 22 10 L 2 10 z M 5 11 C 5.552 11 6 11.448 6 12 C 6 12.552 5.552 13 5 13 C 4.448 13 4 12.552 4 12 C 4 11.448 4.448 11 5 11 z M 2 16 L 2 20 L 22 20 L 22 16 L 2 16 z M 5 17 C 5.552 17 6 17.448 6 18 C 6 18.552 5.552 19 5 19 C 4.448 19 4 18.552 4 18 C 4 17.448 4.448 17 5 17 z"/>
</svg>
