<?xml version="1.0"?>
<svg xmlns="http://www.w3.org/2000/svg" viewBox="0 0 24 24">
    <path style="line-height:normal;text-indent:0;text-align:start;text-decoration-line:none;text-decoration-style:solid;text-decoration-color:#000;text-transform:none;block-progression:tb;isolation:auto;mix-blend-mode:normal" d="M 3 2 L 3 8 L 6 8 L 6 20 L 13 20 L 13 22 L 21 22 L 21 21 L 21 16 L 13 16 L 13 18 L 8 18 L 8 12 L 13 12 L 13 14 L 21 14 L 21 13 L 21 8 L 13 8 L 13 10 L 8 10 L 8 8 L 11 8 L 11 7 L 11 2 L 3 2 z M 5 4 L 9 4 L 9 6 L 5 6 L 5 4 z M 15 10 L 19 10 L 19 12 L 15 12 L 15 10 z M 15 18 L 19 18 L 19 20 L 15 20 L 15 18 z" font-weight="400" font-family="sans-serif" white-space="normal" overflow="visible"/>
</svg>
