<?xml version="1.0"?>
<svg xmlns="http://www.w3.org/2000/svg" viewBox="0 0 24 24">
    <path style="line-height:normal;text-indent:0;text-align:start;text-decoration-line:none;text-decoration-style:solid;text-decoration-color:#000;text-transform:none;block-progression:tb;isolation:auto;mix-blend-mode:normal" d="M 3 3 L 3 15 L 3 16 L 3 21 L 21 21 L 21 15 L 5 15 L 5 5 L 13 5 L 13 13 L 16 13 L 17 13 L 18 13 L 18 3 L 3 3 z M 7 7 L 7 9 L 11 9 L 11 7 L 7 7 z M 7 10 L 7 12 L 11 12 L 11 10 L 7 10 z M 5 17 L 7 17 L 7 19 L 5 19 L 5 17 z"/>
</svg>
