<?xml version="1.0"?>
<svg xmlns="http://www.w3.org/2000/svg" viewBox="0 0 24 24">
    <path style="line-height:normal;text-indent:0;text-align:start;text-decoration-line:none;text-decoration-style:solid;text-decoration-color:#000;text-transform:none;block-progression:tb;isolation:auto;mix-blend-mode:normal" d="M 15 2 C 13.667 2 12.425234 2.38025 11.365234 3.03125 C 11.575234 3.01625 11.786 3 12 3 C 16.971 3 21 7.029 21 12 C 21 12.214 20.98375 12.424766 20.96875 12.634766 C 21.61975 11.574766 22 10.333 22 9 C 22 5.14 18.859 2 15 2 z M 12 5 C 10.667 5 9.4252344 5.38025 8.3652344 6.03125 C 8.5752344 6.01625 8.786 6 9 6 C 13.971 6 18 10.029 18 15 C 18 15.214 17.98375 15.422813 17.96875 15.632812 C 18.61975 14.572813 19 13.332 19 12 C 19 8.14 15.859 5 12 5 z M 9 8 C 5.1458514 8 2 11.145851 2 15 C 2 18.854149 5.1458514 22 9 22 C 12.854149 22 16 18.854149 16 15 C 16 11.145851 12.854149 8 9 8 z M 9 10 C 11.773268 10 14 12.226732 14 15 C 14 17.773268 11.773268 20 9 20 C 6.2267316 20 4 17.773268 4 15 C 4 12.226732 6.2267316 10 9 10 z" font-weight="400" font-family="sans-serif" white-space="normal" overflow="visible"/>
</svg>
