<?xml version="1.0"?>
<svg xmlns="http://www.w3.org/2000/svg" viewBox="0 0 24 24">
    <path d="M 3 3 L 3 12.279297 L 6.6152344 13.484375 C 6.6932344 13.385375 6.7841406 13.303891 6.8691406 13.212891 C 6.9501406 13.119891 7.0330469 13.027359 7.1230469 12.943359 C 7.1760469 12.895359 7.2301562 12.853594 7.2851562 12.808594 C 7.4261563 12.692594 7.575375 12.586187 7.734375 12.492188 C 7.817375 12.442187 7.9022812 12.398469 7.9882812 12.355469 C 8.1032813 12.300469 8.22175 12.253938 8.34375 12.210938 C 8.47375 12.163937 8.6023281 12.117891 8.7363281 12.087891 C 8.8533281 12.061891 8.9766562 12.054063 9.0976562 12.039062 C 9.1736563 12.031063 9.2472188 12.011766 9.3242188 12.009766 L 11 9.4003906 L 11 9.171875 C 11 7.082875 12.527422 5.2175313 14.607422 5.0195312 C 16.993422 4.7915312 19 6.661 19 9 C 19 9.263 18.972875 9.5224375 18.921875 9.7734375 C 18.723875 10.785438 18.140938 11.652375 17.335938 12.234375 C 17.331937 12.237375 17.326266 12.241141 17.322266 12.244141 C 17.174266 12.350141 17.015516 12.438438 16.853516 12.523438 C 16.778516 12.563437 16.708859 12.609531 16.630859 12.644531 C 16.521859 12.693531 16.406969 12.728578 16.292969 12.767578 C 16.151969 12.817578 16.011281 12.867391 15.863281 12.900391 C 15.782281 12.918391 15.698234 12.9245 15.615234 12.9375 C 15.512234 12.9535 15.410688 12.974422 15.304688 12.982422 L 13 15.060547 L 13 15.302734 C 13 17.197734 11.5805 18.895141 9.6875 18.994141 C 7.6695 19.100141 6 17.495 6 15.5 L 6 15.400391 L 3 14.400391 L 3 21 L 21 21 L 21 3 L 3 3 z M 15 7 A 2 2 0 0 0 13 9 A 2 2 0 0 0 15 11 A 2 2 0 0 0 17 9 A 2 2 0 0 0 15 7 z M 6.640625 13.492188 C 6.259625 14.033187 6.0337187 14.684625 6.0117188 15.390625 L 8.125 16.095703 A 1.5 1.5 0 0 0 9.5 17 A 1.5 1.5 0 0 0 11 15.5 A 1.5 1.5 0 0 0 9.5 14 A 1.5 1.5 0 0 0 8.7578125 14.199219 L 6.640625 13.492188 z"/>
</svg>
