<?xml version="1.0"?>
<svg xmlns="http://www.w3.org/2000/svg" viewBox="0 0 24 24">
    <path d="M 2 3 L 2 19 L 3.1289062 19 C 3.5759063 20.729 5.137 22 7 22 C 8.48 22 9.7709375 21.2 10.460938 20 L 6.5273438 20 C 6.2333438 20 5.9373281 19.898594 5.7363281 19.683594 C 4.1633281 18.001594 5.359 16 7 16 L 15.472656 16 C 15.766656 16 16.062672 16.101406 16.263672 16.316406 C 17.836672 17.997406 16.641 20 15 20 L 11.539062 20 C 12.229062 21.2 13.52 22 15 22 C 16.86 22 18.409375 20.72 18.859375 19 L 21 19 L 21 17 L 23 17 L 23 10 L 17 10 L 17 8 L 18 8 L 18 6 L 11 6 L 11 8 L 12 8 L 12 10 L 9 10 L 9 5 L 10 5 L 10 3 L 2 3 z M 4 5 L 7 5 L 7 10 L 4 10 L 4 5 z M 7 17 L 7 19 L 15 19 L 15 17 L 7 17 z"/>
</svg>
