<?xml version="1.0"?>
<svg xmlns="http://www.w3.org/2000/svg" viewBox="0 0 24 24">
    <path d="M 12 2 C 6.5 2 2 6.5 2 12 C 2 17.5 6.5 22 12 22 C 17.5 22 22 17.5 22 12 C 22 6.5 17.5 2 12 2 z M 12 4 C 16.060626 4 19.432555 7.0686366 19.929688 11 L 15.869141 11 A 4 4 0 0 0 12 8 A 4 4 0 0 0 8.1328125 11 L 4.0703125 11 C 4.5674453 7.0686366 7.9393738 4 12 4 z M 4.0703125 13 L 8.1308594 13 A 4 4 0 0 0 11 15.867188 L 11 19.929688 C 7.3972071 19.474103 4.5258966 16.602793 4.0703125 13 z M 15.867188 13 L 19.929688 13 C 19.474103 16.602793 16.602793 19.474103 13 19.929688 L 13 15.869141 A 4 4 0 0 0 15.867188 13 z"/>
</svg>
