<?xml version="1.0"?>
<svg xmlns="http://www.w3.org/2000/svg" viewBox="0 0 24 24">
    <path style="line-height:normal;text-indent:0;text-align:start;text-decoration-line:none;text-decoration-style:solid;text-decoration-color:#000;text-transform:none;block-progression:tb;isolation:auto;mix-blend-mode:normal" d="M 2 2 L 2.0019531 6.9550781 C 1.8817039 9.4186506 3.0899013 11.854214 5.3222656 13.042969 C 5.6901034 13.238941 6.06068 13.39407 6.4316406 13.527344 C 6.7867855 14.123235 7.3367179 14.58078 8 14.816406 L 8 22 L 20 22 L 20 17.826172 A 3 3 0 0 0 22 15 A 3 3 0 0 0 19 12 A 3 3 0 0 0 16 15 A 3 3 0 0 0 18 17.824219 L 18 20 L 10 20 L 10 14.816406 C 10.677487 14.575733 11.235916 14.102732 11.589844 13.488281 C 11.953972 13.344209 12.308577 13.181712 12.638672 12.980469 C 14.654247 11.75167 16 9.5256331 16 7 L 16 6.9765625 L 16 2 L 12 2 L 12 4 L 14 4 L 14 6.9765625 L 14 7 C 14 8.8173669 13.037331 10.395737 11.597656 11.273438 C 10.899584 11.699018 10.095274 11.960875 9.2246094 12 L 8.9472656 12 C 8.1003339 11.99113 7.1972344 11.776649 6.2636719 11.279297 C 4.7752168 10.48664 3.9117705 8.7959247 3.9980469 7.0488281 L 3.9980469 7.046875 L 4.0019531 6.9980469 L 4 4 L 6 4 L 6 2 L 2 2 z" font-weight="400" font-family="sans-serif" white-space="normal" overflow="visible"/>
</svg>
