<?xml version="1.0"?>
<svg xmlns="http://www.w3.org/2000/svg" viewBox="0 0 24 24">
    <path d="M 4.2792969 1.96875 L 4.046875 2.9394531 L 5.3574219 3.2539062 L 4.6660156 5.6425781 C 4.5220156 6.1355781 4.5725937 6.6582344 4.8085938 7.1152344 L 6.3457031 10.097656 L 5.3085938 13.832031 L 3.7441406 15.841797 L 3.5859375 16 C 3.2109375 16.375 3 16.884062 3 17.414062 L 3 22 L 5 22 L 5 17.414062 L 6.7402344 16 L 7.3828125 16 L 14.748047 22 L 17.835938 22 L 9.3984375 14.871094 L 10.242188 11.816406 L 12.148438 13.316406 C 12.503438 13.594406 12.940766 13.744141 13.384766 13.744141 C 13.503766 13.744141 13.624141 13.732938 13.744141 13.710938 L 17.287109 13.064453 L 16.927734 11.097656 L 13.384766 11.744141 L 10.882812 9.7753906 L 7.9335938 8.8144531 L 6.5878906 6.1992188 L 7.3046875 3.7207031 L 20.751953 6.9375 L 20.982422 5.9648438 L 4.2792969 1.96875 z M 10 5 A 2 2 0 0 0 8 7 A 2 2 0 0 0 10 9 A 2 2 0 0 0 12 7 A 2 2 0 0 0 10 5 z"/>
</svg>
