<?xml version="1.0"?>
<svg xmlns="http://www.w3.org/2000/svg" viewBox="0 0 24 24">
    <path style="line-height:normal;text-indent:0;text-align:start;text-decoration-line:none;text-decoration-style:solid;text-decoration-color:#000;text-transform:none;block-progression:tb;isolation:auto;mix-blend-mode:normal" d="M 6 3 L 6 5 L 8 5 L 8 3 L 6 3 z M 16 3 L 16 5 L 18 5 L 18 3 L 16 3 z M 20.292969 4.2929688 L 17 7.5859375 L 14 4.5859375 L 10 8.5859375 L 7 5.5859375 L 3.2929688 9.2929688 L 4.7070312 10.707031 L 7 8.4140625 L 10 11.414062 L 14 7.4140625 L 17 10.414062 L 21.707031 5.7070312 L 20.292969 4.2929688 z M 6 11 L 6 13 L 8 13 L 8 11 L 6 11 z M 16 11 L 16 13 L 18 13 L 18 11 L 16 11 z M 6 15 L 6 17 L 8 17 L 8 15 L 6 15 z M 16 15 L 16 17 L 18 17 L 18 15 L 16 15 z M 3 19 L 3 21 L 21 21 L 21 19 L 3 19 z" font-weight="400" font-family="sans-serif" white-space="normal" overflow="visible"/>
</svg>
