<?xml version="1.0"?>
<svg xmlns="http://www.w3.org/2000/svg" viewBox="0 0 24 24">
    <path style="line-height:normal;text-indent:0;text-align:start;text-decoration-line:none;text-decoration-style:solid;text-decoration-color:#000;text-transform:none;block-progression:tb;isolation:auto;mix-blend-mode:normal" d="M 9 1 L 9 3 L 15 3 L 15 1 L 9 1 z M 12 4 C 7.038 4 3 8.037 3 13 C 3 17.963 7.038 22 12 22 C 16.962 22 21 17.963 21 13 C 21 10.80781 20.209648 8.797128 18.902344 7.234375 L 20.412109 5.4375 L 18.880859 4.1503906 L 17.449219 5.8535156 C 15.934475 4.6954555 14.049346 4 12 4 z M 11 7 L 13 7 L 13 11.277344 C 13.595 11.623344 14 12.261 14 13 C 14 14.105 13.105 15 12 15 C 10.895 15 10 14.105 10 13 C 10 12.262 10.405 11.624344 11 11.277344 L 11 7 z" font-weight="400" font-family="sans-serif" white-space="normal" overflow="visible"/>
</svg>
