<?xml version="1.0"?>
<svg xmlns="http://www.w3.org/2000/svg" viewBox="0 0 24 24">
    <path d="M 6.9140625 3 L 1.8535156 12 L 6.9140625 21 L 17.085938 21 L 22.146484 12 L 17.085938 3 L 6.9140625 3 z M 7.3125 10.087891 C 7.7295 10.087891 8.0398125 10.174438 8.2578125 10.273438 L 8.0703125 10.949219 C 7.9223125 10.878219 7.658875 10.773438 7.296875 10.773438 C 6.934875 10.773438 6.7578125 10.938859 6.7578125 11.130859 C 6.7578125 11.366859 6.9673125 11.471344 7.4453125 11.652344 C 8.0983125 11.894344 8.40625 12.236813 8.40625 12.757812 C 8.40625 13.379813 7.9291094 13.90625 6.9121094 13.90625 C 6.4891094 13.90625 6.0722813 13.795688 5.8632812 13.679688 L 6.0332031 12.988281 C 6.2592031 13.103281 6.6048906 13.21875 6.9628906 13.21875 C 7.3478906 13.21875 7.5507813 13.058406 7.5507812 12.816406 C 7.5507812 12.586406 7.3746875 12.454922 6.9296875 12.294922 C 6.3146875 12.080922 5.9121094 11.739172 5.9121094 11.201172 C 5.9121094 10.570172 6.4395 10.087891 7.3125 10.087891 z M 13.462891 10.089844 C 14.599891 10.089844 15.220703 10.940891 15.220703 11.962891 C 15.220703 13.175891 14.482391 13.912109 13.400391 13.912109 C 12.301391 13.912109 11.660156 13.081344 11.660156 12.027344 C 11.660156 10.918344 12.369891 10.089844 13.462891 10.089844 z M 16.90625 10.121094 C 17.42325 10.121094 17.790109 10.219969 18.037109 10.417969 C 18.273109 10.604969 18.433594 10.912391 18.433594 11.275391 C 18.433594 11.637391 18.31375 11.945297 18.09375 12.154297 C 17.80775 12.423297 17.382672 12.544922 16.888672 12.544922 C 16.779672 12.544922 16.679516 12.538344 16.603516 12.527344 L 16.603516 13.851562 L 15.773438 13.851562 L 15.773438 10.197266 C 16.032438 10.153266 16.39525 10.121094 16.90625 10.121094 z M 8.6953125 10.148438 L 11.541016 10.148438 L 11.541016 10.851562 L 10.529297 10.851562 L 10.529297 13.851562 L 9.6894531 13.851562 L 9.6894531 10.851562 L 8.6953125 10.851562 L 8.6953125 10.148438 z M 13.439453 10.753906 C 12.874453 10.753906 12.544922 11.291719 12.544922 12.011719 C 12.544922 12.736719 12.883359 13.246094 13.443359 13.246094 C 14.008359 13.246094 14.333984 12.707281 14.333984 11.988281 C 14.334984 11.323281 14.017453 10.753906 13.439453 10.753906 z M 16.949219 10.753906 C 16.779219 10.753906 16.664516 10.769156 16.603516 10.785156 L 16.603516 11.878906 C 16.674516 11.895906 16.762812 11.900391 16.882812 11.900391 C 17.327813 11.900391 17.601562 11.675875 17.601562 11.296875 C 17.602563 10.955875 17.367219 10.753906 16.949219 10.753906 z"/>
</svg>
