<?xml version="1.0"?>
<svg xmlns="http://www.w3.org/2000/svg" viewBox="0 0 24 24">
    <path d="M 13 2 A 3 3 0 0 0 10 5 A 3 3 0 0 0 13 8 A 3 3 0 0 0 15.824219 6 L 18 6 L 18 11 L 16.150391 11 L 15.917969 10 L 13.917969 10 L 14.150391 11 L 9.7675781 11 L 9.3027344 13 L 14.615234 13 L 15.080078 15 L 8.8378906 15 L 8.3710938 17 L 15.544922 17 L 16.009766 19 L 7.90625 19 L 7.4414062 21 L 16.474609 21 L 16.707031 22 L 18.707031 22 L 18.474609 21 L 18.476562 21 L 21.707031 21 L 21.207031 19 L 18.009766 19 L 17.544922 17 L 20.707031 17 L 20.207031 15 L 17.080078 15 L 16.615234 13 L 18 13 L 19.707031 13 L 20 13 L 20 4 L 15.826172 4 A 3 3 0 0 0 13 2 z M 6 10 L 5.7675781 11 L 3.7070312 11 L 3.2070312 13 L 5.3027344 13 L 4.8378906 15 L 2.7070312 15 L 2.2070312 17 L 4.3710938 17 L 3.90625 19 L 1.7070312 19 L 1.2070312 21 L 3.4414062 21 L 3.2070312 22 L 5.2070312 22 L 8 10 L 6 10 z"/>
</svg>
