<?xml version="1.0"?>
<svg xmlns="http://www.w3.org/2000/svg" viewBox="0 0 24 24">
    <path d="M 11 2.0507812 C 5.947 2.5527813 2 6.815 2 12 C 2 17.523 6.477 22 12 22 C 15.803 22 19.109781 19.876 20.800781 16.75 L 18.003906 15.585938 C 16.781906 17.628937 14.554 19 12 19 C 8.134 19 5 15.866 5 12 C 5 8.474 7.609 5.5660781 11 5.0800781 L 11 2.0507812 z M 13 2.0507812 L 13 5.0800781 C 16.391 5.5660781 19 8.475 19 12 C 19 12.602 18.916437 13.181281 18.773438 13.738281 L 21.568359 14.904297 C 21.847359 13.984297 22 13.01 22 12 C 22 6.815 18.053 2.5527813 13 2.0507812 z"/>
</svg>
