<?xml version="1.0"?>
<svg xmlns="http://www.w3.org/2000/svg" viewBox="0 0 24 24">
    <path style="line-height:normal;text-indent:0;text-align:start;text-decoration-line:none;text-decoration-style:solid;text-decoration-color:#000;text-transform:none;block-progression:tb;isolation:auto;mix-blend-mode:normal" d="M 2 3 L 2 18 C 2 19.654 3.346 21 5 21 L 19 21 C 20.64497 21 22 19.64497 22 18 L 22 7 L 20 7 L 20 18 C 20 18.56503 19.56503 19 19 19 C 18.449 19 18 18.551 18 18 L 18 3 L 2 3 z M 7.765625 8 L 12.382812 8 L 14.693359 12 L 12.382812 16 L 7.765625 16 L 10.707031 12.707031 L 12 14 L 12 10 L 8 10 L 9.2929688 11.292969 L 6.1972656 13.287109 L 5.4550781 12 L 7.765625 8 z" font-weight="400" font-family="sans-serif" white-space="normal" overflow="visible"/>
</svg>
