<?xml version="1.0"?>
<svg xmlns="http://www.w3.org/2000/svg" viewBox="0 0 24 24">
    <path d="M 12.929688 1 C 12.929688 1 11.736734 3.383375 12.052734 5.109375 C 12.085413 5.2874063 12.150693 5.4740938 12.222656 5.6621094 C 12.222656 5.6621094 12.220703 5.6601562 12.220703 5.6601562 L 12.210938 5.6601562 C 10.340937 4.6401563 8.3398438 4.5900781 6.0898438 6.8300781 C 3.7598438 9.1600781 2 13.359375 2 16.609375 C 2 18.299375 2.4903906 19.679609 3.4003906 20.599609 L 3.4101562 20.599609 C 4.3801563 21.569609 5.800625 21.980469 7.390625 21.980469 C 10.790625 21.980469 14.959688 20.120391 17.179688 17.900391 C 18.399687 16.680391 19 15.469453 19 14.189453 C 19 13.349453 18.740547 12.549531 18.310547 11.769531 C 18.309711 11.767989 18.307478 11.767167 18.306641 11.765625 C 18.485064 11.834707 18.664181 11.901821 18.833984 11.935547 C 20.571984 12.280547 23 11.142578 23 11.142578 C 23 11.142578 21.366812 8.5213438 19.507812 8.1523438 C 19.159339 8.0832871 18.769959 8.0889788 18.375 8.1230469 C 18.473428 8.0500906 18.579841 7.9836825 18.664062 7.9003906 C 19.841062 6.7343906 20 4 20 4 C 20 4 17.323453 4.0801719 16.064453 5.3261719 C 16.00393 5.3860701 15.959317 5.4615695 15.904297 5.5273438 C 15.935125 5.1735718 15.942514 4.8271134 15.884766 4.5117188 C 15.546766 2.6657187 12.929688 1 12.929688 1 z M 9 9 C 9.55 9 10 9.45 10 10 C 10 10.55 9.55 11 9 11 C 8.45 11 8 10.55 8 10 C 8 9.45 8.45 9 9 9 z M 10.5 12.5 C 11.05 12.5 11.5 12.95 11.5 13.5 C 11.5 14.05 11.05 14.5 10.5 14.5 C 9.95 14.5 9.5 14.05 9.5 13.5 C 9.5 12.95 9.95 12.5 10.5 12.5 z M 6.5 14 C 7.05 14 7.5 14.45 7.5 15 C 7.5 15.55 7.05 16 6.5 16 C 5.95 16 5.5 15.55 5.5 15 C 5.5 14.45 5.95 14 6.5 14 z M 14 14 C 14.55 14 15 14.45 15 15 C 15 15.55 14.55 16 14 16 C 13.45 16 13 15.55 13 15 C 13 14.45 13.45 14 14 14 z M 9.5 16.5 C 10.05 16.5 10.5 16.95 10.5 17.5 C 10.5 18.05 10.05 18.5 9.5 18.5 C 8.95 18.5 8.5 18.05 8.5 17.5 C 8.5 16.95 8.95 16.5 9.5 16.5 z"/>
</svg>
