<?xml version="1.0"?>
<svg xmlns="http://www.w3.org/2000/svg" viewBox="0 0 24 24">
    <path style="line-height:normal;text-indent:0;text-align:start;text-decoration-line:none;text-decoration-style:solid;text-decoration-color:#000;text-transform:none;block-progression:tb;isolation:auto;mix-blend-mode:normal" d="M 8 2 L 8 4 L 2 4 L 2 6 L 8 6 L 8 8 L 2 8 L 2 10 L 10 10 L 10 2 L 8 2 z M 13 2 L 13 10 L 21 10 L 21 8 L 15 8 L 15 2 L 13 2 z M 2 13 L 2 15 L 8 15 L 8 21 L 10 21 L 10 13 L 2 13 z M 13 13 L 13 17 L 13 19 L 13 21 L 15 21 L 15 19 L 21 19 L 21 17 L 15 17 L 15 15 L 21 15 L 21 13 L 13 13 z" font-weight="400" font-family="sans-serif" white-space="normal" overflow="visible"/>
</svg>
