<?xml version="1.0"?>
<svg xmlns="http://www.w3.org/2000/svg" viewBox="0 0 24 24">
    <path d="M 12 2 A 2 2 0 0 0 10 4 A 2 2 0 0 0 12 6 A 2 2 0 0 0 14 4 A 2 2 0 0 0 12 2 z M 8 7 L 8 14 L 9 14 L 9 18 L 11 18 L 11 14 L 13 14 L 13 18 L 15 18 L 15 14 L 16 14 L 16 7 L 8 7 z M 7 15.521484 C 4.817 16.020484 3 16.934 3 18.5 C 3 21.263 8.657 22 12 22 C 15.343 22 21 21.263 21 18.5 C 21 16.934 19.183 16.020484 17 15.521484 L 17 17.589844 C 18.128 17.901844 18.794609 18.267 18.974609 18.5 C 18.607609 18.976 16.246 20 12 20 C 7.754 20 5.3923906 18.976 5.0253906 18.5 C 5.2053906 18.267 5.872 17.901844 7 17.589844 L 7 15.521484 z"/>
</svg>
