<?xml version="1.0"?>
<svg xmlns="http://www.w3.org/2000/svg" viewBox="0 0 24 24">
    <path d="M21,3H3v18h18V3z M14.825,14.286c0,1.938-1.315,2.474-1.955,2.626C12.586,16.962,12.298,17,12,17 c-0.224,0-0.438-0.037-0.655-0.066c-0.633-0.123-2.183-0.64-2.183-3.128h1.89c0,1.708,0.881,1.637,1.015,1.637 c0.147,0,0.868-0.027,0.868-1.143c0-2.229-3.459-1.24-3.459-4.581c0-2.29,1.898-2.647,2.237-2.69v0C11.81,7.023,11.902,7,12,7 c0.29,0,0.569,0.038,0.845,0.085c0.501,0.123,1.992,0.664,1.992,3.069h-1.89c0-1.373-0.583-1.589-0.828-1.589 c-0.134,0-0.755,0.035-0.755,1.162C11.366,11.694,14.825,11.081,14.825,14.286z"/>
</svg>
