<?xml version="1.0"?>
<svg xmlns="http://www.w3.org/2000/svg" viewBox="0 0 24 24">
    <path d="M 12 3 L 12 10 L 6.2871094 10 C 6.106654 9.5748431 5.8297941 9.0133753 5.3515625 8.3789062 C 4.5215492 7.2777293 3.0720662 6.0800781 1.0039062 6.0800781 L 1.0039062 8.0800781 C 2.3247465 8.0800781 3.1541227 8.7837084 3.7558594 9.5820312 C 4.2900332 10.290719 4.5099482 10.91315 4.5605469 11.0625 L 4.5605469 17.957031 L 6.296875 17.957031 A 2 2 0 0 0 6 19 A 2 2 0 0 0 8 21 A 2 2 0 0 0 10 19 A 2 2 0 0 0 9.7050781 17.957031 L 15.296875 17.957031 A 2 2 0 0 0 15 19 A 2 2 0 0 0 17 21 A 2 2 0 0 0 19 19 A 2 2 0 0 0 18.705078 17.957031 L 21 17.957031 L 21 11 L 21 10 C 20.89 8.8 20.410156 6.8004687 18.910156 5.2304688 C 17.500156 3.7504687 15.51 3 13 3 L 12 3 z"/>
</svg>
