<?xml version="1.0"?>
<svg xmlns="http://www.w3.org/2000/svg" viewBox="0 0 24 24">
    <path style="line-height:normal;text-indent:0;text-align:start;text-decoration-line:none;text-decoration-style:solid;text-decoration-color:#000;text-transform:none;block-progression:tb;isolation:auto;mix-blend-mode:normal" d="M 12 2.0996094 L 1 12 L 6 12 L 6 10.191406 L 12 4.7910156 L 18 10.191406 L 18 12 L 23 12 L 12 2.0996094 z M 4 14 L 4 16 L 6 16 L 6 14 L 4 14 z M 18 14 L 18 16 L 20 16 L 20 14 L 18 14 z M 4 18 L 4 21 L 7 21 L 7 19 L 6 19 L 6 18 L 4 18 z M 18 18 L 18 19 L 17 19 L 17 21 L 20 21 L 20 18 L 18 18 z M 9 19 L 9 21 L 11 21 L 11 19 L 9 19 z M 13 19 L 13 21 L 15 21 L 15 19 L 13 19 z" font-weight="400" font-family="sans-serif" white-space="normal" overflow="visible"/>
</svg>
