<?xml version="1.0"?>
<svg xmlns="http://www.w3.org/2000/svg" viewBox="0 0 24 24">
    <path style="line-height:normal;text-indent:0;text-align:start;text-decoration-line:none;text-decoration-style:solid;text-decoration-color:#000;text-transform:none;block-progression:tb;isolation:auto;mix-blend-mode:normal" d="M 13 2 A 2 2 0 0 0 11 4 A 2 2 0 0 0 13 6 A 2 2 0 0 0 15 4 A 2 2 0 0 0 13 2 z M 6.6933594 6.2734375 L 5.25 12.242188 L 7.1933594 12.712891 L 8.6386719 6.7441406 L 6.6933594 6.2734375 z M 10.441406 7 L 9.0761719 12.453125 L 9.0800781 12.46875 C 9.0328548 12.639144 9 12.814619 9 13 C 9 13.621496 9.2894893 14.170192 9.734375 14.537109 L 9.7363281 14.544922 L 12.755859 17.417969 L 14.458984 21.464844 L 14.666016 21.980469 L 16.521484 21.238281 L 14.628906 16.505859 L 14.626953 16.503906 L 14.625 16.5 L 12.890625 13.65625 L 12.933594 13.482422 C 12.942925 13.445011 12.955699 13.409303 12.962891 13.371094 L 13.511719 11.185547 L 14.541016 12.636719 L 18.011719 13.898438 L 18.695312 12.019531 L 15.810547 10.970703 L 12.998047 7 L 10.441406 7 z M 9.0527344 15.914062 L 8.5683594 17.349609 L 6.0390625 20.839844 L 7.6582031 22.013672 L 10.277344 18.400391 C 10.337344 18.318391 10.383016 18.228812 10.416016 18.132812 L 10.642578 17.457031 L 9.0527344 15.914062 z" font-weight="400" font-family="sans-serif" white-space="normal" overflow="visible"/>
</svg>
