<?xml version="1.0"?>
<svg xmlns="http://www.w3.org/2000/svg" viewBox="0 0 24 24">
    <path d="M 12 0.9140625 L -0.1328125 6.0234375 L 4 7.6777344 L 4 9 C 3 11 2 15.2 2 20 L 6.1796875 20 C 7.3742346 21.467542 9.2617795 23 12 23 C 14.738221 23 16.625766 21.467542 17.820312 20 L 22 20 C 22 15.2 21 11 20 9 L 20 7.6777344 L 22 6.8769531 L 22 12 L 24 12 L 24 6.0761719 L 24.132812 6.0234375 L 12 0.9140625 z M 8 11 L 16 11 C 17.1 11 18 11.9 18 13 L 18 14 C 18 15.396702 17.626496 16.534351 17.150391 17.443359 C 16.422893 18.705176 14.731602 21 12 21 C 9.2683977 21 7.5771066 18.705176 6.8496094 17.443359 C 6.3735044 16.534351 6 15.396702 6 14 L 6 13 C 6 11.9 6.89 11 8 11 z"/>
</svg>
