<?xml version="1.0"?>
<svg xmlns="http://www.w3.org/2000/svg" viewBox="0 0 24 24">
    <path d="M 12 0.88085938 L 1.7597656 6 L 5 7.6191406 L 5 12.130859 C 4.22 12.770859 3.8405469 13.809844 4.0605469 14.839844 C 4.2805469 15.859844 5.0896094 16.650156 6.0996094 16.910156 C 6.6096094 19.230156 9.06 21 12 21 C 12.71 21 13.37 20.900937 14 20.710938 L 14 18.589844 C 13.41 18.849844 12.73 19 12 19 C 9.79 19 8 17.65 8 16 L 8 15 L 6.8203125 15 C 6.4303125 15 6.0895313 14.749688 6.0195312 14.429688 C 5.9295313 14.009687 6.1596875 13.700313 6.4296875 13.570312 L 7 13.300781 L 7 11 C 7 10.45 7.45 10 8 10 L 16 10 C 16.55 10 17 10.45 17 11 L 17 13.300781 L 17.570312 13.570312 C 17.740313 13.650313 17.890937 13.8 17.960938 14 L 19.980469 14 C 19.920469 13.27 19.56 12.600859 19 12.130859 L 19 7.6191406 L 22.240234 6 L 12 0.88085938 z M 19 16 L 19 19 L 16 19 L 16 21 L 19 21 L 19 24 L 21 24 L 21 21 L 24 21 L 24 19 L 21 19 L 21 16 L 19 16 z"/>
</svg>
