<?xml version="1.0"?>
<svg xmlns="http://www.w3.org/2000/svg" viewBox="0 0 24 24">
    <path d="M 9 2 L 9 4 L 10 4 L 10 6 L 7 6 L 7 7.5722656 L 7 10 L 5.1308594 10 C 2.8538594 10 1 11.794 1 14 C 1 16.206 2.8538594 18 5.1308594 18 L 15.130859 18 C 15.500004 18 17.821688 17.724884 20 17.060547 L 20 19 L 22 19 L 22 16.291016 C 23.160365 15.707755 24 14.95608 24 14 C 24 13.04392 23.160365 12.292245 22 11.708984 L 22 9 L 20 9 L 20 10.939453 C 18.226509 10.398577 16.412188 10.121706 15.578125 10.037109 L 13.054688 6 L 12 6 L 12 2 L 10.189453 2 L 9 2 z M 9 8 L 11.945312 8 L 13.195312 10 L 9 10 L 9 8 z"/>
</svg>
