<?xml version="1.0"?>
<svg xmlns="http://www.w3.org/2000/svg" viewBox="0 0 24 24">
    <path style="line-height:normal;text-indent:0;text-align:start;text-decoration-line:none;text-decoration-style:solid;text-decoration-color:#000;text-transform:none;block-progression:tb;isolation:auto;mix-blend-mode:normal" d="M 4 2 L 4 22 L 14 22 L 14 17 L 18 17 L 18 14 L 20 14 L 20 2 L 4 2 z M 10 5 C 11.105 5 12 5.895 12 7 C 12 8.105 11.105 9 10 9 C 8.895 9 8 8.105 8 7 C 8 5.895 8.895 5 10 5 z M 10 10 C 11.001 10 13 10.628 13 11.875 L 13 13 L 7 13 L 7 11.875 C 7 10.628 8.999 10 10 10 z M 20 16 L 20 19 L 16 19 L 16 21 L 20 21 L 20 24 L 24 20 L 20 16 z" font-weight="400" font-family="sans-serif" white-space="normal" overflow="visible"/>
</svg>
