<?xml version="1.0"?>
<svg xmlns="http://www.w3.org/2000/svg" viewBox="0 0 24 24">
    <path style="line-height:normal;text-indent:0;text-align:start;text-decoration-line:none;text-decoration-style:solid;text-decoration-color:#000;text-transform:none;block-progression:tb;isolation:auto;mix-blend-mode:normal" d="M 4 4 L 4 6 L 10 6 L 10 20 L 12 20 L 12 6 L 18 6 L 18 4 L 4 4 z M 18.5 15 C 17.130937 15 16 16.130937 16 17.5 L 16 18 L 18 18 L 18 17.5 C 18 17.213063 18.213063 17 18.5 17 C 18.786937 17 19 17.213063 19 17.5 C 19 17.58333 18.520757 18.403957 17.841797 18.998047 C 17.162837 19.592137 16.470703 20.027344 16.470703 20.027344 L 16 20.320312 L 16 22 L 21 22 L 21 20 L 19.65625 20 C 20.335367 19.365913 21 18.62952 21 17.5 C 21 16.130937 19.869063 15 18.5 15 z" font-weight="400" font-family="sans-serif" white-space="normal" overflow="visible"/>
</svg>
