<?xml version="1.0"?>
<svg xmlns="http://www.w3.org/2000/svg" viewBox="0 0 24 24">
    <path d="M 8 2 L 8 5 L 8 6 L 8 7 L 6 7 L 6 5 L 2 5 L 2 20 L 22 20 L 22 5 L 18 5 L 18 7 L 16 7 L 16 6 L 16 5 L 16 2 L 8 2 z M 10 4 L 14 4 L 14 5 L 10 5 L 10 4 z M 14.5 10 C 15.328 10 16 10.672 16 11.5 C 16 12.328 15.328 13 14.5 13 C 13.672 13 13 12.328 13 11.5 C 13 10.672 13.672 10 14.5 10 z M 18.486328 13.171875 L 19.486328 15.171875 L 14.828125 17.486328 L 13.828125 15.486328 L 18.486328 13.171875 z"/>
</svg>
