<?xml version="1.0"?>
<svg xmlns="http://www.w3.org/2000/svg" viewBox="0 0 24 24">
    <path d="M 6 1 L 6 3 L 3 3 L 3 21 L 21 21 L 21 3 L 18 3 L 18 1 L 16 1 L 16 3 L 8 3 L 8 1 L 6 1 z M 5 8 L 19 8 L 19.001953 19 L 5 19 L 5 8 z M 11.490234 13 C 10.596234 12.975 9.9518438 13.482375 9.9648438 14.359375 C 9.9798437 15.333375 10.802266 15.640625 11.322266 15.890625 C 11.692266 16.068625 12.042531 16.28925 12.019531 16.65625 C 12.005531 16.87425 11.916766 17.167172 11.509766 17.201172 C 10.832766 17.256172 10.820312 16.545437 10.820312 16.398438 L 9.8457031 16.398438 C 9.8457031 16.675438 9.9507656 18.017 11.509766 18 C 12.942766 17.985 12.998094 16.864391 12.996094 16.650391 C 12.987094 15.642391 11.878297 15.148406 11.654297 15.066406 C 11.547297 15.019406 10.964547 14.810187 10.935547 14.367188 C 10.905547 13.884188 11.297656 13.806641 11.472656 13.806641 C 12.048656 13.806641 12.03125 14.400906 12.03125 14.503906 L 13 14.503906 C 13 14.282906 12.913234 13.041 11.490234 13 z M 14 13 L 14 16 C 14 17.105 14.895 18 16 18 C 17.105 18 18 17.105 18 16 L 18 13 L 17 13 L 17 16 C 17 16.551 16.551 17 16 17 C 15.449 17 15 16.551 15 16 L 15 13 L 14 13 z"/>
</svg>
