<?xml version="1.0"?>
<svg xmlns="http://www.w3.org/2000/svg" viewBox="0 0 24 24">
    <path style="line-height:normal;text-indent:0;text-align:start;text-decoration-line:none;text-decoration-style:solid;text-decoration-color:#000;text-transform:none;block-progression:tb;isolation:auto;mix-blend-mode:normal" d="M 8 3 L 12 7 L 16 3 L 8 3 z M 11 10 L 11 13 L 13 13 L 13 10 L 11 10 z M 5.6367188 12.222656 L 4.2226562 13.636719 L 6.34375 15.757812 L 7.7578125 14.34375 L 5.6367188 12.222656 z M 18.363281 12.222656 L 16.242188 14.34375 L 17.65625 15.757812 L 19.777344 13.636719 L 18.363281 12.222656 z M 12 15 C 9.5928465 15 7.5684515 16.725423 7.1015625 19 L 2 19 L 2 21 L 22 21 L 22 19 L 16.898438 19 C 16.431549 16.725423 14.407153 15 12 15 z" font-weight="400" font-family="sans-serif" white-space="normal" overflow="visible"/>
</svg>
