<?xml version="1.0"?>
<svg xmlns="http://www.w3.org/2000/svg" viewBox="0 0 24 24">
    <path style="line-height:normal;text-indent:0;text-align:start;text-decoration-line:none;text-decoration-style:solid;text-decoration-color:#000;text-transform:none;block-progression:tb;isolation:auto;mix-blend-mode:normal" d="M 3.3125 4 L 0.099609375 10.560547 C 0.039609375 10.700547 5.5511151e-17 10.85 0 11 L 0 19 L 1.5566406 19 C 2.250559 20.189336 3.5262211 21 5 21 C 6.4737789 21 7.749441 20.189336 8.4433594 19 L 13.556641 19 C 14.250559 20.189336 15.526221 21 17 21 C 18.597483 21 19.968804 20.052046 20.609375 18.695312 L 23 17.5 L 23 11.175781 L 17.679688 10.119141 L 14.6875 4 L 13.429688 4 L 4.5703125 4 L 3.3125 4 z M 13.390625 5.9296875 L 15.396484 10 L 10 10 L 10 5.9570312 L 13.390625 5.9296875 z M 8 5.9726562 L 8 10 L 2.6015625 10 L 4.5703125 6 L 8 5.9726562 z M 5 15 C 6.103 15 7 15.897 7 17 C 7 18.103 6.103 19 5 19 C 3.897 19 3 18.103 3 17 C 3 15.897 3.897 15 5 15 z M 17 15 C 18.103 15 19 15.897 19 17 C 19 18.103 18.103 19 17 19 C 15.897 19 15 18.103 15 17 C 15 15.897 15.897 15 17 15 z" font-weight="400" font-family="sans-serif" white-space="normal" overflow="visible"/>
</svg>
