<?xml version="1.0"?>
<svg xmlns="http://www.w3.org/2000/svg" viewBox="0 0 24 24">
    <path d="M 1 4 L 1 18 L 2.1425781 18 C 2.5899132 19.720168 4.141562 21 6 21 C 7.858438 21 9.4100868 19.720168 9.8574219 18 L 13.142578 18 C 13.589913 19.720168 15.141562 21 17 21 C 18.983783 21 20.621183 19.544967 20.933594 17.648438 L 23 16.615234 L 23 11.183594 L 18.25 10.230469 L 14.582031 4 L 12.300781 4 L 1 4 z M 3 6 L 8 6 L 8 10 L 3 10 L 3 6 z M 10 6 L 12.300781 6 L 13.457031 6 L 15.794922 10 L 10 10 L 10 6 z M 6 15 C 7.103 15 8 15.897 8 17 C 8 18.103 7.103 19 6 19 C 4.897 19 4 18.103 4 17 C 4 15.897 4.897 15 6 15 z M 17 15 C 18.103 15 19 15.897 19 17 C 19 18.103 18.103 19 17 19 C 15.897 19 15 18.103 15 17 C 15 15.897 15.897 15 17 15 z"/>
</svg>
