<?xml version="1.0"?>
<svg xmlns="http://www.w3.org/2000/svg" viewBox="0 0 24 24">
    <path d="M 6 3 L 2.8007812 7 L 5 7 L 5 16 C 5 18.197334 6.8026661 20 9 20 C 11.197334 20 13 18.197334 13 16 L 13 8 C 13 6.8833339 13.883334 6 15 6 C 16.116666 6 17 6.8833339 17 8 L 17 17 L 14.800781 17 L 18 21 L 21.199219 17 L 19 17 L 19 8 C 19 5.8026661 17.197334 4 15 4 C 12.802666 4 11 5.8026661 11 8 L 11 16 C 11 17.116666 10.116666 18 9 18 C 7.8833339 18 7 17.116666 7 16 L 7 7 L 9.1992188 7 L 6 3 z"/>
</svg>
