<?xml version="1.0"?>
<svg xmlns="http://www.w3.org/2000/svg" viewBox="0 0 24 24">
    <path d="M 2 1 L 2 21 L 4 21 L 4 16.052734 L 5.75 14.25 L 10.625 21 L 13 21 L 7.2226562 12.796875 L 12.296875 7 L 9.6777344 7 L 5.6035156 11.625 L 4 13.625 L 4 1 L 2 1 z M 20.902344 7 C 19.412344 7 17.812 7.5942656 17 8.8222656 L 17 7.25 L 15 7.25 L 15 21 L 17 21 L 17 11.224609 C 17.58 9.9116094 19.15725 9.2734375 20.78125 9.2734375 C 21.21825 9.2734375 21.625 9.3042813 22 9.3632812 L 22 7.1777344 C 21.75 7.0587344 21.384344 7 20.902344 7 z"/>
</svg>
