<?xml version="1.0"?>
<svg xmlns="http://www.w3.org/2000/svg" viewBox="0 0 24 24">
    <path style="line-height:normal;text-indent:0;text-align:start;text-decoration-line:none;text-decoration-style:solid;text-decoration-color:#000;text-transform:none;block-progression:tb;isolation:auto;mix-blend-mode:normal" d="M 3 4 L 3 21 L 5 21 L 5 20 L 9 20 L 9 21 L 11 21 C 11 20.243049 11.593041 19.005705 12.664062 17.628906 C 13.735087 16.252107 15.214844 14.733969 16.714844 13.199219 C 18.214844 11.664469 19.735086 10.113232 20.914062 8.5976562 C 22.09304 7.0820805 23 5.6040493 23 4 L 21 4 C 21 4.4914531 20.726292 5.1968542 20.257812 6 L 16.544922 6 C 16.826759 5.3476346 17 4.6856513 17 4 L 15 4 C 15 4.7569507 14.406951 5.9942442 13.335938 7.3710938 C 12.689182 8.2025319 11.875158 9.0928727 11.015625 10 L 11 10 L 11 4 L 9 4 L 9 6 L 5 6 L 5 4 L 3 4 z M 5 8 L 9 8 L 9 10 L 5 10 L 5 8 z M 15.349609 8 L 18.816406 8 C 18.271333 8.6518941 17.65172 9.3311644 17 10.021484 L 17 10 L 13.736328 10 C 14.151947 9.530425 14.552736 9.0621613 14.914062 8.5976562 C 15.069653 8.3976357 15.204953 8.199084 15.349609 8 z M 5 12 L 9 12 L 9 14 L 5 14 L 5 12 z M 11.865234 12 L 15.09375 12 C 14.443544 12.665368 13.792493 13.333528 13.169922 14 L 11 14 L 11 12.902344 C 11.293452 12.601982 11.57443 12.300937 11.865234 12 z M 5 16 L 9 16 L 9 18 L 5 18 L 5 16 z M 11 16 L 11.417969 16 C 11.309158 16.133913 11.189707 16.268947 11.085938 16.402344 C 11.055363 16.441647 11.030197 16.480276 11 16.519531 L 11 16 z"/>
</svg>
