<?xml version="1.0"?>
<svg xmlns="http://www.w3.org/2000/svg" viewBox="0 0 24 24">
    <path style="line-height:normal;text-indent:0;text-align:start;text-decoration-line:none;text-decoration-style:solid;text-decoration-color:#000;text-transform:none;block-progression:tb;isolation:auto;mix-blend-mode:normal" d="M 2 3 L 2 4 L 2 21 L 22 21 L 22 3 L 2 3 z M 10 5 L 20 5 L 20 19 L 10 19 L 10 5 z M 13 7 A 1 1 0 0 0 12 8 A 1 1 0 0 0 13 9 A 1 1 0 0 0 14 8 A 1 1 0 0 0 13 7 z M 17 7 A 1 1 0 0 0 16 8 A 1 1 0 0 0 17 9 A 1 1 0 0 0 18 8 A 1 1 0 0 0 17 7 z M 4 9 L 8 9 L 8 13 L 7 13 L 7 16 L 5 16 L 5 13 L 4 13 L 4 9 z M 13 11 A 1 1 0 0 0 12 12 A 1 1 0 0 0 13 13 A 1 1 0 0 0 14 12 A 1 1 0 0 0 13 11 z M 17 11 A 1 1 0 0 0 16 12 A 1 1 0 0 0 17 13 A 1 1 0 0 0 18 12 A 1 1 0 0 0 17 11 z M 15 15 A 1 1 0 0 0 14 16 A 1 1 0 0 0 15 17 A 1 1 0 0 0 16 16 A 1 1 0 0 0 15 15 z" font-weight="400" font-family="sans-serif" white-space="normal" overflow="visible"/>
</svg>
