<?xml version="1.0"?>
<svg xmlns="http://www.w3.org/2000/svg" viewBox="0 0 24 24">
    <path d="M 12 1 C 10.7 1 9.5996875 1.84 9.1796875 3 L 3 3 L 3 5 L 3 21 L 5 21 L 11 21 L 11 19.669922 L 9.8203125 19 L 5 19 L 5 5 L 12 5 C 11.45 5 11 4.55 11 4 C 11 3.45 11.45 3 12 3 C 12.55 3 13 3.45 13 4 C 13 4.55 12.55 5 12 5 L 19 5 L 19 12.640625 L 21 13.439453 L 21 5 L 21 3 L 14.820312 3 C 14.400313 1.84 13.3 1 12 1 z M 17 14 L 10 16.800781 L 13 18.5 L 13 21 L 21 21 L 21 18.5 L 24 16.800781 L 17 14 z"/>
</svg>
