<?xml version="1.0"?>
<svg xmlns="http://www.w3.org/2000/svg" viewBox="0 0 24 24">
    <path style="line-height:normal;text-indent:0;text-align:start;text-decoration-line:none;text-decoration-style:solid;text-decoration-color:#000;text-transform:none;block-progression:tb;isolation:auto;mix-blend-mode:normal" d="M 11.267578 2.0371094 L 10.732422 3.9628906 L 14.466797 5 L 2 5 L 2 20 L 4 20 L 4 21 L 6 21 L 6 20 L 18 20 L 18 21 L 20 21 L 20 20 L 22 20 L 22 5 L 21.912109 5 L 21.914062 4.9921875 L 11.267578 2.0371094 z M 5 9 L 11.265625 9 C 10.785846 9.5790015 10.426485 10.259279 10.214844 11 L 5 11 L 5 9 z M 15.5 9 C 15.741625 9 15.977236 9.0236895 16.205078 9.0703125 C 16.206326 9.0705639 16.207737 9.0700598 16.208984 9.0703125 C 17.573047 9.3509805 18.64902 10.426953 18.929688 11.791016 C 18.976804 12.020002 19 12.257068 19 12.5 C 19 12.741625 18.976311 12.977236 18.929688 13.205078 C 18.929436 13.206326 18.92994 13.207737 18.929688 13.208984 C 18.64902 14.573047 17.573047 15.64902 16.208984 15.929688 C 16.207752 15.929941 16.206311 15.929435 16.205078 15.929688 C 15.977584 15.975518 15.741779 16 15.5 16 C 15.285012 16 15.076937 15.973933 14.873047 15.9375 C 14.786775 15.92159 14.703047 15.899119 14.619141 15.876953 C 14.513407 15.84975 14.410101 15.817752 14.308594 15.78125 C 14.201873 15.742031 14.095773 15.701321 13.994141 15.652344 C 13.941007 15.62711 13.89143 15.596146 13.839844 15.568359 C 13.723884 15.505189 13.607804 15.442346 13.5 15.367188 L 13.5 15.375 C 13.001909 15.029349 12.607473 14.553715 12.345703 14 L 12.349609 14 C 12.240609 13.772 12.154 13.531875 12.09375 13.28125 C 12.0335 13.030625 12 12.7695 12 12.5 C 12 12.2305 12.0335 11.969375 12.09375 11.71875 C 12.154 11.468125 12.240609 11.228 12.349609 11 L 12.345703 11 C 12.607473 10.446285 13.001909 9.9706506 13.5 9.625 L 13.5 9.6328125 C 13.607804 9.5576536 13.723884 9.4948112 13.839844 9.4316406 C 13.89143 9.4038542 13.941007 9.3728897 13.994141 9.3476562 C 14.095773 9.2986793 14.201873 9.2579686 14.308594 9.21875 C 14.410101 9.1822482 14.513407 9.1502497 14.619141 9.1230469 C 14.703047 9.1008809 14.786775 9.0784104 14.873047 9.0625 C 15.076937 9.0260672 15.285012 9 15.5 9 z M 5 14 L 10.214844 14 C 10.426485 14.740721 10.785846 15.420998 11.265625 16 L 5 16 L 5 14 z" font-weight="400" font-family="sans-serif" white-space="normal" overflow="visible"/>
</svg>
