<?xml version="1.0"?>
<svg xmlns="http://www.w3.org/2000/svg" viewBox="0 0 24 24">
    <path style="line-height:normal;text-indent:0;text-align:start;text-decoration-line:none;text-decoration-style:solid;text-decoration-color:#000;text-transform:none;block-progression:tb;isolation:auto;mix-blend-mode:normal" d="M 12 2 C 6.486 2 2 6.486 2 12 C 2 17.514 6.486 22 12 22 C 13.045 22 14.052 21.837062 15 21.539062 L 15 20.476562 L 15 19.410156 L 15 18.314453 C 14.089 18.748453 13.074 19 12 19 C 8.141 19 5 15.86 5 12 C 5 8.14 8.141 5 12 5 C 12.196 5 12.390031 5.0142969 12.582031 5.0292969 C 12.802031 4.3942969 13.064156 3.7552969 13.410156 3.1542969 C 13.596156 2.8322969 13.798484 2.5215156 14.021484 2.2285156 C 13.366484 2.0935156 12.696 2 12 2 z M 18 2 C 17.2495 2 16.62043 2.3723878 16.144531 2.8222656 C 15.668632 3.2721435 15.300196 3.8243236 14.992188 4.4160156 C 14.376169 5.5993996 14 6.901333 14 8 C 14 9.8503351 15.284199 11.4056 17 11.855469 L 17 22 L 19 22 L 19 11.855469 C 20.715801 11.4056 22 9.8503351 22 8 C 22 6.901333 21.623831 5.5993996 21.007812 4.4160156 C 20.699804 3.8243236 20.331368 3.2721435 19.855469 2.8222656 C 19.37957 2.3723878 18.7505 2 18 2 z M 12 7 C 9.243 7 7 9.243 7 12 C 7 14.757 9.243 17 12 17 C 13.13 17 14.162 16.609609 15 15.974609 L 15 13.181641 C 13.178 12.130641 12 10.173 12 8 C 12 7.697 12.031078 7.3578125 12.080078 7.0078125 C 12.053078 7.0078125 12.028 7 12 7 z" font-weight="400" font-family="sans-serif" white-space="normal" overflow="visible"/>
</svg>
