<?xml version="1.0"?>
<svg xmlns="http://www.w3.org/2000/svg" viewBox="0 0 24 24">
    <path style="line-height:normal;text-indent:0;text-align:start;text-decoration-line:none;text-decoration-style:solid;text-decoration-color:#000;text-transform:none;block-progression:tb;isolation:auto;mix-blend-mode:normal" d="M 21 4.5 A 1.5 1.5 0 0 0 19.5 6 A 1.5 1.5 0 0 0 21 7.5 A 1.5 1.5 0 0 0 22.5 6 A 1.5 1.5 0 0 0 21 4.5 z M 2 5 L 2 7 L 17 7 L 17 5 L 2 5 z M 21 10.5 A 1.5 1.5 0 0 0 19.5 12 A 1.5 1.5 0 0 0 21 13.5 A 1.5 1.5 0 0 0 22.5 12 A 1.5 1.5 0 0 0 21 10.5 z M 2 11 L 2 13 L 17 13 L 17 11 L 2 11 z M 21 16.5 A 1.5 1.5 0 0 0 19.5 18 A 1.5 1.5 0 0 0 21 19.5 A 1.5 1.5 0 0 0 22.5 18 A 1.5 1.5 0 0 0 21 16.5 z M 2 17 L 2 19 L 17 19 L 17 17 L 2 17 z" font-weight="400" font-family="sans-serif" white-space="normal" overflow="visible"/>
</svg>
