<?xml version="1.0"?>
<svg xmlns="http://www.w3.org/2000/svg" viewBox="0 0 24 24">
    <path d="M 2 3 L 2 11 L 10 11 L 10 3 L 2 3 z M 12 4 L 12 6 L 13 6 L 21 6 L 22 6 L 22 4 L 21 4 L 13 4 L 12 4 z M 5 6 L 7 6 L 7 8 L 5 8 L 5 6 z M 12 8 L 12 10 L 13 10 L 18 10 L 19 10 L 19 8 L 18 8 L 13 8 L 12 8 z M 3 13 C 2.448 13 2 13.448 2 14 L 2 20 C 2 20.552 2.448 21 3 21 L 9 21 C 9.552 21 10 20.552 10 20 L 10 14 C 10 13.448 9.552 13 9 13 L 3 13 z M 12 14 L 12 16 L 13 16 L 21 16 L 22 16 L 22 14 L 21 14 L 13 14 L 12 14 z M 6 16 C 6.552 16 7 16.448 7 17 C 7 17.552 6.552 18 6 18 C 5.448 18 5 17.552 5 17 C 5 16.448 5.448 16 6 16 z M 12 18 L 12 20 L 13 20 L 18 20 L 19 20 L 19 18 L 18 18 L 13 18 L 12 18 z"/>
</svg>
