<?xml version="1.0"?>
<svg xmlns="http://www.w3.org/2000/svg" viewBox="0 0 24 24">
    <path d="M18,18c-1.289,0-2.033-1.302-3.105-3.447c-0.153-0.307-0.305-0.657-0.467-1.03c-0.604-1.394-1.407-3.236-2.938-4.401 L22.196,6.98l-0.392-1.96L9.328,7.515C8.974,7.198,8.512,7,8,7C7.205,7,6.524,7.468,6.201,8.14L1.804,9.02l0.393,1.961l1.263-0.253 C2.531,12.08,2,13.695,2,15h2c0-1.531,1.043-3.702,2.581-4.592C6.943,10.773,7.445,11,8,11c0.609,0,1.148-0.278,1.514-0.707 c1.467,0.611,2.262,2.143,3.079,4.026c0.177,0.409,0.344,0.792,0.512,1.129C14.172,17.581,15.382,20,18,20c2.729,0,4-2.983,4-5h-2 C20,16.077,19.332,18,18,18z"/>
</svg>
