<?xml version="1.0"?>
<svg xmlns="http://www.w3.org/2000/svg" viewBox="0 0 24 24">
    <path style="line-height:normal;text-indent:0;text-align:start;text-decoration-line:none;text-decoration-style:solid;text-decoration-color:#000;text-transform:none;block-progression:tb;isolation:auto;mix-blend-mode:normal" d="M 9.5859375 3 L 9.2929688 3.2929688 L 7 5.5859375 L 7 8 L 5.6992188 8 L 2 10.460938 L 2 12 L 22 12 L 22 10.460938 L 18.300781 8 L 17 8 L 17 6 L 22 6 L 22 4 L 15.414062 4 L 14.414062 3 L 9.5859375 3 z M 10.414062 5 L 13.585938 5 L 15 6.4140625 L 15 8 L 9 8 L 9 6.4140625 L 10.414062 5 z M 2 14 L 2 14.189453 L 5.5 20 L 18.5 20 L 22 14.279297 L 22 14 L 2 14 z M 8 16 C 8.55 16 9 16.45 9 17 C 9 17.55 8.55 18 8 18 C 7.45 18 7 17.55 7 17 C 7 16.45 7.45 16 8 16 z M 12 16 C 12.55 16 13 16.45 13 17 C 13 17.55 12.55 18 12 18 C 11.45 18 11 17.55 11 17 C 11 16.45 11.45 16 12 16 z M 16 16 C 16.55 16 17 16.45 17 17 C 17 17.55 16.55 18 16 18 C 15.45 18 15 17.55 15 17 C 15 16.45 15.45 16 16 16 z" font-weight="400" font-family="sans-serif" white-space="normal" overflow="visible"/>
</svg>
