<?xml version="1.0"?>
<svg xmlns="http://www.w3.org/2000/svg" viewBox="0 0 24 24">
    <path style="line-height:normal;text-indent:0;text-align:start;text-decoration-line:none;text-decoration-style:solid;text-decoration-color:#000;text-transform:none;block-progression:tb;isolation:auto;mix-blend-mode:normal" d="M 4 2 L 4 9 L 1 9 L 1 18 L 4 18 L 4 22 L 20 22 L 20 7 L 15 2 L 4 2 z M 6 4 L 14 4 L 14 8 L 18 8 L 18 20 L 6 20 L 6 18 L 16 18 L 16 9 L 6 9 L 6 4 z M 3 11 L 6 11 L 6 12 L 5 12 L 5 16 L 4 16 L 4 12 L 3 12 L 3 11 z M 7.3457031 11 L 8.6464844 11 L 10 16 L 8.9375 16 L 8.6796875 15 L 7.3105469 15 L 7.0527344 16 L 6 16 L 7.3457031 11 z M 11 11 L 12 11 L 12.5 11 C 13.328 11 14 11.672 14 12.5 C 14 13.148 13.587719 13.694297 13.011719 13.904297 L 14.058594 16 L 12.941406 16 L 12 14.117188 L 12 16 L 11 16 L 11 14 L 11 11 z M 12 12 L 12 13 L 12.5 13 C 12.776 13 13 12.776 13 12.5 C 13 12.224 12.776 12 12.5 12 L 12 12 z M 7.9921875 12.353516 L 7.5683594 14 L 8.4199219 14 L 7.9921875 12.353516 z"/>
</svg>
