<?xml version="1.0"?>
<svg xmlns="http://www.w3.org/2000/svg" viewBox="0 0 24 24">
    <path d="M 12 1 C 10.696 1 9.5965937 1.837 9.1835938 3 L 3 3 L 3 21 L 10.587891 21 C 10.456891 20.677 10.347766 20.343 10.259766 20 L 10.261719 20 C 10.231719 19.882 10.216406 19.758672 10.191406 19.638672 C 10.147406 19.426672 10.095359 19.217 10.068359 19 C 10.025359 18.673 10 18.339 10 18 C 10 13.582 13.582 10 18 10 C 18.339 10 18.673 10.025359 19 10.068359 C 19.217 10.095359 19.427672 10.147406 19.638672 10.191406 C 19.758672 10.217406 19.882 10.231719 20 10.261719 L 20 10.259766 C 20.343 10.347766 20.677 10.456891 21 10.587891 L 21 3 L 14.816406 3 C 14.403406 1.837 13.304 1 12 1 z M 12 3 C 12.552 3 13 3.448 13 4 C 13 4.552 12.552 5 12 5 C 11.448 5 11 4.552 11 4 C 11 3.448 11.448 3 12 3 z M 18 12 C 14.7 12 12 14.7 12 18 C 12 21.3 14.7 24 18 24 C 21.3 24 24 21.3 24 18 C 24 14.7 21.3 12 18 12 z M 18 14 C 20.2 14 22 15.8 22 18 C 22 20.2 20.2 22 18 22 C 15.8 22 14 20.2 14 18 C 14 15.8 15.8 14 18 14 z M 18.900391 15.199219 L 17.199219 18.099609 L 19.400391 20.300781 L 20.300781 19.300781 L 18.800781 17.900391 L 20 15.800781 L 18.900391 15.199219 z"/>
</svg>
