<?xml version="1.0"?>
<svg xmlns="http://www.w3.org/2000/svg" viewBox="0 0 24 24">
    <path style="line-height:normal;text-indent:0;text-align:start;text-decoration-line:none;text-decoration-style:solid;text-decoration-color:#000;text-transform:none;block-progression:tb;isolation:auto;mix-blend-mode:normal" d="M 8 2 C 6.3549904 2 5 3.3549904 5 5 C 5 6.6450096 6.3549904 8 8 8 C 8.9361869 8 9.7682902 7.5525107 10.320312 6.8710938 L 10.791016 7.6171875 L 9.2460938 10 L 2 10 L 2 22 L 22 22 L 22 10 L 13.865234 10 L 12.601562 12 L 19.091797 12 C 19.242797 12.424 19.576 12.757203 20 12.908203 L 20 19.091797 C 19.576 19.242797 19.242797 19.576 19.091797 20 L 4.9082031 20 C 4.7572031 19.576 4.424 19.242797 4 19.091797 L 4 12.908203 C 4.424 12.757203 4.7572031 12.424 4.9082031 12 L 7.9492188 12 L 6.6523438 14 L 9 14 L 13.664062 6.8515625 C 14.215744 7.5441077 15.054903 8 16 8 C 17.64501 8 19 6.6450096 19 5 C 19 3.3549904 17.64501 2 16 2 C 14.762781 2 13.692365 2.7678033 13.236328 3.8476562 L 11.988281 5.7695312 L 10.804688 3.8945312 L 10.783203 3.9082031 C 10.341707 2.7976107 9.2594644 2 8 2 z M 8 4 C 8.5641294 4 9 4.4358706 9 5 C 9 5.5641294 8.5641294 6 8 6 C 7.4358706 6 7 5.5641294 7 5 C 7 4.4358706 7.4358706 4 8 4 z M 16 4 C 16.564129 4 17 4.4358706 17 5 C 17 5.5641294 16.564129 6 16 6 C 15.435871 6 15 5.5641294 15 5 C 15 4.4358706 15.435871 4 16 4 z M 12.037109 13.003906 L 10.736328 15 C 10.349328 15.639 9.783 15.993 9 16 C 9 17.657 10.343 19 12 19 C 13.657 19 15 17.657 15 16 C 15 14.356 13.676109 13.024906 12.037109 13.003906 z M 7 15 A 1 1 0 0 0 6 16 A 1 1 0 0 0 7 17 A 1 1 0 0 0 8 16 A 1 1 0 0 0 7 15 z M 17 15 A 1 1 0 0 0 16 16 A 1 1 0 0 0 17 17 A 1 1 0 0 0 18 16 A 1 1 0 0 0 17 15 z" font-weight="400" font-family="sans-serif" white-space="normal" overflow="visible"/>
</svg>
