<?xml version="1.0"?>
<svg xmlns="http://www.w3.org/2000/svg" viewBox="0 0 24 24">
    <path d="M 9 2 L 9 4 L 6.2695312 4 L 5.6679688 4 L 2.9101562 9.0703125 L 1.5507812 8.1699219 L 0.44921875 9.8300781 L 2.0195312 10.880859 C 2.0095312 10.920859 2 10.96 2 11 L 2 18 L 2 21 L 5 21 L 4.9941406 19 L 19.005859 19 L 19 21 L 22 21 L 22 18 L 22 11 C 22 10.96 21.980703 10.930625 21.970703 10.890625 L 23.550781 9.8300781 L 22.449219 8.1699219 L 21.140625 9.0390625 L 18.625 4 L 18 4 L 15 4 L 15 2 L 9 2 z M 6.8691406 6 L 17.380859 6 L 19.380859 10 L 4.6796875 10 L 6.8691406 6 z M 7 13 C 7.55 13 8 13.45 8 14 C 8 14.55 7.55 15 7 15 C 6.45 15 6 14.55 6 14 C 6 13.45 6.45 13 7 13 z M 17 13 C 17.55 13 18 13.45 18 14 C 18 14.55 17.55 15 17 15 C 16.45 15 16 14.55 16 14 C 16 13.45 16.45 13 17 13 z"/>
</svg>
