<?xml version="1.0"?>
<svg xmlns="http://www.w3.org/2000/svg" viewBox="0 0 24 24">
    <path d="M 8 1 L 8 4 L 10 4 L 10 1 L 8 1 z M 12 2 L 12 4 L 14 4 L 14 2 L 12 2 z M 3 6 L 3 12 C 3 13.959 4 17 6 18 L 15 18 C 16.22005 17.389975 17.063273 16.019722 17.539062 14.599609 C 17.974211 14.846774 18.468288 15 19 15 C 20.64501 15 22 13.64501 22 12 C 22 10.35499 20.64501 9 19 9 C 18.648149 9 18.314894 9.0739423 18 9.1875 L 18 6 L 3 6 z M 19 11 C 19.564129 11 20 11.435871 20 12 C 20 12.564129 19.564129 13 19 13 C 18.435871 13 18 12.564129 18 12 C 18 11.435871 18.435871 11 19 11 z M 7 20 C 5.321 21.184 5 22 5 22 L 16 22 C 16 22 15.679 21.184 14 20 L 7 20 z"/>
</svg>
