<?xml version="1.0"?>
<svg xmlns="http://www.w3.org/2000/svg" viewBox="0 0 24 24">
    <path d="M 6 2 A 2 2 0 0 0 4 4 A 2 2 0 0 0 6 6 A 2 2 0 0 0 8 4 A 2 2 0 0 0 6 2 z M 10 3 L 10 5 L 19 5 L 19 10.060547 C 19.7 10.150547 20.37 10.330078 21 10.580078 L 21 3 L 10 3 z M 3 7 L 3 16 L 3 22 L 5 22 L 5 16 L 7 16 L 7 22 L 9 22 L 9 16 L 9 9 L 15 9 L 15 7 L 3 7 z M 18 12 C 14.69 12 12 14.69 12 18 C 12 21.31 14.69 24 18 24 C 21.31 24 24 21.31 24 18 C 24 14.69 21.31 12 18 12 z M 17.5 14 L 18.5 14 L 18.5 14.820312 L 18.509766 14.820312 C 18.729766 14.860312 20 15.120547 20 16.810547 L 18.669922 16.810547 C 18.669922 15.930547 18.260078 15.789062 18.080078 15.789062 C 17.990078 15.789062 17.550781 15.809063 17.550781 16.539062 C 17.550781 17.799063 19.990234 17.410703 19.990234 19.470703 C 19.990234 20.830703 18.88 21.119453 18.5 21.189453 L 18.5 22 L 17.5 22 L 17.5 21.169922 C 17.04 21.079922 16 20.720156 16 19.160156 L 17.330078 19.160156 C 17.330078 20.260156 17.950781 20.220703 18.050781 20.220703 C 18.150781 20.220703 18.660156 20.200469 18.660156 19.480469 C 18.660156 18.040469 16.220703 18.679297 16.220703 16.529297 C 16.220703 15.389297 17.03 14.989141 17.5 14.869141 L 17.5 14 z"/>
</svg>
