<?xml version="1.0"?>
<svg xmlns="http://www.w3.org/2000/svg" viewBox="0 0 24 24">
    <path d="M 8.5 2 A 0.5 0.5 0 0 0 8 2.5 A 0.5 0.5 0 0 0 8.5 3 A 0.5 0.5 0 0 0 9 2.5 A 0.5 0.5 0 0 0 8.5 2 z M 15.5 2 A 0.5 0.5 0 0 0 15 2.5 A 0.5 0.5 0 0 0 15.5 3 A 0.5 0.5 0 0 0 16 2.5 A 0.5 0.5 0 0 0 15.5 2 z M 12 3 A 2 2 0 0 0 10 5 A 2 2 0 0 0 11 6.7304688 L 11 9 L 12 9 L 13 9 L 13 6.7285156 A 2 2 0 0 0 14 5 A 2 2 0 0 0 12 3 z M 7.5 4 A 0.5 0.5 0 0 0 7 4.5 A 0.5 0.5 0 0 0 7.5 5 A 0.5 0.5 0 0 0 8 4.5 A 0.5 0.5 0 0 0 7.5 4 z M 16.5 4 A 0.5 0.5 0 0 0 16 4.5 A 0.5 0.5 0 0 0 16.5 5 A 0.5 0.5 0 0 0 17 4.5 A 0.5 0.5 0 0 0 16.5 4 z M 7 7 C 5.317 7 4 8.318 4 10 C 4 11.682 5.317 13 7 13 C 8.683 13 10 11.682 10 10 C 10 8.318 8.683 7 7 7 z M 17 7 C 15.317 7 14 8.318 14 10 C 14 11.682 15.317 13 17 13 C 18.683 13 20 11.682 20 10 C 20 8.318 18.683 7 17 7 z M 7 15 C 3.468 15 1 16.322797 1 18.216797 L 1 21 L 9 21 L 9 18.216797 C 9 17.141797 9.3899375 16.193297 10.085938 15.404297 C 9.2049375 15.145297 8.161 15 7 15 z M 17 15 C 13.468 15 11 16.322797 11 18.216797 L 11 21 L 23 21 L 23 18.216797 C 23 16.322797 20.532 15 17 15 z"/>
</svg>
