<?xml version="1.0"?>
<svg xmlns="http://www.w3.org/2000/svg" viewBox="0 0 24 24">
    <path d="M 11.474609 4 A 1.5 1.5 0 0 0 9.9746094 5.5 A 1.5 1.5 0 0 0 10.111328 6.1210938 C 8.625623 6.3772375 7.2675381 7.0394019 6.1445312 8 L 16.804688 8 C 15.682159 7.0398111 14.324351 6.3774781 12.839844 6.1210938 A 1.5 1.5 0 0 0 12.974609 5.5 A 1.5 1.5 0 0 0 11.474609 4 z M 3.5 7 C 1.57 7 0 8.57 0 10.5 C 0 12.247809 1.3328479 13.748979 3.0488281 13.974609 C 3.0121562 14.313054 2.9746094 14.651307 2.9746094 15 C 2.9746094 18.645 4.5207812 20 8.6757812 20 L 14.275391 20 C 18.483391 20 19.974609 18.691 19.974609 15 C 19.974609 13.151 19.444109 11.431 18.537109 10 L 4.4121094 10 C 4.0148886 10.626707 3.7045952 11.316888 3.4648438 12.041016 C 3.4249391 12.031966 3.3913615 12.010042 3.3496094 12.005859 C 2.6176094 11.932859 2 11.242 2 10.5 C 2 10.085 2.1703594 9.7095 2.4433594 9.4375 C 2.9333594 8.5685 3.5297031 7.7750313 4.2207031 7.0820312 C 3.9857031 7.0330313 3.746 7 3.5 7 z M 21.585938 7 L 21.292969 7.2929688 C 20.961969 7.6239688 20.495031 8.0909688 19.957031 8.5429688 C 21.101031 10.187969 21.816406 12.172172 21.941406 14.326172 C 23.192406 12.475172 24 10.143 24 8 L 24 7 L 21.585938 7 z"/>
</svg>
