<?xml version="1.0"?>
<svg xmlns="http://www.w3.org/2000/svg" viewBox="0 0 24 24">
    <path d="M 12.330078 2.0058594 C 12.04573 1.9942529 11.758047 1.9987656 11.466797 2.0175781 C 7.4516772 2.2782021 4.365081 5.6101695 4.0332031 9.5683594 L 4.0195312 9.5507812 L 3 22 L 15 22 L 15 20 L 12 20 C 8.686 20 6 17.314 6 14 L 6 12 L 6 11 L 18 11 L 18 13 L 18 16 L 14 16 L 14 15 L 11 15 L 11 18 L 12.5 18 L 14 18 L 19 18 L 22 18 L 22 12 L 20 12 L 20 10 C 20 5.6921875 16.5953 2.1799561 12.330078 2.0058594 z"/>
</svg>
