<?xml version="1.0"?>
<svg xmlns="http://www.w3.org/2000/svg" viewBox="0 0 24 24">
    <path d="M 8 2 C 6.346 2 5 3.346 5 5 C 5 6.309 5.8465781 7.4113125 7.0175781 7.8203125 C 7.0155781 7.8813125 7 7.939 7 8 C 7 8.77 7.1704688 9.490625 7.4804688 10.140625 L 2.7109375 13.759766 C 1.9509375 14.339766 1.7707813 15.409219 2.3007812 16.199219 C 2.7007812 16.793219 3.3907344 17.064656 4.0527344 16.972656 C 4.0267344 17.146656 4 17.319 4 17.5 C 4 19.43 5.57 21 7.5 21 C 8.01 21 8.4907344 20.8845 8.9277344 20.6875 C 9.8017344 20.8935 10.798 21 12 21 C 13.202 21 14.198266 20.8935 15.072266 20.6875 C 15.509266 20.8845 15.99 21 16.5 21 C 18.43 21 20 19.43 20 17.5 C 20 17.319 19.973266 17.146656 19.947266 16.972656 C 20.610266 17.063656 21.299219 16.792219 21.699219 16.199219 C 22.229219 15.409219 22.049062 14.339766 21.289062 13.759766 L 16.519531 10.140625 C 16.829531 9.490625 17 8.77 17 8 C 17 7.939 16.984422 7.8813125 16.982422 7.8203125 C 18.153422 7.4113125 19 6.309 19 5 C 19 3.346 17.654 2 16 2 C 14.99 2 14.100641 2.5044844 13.556641 3.2714844 C 13.063641 3.1094844 12.547 3 12 3 C 11.453 3 10.936359 3.1094844 10.443359 3.2714844 C 9.8993594 2.5044844 9.01 2 8 2 z M 8 4 C 8.268 4 8.5085 4.10925 8.6875 4.28125 C 8.1955 4.71925 7.7938594 5.2486094 7.5058594 5.8496094 C 7.2098594 5.6756094 7 5.367 7 5 C 7 4.449 7.449 4 8 4 z M 16 4 C 16.551 4 17 4.449 17 5 C 17 5.367 16.790141 5.6756094 16.494141 5.8496094 C 16.206141 5.2486094 15.803547 4.71925 15.310547 4.28125 C 15.490547 4.10925 15.732 4 16 4 z M 12 7 C 13.1 7 14 8.12 14 9.5 C 14 10.06 13.849609 10.59 13.599609 11 C 13.229609 11.61 12.65 12 12 12 C 11.35 12 10.770391 11.61 10.400391 11 C 10.150391 10.59 10 10.06 10 9.5 C 10 8.12 10.9 7 12 7 z M 12 8.0253906 A 1 0.97500002 0 0 0 11 9 A 1 0.97500002 0 0 0 12 9.9746094 A 1 0.97500002 0 0 0 13 9 A 1 0.97500002 0 0 0 12 8.0253906 z M 7.5 16 C 8.327 16 9 16.673 9 17.5 C 9 18.327 8.327 19 7.5 19 C 6.673 19 6 18.327 6 17.5 C 6 16.673 6.673 16 7.5 16 z M 16.5 16 C 17.327 16 18 16.673 18 17.5 C 18 18.327 17.327 19 16.5 19 C 15.673 19 15 18.327 15 17.5 C 15 16.673 15.673 16 16.5 16 z"/>
</svg>
