<?xml version="1.0"?>
<svg xmlns="http://www.w3.org/2000/svg" viewBox="0 0 24 24">
    <path style="line-height:normal;text-indent:0;text-align:start;text-decoration-line:none;text-decoration-style:solid;text-decoration-color:#000;text-transform:none;block-progression:tb;isolation:auto;mix-blend-mode:normal" d="M 1 3 L 1 21 L 5 21 L 5 19 L 3 19 L 3 5 L 5 5 L 5 3 L 1 3 z M 19 3 L 19 5 L 21 5 L 21 19 L 19 19 L 19 21 L 23 21 L 23 3 L 19 3 z M 5 7 L 5 9 L 19 9 L 19 7 L 5 7 z M 5 11 L 5 13 L 16 13 L 16 11 L 5 11 z M 5 15 L 5 17 L 19 17 L 19 15 L 5 15 z" font-weight="400" font-family="sans-serif" white-space="normal" overflow="visible"/>
</svg>
