<?xml version="1.0"?>
<svg xmlns="http://www.w3.org/2000/svg" viewBox="0 0 24 24">
    <path d="M20.98,9.88l1.57-1.05l-1.1-1.66L19.6,8.4c-0.45-1.592-1.288-4.14-2.098-5.4H6.498C5.688,4.26,4.85,6.808,4.4,8.4L2.55,7.17 l-1.1,1.66l1.57,1.06C3,10,2,11,2,11v9h3l-0.01-1.6C6.48,18.65,8.44,19,12,19s5.52-0.35,7.01-0.6L19,20h3v-9C22,11,21,10,20.98,9.88 z M7.702,5.003C7.704,5.002,7.705,5.001,7.707,5l8.582,0c0.002,0.001,0.003,0.002,0.005,0.003C16.846,6.199,17.368,7.878,17.69,9 H6.31C6.632,7.88,7.152,6.221,7.702,5.003z M13.11,13.69C12.53,14.07,12,15,12,15s-0.53-0.93-1.11-1.31C10.32,13.3,6,13,6,13 c1.03-1.11,6-1,6-1s4.97-0.11,6,1C18,13,13.68,13.3,13.11,13.69z"/>
</svg>
