<?xml version="1.0"?>
<svg xmlns="http://www.w3.org/2000/svg" viewBox="0 0 24 24">
    <path d="M22,10h-2.11L18.5,6c0,0-0.66,0-1.55,0H16V4.122c0.429-0.174,1.67-0.37,4.551,1.078l0.897-1.787 c-5.194-2.61-6.883-0.909-7.277-0.325C14.06,3.252,14,3.448,14,3.647V6h-4V3.647c0-0.2-0.06-0.395-0.172-0.56 C9.434,2.504,7.743,0.804,2.551,3.413L3.449,5.2C6.347,3.744,7.587,3.949,8,4.115V6H7.05C6.16,6,5.516,6,5.516,6L4.11,10H2v2h1.53 l-0.3,1.05C3.077,13.584,3,14.136,3,14.692V18v2h3v-1h12v1h3v-2v-3.308c0-0.555-0.077-1.108-0.23-1.642L20.47,12H22V10z M15,13v2H9 v-2H15z M7,13v2H5v-0.3c0-0.37,0.05-0.74,0.16-1.1L5.33,13H7z M18.84,13.6c0.11,0.36,0.16,0.73,0.16,1.1V15h-2v-2h1.67L18.84,13.6z M7.05,8h9.9l0.86,2H6.19L7.05,8z"/>
</svg>
