<?xml version="1.0"?>
<svg xmlns="http://www.w3.org/2000/svg" viewBox="0 0 24 24">
    <path style="line-height:normal;text-indent:0;text-align:start;text-decoration-line:none;text-decoration-style:solid;text-decoration-color:#000;text-transform:none;block-progression:tb;isolation:auto;mix-blend-mode:normal" d="M 2 4 L 2 5 L 2 10 L 1 10 L 1 14 L 2 14 L 2 20 L 22 20 L 22 14 L 23 14 L 23 10 L 22 10 L 22 4 L 2 4 z M 4 6 L 20 6 L 20 10 L 19 10 L 19 14 L 20 14 L 20 18 L 4 18 L 4 14 L 5 14 L 5 10 L 4 10 L 4 6 z M 9 8 L 9 10 L 11 10 L 11 16 L 13 16 L 13 10 L 15 10 L 15 8 L 13 8 L 11 8 L 9 8 z" font-weight="400" font-family="sans-serif" white-space="normal" overflow="visible"/>
</svg>
