<?xml version="1.0"?>
<svg xmlns="http://www.w3.org/2000/svg" viewBox="0 0 24 24">
    <path d="M 15.5 2 A 1.5 1.5 0 0 0 14 3.5 A 1.5 1.5 0 0 0 14.980469 4.9042969 C 13.712712 6.41621 12.017003 7 9.5 7 C 6.56 7 1 9.46 1 18 C 1 18 4 21 10.5 21 C 18.17 21 19 17.140469 19 15.480469 C 19 15.203469 18.970734 14.922625 18.927734 14.640625 C 19.681734 13.984625 20.306719 13.336828 20.761719 12.798828 C 20.980719 12.923828 21.23 13 21.5 13 C 22.328 13 23 12.328 23 11.5 C 23 10.672 22.328 10 21.5 10 C 21.302 10 21.114406 10.039375 20.941406 10.109375 C 20.769406 9.471375 20.193 9 19.5 9 C 18.672 9 18 9.672 18 10.5 C 18 11.083 18.335266 11.583031 18.822266 11.832031 C 18.640266 12.041031 18.447 12.263 18.25 12.5 C 16.77 14.07 14.37 16 11.5 16 C 8.85 16 7 14.35 7 12 L 9 12 C 9 13.48 10.35 14 11.5 14 C 13.357 14 15.170953 12.747453 16.501953 11.439453 C 16.501953 11.439453 15.451761 9.5965953 13.505859 8.2851562 C 14.796355 7.7709225 15.910523 6.96607 16.792969 5.8222656 A 1.5 1.5 0 0 0 17.5 6 A 1.5 1.5 0 0 0 19 4.5 A 1.5 1.5 0 0 0 17.5 3 A 1.5 1.5 0 0 0 16.947266 3.1054688 A 1.5 1.5 0 0 0 15.5 2 z"/>
</svg>
