<?xml version="1.0"?>
<svg xmlns="http://www.w3.org/2000/svg" viewBox="0 0 24 24">
    <path d="M 13.369141 0.66992188 L 0.66992188 6.5800781 L 1.0898438 7.4804688 C 1.0898437 7.4804687 2.9305469 11.480859 4.0605469 13.880859 C 4.1205469 13.350859 4.2692969 12.839609 4.5292969 12.349609 C 5.6092969 10.279609 8.2903125 5.3192969 8.3203125 5.2792969 L 8.7890625 4.4003906 L 9.7304688 2.6308594 L 11.490234 3.5800781 L 15.769531 5.8691406 C 14.799531 3.7691406 13.789062 1.5800781 13.789062 1.5800781 L 13.369141 0.66992188 z M 10.550781 5.3398438 L 10.080078 6.2167969 C 10.080078 6.2167969 7.3907813 11.181859 6.3007812 13.255859 C 5.0107812 15.708859 8.3000781 20.224781 9.3300781 21.550781 L 9.5996094 21.900391 L 10.050781 21.929688 C 10.470781 21.959688 11.160938 22 11.960938 22 C 13.140937 22 14.570078 21.910563 15.830078 21.601562 C 17.090078 21.292562 18.180156 20.744172 18.660156 19.826172 C 19.740156 17.752172 22.419922 12.806875 22.419922 12.796875 L 22.900391 11.919922 L 10.550781 5.3398438 z M 12.693359 11.089844 C 12.822109 11.101063 12.950313 11.136422 13.070312 11.201172 C 13.560313 11.460172 13.740469 12.069594 13.480469 12.558594 C 13.220469 13.037594 12.620859 13.225797 12.130859 12.966797 C 11.640859 12.707797 11.460703 12.100328 11.720703 11.611328 C 11.915703 11.252078 12.307109 11.056187 12.693359 11.089844 z M 16.21875 12.972656 C 16.347969 12.984656 16.477109 13.023141 16.599609 13.087891 C 17.089609 13.346891 17.269766 13.954594 17.009766 14.433594 C 16.749766 14.922594 16.140156 15.100797 15.660156 14.841797 C 15.170156 14.582797 14.99 13.985094 15.25 13.496094 C 15.445 13.129344 15.831094 12.936656 16.21875 12.972656 z M 11.189453 14.722656 L 14.710938 16.605469 C 14.190938 17.572469 12.979766 17.941828 12.009766 17.423828 C 11.029766 16.905828 10.669453 15.689656 11.189453 14.722656 z"/>
</svg>
