<?xml version="1.0"?>
<svg xmlns="http://www.w3.org/2000/svg" viewBox="0 0 24 24">
    <path d="M 7 2 L 7 13.021484 C 5.081 14.467484 4.3291719 17.189062 5.7011719 19.539062 C 6.2821719 20.535062 7.2226406 21.303312 8.3066406 21.695312 C 9.8376406 22.248313 11.250109 21.998563 12.412109 21.351562 C 12.172109 20.679562 12.032766 19.962891 12.009766 19.212891 C 12.007766 19.141891 12 19.071 12 19 C 12 17.869 12.275953 16.804375 12.751953 15.859375 C 13.084953 15.198375 13.512344 14.595219 14.027344 14.074219 C 13.738344 13.679219 13.398 13.321484 13 13.021484 L 13 12 L 15 12 L 15 10 L 13 10 L 13 8 L 15 8 L 15 6 L 13 6 L 13 2 L 7 2 z M 9 4 L 11 4 L 11 6 L 9 6 L 9 4 z M 18.064453 14 C 17.935453 14 17.8275 14.096609 17.8125 14.224609 L 17.695312 15.236328 C 17.211312 15.404328 16.773531 15.660281 16.394531 15.988281 L 15.457031 15.582031 C 15.339031 15.531031 15.202672 15.578453 15.138672 15.689453 L 14.201172 17.310547 C 14.137172 17.421547 14.166531 17.563625 14.269531 17.640625 L 15.076172 18.240234 C 15.028172 18.487234 15 18.74 15 19 C 15 19.26 15.028172 19.512766 15.076172 19.759766 L 14.269531 20.359375 C 14.166531 20.436375 14.136172 20.578453 14.201172 20.689453 L 15.138672 22.310547 C 15.202672 22.422547 15.339031 22.467016 15.457031 22.416016 L 16.394531 22.011719 C 16.773531 22.340719 17.211312 22.595672 17.695312 22.763672 L 17.8125 23.775391 C 17.8275 23.903391 17.935453 24 18.064453 24 L 19.935547 24 C 20.064547 24 20.1725 23.903391 20.1875 23.775391 L 20.304688 22.763672 C 20.788688 22.595672 21.226469 22.339719 21.605469 22.011719 L 22.542969 22.417969 C 22.660969 22.468969 22.797328 22.421547 22.861328 22.310547 L 23.798828 20.689453 C 23.862828 20.577453 23.833469 20.435375 23.730469 20.359375 L 22.923828 19.759766 C 22.971828 19.512766 23 19.26 23 19 C 23 18.74 22.971828 18.487234 22.923828 18.240234 L 23.730469 17.640625 C 23.833469 17.563625 23.863828 17.421547 23.798828 17.310547 L 22.861328 15.689453 C 22.797328 15.578453 22.660969 15.531031 22.542969 15.582031 L 21.605469 15.988281 C 21.226469 15.660281 20.788688 15.404328 20.304688 15.236328 L 20.1875 14.224609 C 20.1725 14.096609 20.064547 14 19.935547 14 L 18.064453 14 z M 19 17 C 20.104 17 21 17.895 21 19 C 21 20.104 20.104 21 19 21 C 17.896 21 17 20.104 17 19 C 17 17.895 17.896 17 19 17 z"/>
</svg>
