<?xml version="1.0"?>
<svg xmlns="http://www.w3.org/2000/svg" viewBox="0 0 24 24">
    <path d="M 12.5 2 C 10.861 2 9.3885156 2.8925313 8.6035156 4.2695312 C 8.0865156 4.0915313 7.546 4 7 4 C 4.243 4 2 6.243 2 9 C 2 11.138 3.3307344 12.992266 5.3027344 13.697266 C 6.0077344 15.669266 7.862 17 10 17 C 10.813 17 11.601406 16.802828 12.316406 16.423828 C 12.985406 16.802828 13.729 17 14.5 17 C 16.09 17 17.555375 16.151734 18.359375 14.802734 C 20.497375 14.202734 22 12.259 22 10 C 22 7.154 19.643469 4.8187656 16.730469 5.0097656 C 16.115469 3.2377656 14.448 2 12.5 2 z M 7.5 18 A 1.5 1.5 0 0 0 6 19.5 A 1.5 1.5 0 0 0 7.5 21 A 1.5 1.5 0 0 0 9 19.5 A 1.5 1.5 0 0 0 7.5 18 z M 4 20 A 1 1 0 0 0 3 21 A 1 1 0 0 0 4 22 A 1 1 0 0 0 5 21 A 1 1 0 0 0 4 20 z"/>
</svg>
