<?xml version="1.0"?>
<svg xmlns="http://www.w3.org/2000/svg" viewBox="0 0 24 24">
    <path d="M 14.955078 3 C 14.694078 3 14.449703 3.0372813 14.220703 3.1132812 C 13.991703 3.1892813 13.791094 3.2975469 13.621094 3.4355469 C 13.451094 3.5735469 13.318703 3.7395469 13.220703 3.9355469 C 13.120703 4.1325469 13.070312 4.3517969 13.070312 4.5917969 L 14.212891 4.5917969 C 14.212891 4.4907969 14.232437 4.3993594 14.273438 4.3183594 C 14.314438 4.2363594 14.369453 4.1673281 14.439453 4.1113281 C 14.508453 4.0553281 14.589594 4.0114687 14.683594 3.9804688 C 14.777594 3.9494688 14.877422 3.9335938 14.982422 3.9335938 C 15.114422 3.9335937 15.228172 3.9532344 15.326172 3.9902344 C 15.423172 4.0282344 15.505313 4.0795312 15.570312 4.1445312 C 15.634313 4.2105312 15.682844 4.2898594 15.714844 4.3808594 C 15.745844 4.4728594 15.761719 4.5726875 15.761719 4.6796875 C 15.761719 4.9236875 15.692734 5.118625 15.552734 5.265625 C 15.413734 5.412625 15.198203 5.4863281 14.908203 5.4863281 L 14.300781 5.4863281 L 14.300781 6.3925781 L 14.908203 6.3925781 C 15.053203 6.3925781 15.183781 6.4093594 15.300781 6.4433594 C 15.417781 6.4773594 15.518609 6.5276562 15.599609 6.5976562 C 15.681609 6.6666562 15.743109 6.7581406 15.787109 6.8691406 C 15.830109 6.9801406 15.851562 7.1125781 15.851562 7.2675781 C 15.851563 7.3885781 15.831969 7.4987031 15.792969 7.5957031 C 15.752969 7.6937031 15.696094 7.7766563 15.621094 7.8476562 C 15.546094 7.9176563 15.453703 7.9717656 15.345703 8.0097656 C 15.237703 8.0477656 15.116422 8.0664062 14.982422 8.0664062 C 14.861422 8.0664063 14.749484 8.0467656 14.646484 8.0097656 C 14.543484 7.9717656 14.456859 7.9204688 14.380859 7.8554688 C 14.305859 7.7894687 14.247078 7.7110937 14.205078 7.6210938 C 14.163078 7.5300937 14.142578 7.4303125 14.142578 7.3203125 L 13 7.3203125 C 13 7.6083125 13.055969 7.8574062 13.167969 8.0664062 C 13.279969 8.2774063 13.426375 8.4527969 13.609375 8.5917969 C 13.792375 8.7307969 14.002328 8.8333906 14.236328 8.9003906 C 14.470328 8.9673906 14.710078 9 14.955078 9 C 15.245078 9 15.514672 8.9627188 15.763672 8.8867188 C 16.012672 8.8107188 16.226203 8.6987344 16.408203 8.5527344 C 16.590203 8.4067344 16.733891 8.2276719 16.837891 8.0136719 C 16.940891 7.7996719 16.994141 7.5562031 16.994141 7.2832031 C 16.994141 6.9632031 16.914859 6.6852187 16.755859 6.4492188 C 16.596859 6.2142187 16.353297 6.0379219 16.029297 5.9199219 C 16.168297 5.8559219 16.292391 5.7775469 16.400391 5.6855469 C 16.508391 5.5935469 16.600781 5.4917656 16.675781 5.3847656 C 16.750781 5.2757656 16.807703 5.1601094 16.845703 5.0371094 C 16.883703 4.9141094 16.902344 4.7900625 16.902344 4.6640625 C 16.902344 4.3910625 16.854766 4.1503594 16.759766 3.9433594 C 16.664766 3.7363594 16.532328 3.5638281 16.361328 3.4238281 C 16.190328 3.2838281 15.984094 3.1764687 15.746094 3.1054688 C 15.508094 3.0344688 15.245078 3 14.955078 3 z M 2 4 L 2 20 L 4 20 L 4 18 L 20 18 L 20 20 L 22 20 L 22 8 L 20 8 L 20 11 L 12 11 L 12 16 L 10 16 L 10 13 L 10 11 C 10 8.8026661 8.1973339 7 6 7 L 4 7 L 4 4 L 2 4 z M 4 9 L 6 9 C 7.1166661 9 8 9.8833339 8 11 L 4 11 L 4 9 z"/>
</svg>
