<?xml version="1.0"?>
<svg xmlns="http://www.w3.org/2000/svg" viewBox="0 0 24 24">
    <path d="M12,2c-5.13,0-9,3.65-9,8.5c0,2.62,1.32,4.26,2,4.94V19h3v3h8v-3h3v-3.56c0.68-0.68,2-2.32,2-4.94C21,5.65,17.13,2,12,2z M9.5,15C8.67,15,8,14.33,8,13.5C8,12.67,8.67,12,9.5,12s1.5,0.67,1.5,1.5C11,14.33,10.33,15,9.5,15z M12.8,17.8 c-0.5,0-0.7-0.4-0.8-0.7c-0.1,0.3-0.4,0.7-0.8,0.7c-0.2,0-0.5-0.2-0.5-0.5c0-0.7,0.8-2,1.3-2.1c0.5,0.1,1.3,1.4,1.3,2.1 C13.3,17.6,13.1,17.8,12.8,17.8z M14.5,15c-0.83,0-1.5-0.67-1.5-1.5c0-0.83,0.67-1.5,1.5-1.5s1.5,0.67,1.5,1.5 C16,14.33,15.33,15,14.5,15z"/>
</svg>
