<?xml version="1.0"?>
<svg xmlns="http://www.w3.org/2000/svg" viewBox="0 0 24 24">
    <path style="line-height:normal;text-indent:0;text-align:start;text-decoration-line:none;text-decoration-style:solid;text-decoration-color:#000;text-transform:none;block-progression:tb;isolation:auto;mix-blend-mode:normal" d="M 4 2 L 4 9 L 2 9 L 2 18 L 4 18 L 4 22 L 20 22 L 20 7 L 15 2 L 4 2 z M 6 4 L 14 4 L 14 8 L 18 8 L 18 20 L 6 20 L 6 18 L 15 18 L 15 9 L 6 9 L 6 4 z M 4 11 L 7 11 L 7 12 L 6 12 L 6 16 L 5 16 L 5 12 L 4 12 L 4 11 z M 8 11 L 9 11 L 9 16 L 8 16 L 8 11 z M 10 11 L 13 11 L 13 12 L 11 12 L 11 13 L 12.599609 13 L 12.599609 14 L 11 14 L 11 16 L 10 16 L 10 11 z" font-weight="400" font-family="sans-serif" white-space="normal" overflow="visible"/>
</svg>
