<?xml version="1.0"?>
<svg xmlns="http://www.w3.org/2000/svg" viewBox="0 0 24 24">
    <path d="M 21 2.5234375 L 14.96875 4.9355469 L 8.96875 2.9355469 L 3 5.3242188 L 3 21.466797 L 9 19.076172 L 9 18.064453 L 9 16.945312 L 9 5.0761719 L 9.03125 5.0644531 L 15 7.1191406 L 15 10.587891 C 15.927 10.211891 16.938 10 18 10 C 18.339 10 18.673 10.025359 19 10.068359 C 19.217 10.095359 19.427672 10.147406 19.638672 10.191406 C 19.758672 10.217406 19.882 10.231719 20 10.261719 L 20 10.259766 C 20.343 10.347766 20.677 10.456891 21 10.587891 L 21 2.5234375 z M 18 12 C 14.7 12 12 14.7 12 18 C 12 21.3 14.7 24 18 24 C 21.3 24 24 21.3 24 18 C 24 14.7 21.3 12 18 12 z M 18 14 C 20.2 14 22 15.8 22 18 C 22 20.2 20.2 22 18 22 C 15.8 22 14 20.2 14 18 C 14 15.8 15.8 14 18 14 z M 18.427734 15.117188 L 16.828125 18.138672 L 18.925781 20.236328 L 19.986328 19.175781 L 18.671875 17.861328 L 19.753906 15.818359 L 18.427734 15.117188 z"/>
</svg>
