<?xml version="1.0"?>
<svg xmlns="http://www.w3.org/2000/svg" viewBox="0 0 24 24">
    <path d="M 6 3 L 6 9 L 2 9 L 2 10 L 2 21 L 22 21 L 22 9 L 18 9 L 18 6.5859375 L 14.414062 3 L 6 3 z M 8 5 L 13.585938 5 L 16 7.4140625 L 16 9 L 8 9 L 8 5 z M 12 11 C 14.2 11 16 12.8 16 15 C 16 17.2 14.2 19 12 19 C 9.8 19 8 17.2 8 15 C 8 12.8 9.8 11 12 11 z M 12.900391 12.199219 L 11.199219 15.099609 L 13.400391 17.300781 L 14.300781 16.300781 L 12.800781 14.900391 L 14 12.800781 L 12.900391 12.199219 z"/>
</svg>
