<?xml version="1.0"?>
<svg xmlns="http://www.w3.org/2000/svg" viewBox="0 0 24 24">
    <path d="M 13 2 L 13 4 L 14 4 L 14 5.9140625 L 16.085938 8 L 14 10.085938 L 14 12 L 13 12 L 13 14 L 22 14 L 22 12 L 21 12 L 21 10.085938 L 18.914062 8 L 21 5.9140625 L 21 4 L 22 4 L 22 2 L 13 2 z M 11 2.0703125 C 7.344 2.5273125 4.4547344 5.4441875 4.0527344 9.1171875 L 1.5761719 13 L 4 14.021484 L 4 19 L 8 19 L 8 22 L 17 22 L 17 19.240234 C 17 17.753234 17.287594 16.782 17.683594 16 L 13 16 L 11 16 L 11 14 L 11 12 L 11 10 L 13.257812 8 L 11 6 L 11 4 L 11 2.0703125 z M 16 4 L 19 4 L 19 5.0859375 L 17.5 6.5859375 L 16 5.0859375 L 16 4 z M 17.5 9.4140625 L 19 10.914062 L 19 12 L 16 12 L 16 10.914062 L 17.5 9.4140625 z"/>
</svg>
