<?xml version="1.0"?>
<svg xmlns="http://www.w3.org/2000/svg" viewBox="0 0 24 24">
    <path d="M 12 2 C 6.477 2 2 6.477 2 12 C 2 17.523 6.477 22 12 22 C 12.085 22 12.167953 21.988328 12.251953 21.986328 C 11.464953 20.854328 11 19.483 11 18 C 11 14.134 14.134 11 18 11 C 19.483 11 20.854328 11.464953 21.986328 12.251953 C 21.988328 12.167953 22 12.085 22 12 C 22 6.477 17.523 2 12 2 z M 11 6 L 13 6 L 13 12.414062 L 8.7070312 16.707031 L 7.2929688 15.292969 L 11 11.585938 L 11 6 z M 18 13 C 15.2 13 13 15.2 13 18 C 13 20.8 15.2 23 18 23 C 19 23 20.000781 22.699219 20.800781 22.199219 L 22.599609 24 L 24 22.599609 L 22.199219 20.800781 C 22.699219 20.000781 23 19 23 18 C 23 15.2 20.8 13 18 13 z M 18 15 C 19.7 15 21 16.3 21 18 C 21 19.7 19.7 21 18 21 C 16.3 21 15 19.7 15 18 C 15 16.3 16.3 15 18 15 z"/>
</svg>
