<?xml version="1.0"?>
<svg xmlns="http://www.w3.org/2000/svg" viewBox="0 0 24 24">
    <path style="line-height:normal;text-indent:0;text-align:start;text-decoration-line:none;text-decoration-style:solid;text-decoration-color:#000;text-transform:none;block-progression:tb;isolation:auto;mix-blend-mode:normal" d="M 5.5859375 3 L 3.5859375 5 L 2 5 L 2 7 L 4.4140625 7 L 7 4.4140625 L 5.5859375 3 z M 9 5 L 9 7 L 22 7 L 22 5 L 9 5 z M 5.5859375 9 L 3.5859375 11 L 2 11 L 2 13 L 4.4140625 13 L 7 10.414062 L 5.5859375 9 z M 9 11 L 9 13 L 22 13 L 22 11 L 9 11 z M 5.5859375 15 L 3.5859375 17 L 2 17 L 2 19 L 4.4140625 19 L 7 16.414062 L 5.5859375 15 z M 9 17 L 9 19 L 22 19 L 22 17 L 9 17 z" font-weight="400" font-family="sans-serif" white-space="normal" overflow="visible"/>
</svg>
