<?xml version="1.0"?>
<svg xmlns="http://www.w3.org/2000/svg" viewBox="0 0 24 24">
    <path style="line-height:normal;text-indent:0;text-align:start;text-decoration-line:none;text-decoration-style:solid;text-decoration-color:#000;text-transform:none;block-progression:tb;isolation:auto;mix-blend-mode:normal" d="M 1 4 L 1 20 L 23 20 L 23 19 L 23 4 L 1 4 z M 3 6 L 17 6 L 17 12 L 15 12 L 15 11 L 13 11 L 13 12 L 11 12 L 11 11 L 9 11 L 9 12 L 7 12 L 7 11 L 5 11 L 5 12 L 3 12 L 3 6 z M 20 8 C 20.6 8 21 8.4 21 9 C 21 9.6 20.6 10 20 10 C 19.4 10 19 9.6 19 9 C 19 8.4 19.4 8 20 8 z M 20 11 C 20.6 11 21 11.4 21 12 C 21 12.6 20.6 13 20 13 C 19.4 13 19 12.6 19 12 C 19 11.4 19.4 11 20 11 z M 3 14 L 13 14 L 15 14 L 17 14 L 17 18 L 3 18 L 3 14 z" font-weight="400" font-family="sans-serif" white-space="normal" overflow="visible"/>
</svg>
