<?xml version="1.0"?>
<svg xmlns="http://www.w3.org/2000/svg" viewBox="0 0 24 24">
    <path style="line-height:normal;text-indent:0;text-align:start;text-decoration-line:none;text-decoration-style:solid;text-decoration-color:#000;text-transform:none;block-progression:tb;isolation:auto;mix-blend-mode:normal" d="M 12 3 C 9.6782609 3 8.1557156 3.0565067 7.0390625 3.328125 C 6.480736 3.4639342 5.9900189 3.6569396 5.59375 4.0410156 C 5.1974811 4.4250916 5 5.0055556 5 5.5 C 5 6.3777778 5.4158142 7.0705219 5.8300781 7.4433594 C 5.9099655 7.515258 5.9198964 7.4876201 6 7.5429688 L 6 9 C 3.794 9 2 10.794 2 13 L 2 21 L 22 21 L 22 16 L 24 16 L 24 14 L 22 14 L 22 13 C 22 10.794 20.206 9 18 9 L 18 7.484375 C 18.473967 7.1180132 19 6.5473865 19 5.5 C 19 5.0128788 18.786365 4.4431061 18.396484 4.0742188 C 18.006603 3.7053314 17.530477 3.5118635 16.974609 3.3691406 C 15.862873 3.0836949 14.328986 3 12 3 z M 12 5 C 14.271014 5 15.738299 5.1170864 16.476562 5.3066406 C 16.824748 5.3960396 16.95919 5.491069 16.990234 5.515625 C 16.971244 5.9745779 16.628906 6.0722656 16.628906 6.0722656 L 16 6.3222656 L 16 9 L 8 9 L 8 6.2558594 L 7.2871094 6.0429688 C 7.2871094 6.0429688 7.2556584 6.0341892 7.1699219 5.9570312 C 7.0841858 5.8798692 7 5.8222222 7 5.5 C 7 5.4691764 6.996748 5.4772641 6.9941406 5.4726562 C 7.0118442 5.4578325 7.1558693 5.3580423 7.5117188 5.2714844 C 8.2450657 5.0931027 9.7217391 5 12 5 z M 11 6 A 1 1 0 0 0 10 7 A 1 1 0 0 0 11 8 A 1 1 0 0 0 12 7 A 1 1 0 0 0 11 6 z M 13.5 7 A 0.5 0.5 0 0 0 13 7.5 A 0.5 0.5 0 0 0 13.5 8 A 0.5 0.5 0 0 0 14 7.5 A 0.5 0.5 0 0 0 13.5 7 z M 19 17 C 19.552 17 20 17.448 20 18 C 20 18.552 19.552 19 19 19 C 18.448 19 18 18.552 18 18 C 18 17.448 18.448 17 19 17 z" font-weight="400" font-family="sans-serif" white-space="normal" overflow="visible"/>
</svg>
