<?xml version="1.0"?>
<svg xmlns="http://www.w3.org/2000/svg" viewBox="0 0 24 24">
    <path d="M 7 2 C 4.72 2 3 5.009 3 9 L 3 11 L 5 11 L 5 13 L 3 13 L 3 22 L 15 22 L 15 16 L 17 16 C 19.28 16 21 12.991 21 9 C 21 5.009 19.28 2 17 2 L 7 2 z M 17 4 C 17.815 4 19 5.948 19 9 C 19 12.052 17.815 14 17 14 C 16.185 14 15 12.052 15 9 C 15 5.948 16.185 4 17 4 z M 17 7 A 1 2 0 0 0 16 9 A 1 2 0 0 0 17 11 A 1 2 0 0 0 18 9 A 1 2 0 0 0 17 7 z M 7 11 L 9 11 L 9 13 L 7 13 L 7 11 z M 11 11 L 13 11 L 13 13 L 11 13 L 11 11 z"/>
</svg>
