<?xml version="1.0"?>
<svg xmlns="http://www.w3.org/2000/svg" viewBox="0 0 24 24">
    <path style="line-height:normal;text-indent:0;text-align:start;text-decoration-line:none;text-decoration-style:solid;text-decoration-color:#000;text-transform:none;block-progression:tb;isolation:auto;mix-blend-mode:normal" d="M 14.755859 0.03125 C 14.755859 0.03125 13.768848 0.28165278 12.841797 1.09375 C 12.14521 1.7039598 11.456088 2.6775803 11.15625 4.03125 C 6.3133483 4.347305 3 7.3788822 3 11.625 C 3 16.05 6.849 21 12 21 C 17.151 21 21 16.05 21 11.625 C 21 7.4846419 17.847979 4.5018678 13.201172 4.0625 C 13.421193 3.3640864 13.791075 2.9192606 14.158203 2.5976562 C 14.731152 2.0957535 15.244141 1.96875 15.244141 1.96875 L 14.755859 0.03125 z M 12 6 C 12.298 6 12.595625 6.0130625 12.890625 6.0390625 C 15.171625 6.2400625 16.989 8.1621719 17 10.451172 L 17 10.5 C 17 10.5 14.500703 10.109687 13.720703 8.6796875 C 13.720703 10.579688 12 12 12 12 C 12 12 10.119141 10.579688 10.119141 8.6796875 C 9.3391406 10.109687 7 10.5 7 10.5 L 7 10.421875 C 7.026 8.138875 8.8460938 6.2341094 11.121094 6.0371094 C 11.413094 6.0131094 11.707 6 12 6 z" font-weight="400" font-family="sans-serif" white-space="normal" overflow="visible"/>
</svg>
