<?xml version="1.0"?>
<svg xmlns="http://www.w3.org/2000/svg" viewBox="0 0 24 24">
    <path style="line-height:normal;text-indent:0;text-align:start;text-decoration-line:none;text-decoration-style:solid;text-decoration-color:#000;text-transform:none;block-progression:tb;isolation:auto;mix-blend-mode:normal" d="M 10 4 C 7.243 4 5 6.243 5 9 L 5 10 L 7 10 L 7 18 L 1 18 L 1 20 L 21 20 L 21 9 L 20.96875 9 C 22.193996 8.0878401 23 6.641434 23 5 L 23 4 L 10 4 z M 19 9.8984375 L 19 18 L 18 18 L 18 10 C 18.342637 10 18.67656 9.9644059 19 9.8984375 z M 9 10 L 10 10 L 10 18 L 9 18 L 9 10 z M 12 10 L 13 10 L 13 18 L 12 18 L 12 10 z M 15 10 L 16 10 L 16 18 L 15 18 L 15 10 z" font-weight="400" font-family="sans-serif" white-space="normal" overflow="visible"/>
</svg>
