<?xml version="1.0"?>
<svg xmlns="http://www.w3.org/2000/svg" viewBox="0 0 24 24">
    <path d="M 5.5 2 C 3.567 2 2 3.567 2 5.5 C 2 7.433 3.567 9 5.5 9 C 7.433 9 9 7.433 9 5.5 C 9 3.567 7.433 2 5.5 2 z M 22 3 L 16.699219 3.8007812 L 18.242188 5.34375 L 15.177734 8.4082031 L 13.568359 6.9003906 L 9.4921875 11.078125 L 8.0078125 9.59375 L 3.3027344 14.203125 L 4.703125 15.630859 L 7.9921875 12.40625 L 9.5078125 13.921875 L 13.630859 9.6992188 L 15.222656 11.191406 L 19.65625 6.7578125 L 21.199219 8.3007812 L 22 3 z M 5.8984375 3.5 L 6.1542969 3.5 L 6.1542969 7.5 L 4.7949219 7.5 L 4.7949219 5.0078125 L 4 5.3144531 L 4 4.2773438 L 5.8984375 3.5 z M 19 11 L 19 22 L 21 22 L 21 11 L 19 11 z M 15 13 L 15 22 L 17 22 L 17 13 L 15 13 z M 11 15 L 11 22 L 13 22 L 13 15 L 11 15 z M 7 17 L 7 22 L 9 22 L 9 17 L 7 17 z M 3 19 L 3 22 L 5 22 L 5 19 L 3 19 z"/>
</svg>
