<?xml version="1.0"?>
<svg xmlns="http://www.w3.org/2000/svg" viewBox="0 0 24 24">
    <path style="line-height:normal;text-indent:0;text-align:start;text-decoration-line:none;text-decoration-style:solid;text-decoration-color:#000;text-transform:none;block-progression:tb;isolation:auto;mix-blend-mode:normal" d="M 1 3 L 1 18 L 3 18 C 3 19.64501 4.3549904 21 6 21 C 7.6450096 21 9 19.64501 9 18 L 14 18 C 14 19.64501 15.35499 21 17 21 C 18.64501 21 20 19.64501 20 18 L 22 18 L 22 11.775391 L 17.953125 3 L 17.300781 3 L 1 3 z M 6 7 L 9 7 L 9 9 L 6 9 L 6 7 z M 11 7 L 14 7 L 14 9 L 11 9 L 11 7 z M 16 7 L 17.589844 7 L 18.509766 9 L 16 9 L 16 7 z M 6 11 L 9 11 L 9 13 L 6 13 L 6 11 z M 11 11 L 14 11 L 14 13 L 11 13 L 11 11 z M 16 11 L 19.439453 11 L 20 12.220703 L 20 13 L 16 13 L 16 11 z M 6 17 C 6.5641294 17 7 17.435871 7 18 C 7 18.564129 6.5641294 19 6 19 C 5.4358706 19 5 18.564129 5 18 C 5 17.435871 5.4358706 17 6 17 z M 17 17 C 17.564129 17 18 17.435871 18 18 C 18 18.564129 17.564129 19 17 19 C 16.435871 19 16 18.564129 16 18 C 16 17.435871 16.435871 17 17 17 z" font-weight="400" font-family="sans-serif" white-space="normal" overflow="visible"/>
</svg>
