<?xml version="1.0"?>
<svg xmlns="http://www.w3.org/2000/svg" viewBox="0 0 24 24">
    <path d="M 4 3 L 4 5.5 C 4 5.7869372 3.7869372 6 3.5 6 C 3.2130628 6 3 5.7869372 3 5.5 L 1 5.5 C 1 6.8690628 2.1309372 8 3.5 8 C 4.8151439 8 5.8571637 6.9344676 5.9414062 5.6386719 L 9.7695312 11 L 1 11 L 1 18 L 3.0507812 18 C 3.2958204 19.692046 4.7411114 21 6.5 21 C 8.2588886 21 9.7041796 19.692046 9.9492188 18 L 14.050781 18 C 14.29582 19.692046 15.741111 21 17.5 21 C 19.258889 21 20.70418 19.692046 20.949219 18 L 23 18 L 23 11 L 23 9.5859375 L 18.414062 5 L 11 5 L 11 9.2773438 L 6.5136719 3 L 4 3 z M 13 7 L 17.585938 7 L 21 10.414062 L 21 11 L 13 11 L 13 7 z M 6.5 16 C 7.327 16 8 16.673 8 17.5 C 8 18.327 7.327 19 6.5 19 C 5.673 19 5 18.327 5 17.5 C 5 16.673 5.673 16 6.5 16 z M 17.5 16 C 18.327 16 19 16.673 19 17.5 C 19 18.327 18.327 19 17.5 19 C 16.673 19 16 18.327 16 17.5 C 16 16.673 16.673 16 17.5 16 z"/>
</svg>
