<?xml version="1.0"?>
<svg xmlns="http://www.w3.org/2000/svg" viewBox="0 0 24 24">
    <path style="line-height:normal;text-indent:0;text-align:start;text-decoration-line:none;text-decoration-style:solid;text-decoration-color:#000;text-transform:none;block-progression:tb;isolation:auto;mix-blend-mode:normal" d="M 6 3 C 4.3550302 3 3 4.3550302 3 6 L 3 21 L 16 21 L 16 16 L 20 16 L 20 11 L 18 11 L 18 14 L 16 14 L 16 9 L 22 9 L 22 7 L 20 7 L 20 6 C 20 4.3550302 18.64497 3 17 3 L 6 3 z M 17 5 C 17.56503 5 18 5.4349698 18 6 L 18 7 L 16 7 L 16 6 C 16 5.4349698 16.43497 5 17 5 z" font-weight="400" font-family="sans-serif" white-space="normal" overflow="visible"/>
</svg>
