<?xml version="1.0"?>
<svg xmlns="http://www.w3.org/2000/svg" viewBox="0 0 24 24">
    <path d="M 8 3 C 5.791 3 4 4.791 4 7 C 4 10 8 14 8 14 C 8 14 12 10 12 7 C 12 4.791 10.209 3 8 3 z M 20 3 A 2 2 0 0 0 18 5 A 2 2 0 0 0 20 7 A 2 2 0 0 0 22 5 A 2 2 0 0 0 20 3 z M 8 5 C 9.105 5 10 5.895 10 7 C 10 8.105 9.105 9 8 9 C 6.895 9 6 8.105 6 7 C 6 5.895 6.895 5 8 5 z M 20 9 A 1 1 0 0 0 19 10 A 1 1 0 0 0 20 11 A 1 1 0 0 0 21 10 A 1 1 0 0 0 20 9 z M 4 13 A 1 1 0 0 0 3 14 A 1 1 0 0 0 4 15 A 1 1 0 0 0 5 14 A 1 1 0 0 0 4 13 z M 12 13 A 1 1 0 0 0 11 14 A 1 1 0 0 0 12 15 A 1 1 0 0 0 13 14 A 1 1 0 0 0 12 13 z M 16 13 A 1 1 0 0 0 15 14 A 1 1 0 0 0 16 15 A 1 1 0 0 0 17 14 A 1 1 0 0 0 16 13 z M 20 13 A 1 1 0 0 0 19 14 A 1 1 0 0 0 20 15 A 1 1 0 0 0 21 14 A 1 1 0 0 0 20 13 z M 4 17 A 2 2 0 0 0 2 19 A 2 2 0 0 0 4 21 A 2 2 0 0 0 6 19 A 2 2 0 0 0 4 17 z"/>
</svg>
