<?xml version="1.0"?>
<svg xmlns="http://www.w3.org/2000/svg" viewBox="0 0 24 24">
    <path style="line-height:normal;text-indent:0;text-align:start;text-decoration-line:none;text-decoration-style:solid;text-decoration-color:#000;text-transform:none;block-progression:tb;isolation:auto;mix-blend-mode:normal" d="M 6.3828125 3 L 4.0644531 7.6347656 L 2.3164062 7.0527344 L 1.6835938 8.9472656 L 3.1621094 9.4414062 L 3.1054688 9.5527344 C 3.0364688 9.6907344 3 9.845 3 10 L 3 16 L 7 16 L 7.3320312 15 L 16.666016 15 L 17 16 L 21 16 L 21 10 C 21 9.845 20.963531 9.6907344 20.894531 9.5527344 L 20.839844 9.4414062 L 22.316406 8.9472656 L 21.683594 7.0527344 L 19.935547 7.6347656 L 17.617188 3 L 6.3828125 3 z M 7.6171875 5 L 16.382812 5 L 17.882812 8 L 6.1171875 8 L 7.6171875 5 z M 9 17 C 9 17.494048 8.8417969 17.560547 8.3417969 17.998047 C 7.8417969 18.435547 7 19.244048 7 20.5 C 7 21.755952 7.8417969 22.564453 8.3417969 23.001953 C 8.8417969 23.439453 9 23.505952 9 24 L 11 24 C 11 22.744048 10.158203 21.935547 9.6582031 21.498047 C 9.1582031 21.060547 9 20.994048 9 20.5 C 9 20.005952 9.1582031 19.939453 9.6582031 19.501953 C 10.158203 19.064453 11 18.255952 11 17 L 9 17 z M 14 17 C 14 17.494048 13.841797 17.560547 13.341797 17.998047 C 12.841797 18.435547 12 19.244048 12 20.5 C 12 21.755952 12.841797 22.564453 13.341797 23.001953 C 13.841797 23.439453 14 23.505952 14 24 L 16 24 C 16 22.744048 15.158203 21.935547 14.658203 21.498047 C 14.158203 21.060547 14 20.994048 14 20.5 C 14 20.005952 14.158203 19.939453 14.658203 19.501953 C 15.158203 19.064453 16 18.255952 16 17 L 14 17 z" font-weight="400" font-family="sans-serif" white-space="normal" overflow="visible"/>
</svg>
