<?xml version="1.0"?>
<svg xmlns="http://www.w3.org/2000/svg" viewBox="0 0 24 24">
    <path d="M 6 3 L 6 5 L 4 5 L 4 7 L 6 7 L 6 9 L 4 9 L 4 11 L 6 11 L 6 13 L 4 13 L 4 15 L 6 15 L 6 17 L 4 17 L 4 19 L 6 19 L 6 21 L 8 21 L 8 3 L 6 3 z M 16 3 L 16 5 L 10 5 L 10 7 L 16 7 L 16 9 L 10 9 L 10 11 L 16 11 L 16 13 L 10 13 L 10 15 L 16 15 L 16 17 L 10 17 L 10 19 L 16 19 L 16 21 L 18 21 L 18 19 L 20 19 L 20 17 L 18 17 L 18 15 L 20 15 L 20 13 L 18 13 L 18 11 L 20 11 L 20 9 L 18 9 L 18 7 L 20 7 L 20 5 L 18 5 L 18 3 L 16 3 z"/>
</svg>
