<?xml version="1.0"?>
<svg xmlns="http://www.w3.org/2000/svg" viewBox="0 0 24 24">
    <path d="M 9.8007812 2 L 8.4296875 6 L 10.535156 6 L 11.228516 4 L 18.771484 4 L 19.8125 7 L 15.873047 7 L 18 13 L 18 14 L 19 14 L 19 16 L 22 16 L 22 14 L 22 13 L 22 7.25 L 20.199219 2 L 9.8007812 2 z M 3.8007812 8 L 2 13.25 L 2 22 L 5 22 L 5 20 L 13 20 L 13 22 L 16 22 L 16 13.25 L 14.199219 8 L 3.8007812 8 z M 19 9 C 19.552 9 20 9.448 20 10 C 20 10.552 19.552 11 19 11 C 18.448 11 18 10.552 18 10 C 18 9.448 18.448 9 19 9 z M 5.2285156 10 L 12.771484 10 L 13.8125 13 L 4.1875 13 L 5.2285156 10 z M 5 15 C 5.552 15 6 15.448 6 16 C 6 16.552 5.552 17 5 17 C 4.448 17 4 16.552 4 16 C 4 15.448 4.448 15 5 15 z M 13 15 C 13.552 15 14 15.448 14 16 C 14 16.552 13.552 17 13 17 C 12.448 17 12 16.552 12 16 C 12 15.448 12.448 15 13 15 z"/>
</svg>
