<?xml version="1.0"?>
<svg xmlns="http://www.w3.org/2000/svg" viewBox="0 0 24 24">
    <path d="M 2 3 L 2 19 L 7.0507812 19 C 7.2981765 20.685411 8.7500665 22 10.5 22 C 12.249933 22 13.701823 20.685411 13.949219 19 L 23 19 L 23 17 L 21 17 L 21 3.2558594 C 21 3.1148594 20.885141 3 20.744141 3 L 2 3 z M 8 8 L 16 8 L 16 12 L 8 12 L 8 8 z M 10.5 17 C 11.340272 17 12 17.659728 12 18.5 C 12 19.340272 11.340272 20 10.5 20 C 9.6597282 20 9 19.340272 9 18.5 C 9 17.659728 9.6597282 17 10.5 17 z"/>
</svg>
