<?xml version="1.0"?>
<svg xmlns="http://www.w3.org/2000/svg" viewBox="0 0 24 24">
    <path style="line-height:normal;text-indent:0;text-align:start;text-decoration-line:none;text-decoration-style:solid;text-decoration-color:#000;text-transform:none;block-progression:tb;isolation:auto;mix-blend-mode:normal" d="M 6 2 A 2 2 0 0 0 4 4 A 2 2 0 0 0 6 6 A 2 2 0 0 0 8 4 A 2 2 0 0 0 6 2 z M 10 3 L 10 5 L 19 5 L 19 14 L 11 14 L 11 16 L 13.339844 16 L 15.912109 22 L 18.087891 22 L 15.515625 16 L 21 16 L 21 3 L 10 3 z M 3 7 L 3 16 L 3 22 L 5 22 L 5 16 L 7 16 L 7 22 L 9 22 L 9 15 L 9 9 L 15 9 L 15 7 L 9 7 L 3 7 z" font-weight="400" font-family="sans-serif" white-space="normal" overflow="visible"/>
</svg>
