<?xml version="1.0"?>
<svg xmlns="http://www.w3.org/2000/svg" viewBox="0 0 24 24">
    <path d="M 10 1 L 10 3 L 16 3 L 16 1 L 10 1 z M 7 5 C 6.056 5 5.1666094 5.4442188 4.5996094 6.1992188 L 2 9.6679688 L 2 19 L 3.1875 19 C 3.6048587 20.15733 4.7068414 21 6 21 C 6.7686023 21 7.4666507 20.69587 8 20.212891 C 8.5333493 20.69587 9.2313977 21 10 21 C 11.293159 21 12.395141 20.15733 12.8125 19 L 15.1875 19 C 15.604859 20.15733 16.706841 21 18 21 C 19.293159 21 20.395141 20.15733 20.8125 19 L 22 19 L 22 9.6679688 L 19.400391 6.1992188 C 18.833391 5.4442188 17.944 5 17 5 L 7 5 z M 7 7 L 8 7 L 8 11 L 4 11 L 4 10.330078 L 6.1992188 7.4003906 C 6.3882188 7.1483906 6.686 7 7 7 z M 10 7 L 14 7 L 14 11 L 10 11 L 10 7 z M 16 7 L 17 7 C 17.315 7 17.611781 7.1483906 17.800781 7.4003906 L 20 10.330078 L 20 11 L 16 11 L 16 7 z M 6 17 C 6.5641294 17 7 17.435871 7 18 C 7 18.564129 6.5641294 19 6 19 C 5.4358706 19 5 18.564129 5 18 C 5 17.435871 5.4358706 17 6 17 z M 10 17 C 10.564129 17 11 17.435871 11 18 C 11 18.564129 10.564129 19 10 19 C 9.4358706 19 9 18.564129 9 18 C 9 17.435871 9.4358706 17 10 17 z M 18 17 C 18.564129 17 19 17.435871 19 18 C 19 18.564129 18.564129 19 18 19 C 17.435871 19 17 18.564129 17 18 C 17 17.435871 17.435871 17 18 17 z"/>
</svg>
