<?xml version="1.0"?>
<svg xmlns="http://www.w3.org/2000/svg" viewBox="0 0 24 24">
    <path d="M 12 0 C 8.9426113 0 6.309955 0.29967448 4.7363281 0.73242188 L 5.2675781 2.6601562 C 6.4939513 2.3229037 9.0813887 2 12 2 C 14.920658 2 17.508002 2.3229037 18.734375 2.6601562 L 19.265625 0.73242188 C 17.691998 0.29967448 15.059342 0 12 0 z M 4 4 L 4 19 L 4 23 L 7 23 L 7 22 L 17 22 L 17 23 L 20 23 L 20 19 L 20 4 L 4 4 z M 6 6 L 18 6 L 18 13 L 6 13 L 6 6 z M 12 16 C 12.55 16 13 16.45 13 17 C 13 17.55 12.55 18 12 18 C 11.45 18 11 17.55 11 17 C 11 16.45 11.45 16 12 16 z"/>
</svg>
