<?xml version="1.0"?>
<svg xmlns="http://www.w3.org/2000/svg" viewBox="0 0 24 24">
    <path d="M 12 2 C 8.4698803 2 5.3751076 3.8338555 3.5957031 6.5957031 L 2 5 L 2 10 L 7 10 L 5.0546875 8.0546875 C 6.4299889 5.6361564 9.0193417 4 12 4 C 16.418 4 20 7.582 20 12 C 20 16.418 16.418 20 12 20 C 11.404 20 10.811328 19.934687 10.236328 19.804688 L 9.796875 21.755859 C 10.515875 21.917859 11.257 22 12 22 C 17.523 22 22 17.523 22 12 C 22 6.477 17.523 2 12 2 z M 11.712891 6 L 11.712891 7.078125 C 11.373891 7.121125 9.4765625 7.4775781 9.4765625 9.7675781 C 9.4765625 13.108578 12.935547 12.120609 12.935547 14.349609 C 12.935547 15.465609 12.213406 15.492188 12.066406 15.492188 C 11.932406 15.492188 11.052734 15.563469 11.052734 13.855469 L 9.1621094 13.855469 C 9.1621094 16.747469 11.260266 16.976531 11.572266 17.019531 L 11.572266 18 L 12.574219 18 L 12.574219 17.019531 C 12.912219 16.977531 14.824219 16.663937 14.824219 14.335938 C 14.824219 11.129938 11.366234 11.743344 11.365234 9.7773438 C 11.365234 8.6503437 11.985141 8.6152344 12.119141 8.6152344 C 12.364141 8.6152344 12.947266 8.830125 12.947266 10.203125 L 14.837891 10.203125 C 14.837891 7.576125 13.041703 7.1664687 12.720703 7.1054688 L 12.720703 6 L 11.712891 6 z M 2 12 L 2.0019531 12.158203 C 2.0129531 12.900203 2.1062969 13.639469 2.2792969 14.355469 L 4.2246094 13.888672 C 4.0856094 13.315672 4.0109531 12.721953 4.0019531 12.126953 L 4 12 L 2 12 z M 4.828125 15.552734 L 3.0371094 16.443359 C 3.3671094 17.104359 3.7702813 17.732641 4.2382812 18.306641 L 5.7890625 17.044922 C 5.4150625 16.584922 5.092125 16.082734 4.828125 15.552734 z M 7.0546875 18.289062 L 5.8164062 19.859375 C 6.3994063 20.318375 7.0322188 20.71325 7.6992188 21.03125 L 8.5605469 19.226562 C 8.0265469 18.971562 7.5206875 18.656063 7.0546875 18.289062 z"/>
</svg>
