<?xml version="1.0"?>
<svg xmlns="http://www.w3.org/2000/svg" viewBox="0 0 24 24">
    <path d="M 7 3 A 2 2 0 0 0 5 5 A 2 2 0 0 0 7 7 A 2 2 0 0 0 9 5 A 2 2 0 0 0 7 3 z M 17 3 A 2 2 0 0 0 15 5 A 2 2 0 0 0 17 7 A 2 2 0 0 0 19 5 A 2 2 0 0 0 17 3 z M 7 8 C 4.815 8 3 8.9087969 3 10.216797 L 3 12 L 11 12 L 11 10.216797 C 11 8.9087969 9.185 8 7 8 z M 17 8 C 14.815 8 13 8.9087969 13 10.216797 L 13 12 L 21 12 L 21 10.216797 C 21 8.9087969 19.185 8 17 8 z M 7 14 L 3 18 L 7 22 L 7 19 L 9 19 L 9 17 L 7 17 L 7 14 z M 17 14 L 17 17 L 15 17 L 15 19 L 17 19 L 17 22 L 21 18 L 17 14 z M 11 17 L 11 19 L 13 19 L 13 17 L 11 17 z"/>
</svg>
