<?xml version="1.0"?>
<svg xmlns="http://www.w3.org/2000/svg" viewBox="0 0 24 24">
    <path style="line-height:normal;text-indent:0;text-align:start;text-decoration-line:none;text-decoration-style:solid;text-decoration-color:#000;text-transform:none;block-progression:tb;isolation:auto;mix-blend-mode:normal" d="M 3 3 L 3 5 L 5 5 L 5 3 L 3 3 z M 7 3 L 7 5 L 13 5 L 13 3 L 7 3 z M 15 3 L 15 5 L 17 5 L 17 3 L 15 3 z M 19 3 L 19 5 L 21 5 L 21 3 L 19 3 z M 3 7 L 3 9 L 5 9 L 5 7 L 3 7 z M 7 7 L 7 9 L 13 9 L 13 7 L 7 7 z M 19 7 L 19 9 L 21 9 L 21 7 L 19 7 z M 3 11 L 3 13 L 5 13 L 5 11 L 3 11 z M 7 11 L 7 13 L 13 13 L 13 11 L 7 11 z M 15 11 L 15 13 L 17 13 L 17 11 L 15 11 z M 19 11 L 19 13 L 21 13 L 21 11 L 19 11 z M 3 15 L 3 17 L 5 17 L 5 15 L 3 15 z M 7 15 L 7 17 L 13 17 L 13 15 L 7 15 z M 19 15 L 19 17 L 21 17 L 21 15 L 19 15 z M 3 19 L 3 21 L 5 21 L 5 19 L 3 19 z M 7 19 L 7 21 L 13 21 L 13 19 L 7 19 z M 19 19 L 19 21 L 21 21 L 21 19 L 19 19 z"/>
</svg>
