<?xml version="1.0"?>
<svg xmlns="http://www.w3.org/2000/svg" viewBox="0 0 24 24">
    <path d="M 5 3 L 5 13 L 2 13 L 2 21 L 4 21 L 7 21 L 7 19 L 9 19 L 9 21 L 11 21 L 11 19 L 13 19 L 13 21 L 15 21 L 15 19 L 17 19 L 17 21 L 21 21 L 22 21 L 22 13 L 19 13 L 19 3 L 17 3 C 17 3.552 16.552 4 16 4 C 15.448 4 15 3.552 15 3 L 13 3 C 13 3.552 12.552 4 12 4 C 11.448 4 11 3.552 11 3 L 9 3 C 9 3.552 8.552 4 8 4 C 7.448 4 7 3.552 7 3 L 5 3 z M 7 6 L 17 6 L 17 15 L 7 15 L 7 6 z M 14.050781 8 L 11.5 10.550781 L 9.9492188 9 L 8.5507812 10.400391 L 11.5 13.349609 L 15.449219 9.4003906 L 14.050781 8 z"/>
</svg>
