<?xml version="1.0"?>
<svg xmlns="http://www.w3.org/2000/svg" viewBox="0 0 24 24">
    <path d="M 12 2 C 7.88 2 4.4907344 5.1141875 4.0527344 9.1171875 L 1.5761719 13 L 4 14.021484 L 4 19 L 8 19 L 8 22 L 17 22 L 17 19.240234 C 17 16.486234 17.981266 15.494844 18.822266 14.214844 L 18.583984 13.632812 L 18.466797 13.34375 L 18.177734 13.226562 L 15.998047 12.333984 L 13.888672 14.478516 L 12.486328 15.904297 L 11.060547 14.501953 L 9.6347656 13.099609 L 8.2089844 11.697266 L 9.6113281 10.271484 L 13.210938 6.6113281 L 12.806641 6.2753906 C 12.315641 5.8663906 12.3175 5.1100781 12.8125 4.7050781 L 13.732422 3.9511719 L 14.080078 3.6679688 L 14.033203 3.2363281 L 13.927734 2.2441406 C 13.309734 2.0901406 12.666 2 12 2 z M 18.5 2 L 17.53125 3.1855469 L 16.023438 3.0234375 L 16.185547 4.53125 L 15 5.5 L 15.96875 6.3085938 L 16.144531 6.4824219 L 18.537109 4.0488281 L 19.962891 5.4511719 L 17.558594 7.8964844 L 17.691406 8.03125 L 18.5 9 L 19.46875 7.8144531 L 20.976562 7.9765625 L 20.814453 6.46875 L 22 5.5 L 20.814453 4.53125 L 20.976562 3.0234375 L 19.46875 3.1855469 L 18.5 2 z M 17.558594 7.8964844 L 16.144531 6.4824219 L 11.037109 11.673828 L 12.462891 13.076172 L 17.558594 7.8964844 z M 20.5 10 L 20.064453 11.064453 L 19 11.5 L 20.064453 11.935547 L 20.5 13 L 20.935547 11.935547 L 22 11.5 L 20.935547 11.064453 L 20.5 10 z"/>
</svg>
