<?xml version="1.0"?>
<svg xmlns="http://www.w3.org/2000/svg" viewBox="0 0 24 24">
    <path d="M21.143,10.552l0.894-3.577C21.393,4.612,19.261,3,16.838,3H7.162C4.739,3,2.607,4.612,1.963,6.975l0.985,3.939 C2.284,11.542,2,12.369,2,13v1v7h20v-7v-1C22,12.073,21.672,11.23,21.143,10.552z M7.162,5h9.676c1.368,0,2.588,0.817,3.116,2.06 l-0.552,2.207C18.965,9.102,18.496,9,18,9c-0.12,0-0.23,0-0.35,0.01C16.94,8.38,16,8,15,8c-0.21,0-0.42,0.02-0.62,0.05 C13.58,7.39,12.57,7,11.5,7S9.42,7.39,8.62,8.05C8.42,8.02,8.21,8,8,8C6.642,8,5.439,8.689,4.713,9.727L4.046,7.06 C4.574,5.817,5.794,5,7.162,5z M5.5,12C5.68,12,6,12,6,12c0-1.1,0.9-2,2-2c0.47,0,0.9,0.17,1.24,0.44C9.64,9.59,10.5,9,11.5,9 s1.86,0.59,2.26,1.44C14.1,10.17,14.53,10,15,10c0.87,0,1.61,0.56,1.88,1.34C17.2,11.13,17.59,11,18,11c1.1,0,2,0.9,2,2H4 C4,13,4,12,5.5,12z M13,18c0,0.55-0.45,1-1,1s-1-0.45-1-1v-2c0-0.55,0.45-1,1-1s1,0.45,1,1V18z"/>
</svg>
