<?xml version="1.0"?>
<svg xmlns="http://www.w3.org/2000/svg" viewBox="0 0 24 24">
    <path style="line-height:normal;text-indent:0;text-align:start;text-decoration-line:none;text-decoration-style:solid;text-decoration-color:#000;text-transform:none;block-progression:tb;isolation:auto;mix-blend-mode:normal" d="M 12 2 C 10.14 2 8.5729531 3.276 8.1269531 5 L 8.1210938 5 C 6.6040938 5 5.2819687 6.0711875 5.0429688 7.4921875 C 4.9049688 8.3121875 5.1085156 9.1427812 5.6035156 9.8007812 C 5.3495156 9.9917813 5.1152031 10.214797 4.9082031 10.466797 C 4.1452031 11.395797 3.842125 12.610781 4.078125 13.800781 C 4.447125 15.653781 6.1508594 17 8.1308594 17 L 11 17 L 11 20 L 8 20 L 8 22 L 16 22 L 16 20 L 13 20 L 13 17 L 15.867188 17 C 17.847187 17 19.552922 15.653781 19.919922 13.800781 C 20.155922 12.610781 19.854797 11.395797 19.091797 10.466797 C 18.884797 10.214797 18.650484 9.9917813 18.396484 9.8007812 C 18.891484 9.1437812 19.095031 8.3121875 18.957031 7.4921875 C 18.718031 6.0701875 17.395906 5 15.878906 5 L 15.873047 5 C 15.427047 3.276 13.86 2 12 2 z M 12 9 L 15 11 L 15 15 L 13 15 L 13 13 L 11 13 L 11 15 L 9 15 L 9 11 L 12 9 z" font-weight="400" font-family="sans-serif" white-space="normal" overflow="visible"/>
</svg>
