<?xml version="1.0"?>
<svg xmlns="http://www.w3.org/2000/svg" viewBox="0 0 24 24">
    <path d="M 3 2 L 3 15 L 21 15 L 21 2 L 13 2 L 13 7 L 16 7 L 12 11 L 8 7 L 11 7 L 11 2 L 3 2 z M 3 17 L 3 18 L 4 18 L 4 22 L 5 22 L 5 18 L 6 18 L 6 17 L 3 17 z M 7 17 L 7 22 L 8 22 L 8 20.117188 L 8.9414062 22 L 10.058594 22 L 9.0117188 19.904297 C 9.5877188 19.694297 10 19.148 10 18.5 C 10 17.672 9.328 17 8.5 17 L 8 17 L 7 17 z M 11 17 L 11 22 L 12 22 L 12 17 L 11 17 z M 14.345703 17 L 13 22 L 14.052734 22 L 14.310547 21 L 15.677734 21 L 15.9375 22 L 17 22 L 15.646484 17 L 14.345703 17 z M 18 17 L 18 22 L 21 22 L 21 21 L 19 21 L 19 17 L 18 17 z M 8 18 L 8.5 18 C 8.776 18 9 18.224 9 18.5 C 9 18.776 8.776 19 8.5 19 L 8 19 L 8 18 z M 14.992188 18.353516 L 15.419922 20 L 14.568359 20 L 14.992188 18.353516 z"/>
</svg>
