<?xml version="1.0"?>
<svg xmlns="http://www.w3.org/2000/svg" viewBox="0 0 24 24">
    <path style="line-height:normal;text-indent:0;text-align:start;text-decoration-line:none;text-decoration-style:solid;text-decoration-color:#000;text-transform:none;block-progression:tb;isolation:auto;mix-blend-mode:normal" d="M 14 3 L 14 5 L 16 5 C 16.56503 5 17 5.4349698 17 6 C 17 6.5650302 16.56503 7 16 7 A 1.0001 1.0001 0 0 0 15.824219 7.015625 C 15.821461 7.0161158 15.819163 7.0170865 15.816406 7.0175781 A 1.0001 1.0001 0 0 0 15.767578 7.0292969 C 12.334652 7.6501675 9.8681635 8.9542998 8.109375 10.414062 L 6.4199219 8 L 9 8 L 9 6 L 2 6 L 2 9 L 4 9 L 4 8.0292969 L 6.6503906 11.814453 C 6.4335743 12.0604 6.2261272 12.305574 6.0429688 12.548828 C 5.9104885 12.724776 5.8000827 12.897089 5.6835938 13.070312 C 5.4603233 13.031152 5.2339127 13 5 13 C 2.8027056 13 1 14.802706 1 17 C 1 19.197294 2.8027056 21 5 21 C 7.1972944 21 9 19.197294 9 17 C 9 15.760764 8.4137262 14.661397 7.5195312 13.925781 C 7.5619369 13.867044 7.5959127 13.811336 7.640625 13.751953 C 8.9417366 12.023938 11.213023 10.112679 15.265625 9.1875 L 15.845703 11.509766 C 14.170913 12.320072 13 14.023809 13 16 C 13 18.749579 15.250421 21 18 21 C 20.749579 21 23 18.749579 23 16 C 23 13.250421 20.749579 11 18 11 C 17.9269 11 17.855565 11.00857 17.783203 11.011719 L 17.160156 8.515625 C 18.180916 8.0345491 19 7.1941868 19 6 C 19 4.3550302 17.64497 3 16 3 L 14 3 z M 18.289062 13.029297 C 19.817414 13.174976 21 14.430581 21 16 C 21 17.668699 19.668699 19 18 19 C 16.331301 19 15 17.668699 15 16 C 15 14.946681 15.532832 14.030576 16.34375 13.496094 L 17.029297 16.242188 L 18.970703 15.757812 L 18.289062 13.029297 z M 4.59375 15.041016 C 4.5962439 15.040514 4.599065 15.041508 4.6015625 15.041016 C 4.1504941 16.093984 4.0136719 16.830078 4.0136719 16.830078 L 5.9863281 17.169922 C 5.9863281 17.169922 6.1178564 16.556562 6.5058594 15.6875 C 6.810622 16.037818 7 16.491834 7 17 C 7 18.116414 6.1164141 19 5 19 C 3.8835859 19 3 18.116414 3 17 C 3 16.023138 3.6767159 15.225403 4.59375 15.041016 z" font-weight="400" font-family="sans-serif" white-space="normal" overflow="visible"/>
</svg>
