<?xml version="1.0"?>
<svg xmlns="http://www.w3.org/2000/svg" viewBox="0 0 24 24">
    <path d="M 2 3 L 2 18 L 3.0507812 18 C 3.2958204 19.692046 4.7411114 21 6.5 21 C 8.2588886 21 9.7041796 19.692046 9.9492188 18 L 14.050781 18 C 14.29582 19.692046 15.741111 21 17.5 21 C 19.258889 21 20.70418 19.692046 20.949219 18 L 23.001953 18 L 23.001953 12.310547 L 23.001953 11.5 L 22.613281 10.871094 C 22.588281 10.825094 22.578781 10.775469 22.550781 10.730469 L 22.53125 10.740234 L 19.611328 6 L 17.960938 6 L 14 6 L 14 3 L 2 3 z M 14 8 L 17.960938 8 L 18.517578 8 L 20.851562 11.779297 C 20.951563 11.939297 21.001953 12.120547 21.001953 12.310547 L 21.001953 15 L 21.001953 16 L 20.648438 16 C 20.084435 14.821937 18.891001 14 17.5 14 C 16.108999 14 14.915565 14.821937 14.351562 16 L 14 16 L 14 8 z M 6.5 16 C 7.327 16 8 16.673 8 17.5 C 8 18.327 7.327 19 6.5 19 C 5.673 19 5 18.327 5 17.5 C 5 16.673 5.673 16 6.5 16 z M 17.5 16 C 18.327 16 19 16.673 19 17.5 C 19 18.327 18.327 19 17.5 19 C 16.673 19 16 18.327 16 17.5 C 16 16.673 16.673 16 17.5 16 z"/>
</svg>
