<?xml version="1.0"?>
<svg xmlns="http://www.w3.org/2000/svg" viewBox="0 0 24 24">
    <path style="line-height:normal;text-indent:0;text-align:start;text-decoration-line:none;text-decoration-style:solid;text-decoration-color:#000;text-transform:none;block-progression:tb;isolation:auto;mix-blend-mode:normal" d="M 8.5664062 4.0195312 L 5.0273438 7.2597656 L 3.4863281 5.7285156 L 2.0761719 7.1484375 L 4.9726562 10.021484 L 9.9179688 5.4960938 L 8.5664062 4.0195312 z M 12 7 L 12 9 L 22 9 L 22 7 L 12 7 z M 3.7070312 12.292969 L 2.2929688 13.707031 L 4.5859375 16 L 2.2929688 18.292969 L 3.7070312 19.707031 L 6 17.414062 L 8.2929688 19.707031 L 9.7070312 18.292969 L 7.4140625 16 L 9.7070312 13.707031 L 8.2929688 12.292969 L 6 14.585938 L 3.7070312 12.292969 z M 12 15 L 12 17 L 22 17 L 22 15 L 12 15 z" font-weight="400" font-family="sans-serif" white-space="normal" overflow="visible"/>
</svg>
