<?xml version="1.0"?>
<svg xmlns="http://www.w3.org/2000/svg" viewBox="0 0 24 24">
    <path d="M 13.025391 2 C 11.354391 2 10 3.3543906 10 5.0253906 C 10 7.5003906 15.5 11.900391 15.5 11.900391 C 15.5 11.900391 21 7.5003906 21 5.0253906 C 21 3.3543906 19.645609 2 17.974609 2 C 16.382609 2 15.5 3.1484375 15.5 3.1484375 C 15.5 3.1484375 14.617391 2 13.025391 2 z M 20 12 L 15 17 L 11 17 L 11 16 L 15 16 L 15 13 L 7 13 L 2 18 L 6 22 L 8 20 L 15.171875 20 C 15.701875 20 16.210937 19.789062 16.585938 19.414062 L 22 14 L 20 12 z"/>
</svg>
