<?xml version="1.0"?>
<svg xmlns="http://www.w3.org/2000/svg" viewBox="0 0 24 24">
    <path d="M 7 2 A 2 2 0 0 0 5 4 A 2 2 0 0 0 7 6 A 2 2 0 0 0 9 4 A 2 2 0 0 0 7 2 z M 4.1054688 7 L 2.8828125 18 L 4 18 L 4 22 L 6 22 L 6 18 L 8 18 L 8 22 L 10 22 L 10 18 L 11.117188 18 L 10.994141 16.888672 L 10.117188 9 L 14 9 L 14 7 L 9.8945312 7 L 9 7 L 4.1054688 7 z M 15 7 L 15 9 L 16 9 L 16 11 L 14.132812 11 L 12 11 L 12 13 L 13.847656 13 L 12.847656 20 L 21.152344 20 L 20.152344 13 L 22 13 L 22 11 L 19.867188 11 L 18 11 L 18 7 L 15 7 z"/>
</svg>
