<?xml version="1.0"?>
<svg xmlns="http://www.w3.org/2000/svg" viewBox="0 0 24 24">
    <path d="M 7 2 L 7 4 L 8 4 C 8 6.206 9.794 8 12 8 C 14.206 8 16 6.206 16 4 L 17 4 L 17 2 L 7 2 z M 12 8 L 5 8 L 5 10 L 6.0898438 10 C 6.5678437 12.833 9.032 15 12 15 C 14.968 15 17.431156 12.833 17.910156 10 L 19 10 L 19 8 L 12 8 z M 12 15 L 6 15 L 4 15 L 3 15 L 3 17 L 4.2949219 17 C 5.1579219 19.888 7.836 22 11 22 L 13 22 C 16.165 22 18.842078 19.888 19.705078 17 L 21 17 L 21 15 L 20 15 L 18 15 L 12 15 z"/>
</svg>
