<?xml version="1.0"?>
<svg xmlns="http://www.w3.org/2000/svg" viewBox="0 0 24 24">
    <path d="M 5 3 A 2 2 0 0 0 3 5 A 2 2 0 0 0 4.7617188 6.984375 L 8.3144531 15.275391 C 7.1589657 16.178763 6.3460856 17.493958 6.0917969 19 L 4 19 L 4 21 L 20 21 L 20 19 L 17.908203 19 C 17.653914 17.493958 16.841034 16.178763 15.685547 15.275391 L 19.240234 6.9824219 A 2 2 0 0 0 21 5 A 2 2 0 0 0 19 3 A 2 2 0 0 0 17 5 A 2 2 0 0 0 17.398438 6.1953125 L 13.917969 14.318359 C 13.315129 14.114376 12.670934 14 12 14 C 11.329066 14 10.684871 14.114376 10.082031 14.318359 L 6.6015625 6.1953125 A 2 2 0 0 0 7 5 A 2 2 0 0 0 5 3 z"/>
</svg>
