<?xml version="1.0"?>
<svg xmlns="http://www.w3.org/2000/svg" viewBox="0 0 24 24">
    <path d="M 14.970703 3.0019531 C 14.666703 3.0019531 14.393391 3.05325 14.150391 3.15625 C 13.907391 3.25925 13.701297 3.3982187 13.529297 3.5742188 C 13.358297 3.7512187 13.227719 3.9564063 13.136719 4.1914062 C 13.045719 4.4274062 13 4.6773594 13 4.9433594 L 14.128906 4.9433594 C 14.128906 4.8003594 14.147594 4.668875 14.183594 4.546875 C 14.219594 4.424875 14.272797 4.3184688 14.341797 4.2304688 C 14.410797 4.1424688 14.497609 4.0714844 14.599609 4.0214844 C 14.701609 3.9714844 14.819172 3.9472656 14.951172 3.9472656 C 15.187172 3.9472656 15.369094 4.0238281 15.496094 4.1738281 C 15.623094 4.3248281 15.6875 4.5299688 15.6875 4.7929688 C 15.6875 4.8799687 15.675391 4.9704531 15.650391 5.0644531 C 15.626391 5.1584531 15.585344 5.2591875 15.527344 5.3671875 C 15.468344 5.4751875 15.391875 5.5946094 15.296875 5.7246094 C 15.201875 5.8546094 15.085266 5.9972969 14.947266 6.1542969 L 13.113281 8.1953125 L 13.113281 9 L 17 9 L 17 8.0527344 L 14.5625 8.0527344 L 15.5625 6.9511719 C 15.7515 6.7481719 15.923125 6.5532344 16.078125 6.3652344 C 16.232125 6.1762344 16.365609 5.9906406 16.474609 5.8066406 C 16.583609 5.6226406 16.667562 5.4389062 16.726562 5.2539062 C 16.786563 5.0699063 16.816406 4.8776875 16.816406 4.6796875 C 16.816406 4.4196875 16.776312 4.1855625 16.695312 3.9765625 C 16.614312 3.7685625 16.497797 3.5932188 16.341797 3.4492188 C 16.186797 3.3062187 15.993672 3.1941875 15.763672 3.1171875 C 15.534672 3.0401875 15.269703 3.0019531 14.970703 3.0019531 z M 2 4 L 2 20 L 4 20 L 4 18 L 20 18 L 20 20 L 22 20 L 22 8 L 20 8 L 20 11 L 12 11 L 12 16 L 10 16 L 10 13 L 10 11 C 10 8.8026661 8.1973339 7 6 7 L 4 7 L 4 4 L 2 4 z M 4 9 L 6 9 C 7.1166661 9 8 9.8833339 8 11 L 4 11 L 4 9 z"/>
</svg>
