<?xml version="1.0"?>
<svg xmlns="http://www.w3.org/2000/svg" viewBox="0 0 24 24">
    <path d="M 12 2 C 9.761 2 8.243375 2.7580938 7.359375 3.7460938 C 6.453375 4.7600938 6 6.261 6 8 L 8.375 8 C 8.375 6.625 8.7050312 5.6462813 9.3320312 4.9882812 C 9.9590313 4.3302812 10.849 4 12 4 C 13.126 4 14.01125 4.275125 14.65625 4.828125 C 15.30025 5.381125 15.615234 6.2080156 15.615234 7.1660156 C 15.615234 7.9740156 15.322953 8.964 14.751953 9.5 C 14.701098 9.5477384 14.643797 9.5800376 14.591797 9.625 L 6 9.625 L 6 11.375 L 10.761719 11.375 C 9.8295942 11.671251 8.9181204 12.006538 8.1269531 12.625 L 6 12.625 L 6 14.375 L 6.5214844 14.375 C 6.1747667 15.068156 6 15.879316 6 16.808594 C 6 18.292594 6.4375938 19.488578 7.3085938 20.392578 C 8.1815937 21.296578 9.733 22 12 22 C 14.239 22 15.756625 21.241906 16.640625 20.253906 C 17.546625 19.238906 18 17.739 18 16 L 15.625 16 C 15.625 17.375 15.294969 18.353719 14.667969 19.011719 C 14.040969 19.670719 13.151 20 12 20 C 10.874 20 9.98875 19.724875 9.34375 19.171875 C 8.69975 18.618875 8.3847656 17.791984 8.3847656 16.833984 C 8.3847656 16.025984 8.6770469 15.036 9.2480469 14.5 C 9.2989021 14.452262 9.3562026 14.419962 9.4082031 14.375 L 18 14.375 L 18 12.625 L 13.238281 12.625 C 14.170406 12.328749 15.08188 11.993462 15.873047 11.375 L 18 11.375 L 18 9.625 L 17.478516 9.625 C 17.825233 8.9318442 18 8.1206844 18 7.1914062 C 18 5.7074063 17.562406 4.5114219 16.691406 3.6074219 C 15.818406 2.7034219 14.267 2 12 2 z"/>
</svg>
