<?xml version="1.0"?>
<svg xmlns="http://www.w3.org/2000/svg" viewBox="0 0 24 24">
    <path style="line-height:normal;text-indent:0;text-align:start;text-decoration-line:none;text-decoration-style:solid;text-decoration-color:#000;text-transform:none;block-progression:tb;isolation:auto;mix-blend-mode:normal" d="M 12 2 C 6.4889971 2 2 6.4889971 2 12 C 2 17.511003 6.4889971 22 12 22 C 17.511003 22 22 17.511003 22 12 C 22 6.4889971 17.511003 2 12 2 z M 12 4 C 16.430123 4 20 7.5698774 20 12 C 20 16.430123 16.430123 20 12 20 C 7.5698774 20 4 16.430123 4 12 C 4 7.5698774 7.5698774 4 12 4 z M 12 6 A 6 6 0 0 0 6 12 A 6 6 0 0 0 12 18 A 6 6 0 0 0 18 12 A 6 6 0 0 0 12 6 z" font-weight="400" font-family="sans-serif" white-space="normal" overflow="visible"/>
</svg>
