<?xml version="1.0"?>
<svg xmlns="http://www.w3.org/2000/svg" viewBox="0 0 24 24">
    <path d="M 2 2 L 2 6 L 3 6 L 3 13 L 2 13 L 2 17 L 6 17 L 6 16 L 8 16 L 8 18 L 7 18 L 7 22 L 11 22 L 11 21 L 18 21 L 18 22 L 22 22 L 22 18 L 21 18 L 21 11 L 22 11 L 22 7 L 18 7 L 18 8 L 16 8 L 16 6 L 17 6 L 17 2 L 13 2 L 13 3 L 6 3 L 6 2 L 2 2 z M 6 5 L 13 5 L 13 6 L 14 6 L 14 13 L 13 13 L 13 14 L 6 14 L 6 13 L 5 13 L 5 6 L 6 6 L 6 5 z M 16 10 L 18 10 L 18 11 L 19 11 L 19 18 L 18 18 L 18 19 L 11 19 L 11 18 L 10 18 L 10 16 L 13 16 L 13 17 L 17 17 L 17 13 L 16 13 L 16 10 z"/>
</svg>
