<?xml version="1.0"?>
<svg xmlns="http://www.w3.org/2000/svg" viewBox="0 0 24 24">
    <path d="M 12 3 A 2 2 0 0 0 10 5 A 2 2 0 0 0 11 6.7304688 L 11 10 L 10 10 C 8.9069372 10 8 10.906937 8 12 L 8 17.271484 A 2 2 0 0 0 7 19 A 2 2 0 0 0 9 21 A 2 2 0 0 0 11 19 A 2 2 0 0 0 10 17.269531 L 10 12 L 11 12 C 12.093063 12 13 11.093063 13 10 L 13 6.7285156 A 2 2 0 0 0 14 5 A 2 2 0 0 0 12 3 z M 3 17 A 2 2 0 0 0 1 19 A 2 2 0 0 0 3 21 A 2 2 0 0 0 5 19 A 2 2 0 0 0 3 17 z M 15 17 A 2 2 0 0 0 13 19 A 2 2 0 0 0 15 21 A 2 2 0 0 0 17 19 A 2 2 0 0 0 15 17 z M 21 17 A 2 2 0 0 0 19 19 A 2 2 0 0 0 21 21 A 2 2 0 0 0 23 19 A 2 2 0 0 0 21 17 z"/>
</svg>
