<?xml version="1.0"?>
<svg xmlns="http://www.w3.org/2000/svg" viewBox="0 0 24 24">
    <path style="line-height:normal;text-indent:0;text-align:start;text-decoration-line:none;text-decoration-style:solid;text-decoration-color:#000;text-transform:none;block-progression:tb;isolation:auto;mix-blend-mode:normal" d="M 3 3 L 3 4 L 3 9 L 5 9 L 5 15 L 3 15 L 3 21 L 9 21 L 9 19 L 15 19 L 15 21 L 21 21 L 21 15 L 19 15 L 19 9 L 21 9 L 21 3 L 15 3 L 15 4 L 15 5 L 9 5 L 9 3 L 3 3 z M 5 5 L 7 5 L 7 7 L 5 7 L 5 5 z M 17 5 L 19 5 L 19 7 L 17 7 L 17 5 z M 9 7 L 15 7 L 15 9 L 17 9 L 17 15 L 15 15 L 15 16 L 15 17 L 9 17 L 9 15 L 7 15 L 7 9 L 9 9 L 9 7 z M 17 17 L 19 17 L 19 19 L 17 19 L 17 17 z"/>
</svg>
