<?xml version="1.0"?>
<svg xmlns="http://www.w3.org/2000/svg" viewBox="0 0 24 24">
    <path d="M 12 6 A 1 1 0 0 0 11 7 A 1 1 0 0 0 12 8 A 1 1 0 0 0 13 7 A 1 1 0 0 0 12 6 z M 12 10 A 2 2 0 0 0 10 12 A 2 2 0 0 0 12 14 A 2 2 0 0 0 14 12 A 2 2 0 0 0 12 10 z M 3 11 A 1 1 0 0 0 2 12 A 1 1 0 0 0 3 13 A 1 1 0 0 0 4 12 A 1 1 0 0 0 3 11 z M 7 11 A 1 1 0 0 0 6 12 A 1 1 0 0 0 7 13 A 1 1 0 0 0 8 12 A 1 1 0 0 0 7 11 z M 17 11 A 1 1 0 0 0 16 12 A 1 1 0 0 0 17 13 A 1 1 0 0 0 18 12 A 1 1 0 0 0 17 11 z M 21 11 A 1 1 0 0 0 20 12 A 1 1 0 0 0 21 13 A 1 1 0 0 0 22 12 A 1 1 0 0 0 21 11 z M 12 16 A 1 1 0 0 0 11 17 A 1 1 0 0 0 12 18 A 1 1 0 0 0 13 17 A 1 1 0 0 0 12 16 z"/>
</svg>
