<?xml version="1.0"?>
<svg xmlns="http://www.w3.org/2000/svg" viewBox="0 0 24 24">
    <path style="line-height:normal;text-indent:0;text-align:start;text-decoration-line:none;text-decoration-style:solid;text-decoration-color:#000;text-transform:none;block-progression:tb;isolation:auto;mix-blend-mode:normal" d="M 12 1 C 9.1277778 1 6.7189086 3.0461453 6.1230469 5.7871094 L 8.078125 6.2128906 C 8.4822632 4.3538547 10.072222 3 12 3 C 14.27619 3 16 4.7238095 16 7 L 16 8 L 4 8 L 4 22 L 20 22 L 20 8 L 18 8 L 18 7 C 18 3.6761905 15.32381 1 12 1 z M 12 13 C 13.1 13 14 13.9 14 15 C 14 16.1 13.1 17 12 17 C 10.9 17 10 16.1 10 15 C 10 13.9 10.9 13 12 13 z" font-weight="400" font-family="sans-serif" white-space="normal" overflow="visible"/>
</svg>
