<?xml version="1.0"?>
<svg xmlns="http://www.w3.org/2000/svg" viewBox="0 0 24 24">
    <path d="M 3.7070312 2.2929688 L 2.2929688 3.7070312 L 8.3730469 9.7871094 L 7.1835938 10.769531 L 5.7070312 9.2929688 L 4.2929688 10.707031 L 8.09375 14.507812 L 3 19.599609 L 3 21 L 4.4003906 21 L 9.4921875 15.90625 L 13.292969 19.707031 L 14.707031 18.292969 L 13.318359 16.904297 L 14.287109 15.701172 L 20.292969 21.707031 L 21.707031 20.292969 L 15.548828 14.134766 L 15.558594 14.123047 L 9.9355469 8.5019531 L 9.9257812 8.5117188 L 3.7070312 2.2929688 z M 14.707031 2.2929688 L 13.292969 3.7070312 L 14.40625 4.8203125 L 11.486328 7.2246094 L 16.820312 12.558594 L 19.195312 9.609375 L 20.292969 10.707031 L 21.707031 9.2929688 L 14.707031 2.2929688 z"/>
</svg>
