<?xml version="1.0"?>
<svg xmlns="http://www.w3.org/2000/svg" viewBox="0 0 24 24">
    <path d="M 7.9980469 3 L 7 6 L 2.0019531 6 C 2.0019531 6 2 6.0019531 2 6.0019531 L 2 20.998047 C 2 20.998047 2.0019531 21 2.0019531 21 L 21.998047 21 C 21.998047 21 22 20.998047 22 20.998047 L 22 6.0019531 C 22 6.0019531 21.998047 6 21.998047 6 L 17 6 L 16.001953 3 L 7.9980469 3 z M 12.320312 9.0136719 C 13.056932 9.0711663 13.829797 9.3297656 14.591797 9.8378906 C 14.816797 9.9868906 15.016016 10.185156 15.166016 10.410156 C 17.873016 14.477156 13.472203 18.874062 9.4082031 16.164062 C 9.1832031 16.014063 8.9839844 15.814844 8.8339844 15.589844 C 6.6345469 12.285406 9.1282952 8.7645295 12.320312 9.0136719 z M 12 11 A 2 2 0 0 0 10 13 A 2 2 0 0 0 12 15 A 2 2 0 0 0 14 13 A 2 2 0 0 0 12 11 z"/>
</svg>
