<?xml version="1.0"?>
<svg xmlns="http://www.w3.org/2000/svg" viewBox="0 0 24 24">
    <path d="M20.659,12L22,7.858l-3.877-1.981L16.142,2L12,3.341L7.858,2L5.877,5.877L2,7.858L3.341,12L2,16.142l3.877,1.981L7.858,22 c0,0,0,0,0,0L12,20.659L16.142,22c0,0,0,0,0,0l1.981-3.877L22,16.142L20.659,12z M13,18h-2v-2h2V18z M14.026,13.588 C13.371,14.177,13,14.532,13,15h-2c0-1.383,0.937-2.224,1.69-2.9C13.502,11.371,14,10.879,14,10c0-0.773-0.543-2-2-2 c-1.398,0-2,1.518-2,2H8c0-1.436,1.337-4,4-4c2.504,0,4,2.034,4,4C16,11.816,14.859,12.841,14.026,13.588z"/>
</svg>
