<?xml version="1.0"?>
<svg xmlns="http://www.w3.org/2000/svg" viewBox="0 0 24 24">
    <path d="M 2 4 L 2 20 L 11 20 L 11 16 L 8 16 L 12 12 L 16 16 L 13 16 L 13 20 L 22 20 L 22 15 C 21.659 15 21.321234 14.978453 20.990234 14.939453 C 17.152234 14.510453 14.053562 11.67075 13.226562 7.96875 C 13.158563 7.66375 13.102453 7.3540625 13.064453 7.0390625 C 13.063453 7.0300625 13.061547 7.0226719 13.060547 7.0136719 C 13.020547 6.6806719 13 6.343 13 6 L 12 6 L 10 4 L 2 4 z M 15 6 C 15 9.8543339 18.145666 13 22 13 L 22 11 C 19.226334 11 17 8.7736661 17 6 L 15 6 z M 19 6 C 19 7.6449698 20.35503 9 22 9 L 22 7 C 21.43497 7 21 6.5650302 21 6 L 19 6 z"/>
</svg>
