<?xml version="1.0"?>
<svg xmlns="http://www.w3.org/2000/svg" viewBox="0 0 24 24">
    <path d="M 3 3 L 3 21 L 9.4355469 21 L 10.601562 19 L 5 19 L 5 8 L 19 8 L 19 11.458984 L 21 14.888672 L 21 3 L 3 3 z M 7 11 L 7 13 L 9 13 L 9 11 L 7 11 z M 11 11 L 11 13 L 14.101562 13 L 15.267578 11 L 11 11 z M 17 12 L 10 24 L 24 24 L 17 12 z M 7 15 L 7 17 L 9 17 L 9 15 L 7 15 z M 11 15 L 11 17 L 11.767578 17 L 12.935547 15 L 11 15 z M 16 16 L 18 16 L 18 20 L 16 20 L 16 16 z M 16 21 L 18 21 L 18 23 L 16 23 L 16 21 z"/>
</svg>
