<?xml version="1.0"?>
<svg xmlns="http://www.w3.org/2000/svg" viewBox="0 0 24 24">
    <path d="M 5 3 C 3.346 3 2 4.346 2 6 L 2 21 L 11 21 L 11 18 L 6 18 L 6 16 L 11 16 L 11 14 L 6 14 L 6 12 L 14 12 L 14 14 L 18 14 L 18 6 C 18 5.449 18.448 5 19 5 C 19.56503 5 20 5.4349698 20 6 L 20 10 L 22 10 L 22 6 C 22 4.3550302 20.64497 3 19 3 L 5 3 z M 6 6 L 14 6 L 14 9 L 6 9 L 6 6 z M 13 16 L 13 21.5 C 13 22.869063 14.130937 24 15.5 24 C 16.869063 24 18 22.869063 18 21.5 L 18 16 L 16 16 L 16 21.5 C 16 21.786937 15.786937 22 15.5 22 C 15.213063 22 15 21.786937 15 21.5 L 15 16 L 13 16 z M 21.5 16 C 20.121 16 19 17.121 19 18.5 C 19 19.879 20.121 21 21.5 21 C 21.775 21 22 21.225 22 21.5 C 22 21.775 21.775 22 21.5 22 L 19 22 L 19 24 L 21.5 24 C 22.879 24 24 22.879 24 21.5 C 24 20.121 22.879 19 21.5 19 C 21.225 19 21 18.775 21 18.5 C 21 18.225 21.225 18 21.5 18 L 23 18 L 23 16 L 21.5 16 z"/>
</svg>
