<?xml version="1.0"?>
<svg xmlns="http://www.w3.org/2000/svg" viewBox="0 0 24 24">
    <path style="line-height:normal;text-indent:0;text-align:start;text-decoration-line:none;text-decoration-style:solid;text-decoration-color:#000;text-transform:none;block-progression:tb;isolation:auto;mix-blend-mode:normal" d="M 6 2 L 6 3 L 6 10 L 4 10 L 4 20 L 11 20 L 11 22 L 13 22 L 13 20 L 20 20 L 20 10 L 18 10 L 18 2 L 6 2 z M 8 4 L 16 4 L 16 10 L 8 10 L 8 4 z M 9 5 L 9 7 L 11 7 L 11 5 L 9 5 z M 13 5 L 13 7 L 15 7 L 15 5 L 13 5 z M 12 14 C 12.552 14 13 14.448 13 15 C 13 15.552 12.552 16 12 16 C 11.448 16 11 15.552 11 15 C 11 14.448 11.448 14 12 14 z" font-weight="400" font-family="sans-serif" white-space="normal" overflow="visible"/>
</svg>
