<?xml version="1.0"?>
<svg xmlns="http://www.w3.org/2000/svg" viewBox="0 0 24 24">
    <path style="line-height:normal;text-indent:0;text-align:start;text-decoration-line:none;text-decoration-style:solid;text-decoration-color:#000;text-transform:none;block-progression:tb;isolation:auto;mix-blend-mode:normal" d="M 5 2 L 5 3 L 5 10 L 3 10 L 3 20 L 10 20 L 10 22 L 12 22 L 12 20 L 12 19 C 12 15.134 15.134 12 19 12 L 19 10 L 17 10 L 17 2 L 5 2 z M 7 4 L 15 4 L 15 10 L 7 10 L 7 4 z M 8 5 L 8 7 L 10 7 L 10 5 L 8 5 z M 12 5 L 12 7 L 14 7 L 14 5 L 12 5 z M 11 14 C 11.552 14 12 14.448 12 15 C 12 15.552 11.552 16 11 16 C 10.448 16 10 15.552 10 15 C 10 14.448 10.448 14 11 14 z M 19 14 C 16.239 14 14 16.239 14 19 C 14 21.761 16.239 24 19 24 C 21.761 24 24 21.761 24 19 C 24 16.239 21.761 14 19 14 z M 21.050781 16.650391 L 22.449219 18.050781 L 18.5 22 L 15.550781 19.050781 L 16.949219 17.650391 L 18.5 19.199219 L 21.050781 16.650391 z" font-weight="400" font-family="sans-serif" white-space="normal" overflow="visible"/>
</svg>
