<?xml version="1.0"?>
<svg xmlns="http://www.w3.org/2000/svg" viewBox="0 0 24 24">
    <path style="line-height:normal;text-indent:0;text-align:start;text-decoration-line:none;text-decoration-style:solid;text-decoration-color:#000;text-transform:none;block-progression:tb;isolation:auto;mix-blend-mode:normal" d="M 5 2 L 5 3 L 5 10 L 3 10 L 3 20 L 10 20 L 10 22 L 12 22 L 12 20 L 12 19 C 12 15.134 15.134 12 19 12 L 19 10 L 17 10 L 17 2 L 5 2 z M 7 4 L 15 4 L 15 10 L 7 10 L 7 4 z M 8 5 L 8 7 L 10 7 L 10 5 L 8 5 z M 12 5 L 12 7 L 14 7 L 14 5 L 12 5 z M 11 14 C 11.552 14 12 14.448 12 15 C 12 15.552 11.552 16 11 16 C 10.448 16 10 15.552 10 15 C 10 14.448 10.448 14 11 14 z M 19.007812 14.019531 C 17.627813 14.019531 16.378609 14.572563 15.474609 15.476562 C 14.570609 16.380562 14.017578 17.629766 14.017578 19.009766 C 14.017578 21.769766 16.249766 24 19.009766 24 C 21.769766 24 24 21.770766 24 19.009766 C 23.999 16.252766 21.767813 14.020531 19.007812 14.019531 z M 17.601562 16.179688 L 19.015625 17.59375 L 20.429688 16.179688 L 21.84375 17.59375 L 20.429688 19.007812 L 21.84375 20.421875 L 20.429688 21.835938 L 19.015625 20.421875 L 17.601562 21.835938 L 16.1875 20.421875 L 17.601562 19.007812 L 16.1875 17.59375 L 17.601562 16.179688 z" font-weight="400" font-family="sans-serif" white-space="normal" overflow="visible"/>
</svg>
