<?xml version="1.0"?>
<svg xmlns="http://www.w3.org/2000/svg" viewBox="0 0 24 24">
    <path d="M 8 5 A 3 3 0 0 0 5 8 A 3 3 0 0 0 8 11 A 3 3 0 0 0 11 8 A 3 3 0 0 0 8 5 z M 16 5 A 3 3 0 0 0 13 8 A 3 3 0 0 0 16 11 A 3 3 0 0 0 19 8 A 3 3 0 0 0 16 5 z M 8 13 C 3.586 13 1 15.732422 1 15.732422 L 1 19 L 15 19 L 15 15.732422 C 15 15.732422 12.414 13 8 13 z M 16 13 C 15.599 13 15.219609 13.029312 14.849609 13.070312 C 15.840609 13.727313 16.400125 14.301422 16.453125 14.357422 L 17 14.935547 L 17 19 L 23 19 L 23 15.732422 C 23 15.732422 20.414 13 16 13 z"/>
</svg>
