<?xml version="1.0"?>
<svg xmlns="http://www.w3.org/2000/svg" viewBox="0 0 24 24">
    <path d="M 8 6 A 3 3 0 0 0 5 9 A 3 3 0 0 0 8 12 A 3 3 0 0 0 11 9 A 3 3 0 0 0 8 6 z M 12.59375 7 C 12.85375 7.61 13 8.284 13 9 L 22 9 L 22 7 L 12.59375 7 z M 3.7636719 10.001953 C 3.3255313 10.018781 2.3722031 10.131703 1.7519531 10.751953 C 0.92495313 11.578953 1.0019531 12.998047 1.0019531 12.998047 C 1.0019531 12.998047 2.4210469 13.075047 3.2480469 12.248047 C 4.0750469 11.421047 3.9980469 10.001953 3.9980469 10.001953 C 3.9980469 10.001953 3.9097188 9.9963437 3.7636719 10.001953 z M 12.589844 11 C 12.345844 11.569 12.005078 12.084578 11.580078 12.517578 C 12.021078 12.652578 12.425453 12.819 12.814453 13 L 22 13 L 22 11 L 12.589844 11 z M 8 14 C 4.722 14 2 15.429 2 17 L 2 18 L 14 18 L 14 17 C 14 15.429 11.278 14 8 14 z M 15.345703 15 C 15.762703 15.61 16 16.284 16 17 L 22 17 L 22 15 L 15.345703 15 z"/>
</svg>
