<?xml version="1.0"?>
<svg xmlns="http://www.w3.org/2000/svg" viewBox="0 0 24 24">
    <path d="M12,2C6.477,2,2,6.477,2,12s4.477,10,10,10s10-4.477,10-10S17.523,2,12,2z M12,4.75c1.795,0,3.25,1.455,3.25,3.25 c0,1.795-1.455,3.25-3.25,3.25S8.75,9.795,8.75,8C8.75,6.205,10.205,4.75,12,4.75z M12,20c-2.77,0-5.21-1.408-6.646-3.547 C6.475,14.823,10.046,14,12,14s5.525,0.823,6.646,2.453C17.21,18.592,14.77,20,12,20z M18.999,12.998c0,0-1.42,0.078-2.248-0.749 s-0.749-2.248-0.749-2.248s1.42-0.078,2.248,0.749S18.999,12.998,18.999,12.998z"/>
</svg>
