<?xml version="1.0"?>
<svg xmlns="http://www.w3.org/2000/svg" viewBox="0 0 24 24">
    <path d="M 7.5957031 3.0078125 C 6.761084 3.0701074 5.9644531 3.5028906 5.4707031 4.2441406 C 5.0417031 4.8871406 4.8962187 5.6874531 5.0742188 6.4394531 C 5.2522187 7.1914531 5.7391562 7.8435625 6.4101562 8.2265625 L 11.404297 9.96875 L 10.304688 11.791016 C 9.8330998 11.564565 9.342428 11.362219 8.8242188 11.203125 C 8.6462187 11.149125 8.2757969 11.084594 8.0917969 11.058594 C 6.4427969 10.825594 4.8273906 11.2865 3.6503906 12.3125 C 2.5863906 13.2375 2 14.535844 2 15.964844 L 2 17 C 2 19.209 3.791 21 6 21 L 11.560547 21 C 12.995547 21 14.282781 20.116266 14.800781 18.697266 C 15.173781 17.671266 14.959734 16.544797 14.427734 15.591797 C 13.827741 14.516874 13.007681 13.587697 12.017578 12.832031 L 13.140625 10.960938 C 13.447625 10.423937 13.490813 9.7868438 13.257812 9.2148438 C 13.024812 8.6418437 12.548859 8.2165 12.005859 8.0625 L 7.3378906 6.4492188 C 7.1778906 6.3372187 7.0674844 6.1744688 7.0214844 5.9804688 C 6.9704844 5.7624687 7.0107656 5.5405156 7.1347656 5.3535156 C 7.3667656 5.0065156 7.8343125 4.8985156 8.1953125 5.1035156 L 13.800781 6.8808594 C 13.982781 7.0088594 14.117594 7.19225 14.183594 7.40625 L 18.107422 20.291016 C 18.235422 20.712016 18.624453 21 19.064453 21 L 22 21 L 22 19 L 19.742188 19 L 16.09375 6.8203125 C 15.86875 6.0893125 15.380797 5.4766563 14.716797 5.0976562 L 9.0800781 3.3085938 C 8.6094531 3.0659687 8.0964746 2.9704355 7.5957031 3.0078125 z M 6 15 C 7.105 15 8 15.895 8 17 C 8 18.105 7.105 19 6 19 C 4.895 19 4 18.105 4 17 C 4 15.895 4.895 15 6 15 z"/>
</svg>
