<?xml version="1.0"?>
<svg xmlns="http://www.w3.org/2000/svg" viewBox="0 0 24 24">
    <path d="M 8.4277344 2.1816406 C 8.2467344 2.3086406 4 5.355 4 12 C 4 18.645 8.2467344 21.691359 8.4277344 21.818359 L 9.5722656 20.179688 C 9.5372656 20.154687 6 17.614 6 12 C 6 6.437 9.4312656 3.9203594 9.5722656 3.8183594 L 8.4277344 2.1816406 z M 15.572266 2.1816406 L 14.427734 3.8203125 C 14.462734 3.8453125 18 6.386 18 12 C 18 17.563 14.568734 20.079641 14.427734 20.181641 L 15.572266 21.820312 C 15.753266 21.692313 20 18.645 20 12 C 20 5.355 15.753266 2.3086406 15.572266 2.1816406 z M 12 4.8164062 L 11.464844 5.1542969 C 11.322844 5.2442969 8 7.403 8 12 C 8 16.597 11.322844 18.755703 11.464844 18.845703 L 12 19.183594 L 12.535156 18.845703 C 12.677156 18.755703 16 16.597 16 12 C 16 7.403 12.677156 5.2442969 12.535156 5.1542969 L 12 4.8164062 z M 12 7.2773438 C 12.747 7.9733437 14 9.513 14 12 C 14 12.749 13.878219 13.402422 13.699219 13.982422 C 13.691219 11.196422 12 10 12 10 C 12 10 10.308781 11.196422 10.300781 13.982422 C 10.121781 13.402422 10 12.749 10 12 C 10 9.513 11.255 7.9733438 12 7.2773438 z"/>
</svg>
