<?xml version="1.0"?>
<svg xmlns="http://www.w3.org/2000/svg" viewBox="0 0 24 24">
    <path d="M 2 3 L 2 18 L 4.0507812 18 C 4.2958204 19.692046 5.7411114 21 7.5 21 C 9.2588886 21 10.70418 19.692046 10.949219 18 L 13.050781 18 C 13.29582 19.692046 14.741111 21 16.5 21 C 18.258889 21 19.70418 19.692046 19.949219 18 L 22 18 L 22 11.740234 L 22 10.65625 L 15.464844 3 L 14.080078 3 L 2 3 z M 12 5 L 14.539062 5 L 19.679688 11 L 12 11 L 12 5 z M 7.5 16 C 8.327 16 9 16.673 9 17.5 C 9 18.327 8.327 19 7.5 19 C 6.673 19 6 18.327 6 17.5 C 6 16.673 6.673 16 7.5 16 z M 16.5 16 C 17.327 16 18 16.673 18 17.5 C 18 18.327 17.327 19 16.5 19 C 15.673 19 15 18.327 15 17.5 C 15 16.673 15.673 16 16.5 16 z"/>
</svg>
