<?xml version="1.0"?>
<svg xmlns="http://www.w3.org/2000/svg" viewBox="0 0 24 24">
    <path d="M 7 3 C 4.8027056 3 3 4.8027056 3 7 C 3 9.1972944 4.8027056 11 7 11 C 9.1972944 11 11 9.1972944 11 7 C 11 4.8027056 9.1972944 3 7 3 z M 17 3 C 14.802706 3 13 4.8027056 13 7 C 13 9.1972944 14.802706 11 17 11 C 19.197294 11 21 9.1972944 21 7 C 21 4.8027056 19.197294 3 17 3 z M 7 5 C 8.1164141 5 9 5.8835859 9 7 C 9 8.1164141 8.1164141 9 7 9 C 5.8835859 9 5 8.1164141 5 7 C 5 5.8835859 5.8835859 5 7 5 z M 17 5 L 17 9 C 15.883586 9 15 8.1164141 15 7 C 15 5.8835859 15.883586 5 17 5 z M 7 13 A 4 4 0 0 0 3 17 A 4 4 0 0 0 7 21 A 4 4 0 0 0 11 17 A 4 4 0 0 0 7 13 z M 17 13 C 14.794 13 13 14.794 13 17 C 13 19.206 14.794 21 17 21 C 19.206 21 21 19.206 21 17 C 21 14.794 19.206 13 17 13 z M 17 16 C 17.551 16 18 16.449 18 17 C 18 17.551 17.551 18 17 18 C 16.449 18 16 17.551 16 17 C 16 16.449 16.449 16 17 16 z"/>
</svg>
