<?xml version="1.0"?>
<svg xmlns="http://www.w3.org/2000/svg" viewBox="0 0 24 24">
    <path style="line-height:normal;text-indent:0;text-align:start;text-decoration-line:none;text-decoration-style:solid;text-decoration-color:#000;text-transform:none;block-progression:tb;isolation:auto;mix-blend-mode:normal" d="M 3 3 L 3 21 L 4 21 L 21 21 L 21 3 L 3 3 z M 5 8 L 19 8 L 19 19 L 5 19 L 5 8 z M 6.3535156 11 C 6.3535156 11 6 12 6 14 C 6 16 6.3535156 17 6.3535156 17 L 8 17 C 8 17 7.6464844 16 7.6464844 14 C 7.6464844 12 8 11 8 11 L 6.3535156 11 z M 9.5 11 L 11.150391 14 L 9.5 17 L 11.199219 17 L 12 15.544922 L 12.800781 17 L 14.5 17 L 12.849609 14 L 14.5 11 L 12.800781 11 L 12 12.455078 L 11.199219 11 L 9.5 11 z M 16 11 C 16 11 16.353516 12 16.353516 14 C 16.353516 16 16 17 16 17 L 17.646484 17 C 17.646484 17 18 16 18 14 C 18 12 17.646484 11 17.646484 11 L 16 11 z" font-weight="400" font-family="sans-serif" white-space="normal" overflow="visible"/>
</svg>
