<?xml version="1.0"?>
<svg xmlns="http://www.w3.org/2000/svg" viewBox="0 0 24 24">
    <path d="M 9 4 L 9 6 L 4.7285156 6 A 2 2 0 0 0 3 5 A 2 2 0 0 0 1 7 A 2 2 0 0 0 3 9 A 2 2 0 0 0 4.7304688 8 L 7.1171875 8 C 5.8146251 9.2732265 5 11.042116 5 13 L 5 14 L 3 14 L 3 20 L 9 20 L 9 14 L 7 14 L 7 13 C 7 11.359113 7.7877317 9.9105639 9 9 L 9 10 L 15 10 L 15 9 C 16.212268 9.9105639 17 11.359113 17 13 L 17 14 L 15 14 L 15 20 L 21 20 L 21 14 L 19 14 L 19 13 C 19 11.042116 18.185375 9.2732265 16.882812 8 L 19.271484 8 A 2 2 0 0 0 21 9 A 2 2 0 0 0 23 7 A 2 2 0 0 0 21 5 A 2 2 0 0 0 19.269531 6 L 15 6 L 15 4 L 9 4 z"/>
</svg>
