<?xml version="1.0"?>
<svg xmlns="http://www.w3.org/2000/svg" viewBox="0 0 24 24">
    <path d="M17.023,2.339l-0.385-0.437l-0.569,0.118C15.711,2.096,7.267,3.898,3.925,8.905C3.11,10.275,3,11.522,3,12.563 c0,2.511,1.634,4.671,3.554,5.734c-0.949,0.76-1.938,1.38-2.925,1.774l0.742,1.857c5.353-2.141,10.606-9.522,10.622-14.915L15,7 c0,8-3,12-3,12c0.009,0.007,0.016,0.011,0.024,0.018l-0.783,0.825c1.191,1.129,2.515,1.149,3.068,1.156 c3.385-0.135,6.766-2.857,6.689-8.636C20.963,9.66,19.899,5.607,17.023,2.339z"/>
</svg>
