<?xml version="1.0"?>
<svg xmlns="http://www.w3.org/2000/svg" viewBox="0 0 24 24">
    <path style="line-height:normal;text-indent:0;text-align:start;text-decoration-line:none;text-decoration-style:solid;text-decoration-color:#000;text-transform:none;block-progression:tb;isolation:auto;mix-blend-mode:normal" d="M 11 3 L 11 5 L 12.310547 5 C 11.903547 5.832 11.450937 6.9293906 11.210938 8.1503906 C 12.130937 8.3403906 13.009062 8.7290625 13.789062 9.2890625 C 15.829062 10.749062 17 13.19 17 16 C 17 18.39 15.879375 20.54 14.109375 22 L 19 22 C 20.1 22 21 21.1 21 20 L 21 10 C 21 8.096 20.300406 6.245 19.691406 5 L 21 5 L 21 3 L 19 3 L 13 3 L 11 3 z M 6.6113281 6.2089844 L 5.3886719 7.7910156 C 5.3886719 7.7910156 6.4480304 8.6611571 6.84375 10.015625 C 5.9416963 10.076712 5.073235 10.38515 4.3242188 10.927734 C 2.8472187 11.996734 2 13.842141 2 15.994141 C 2 19.305141 4.916 22 8.5 22 C 12.084 22 15 19.305141 15 15.994141 C 15 13.844141 14.134953 11.992109 12.626953 10.912109 C 11.539025 10.1336 10.221788 9.8521087 8.9199219 10.087891 C 8.5141563 7.6436808 6.6113281 6.2089844 6.6113281 6.2089844 z" font-weight="400" font-family="sans-serif" white-space="normal" overflow="visible"/>
</svg>
