<?xml version="1.0"?>
<svg xmlns="http://www.w3.org/2000/svg" viewBox="0 0 24 24">
    <path style="line-height:normal;text-indent:0;text-align:start;text-decoration-line:none;text-decoration-style:solid;text-decoration-color:#000;text-transform:none;block-progression:tb;isolation:auto;mix-blend-mode:normal" d="M 8.5 3 C 4.9219938 3 2 5.9219938 2 9.5 C 2 11.989258 3.4149303 14.158812 5.4804688 15.25 C 5.4772456 15.333487 5.46875 15.415751 5.46875 15.5 C 5.46875 19.081151 8.4074468 22 12 22 C 15.592553 22 18.53125 19.081151 18.53125 15.5 C 18.53125 15.415751 18.522754 15.333487 18.519531 15.25 C 20.58507 14.158812 22 11.989258 22 9.5 C 22 5.9219938 19.078006 3 15.5 3 C 14.212032 3 13.012266 3.3836029 12 4.0351562 C 10.987734 3.3836029 9.7879684 3 8.5 3 z M 8.5 5 C 9.1960553 5 9.8450627 5.1687025 10.431641 5.4472656 C 9.5387454 6.5606606 9 7.9685854 9 9.5 C 9 9.5778428 9.008976 9.6532703 9.0117188 9.7304688 C 7.5978257 10.46012 6.4858034 11.686125 5.9082031 13.177734 C 4.7540007 12.365499 4 11.027993 4 9.5 C 4 7.002874 6.002874 5 8.5 5 z M 15.5 5 C 17.997126 5 20 7.002874 20 9.5 C 20 11.027993 19.245999 12.365499 18.091797 13.177734 C 17.514197 11.686125 16.402174 10.46012 14.988281 9.7304688 C 14.991024 9.6532703 15 9.5778428 15 9.5 C 15 7.9685854 14.461255 6.5606606 13.568359 5.4472656 C 14.154937 5.1687025 14.803945 5 15.5 5 z M 12 6.6953125 C 12.533003 7.360878 12.872934 8.1763007 12.957031 9.078125 C 12.643862 9.0318495 12.325613 9 12 9 C 11.674387 9 11.356138 9.0318495 11.042969 9.078125 C 11.127066 8.1763007 11.466997 7.360878 12 6.6953125 z M 12 11 C 12.241741 11 12.473975 11.034675 12.705078 11.070312 C 12.537004 11.523442 12.296076 11.934974 12 12.304688 C 11.703924 11.934974 11.462996 11.523442 11.294922 11.070312 C 11.526025 11.034675 11.758259 11 12 11 z M 9.4257812 11.792969 C 9.6692784 12.433694 10.00952 13.026372 10.431641 13.552734 C 9.8450627 13.831298 9.1960553 14 8.5 14 C 8.2481388 14 8.0058824 13.964983 7.765625 13.925781 C 8.0913869 13.055108 8.6685387 12.31081 9.4257812 11.792969 z M 14.574219 11.792969 C 15.331461 12.31081 15.908613 13.055108 16.234375 13.925781 C 15.994118 13.964983 15.751861 14 15.5 14 C 14.803945 14 14.154937 13.831298 13.568359 13.552734 C 13.99048 13.026372 14.330722 12.433694 14.574219 11.792969 z M 12 14.964844 C 13.012266 15.616397 14.212032 16 15.5 16 C 15.837475 16 16.166333 15.966103 16.490234 15.916016 C 16.278003 18.210303 14.374095 20 12 20 C 9.6259042 20 7.7219965 18.210303 7.5097656 15.916016 C 7.8336671 15.966103 8.1625252 16 8.5 16 C 9.7879684 16 10.987734 15.616397 12 14.964844 z" font-weight="400" font-family="sans-serif" white-space="normal" overflow="visible"/>
</svg>
