<?xml version="1.0"?>
<svg xmlns="http://www.w3.org/2000/svg" viewBox="0 0 24 24">
    <path style="line-height:normal;text-indent:0;text-align:start;text-decoration-line:none;text-decoration-style:solid;text-decoration-color:#000;text-transform:none;block-progression:tb;isolation:auto;mix-blend-mode:normal" d="M 3 3 L 3 5 L 5 5 L 5 11 L 7 11 L 7 5 L 11 5 L 11 9 L 13 9 L 13 5 L 17 5 L 17 7 L 19 7 L 19 5 L 21 5 L 21 3 L 3 3 z M 16 9 L 16 13 L 17 13 L 17 19 L 13 19 L 13 15 L 14 15 L 14 11 L 10 11 L 10 15 L 11 15 L 11 19 L 7 19 L 7 17 L 8 17 L 8 13 L 4 13 L 4 17 L 5 17 L 5 19 L 3 19 L 3 21 L 21 21 L 21 19 L 19 19 L 19 13 L 20 13 L 20 9 L 16 9 z"/>
</svg>
