<?xml version="1.0"?>
<svg xmlns="http://www.w3.org/2000/svg" viewBox="0 0 24 24">
    <path style="line-height:normal;text-indent:0;text-align:start;text-decoration-line:none;text-decoration-style:solid;text-decoration-color:#000;text-transform:none;block-progression:tb;isolation:auto;mix-blend-mode:normal" d="M 4 2 L 4 4 L 2 4 L 2 7 L 8 7 L 8 4 L 6 4 L 6 2 L 4 2 z M 11 2 L 11 14 L 9 14 L 9 17 L 15 17 L 15 14 L 13 14 L 13 2 L 11 2 z M 18 2 L 18 9 L 16 9 L 16 12 L 22 12 L 22 9 L 20 9 L 20 2 L 18 2 z M 4 9 L 4 22 L 6 22 L 6 9 L 4 9 z M 18 14 L 18 22 L 20 22 L 20 14 L 18 14 z M 11 19 L 11 22 L 13 22 L 13 19 L 11 19 z"/>
</svg>
