<?xml version="1.0"?>
<svg xmlns="http://www.w3.org/2000/svg" viewBox="0 0 24 24">
    <path style="line-height:normal;text-indent:0;text-align:start;text-decoration-line:none;text-decoration-style:solid;text-decoration-color:#000;text-transform:none;block-progression:tb;isolation:auto;mix-blend-mode:normal" d="M 0 7 L 0 17 L 3 17 L 3 18 L 5 18 L 5 17 L 19 17 L 19 18 L 21 18 L 21 17 L 24 17 L 24 7 L 0 7 z M 16.726562 9.0117188 C 19.1553 8.7960571 21.061688 11.49425 19.335938 14 C 19.246937 14.128 19.128 14.246937 19 14.335938 C 15.917 16.459937 12.540062 13.084 14.664062 10 C 14.753063 9.872 14.872 9.7530625 15 9.6640625 C 15.578062 9.2658125 16.166085 9.0614868 16.726562 9.0117188 z M 3 11 L 10 11 L 10 13 L 3 13 L 3 11 z M 17 11 A 1 1 0 0 0 16 12 A 1 1 0 0 0 17 13 A 1 1 0 0 0 18 12 A 1 1 0 0 0 17 11 z" font-weight="400" font-family="sans-serif" white-space="normal" overflow="visible"/>
</svg>
