<?xml version="1.0"?>
<svg xmlns="http://www.w3.org/2000/svg" viewBox="0 0 24 24">
    <path d="M 2 3 L 2 21 L 10.037109 21 C 10.220109 19.287 11.317422 17.885828 12.857422 17.298828 L 11 15.570312 L 11 10 L 13.800781 10 L 18.013672 14.015625 L 21.615234 10.556641 L 22 10.1875 L 22 3 L 2 3 z M 4.0019531 5 L 6 5 L 6 7 L 4.0019531 7 L 4.0019531 5 z M 18 5 L 20 5 L 20 7 L 18 7 L 18 5 z M 4 9 L 6 9 L 6 11 L 4 11 L 4 9 z M 18 9 L 20 9 L 20 11 L 18 11 L 18 9 z M 13 12 L 13 14.699219 L 15.900391 17.400391 L 17.300781 16.099609 L 13 12 z M 23 12 L 15.5 19.199219 C 15.2 19.099219 14.8 19 14.5 19 C 13.1 19 12 20.1 12 21.5 C 12 22.9 13.1 24 14.5 24 C 15.9 24 17 22.9 17 21.5 C 17 21.2 16.900781 20.899609 16.800781 20.599609 L 18 19.400391 L 19.199219 20.599609 C 19.099219 20.899609 19 21.2 19 21.5 C 19 22.9 20.1 24 21.5 24 C 22.9 24 24 22.9 24 21.5 C 24 20.1 22.9 19 21.5 19 C 21.2 19 20.8 19.099219 20.5 19.199219 L 19.400391 18.099609 L 23 14.699219 L 23 12 z M 4 13 L 6 13 L 6 15 L 4 15 L 4 13 z M 4 17 L 6 17 L 6 19 L 4 19 L 4 17 z M 18 17.880859 C 18.173 17.880859 18.3125 18.019406 18.3125 18.191406 C 18.3125 18.364406 18.173 18.505859 18 18.505859 C 17.827 18.505859 17.6885 18.365359 17.6875 18.193359 C 17.6875 18.020359 17.827 17.880859 18 17.880859 z M 14.5 20.5 C 15 20.5 15.5 21 15.5 21.5 C 15.5 22 15 22.5 14.5 22.5 C 14 22.5 13.5 22 13.5 21.5 C 13.5 21 14 20.5 14.5 20.5 z M 21.5 20.5 C 22 20.5 22.5 21 22.5 21.5 C 22.5 22 22 22.5 21.5 22.5 C 21 22.5 20.5 22 20.5 21.5 C 20.5 21 21 20.5 21.5 20.5 z"/>
</svg>
