<?xml version="1.0"?>
<svg xmlns="http://www.w3.org/2000/svg" viewBox="0 0 24 24">
    <path d="M 2 3 L 2 21 L 16.171875 21 L 14.171875 19 L 13 17.828125 L 13 13 L 17.828125 13 L 19.998047 15.171875 L 21 16.171875 L 22 17.171875 L 22 3 L 2 3 z M 4.0019531 5 L 6 5 L 6 7 L 4.0019531 7 L 4.0019531 5 z M 18 5 L 20 5 L 20 7 L 18 7 L 18 5 z M 4 9 L 6 9 L 6 11 L 4 11 L 4 9 z M 18 9 L 20 9 L 20 11 L 18 11 L 18 9 z M 4 13 L 6 13 L 6 15 L 4 15 L 4 13 z M 15 15 L 15 17 L 20.146484 22.146484 L 22.146484 20.146484 L 17 15 L 15 15 z M 4 17 L 6 17 L 6 19 L 4 19 L 4 17 z M 22.853516 20.853516 L 20.853516 22.853516 L 21.853516 23.853516 C 22.048516 24.048516 22.365547 24.048516 22.560547 23.853516 L 23.853516 22.560547 C 24.048516 22.364547 24.048516 22.048516 23.853516 21.853516 L 22.853516 20.853516 z"/>
</svg>
