<?xml version="1.0"?>
<svg xmlns="http://www.w3.org/2000/svg" viewBox="0 0 24 24">
    <path d="M 4 2 L 4 22 L 12.259766 22 C 12.039766 21.685 11.848641 21.35 11.681641 21 L 11.683594 21 C 11.679594 20.992 11.675875 20.983609 11.671875 20.974609 C 11.543875 20.702609 11.43675 20.420859 11.34375 20.130859 C 11.12675 19.458859 11 18.745 11 18 C 11 14.134 14.134 11 18 11 C 18.34 11 18.673 11.033078 19 11.080078 L 19 11.074219 C 19.342 11.124219 19.676 11.198922 20 11.294922 L 20 8 L 14 2 L 4 2 z M 13 3.4550781 L 18.5 9 L 13 9 L 13 3.4550781 z M 18 13 C 15.2 13 13 15.2 13 18 C 13 20.8 15.2 23 18 23 C 19 23 20.000781 22.699219 20.800781 22.199219 L 22.599609 24 L 24 22.599609 L 22.199219 20.800781 C 22.699219 20.000781 23 19 23 18 C 23 15.2 20.8 13 18 13 z M 18 15 C 19.7 15 21 16.3 21 18 C 21 19.7 19.7 21 18 21 C 16.3 21 15 19.7 15 18 C 15 16.3 16.3 15 18 15 z"/>
</svg>
