<?xml version="1.0"?>
<svg xmlns="http://www.w3.org/2000/svg" viewBox="0 0 24 24">
    <path d="M 4 2 L 4 22 L 14.105469 22 C 12.807469 20.729 12 18.96 12 17 C 12 13.134 15.134 10 19 10 C 19.34 10 19.673 10.033078 20 10.080078 L 20 8 L 14 2 L 4 2 z M 13 3.4550781 L 18.5 9 L 13 9 L 13 3.4550781 z M 18.980469 11.972656 C 17.707719 11.972656 16.433359 12.467031 15.443359 13.457031 C 13.463359 15.437031 13.463359 18.547344 15.443359 20.527344 C 16.150359 21.234344 17.070234 21.729406 17.990234 21.941406 L 17.990234 24 L 19.96875 24 L 19.96875 21.941406 C 20.88775 21.729406 21.807625 21.234344 22.515625 20.527344 C 24.495625 18.547344 24.495625 15.437031 22.515625 13.457031 C 21.525625 12.467031 20.253219 11.972656 18.980469 11.972656 z M 18.980469 13.96875 C 19.740719 13.96875 20.500563 14.268141 21.101562 14.869141 C 22.303562 16.071141 22.303562 17.911281 21.101562 19.113281 C 19.899563 20.315281 18.059422 20.315281 16.857422 19.113281 C 15.655422 17.911281 15.655422 16.071141 16.857422 14.869141 C 17.458422 14.268141 18.220219 13.96875 18.980469 13.96875 z"/>
</svg>
