<?xml version="1.0"?>
<svg xmlns="http://www.w3.org/2000/svg" viewBox="0 0 24 24">
    <path style="line-height:normal;text-indent:0;text-align:start;text-decoration-line:none;text-decoration-style:solid;text-decoration-color:#000;text-transform:none;block-progression:tb;isolation:auto;mix-blend-mode:normal" d="M 5 3 L 5 5.1953125 L 5.5429688 5.3964844 C 5.5543178 5.4062244 5.582854 5.4260644 5.640625 5.5234375 C 5.7742077 5.7485909 6 6.3122909 6 7.5 C 6 8.6877091 5.7742075 9.2514091 5.640625 9.4765625 C 5.5828542 9.5739353 5.5543177 9.593777 5.5429688 9.6035156 L 5 9.8046875 L 5 12 L 10 12 L 10 15 L 7 15 C 6.551 15 6 14.449 6 14 L 6 13 L 2.8828125 13 L 2.6347656 13.158203 C 2.0277656 13.547203 1 14.692719 1 16.511719 C 1 19.669719 4.0087187 20.881641 4.1367188 20.931641 L 4.3125 21 L 18.683594 21 L 18.855469 20.935547 C 18.983469 20.886547 22 19.703062 22 16.539062 C 22 14.723062 20.959703 13.562109 20.345703 13.162109 L 20.097656 13 L 19.466797 13 L 20.066406 12 L 22 12 L 22 10 L 18.933594 10 L 15.933594 15 L 12 15 L 12 12 L 15.238281 12 L 15.431641 11.914062 C 15.431641 11.914062 18 10.623711 18 7.4941406 C 18 4.3645721 15.427734 3.0839844 15.427734 3.0839844 L 15.236328 3 L 5 3 z M 7.4648438 5 L 14.742188 5 C 14.938636 5.0784141 16 5.54742 16 7.4941406 C 16 9.4391039 14.936943 9.9187959 14.738281 10 L 7.4648438 10 C 7.7408181 9.3921151 8 8.7027013 8 7.5 C 8 6.2972987 7.7408181 5.6078849 7.4648438 5 z" font-weight="400" font-family="sans-serif" white-space="normal" overflow="visible"/>
</svg>
