<?xml version="1.0"?>
<svg xmlns="http://www.w3.org/2000/svg" viewBox="0 0 24 24">
    <path d="M 2 4 L 2 20 L 22 20 L 22 4 L 2 4 z M 5.1445312 9 L 6.4882812 9 L 7.4921875 13.351562 L 8.5039062 9 L 9.8554688 9 L 8.1230469 15 L 6.8632812 15 L 5.1445312 9 z M 11.394531 9 L 12.605469 9 L 12.605469 15 L 11.394531 15 L 11.394531 9 z M 14.992188 9 L 17.037109 9 C 17.342109 9 17.615469 9.0494375 17.855469 9.1484375 C 18.095469 9.2474375 18.298797 9.3855 18.466797 9.5625 C 18.634797 9.7395 18.763516 9.9484063 18.853516 10.191406 C 18.942516 10.434406 18.986328 10.699375 18.986328 10.984375 C 18.986328 11.277375 18.942516 11.541391 18.853516 11.775391 C 18.763516 12.010391 18.634797 12.21 18.466797 12.375 C 18.299797 12.54 18.095516 12.666859 17.853516 12.755859 C 17.612516 12.844859 17.340109 12.890625 17.037109 12.890625 L 16.205078 12.890625 L 16.205078 15 L 14.992188 15 L 14.992188 9 z M 16.205078 10.009766 L 16.205078 11.880859 L 17.037109 11.880859 C 17.163109 11.880859 17.274234 11.858453 17.365234 11.814453 C 17.457234 11.770453 17.532797 11.710813 17.591797 11.632812 C 17.649797 11.554813 17.693703 11.459563 17.720703 11.351562 C 17.747703 11.243562 17.761719 11.125094 17.761719 10.996094 C 17.761719 10.867094 17.747703 10.743 17.720703 10.625 C 17.693703 10.505 17.649797 10.401547 17.591797 10.310547 C 17.532797 10.219547 17.457234 10.145797 17.365234 10.091797 C 17.274234 10.036797 17.163109 10.009766 17.037109 10.009766 L 16.205078 10.009766 z"/>
</svg>
