<?xml version="1.0"?>
<svg xmlns="http://www.w3.org/2000/svg" viewBox="0 0 24 24">
    <path d="M 12 2 C 8.141 2 5 5.14 5 9 C 5 14 12 22.011719 12 22.011719 C 12 22.011719 19 14 19 9 C 19 5.14 15.859 2 12 2 z M 12 4 C 14.757 4 17 6.243 17 9 C 17 11.757 14.757 14 12 14 C 9.243 14 7 11.757 7 9 C 7 6.243 9.243 4 12 4 z M 12 6 C 10.343 6 9 7.343 9 9 C 9 10.657 10.343 12 12 12 C 13.657 12 15 10.657 15 9 C 15 8.695 14.941422 8.4068594 14.857422 8.1308594 C 14.618422 8.6428594 14.102 9 13.5 9 C 12.672 9 12 8.328 12 7.5 C 12 6.898 12.357141 6.3815781 12.869141 6.1425781 C 12.593141 6.0585781 12.305 6 12 6 z"/>
</svg>
