<?xml version="1.0"?>
<svg xmlns="http://www.w3.org/2000/svg" viewBox="0 0 24 24">
    <path d="M 12 2 L 12 10.166016 L 11.082031 10.013672 L 11 10.013672 L 11 3 L 9 3 L 9 10 L 9 12.71875 L 9 15.9375 L 5.1875 12.75 L 3.0722656 14.9375 L 8.0546875 21.046875 L 8.9140625 22 L 20 22 L 20 13.193359 C 20 13.127628 19.988677 13.064275 19.982422 13 L 20 13 L 20 5 L 18 5 L 18 11.167969 L 17 11 L 17 3 L 15 3 L 15 10.667969 L 14 10.5 L 14 2 L 12 2 z M 2.4472656 9.5722656 C 2.4517656 9.5750156 2.4963125 9.5972656 2.5703125 9.6347656 L 2.5625 9.625 C 2.4775 9.5855 2.4427656 9.5695156 2.4472656 9.5722656 z M 12.740234 13 C 13.738234 13 14.294 13.853594 14.5 14.433594 C 14.765 13.823594 15.313484 13 16.271484 13 C 17.347484 13 18 13.998828 18 15.048828 C 18 16.575828 14.5 19.142578 14.5 19.142578 C 14.5 19.142578 11 16.566828 11 15.048828 C 11 13.998828 11.664234 13 12.740234 13 z"/>
</svg>
