<?xml version="1.0"?>
<svg xmlns="http://www.w3.org/2000/svg" viewBox="0 0 24 24">
    <path d="M12,2C6.477,2,2,6.477,2,12c0,5.523,4.477,10,10,10s10-4.477,10-10C22,6.477,17.523,2,12,2z M6,10h5c0,1.121-1.098,2-2.5,2 S6,11.121,6,10z M15,19c0,0.552-0.448,1-1,1s-1-0.448-1-1v-1c0-0.552-0.448-1-1-1s-1,0.448-1,1c0,0.552-0.448,1-1,1s-1-0.448-1-1 v-3.118l0.553-0.276C9.677,14.544,10.801,14,12.08,14c1.124,0,2.243,0.544,2.367,0.605L15,14.882V19z M15.5,12 c-1.402,0-2.5-0.879-2.5-2h5C18,11.121,16.902,12,15.5,12z"/>
</svg>
