<?xml version="1.0"?>
<svg xmlns="http://www.w3.org/2000/svg" viewBox="0 0 24 24">
    <path style="line-height:normal;text-indent:0;text-align:start;text-decoration-line:none;text-decoration-style:solid;text-decoration-color:#000;text-transform:none;block-progression:tb;isolation:auto;mix-blend-mode:normal" d="M 12 6 L 12 10 L 1 10 L 1 12 L 12 12 L 12 14 L 12 15 L 8.6445312 15 C 8.0777003 13.824694 6.8831519 13 5.5 13 C 4.1168481 13 2.9222997 13.824694 2.3554688 15 L 1 15 L 1 17 L 2.0507812 17 C 2.2981765 18.685411 3.7500665 20 5.5 20 C 7.2499335 20 8.7018235 18.685411 8.9492188 17 L 12 17 L 14.050781 17 C 14.295781 18.692 15.742 20 17.5 20 C 19.258 20 20.704219 18.692 20.949219 17 L 23 17 L 23 11.457031 L 19.550781 6 L 12 6 z M 5.5 15 C 6.3402718 15 7 15.659728 7 16.5 C 7 17.340272 6.3402718 18 5.5 18 C 4.6597282 18 4 17.340272 4 16.5 C 4 15.659728 4.6597282 15 5.5 15 z M 17.5 15 C 18.327 15 19 15.673 19 16.5 C 19 17.327 18.327 18 17.5 18 C 16.673 18 16 17.327 16 16.5 C 16 15.673 16.673 15 17.5 15 z" font-weight="400" font-family="sans-serif" white-space="normal" overflow="visible"/>
</svg>
