<?xml version="1.0"?>
<svg xmlns="http://www.w3.org/2000/svg" viewBox="0 0 24 24">
    <path d="M 13 2 A 2 2 0 0 0 11 4 A 2 2 0 0 0 13 6 A 2 2 0 0 0 15 4 A 2 2 0 0 0 13 2 z M 10.763672 7 L 6.1835938 9.2910156 L 5.0527344 12.683594 L 6.9472656 13.316406 L 7.8164062 10.710938 L 9.5917969 9.8222656 L 7.015625 22 L 9.0605469 22 L 10.441406 15.472656 C 10.920406 16.041656 11.652 16.961984 12 17.333984 L 12 22 L 14 22 L 14 16.697266 L 12.826172 14.9375 L 13.658203 11.441406 C 13.942203 11.945406 14.283641 12.380328 14.681641 12.736328 C 15.605641 13.563328 16.753 14 18 14 L 18 12 C 17.231 12 16.582625 11.753094 16.015625 11.246094 C 15.508625 10.793094 15.133344 10.091109 14.902344 9.1621094 C 14.474344 7.4511094 12.817 7 12 7 L 10.763672 7 z"/>
</svg>
