<?xml version="1.0"?>
<svg xmlns="http://www.w3.org/2000/svg" viewBox="0 0 24 24">
    <path style="line-height:normal;text-indent:0;text-align:start;text-decoration-line:none;text-decoration-style:solid;text-decoration-color:#000;text-transform:none;block-progression:tb;isolation:auto;mix-blend-mode:normal" d="M 3 3 L 3 15 L 3 17 L 3 21 L 21 21 L 21 17 L 21 15 L 21 3 L 3 3 z M 5 5 L 19 5 L 19 7 L 5 7 L 5 5 z M 5 9 L 19 9 L 19 11 L 5 11 L 5 9 z M 5 13 L 19 13 L 19 15 L 15 15 C 15 15 14 17 12 17 C 10 17 9 15 9 15 L 5 15 L 5 13 z" font-weight="400" font-family="sans-serif" white-space="normal" overflow="visible"/>
</svg>
