<?xml version="1.0"?>
<svg xmlns="http://www.w3.org/2000/svg" viewBox="0 0 24 24">
    <path style="line-height:normal;text-indent:0;text-align:start;text-decoration-line:none;text-decoration-style:solid;text-decoration-color:#000;text-transform:none;block-progression:tb;isolation:auto;mix-blend-mode:normal" d="M 3 3 L 3 11 L 5 11 L 5 5 L 11 5 L 11 3 L 3 3 z M 13 3 L 13 5 L 19 5 L 19 11 L 21 11 L 21 3 L 13 3 z M 15.5 7 A 1.5 1.5 0 0 0 14 8.5 A 1.5 1.5 0 0 0 15.5 10 A 1.5 1.5 0 0 0 17 8.5 A 1.5 1.5 0 0 0 15.5 7 z M 10.5 12.332031 L 7 17 L 17 17 L 14.5 13.667969 L 13 15.667969 L 10.5 12.332031 z M 3 13 L 3 21 L 11 21 L 11 19 L 5 19 L 5 13 L 3 13 z M 19 13 L 19 19 L 13 19 L 13 21 L 21 21 L 21 13 L 19 13 z" font-weight="400" font-family="sans-serif" white-space="normal" overflow="visible"/>
</svg>
