<?xml version="1.0"?>
<svg xmlns="http://www.w3.org/2000/svg" viewBox="0 0 24 24">
    <path d="M 12 1 C 9.8027056 1 8 2.8027056 8 5 C 8 5.7306746 8.2136432 6.4083697 8.5605469 7 L 6 7 C 5.448 7 5 6.551 5 6 C 5 5.449 5.448 5 6 5 C 6 4.298 6.1276094 3.626 6.3496094 3 L 6 3 C 4.343 3 3 4.343 3 6 L 3 19 C 3 20.105 3.895 21 5 21 L 21 21 L 21 7 L 19.857422 7 C 19.941157 6.6779268 20 6.3464634 20 6 C 20 3.8026661 18.197334 2 16 2 C 15.593227 2 15.200966 2.0674481 14.828125 2.1816406 C 14.10239 1.4534012 13.101146 1 12 1 z M 12 3 C 13.116414 3 14 3.8835859 14 5 C 14 6.1164141 13.116414 7 12 7 C 10.883586 7 10 6.1164141 10 5 C 10 3.8835859 10.883586 3 12 3 z M 16 4 C 17.116666 4 18 4.8833339 18 6 C 18 6.3678282 17.898681 6.7063575 17.728516 7 L 15.439453 7 C 15.786357 6.4083697 16 5.7306746 16 5 C 16 4.6594829 15.942675 4.3339016 15.861328 4.0175781 C 15.908679 4.0143134 15.951532 4 16 4 z M 17 13 C 17.552 13 18 13.448 18 14 C 18 14.552 17.552 15 17 15 C 16.448 15 16 14.552 16 14 C 16 13.448 16.448 13 17 13 z"/>
</svg>
