<?xml version="1.0"?>
<svg xmlns="http://www.w3.org/2000/svg" viewBox="0 0 24 24">
    <path d="M 9.6542969 2.0019531 C 8.9299219 2.0441016 8.249375 2.6236719 8.28125 3.4980469 C 8.31625 4.4380469 7.4571094 5.1608906 6.5371094 4.9628906 C 5.1681094 4.6688906 4.2250625 6.3027969 5.1640625 7.3417969 C 5.7950625 8.0387969 5.6005781 9.1420313 4.7675781 9.5820312 C 3.5295781 10.237031 3.8571406 12.095109 5.2441406 12.287109 C 6.1761406 12.416109 6.7368125 13.388766 6.3828125 14.259766 C 6.198438 14.71302 6.2650472 15.149338 6.4667969 15.501953 L 3.8574219 20 L 7.3574219 20 L 8.8476562 23.269531 L 11.984375 18.041016 L 15.121094 23.269531 L 16.611328 20 L 20.111328 20 L 17.519531 15.529297 C 17.73341 15.172734 17.803752 14.723726 17.615234 14.259766 C 17.261234 13.388766 17.821906 12.416109 18.753906 12.287109 C 20.140906 12.095109 20.468469 10.237031 19.230469 9.5820312 C 18.399469 9.1430312 18.204937 8.0397969 18.835938 7.3417969 C 19.774937 6.3027969 18.831891 4.6688906 17.462891 4.9628906 C 16.543891 5.1598906 15.68375 4.4380469 15.71875 3.4980469 C 15.77075 2.0990469 13.998672 1.4555469 13.138672 2.5605469 C 12.560672 3.3035469 11.439328 3.3035469 10.861328 2.5605469 C 10.539203 2.1461719 10.088922 1.9766641 9.6542969 2.0019531 z M 9.1152344 15.808594 C 9.6862545 15.754706 10.252481 16.053794 10.527344 16.585938 L 9.0898438 18.980469 L 8.6425781 18 L 7.3300781 18 L 8.4726562 16.029297 C 8.4771465 16.026537 8.4818452 16.026254 8.4863281 16.023438 C 8.6855781 15.898438 8.8998281 15.828922 9.1152344 15.808594 z M 14.882812 15.808594 C 15.089402 15.82809 15.293998 15.896163 15.486328 16.011719 L 16.638672 18 L 15.326172 18 L 14.878906 18.980469 L 13.458984 16.613281 C 13.728373 16.064466 14.302419 15.753821 14.882812 15.808594 z"/>
</svg>
