<?xml version="1.0"?>
<svg xmlns="http://www.w3.org/2000/svg" viewBox="0 0 24 24">
    <path d="M 17 2 C 17 2 15 4.895 15 6 C 15 7.105 15.895 8 17 8 C 18.105 8 19 7.105 19 6 C 19 4.895 17 2 17 2 z M 14.427734 3.4472656 C 14.424984 3.4517656 14.402734 3.4963125 14.365234 3.5703125 L 14.375 3.5625 C 14.4145 3.4775 14.430484 3.4427656 14.427734 3.4472656 z M 9.0625 4.0722656 L 2.953125 9.0546875 L 2 9.9140625 L 2 21 L 10.806641 21 C 10.872372 21 10.935725 20.988677 11 20.982422 L 11 21 L 19 21 L 19 19 L 12.832031 19 L 13 18 L 21 18 L 21 16 L 13.333984 16 L 13.5 15 L 22 15 L 22 13 L 13.833984 13 L 13.986328 12.082031 L 13.986328 12 L 21 12 L 21 10 L 14 10 L 8.0625 10 L 11.25 6.1875 L 9.0625 4.0722656 z"/>
</svg>
