<?xml version="1.0"?>
<svg xmlns="http://www.w3.org/2000/svg" viewBox="0 0 24 24">
    <path d="M 4 2 L 4 22 L 20 22 L 20 2 L 4 2 z M 7 4 C 7.552 4 8 4.448 8 5 C 8 5.552 7.552 6 7 6 C 6.448 6 6 5.552 6 5 C 6 4.448 6.448 4 7 4 z M 10 4 C 10.552 4 11 4.448 11 5 C 11 5.552 10.552 6 10 6 C 9.448 6 9 5.552 9 5 C 9 4.448 9.448 4 10 4 z M 12 9 C 14.761 9 17 11.239 17 14 C 17 16.761 14.761 19 12 19 C 9.239 19 7 16.761 7 14 C 7 11.239 9.239 9 12 9 z M 9 14 C 9 15.657 10.343 17 12 17 C 13.657 17 15 15.657 15 14 L 9 14 z"/>
</svg>
