<?xml version="1.0"?>
<svg xmlns="http://www.w3.org/2000/svg" viewBox="0 0 24 24">
    <path d="M 7 3 A 1 1 0 0 0 6 4 A 1 1 0 0 0 7 5 A 1 1 0 0 0 8 4 A 1 1 0 0 0 7 3 z M 17 3 A 1 1 0 0 0 16 4 A 1 1 0 0 0 17 5 A 1 1 0 0 0 18 4 A 1 1 0 0 0 17 3 z M 4 4 A 1 1 0 0 0 3 5 A 1 1 0 0 0 4 6 A 1 1 0 0 0 5 5 A 1 1 0 0 0 4 4 z M 10 4 A 1 1 0 0 0 9 5 A 1 1 0 0 0 10 6 A 1 1 0 0 0 11 5 A 1 1 0 0 0 10 4 z M 14 4 A 1 1 0 0 0 13 5 A 1 1 0 0 0 14 6 A 1 1 0 0 0 15 5 A 1 1 0 0 0 14 4 z M 20 4 A 1 1 0 0 0 19 5 A 1 1 0 0 0 20 6 A 1 1 0 0 0 21 5 A 1 1 0 0 0 20 4 z M 3 7 A 1 1 0 0 0 2 8 A 1 1 0 0 0 3 9 A 1 1 0 0 0 4 8 A 1 1 0 0 0 3 7 z M 12 7 C 11.45 7 11 7.45 11 8 L 11 8.0195312 C 11.33 8.0095312 11.66 8 12 8 C 12.34 8 12.67 8.0095313 13 8.0195312 L 13 8 C 13 7.45 12.55 7 12 7 z M 21 7 A 1 1 0 0 0 20 8 A 1 1 0 0 0 21 9 A 1 1 0 0 0 22 8 A 1 1 0 0 0 21 7 z M 11 8.0292969 C 7 7.9992969 2 11.5 2 11.5 L 8 22 C 8 22 9.5 20.999766 12 21.009766 C 14.5 20.999766 16 22 16 22 L 22 11.5 C 22 11.5 17 7.9992969 13 8.0292969 C 12.98 8.5692969 12.54 9 12 9 C 11.46 9 11.02 8.5692969 11 8.0292969 z M 12 11 C 12.55 11 13 11.45 13 12 C 13 12.55 12.55 13 12 13 C 11.45 13 11 12.55 11 12 C 11 11.45 11.45 11 12 11 z M 12 15 C 12.55 15 13 15.45 13 16 C 13 16.55 12.55 17 12 17 C 11.45 17 11 16.55 11 16 C 11 15.45 11.45 15 12 15 z"/>
</svg>
