<?xml version="1.0"?>
<svg xmlns="http://www.w3.org/2000/svg" viewBox="0 0 24 24">
    <path d="M 7 2 A 2 2 0 0 0 5 4 A 2 2 0 0 0 7 6 A 2 2 0 0 0 9 4 A 2 2 0 0 0 7 2 z M 15 2 L 15 7 L 18 7 L 18 8 L 17 8 L 17 9 L 20 9 L 20 8 L 19 8 L 19 7 L 22 7 L 22 2 L 15 2 z M 2 5 L 2 21 L 4 21 L 4 19 L 20 19 L 20 21 L 22 21 L 22 10 L 13 10 L 13 13 L 11 13 L 11 9.9375 C 9.543 9.7595 9.0400937 9.208625 8.9960938 8.890625 C 9.0050938 8.959625 9 9 9 9 C 9 7.895 8.105 7 7 7 C 5.895 7 5 7.895 5 9 C 5 10.123 5.6203125 11.895 7.5703125 13 L 4 13 L 4 5 L 2 5 z"/>
</svg>
