<?xml version="1.0"?>
<svg xmlns="http://www.w3.org/2000/svg" viewBox="0 0 24 24">
    <path d="M 8 0 L 7.0449219 5.7265625 C 5.1927495 7.191828 4 9.4551537 4 12 C 4 14.544846 5.1927495 16.808172 7.0449219 18.273438 L 8 24 L 16 24 L 16.955078 18.273438 C 18.80725 16.808172 20 14.544846 20 12 C 20 9.4551537 18.80725 7.191828 16.955078 5.7265625 L 16 0 L 8 0 z M 12 6 C 15.314 6 18 8.686 18 12 C 18 15.314 15.314 18 12 18 C 8.686 18 6 15.314 6 12 C 6 8.686 8.686 6 12 6 z M 11 8 L 11 13 L 15 13 L 15 11 L 13 11 L 13 8 L 11 8 z"/>
</svg>
