<?xml version="1.0"?>
<svg xmlns="http://www.w3.org/2000/svg" viewBox="0 0 24 24">
    <path style="line-height:normal;text-indent:0;text-align:start;text-decoration-line:none;text-decoration-style:solid;text-decoration-color:#000;text-transform:none;block-progression:tb;isolation:auto;mix-blend-mode:normal" d="M 3 3 L 3 12 L 7.1484375 12 C 7.0614375 12.356 7 12.697 7 13 C 7 13.342 7.0355625 13.677 7.1015625 14 L 3 14 L 3 20 L 9 20 L 9 22 L 11 22 L 11 20 L 13 20 L 13 22 L 15 22 L 15 20 L 21 20 L 21 14 L 16.898438 14 C 16.964437 13.677 17 13.342 17 13 C 17 12.697 16.938562 12.356 16.851562 12 L 21 12 L 21 3 L 3 3 z M 12 7 C 12 7 12.027359 7.0386094 12.068359 7.0996094 C 12.077359 7.1136094 12.086656 7.1285312 12.097656 7.1445312 C 12.124656 7.1845313 12.156359 7.2321094 12.193359 7.2871094 C 12.195359 7.2901094 12.198172 7.293875 12.201172 7.296875 C 12.741172 8.107875 14.22525 10.407 14.78125 12 C 14.91425 12.383 15 12.729 15 13 C 15 14.657 13.657 16 12 16 C 10.343 16 9 14.657 9 13 C 9 12.729 9.08575 12.383 9.21875 12 C 9.77575 10.407 11.258828 8.107875 11.798828 7.296875 C 11.800828 7.293875 11.804641 7.2901094 11.806641 7.2871094 C 11.843641 7.2321094 11.875344 7.1845313 11.902344 7.1445312 C 11.913344 7.1285312 11.922641 7.1126094 11.931641 7.0996094 C 11.972641 7.0386094 12 7 12 7 z M 12 12 C 12 12 11 13.448 11 14 C 11 14.552 11.448 15 12 15 C 12.552 15 13 14.552 13 14 C 13 13.448 12 12 12 12 z" font-weight="400" font-family="sans-serif" white-space="normal" overflow="visible"/>
</svg>
