<?xml version="1.0"?>
<svg xmlns="http://www.w3.org/2000/svg" viewBox="0 0 24 24">
    <path d="M17.191,2.234L16.49,1.646L1.585,16.511l0.707,0.708C4.761,19.693,7.628,21,10.584,21c2.67,0,5.259-1.122,7.292-3.159 c2.109-2.114,3.244-5.029,3.113-7.998C20.858,6.881,19.51,4.178,17.191,2.234z M15.71,15.71c-0.39,0.39-1.03,0.39-1.42,0 C13.9,15.32,13,13,13,13s2.32,0.9,2.71,1.29C16.1,14.68,16.1,15.32,15.71,15.71z M14.23,9.35c0,0,2.45-0.44,2.98-0.31 c0.54,0.13,0.87,0.67,0.74,1.21s-0.67,0.87-1.21,0.74C16.21,10.86,14.23,9.35,14.23,9.35z M10.22,17.85 c-0.54,0.13-1.08-0.2-1.21-0.74c-0.13-0.54,0.31-2.98,0.31-2.98s1.51,1.97,1.64,2.51C11.09,17.18,10.76,17.72,10.22,17.85z"/>
</svg>
