<?xml version="1.0"?>
<svg xmlns="http://www.w3.org/2000/svg" viewBox="0 0 24 24">
    <path style="line-height:normal;text-indent:0;text-align:start;text-decoration-line:none;text-decoration-style:solid;text-decoration-color:#000;text-transform:none;block-progression:tb;isolation:auto;mix-blend-mode:normal" d="M 2.8671875 3 L 5.1171875 21 L 18.882812 21 L 18.992188 20.125 L 21.132812 3 L 2.8671875 3 z M 5.1328125 5 L 18.867188 5 L 18.617188 7 L 5.3828125 7 L 5.1328125 5 z M 14 9 C 14.552 9 15 9.448 15 10 C 15 10.552 14.552 11 14 11 C 13.448 11 13 10.552 13 10 C 13 9.448 13.448 9 14 9 z M 9 12 C 9.552 12 10 12.448 10 13 C 10 13.552 9.552 14 9 14 C 8.448 14 8 13.552 8 13 C 8 12.448 8.448 12 9 12 z M 12.5 15 C 13.328 15 14 15.672 14 16.5 C 14 17.328 13.328 18 12.5 18 C 11.672 18 11 17.328 11 16.5 C 11 15.672 11.672 15 12.5 15 z" font-weight="400" font-family="sans-serif" white-space="normal" overflow="visible"/>
</svg>
