<?xml version="1.0"?>
<svg xmlns="http://www.w3.org/2000/svg" viewBox="0 0 24 24">
    <path style="line-height:normal;text-indent:0;text-align:start;text-decoration-line:none;text-decoration-style:solid;text-decoration-color:#000;text-transform:none;block-progression:tb;isolation:auto;mix-blend-mode:normal" d="M 12 2 C 10.744 2 9.5415 2.4742187 8.5625 3.3242188 C 7.5955 2.9042188 6.5075625 2.8889219 5.4765625 3.2949219 C 4.4735625 3.6889219 3.6514375 4.5046719 3.2734375 5.5136719 C 2.8624375 6.6076719 2.9271875 7.757375 3.3671875 8.734375 C 2.2171875 9.615375 1.7161563 11.093219 2.1601562 12.574219 C 2.5991563 14.041219 4.0178281 15 5.5488281 15 L 5.6113281 15 L 5.6132812 15 C 5.5142812 14.156 5.3314375 13.146188 5.1484375 12.242188 C 4.8434375 10.733187 5.7086875 9.2264375 7.1796875 8.7734375 C 8.4866875 8.3704375 10.181 8 12 8 C 13.821 8 15.514359 8.3704375 16.818359 8.7734375 C 18.284359 9.2274375 19.147656 10.727422 18.847656 12.232422 C 18.667656 13.138422 18.486719 14.151047 18.386719 14.998047 L 18.388672 14.998047 L 18.474609 14.998047 C 19.992609 14.998047 21.394984 14.048703 21.833984 12.595703 C 22.283984 11.110703 21.799656 9.6150469 20.597656 8.7480469 C 21.067656 7.7840469 21.130672 6.6812344 20.763672 5.6152344 C 20.386672 4.5232344 19.500109 3.637 18.412109 3.25 C 17.409109 2.893 16.379766 2.9179375 15.384766 3.3359375 C 14.458766 2.4749375 13.256 2 12 2 z M 11 10 L 11 22 L 13 22 L 13 10 L 11 10 z M 8.9707031 10.757812 L 7.0292969 11.242188 C 7.0292969 11.242188 8 15.095238 8 22 L 10 22 C 10 14.904762 8.9707031 10.757814 8.9707031 10.757812 z M 15.029297 10.757812 C 15.029297 10.757812 14 14.904762 14 22 L 16 22 C 16 15.095238 16.970703 11.242186 16.970703 11.242188 L 15.029297 10.757812 z" font-weight="400" font-family="sans-serif" white-space="normal" overflow="visible"/>
</svg>
