<?xml version="1.0"?>
<svg xmlns="http://www.w3.org/2000/svg" viewBox="0 0 24 24">
    <path style="line-height:normal;text-indent:0;text-align:start;text-decoration-line:none;text-decoration-style:solid;text-decoration-color:#000;text-transform:none;block-progression:tb;isolation:auto;mix-blend-mode:normal" d="M 4 2 L 4 9 L 2 9 L 2 18 L 4 18 L 4 22 L 20 22 L 20 7 L 15 2 L 4 2 z M 6 4 L 14 4 L 14 8 L 18 8 L 18 9 L 6 9 L 6 4 z M 4 11 L 5.0117188 11 L 5.484375 14.123047 L 6.0761719 11 L 6.9277344 11 L 7.5175781 14.126953 L 7.9941406 11 L 9 11 L 8.1054688 15.976562 L 7.0878906 15.976562 L 6.5019531 13.044922 L 5.9199219 15.976562 L 4.8984375 15.976562 L 4 11 z M 10.345703 11 L 11.646484 11 L 13 16 L 11.9375 16 L 11.679688 15 L 10.310547 15 L 10.052734 16 L 9 16 L 10.345703 11 z M 13 11 L 14.052734 11 L 14.992188 14.646484 L 15.9375 11 L 17 11 L 15.646484 16 L 14.345703 16 L 13 11 z M 10.992188 12.353516 L 10.568359 14 L 11.419922 14 L 10.992188 12.353516 z M 6 18 L 18 18 L 18 20 L 6 20 L 6 18 z" font-weight="400" font-family="sans-serif" white-space="normal" overflow="visible"/>
</svg>
