<?xml version="1.0"?>
<svg xmlns="http://www.w3.org/2000/svg" viewBox="0 0 24 24">
    <path d="M21,2.524l-6.031,2.412c0,0,0,0,0,0l-6-2c0,0,0,0,0,0L3.001,5.323C3,5.323,3,5.324,3,5.324v16.152c0,0,0,0,0,0l6.031-2.412 c0,0,0,0,0,0l6,2c0,0,0,0,0,0l5.968-2.387c0,0,0.001-0.001,0.001-0.001V2.524z M6,14c-0.552,0-1-0.448-1-1c0-0.552,0.448-1,1-1 s1,0.448,1,1C7,13.552,6.552,14,6,14z M6,11c-0.552,0-1-0.448-1-1c0-0.552,0.448-1,1-1s1,0.448,1,1C7,10.552,6.552,11,6,11z M9,17 c-0.552,0-1-0.448-1-1c0-0.552,0.448-1,1-1s1,0.448,1,1C10,16.552,9.552,17,9,17z M12,14c-0.552,0-1-0.448-1-1c0-0.552,0.448-1,1-1 s1,0.448,1,1C13,13.552,12.552,14,12,14z M12,11c-0.552,0-1-0.448-1-1c0-0.552,0.448-1,1-1s1,0.448,1,1C13,10.552,12.552,11,12,11z M15,9c-0.552,0-1-0.448-1-1c0-0.552,0.448-1,1-1s1,0.448,1,1C16,8.552,15.552,9,15,9z M18,14c-0.552,0-1-0.448-1-1 c0-0.552,0.448-1,1-1s1,0.448,1,1C19,13.552,18.552,14,18,14z M18,11c-0.552,0-1-0.448-1-1c0-0.552,0.448-1,1-1s1,0.448,1,1 C19,10.552,18.552,11,18,11z"/>
</svg>
