<?xml version="1.0"?>
<svg xmlns="http://www.w3.org/2000/svg" viewBox="0 0 24 24">
    <path d="M 1 4 L 1 20 L 23 20 L 23 4 L 1 4 z M 6 9 C 7.105 9 8 9.895 8 11 L 8 15 L 7 15 L 7 13 L 5 13 L 5 15 L 4 15 L 4 11 C 4 9.895 4.895 9 6 9 z M 10.007812 9 L 12.050781 9 C 12.355781 9 12.629141 9.0494375 12.869141 9.1484375 C 13.109141 9.2474375 13.312469 9.3855 13.480469 9.5625 C 13.648469 9.7395 13.777187 9.9484063 13.867188 10.191406 C 13.956188 10.435406 14 10.701328 14 10.986328 C 14 10.991328 13.998047 10.995 13.998047 11 L 13.998047 13 C 13.998047 13.005 14 13.008672 14 13.013672 C 14 13.299672 13.956188 13.563641 13.867188 13.806641 C 13.777188 14.049641 13.648469 14.2605 13.480469 14.4375 C 13.312469 14.6145 13.109141 14.752563 12.869141 14.851562 C 12.629141 14.951563 12.355781 15 12.050781 15 L 11.21875 15 L 10.007812 15 L 10.007812 9 z M 17.966797 9.0078125 C 18.334797 9.0078125 18.623891 9.0817656 18.962891 9.2597656 C 19.288891 9.4307656 19.545516 9.6724688 19.728516 9.9804688 C 19.905516 10.281469 20 10.634 20 11 L 19 11 C 19 10.813 18.953187 10.637188 18.867188 10.492188 C 18.779187 10.344188 18.659094 10.230531 18.496094 10.144531 C 18.321094 10.052531 18.196797 10.009766 17.966797 10.009766 C 17.614797 10.009766 17.446766 10.098719 17.259766 10.261719 C 17.082766 10.416719 17 10.598937 17 10.835938 C 17 10.996937 17.103672 11.165578 17.263672 11.267578 C 17.384672 11.344578 17.698609 11.417422 17.974609 11.482422 C 18.622609 11.634422 19.358281 11.805609 19.738281 12.349609 C 19.912281 12.598609 20 12.91225 20 13.28125 C 20 13.76125 19.641 15.009766 18 15.009766 C 16.748 15.009766 16 14.258 16 13 L 17 13 C 17 13.707 17.299 14.009766 18 14.009766 C 18.907 14.009766 18.995 13.445437 19 13.273438 C 19 13.125438 18.970969 12.998828 18.917969 12.923828 C 18.756969 12.692828 18.173094 12.554078 17.746094 12.455078 C 17.358094 12.364078 16.992516 12.279328 16.728516 12.111328 C 16.279516 11.825328 16 11.337938 16 10.835938 C 16 10.310937 16.207562 9.8518125 16.601562 9.5078125 C 17.001562 9.1578125 17.410797 9.0078125 17.966797 9.0078125 z M 6 10 C 5.449 10 5 10.449 5 11 L 5 12 L 7 12 L 7 11 C 7 10.449 6.551 10 6 10 z M 11.007812 10 L 11.007812 14 L 11.21875 14 L 12.050781 14 C 12.223781 14 12.370281 13.975734 12.488281 13.927734 C 12.596281 13.882734 12.684906 13.825953 12.753906 13.751953 C 12.828906 13.672953 12.884734 13.577938 12.927734 13.460938 C 12.970734 13.343937 12.994047 13.206594 12.998047 13.058594 L 12.998047 13 L 12.998047 11 L 12.998047 10.9375 L 12.998047 10.935547 C 12.994047 10.788547 12.970734 10.653156 12.927734 10.535156 C 12.885734 10.421156 12.828906 10.327047 12.753906 10.248047 C 12.684906 10.175047 12.596328 10.117266 12.486328 10.072266 C 12.370328 10.025266 12.222781 10 12.050781 10 L 11.007812 10 z"/>
</svg>
