<?xml version="1.0"?>
<svg xmlns="http://www.w3.org/2000/svg" viewBox="0 0 24 24">
    <path style="line-height:normal;text-indent:0;text-align:start;text-decoration-line:none;text-decoration-style:solid;text-decoration-color:#000;text-transform:none;block-progression:tb;isolation:auto;mix-blend-mode:normal" d="M 12 2 C 7.5935666 2 4 5.5935666 4 10 C 4 14.067304 7.0633895 17.436276 11 17.931641 L 11 20 L 7 20 L 7 22 L 17 22 L 17 20 L 13 20 L 13 17.931641 C 16.93661 17.436276 20 14.067304 20 10 C 20 5.5935666 16.406433 2 12 2 z M 12 6 C 14.209 6 16 7.791 16 10 C 16 12.209 14.209 14 12 14 C 9.791 14 8 12.209 8 10 C 8 7.791 9.791 6 12 6 z M 13 8 A 1 1 0 0 0 12 9 A 1 1 0 0 0 13 10 A 1 1 0 0 0 14 9 A 1 1 0 0 0 13 8 z" font-weight="400" font-family="sans-serif" white-space="normal" overflow="visible"/>
</svg>
