<?xml version="1.0"?>
<svg xmlns="http://www.w3.org/2000/svg" viewBox="0 0 24 24">
    <path d="M 7 2 L 7 5 L 9 5 L 9 2 L 7 2 z M 11 2 L 11 5 L 13 5 L 13 2 L 11 2 z M 15 2 L 15 5 L 17 5 L 17 2 L 15 2 z M 4 6 L 4 7 C 4 9.61278 5.6474825 11.891261 8.078125 13.09375 L 4 22 L 6.171875 22 L 8.015625 18 L 15.970703 18 L 16.365234 18.851562 A 2 2 0 0 0 16 20 A 2 2 0 0 0 18 22 A 2 2 0 0 0 20 20 A 2 2 0 0 0 18.179688 18.009766 L 15.904297 13.103516 C 18.344903 11.903429 20 9.6192803 20 7 L 20 6 L 4 6 z M 9.96875 13.763672 C 10.61866 13.913324 11.297157 14 12 14 C 12.694528 14 13.364843 13.913823 14.007812 13.767578 L 15.042969 16 L 8.9375 16 L 9.96875 13.763672 z"/>
</svg>
