<?xml version="1.0"?>
<svg xmlns="http://www.w3.org/2000/svg" viewBox="0 0 24 24">
    <path d="M22,6H12l-2-2H2v16h20V6z M8.436,15H7.567l-0.566-2.314L6.436,15H5.564l-0.828-4h1.006l0.355,2.248L6.628,11h0.743 l0.532,2.244L8.262,11h1.002L8.436,15z M13.436,15h-0.869l-0.566-2.314L11.436,15h-0.872l-0.828-4h1.006l0.355,2.248L11.628,11 h0.743l0.532,2.244L13.262,11h1.002L13.436,15z M18.436,15h-0.869l-0.566-2.314L16.436,15h-0.872l-0.828-4h1.006l0.355,2.248 L16.628,11h0.743l0.532,2.244L18.262,11h1.002L18.436,15z"/>
</svg>
