<?xml version="1.0"?>
<svg xmlns="http://www.w3.org/2000/svg" viewBox="0 0 24 24">
    <path d="M 6 1 L 6 3 L 3 3 L 3 21 L 21 21 L 21 3 L 18 3 L 18 1 L 16 1 L 16 3 L 8 3 L 8 1 L 6 1 z M 5 8 L 19 8 L 19.001953 19 L 5 19 L 5 8 z M 15 13 L 15 18 L 18 18 L 18 17 L 16 17 L 16 16 L 17.599609 16 L 17.599609 15 L 16 15 L 16 14 L 18 14 L 18 13 L 15 13 z M 9.0117188 13.011719 L 9.9082031 17.988281 L 10.931641 17.988281 L 11.513672 15.054688 L 12.099609 17.988281 L 13.117188 17.988281 L 14.011719 13.011719 L 13.005859 13.011719 L 12.529297 16.138672 L 11.939453 13.011719 L 11.087891 13.011719 L 10.496094 16.134766 L 10.023438 13.011719 L 9.0117188 13.011719 z"/>
</svg>
