<?xml version="1.0"?>
<svg xmlns="http://www.w3.org/2000/svg" viewBox="0 0 24 24">
    <path style="line-height:normal;text-indent:0;text-align:start;text-decoration-line:none;text-decoration-style:solid;text-decoration-color:#000;text-transform:none;block-progression:tb;isolation:auto;mix-blend-mode:normal" d="M 5.9804688 3 L 5 6 L 3 6 L 3 13 L 3 16 L 2 16 L 2 18 L 22 18 L 22 16 L 21 16 L 21 13 L 21 6 L 19 6 L 18.019531 3 L 15.949219 3 L 16.712891 6 L 7.2871094 6 L 8.0507812 3 L 5.9804688 3 z M 9 9 L 15 9 L 15 12 L 9 12 L 9 9 z M 6 14 L 18 14 L 18 16 L 6 16 L 6 14 z M 3 20 L 5.5 22 L 8 20 L 3 20 z M 16 20 L 18.5 22 L 21 20 L 16 20 z" font-weight="400" font-family="sans-serif" white-space="normal" overflow="visible"/>
</svg>
