<?xml version="1.0"?>
<svg xmlns="http://www.w3.org/2000/svg" viewBox="0 0 24 24">
    <path d="M 12 1 C 9.794 1 8 2.794 8 5 L 3.0644531 5 L 1.9316406 22 L 22.068359 22 L 20.935547 5 L 16 5 C 16 2.794 14.206 1 12 1 z M 12 3 C 13.103 3 14 3.897 14 5 L 10 5 C 10 3.897 10.897 3 12 3 z M 6.6757812 9.2050781 L 8.3125 9.2050781 L 8.3125 13.167969 L 8.4765625 12.949219 L 9.7109375 11.414062 L 11.671875 11.414062 L 9.8320312 13.576172 L 11.792969 16.669922 L 9.9199219 16.669922 L 8.7734375 14.712891 L 8.3105469 15.173828 L 8.3105469 16.669922 L 6.6757812 16.669922 L 6.6757812 9.2050781 z M 14.40625 11.318359 C 14.95325 11.318359 15.3815 11.502094 15.6875 11.871094 L 15.746094 11.414062 L 17.232422 11.414062 L 17.232422 16.470703 C 17.232422 16.933703 17.125203 17.335734 16.908203 17.677734 C 16.693203 18.018734 16.383609 18.280891 15.974609 18.462891 C 15.566609 18.646891 15.093641 18.736328 14.556641 18.736328 C 14.171641 18.736328 13.7985 18.664578 13.4375 18.517578 C 13.0765 18.371578 12.800375 18.183172 12.609375 17.951172 L 13.294922 16.988281 C 13.598922 17.347281 14.000047 17.527344 14.498047 17.527344 C 15.223047 17.527344 15.585937 17.156109 15.585938 16.412109 L 15.585938 16.246094 C 15.271937 16.593094 14.874484 16.765625 14.396484 16.765625 C 13.755484 16.765625 13.237797 16.52225 12.841797 16.03125 C 12.446797 15.54125 12.25 14.8855 12.25 14.0625 L 12.25 14.003906 C 12.25 13.473906 12.337719 13.003703 12.511719 12.595703 C 12.687719 12.188703 12.938625 11.871391 13.265625 11.650391 C 13.592625 11.429391 13.97225 11.318359 14.40625 11.318359 z M 14.824219 12.580078 C 14.532219 12.579078 14.304672 12.710703 14.138672 12.970703 C 13.973672 13.232703 13.890625 13.609469 13.890625 14.105469 C 13.890625 14.535469 13.972766 14.876953 14.134766 15.126953 C 14.295766 15.377953 14.522453 15.503906 14.814453 15.503906 C 15.166453 15.503906 15.423938 15.384438 15.585938 15.148438 L 15.585938 12.939453 C 15.427938 12.700453 15.174219 12.580078 14.824219 12.580078 z"/>
</svg>
