<?xml version="1.0"?>
<svg xmlns="http://www.w3.org/2000/svg" viewBox="0 0 24 24">
    <path d="M 10.5 3 C 5.813 3 2 6.14 2 10 C 2 11.363 2.4712344 12.668687 3.3652344 13.804688 L 2.9160156 18.826172 L 6.546875 16.197266 C 7.6862861 16.690262 8.9461651 16.953107 10.234375 16.986328 C 10.959412 19.30593 13.308451 20.960937 16 20.960938 C 16.852682 20.960938 17.602497 20.688951 18.326172 20.396484 L 22.095703 21.947266 L 21.388672 17.585938 C 21.701329 16.93552 22 16.260453 22 15.480469 C 22 13.412493 20.754011 11.651177 18.953125 10.716797 C 18.982307 10.479272 19 10.24099 19 10 C 19 6.14 15.187 3 10.5 3 z M 8.0175781 6.75 C 8.7085781 6.75 9.2675781 7.3043281 9.2675781 7.9863281 C 9.2675781 8.6683281 8.7085781 9.25 8.0175781 9.25 C 7.3265781 9.25 6.7675781 8.6703281 6.7675781 7.9863281 C 6.7675781 7.3033281 7.3265781 6.75 8.0175781 6.75 z M 13.013672 6.75 C 13.695672 6.75 14.25 7.3043281 14.25 7.9863281 C 14.25 8.6703281 13.696672 9.25 13.013672 9.25 C 12.328672 9.25 11.75 8.6703281 11.75 7.9863281 C 11.75 7.3033281 12.329672 6.75 13.013672 6.75 z M 16 12 C 18.276634 12 20 13.60981 20 15.480469 C 20 16.045675 19.829186 16.57591 19.523438 17.082031 L 19.333984 17.396484 L 19.392578 17.759766 L 19.550781 18.736328 L 18.402344 18.263672 L 17.994141 18.472656 C 17.393918 18.77773 16.724723 18.960938 16 18.960938 C 13.723366 18.960938 12 17.351127 12 15.480469 C 12 13.60981 13.723366 12 16 12 z M 14.021484 14 C 13.469484 14 13 14.447 13 15 C 13 15.553 13.472484 16 14.021484 16 C 14.570484 16 15.015625 15.553 15.015625 15 C 15.015625 14.447 14.571484 14 14.021484 14 z M 17.992188 14 A 0.99299997 1 0 0 0 17 15 A 0.99299997 1 0 0 0 17.992188 16 A 0.99299997 1 0 0 0 18.986328 15 A 0.99299997 1 0 0 0 17.992188 14 z"/>
</svg>
