<?xml version="1.0"?>
<svg xmlns="http://www.w3.org/2000/svg" viewBox="0 0 24 24">
    <path style="line-height:normal;text-indent:0;text-align:start;text-decoration-line:none;text-decoration-style:solid;text-decoration-color:#000;text-transform:none;block-progression:tb;isolation:auto;mix-blend-mode:normal" d="M 11 1 L 11 3.0625 C 7.679347 3.4295886 4.8937082 5.595205 3.6445312 8.6367188 L 6.8867188 7.1953125 C 8.1827187 5.8553125 9.982 5 12 5 C 15.9 5 19 8.1 19 12 C 19 15.9 15.9 19 12 19 C 9.982 19 8.1827187 18.144687 6.8867188 16.804688 L 3.6445312 15.363281 C 4.8937082 18.404795 7.679347 20.570411 11 20.9375 L 11 23 L 13 23 L 13 20.941406 C 17.19428 20.485137 20.485137 17.19428 20.941406 13 L 23 13 L 23 11 L 20.941406 11 C 20.485137 6.8057199 17.19428 3.514863 13 3.0585938 L 13 1 L 11 1 z M 10 8 L 1 12 L 10 16 L 8 12 L 10 8 z" font-weight="400" font-family="sans-serif" white-space="normal" overflow="visible"/>
</svg>
