<?xml version="1.0"?>
<svg xmlns="http://www.w3.org/2000/svg" viewBox="0 0 24 24">
    <path d="M12,2C6.5,2,2,6.5,2,12s4.5,10,10,10s10-4.5,10-10S17.5,2,12,2z M11,4.06C11.33,4.02,11.66,4,12,4s0.67,0.02,1,0.06V7h-2 V4.06z M5.63,7.17l2.52,1.45l-1,1.74L4.63,8.9C4.89,8.28,5.23,7.7,5.63,7.17z M5.63,16.83c-0.4-0.53-0.74-1.11-1-1.73l2.54-1.47 l1,1.73L5.63,16.83z M13,19.94C12.67,19.98,12.34,20,12,20s-0.67-0.02-1-0.06V17h2V19.94z M12,14c-1.105,0-2-0.895-2-2 c0-1.105,0.895-2,2-2s2,0.895,2,2C14,13.105,13.105,14,12,14z M18.37,7.17c0.4,0.53,0.74,1.11,1,1.73l-2.53,1.46l-1-1.73L18.37,7.17 z M18.37,16.83l-2.51-1.45l1-1.73l2.51,1.45C19.11,15.72,18.77,16.3,18.37,16.83z"/>
</svg>
