<?xml version="1.0"?>
<svg xmlns="http://www.w3.org/2000/svg" viewBox="0 0 24 24">
    <path d="M 12 3 C 9.3090307 3 6.921303 4.1319008 5.2910156 6 L 4 6 C 1.8 6 0 7.8 0 10 L 0 14 C 0 16.2 1.8 18 4 18 L 5.2910156 18 C 6.921303 19.868099 9.3090307 21 12 21 C 14.690969 21 17.078697 19.868099 18.708984 18 L 20 18 C 22.2 18 24 16.2 24 14 L 24 10 C 24 7.8 22.2 6 20 6 L 18.708984 6 C 17.078697 4.1319008 14.690969 3 12 3 z M 14 8 L 20 8 C 21.1 8 22 8.9 22 10 L 22 14 C 22 15.1 21.1 16 20 16 L 10 16 C 11.1 16 12 15.1 12 14 L 12 10 C 12 8.9 12.9 8 14 8 z M 9.5996094 8.8007812 C 10.199609 8.8007812 10.199219 9.3003906 10.199219 9.4003906 C 10.199219 10.000391 9.6996094 10 9.5996094 10 C 9.0996094 10 9 9.5003906 9 9.4003906 C 9 8.8003906 9.4996094 8.8007813 9.5996094 8.8007812 z M 18.599609 8.8007812 C 18.499609 8.8007813 18 8.8003906 18 9.4003906 C 18 9.5003906 18.099609 10 18.599609 10 C 18.699609 10 19.199219 10.000391 19.199219 9.4003906 C 19.199219 9.3003906 19.199609 8.8007812 18.599609 8.8007812 z M 2 9 L 3.1992188 9 L 3.8007812 12.800781 L 4.5 9 L 5.5 9 L 6.1992188 12.800781 L 6.8007812 9 L 8 9 L 6.9003906 15 L 5.6992188 15 L 5 11.5 L 4.3007812 15 L 3.0996094 15 L 2 9 z M 14 9 L 14 15 L 15.199219 15 L 15.199219 12.599609 L 17.099609 12.599609 L 17.099609 11.5 L 15.199219 11.5 L 15.199219 10 L 17.300781 10 L 17.300781 9 L 14 9 z M 18 10.5 L 18 15 L 19.199219 15 L 19.199219 10.5 L 18 10.5 z M 9.0996094 10.599609 L 10.300781 10.599609 L 10.300781 15 L 9.0996094 15 L 9.0996094 10.599609 z"/>
</svg>
