<?xml version="1.0"?>
<svg xmlns="http://www.w3.org/2000/svg" viewBox="0 0 24 24">
    <path d="M 2 2 L 2 4 L 22 4 L 22 2 L 2 2 z M 12 5 C 9.3090307 5 6.921303 6.1319008 5.2910156 8 L 4 8 C 1.8 8 0 9.8 0 12 L 0 16 C 0 18.2 1.8 20 4 20 L 5.2910156 20 C 6.921303 21.868099 9.3090307 23 12 23 C 14.690969 23 17.078697 21.868099 18.708984 20 L 20 20 C 22.2 20 24 18.2 24 16 L 24 12 C 24 9.8 22.2 8 20 8 L 18.708984 8 C 17.078697 6.1319008 14.690969 5 12 5 z M 14 10 L 20 10 C 21.1 10 22 10.9 22 12 L 22 16 C 22 17.1 21.1 18 20 18 L 10 18 C 11.1 18 12 17.1 12 16 L 12 12 C 12 10.9 12.9 10 14 10 z M 9.5996094 10.800781 C 10.199609 10.800781 10.199219 11.300391 10.199219 11.400391 C 10.199219 12.000391 9.6996094 12 9.5996094 12 C 9.0996094 12 9 11.500391 9 11.400391 C 9 10.800391 9.4996094 10.800781 9.5996094 10.800781 z M 18.599609 10.800781 C 18.499609 10.800781 18 10.800391 18 11.400391 C 18 11.500391 18.099609 12 18.599609 12 C 18.699609 12 19.199219 12.000391 19.199219 11.400391 C 19.199219 11.300391 19.199609 10.800781 18.599609 10.800781 z M 2 11 L 3.1992188 11 L 3.8007812 14.800781 L 4.5 11 L 5.5 11 L 6.1992188 14.800781 L 6.8007812 11 L 8 11 L 6.9003906 17 L 5.6992188 17 L 5 13.5 L 4.3007812 17 L 3.0996094 17 L 2 11 z M 14 11 L 14 17 L 15.199219 17 L 15.199219 14.599609 L 17.099609 14.599609 L 17.099609 13.5 L 15.199219 13.5 L 15.199219 12 L 17.300781 12 L 17.300781 11 L 14 11 z M 18 12.5 L 18 17 L 19.199219 17 L 19.199219 12.5 L 18 12.5 z M 9.0996094 12.599609 L 10.300781 12.599609 L 10.300781 17 L 9.0996094 17 L 9.0996094 12.599609 z"/>
</svg>
