<?xml version="1.0"?>
<svg xmlns="http://www.w3.org/2000/svg" viewBox="0 0 24 24">
    <path d="M 12 5 C 7.858 5 4.1075781 6.6785781 1.3925781 9.3925781 L 3.3359375 11.335938 C 5.6389375 9.2699375 8.67 8 12 8 C 15.33 8 18.362063 9.2689375 20.664062 11.335938 L 22.605469 9.3945312 C 19.891469 6.6795313 16.142 5 12 5 z M 12 10 C 9.221 10 6.6870469 11.043047 4.7480469 12.748047 L 6.8691406 14.869141 C 8.2601406 13.704141 10.049 13 12 13 C 13.433 13 14.777406 13.383875 15.941406 14.046875 C 16.578406 13.164875 17.507844 12.526797 18.589844 12.216797 C 16.751844 10.831797 14.475 10 12 10 z M 20 14 C 18.3 14 17 15.3 17 17 L 17 18 C 16.4 18 16 18.4 16 19 L 16 23 C 16 23.6 16.4 24 17 24 L 23 24 C 23.6 24 24 23.6 24 23 L 24 19 C 24 18.4 23.6 18 23 18 L 23 17 C 23 15.3 21.7 14 20 14 z M 12 15 C 10.6 15 9.3149688 15.486969 8.2929688 16.292969 L 12 20 L 15.005859 16.994141 L 15.007812 16.720703 C 15.022813 16.440703 15.070906 16.17125 15.128906 15.90625 C 14.215906 15.34125 13.151 15 12 15 z M 20 15.5 C 20.8 15.5 21.5 16.2 21.5 17 L 21.5 18 L 18.5 18 L 18.5 17 C 18.5 16.2 19.2 15.5 20 15.5 z"/>
</svg>
