<?xml version="1.0"?>
<svg xmlns="http://www.w3.org/2000/svg" viewBox="0 0 24 24">
    <path style="line-height:normal;text-indent:0;text-align:start;text-decoration-line:none;text-decoration-style:solid;text-decoration-color:#000;text-transform:none;block-progression:tb;isolation:auto;mix-blend-mode:normal" d="M 16.802734 1.6972656 L 15.388672 3.1113281 C 17.544422 5.2670781 17.544422 8.7329218 15.388672 10.888672 L 16.802734 12.302734 C 19.722984 9.3824848 19.722984 4.6175156 16.802734 1.6972656 z M 5 3 L 5 15 L 3 15 L 3 21 L 21 21 L 21 15 L 11 15 L 11 7 L 9 7 L 9 15 L 7 15 L 7 3 L 5 3 z M 13.974609 4.5253906 L 12.560547 5.9394531 C 13.154255 6.5331614 13.154842 7.4656426 12.560547 8.0605469 L 13.974609 9.4746094 C 15.332314 8.1155137 15.332901 5.8836823 13.974609 4.5253906 z M 5 17 L 7 17 L 7 19 L 5 19 L 5 17 z M 9 17 L 11 17 L 11 19 L 9 19 L 9 17 z M 17 17 L 19 17 L 19 19 L 17 19 L 17 17 z" font-weight="400" font-family="sans-serif" white-space="normal" overflow="visible"/>
</svg>
