<?xml version="1.0"?>
<svg xmlns="http://www.w3.org/2000/svg" viewBox="0 0 24 24">
    <path d="M12,1L1,12l11,11l11-11L12,1z M15.33,16.48c-0.48,0.45-0.88-0.09-1.27,0C12.55,16.84,12,16.21,12,16.21 s-0.15,1.79-0.99,2.98l-3.24-3.24c1.44-0.79,2.48-3.09,2.48-3.09s-0.32,0.19-0.87-0.09c-0.56-0.27-0.95-1.17-0.79-1.44 c0.15-0.36,1.11-0.27,1.5,0c0.4,0.27,0.95,0.81,1.11,0.9c0.04,0.02,0.09,0,0.15-0.03l-0.23-0.87c0,0-1.34-1.81-1.58-2.08 C9.3,8.98,9.46,6,9.62,6c0.16,0,0,2.53,0.31,2.89c0.24,0.27,0.56,0.63,0.56,0.63s0.32-3.07,0.47-2.98c0.16,0.09-0.07,3.16,0.08,3.34 c0.16,0.18,0.4,0.37,0.56,0.55c0.16,0.09,0.63-2.26,0.79-2.08C12.55,8.53,12,10.7,12,10.7l0.38,1.31c0.13,0.03,0.26,0.07,0.41,0.13 c0.79,0.27,2.06,2.26,3.01,2.89c0.32,0.18,0.16,0.82,0.16,0.91C15.96,16.12,15.72,16.03,15.33,16.48z"/>
</svg>
