<?xml version="1.0"?>
<svg xmlns="http://www.w3.org/2000/svg" viewBox="0 0 24 24">
    <path d="M 9.3320312 3 C 7.3420312 3 5.4110781 3.9541406 5.3300781 3.9941406 L 4.8554688 4.2304688 L 4.0644531 10.167969 C 5.1434531 9.5959688 6.599 9 8 9 C 8.887 9 10.086484 9.4905156 11.396484 10.103516 L 12.246094 3.984375 C 11.173094 3.427375 10.173031 3 9.3320312 3 z M 21.298828 3.5898438 L 19.40625 4.9726562 C 19.39325 4.9826563 17.985313 6 16.570312 6 C 16.064312 6 15.071047 5.5090469 14.123047 4.9980469 L 13.289062 11.007812 C 14.370062 11.517812 15.48 12 16 12 C 17.629 12 19.287844 11.323969 20.339844 10.792969 L 21.298828 3.5898438 z M 8 11 C 6.451 11 4.4965625 12.164891 3.7265625 12.712891 L 2.7460938 20.052734 L 4.4804688 19.099609 C 5.0364688 18.793609 6.753 18 8 18 C 8.467 18 9.3258281 18.427437 10.173828 18.898438 L 11.107422 12.179688 C 9.9114219 11.607688 8.584 11 8 11 z M 13.001953 13.078125 L 12.044922 19.960938 C 13.112922 20.544938 14.114281 21 14.988281 21 C 17.024281 21 18.675141 20.006844 18.744141 19.964844 L 19.150391 19.716797 L 20.029297 13.126953 C 18.877297 13.590953 17.45 14 16 14 C 15.204 14 14.155953 13.602125 13.001953 13.078125 z"/>
</svg>
