<?xml version="1.0"?>
<svg xmlns="http://www.w3.org/2000/svg" viewBox="0 0 24 24">
    <path style="line-height:normal;text-indent:0;text-align:start;text-decoration-line:none;text-decoration-style:solid;text-decoration-color:#000;text-transform:none;block-progression:tb;isolation:auto;mix-blend-mode:normal" d="M 2 3 L 2 9 L 22 9 L 22 3 L 2 3 z M 5 5 C 5.552 5 6 5.448 6 6 C 6 6.552 5.552 7 5 7 C 4.448 7 4 6.552 4 6 C 4 5.448 4.448 5 5 5 z M 8.4140625 5 L 10.585938 5 L 12.585938 7 L 10.414062 7 L 8.4140625 5 z M 13.414062 5 L 15.585938 5 L 17.585938 7 L 15.414062 7 L 13.414062 5 z M 18.414062 5 L 20 5 L 20 6.5859375 L 18.414062 5 z M 2 11 L 2 21 L 22 21 L 22 11 L 2 11 z" font-weight="400" font-family="sans-serif" white-space="normal" overflow="visible"/>
</svg>
