<?xml version="1.0"?>
<svg xmlns="http://www.w3.org/2000/svg" viewBox="0 0 24 24">
    <path style="line-height:normal;text-indent:0;text-align:start;text-decoration-line:none;text-decoration-style:solid;text-decoration-color:#000;text-transform:none;block-progression:tb;isolation:auto;mix-blend-mode:normal" d="M 5 3 C 3.3549904 3 2 4.3549904 2 6 C 2 7.6450096 3.3549904 9 5 9 C 6.2931586 9 7.3951413 8.15733 7.8125 7 L 9.1875 7 C 9.491301 7.8424361 10.157564 8.508699 11 8.8125 L 11 11 L 3 11 L 3 12 L 3 21 L 21 21 L 21 11 L 13 11 L 13 8.8125 C 13.842436 8.508699 14.508699 7.8424361 14.8125 7 L 16.1875 7 C 16.604859 8.15733 17.706841 9 19 9 C 20.64501 9 22 7.6450096 22 6 C 22 4.3549904 20.64501 3 19 3 C 17.706841 3 16.604859 3.84267 16.1875 5 L 14.8125 5 C 14.395141 3.84267 13.293159 3 12 3 C 10.706841 3 9.6048586 3.84267 9.1875 5 L 7.8125 5 C 7.3951413 3.84267 6.2931586 3 5 3 z M 5 5 C 5.5641294 5 6 5.4358706 6 6 C 6 6.5641294 5.5641294 7 5 7 C 4.4358706 7 4 6.5641294 4 6 C 4 5.4358706 4.4358706 5 5 5 z M 19 5 C 19.564129 5 20 5.4358706 20 6 C 20 6.5641294 19.564129 7 19 7 C 18.435871 7 18 6.5641294 18 6 C 18 5.4358706 18.435871 5 19 5 z M 5 13 L 19 13 L 19 16 L 10 16 L 10 14 L 8 14 L 8 16 L 5 16 L 5 13 z"/>
</svg>
