<?xml version="1.0"?>
<svg xmlns="http://www.w3.org/2000/svg" viewBox="0 0 24 24">
    <path d="M 3 3 L 3 21 L 13.109375 21 C 11.638375 19.276 10.193469 16.746234 11.480469 13.990234 C 11.648469 13.631234 11.863609 13.305 12.099609 13 L 10.990234 13 L 10.990234 11 L 16.064453 11 C 16.927453 11 17.741234 11.199703 18.490234 11.595703 C 19.239234 11.199703 20.052062 11 20.914062 11 L 20.921875 11 C 20.944875 11 20.967234 11.005859 20.990234 11.005859 L 20.990234 3 L 3 3 z M 6.9902344 7 L 8.9902344 7 L 8.9902344 9 L 6.9902344 9 L 6.9902344 7 z M 10.990234 7 L 16.990234 7 L 16.990234 9 L 10.990234 9 L 10.990234 7 z M 6.9902344 11 L 8.9902344 11 L 8.9902344 13 L 6.9902344 13 L 6.9902344 11 z M 16.076172 12.998047 C 14.927172 13.000047 13.815734 13.738938 13.302734 14.835938 C 12.214734 17.164938 14.271547 19.500391 16.185547 21.275391 L 16.408203 21.482422 C 16.898203 21.951422 17.813 22.65125 18.5 23.15625 C 19.186 22.65125 20.099078 21.954141 20.580078 21.494141 L 20.810547 21.279297 C 22.727547 19.501297 24.785266 17.164938 23.697266 14.835938 C 23.185266 13.739937 22.072734 13.002 20.927734 13 L 20.923828 13 C 20.288828 13 19.694156 13.177391 19.160156 13.525391 L 18.501953 13.955078 L 17.841797 13.525391 C 17.306797 13.176391 16.711172 12.998047 16.076172 12.998047 z M 6.9902344 15 L 8.9902344 15 L 8.9902344 17 L 6.9902344 17 L 6.9902344 15 z"/>
</svg>
