<?xml version="1.0"?>
<svg xmlns="http://www.w3.org/2000/svg" viewBox="0 0 24 24">
    <path style="line-height:normal;text-indent:0;text-align:start;text-decoration-line:none;text-decoration-style:solid;text-decoration-color:#000;text-transform:none;block-progression:tb;isolation:auto;mix-blend-mode:normal" d="M 5 2 L 5 9 L 1 9 L 1 18 L 5 18 L 5 22 L 21 22 L 21 18 L 21 9 L 21 7 L 16 2 L 5 2 z M 7 4 L 15 4 L 15 8 L 19 8 L 19 9 L 7 9 L 7 4 z M 16.345703 11 L 17.646484 11 L 19 16 L 17.9375 16 L 17.679688 15 L 16.310547 15 L 16.052734 16 L 15 16 L 16.345703 11 z M 3 11.023438 L 4.0117188 11.023438 L 4.484375 14.146484 L 5.0761719 11.023438 L 5.9277344 11.023438 L 6.5175781 14.150391 L 6.9941406 11.023438 L 8 11.023438 L 7.1054688 16 L 6.0878906 16 L 5.5019531 13.066406 L 4.9199219 16 L 3.8984375 16 L 3 11.023438 z M 9 11.023438 L 10.457031 11.023438 L 11.501953 14.623047 L 12.542969 11.023438 L 14 11.023438 L 14 16 L 13.998047 16 L 13 16 L 13 14.652344 L 13.103516 12.578125 L 11.876953 16 L 11.117188 16 L 9.8984375 12.578125 L 10 14.652344 L 10 16 L 9 16 L 9 11.023438 z M 16.992188 12.353516 L 16.568359 14 L 17.419922 14 L 16.992188 12.353516 z M 7 18 L 19 18 L 19 20 L 7 20 L 7 18 z" font-weight="400" font-family="sans-serif" white-space="normal" overflow="visible"/>
</svg>
