<?xml version="1.0"?>
<svg xmlns="http://www.w3.org/2000/svg" viewBox="0 0 24 24">
    <path d="M22,4h-2.254l-1.266,5.25h-3.951L12.993,4h-1.881L9.518,9.25H5.533L4.243,4H2l1.348,5.25H2V11h1.801l0.515,2H2v1.75h2.769 L6.124,20h2.044l1.632-5.25h4.468L15.844,20h2.044l1.343-5.25H22V13h-2.316l0.515-2H22V9.25h-1.348L22,4z M11.801,8.341l0.269-1.22 l0.269,1.22l0.274,0.909h-1.098L11.801,8.341z M7.736,15.165l-0.467,1.901l-0.339-2.11L6.873,14.75h0.989L7.736,15.165z M6.443,13 l-0.482-2h3.03l-0.603,2H6.443z M10.351,13l0.625-2h2.164l0.603,2H10.351z M17.117,14.945l-0.362,2.176l-0.479-1.955L16.15,14.75 h1.014L17.117,14.945z M17.581,13h-1.945l-0.592-2h3.02L17.581,13z"/>
</svg>
