<?xml version="1.0"?>
<svg xmlns="http://www.w3.org/2000/svg" viewBox="0 0 24 24">
    <path d="M 3 3 L 3 5.4140625 L 5.4140625 3 L 3 3 z M 8.5859375 3 L 14.292969 8.7070312 L 15.707031 7.2929688 L 11.414062 3 L 8.5859375 3 z M 16.585938 3 L 15.292969 4.2929688 L 16.707031 5.7070312 L 19.414062 3 L 16.585938 3 z M 7.2929688 4.2929688 L 3 8.5859375 L 3 11.414062 L 8.7070312 5.7070312 L 7.2929688 4.2929688 z M 21 4.5859375 L 15.292969 10.292969 L 16.707031 11.707031 L 21 7.4140625 L 21 4.5859375 z M 9.7070312 7.2929688 L 8.2910156 8.7070312 L 14.291016 14.707031 L 15.705078 13.292969 L 9.7070312 7.2929688 z M 7.2929688 10.292969 L 3 14.585938 L 3 17.414062 L 8.7070312 11.707031 L 7.2929688 10.292969 z M 21 10.585938 L 15.292969 16.292969 L 16.707031 17.707031 L 21 13.414062 L 21 10.585938 z M 9.7070312 13.292969 L 8.2910156 14.707031 L 14.291016 20.707031 L 15.705078 19.292969 L 9.7070312 13.292969 z M 7.2929688 16.292969 L 3 20.585938 L 3 21 L 5.4140625 21 L 8.7070312 17.707031 L 7.2929688 16.292969 z M 21 16.585938 L 16.585938 21 L 19.414062 21 L 21 19.414062 L 21 16.585938 z M 9.7070312 19.292969 L 8.2929688 20.707031 L 8.5859375 21 L 11.414062 21 L 9.7070312 19.292969 z"/>
</svg>
