<?xml version="1.0"?>
<svg xmlns="http://www.w3.org/2000/svg" viewBox="0 0 24 24">
    <path d="M 11 2 L 11 3.1015625 C 9.0443437 3.5004356 7.5004356 5.0443437 7.1015625 7 L 6 7 L 6 9 L 8 9 C 8 11.197334 9.8026661 13 12 13 C 14.197334 13 16 11.197334 16 9 L 18 9 L 18 7 L 16.898438 7 C 16.499564 5.0443437 14.955656 3.5004356 13 3.1015625 L 13 2 L 11 2 z M 10 9 L 14 9 C 14 10.116666 13.116666 11 12 11 C 10.883334 11 10 10.116666 10 9 z M 12 15 C 11.144 15 10.086 15.118703 9 15.345703 L 9 21 L 15 21 L 15 15.345703 C 13.914 15.118703 12.856 15 12 15 z M 7 15.888672 C 4.834 16.635672 3 17.847 3 19.5 L 3 21 L 7 21 L 7 15.888672 z M 17 15.888672 L 17 21 L 21 21 L 21 19.5 C 21 17.847 19.166 16.635672 17 15.888672 z"/>
</svg>
