<?xml version="1.0"?>
<svg xmlns="http://www.w3.org/2000/svg" viewBox="0 0 24 24">
    <path d="M 6.0019531 3 A 2 2 0 0 0 4.0019531 5 A 2 2 0 0 0 6.0019531 7 A 2 2 0 0 0 8.0019531 5 A 2 2 0 0 0 6.0019531 3 z M 4 8 C 2.729 8 2 9.3583437 2 11.027344 L 2 16 L 3 16 L 3 22 L 5 22 L 5 16 L 6 16 L 6 22 L 8 22 L 8 16 L 8 10.414062 L 12 13 L 13.171875 11.416016 L 8.7070312 8.2929688 C 8.5200312 8.1049688 8.265 8 8 8 L 4 8 z M 12 13 L 10 13 L 10 19 L 12 19 L 12 22 L 14 22 L 14 19 L 17 19 L 17 22 L 19 22 L 19 19 L 21 19 L 21 13 L 12 13 z M 12.800781 15 L 14.929688 15 L 14.199219 17 L 12.070312 17 L 12.800781 15 z M 16.800781 15 L 18.929688 15 L 18.199219 17 L 16.070312 17 L 16.800781 15 z"/>
</svg>
