<?xml version="1.0"?>
<svg xmlns="http://www.w3.org/2000/svg" viewBox="0 0 24 24">
    <path d="M 18.5 2 C 16.015 2 14 4.015 14 6.5 C 14 6.951301 14.087274 7.3780192 14.210938 7.7890625 L 12.5 9.5 L 15.5 12.5 L 17.210938 10.789062 C 17.621981 10.912726 18.048699 11 18.5 11 C 20.985 11 23 8.985 23 6.5 C 23 5.841 22.850703 5.2182969 22.595703 4.6542969 L 19.625 7.625 L 17.375 5.375 L 20.345703 2.4042969 C 19.781703 2.1492969 19.159 2 18.5 2 z M 7.6269531 7 L 0.1796875 14.445312 L 7.7382812 22.013672 L 14.025391 19.074219 L 16.900391 16.328125 L 9.4628906 8.8925781 L 11.404297 7 L 7.6269531 7 z"/>
</svg>
