<?xml version="1.0"?>
<svg xmlns="http://www.w3.org/2000/svg" viewBox="0 0 24 24">
    <path style="line-height:normal;text-indent:0;text-align:start;text-decoration-line:none;text-decoration-style:solid;text-decoration-color:#000;text-transform:none;block-progression:tb;isolation:auto;mix-blend-mode:normal" d="M 15 3 L 15 4.0878906 C 12.401386 4.5263277 10.367871 6.6377295 10.048828 9.2753906 C 10.740828 9.4583906 11.395 9.7310312 12 10.082031 L 12 10.080078 C 12.507 10.376078 12.972391 10.732859 13.400391 11.130859 C 13.582391 11.298859 13.750016 11.479109 13.916016 11.662109 C 14.017016 11.775109 14.125703 11.880047 14.220703 11.998047 L 14.222656 11.998047 C 14.476656 12.314047 14.712969 12.645047 14.917969 12.998047 L 23 12.998047 L 23 10.998047 L 22 10.998047 L 22 10 C 22 7.785 20.79 5.8515 19 4.8125 L 19 9 L 17 9 L 17 4.0898438 L 17 3 L 15 3 z M 7 10 L 7 11.091797 C 4.1667695 11.570176 2 14.032553 2 17 L 2 18 L 1 18 L 1 20 L 15 20 L 15 18 L 14 18 L 14 17 C 14 14.785 12.79 12.8515 11 11.8125 L 11 16 L 9 16 L 9 11.089844 L 9 10 L 7 10 z" font-weight="400" font-family="sans-serif" white-space="normal" overflow="visible"/>
</svg>
