<?xml version="1.0"?>
<svg xmlns="http://www.w3.org/2000/svg" viewBox="0 0 24 24">
    <path d="M 20 0 C 17.791 0 16 1.791 16 4 C 16 6.857 20 11 20 11 C 20 11 24 6.857 24 4 C 24 1.791 22.209 0 20 0 z M 12 2 C 8.7383155 2 5.8460785 3.5763829 4.0195312 6 L 4 6 L 4 6.0253906 C 2.7503392 7.6945815 2 9.7591672 2 12 C 2 17.514 6.486 22 12 22 C 17.514 22 22 17.514 22 12 C 22 11.93 21.991234 11.861969 21.990234 11.792969 C 21.752234 12.057969 21.556453 12.266672 21.439453 12.388672 L 19.681641 14.216797 C 19.35079 15.361734 18.765745 16.396856 18 17.269531 L 18 16 L 15 16 L 15 12 L 9 12 L 9 10 L 11 10 L 11 7 L 13 7 C 13.589 7 14.114469 6.7409375 14.480469 6.3359375 C 14.188469 5.5549375 14 4.762 14 4 C 14 3.397 14.090812 2.8165781 14.257812 2.2675781 C 13.530813 2.0985781 12.777 2 12 2 z M 20 2.5703125 C 20.789 2.5703125 21.429688 3.211 21.429688 4 C 21.429688 4.789 20.789 5.4296875 20 5.4296875 C 19.211 5.4296875 18.570312 4.789 18.570312 4 C 18.570312 3.211 19.211 2.5703125 20 2.5703125 z M 4.2109375 10.210938 L 6 12 L 9 15 L 9 18 L 11 18 L 11 19.931641 C 7.0603971 19.43685 4 16.071519 4 12 C 4 11.383953 4.0779518 10.787109 4.2109375 10.210938 z"/>
</svg>
