<?xml version="1.0"?>
<svg xmlns="http://www.w3.org/2000/svg" viewBox="0 0 24 24">
    <path d="M 21 2.5234375 L 14.96875 4.9355469 L 8.96875 2.9355469 L 3 5.3222656 L 3 21.476562 L 9.03125 19.064453 L 15.03125 21.064453 L 21 18.677734 L 21 2.5234375 z M 9.03125 5.0644531 L 15.03125 7.0644531 L 19 5.4765625 L 19 17.322266 L 14.96875 18.935547 L 8.96875 16.935547 L 5 18.523438 L 5 6.6777344 L 9.03125 5.0644531 z M 9 8 L 7 9 L 7 16 L 9 15.349609 L 9 12 L 11 13 L 13 15 L 13 16 L 15 17 L 15 14 L 17 13 L 17 9 L 15 9 L 12 8 L 11 9 L 9 8 z"/>
</svg>
