<?xml version="1.0"?>
<svg xmlns="http://www.w3.org/2000/svg" viewBox="0 0 24 24">
    <path style="line-height:normal;text-indent:0;text-align:start;text-decoration-line:none;text-decoration-style:solid;text-decoration-color:#000;text-transform:none;block-progression:tb;isolation:auto;mix-blend-mode:normal" d="M 15 3 C 11.691 3 9 5.691 9 9 C 9 9.518 9.0709375 10.035875 9.2109375 10.546875 L 4.6347656 15.123047 C 3.1294504 15.513823 2 16.878977 2 18.5 C 2 20.421152 3.578848 22 5.5 22 C 7.1210229 22 8.486177 20.87055 8.8769531 19.365234 L 13.453125 14.789062 C 13.964125 14.929063 14.482 15 15 15 C 18.309 15 21 12.309 21 9 C 21 8.266 20.857172 7.5314062 20.576172 6.8164062 L 20.417969 6.4101562 L 18.414062 8.4140625 C 18.024063 8.8050625 17.512 9 17 9 C 16.488 9 15.975938 8.8050625 15.585938 8.4140625 C 14.804937 7.6330625 14.804938 6.3669375 15.585938 5.5859375 L 17.589844 3.5820312 L 17.183594 3.4238281 C 16.468594 3.1428281 15.734 3 15 3 z M 5.5 17 C 6.3402718 17 7 17.659728 7 18.5 C 7 19.340272 6.3402718 20 5.5 20 C 4.6597282 20 4 19.340272 4 18.5 C 4 17.659728 4.6597282 17 5.5 17 z" font-weight="400" font-family="sans-serif" white-space="normal" overflow="visible"/>
</svg>
