<?xml version="1.0"?>
<svg xmlns="http://www.w3.org/2000/svg" viewBox="0 0 24 24">
    <path d="M 9.5 4 A 1.5 1.5 0 0 0 8 5.5 A 1.5 1.5 0 0 0 9.5 7 A 1.5 1.5 0 0 0 11 5.5 A 1.5 1.5 0 0 0 9.5 4 z M 13.5 6 A 1.5 1.5 0 0 0 12 7.5 A 1.5 1.5 0 0 0 13.5 9 A 1.5 1.5 0 0 0 15 7.5 A 1.5 1.5 0 0 0 13.5 6 z M 7.7558594 7.0175781 C 7.4433594 6.9838281 7.1243594 7.0204062 6.8183594 7.1289062 C 6.2063594 7.3459063 5.7334844 7.8215469 5.5214844 8.4355469 L 4.2753906 12.037109 C 4.0933906 12.563109 4 13.116828 4 13.673828 L 4 16.242188 L 2.0078125 20 L 3.9023438 20 L 5.7109375 16.464844 C 5.9009375 16.062844 6 15.623688 6 15.179688 L 6.0019531 14.490234 L 7.8398438 16.195312 L 8.6113281 20 L 10.441406 20 L 9.4882812 15.632812 C 9.4282812 15.356813 9.3105781 15.096141 9.1425781 14.869141 L 7.5742188 12.75 L 8.4570312 10.292969 L 8.984375 11.232422 C 9.250375 11.706422 9.752875 12 10.296875 12 L 12.542969 12 L 12.929688 10 L 10.585938 10 L 9.3222656 7.7460938 L 8.6503906 7.328125 C 8.3743906 7.155625 8.0683594 7.0513281 7.7558594 7.0175781 z M 16.292969 8.0019531 C 15.769969 8.0019531 15.261391 8.2187031 14.900391 8.5957031 L 13.921875 9.6152344 L 13.25 12.412109 L 10.853516 13.785156 L 11.847656 15.521484 L 14.244141 14.148438 C 14.720141 13.876437 15.067312 13.413906 15.195312 12.878906 L 15.646484 10.998047 L 17.376953 12.699219 L 15.162109 15.160156 C 14.916109 15.431156 14.748688 15.766859 14.679688 16.130859 L 13.951172 20 L 15.986328 20 L 16.646484 16.501953 L 18.064453 14.925781 L 17.759766 16.251953 C 17.563766 16.844953 17.637953 17.495578 18.001953 18.017578 L 19.386719 20 L 21.824219 20 L 19.642578 16.873047 L 20.728516 14.070312 C 21.171516 12.921312 20.880328 11.629297 19.986328 10.779297 L 17.689453 8.5996094 C 17.327453 8.2196094 16.819922 8.0029531 16.294922 8.0019531 L 16.292969 8.0019531 z"/>
</svg>
