<?xml version="1.0"?>
<svg xmlns="http://www.w3.org/2000/svg" viewBox="0 0 24 24">
    <path d="M12,2c-0.948,0-1.861,0.14-2.729,0.388C8.454,1.018,6.98,0,5,0C1.912,0,0,2.595,0,5c0,1.105,0,2,0,2h2h0.643 C2.27,7.644,2,8.293,2,9v3c0,5.523,4.477,10,10,10s10-4.477,10-10S17.523,2,12,2z M2,5c0-1.21,0.954-3,3-3c1.878,0,3,1.525,3,3 c0,1.422-2,3.014-2,4H4c0-0.975,2-2.946,2-4c0-0.01-0.011-1-1-1C4.174,4,4,4.835,4,5H2z M4,11h2v2H4v-1V11z M9,9 c0-1.107,0.67-2,1.5-2S12,7.893,12,9c0,1.107-0.67,2-1.5,2S9,10.107,9,9z M13.354,17c-0.882,0-1.793-0.413-2.268-1.028 c-0.111-0.143-0.115-0.336-0.011-0.484c0.042-0.06,1.074-1.468,4.47-1.468c0.251,0,0.455,0.19,0.455,0.426 C16,15.854,14.813,17,13.354,17z M18,9.5c0,0.83-0.67,1.5-1.5,1.5S15,10.33,15,9.5C15,9.179,15,9,15,9h3C18,9,18,9.179,18,9.5z"/>
</svg>
