<?xml version="1.0"?>
<svg xmlns="http://www.w3.org/2000/svg" viewBox="0 0 24 24">
    <path d="M 2 3 L 2 4.6054688 L 3.8964844 8.9707031 L 2.4355469 11.892578 L 1 12.179688 L 1 13 C 1 17.34 3.1990625 19.609219 3.2890625 19.699219 L 3.5800781 20 L 19.410156 20 L 19.710938 19.710938 C 19.840937 19.570937 23 16.33 23 9 L 23 7.7792969 L 20.162109 8.3476562 L 14.222656 3.9570312 L 8.3164062 4.7089844 L 5.9140625 3 L 2 3 z M 4.3515625 5 L 5.2753906 5 L 7.7929688 6.7910156 L 13.679688 6.0429688 L 17.515625 8.8769531 L 4.9199219 11.396484 L 6.1035156 9.0292969 L 4.3515625 5 z M 17 11 C 17.55 11 18 11.45 18 12 C 18 12.55 17.55 13 17 13 C 16.45 13 16 12.55 16 12 C 16 11.45 16.45 11 17 11 z M 12 12 C 12.55 12 13 12.45 13 13 C 13 13.55 12.55 14 12 14 C 11.45 14 11 13.55 11 13 C 11 12.45 11.45 12 12 12 z M 7 13 C 7.55 13 8 13.45 8 14 C 8 14.55 7.55 15 7 15 C 6.45 15 6 14.55 6 14 C 6 13.45 6.45 13 7 13 z"/>
</svg>
