<?xml version="1.0"?>
<svg xmlns="http://www.w3.org/2000/svg" viewBox="0 0 24 24">
    <path style="line-height:normal;text-indent:0;text-align:start;text-decoration-line:none;text-decoration-style:solid;text-decoration-color:#000;text-transform:none;block-progression:tb;isolation:auto;mix-blend-mode:normal" d="M 4 2 L 4 9 L 2 9 L 2 18 L 4 18 L 4 22 L 20 22 L 20 7 L 15 2 L 4 2 z M 6 4 L 14 4 L 14 8 L 18 8 L 18 20 L 6 20 L 6 18 L 15 18 L 15 9 L 6 9 L 6 4 z M 4 11 L 7 11 L 7 12 L 5.3242188 15 L 7 15 L 7 16 L 4 16 L 4 15 L 5.7050781 12 L 4 12 L 4 11 z M 7.9941406 11 L 9 11 L 9 16 L 7.9941406 16 L 7.9941406 11 z M 10 11 L 11 11 L 11.5 11 C 12.328 11 13 11.672 13 12.5 C 13 13.328 12.328 14 11.5 14 L 11 14 L 11 16 L 10 16 L 10 14 L 10 11 z M 11 12 L 11 13 L 11.5 13 C 11.776 13 12 12.776 12 12.5 C 12 12.224 11.776 12 11.5 12 L 11 12 z"/>
</svg>
