<?xml version="1.0"?>
<svg xmlns="http://www.w3.org/2000/svg" viewBox="0 0 24 24">
    <path style="line-height:normal;text-indent:0;text-align:start;text-decoration-line:none;text-decoration-style:solid;text-decoration-color:#000;text-transform:none;block-progression:tb;isolation:auto;mix-blend-mode:normal" d="M 12 2.0996094 L 1 12 L 4 12 L 4 21 L 11 21 L 11 20 L 11 19 L 11 13 L 18 13 L 19 13 L 20 13 L 20 12 L 23 12 L 12 2.0996094 z M 13 15 L 13 16 L 15.716797 16 L 13 20 L 13 21 L 17 21 L 17 20 L 14.21875 20 L 17 16 L 17 15 L 13 15 z M 18 15 L 18 21 L 19 21 L 19 15 L 18 15 z M 20 15 L 20 21 L 21 21 L 21 19 L 21.212891 19 L 22.044922 19 C 22.349922 19 22.621328 18.950563 22.861328 18.851562 C 23.101328 18.752562 23.306609 18.6145 23.474609 18.4375 C 23.642609 18.2605 23.769375 18.051594 23.859375 17.808594 C 23.948375 17.565594 23.992187 17.300625 23.992188 17.015625 C 23.992188 17.010625 23.992187 17.006953 23.992188 17.001953 L 23.998047 17.001953 C 23.998047 16.996953 24 16.991328 24 16.986328 C 24 16.700328 23.956188 16.436359 23.867188 16.193359 C 23.777188 15.950359 23.648469 15.741453 23.480469 15.564453 C 23.312469 15.387453 23.109141 15.249391 22.869141 15.150391 C 22.629141 15.049391 22.355781 15 22.050781 15 L 21 15 L 20 15 z M 21.005859 16 L 22.050781 16 C 22.223781 16 22.371281 16.024266 22.488281 16.072266 C 22.597281 16.117266 22.683906 16.175047 22.753906 16.248047 C 22.828906 16.327047 22.885734 16.423109 22.927734 16.537109 C 22.959734 16.625109 22.981187 16.722172 22.992188 16.826172 L 22.992188 17 L 22.992188 17.058594 C 22.988187 17.207594 22.964875 17.344938 22.921875 17.460938 C 22.878875 17.576937 22.821094 17.672953 22.746094 17.751953 C 22.677094 17.824953 22.590422 17.882734 22.482422 17.927734 C 22.363422 17.975734 22.216922 18 22.044922 18 L 21.212891 18 L 21.001953 18 L 21.005859 16 z" font-weight="400" font-family="sans-serif" white-space="normal" overflow="visible"/>
</svg>
