<?xml version="1.0"?>
<svg xmlns="http://www.w3.org/2000/svg" viewBox="0 0 24 24">
    <path d="M 9 2 C 5.14 2 2 5.141 2 9 C 2 12.859 5.14 16 9 16 C 10.751048 16 12.351287 15.352682 13.578125 14.285156 L 14 14.707031 L 14 16 L 20 22 L 22 20 L 16 14 L 14.707031 14 L 14.279297 13.572266 C 15.135158 12.582404 15.724572 11.355443 15.919922 10 L 13.898438 10 C 13.433438 12.279 11.415 14 9 14 C 6.243 14 4 11.757 4 9 C 4 6.243 6.243 4 9 4 L 9 2 z M 11 2 L 11 8 L 13 8 L 13 2 L 11 2 z M 15 2 L 15 4 L 17 4 L 17 2 L 15 2 z M 19 2 L 19 8 L 21 8 L 21 2 L 19 2 z M 15 6 L 15 8 L 17 8 L 17 6 L 15 6 z"/>
</svg>
